<svg width="585" height="319" viewBox="0 0 585 319" fill="none" xmlns="http://www.w3.org/2000/svg">
<path d="M349.19 221.789C321.837 241.855 282.185 252.537 248.004 252.537C202.438 252.776 158.411 236.066 124.483 205.657C121.905 203.356 124.208 200.208 127.278 202.018C164.975 223.432 207.598 234.673 250.956 234.635C283.341 234.496 315.381 227.964 345.235 215.415C349.879 213.487 353.755 218.445 349.229 221.789H349.19ZM360.584 208.884C357.061 204.438 337.462 206.739 328.646 207.802C325.95 208.117 325.537 205.776 327.957 204.123C343.621 193.185 369.262 196.333 372.233 199.992C375.284 203.671 371.446 229.265 356.786 241.501C354.523 243.39 352.378 242.367 353.401 239.868C356.707 231.684 364.087 213.31 360.584 208.884ZM329.256 126.849V116.225C329.256 114.612 330.476 113.53 331.952 113.53H379.869C381.404 113.53 382.624 114.612 382.624 116.186V125.314C382.624 126.849 381.325 128.855 378.983 132.003L354.208 167.237C363.418 167.04 373.198 168.417 381.561 173.079C382.324 173.477 382.964 174.076 383.411 174.811C383.859 175.546 384.097 176.39 384.099 177.25V188.542C384.099 190.155 382.348 191.926 380.577 190.962C372.736 186.968 364.057 184.896 355.256 184.917C346.456 184.937 337.787 187.05 329.964 191.08C328.272 191.965 326.54 190.195 326.54 188.621V177.84C326.54 176.109 326.58 173.158 328.311 170.561L357.081 129.465H332.07C330.535 129.465 329.276 128.423 329.236 126.809L329.256 126.849ZM423.869 112.153C445.515 112.153 457.204 130.646 457.204 154.115C457.204 176.798 444.295 194.798 423.869 194.798C402.636 194.798 391.105 176.306 391.105 153.308C391.105 130.154 402.794 112.153 423.869 112.153ZM423.987 127.321C413.263 127.321 412.574 141.859 412.574 150.967C412.574 160.076 412.456 179.473 423.869 179.473C435.165 179.473 435.696 163.814 435.696 154.253C435.696 147.997 435.421 140.482 433.531 134.56C431.898 129.386 428.631 127.321 423.987 127.321ZM305.76 193.067C304.796 193.854 303.005 193.952 302.336 193.382C299.013 190.66 296.184 187.385 293.973 183.703C285.983 191.808 280.296 194.267 269.926 194.267C257.686 194.267 248.122 186.732 248.122 171.683C247.954 166.614 249.358 161.617 252.141 157.377C254.924 153.137 258.95 149.86 263.668 147.997C271.579 144.515 282.638 143.905 291.08 142.941C291.08 142.941 291.769 133.872 289.309 130.547C288.318 129.339 287.063 128.374 285.64 127.726C284.218 127.078 282.666 126.764 281.103 126.809C275.731 126.809 270.477 129.701 269.434 135.328C269.158 136.941 267.978 138.298 266.679 138.141L252.766 136.646C252.421 136.599 252.088 136.481 251.79 136.301C251.491 136.121 251.233 135.882 251.03 135.598C250.827 135.314 250.684 134.992 250.611 134.651C250.537 134.31 250.534 133.958 250.602 133.616C253.809 116.599 269.276 111.425 283.169 111.425C290.254 111.425 299.502 113.334 305.111 118.645C312.195 125.236 311.545 133.99 311.545 143.59V166.194C311.545 172.961 314.359 175.952 317.036 179.571C317.961 180.909 318.157 182.483 316.996 183.467C314.005 185.926 305.78 193.067 305.78 193.067H305.76ZM291.08 157.715V154.567C280.532 154.567 269.395 156.83 269.395 169.184C269.395 175.44 272.661 179.67 278.269 179.67C282.323 179.67 286.023 177.171 288.364 173.079C291.198 168.043 291.08 163.361 291.08 157.715ZM114.684 193.067C113.759 193.874 111.968 193.952 111.279 193.382C106.281 189.546 102.936 183.703 102.936 183.703C94.9069 191.808 89.2395 194.267 78.869 194.267C66.6094 194.267 57.0851 186.732 57.0851 171.683C56.9169 166.614 58.3204 161.617 61.1034 157.377C63.8864 153.137 67.9129 149.86 72.631 147.997C80.522 144.515 91.5812 143.925 100.023 142.941C100.023 142.941 100.712 133.872 98.2522 130.547C97.2608 129.339 96.0058 128.374 94.5833 127.726C93.1608 127.078 91.6088 126.764 90.0463 126.809C84.6544 126.809 79.4397 129.721 78.3967 135.328C78.1015 136.941 76.9012 138.298 75.6418 138.141L61.6701 136.646C61.328 136.594 61 136.473 60.7058 136.291C60.4117 136.109 60.1577 135.869 59.959 135.586C59.7603 135.302 59.6212 134.982 59.55 134.643C59.4788 134.305 59.4771 133.955 59.5448 133.616C62.7327 116.599 78.2393 111.425 92.1125 111.425C99.2164 111.425 108.445 113.334 114.073 118.645C121.138 125.236 120.449 133.99 120.449 143.59V166.194C120.449 172.961 123.283 175.952 125.94 179.571C126.864 180.909 127.061 182.483 125.9 183.467C122.909 185.926 114.684 193.067 114.684 193.067ZM100.023 157.715V154.567C89.4953 154.567 78.3574 156.83 78.3574 169.184C78.3574 175.44 81.5846 179.67 87.2126 179.67C91.2664 179.67 94.9856 177.171 97.3273 173.099C100.141 168.043 100.023 163.361 100.023 157.715ZM157.346 151.144V190.529C157.331 191.249 157.034 191.935 156.519 192.439C156.004 192.942 155.312 193.225 154.591 193.224H140.069C139.71 193.232 139.353 193.168 139.019 193.036C138.685 192.904 138.381 192.707 138.124 192.456C137.867 192.205 137.663 191.905 137.524 191.574C137.385 191.244 137.314 190.888 137.314 190.529V116.442C137.324 115.718 137.619 115.028 138.134 114.52C138.65 114.012 139.345 113.727 140.069 113.727H153.666C154.024 113.724 154.378 113.793 154.709 113.928C155.039 114.064 155.34 114.264 155.592 114.516C155.845 114.769 156.045 115.069 156.181 115.4C156.316 115.73 156.385 116.085 156.382 116.442V125.924H156.657C160.2 116.56 166.87 112.153 175.824 112.153C184.955 112.153 190.642 116.56 194.755 125.924C196.213 121.793 198.947 118.233 202.563 115.758C206.178 113.282 210.486 112.02 214.866 112.153C221.006 112.153 227.657 114.652 231.73 120.317C236.374 126.573 235.41 135.642 235.41 143.629V190.569C235.41 192.064 234.151 193.224 232.576 193.224H218.054C217.359 193.204 216.699 192.917 216.212 192.422C215.724 191.927 215.446 191.263 215.437 190.569V151.144C215.437 147.997 215.712 140.167 215.043 137.216C213.941 132.18 210.674 130.764 206.424 130.764C204.538 130.828 202.713 131.443 201.174 132.534C199.635 133.625 198.45 135.144 197.765 136.901C196.25 140.639 196.388 146.895 196.388 151.144V190.549C196.388 192.044 195.129 193.205 193.554 193.205H179.012C178.317 193.184 177.658 192.897 177.17 192.402C176.682 191.907 176.405 191.243 176.395 190.549V151.144C176.395 142.823 177.733 130.646 167.402 130.646C156.894 130.646 157.307 142.508 157.307 151.144H157.346ZM488.099 190.529C488.099 190.885 488.029 191.237 487.892 191.565C487.755 191.893 487.555 192.191 487.303 192.442C487.05 192.692 486.751 192.891 486.421 193.025C486.092 193.159 485.739 193.227 485.384 193.224H470.822C470.466 193.227 470.113 193.159 469.784 193.025C469.455 192.891 469.155 192.692 468.903 192.442C468.65 192.191 468.45 191.893 468.313 191.565C468.176 191.237 468.106 190.885 468.106 190.529V116.442C468.104 116.085 468.172 115.73 468.307 115.4C468.443 115.069 468.643 114.769 468.896 114.516C469.148 114.264 469.449 114.064 469.779 113.928C470.11 113.793 470.464 113.724 470.822 113.727H484.262C485.876 113.727 487.017 114.986 487.017 115.832V127.163H487.292C491.327 116.993 497.053 112.153 507.148 112.153C513.681 112.153 520.057 114.514 524.13 120.908C527.928 126.888 527.929 136.901 527.929 144.082V190.883C527.828 191.543 527.492 192.145 526.981 192.575C526.471 193.006 525.822 193.237 525.154 193.224H510.533C509.899 193.191 509.296 192.939 508.827 192.513C508.357 192.086 508.049 191.511 507.955 190.883V145.931C507.955 130.921 502.189 130.468 498.824 130.468C494.947 130.468 491.799 133.498 490.48 136.292C488.651 140.794 487.825 145.641 488.06 150.495L488.099 190.529Z" fill="black"/>
<path d="M248.004 252.545C282.186 252.545 321.837 241.863 349.19 221.797H349.229C353.755 218.452 349.879 213.495 345.235 215.423C315.381 227.972 283.342 234.503 250.956 234.643C207.598 234.68 164.976 223.439 127.278 202.026C124.208 200.216 121.906 203.363 124.484 205.665C158.411 236.074 202.438 252.784 248.004 252.545Z" fill="#FF9900"/>
<path d="M328.646 207.809C337.462 206.747 357.061 204.445 360.584 208.891C364.087 213.318 356.707 231.692 353.401 239.876C352.378 242.374 354.523 243.397 356.786 241.509C371.446 229.272 375.284 203.678 372.233 199.999C369.262 196.34 343.621 193.193 327.957 204.131C325.537 205.783 325.95 208.124 328.646 207.809Z" fill="#FF9900"/>
</svg>
