<svg width="289" height="187" viewBox="0 0 289 187" fill="none" xmlns="http://www.w3.org/2000/svg">
<path d="M185.44 2C195.157 14.2076 235.903 57.68 243.742 75.2457C251.58 92.8115 232.307 96.7229 232.47 107.395C232.634 118.066 249.561 126.392 244.72 139.276C239.879 152.16 210.308 177.129 203.426 184.7" stroke="#FFC727" strokeWidth="4" stroke-miterlimit="10" strokeLinejoin="round"/>
<path d="M75.576 104.825L50.5639 115.74L77.9766 125.591" stroke="#FA7272" strokeWidth="4" stroke-miterlimit="10" strokeLinecap="round" strokeLinejoin="round"/>
<path fill-rule="evenodd" clip-rule="evenodd" d="M152.193 106.759C154.902 106.331 157.522 105.903 160.175 105.543C166.706 104.441 173.121 103.278 179.404 101.848C186.036 100.408 192.667 98.9654 198.829 96.9342C201.287 96.1769 203.222 94.8958 204.495 93.1686C204.787 92.6873 205.049 92.139 205.07 91.4629C205.156 90.3814 203.979 89.0735 202.295 88.5265C199.892 87.5961 197.652 87.5394 195.349 87.3489C193.688 87.2456 192.085 87.2254 190.533 87.2787C184.248 87.4946 178.821 88.9224 173.879 90.9846C166.444 94.2061 160.738 98.7821 155.325 103.416C154.163 104.469 153.053 105.45 151.946 106.433L152.193 106.759ZM198.711 132.796C196.279 132.88 193.658 132.768 191.092 132.587C182.177 132.084 172.902 130.314 163.889 127.456C159.551 126.188 155.44 124.306 151.743 122.009C147.112 119.066 144.14 115.73 143.936 111.897C143.91 111.443 143.758 111.334 143.403 111.347C143.284 111.351 143.143 111.368 142.979 111.39C139.402 111.851 135.706 112.247 132.097 112.641C127.444 113.071 122.791 113.5 118.138 113.93C113.016 114.307 108.016 114.749 102.829 114.995C97.5901 115.308 92.4686 115.686 87.2823 115.932C80.0763 116.381 72.6816 116.635 65.4109 116.953C63.7589 117.01 62.1038 117.067 60.5165 117.255C59.9688 117.308 59.3908 117.345 58.8015 117.365C58.2153 117.385 57.6209 117.388 57.0371 117.374C55.7891 117.352 54.4413 116.589 53.9837 115.66C53.5272 114.733 54.0267 114.31 55.5031 114.259C56.5152 114.159 57.4932 113.989 58.537 113.953C63.811 113.704 69.1478 113.589 74.4747 113.272C81.3348 112.833 88.2619 112.529 95.1189 112.089C101.057 111.752 106.959 111.347 112.744 110.879C117.95 110.499 123.126 110.051 128.266 109.537C133.15 109.031 138.03 108.526 142.911 108.023C144.358 107.905 145.521 107.394 146.053 106.499C146.529 105.674 147.16 104.979 147.909 104.346C152.409 100.013 157.419 95.998 163.062 92.3668C170.256 87.8611 178.495 84.5318 189.231 84.163C190.899 84.1057 192.627 84.1192 194.423 84.213C197.011 84.2577 199.793 84.7014 202.513 85.5529C207.231 86.8727 210.428 90.6715 209.397 93.6075C208.669 96.2609 206.288 97.8926 203.311 99.207C199.897 100.539 196.265 101.606 192.419 102.411C185.776 104.192 178.884 105.641 171.839 106.961C165.373 108.194 158.871 109.362 151.968 110.071C147.435 110.562 147.533 111.841 148.992 115.16C150.122 117.818 153.016 119.74 156.265 121.314C163.008 124.585 170.14 126.497 177.326 127.801C185.392 129.246 193.296 129.871 200.856 129.611C202.477 129.555 204.081 129.459 205.671 129.322C210.042 129.038 214.314 128.553 218.488 127.871C228.163 126.324 237.151 123.926 245.523 120.808C250.817 118.807 255.469 116.22 258.272 112.215C260.759 108.826 260.899 104.441 258.854 99.9274C257.386 96.9461 255.448 93.9105 253.001 91.0965C247.357 84.4836 241.17 78.023 235.295 71.4861C227.944 63.3796 220.538 55.3454 213.219 47.3058C202.386 35.5463 191.607 23.7169 180.864 11.9543C179.534 10.5157 178.208 9.07939 176.97 7.64008C175.945 6.5554 176.578 5.47207 178.055 5.42135C178.18 5.41705 178.309 5.4199 178.446 5.43222C179.708 5.65849 180.327 6.37814 180.913 7.03092C186.756 13.5034 192.683 19.9729 198.489 26.3786C205.928 34.4796 213.25 42.5191 220.656 50.5557C231.151 61.9892 241.679 73.4896 252.174 84.9255C255.719 88.7123 258.722 92.6539 261.199 96.6111C262.159 98.7353 263.464 100.848 264.073 102.984C265.228 107.123 264.738 110.982 262.587 114.156C259.642 118.234 255.036 121.089 249.491 123.3C242.924 125.953 235.717 128.02 228.195 129.626C220.881 131.294 212.977 132.306 204.714 132.59L198.711 132.796Z" fill="#FA7272"/>
</svg>
