<svg width="1082" height="624" viewBox="0 0 1082 624" fill="none" xmlns="http://www.w3.org/2000/svg">
<g clip-path="url(#clip0_143_470)">
<path d="M939.052 27.3904C880.823 9.89219 822.915 13.215 762.708 40.2352C688.544 73.488 630.496 103.881 554.135 93.4561C489.936 84.7189 429.309 61.1306 367.1 45.153C239.811 12.1303 119.434 26.1714 47.8391 187.972C9.75467 274.069 -15.599 367.425 -29.2468 461.991C-51.3509 614.583 -64.3873 780.125 -27.5711 921.544C19.0495 1100.83 170.269 1146.25 329.195 1028.63C393.471 981.068 453.775 921.576 524.58 888.51C672.738 819.266 817.589 940.17 994.008 847.366C1298.1 687.518 1199.81 105.735 939.052 27.3904Z" fill="#FFF3F3"/>
</g>
<defs>
<clipPath id="clip0_143_470">
<rect width="1081" height="623" fill="white" transform="translate(0.837891 0.477539)"/>
</clipPath>
</defs>
</svg>
