<svg viewBox="0 0 594 567" xmlns="http://www.w3.org/2000/svg">
<g clip-path="url(#clip0_4_3)">
<path d="M676.424 519.027H-10V519.382H676.424V519.027Z" fill="#EBEBEB"/>
<path d="M107.488 532.521H62.0196V532.876H107.488V532.521Z" fill="#EBEBEB"/>
<path d="M298.891 532.706H224.949V533.06H298.891V532.706Z" fill="#EBEBEB"/>
<path d="M161.551 539.835H135.206V540.19H161.551V539.835Z" fill="#EBEBEB"/>
<path d="M602.29 539.665H575.89V540.02H602.29V539.665Z" fill="#EBEBEB"/>
<path d="M563.658 539.665H522.075V540.02H563.658V539.665Z" fill="#EBEBEB"/>
<path d="M499.176 537.327H440.747V537.681H499.176V537.327Z" fill="#EBEBEB"/>
<path d="M315.365 455.81H50.2817C48.2051 455.806 46.2148 454.952 44.7476 453.434C43.2805 451.917 42.4565 449.86 42.4565 447.716V62.9816C42.4746 60.8498 43.3066 58.8115 44.7717 57.3093C46.2369 55.8072 48.2169 54.9626 50.2817 54.9589H315.365C317.444 54.9589 319.438 55.8116 320.908 57.3295C322.378 58.8473 323.204 60.9059 323.204 63.0525V447.716C323.204 449.863 322.378 451.921 320.908 453.439C319.438 454.957 317.444 455.81 315.365 455.81ZM50.2817 55.2424C48.2961 55.2462 46.3931 56.0632 44.9903 57.5142C43.5876 58.9651 42.7997 60.9315 42.7997 62.9816V447.716C42.7997 449.766 43.5876 451.733 44.9903 453.184C46.3931 454.635 48.2961 455.452 50.2817 455.455H315.365C317.352 455.452 319.256 454.635 320.661 453.185C322.066 451.734 322.857 449.768 322.861 447.716V62.9816C322.857 60.9302 322.066 58.9639 320.661 57.5133C319.256 56.0627 317.352 55.2462 315.365 55.2424H50.2817Z" fill="#EBEBEB"/>
<path d="M612.326 455.81H347.229C345.151 455.806 343.159 454.952 341.69 453.435C340.22 451.918 339.393 449.862 339.39 447.716V62.9816C339.411 60.8485 340.246 58.8102 341.714 57.3085C343.181 55.8067 345.163 54.9625 347.229 54.9589H612.326C614.388 54.9663 616.365 55.8126 617.827 57.3143C619.289 58.8161 620.119 60.8523 620.137 62.9816V447.716C620.137 449.858 619.315 451.912 617.851 453.429C616.387 454.946 614.4 455.802 612.326 455.81ZM347.229 55.2424C345.242 55.2462 343.337 56.0627 341.932 57.5133C340.527 58.9639 339.737 60.9302 339.733 62.9816V447.716C339.737 449.768 340.527 451.734 341.932 453.185C343.337 454.635 345.242 455.452 347.229 455.455H612.326C614.312 455.452 616.217 454.635 617.622 453.185C619.027 451.734 619.818 449.768 619.821 447.716V62.9816C619.818 60.9302 619.027 58.9639 617.622 57.5133C616.217 56.0627 614.312 55.2462 612.326 55.2424H347.229Z" fill="#EBEBEB"/>
<path d="M404.902 519.027H443.781V319.311H404.902V519.027Z" fill="#E6E6E6"/>
<path d="M412.274 519.027H404.888V497.341H420.017L412.274 519.027Z" fill="#F0F0F0"/>
<path d="M550.204 519.027H589.083V319.311H550.204V519.027Z" fill="#E6E6E6"/>
<path d="M404.902 505.718H556.657V319.311H404.902V505.718Z" fill="#F0F0F0"/>
<path d="M410.627 442.358V478.602H478.294V442.358H410.627Z" fill="#E6E6E6"/>
<path d="M483.25 442.358V478.602H550.918V442.358H483.25Z" fill="#E6E6E6"/>
<path d="M510.392 448.425H523.777C526.655 448.427 529.504 447.822 532.148 446.647C534.792 445.472 537.175 443.752 539.153 441.593H495.016C496.993 443.752 499.377 445.472 502.021 446.647C504.665 447.822 507.513 448.427 510.392 448.425Z" fill="#F0F0F0"/>
<path d="M437.082 448.425H450.467C453.345 448.427 456.194 447.822 458.838 446.647C461.481 445.472 463.865 443.752 465.843 441.593H421.706C423.683 443.752 426.067 445.472 428.711 446.647C431.355 447.822 434.203 448.427 437.082 448.425Z" fill="#F0F0F0"/>
<path d="M410.613 386.015V422.259H478.281V386.015H410.613Z" fill="#E6E6E6"/>
<path d="M483.25 386.029V422.273H550.918V386.029H483.25Z" fill="#E6E6E6"/>
<path d="M510.392 392.082H523.777C526.655 392.076 529.501 391.464 532.142 390.285C534.783 389.105 537.164 387.382 539.139 385.221H495.016C496.992 387.384 499.375 389.108 502.019 390.287C504.663 391.467 507.512 392.078 510.392 392.082Z" fill="#F0F0F0"/>
<path d="M437.082 392.082H450.467C453.344 392.083 456.191 391.479 458.834 390.307C461.478 389.135 463.863 387.419 465.843 385.264H421.706C423.686 387.419 426.07 389.135 428.714 390.307C431.357 391.479 434.205 392.083 437.082 392.082Z" fill="#F0F0F0"/>
<path d="M410.627 329.686V365.93H478.294V329.686H410.627Z" fill="#E6E6E6"/>
<path d="M483.25 329.686V365.93H550.918V329.686H483.25Z" fill="#E6E6E6"/>
<path d="M510.392 335.753H523.777C526.655 335.755 529.504 335.15 532.148 333.975C534.792 332.8 537.175 331.08 539.153 328.921H495.016C496.993 331.08 499.377 332.8 502.021 333.975C504.665 335.15 507.513 335.755 510.392 335.753Z" fill="#F0F0F0"/>
<path d="M437.082 335.753H450.467C453.345 335.755 456.194 335.15 458.838 333.975C461.481 332.8 463.865 331.08 465.843 328.921H421.706C423.683 331.08 426.067 332.8 428.711 333.975C431.355 335.15 434.203 335.755 437.082 335.753Z" fill="#F0F0F0"/>
<path d="M549.271 519.027H556.657V497.341H541.528L549.271 519.027Z" fill="#F0F0F0"/>
<path d="M555.668 182.202L561.613 198.985H555.668L519.192 182.202H555.668Z" fill="#F5F5F5"/>
<path d="M561.613 182.202V198.985L525.15 182.202H561.613Z" fill="#E6E6E6"/>
<path d="M412.659 182.202L418.603 198.985H412.659L376.196 182.202H412.659Z" fill="#F5F5F5"/>
<path d="M418.603 182.202V198.985L382.14 182.202H418.603Z" fill="#E6E6E6"/>
<path d="M588.383 170.211H548.722V182.982H588.383V170.211Z" fill="#E6E6E6"/>
<path d="M351.539 182.996L548.722 182.996V170.225L351.539 170.225V182.996Z" fill="#F5F5F5"/>
<path d="M508.676 125.831C508.676 125.831 509.074 170.225 523.914 170.225C538.755 170.225 539.139 125.831 539.139 125.831H508.676Z" fill="#F0F0F0"/>
<path d="M416.654 155.739C416.654 155.739 417.697 170.211 457.619 170.211C497.542 170.211 498.585 155.739 498.585 155.739H416.654Z" fill="#F0F0F0"/>
<path d="M298.012 519.027H300.662L308.254 480.402L309.626 473.627L317.864 431.529H349.686L366.888 519.027H369.551L352.02 429.927C351.962 429.622 351.803 429.348 351.57 429.151C351.337 428.954 351.044 428.848 350.743 428.85H316.806C316.507 428.848 316.216 428.955 315.985 429.152C315.755 429.349 315.598 429.623 315.543 429.927L308.267 466.894L306.894 473.655L298.012 519.027Z" fill="#F0F0F0"/>
<path d="M247.038 519.027H249.688L266.903 431.529H298.644L306.881 473.655L308.254 480.402L315.859 519.027H318.509L309.585 473.669L308.212 466.937L300.936 429.97C300.865 429.672 300.702 429.406 300.472 429.211C300.242 429.017 299.957 428.905 299.66 428.893H265.846C265.545 428.89 265.253 428.997 265.02 429.193C264.786 429.39 264.627 429.665 264.57 429.97L247.038 519.027Z" fill="#F0F0F0"/>
<path d="M354.436 418.645H262.085C259.967 418.648 257.937 419.519 256.439 421.065C254.941 422.611 254.098 424.707 254.095 426.894V427.178C254.095 427.978 254.403 428.746 254.951 429.312C255.5 429.879 256.243 430.197 257.019 430.197H359.502C360.278 430.197 361.021 429.879 361.57 429.312C362.118 428.746 362.426 427.978 362.426 427.178V426.894C362.423 424.707 361.58 422.611 360.082 421.065C358.584 419.519 356.554 418.648 354.436 418.645Z" fill="#F0F0F0"/>
<path d="M205.331 519.027H207.981L215.573 480.402L216.945 473.627L225.183 431.529H256.923L274.179 519.027H276.843L259.312 429.927C259.254 429.622 259.095 429.348 258.862 429.151C258.628 428.954 258.336 428.848 258.035 428.85H224.125C223.826 428.848 223.535 428.955 223.305 429.152C223.074 429.349 222.917 429.623 222.862 429.927L215.586 466.894L214.213 473.655L205.331 519.027Z" fill="#F0F0F0"/>
<path d="M154.357 519.027H157.021L174.222 431.529H205.976L214.213 473.655L215.586 480.402L223.192 519.027H225.841L216.918 473.669L215.545 466.937L208.283 429.927C208.212 429.629 208.049 429.363 207.818 429.169C207.588 428.975 207.303 428.863 207.006 428.85H173.165C172.864 428.848 172.572 428.954 172.339 429.151C172.105 429.348 171.946 429.622 171.889 429.927L154.357 519.027Z" fill="#F0F0F0"/>
<path d="M261.824 418.645H169.404C167.286 418.648 165.256 419.519 163.758 421.065C162.26 422.611 161.417 424.707 161.414 426.894V427.178C161.414 427.978 161.722 428.746 162.27 429.312C162.819 429.879 163.562 430.197 164.338 430.197H266.835C267.218 430.197 267.598 430.119 267.952 429.967C268.306 429.815 268.627 429.592 268.898 429.312C269.168 429.031 269.382 428.698 269.528 428.332C269.673 427.966 269.747 427.573 269.745 427.178V426.894C269.742 424.72 268.908 422.634 267.425 421.09C265.942 419.546 263.93 418.667 261.824 418.645Z" fill="#F0F0F0"/>
<path d="M105.772 306.696H238.458L238.458 87.234L105.772 87.234L105.772 306.696Z" fill="#E6E6E6"/>
<path d="M97.1096 306.696H234.408L234.408 87.234L97.1096 87.234L97.1096 306.696Z" fill="#F0F0F0"/>
<path d="M105.772 323.322H238.458V306.681H105.772V323.322Z" fill="#E6E6E6"/>
<path d="M82.6672 323.322H219.966V306.681H82.6672V323.322Z" fill="#F0F0F0"/>
<path d="M222.258 294.165V99.7641L109.232 99.7641L109.232 294.165H222.258Z" fill="#FAFAFA"/>
<path d="M223.233 294.151L183.475 99.7641H149.841L189.598 294.151H223.233Z" fill="white"/>
<path d="M214.076 270.934C214.306 270.934 214.526 270.84 214.688 270.672C214.85 270.505 214.941 270.278 214.941 270.041V107.914C214.941 107.678 214.85 107.45 214.688 107.283C214.526 107.115 214.306 107.021 214.076 107.021C213.847 107.021 213.627 107.115 213.465 107.283C213.302 107.45 213.211 107.678 213.211 107.914V270.041C213.211 270.278 213.302 270.505 213.465 270.672C213.627 270.84 213.847 270.934 214.076 270.934Z" fill="#F0F0F0"/>
<path d="M182.377 294.151L142.619 99.7641H129.509L169.253 294.151H182.377Z" fill="white"/>
<path d="M110.783 294.165L110.783 99.7641H109.246L109.246 294.165H110.783Z" fill="#E6E6E6"/>
<path opacity="0.6" d="M94.2266 109.388H226.912L228.038 104.626H95.3523L94.2266 109.388Z" fill="#F0F0F0"/>
<path opacity="0.6" d="M94.2266 120.459H226.912L228.038 115.71H95.3523L94.2266 120.459Z" fill="#F0F0F0"/>
<path opacity="0.6" d="M94.2266 131.543H226.912L228.038 126.78H95.3523L94.2266 131.543Z" fill="#F0F0F0"/>
<path opacity="0.6" d="M94.2266 142.613H226.912L228.038 137.865H95.3523L94.2266 142.613Z" fill="#F0F0F0"/>
<path opacity="0.6" d="M94.2266 153.698H226.912L228.038 148.949H95.3523L94.2266 153.698Z" fill="#F0F0F0"/>
<path opacity="0.6" d="M94.2266 164.782H226.912L228.038 160.019H95.3523L94.2266 164.782Z" fill="#F0F0F0"/>
<path d="M154.054 97.7039C154.054 97.7039 70.4113 141.312 28.6951 208.51C-13.0211 275.707 -9.72047 362.156 40.9704 426.325C91.6613 490.495 188.55 482.067 269.676 522.716C350.801 563.364 440.305 554.992 478.665 468.872C517.026 382.751 459.181 350.564 449.246 250.898C439.311 151.231 351.518 5.29043 154.054 97.7039Z" fill="#CF9771"/>
<path opacity="0.7" d="M154.054 97.7039C154.054 97.7039 70.4113 141.312 28.6951 208.51C-13.0211 275.707 -9.72047 362.156 40.9704 426.325C91.6613 490.495 188.55 482.067 269.676 522.716C350.801 563.364 440.305 554.992 478.665 468.872C517.026 382.751 459.181 350.564 449.246 250.898C439.311 151.231 351.518 5.29043 154.054 97.7039Z" fill="white"/>
<path d="M165.029 110.065H60.1768V208.376H165.029V110.065Z" fill="#CF9771"/>
<mask id="mask0_4_3" style="mask-type:luminance" maskUnits="userSpaceOnUse" x="60" y="110" width="106" height="99">
<path d="M165.029 110.065H60.1768V208.376H165.029V110.065Z" fill="white"/>
</mask>
<g mask="url(#mask0_4_3)">
<path opacity="0.37" d="M165.029 110.065H60.1768V208.376H165.029V110.065Z" fill="black"/>
</g>
<path d="M134.897 110.065H60.1768V208.376H134.897V110.065Z" fill="#CF9771"/>
<path d="M105.119 110.065H89.0636V137.508H105.119V110.065Z" fill="white"/>
<path d="M127.828 145.525H109.221V155.332H127.828V145.525Z" fill="white"/>
<path d="M119.311 180.455L100.135 175.555L97.3073 187.351L116.483 192.251L119.311 180.455Z" fill="white"/>
<path d="M243.167 110.065H138.315V208.376H243.167V110.065Z" fill="#CF9771"/>
<mask id="mask1_4_3" style="mask-type:luminance" maskUnits="userSpaceOnUse" x="138" y="110" width="106" height="99">
<path d="M243.167 110.065H138.315V208.376H243.167V110.065Z" fill="white"/>
</mask>
<g mask="url(#mask1_4_3)">
<path opacity="0.37" d="M243.167 110.065H138.315V208.376H243.167V110.065Z" fill="black"/>
</g>
<path d="M213.035 110.065H138.315V208.376H213.035V110.065Z" fill="#CF9771"/>
<path d="M183.257 110.065H167.202V137.508H183.257V110.065Z" fill="white"/>
<path d="M205.966 145.525H187.359V155.332H205.966V145.525Z" fill="white"/>
<path d="M197.444 180.461L178.268 175.561L175.44 187.357L194.616 192.257L197.444 180.461Z" fill="white"/>
<path d="M321.305 110.065H216.453V208.376H321.305V110.065Z" fill="#CF9771"/>
<mask id="mask2_4_3" style="mask-type:luminance" maskUnits="userSpaceOnUse" x="216" y="110" width="106" height="99">
<path d="M321.305 110.065H216.453V208.376H321.305V110.065Z" fill="white"/>
</mask>
<g mask="url(#mask2_4_3)">
<path opacity="0.37" d="M321.305 110.065H216.453V208.376H321.305V110.065Z" fill="black"/>
</g>
<path d="M291.173 110.065H216.453V208.376H291.173V110.065Z" fill="#CF9771"/>
<path d="M261.395 110.065H245.34V137.508H261.395V110.065Z" fill="white"/>
<path d="M284.104 145.525H265.497V155.332H284.104V145.525Z" fill="white"/>
<path d="M275.577 180.467L256.401 175.567L253.574 187.363L272.75 192.263L275.577 180.467Z" fill="white"/>
<path d="M399.444 110.065H294.592V208.376H399.444V110.065Z" fill="#CF9771"/>
<mask id="mask3_4_3" style="mask-type:luminance" maskUnits="userSpaceOnUse" x="294" y="110" width="106" height="99">
<path d="M399.444 110.065H294.592V208.376H399.444V110.065Z" fill="white"/>
</mask>
<g mask="url(#mask3_4_3)">
<path opacity="0.37" d="M399.444 110.065H294.592V208.376H399.444V110.065Z" fill="black"/>
</g>
<path d="M369.311 110.065H294.592V208.376H369.311V110.065Z" fill="#CF9771"/>
<path d="M339.533 110.065H323.478V137.508H339.533V110.065Z" fill="white"/>
<path d="M362.242 145.525H343.636V155.332H362.242V145.525Z" fill="white"/>
<path d="M353.722 180.472L334.547 175.573L331.719 187.369L350.895 192.268L353.722 180.472Z" fill="white"/>
<path d="M165.029 244.945H60.1768V343.257H165.029V244.945Z" fill="#CF9771"/>
<mask id="mask4_4_3" style="mask-type:luminance" maskUnits="userSpaceOnUse" x="60" y="244" width="106" height="100">
<path d="M165.029 244.945H60.1768V343.257H165.029V244.945Z" fill="white"/>
</mask>
<g mask="url(#mask4_4_3)">
<path opacity="0.37" d="M165.029 244.945H60.1768V343.257H165.029V244.945Z" fill="black"/>
</g>
<path d="M134.897 244.945H60.1768V343.257H134.897V244.945Z" fill="#CF9771"/>
<path d="M105.119 244.945H89.0636V272.388H105.119V244.945Z" fill="white"/>
<path d="M127.828 280.405H109.221V290.212H127.828V280.405Z" fill="white"/>
<path d="M119.293 315.331L100.117 310.431L97.2897 322.227L116.466 327.127L119.293 315.331Z" fill="white"/>
<path d="M243.167 244.945H138.315V343.257H243.167V244.945Z" fill="#CF9771"/>
<mask id="mask5_4_3" style="mask-type:luminance" maskUnits="userSpaceOnUse" x="138" y="244" width="106" height="100">
<path d="M243.167 244.945H138.315V343.257H243.167V244.945Z" fill="white"/>
</mask>
<g mask="url(#mask5_4_3)">
<path opacity="0.37" d="M243.167 244.945H138.315V343.257H243.167V244.945Z" fill="black"/>
</g>
<path d="M213.035 244.945H138.315V343.257H213.035V244.945Z" fill="#CF9771"/>
<path d="M183.257 244.945H167.202V272.388H183.257V244.945Z" fill="white"/>
<path d="M205.966 280.405H187.359V290.212H205.966V280.405Z" fill="white"/>
<path d="M197.438 315.337L178.263 310.437L175.435 322.233L194.611 327.133L197.438 315.337Z" fill="white"/>
<path d="M321.305 244.945H216.453V343.257H321.305V244.945Z" fill="#CF9771"/>
<mask id="mask6_4_3" style="mask-type:luminance" maskUnits="userSpaceOnUse" x="216" y="244" width="106" height="100">
<path d="M321.305 244.945H216.453V343.257H321.305V244.945Z" fill="white"/>
</mask>
<g mask="url(#mask6_4_3)">
<path opacity="0.37" d="M321.305 244.945H216.453V343.257H321.305V244.945Z" fill="black"/>
</g>
<path d="M291.173 244.945H216.453V343.257H291.173V244.945Z" fill="#CF9771"/>
<path d="M261.395 244.945H245.34V272.388H261.395V244.945Z" fill="white"/>
<path d="M284.104 280.405H265.497V290.212H284.104V280.405Z" fill="white"/>
<path d="M275.572 315.343L256.396 310.443L253.568 322.239L272.744 327.139L275.572 315.343Z" fill="white"/>
<path d="M399.444 244.945H294.592V343.257H399.444V244.945Z" fill="#CF9771"/>
<mask id="mask7_4_3" style="mask-type:luminance" maskUnits="userSpaceOnUse" x="294" y="244" width="106" height="100">
<path d="M399.444 244.945H294.592V343.257H399.444V244.945Z" fill="white"/>
</mask>
<g mask="url(#mask7_4_3)">
<path opacity="0.37" d="M399.444 244.945H294.592V343.257H399.444V244.945Z" fill="black"/>
</g>
<path d="M369.311 244.945H294.592V343.257H369.311V244.945Z" fill="#CF9771"/>
<path d="M339.533 244.945H323.478V272.388H339.533V244.945Z" fill="white"/>
<path d="M362.242 280.405H343.636V290.212H362.242V280.405Z" fill="white"/>
<path d="M353.705 315.349L334.529 310.449L331.702 322.245L350.877 327.145L353.705 315.349Z" fill="white"/>
<path d="M165.029 379.826H60.1768V478.137H165.029V379.826Z" fill="#CF9771"/>
<mask id="mask8_4_3" style="mask-type:luminance" maskUnits="userSpaceOnUse" x="60" y="379" width="106" height="100">
<path d="M165.029 379.826H60.1768V478.137H165.029V379.826Z" fill="white"/>
</mask>
<g mask="url(#mask8_4_3)">
<path opacity="0.37" d="M165.029 379.826H60.1768V478.137H165.029V379.826Z" fill="black"/>
</g>
<path d="M134.897 379.826H60.1768V478.137H134.897V379.826Z" fill="#CF9771"/>
<path d="M105.119 379.826H89.0636V407.268H105.119V379.826Z" fill="white"/>
<path d="M127.828 415.286H109.221V425.093H127.828V415.286Z" fill="white"/>
<path d="M119.288 450.207L100.112 445.308L97.2843 457.104L116.46 462.003L119.288 450.207Z" fill="white"/>
<path d="M243.167 379.826H138.315V478.137H243.167V379.826Z" fill="#CF9771"/>
<mask id="mask9_4_3" style="mask-type:luminance" maskUnits="userSpaceOnUse" x="138" y="379" width="106" height="100">
<path d="M243.167 379.826H138.315V478.137H243.167V379.826Z" fill="white"/>
</mask>
<g mask="url(#mask9_4_3)">
<path opacity="0.37" d="M243.167 379.826H138.315V478.137H243.167V379.826Z" fill="black"/>
</g>
<path d="M213.035 379.826H138.315V478.137H213.035V379.826Z" fill="#CF9771"/>
<path d="M183.257 379.826H167.202V407.268H183.257V379.826Z" fill="white"/>
<path d="M205.966 415.286H187.359V425.093H205.966V415.286Z" fill="white"/>
<path d="M197.433 450.213L178.257 445.313L175.43 457.109L194.606 462.009L197.433 450.213Z" fill="white"/>
<path d="M321.305 379.826H216.453V478.137H321.305V379.826Z" fill="#CF9771"/>
<mask id="mask10_4_3" style="mask-type:luminance" maskUnits="userSpaceOnUse" x="216" y="379" width="106" height="100">
<path d="M321.305 379.826H216.453V478.137H321.305V379.826Z" fill="white"/>
</mask>
<g mask="url(#mask10_4_3)">
<path opacity="0.37" d="M321.305 379.826H216.453V478.137H321.305V379.826Z" fill="black"/>
</g>
<path d="M291.173 379.826H216.453V478.137H291.173V379.826Z" fill="#CF9771"/>
<path d="M261.395 379.826H245.34V407.268H261.395V379.826Z" fill="white"/>
<path d="M284.104 415.286H265.497V425.093H284.104V415.286Z" fill="white"/>
<path d="M275.566 450.219L256.39 445.319L253.563 457.115L272.739 462.015L275.566 450.219Z" fill="white"/>
<path d="M399.444 379.826H294.592V478.137H399.444V379.826Z" fill="#CF9771"/>
<mask id="mask11_4_3" style="mask-type:luminance" maskUnits="userSpaceOnUse" x="294" y="379" width="106" height="100">
<path d="M399.444 379.826H294.592V478.137H399.444V379.826Z" fill="white"/>
</mask>
<g mask="url(#mask11_4_3)">
<path opacity="0.37" d="M399.444 379.826H294.592V478.137H399.444V379.826Z" fill="black"/>
</g>
<path d="M369.311 379.826H294.592V478.137H369.311V379.826Z" fill="#CF9771"/>
<path d="M339.533 379.826H323.478V407.268H339.533V379.826Z" fill="white"/>
<path d="M362.242 415.286H343.636V425.093H362.242V415.286Z" fill="white"/>
<path d="M353.699 450.225L334.524 445.325L331.696 457.121L350.872 462.021L353.699 450.225Z" fill="white"/>
<path d="M409.15 73.9373H42.8765V91.5852H409.15V73.9373Z" fill="#A3A3A3"/>
<path d="M409.15 205.036H42.8765V222.684H409.15V205.036Z" fill="#A3A3A3"/>
<path d="M409.15 336.122H42.8765V353.77H409.15V336.122Z" fill="#A3A3A3"/>
<path d="M409.15 467.221H42.8765V484.869H409.15V467.221Z" fill="#A3A3A3"/>
<path d="M478.742 -0.435974H462.87V535.304H478.742V-0.435974Z" fill="#7A7A7A"/>
<path d="M140.549 -0.435974H124.678V535.304H140.549V-0.435974Z" fill="#7A7A7A"/>
<path d="M475.079 73.9373H400.603V91.5852H475.079V73.9373Z" fill="#757575"/>
<path d="M475.079 205.036H400.603V222.684H475.079V205.036Z" fill="#757575"/>
<path d="M475.079 336.122H400.603V353.77H475.079V336.122Z" fill="#757575"/>
<path d="M475.079 467.221H400.603V484.869H475.079V467.221Z" fill="#757575"/>
<path d="M57.5275 -0.435974H41.6556V535.304H57.5275V-0.435974Z" fill="#A3A3A3"/>
<path d="M233.339 -0.435974H217.467V535.304H233.339V-0.435974Z" fill="#A3A3A3"/>
<path d="M409.15 -0.435974H393.278V535.304H409.15V-0.435974Z" fill="#A3A3A3"/>
<path d="M333.212 583.039C480.22 583.039 599.393 575.855 599.393 566.993C599.393 558.132 480.22 550.948 333.212 550.948C186.204 550.948 67.0305 558.132 67.0305 566.993C67.0305 575.855 186.204 583.039 333.212 583.039Z" fill="#F5F5F5"/>
<path d="M512.918 242.358C514.496 245.717 515.663 248.893 517.036 252.209C518.409 255.526 519.411 258.829 520.482 262.216C522.653 269.085 524.256 276.131 525.273 283.28C525.411 284.173 525.479 285.136 525.575 286.114L525.713 287.532C525.713 287.787 525.713 287.971 525.713 288.269V289.19C525.759 291.34 525.579 293.488 525.177 295.597C524.497 299.263 523.528 302.866 522.281 306.37C519.936 313.03 517.014 319.458 513.549 325.576L506.575 322.528C508.126 316.065 509.691 309.474 510.872 303.109C511.449 300.06 511.857 296.979 512.094 293.882C512.175 292.616 512.147 291.344 512.012 290.083L511.861 289.19L511.668 288.056C511.517 287.305 511.421 286.554 511.243 285.788C509.874 279.532 508.104 273.376 505.944 267.362C504.9 264.286 503.747 261.224 502.594 258.148C501.441 255.073 500.164 251.983 498.983 249.148L512.918 242.358Z" fill="#7F3E3B"/>
<path d="M506.877 320.643L501.523 326.029L513.206 331.699C513.206 331.699 516.034 326.596 514.085 321.976L506.877 320.643Z" fill="#7F3E3B"/>
<path d="M497.212 334.066L507.069 338.233L513.206 331.642L501.523 326.029L497.212 334.066Z" fill="#7F3E3B"/>
<path opacity="0.2" d="M297.257 328.255C316.683 326.008 335.029 317.865 349.973 304.855C364.917 291.845 375.79 274.552 381.216 255.162C386.642 235.772 386.378 215.157 380.457 195.922C374.536 176.688 363.225 159.697 347.952 147.1C332.68 134.502 314.133 126.863 294.656 125.147C275.178 123.432 255.646 127.718 238.528 137.463C221.41 147.209 207.475 161.975 198.484 179.897C189.494 197.819 185.852 218.09 188.02 238.148C189.459 251.472 193.427 264.371 199.696 276.111C205.966 287.851 214.414 298.2 224.558 306.567C234.702 314.935 246.344 321.157 258.818 324.878C271.292 328.6 284.354 329.747 297.257 328.255Z" fill="#F83636"/>
<path opacity="0.1" d="M225.334 146.44L375.66 270.409C376.306 268.992 376.91 267.574 377.5 266.157C381.267 256.902 383.674 247.117 384.639 237.128L254.795 130.083C244.139 133.752 234.174 139.285 225.334 146.44Z" fill="white"/>
<path opacity="0.1" d="M190.655 200.771L331.976 317.355C345.404 310.124 357.044 299.804 365.996 287.192L211.66 159.849C201.714 171.647 194.527 185.648 190.655 200.771Z" fill="white"/>
<path d="M529.763 341.451C529.582 338.872 528.764 336.383 527.388 334.222C526.387 332.633 524.987 331.354 523.338 330.523L513.961 325.774C507.728 322.585 501.454 319.481 495.181 316.377C488.907 313.272 482.591 310.225 476.304 307.149C470.016 304.073 463.674 301.083 457.317 298.148C444.632 292.214 431.865 286.44 419.015 280.827C412.59 277.992 406.151 275.271 399.658 272.606C397.762 271.835 396.221 270.349 395.346 268.449C394.472 266.549 394.33 264.377 394.949 262.372C403.641 234.078 401.662 203.437 389.407 176.585C377.153 149.733 355.527 128.651 328.86 117.558C302.193 106.465 272.452 106.181 245.591 116.762C218.729 127.344 196.73 148.01 183.997 174.623C171.263 201.237 168.735 231.834 176.918 260.29C185.102 288.745 203.393 312.96 228.13 328.086C252.868 343.212 282.226 348.133 310.327 341.865C338.429 335.596 363.2 318.6 379.683 294.279C380.85 292.55 382.609 291.344 384.605 290.904C386.601 290.465 388.684 290.825 390.432 291.912C396.436 295.597 402.467 299.221 408.526 302.783C420.635 309.908 432.835 316.854 445.126 323.62C451.263 327.05 457.482 330.353 463.591 333.712C469.7 337.071 475.947 340.345 482.166 343.634C488.385 346.922 494.522 350.14 500.823 353.315L510.172 358.106C511.815 358.959 513.652 359.331 515.485 359.183C517.98 359.001 520.387 358.156 522.473 356.731C524.96 355.154 526.965 352.882 528.255 350.178C529.545 347.474 530.067 344.449 529.763 341.451ZM246.448 310.097C230.489 301.967 217.223 289.132 208.329 273.217C199.435 257.302 195.312 239.021 196.481 220.686C197.65 202.351 204.059 184.786 214.898 170.212C225.736 155.638 240.517 144.71 257.371 138.81C274.225 132.91 292.395 132.302 309.583 137.065C326.771 141.827 342.206 151.745 353.935 165.564C365.663 179.384 373.159 196.484 375.475 214.702C377.79 232.921 374.821 251.439 366.943 267.915C361.714 278.853 354.45 288.622 345.564 296.662C336.679 304.702 326.347 310.857 315.158 314.774C303.968 318.691 292.142 320.294 280.352 319.492C268.563 318.689 257.042 315.497 246.448 310.097Z" fill="#FF0000"/>
<path d="M461.148 198.545C461.148 199.381 460.722 200.062 460.187 200.062C459.651 200.062 459.226 199.381 459.226 198.545C459.226 197.709 459.651 197.014 460.187 197.014C460.722 197.014 461.148 197.695 461.148 198.545Z" fill="#263238"/>
<path d="M460.791 200.062C459.826 202.629 458.523 205.048 456.919 207.248C457.475 207.658 458.11 207.938 458.781 208.068C459.452 208.198 460.143 208.174 460.804 207.999L460.791 200.062Z" fill="#630F0F"/>
<path d="M464.031 193.868C464.13 193.865 464.227 193.83 464.306 193.768C464.386 193.706 464.445 193.62 464.475 193.522C464.505 193.424 464.505 193.318 464.475 193.22C464.444 193.122 464.385 193.036 464.305 192.975C463.699 192.505 462.993 192.191 462.246 192.058C461.499 191.925 460.732 191.977 460.008 192.209C459.943 192.227 459.883 192.26 459.831 192.303C459.779 192.347 459.736 192.402 459.706 192.464C459.675 192.526 459.658 192.593 459.655 192.663C459.651 192.732 459.662 192.801 459.686 192.866C459.71 192.931 459.747 192.99 459.795 193.039C459.842 193.088 459.899 193.126 459.962 193.151C460.024 193.176 460.092 193.187 460.159 193.183C460.226 193.18 460.291 193.162 460.351 193.131C460.927 192.954 461.536 192.919 462.127 193.03C462.719 193.141 463.277 193.394 463.756 193.768C463.833 193.834 463.931 193.869 464.031 193.868Z" fill="#263238"/>
<path d="M488.92 204.867C487.465 212.493 486.024 226.455 491.186 231.529C491.186 231.529 489.167 239.254 475.466 239.254C460.365 239.254 468.259 231.529 468.259 231.529C476.496 229.502 476.276 223.194 474.835 217.355L488.92 204.867Z" fill="#7F3E3B"/>
<path d="M493.835 226.752C494.975 227.135 493.492 234.137 493.492 234.137C493.492 234.137 491.611 239.027 468.245 237.326C466.447 237.185 467.133 230.466 468.849 229.488C474.382 226.369 490.156 225.505 493.835 226.752Z" fill="#263238"/>
<path d="M541.294 519.609C542.557 519.481 544.397 517.086 544.919 516.207C544.942 516.168 544.954 516.124 544.954 516.079C544.954 516.034 544.942 515.99 544.919 515.952C544.896 515.91 544.862 515.876 544.82 515.856C544.778 515.835 544.731 515.829 544.685 515.838C544.548 515.838 541.226 516.49 540.416 517.823C540.33 517.962 540.274 518.119 540.25 518.283C540.227 518.446 540.236 518.613 540.279 518.772C540.457 519.396 540.8 519.566 541.075 519.609H541.294ZM544.191 516.448C543.299 517.723 541.83 519.212 541.13 519.112C541.061 519.112 540.855 519.112 540.732 518.631C540.705 518.538 540.698 518.44 540.712 518.345C540.727 518.249 540.761 518.158 540.814 518.078C541.76 517.204 542.935 516.637 544.191 516.448Z" fill="#F83636"/>
<path d="M544.054 516.448C544.299 516.426 544.543 516.384 544.781 516.32C544.822 516.307 544.858 516.283 544.887 516.25C544.916 516.218 544.936 516.179 544.946 516.136C544.954 516.092 544.951 516.046 544.936 516.004C544.922 515.962 544.897 515.924 544.864 515.895C544.781 515.81 542.557 513.854 541.047 514.01C540.866 514.022 540.689 514.074 540.528 514.162C540.367 514.25 540.226 514.372 540.114 514.52C539.985 514.649 539.904 514.82 539.886 515.005C539.869 515.189 539.915 515.374 540.018 515.526C540.512 516.334 542.681 516.589 544.054 516.448ZM544.164 515.952C542.791 516.122 540.787 515.838 540.402 515.257C540.402 515.257 540.292 515.073 540.484 514.818C540.562 514.724 540.656 514.647 540.762 514.591C540.868 514.535 540.984 514.501 541.102 514.492C542.24 514.654 543.306 515.162 544.164 515.952Z" fill="#F83636"/>
<path d="M446.911 556.887C447.951 556.883 448.989 556.788 450.014 556.604C450.06 556.591 450.102 556.566 450.135 556.531C450.169 556.496 450.193 556.453 450.206 556.405C450.214 556.355 450.207 556.303 450.185 556.257C450.163 556.211 450.127 556.173 450.082 556.15C449.931 556.051 446.417 553.981 444.728 554.449C444.412 554.532 444.141 554.741 443.973 555.03C443.866 555.188 443.808 555.376 443.808 555.569C443.808 555.762 443.866 555.95 443.973 556.108C444.413 556.731 445.621 556.887 446.911 556.887ZM449.245 556.235C447.364 556.504 444.811 556.49 444.344 555.824C444.275 555.739 444.22 555.583 444.344 555.271C444.394 555.184 444.462 555.108 444.542 555.05C444.623 554.991 444.714 554.951 444.811 554.931C445.895 554.633 448.009 555.583 449.245 556.235Z" fill="#F83636"/>
<path d="M449.904 556.604C449.953 556.618 450.006 556.618 450.055 556.604C450.087 556.576 450.112 556.541 450.128 556.502C450.145 556.462 450.153 556.42 450.151 556.377C450.151 556.263 449.863 553.457 448.586 552.366C448.397 552.203 448.178 552.081 447.942 552.008C447.706 551.935 447.458 551.912 447.213 551.94C446.554 552.011 446.376 552.351 446.321 552.635C446.142 553.811 448.559 556.065 449.767 556.632L449.904 556.604ZM447.447 552.351C447.753 552.36 448.048 552.475 448.284 552.677C449.046 553.576 449.525 554.694 449.657 555.881C448.408 555.115 446.774 553.344 446.911 552.635C446.911 552.635 446.911 552.408 447.378 552.366L447.447 552.351Z" fill="#F83636"/>
<path d="M461.051 556.363H450.975L449.959 532.238H460.049L461.051 556.363Z" fill="#7F3E3B"/>
<path d="M553.732 508.581L545.866 515.087L525.85 500.743L533.73 494.236L553.732 508.581Z" fill="#7F3E3B"/>
<path d="M544.425 514.676L552.469 506.441C552.614 506.297 552.8 506.208 553 506.188C553.199 506.167 553.399 506.216 553.568 506.327L561.297 511.458C561.484 511.583 561.642 511.751 561.757 511.948C561.872 512.146 561.943 512.368 561.962 512.597C561.982 512.827 561.951 513.058 561.872 513.273C561.792 513.488 561.666 513.682 561.503 513.84C558.647 516.674 557.123 517.893 553.581 521.508C551.412 523.747 546.099 530.409 543.093 533.485C540.086 536.561 536.737 533.896 537.711 532.351C542.036 525.463 543.505 519.779 543.697 516.32C543.738 515.699 543.997 515.115 544.425 514.676Z" fill="#263238"/>
<path d="M451.03 555.158H462.012C462.212 555.157 462.405 555.227 462.56 555.356C462.715 555.485 462.823 555.665 462.864 555.867L464.854 565.122C464.904 565.345 464.905 565.576 464.855 565.799C464.806 566.021 464.708 566.229 464.569 566.407C464.43 566.585 464.254 566.727 464.053 566.824C463.853 566.921 463.634 566.969 463.413 566.965C459.432 566.965 453.693 566.667 448.696 566.667C442.861 566.667 437.823 566.993 430.972 566.993C426.854 566.993 425.687 562.67 427.417 562.273C435.311 560.502 441.749 560.303 448.559 555.966C449.293 555.464 450.149 555.184 451.03 555.158Z" fill="#263238"/>
<path d="M511.064 234.647C519.809 238.9 523.42 268.042 523.42 268.042L503.308 276.192C500.186 268.302 497.657 260.175 495.743 251.883C492.929 238.73 502.072 230.225 511.064 234.647Z" fill="#F83636"/>
<path opacity="0.3" d="M511.064 234.647C519.809 238.9 523.42 268.042 523.42 268.042L503.308 276.192C500.186 268.302 497.657 260.175 495.743 251.883C492.929 238.73 502.072 230.225 511.064 234.647Z" fill="white"/>
<path opacity="0.2" d="M498.036 243.194C497.351 242.851 496.633 242.58 495.894 242.386C495.092 245.494 495.064 248.761 495.812 251.883C497.717 260.175 500.242 268.303 503.363 276.192L509.993 273.513C508.772 265.902 505.024 246.653 498.036 243.194Z" fill="black"/>
<path d="M452.746 234.42C452.746 234.42 442.01 246.936 452.142 324.428H506.095C506.465 315.923 501.262 274.165 509.252 233.882C503.285 232.697 497.251 231.911 491.186 231.529C483.55 231.075 475.895 231.075 468.259 231.529C463.023 232.074 457.836 233.04 452.746 234.42Z" fill="#F83636"/>
<path opacity="0.3" d="M452.746 234.42C452.746 234.42 442.01 246.936 452.142 324.428H506.095C506.465 315.923 501.262 274.165 509.252 233.882C503.285 232.697 497.251 231.911 491.186 231.529C483.55 231.075 475.895 231.075 468.259 231.529C463.023 232.074 457.836 233.04 452.746 234.42Z" fill="white"/>
<path opacity="0.2" d="M463.632 251.033C461.189 243.464 455.313 241.04 449.327 245.533C448.119 252.875 447.268 264.711 448.243 283.478L458.773 283.379C458.773 283.379 467.243 262.301 463.632 251.033Z" fill="black"/>
<path d="M461.656 247.929C461.216 251.727 460.612 255.172 459.939 258.758C459.267 262.344 458.484 265.845 457.592 269.374C455.83 276.588 453.431 283.62 450.426 290.381C449.643 292.124 448.737 293.839 447.776 295.555C447.282 296.419 446.788 297.284 446.225 298.134C445.495 299.316 444.633 300.406 443.658 301.38C441.763 303.194 439.517 304.571 437.068 305.42C435.079 306.139 433.022 306.638 430.931 306.908C427.2 307.386 423.429 307.433 419.688 307.05C417.857 306.899 416.072 306.658 414.333 306.327C412.549 306.001 410.86 305.661 409.021 305.165L409.913 297.397C416.179 297.126 422.4 296.175 428.474 294.562C429.709 294.185 430.909 293.691 432.057 293.088C432.811 292.731 433.47 292.191 433.979 291.515C433.869 291.614 434.871 289.899 435.462 288.68C436.052 287.461 436.711 285.845 437.274 284.428C438.427 281.508 439.415 278.418 440.321 275.257C441.228 272.096 442.024 268.878 442.765 265.618C443.506 262.358 444.138 259.07 444.824 255.696C445.511 252.323 446.005 248.978 446.499 245.845L461.656 247.929Z" fill="#7F3E3B"/>
<path d="M466.227 242.06C469.069 251.571 457.537 279.92 457.537 279.92L433.251 273.613C434.738 264.652 437.24 255.903 440.706 247.546C448.531 229.856 462.809 230.593 466.227 242.06Z" fill="#F83636"/>
<path opacity="0.3" d="M466.227 242.06C469.069 251.571 457.537 279.92 457.537 279.92L433.251 273.613C434.738 264.652 437.24 255.903 440.706 247.546C448.531 229.856 462.809 230.593 466.227 242.06Z" fill="white"/>
<path d="M410.256 297.44L398.834 297.142L404.325 309.403C404.325 309.403 408.966 310.041 412.782 303.563L416.805 298.616L412.178 297.652C411.545 297.525 410.902 297.454 410.256 297.44Z" fill="#7F3E3B"/>
<path d="M391.627 299.424L398.175 309.587L404.339 309.403L398.834 297.142L391.627 299.424Z" fill="#7F3E3B"/>
<path opacity="0.2" d="M449.973 532.252L450.481 544.683H460.571L460.049 532.252H449.973Z" fill="black"/>
<path opacity="0.2" d="M533.73 494.236L525.85 500.743L536.174 508.142L544.054 501.635L533.73 494.236Z" fill="black"/>
<path d="M488.344 196.703C487.74 207.021 487.904 213.088 482.852 218.389C475.274 226.355 462.932 221.649 460.544 211.302C458.388 202.032 459.747 186.724 469.522 182.599C471.677 181.678 474.025 181.344 476.342 181.627C478.658 181.91 480.865 182.801 482.753 184.216C484.641 185.63 486.146 187.521 487.125 189.707C488.103 191.893 488.523 194.301 488.344 196.703Z" fill="#7F3E3B"/>
<path d="M496.416 187.121C496.416 187.121 501.674 188.737 500.027 194.931C497.542 204.342 491.693 215.172 484.143 215.852C474.739 216.717 470.497 206.695 469.261 196.334C463.632 192.351 459.459 188.623 460.804 184.484C462.864 178.106 470.332 172.606 482.221 174.024C494.11 175.441 500.027 183.379 496.416 187.121Z" fill="#263238"/>
<path d="M474.986 198.46C474.803 201.019 473.809 203.445 472.158 205.363C469.961 207.858 467.655 206.299 467.27 203.265C466.927 200.515 467.641 195.909 470.332 194.534C473.023 193.159 475.164 195.37 474.986 198.46Z" fill="#7F3E3B"/>
<path d="M471.279 324.428C471.279 324.428 467.875 394.619 474.505 424.357C485.008 471.444 531.177 509.176 531.177 509.176L546.003 496.915C546.003 496.915 508.017 467.73 504.598 428.524C501.537 393.315 506.067 352.876 506.067 324.428H471.279Z" fill="#F83636"/>
<path opacity="0.2" d="M471.279 324.428C471.279 324.428 467.875 394.619 474.505 424.357C485.008 471.444 531.177 509.176 531.177 509.176L546.003 496.915C546.003 496.915 508.017 467.73 504.598 428.524C501.537 393.315 506.067 352.876 506.067 324.428H471.279Z" fill="black"/>
<path opacity="0.2" d="M476.345 345.221C474.972 342.486 472.295 350.636 470.428 361.097C470.428 375.526 470.675 391.94 471.897 405.845C481.219 388.056 479.242 350.891 476.345 345.221Z" fill="black"/>
<path d="M524.45 506.157L530.078 510.665L547.198 496.334L542.063 491.529L524.45 506.157Z" fill="#2C6BDB"/>
<path opacity="0.4" d="M524.45 506.157L530.078 510.665L547.198 496.334L542.063 491.529L524.45 506.157Z" fill="#FAFAFA"/>
<path d="M452.142 324.428C452.142 324.428 436.958 390.905 435.887 422.656C434.693 458.276 446.719 542.273 446.719 542.273H463.811C463.811 542.273 465.911 457.624 466.68 425.179C467.504 389.814 487.602 324.428 487.602 324.428H452.142Z" fill="#F83636"/>
<path opacity="0.2" d="M452.142 324.428C452.142 324.428 436.958 390.905 435.887 422.656C434.693 458.276 446.719 542.273 446.719 542.273H463.811C463.811 542.273 465.911 457.624 466.68 425.179C467.504 389.814 487.602 324.428 487.602 324.428H452.142Z" fill="black"/>
<path d="M443.438 535.243C443.355 535.243 444.399 542.571 444.399 542.571H465.184L465.747 536.037L443.438 535.243Z" fill="#2C6BDB"/>
<path opacity="0.4" d="M443.438 535.243C443.355 535.243 444.399 542.571 444.399 542.571H465.184L465.747 536.037L443.438 535.243Z" fill="#FAFAFA"/>
</g>
<defs>
<clipPath id="clip0_4_3">
<rect width="594" height="567" fill="white"/>
</clipPath>
</defs>
</svg>
