<svg width="125" height="113" viewBox="0 0 125 113" fill="none" xmlns="http://www.w3.org/2000/svg">
<g filter="url(#filter0_d_34_608)">
<g filter="url(#filter1_i_34_608)">
<path d="M4 27.7548C4.00044 27.4552 4.07661 27.1606 4.22143 26.8983C4.36624 26.636 4.575 26.4146 4.82832 26.2546L45.9348 0.274651C46.2189 0.0952305 46.548 0 46.884 0C47.22 0 47.5491 0.0952305 47.8332 0.274651L88.9361 26.2617C89.1894 26.4217 89.3982 26.6431 89.543 26.9054C89.6878 27.1677 89.764 27.4623 89.7644 27.7619V73.1166C89.7643 73.4194 89.6868 73.717 89.5393 73.9815C89.3919 74.2459 89.1794 74.4682 88.9219 74.6275L47.8154 99.9746C47.5349 100.148 47.2118 100.239 46.8822 100.239C46.5526 100.239 46.2295 100.148 45.949 99.9746L4.84965 74.6239C4.5915 74.4651 4.37826 74.2429 4.23017 73.9785C4.08209 73.7141 4.00408 73.4161 4.00356 73.1131L4 27.7548Z" fill="url(#paint0_linear_34_608)"/>
<path d="M4 27.7548C4.00044 27.4552 4.07661 27.1606 4.22143 26.8983C4.36624 26.636 4.575 26.4146 4.82832 26.2546L45.9348 0.274651C46.2189 0.0952305 46.548 0 46.884 0C47.22 0 47.5491 0.0952305 47.8332 0.274651L88.9361 26.2617C89.1894 26.4217 89.3982 26.6431 89.543 26.9054C89.6878 27.1677 89.764 27.4623 89.7644 27.7619V73.1166C89.7643 73.4194 89.6868 73.717 89.5393 73.9815C89.3919 74.2459 89.1794 74.4682 88.9219 74.6275L47.8154 99.9746C47.5349 100.148 47.2118 100.239 46.8822 100.239C46.5526 100.239 46.2295 100.148 45.949 99.9746L4.84965 74.6239C4.5915 74.4651 4.37826 74.2429 4.23017 73.9785C4.08209 73.7141 4.00408 73.4161 4.00356 73.1131L4 27.7548Z" fill="url(#paint1_linear_34_608)"/>
</g>
<g filter="url(#filter2_i_34_608)">
<path d="M46.5502 100.206C46.3373 100.165 46.1336 100.085 45.9494 99.9711L4.85 74.6239C4.59186 74.4651 4.37861 74.2429 4.23052 73.9785C4.08244 73.7141 4.00443 73.4161 4.00391 73.1131V27.7761L45.7147 53.6992C45.971 53.8585 46.1825 54.0805 46.3293 54.3443C46.4761 54.608 46.5533 54.9047 46.5537 55.2065L46.5502 100.206Z" fill="url(#paint2_linear_34_608)"/>
</g>
<path d="M89.6653 27.1682C89.7316 27.3578 89.7653 27.5574 89.7649 27.7583V73.113C89.7647 73.4157 89.6873 73.7134 89.5398 73.9778C89.3924 74.2423 89.1798 74.4646 88.9223 74.6239L47.8159 99.971C47.4377 100.203 46.9862 100.286 46.5503 100.202V54.9078C46.5501 54.6054 46.627 54.308 46.7738 54.0436C46.9206 53.7792 47.1325 53.5566 47.3893 53.397L89.3383 27.3281C89.4417 27.264 89.5512 27.2104 89.6653 27.1682Z" fill="url(#paint3_linear_34_608)"/>
<path d="M89.6653 27.1682C89.7316 27.3578 89.7653 27.5574 89.7649 27.7583V73.113C89.7647 73.4157 89.6873 73.7134 89.5398 73.9778C89.3924 74.2423 89.1798 74.4646 88.9223 74.6239L47.8159 99.971C47.4377 100.203 46.9862 100.286 46.5503 100.202V54.9078C46.5501 54.6054 46.627 54.308 46.7738 54.0436C46.9206 53.7792 47.1325 53.5566 47.3893 53.397L89.3383 27.3281C89.4417 27.264 89.5512 27.2104 89.6653 27.1682Z" fill="url(#paint4_linear_34_608)"/>
<g filter="url(#filter3_i_34_608)">
<path d="M28.8857 74.4142C28.8854 74.2236 28.936 74.0364 29.0325 73.8721C29.129 73.7078 29.2677 73.5723 29.4343 73.4797C29.6009 73.3872 29.7892 73.341 29.9797 73.3459C30.1702 73.3508 30.3559 73.4066 30.5175 73.5076L41.6304 80.415C41.8872 80.5747 42.0991 80.7972 42.2459 81.0616C42.3927 81.326 42.4696 81.6235 42.4694 81.9259V89.9602C42.4698 90.1507 42.4191 90.3379 42.3226 90.5022C42.2262 90.6666 42.0874 90.8021 41.9208 90.8946C41.7543 90.9871 41.5659 91.0334 41.3754 91.0285C41.185 91.0236 40.9992 90.9677 40.8377 90.8667L29.7247 83.9593C29.4679 83.7997 29.2561 83.5771 29.1093 83.3127C28.9624 83.0483 28.8855 82.7509 28.8857 82.4485V74.4142Z" fill="url(#paint5_linear_34_608)"/>
</g>
<g filter="url(#filter4_i_34_608)">
<path d="M19.8872 38.9637V48.7186L30.2749 54.9399V45.8639C30.2749 44.6481 30.8864 43.5248 31.9102 42.8706C46.0947 33.7983 71.648 17.2391 72.2666 16.6418C72.8354 16.2259 73.5926 16.4285 73.8237 16.7521C73.8237 16.0873 73.4682 15.6962 73.294 15.586L63.5533 9.64205C63.2684 9.46796 62.9402 9.37763 62.6064 9.3814C62.2725 9.38517 61.9465 9.4829 61.6656 9.66338L21.8389 35.3767C21.2396 35.7637 20.7469 36.2949 20.406 36.9215C20.065 37.5481 19.8867 38.2503 19.8872 38.9637Z" fill="#966957"/>
<path d="M19.8872 38.9637V48.7186L30.2749 54.9399V45.8639C30.2749 44.6481 30.8864 43.5248 31.9102 42.8706C46.0947 33.7983 71.648 17.2391 72.2666 16.6418C72.8354 16.2259 73.5926 16.4285 73.8237 16.7521C73.8237 16.0873 73.4682 15.6962 73.294 15.586L63.5533 9.64205C63.2684 9.46796 62.9402 9.37763 62.6064 9.3814C62.2725 9.38517 61.9465 9.4829 61.6656 9.66338L21.8389 35.3767C21.2396 35.7637 20.7469 36.2949 20.406 36.9215C20.065 37.5481 19.8867 38.2503 19.8872 38.9637Z" fill="url(#paint6_linear_34_608)"/>
<path d="M19.8872 38.9637V48.7186L30.2749 54.9399V45.8639C30.2749 44.6481 30.8864 43.5248 31.9102 42.8706C46.0947 33.7983 71.648 17.2391 72.2666 16.6418C72.8354 16.2259 73.5926 16.4285 73.8237 16.7521C73.8237 16.0873 73.4682 15.6962 73.294 15.586L63.5533 9.64205C63.2684 9.46796 62.9402 9.37763 62.6064 9.3814C62.2725 9.38517 61.9465 9.4829 61.6656 9.66338L21.8389 35.3767C21.2396 35.7637 20.7469 36.2949 20.406 36.9215C20.065 37.5481 19.8867 38.2503 19.8872 38.9637Z" fill="url(#paint7_linear_34_608)"/>
</g>
<g filter="url(#filter5_f_34_608)">
<path d="M47.4385 53.2193L88.7654 27.4456" stroke="#F4CAA3" strokeWidth="0.15" strokeLinecap="round"/>
</g>
<g filter="url(#filter6_i_34_608)">
<path d="M83.3677 72.8539C83.3679 72.7244 83.4008 72.5969 83.4635 72.4835C83.5261 72.37 83.6164 72.2742 83.726 72.205L101.507 60.9672C101.63 60.8896 101.772 60.8484 101.917 60.8484C102.063 60.8484 102.205 60.8896 102.328 60.9672L120.107 72.2081C120.217 72.2773 120.307 72.3731 120.37 72.4865C120.433 72.6 120.466 72.7274 120.466 72.857V92.4756C120.466 92.6065 120.432 92.7353 120.368 92.8497C120.305 92.964 120.213 93.0602 120.101 93.1291L102.32 104.093C102.199 104.168 102.059 104.208 101.917 104.208C101.774 104.208 101.634 104.168 101.513 104.093L83.7352 93.1276C83.6235 93.0589 83.5313 92.9628 83.4672 92.8484C83.4032 92.734 83.3694 92.6051 83.3692 92.474L83.3677 72.8539Z" fill="url(#paint8_linear_34_608)"/>
<path d="M83.3677 72.8539C83.3679 72.7244 83.4008 72.5969 83.4635 72.4835C83.5261 72.37 83.6164 72.2742 83.726 72.205L101.507 60.9672C101.63 60.8896 101.772 60.8484 101.917 60.8484C102.063 60.8484 102.205 60.8896 102.328 60.9672L120.107 72.2081C120.217 72.2773 120.307 72.3731 120.37 72.4865C120.433 72.6 120.466 72.7274 120.466 72.857V92.4756C120.466 92.6065 120.432 92.7353 120.368 92.8497C120.305 92.964 120.213 93.0602 120.101 93.1291L102.32 104.093C102.199 104.168 102.059 104.208 101.917 104.208C101.774 104.208 101.634 104.168 101.513 104.093L83.7352 93.1276C83.6235 93.0589 83.5313 92.9628 83.4672 92.8484C83.4032 92.734 83.3694 92.6051 83.3692 92.474L83.3677 72.8539Z" fill="url(#paint9_linear_34_608)"/>
</g>
<g filter="url(#filter7_i_34_608)">
<path d="M101.772 104.193C101.68 104.176 101.592 104.141 101.512 104.092L83.7346 93.1276C83.623 93.0589 83.5307 92.9628 83.4667 92.8484C83.4026 92.734 83.3689 92.6052 83.3687 92.4741V72.8632L101.411 84.0764C101.522 84.1454 101.613 84.2414 101.677 84.3555C101.74 84.4695 101.774 84.5979 101.774 84.7284L101.772 104.193Z" fill="url(#paint10_linear_34_608)"/>
</g>
<path d="M120.423 72.6002C120.451 72.6822 120.466 72.7685 120.466 72.8554V92.474C120.466 92.6049 120.432 92.7337 120.368 92.8481C120.305 92.9624 120.213 93.0586 120.101 93.1275L102.32 104.092C102.157 104.192 101.962 104.228 101.773 104.192V84.5992C101.773 84.4684 101.806 84.3397 101.87 84.2253C101.933 84.111 102.025 84.0147 102.136 83.9456L120.281 72.6694C120.326 72.6416 120.373 72.6184 120.423 72.6002Z" fill="url(#paint11_linear_34_608)"/>
<path d="M120.423 72.6002C120.451 72.6822 120.466 72.7685 120.466 72.8554V92.474C120.466 92.6049 120.432 92.7337 120.368 92.8481C120.305 92.9624 120.213 93.0586 120.101 93.1275L102.32 104.092C102.157 104.192 101.962 104.228 101.773 104.192V84.5992C101.773 84.4684 101.806 84.3397 101.87 84.2253C101.933 84.111 102.025 84.0147 102.136 83.9456L120.281 72.6694C120.326 72.6416 120.373 72.6184 120.423 72.6002Z" fill="url(#paint12_linear_34_608)"/>
<g filter="url(#filter8_i_34_608)">
<path d="M94.1313 93.0368C94.1312 92.9544 94.1531 92.8734 94.1948 92.8024C94.2366 92.7313 94.2966 92.6727 94.3686 92.6326C94.4407 92.5926 94.5221 92.5726 94.6045 92.5747C94.6869 92.5769 94.7673 92.601 94.8372 92.6447L99.6442 95.6325C99.7552 95.7016 99.8469 95.7979 99.9104 95.9122C99.9739 96.0266 100.007 96.1553 100.007 96.2861V99.7614C100.007 99.8438 99.9853 99.9248 99.9436 99.9959C99.9018 100.067 99.8418 100.126 99.7698 100.166C99.6977 100.206 99.6163 100.226 99.5339 100.223C99.4515 100.221 99.3711 100.197 99.3012 100.154L94.4943 97.1657C94.3832 97.0966 94.2915 97.0003 94.228 96.886C94.1645 96.7716 94.1312 96.6429 94.1313 96.5121V93.0368Z" fill="url(#paint13_linear_34_608)"/>
</g>
<g filter="url(#filter9_i_34_608)">
<path d="M90.2393 77.7024V81.9219L94.7325 84.613V80.6871C94.7325 80.1612 94.997 79.6753 95.4399 79.3923C101.576 75.468 112.629 68.3052 112.896 68.0469C113.142 67.8669 113.47 67.9546 113.57 68.0945C113.57 67.807 113.416 67.6378 113.341 67.5902L109.127 65.019C109.004 64.9437 108.862 64.9047 108.718 64.9063C108.573 64.9079 108.432 64.9502 108.311 65.0283L91.0835 76.1508C90.8242 76.3182 90.6111 76.5479 90.4637 76.819C90.3162 77.09 90.239 77.3938 90.2393 77.7024Z" fill="#966957"/>
<path d="M90.2393 77.7024V81.9219L94.7325 84.613V80.6871C94.7325 80.1612 94.997 79.6753 95.4399 79.3923C101.576 75.468 112.629 68.3052 112.896 68.0469C113.142 67.8669 113.47 67.9546 113.57 68.0945C113.57 67.807 113.416 67.6378 113.341 67.5902L109.127 65.019C109.004 64.9437 108.862 64.9047 108.718 64.9063C108.573 64.9079 108.432 64.9502 108.311 65.0283L91.0835 76.1508C90.8242 76.3182 90.6111 76.5479 90.4637 76.819C90.3162 77.09 90.239 77.3938 90.2393 77.7024Z" fill="url(#paint14_linear_34_608)"/>
<path d="M90.2393 77.7024V81.9219L94.7325 84.613V80.6871C94.7325 80.1612 94.997 79.6753 95.4399 79.3923C101.576 75.468 112.629 68.3052 112.896 68.0469C113.142 67.8669 113.47 67.9546 113.57 68.0945C113.57 67.807 113.416 67.6378 113.341 67.5902L109.127 65.019C109.004 64.9437 108.862 64.9047 108.718 64.9063C108.573 64.9079 108.432 64.9502 108.311 65.0283L91.0835 76.1508C90.8242 76.3182 90.6111 76.5479 90.4637 76.819C90.3162 77.09 90.239 77.3938 90.2393 77.7024Z" fill="url(#paint15_linear_34_608)"/>
</g>
<g filter="url(#filter10_f_34_608)">
<path d="M113.258 67.7578C113.138 67.6717 112.95 67.7225 112.874 67.7578L95.1172 79.3401C95.0136 79.4162 94.9259 79.5118 94.8589 79.6215" stroke="#A47E73" strokeWidth="0.0375"/>
</g>
<g filter="url(#filter11_f_34_608)">
<path d="M102.158 83.8688L120.034 72.7202" stroke="#F4CAA3" strokeWidth="0.15" strokeLinecap="round"/>
</g>
<path d="M101.69 61.436C102.19 61.1392 102.799 61.1392 103.283 61.436L120.34 71.8077C120.747 72.0576 120.996 72.5106 120.996 72.9792L102.487 85.4237L83.9614 73.1338V72.9776C83.9614 72.509 84.2113 72.0561 84.6175 71.8218L101.69 61.436Z" fill="#F3C07B"/>
<path d="M102.481 83.4649L120.225 72.6871C120.303 72.6407 120.391 72.6158 120.482 72.6148C120.573 72.6139 120.662 72.637 120.741 72.6818C120.819 72.7265 120.885 72.7914 120.93 72.8697C120.976 72.948 121 73.037 121 73.1276V92.4027C121 92.8668 120.881 93.3233 120.654 93.7281C120.427 94.1329 120.099 94.4726 119.703 94.7144L103.084 104.805C103.041 104.828 102.995 104.844 102.948 104.852C102.906 104.864 102.862 104.87 102.818 104.869C102.641 104.919 102.455 104.933 102.272 104.91C102.09 104.888 101.913 104.83 101.753 104.739H101.762L98.0195 87.7667L102.481 83.4649Z" fill="#FFCE7C"/>
<path d="M102.487 104.358V83.4744L84.7581 72.6966C84.6798 72.6462 84.5894 72.618 84.4964 72.6148C84.4034 72.6115 84.3112 72.6335 84.2296 72.6783C84.1481 72.723 84.0801 72.789 84.0329 72.8692C83.9857 72.9494 83.961 73.0409 83.9614 73.1339V92.409C83.9614 93.3618 84.4613 94.2365 85.2579 94.7208L101.768 104.749C101.839 104.793 101.92 104.818 102.003 104.821C102.086 104.823 102.169 104.804 102.242 104.764C102.315 104.724 102.376 104.666 102.419 104.594C102.462 104.523 102.486 104.442 102.487 104.358Z" fill="#E19747"/>
<path d="M100.362 99.9223V96.8607C100.362 96.5015 100.175 96.1735 99.8778 95.986L95.5042 93.3462C95.2074 93.1744 94.8325 93.3775 94.8325 93.7211V96.7826C94.8325 97.1419 95.02 97.4699 95.3167 97.6574L99.6903 100.297C99.9871 100.469 100.362 100.266 100.362 99.9223Z" fill="#D3D3D3"/>
<path d="M96.0823 83.9445V76.8202L90.959 76.4766V81.4125C90.959 81.5687 91.0371 81.7249 91.1777 81.8186L95.3638 84.3647C95.6762 84.5365 96.0823 84.3194 96.0823 83.9445Z" fill="#8C5543"/>
<path d="M109.484 65.2161L90.959 76.4781L96.0823 79.6021L114.608 68.3557L109.484 65.2161Z" fill="#A56953"/>
</g>
<defs>
<filter id="filter0_d_34_608" x="0" y="0" width="125" height="112.921" filterUnits="userSpaceOnUse" color-interpolation-filters="sRGB">
<feFlood flood-opacity="0" result="BackgroundImageFix"/>
<feColorMatrix in="SourceAlpha" type="matrix" values="0 0 0 0 0 0 0 0 0 0 0 0 0 0 0 0 0 0 127 0" result="hardAlpha"/>
<feOffset dy="4"/>
<feGaussianBlur stdDeviation="2"/>
<feComposite in2="hardAlpha" operator="out"/>
<feColorMatrix type="matrix" values="0 0 0 0 0 0 0 0 0 0 0 0 0 0 0 0 0 0 0.1 0"/>
<feBlend mode="normal" in2="BackgroundImageFix" result="effect1_dropShadow_34_608"/>
<feBlend mode="normal" in="SourceGraphic" in2="effect1_dropShadow_34_608" result="shape"/>
</filter>
<filter id="filter1_i_34_608" x="4" y="0" width="85.7646" height="100.314" filterUnits="userSpaceOnUse" color-interpolation-filters="sRGB">
<feFlood flood-opacity="0" result="BackgroundImageFix"/>
<feBlend mode="normal" in="SourceGraphic" in2="BackgroundImageFix" result="shape"/>
<feColorMatrix in="SourceAlpha" type="matrix" values="0 0 0 0 0 0 0 0 0 0 0 0 0 0 0 0 0 0 127 0" result="hardAlpha"/>
<feOffset dy="0.075"/>
<feGaussianBlur stdDeviation="0.1125"/>
<feComposite in2="hardAlpha" operator="arithmetic" k2="-1" k3="1"/>
<feColorMatrix type="matrix" values="0 0 0 0 0.843137 0 0 0 0 0.694118 0 0 0 0 0.52549 0 0 0 1 0"/>
<feBlend mode="normal" in2="shape" result="effect1_innerShadow_34_608"/>
</filter>
<filter id="filter2_i_34_608" x="4.00391" y="27.7761" width="43.2998" height="73.1796" filterUnits="userSpaceOnUse" color-interpolation-filters="sRGB">
<feFlood flood-opacity="0" result="BackgroundImageFix"/>
<feBlend mode="normal" in="SourceGraphic" in2="BackgroundImageFix" result="shape"/>
<feColorMatrix in="SourceAlpha" type="matrix" values="0 0 0 0 0 0 0 0 0 0 0 0 0 0 0 0 0 0 127 0" result="hardAlpha"/>
<feOffset dx="0.75" dy="0.75"/>
<feGaussianBlur stdDeviation="1.125"/>
<feComposite in2="hardAlpha" operator="arithmetic" k2="-1" k3="1"/>
<feColorMatrix type="matrix" values="0 0 0 0 0.831373 0 0 0 0 0.670588 0 0 0 0 0.545098 0 0 0 1 0"/>
<feBlend mode="normal" in2="shape" result="effect1_innerShadow_34_608"/>
</filter>
<filter id="filter3_i_34_608" x="28.8107" y="73.3455" width="13.6585" height="17.6833" filterUnits="userSpaceOnUse" color-interpolation-filters="sRGB">
<feFlood flood-opacity="0" result="BackgroundImageFix"/>
<feBlend mode="normal" in="SourceGraphic" in2="BackgroundImageFix" result="shape"/>
<feColorMatrix in="SourceAlpha" type="matrix" values="0 0 0 0 0 0 0 0 0 0 0 0 0 0 0 0 0 0 127 0" result="hardAlpha"/>
<feOffset dx="-0.1125"/>
<feGaussianBlur stdDeviation="0.0375"/>
<feComposite in2="hardAlpha" operator="arithmetic" k2="-1" k3="1"/>
<feColorMatrix type="matrix" values="0 0 0 0 0.760103 0 0 0 0 0.683293 0 0 0 0 0.795016 0 0 0 1 0"/>
<feBlend mode="normal" in2="shape" result="effect1_innerShadow_34_608"/>
</filter>
<filter id="filter4_i_34_608" x="19.8122" y="9.38129" width="54.0115" height="45.5586" filterUnits="userSpaceOnUse" color-interpolation-filters="sRGB">
<feFlood flood-opacity="0" result="BackgroundImageFix"/>
<feBlend mode="normal" in="SourceGraphic" in2="BackgroundImageFix" result="shape"/>
<feColorMatrix in="SourceAlpha" type="matrix" values="0 0 0 0 0 0 0 0 0 0 0 0 0 0 0 0 0 0 127 0" result="hardAlpha"/>
<feOffset dx="-0.075"/>
<feGaussianBlur stdDeviation="0.0375"/>
<feComposite in2="hardAlpha" operator="arithmetic" k2="-1" k3="1"/>
<feColorMatrix type="matrix" values="0 0 0 0 0.47451 0 0 0 0 0.266667 0 0 0 0 0.301961 0 0 0 1 0"/>
<feBlend mode="normal" in2="shape" result="effect1_innerShadow_34_608"/>
</filter>
<filter id="filter5_f_34_608" x="47.1758" y="27.183" width="41.8521" height="26.2988" filterUnits="userSpaceOnUse" color-interpolation-filters="sRGB">
<feFlood flood-opacity="0" result="BackgroundImageFix"/>
<feBlend mode="normal" in="SourceGraphic" in2="BackgroundImageFix" result="shape"/>
<feGaussianBlur stdDeviation="0.09375" result="effect1_foregroundBlur_34_608"/>
</filter>
<filter id="filter6_i_34_608" x="83.3677" y="60.8484" width="37.0981" height="43.4343" filterUnits="userSpaceOnUse" color-interpolation-filters="sRGB">
<feFlood flood-opacity="0" result="BackgroundImageFix"/>
<feBlend mode="normal" in="SourceGraphic" in2="BackgroundImageFix" result="shape"/>
<feColorMatrix in="SourceAlpha" type="matrix" values="0 0 0 0 0 0 0 0 0 0 0 0 0 0 0 0 0 0 127 0" result="hardAlpha"/>
<feOffset dy="0.075"/>
<feGaussianBlur stdDeviation="0.1125"/>
<feComposite in2="hardAlpha" operator="arithmetic" k2="-1" k3="1"/>
<feColorMatrix type="matrix" values="0 0 0 0 0.843137 0 0 0 0 0.694118 0 0 0 0 0.52549 0 0 0 1 0"/>
<feBlend mode="normal" in2="shape" result="effect1_innerShadow_34_608"/>
</filter>
<filter id="filter7_i_34_608" x="83.3687" y="72.8632" width="19.1553" height="32.08" filterUnits="userSpaceOnUse" color-interpolation-filters="sRGB">
<feFlood flood-opacity="0" result="BackgroundImageFix"/>
<feBlend mode="normal" in="SourceGraphic" in2="BackgroundImageFix" result="shape"/>
<feColorMatrix in="SourceAlpha" type="matrix" values="0 0 0 0 0 0 0 0 0 0 0 0 0 0 0 0 0 0 127 0" result="hardAlpha"/>
<feOffset dx="0.75" dy="0.75"/>
<feGaussianBlur stdDeviation="1.125"/>
<feComposite in2="hardAlpha" operator="arithmetic" k2="-1" k3="1"/>
<feColorMatrix type="matrix" values="0 0 0 0 0.831373 0 0 0 0 0.670588 0 0 0 0 0.545098 0 0 0 1 0"/>
<feBlend mode="normal" in2="shape" result="effect1_innerShadow_34_608"/>
</filter>
<filter id="filter8_i_34_608" x="94.0563" y="92.5746" width="5.95049" height="7.64905" filterUnits="userSpaceOnUse" color-interpolation-filters="sRGB">
<feFlood flood-opacity="0" result="BackgroundImageFix"/>
<feBlend mode="normal" in="SourceGraphic" in2="BackgroundImageFix" result="shape"/>
<feColorMatrix in="SourceAlpha" type="matrix" values="0 0 0 0 0 0 0 0 0 0 0 0 0 0 0 0 0 0 127 0" result="hardAlpha"/>
<feOffset dx="-0.1125"/>
<feGaussianBlur stdDeviation="0.0375"/>
<feComposite in2="hardAlpha" operator="arithmetic" k2="-1" k3="1"/>
<feColorMatrix type="matrix" values="0 0 0 0 0.760103 0 0 0 0 0.683293 0 0 0 0 0.795016 0 0 0 1 0"/>
<feBlend mode="normal" in2="shape" result="effect1_innerShadow_34_608"/>
</filter>
<filter id="filter9_i_34_608" x="90.1643" y="64.9062" width="23.4056" height="19.7067" filterUnits="userSpaceOnUse" color-interpolation-filters="sRGB">
<feFlood flood-opacity="0" result="BackgroundImageFix"/>
<feBlend mode="normal" in="SourceGraphic" in2="BackgroundImageFix" result="shape"/>
<feColorMatrix in="SourceAlpha" type="matrix" values="0 0 0 0 0 0 0 0 0 0 0 0 0 0 0 0 0 0 127 0" result="hardAlpha"/>
<feOffset dx="-0.075"/>
<feGaussianBlur stdDeviation="0.0375"/>
<feComposite in2="hardAlpha" operator="arithmetic" k2="-1" k3="1"/>
<feColorMatrix type="matrix" values="0 0 0 0 0.47451 0 0 0 0 0.266667 0 0 0 0 0.301961 0 0 0 1 0"/>
<feBlend mode="normal" in2="shape" result="effect1_innerShadow_34_608"/>
</filter>
<filter id="filter10_f_34_608" x="94.7678" y="67.6167" width="18.5763" height="12.0896" filterUnits="userSpaceOnUse" color-interpolation-filters="sRGB">
<feFlood flood-opacity="0" result="BackgroundImageFix"/>
<feBlend mode="normal" in="SourceGraphic" in2="BackgroundImageFix" result="shape"/>
<feGaussianBlur stdDeviation="0.0375" result="effect1_foregroundBlur_34_608"/>
</filter>
<filter id="filter11_f_34_608" x="101.896" y="72.4576" width="18.4014" height="11.6736" filterUnits="userSpaceOnUse" color-interpolation-filters="sRGB">
<feFlood flood-opacity="0" result="BackgroundImageFix"/>
<feBlend mode="normal" in="SourceGraphic" in2="BackgroundImageFix" result="shape"/>
<feGaussianBlur stdDeviation="0.09375" result="effect1_foregroundBlur_34_608"/>
</filter>
<linearGradient id="paint0_linear_34_608" x1="46.884" y1="-0.00263866" x2="46.884" y2="100.234" gradientUnits="userSpaceOnUse">
<stop stop-color="#DEB586"/>
<stop offset="1" stop-color="#D7AA82"/>
</linearGradient>
<linearGradient id="paint1_linear_34_608" x1="28.3304" y1="43.2759" x2="29.9408" y2="40.7199" gradientUnits="userSpaceOnUse">
<stop offset="0.066" stop-color="#C99D78"/>
<stop offset="1" stop-color="#DCB185" stop-opacity="0"/>
</linearGradient>
<linearGradient id="paint2_linear_34_608" x1="9.67058" y1="47.1615" x2="39.8525" y2="97.6532" gradientUnits="userSpaceOnUse">
<stop stop-color="#B98875"/>
<stop offset="1" stop-color="#AA684F"/>
</linearGradient>
<linearGradient id="paint3_linear_34_608" x1="49.5507" y1="52.7748" x2="77.9907" y2="82.3275" gradientUnits="userSpaceOnUse">
<stop stop-color="#D7A585"/>
<stop offset="1" stop-color="#BD7943"/>
</linearGradient>
<linearGradient id="paint4_linear_34_608" x1="45.3949" y1="82.8679" x2="49.5116" y2="82.6404" gradientUnits="userSpaceOnUse">
<stop stop-color="#B46C4B"/>
<stop offset="1" stop-color="#BD7E61" stop-opacity="0"/>
</linearGradient>
<linearGradient id="paint5_linear_34_608" x1="30.8765" y1="74.0907" x2="40.1906" y2="92.0399" gradientUnits="userSpaceOnUse">
<stop stop-color="#CAB6CD"/>
<stop offset="1" stop-color="#D1BED7"/>
</linearGradient>
<linearGradient id="paint6_linear_34_608" x1="21.8887" y1="49.6074" x2="28.9987" y2="39.0561" gradientUnits="userSpaceOnUse">
<stop offset="0.649" stop-color="#8D6D6C"/>
<stop offset="0.726" stop-color="#83554C"/>
<stop offset="0.825" stop-color="#83554C"/>
<stop offset="1" stop-color="#976A58" stop-opacity="0"/>
</linearGradient>
<linearGradient id="paint7_linear_34_608" x1="71.1006" y1="13.7801" x2="67.5456" y2="17.7794" gradientUnits="userSpaceOnUse">
<stop stop-color="#9C6F5D"/>
<stop offset="1" stop-color="#9C6F5D" stop-opacity="0"/>
</linearGradient>
<linearGradient id="paint8_linear_34_608" x1="101.917" y1="60.8472" x2="101.917" y2="104.205" gradientUnits="userSpaceOnUse">
<stop stop-color="#DEB586"/>
<stop offset="1" stop-color="#D7AA82"/>
</linearGradient>
<linearGradient id="paint9_linear_34_608" x1="93.892" y1="79.5677" x2="94.5886" y2="78.4621" gradientUnits="userSpaceOnUse">
<stop offset="0.066" stop-color="#C99D78"/>
<stop offset="1" stop-color="#DCB185" stop-opacity="0"/>
</linearGradient>
<linearGradient id="paint10_linear_34_608" x1="85.8198" y1="81.2485" x2="98.8753" y2="103.089" gradientUnits="userSpaceOnUse">
<stop stop-color="#B98875"/>
<stop offset="1" stop-color="#AA684F"/>
</linearGradient>
<linearGradient id="paint11_linear_34_608" x1="103.071" y1="83.6765" x2="115.373" y2="96.4598" gradientUnits="userSpaceOnUse">
<stop stop-color="#D7A585"/>
<stop offset="1" stop-color="#BD7943"/>
</linearGradient>
<linearGradient id="paint12_linear_34_608" x1="101.273" y1="96.6935" x2="103.054" y2="96.5951" gradientUnits="userSpaceOnUse">
<stop stop-color="#B46C4B"/>
<stop offset="1" stop-color="#BD7E61" stop-opacity="0"/>
</linearGradient>
<linearGradient id="paint13_linear_34_608" x1="94.9925" y1="92.8969" x2="99.0214" y2="100.661" gradientUnits="userSpaceOnUse">
<stop stop-color="#CAB6CD"/>
<stop offset="1" stop-color="#D1BED7"/>
</linearGradient>
<linearGradient id="paint14_linear_34_608" x1="91.105" y1="82.3064" x2="94.1805" y2="77.7423" gradientUnits="userSpaceOnUse">
<stop offset="0.649" stop-color="#8D6D6C"/>
<stop offset="0.726" stop-color="#83554C"/>
<stop offset="0.825" stop-color="#83554C"/>
<stop offset="1" stop-color="#976A58" stop-opacity="0"/>
</linearGradient>
<linearGradient id="paint15_linear_34_608" x1="112.392" y1="66.809" x2="110.854" y2="68.5389" gradientUnits="userSpaceOnUse">
<stop stop-color="#9C6F5D"/>
<stop offset="1" stop-color="#9C6F5D" stop-opacity="0"/>
</linearGradient>
</defs>
</svg>
