<svg width="152" height="133" viewBox="0 0 152 133" fill="none" xmlns="http://www.w3.org/2000/svg">
    <path
        d="M75.892 116.59c40.96 0 74.166-8.635 74.166-19.287 0-10.653-33.206-19.288-74.166-19.288-40.961 0-74.166 8.635-74.166 19.288 0 10.652 33.205 19.287 74.166 19.287z"
        fill="#000" fill-opacity=".11" />
    <path opacity=".1" d="M134.691 93.202 67.72 123.973l-51.424-23.591 67.122-30.7 51.273 23.52z"
        fill="#000" />
    <path d="m23.065 53.752 61.088-28.096 44.788 20.605-61.078 28.095-44.798-20.604z" fill="#D3976E" />
    <path d="m23.064 53.752 61.088-28.096 44.788 20.605-61.078 28.095-44.797-20.604z" fill="#fff"
        opacity=".3" />
    <path
        d="m83.549 29.698-18.746 8.601c-.34.16-.25.455.2.663l21.172 9.735a1.98 1.98 0 0 0 1.434.088l18.745-8.601c.34-.16.25-.456-.201-.663l-21.171-9.727a1.939 1.939 0 0 0-1.433-.096z"
        fill="#FAFAFA" />
    <path
        d="M93.021 44.337a.468.468 0 0 0 .19-.042.364.364 0 0 0 .14-.11.268.268 0 0 0 .053-.114.244.244 0 0 0-.01-.121.285.285 0 0 0-.067-.11.373.373 0 0 0-.115-.078l-17.573-8.074a.485.485 0 0 0-.27-.001.38.38 0 0 0-.207.139.258.258 0 0 0-.044.212.31.31 0 0 0 .14.185l17.563 8.082a.602.602 0 0 0 .2.032zm-1.955.933a.47.47 0 0 0 .197-.043.359.359 0 0 0 .143-.116.262.262 0 0 0 .031-.236.34.34 0 0 0-.18-.188l-17.563-8.121a.48.48 0 0 0-.297-.028.389.389 0 0 0-.235.147.264.264 0 0 0-.047.113.244.244 0 0 0 .01.118.285.285 0 0 0 .066.107c.03.031.068.058.112.078l17.572 8.082a.38.38 0 0 0 .19.087zm-1.943.847a.454.454 0 0 0 .228-.068.315.315 0 0 0 .133-.163.252.252 0 0 0-.015-.194.34.34 0 0 0-.156-.15L71.741 37.46a.48.48 0 0 0-.295-.03.393.393 0 0 0-.236.142.263.263 0 0 0-.036.234.337.337 0 0 0 .176.19l17.572 8.073a.55.55 0 0 0 .2.048zm-1.953.894a.456.456 0 0 0 .193-.044.347.347 0 0 0 .19-.23.244.244 0 0 0-.01-.12.285.285 0 0 0-.067-.11.374.374 0 0 0-.116-.079l-17.572-8.074a.447.447 0 0 0-.29-.03.426.426 0 0 0-.133.053.338.338 0 0 0-.098.09.265.265 0 0 0-.048.111.245.245 0 0 0 .01.119.286.286 0 0 0 .066.106c.03.032.069.058.112.078l17.572 8.082a.391.391 0 0 0 .19.048z"
        fill="#E0E0E0" />
    <path
        d="m104.583 39.792-.681-.32-8 3.69.682.312 7.999-3.682zm-2.78-1.278-1.183-.543-8.01 3.682 1.193.543 8-3.682zm-2.786-1.285-.682-.312-8 3.682.683.312 7.999-3.682zm-2.074-.967-1.383-.623-8.01 3.682 1.384.623 8.01-3.682zm-3.478-1.589-.691-.32-8 3.682.682.32 8.01-3.682zm-1.998-.934-1.474-.663-7.999 3.682 1.474.67 7.999-3.69zM87.9 32.11l-.682-.312-8.009 3.682.682.311 8.009-3.682zm-1.581-.728-.341-.16-8 3.682.341.152 8-3.674zm2.806 1.334-.34-.16-8 3.682.341.16 8-3.682zm5.632 2.564-.34-.16-8 3.682.34.16 8-3.682zm3.067 1.413-.341-.16-8.01 3.682.341.16 8.01-3.682zm2.166 1.03-.34-.16-8 3.682.331.16 8.01-3.682zm3.047 1.351-.341-.16-8.01 3.681.341.16 8.01-3.681zm-17.922-8.243-.682-.311-8 3.681.682.312 8-3.682z"
        fill="#455A64" />
    <path d="M67.864 121.754 23.065 101.15V53.752l44.799 20.604v47.398z" fill="#D3976E" />
    <path d="M67.864 121.754 23.065 101.15V53.752l44.799 20.604v47.398z" fill="#D3976E" />
    <path d="m67.861 121.754 61.078-28.095V46.26L67.861 74.356v47.398z" fill="#D3976E" />
    <path opacity=".1" d="m67.861 121.754 61.078-28.095V46.26L67.861 74.356v47.398z" fill="#000" />
    <path d="m100.432 66.698-5.924 2.73v-7.33l5.924-2.724v7.324z" fill="#37474F" />
    <path
        d="M94.505 62.098 49.717 41.493l5.924-2.723 44.788 20.604-5.924 2.724zm20.071 33.637a.654.654 0 0 1-.251-.048.544.544 0 0 1-.21-.19.41.41 0 0 1-.061-.249v-.463c0-.049.025-.095.068-.13a.263.263 0 0 1 .323.002c.043.034.068.08.07.128v.615c0 .008.071 0 .151 0a1.1 1.1 0 0 0 .316-.364.885.885 0 0 0 .105-.435v-3.194a.149.149 0 0 1 .001-.081.179.179 0 0 1 .045-.073.236.236 0 0 1 .08-.05.282.282 0 0 1 .199 0c.03.012.058.029.079.05a.168.168 0 0 1 .045.073.149.149 0 0 1 .002.08v3.195a1.15 1.15 0 0 1-.154.624 1.467 1.467 0 0 1-.488.502.786.786 0 0 1-.32.008z"
        fill="#455A64" />
    <path
        d="M112.189 92.924v-.311c.056-.8.347-1.579.85-2.272.504-.694 1.205-1.284 2.047-1.721a2.21 2.21 0 0 1 1.07-.356c.394-.028.789.04 1.132.198.343.157.617.394.784.68.168.285.221.605.152.915v.104l-6.035 2.763zm4.291-4.288c-.402.014-.792.11-1.133.28-.72.377-1.33.873-1.788 1.454a4.225 4.225 0 0 0-.868 1.915l5.102-2.348a1.093 1.093 0 0 0-.156-.66 1.448 1.448 0 0 0-.546-.514 1.36 1.36 0 0 0-.611-.127zm-11.028 11.156a.265.265 0 0 1-.156-.052.185.185 0 0 1-.048-.057.145.145 0 0 1-.016-.067V93.46a.14.14 0 0 1 .001-.081.168.168 0 0 1 .045-.073.236.236 0 0 1 .08-.05.282.282 0 0 1 .198 0 .226.226 0 0 1 .08.05.168.168 0 0 1 .045.073.149.149 0 0 1 .002.08v6.158a.143.143 0 0 1-.018.07.19.19 0 0 1-.05.057.252.252 0 0 1-.163.049z"
        fill="#455A64" />
    <path
        d="M104.781 94.857h-.09a.22.22 0 0 1-.115-.102.161.161 0 0 1-.005-.137l.811-1.486.903.799c.028.037.04.08.032.124a.177.177 0 0 1-.076.11.266.266 0 0 1-.147.046.268.268 0 0 1-.15-.04l-.431-.392-.521.959a.195.195 0 0 1-.083.085.268.268 0 0 1-.128.034zm2.767 3.985a.283.283 0 0 1-.088-.014.24.24 0 0 1-.075-.04.2.2 0 0 1-.05-.059.148.148 0 0 1-.018-.07V92.5a.178.178 0 0 1 .071-.127.263.263 0 0 1 .323-.002.169.169 0 0 1 .068.13v6.157a.169.169 0 0 1-.068.13.263.263 0 0 1-.163.053z"
        fill="#455A64" />
    <path
        d="M106.886 93.907h-.09a.24.24 0 0 1-.076-.04.172.172 0 0 1-.05-.06.148.148 0 0 1-.016-.07.15.15 0 0 1 .022-.07l.812-1.485.892.798a.18.18 0 0 1 .051.058.144.144 0 0 1 0 .14.18.18 0 0 1-.051.058.266.266 0 0 1-.161.052.265.265 0 0 1-.16-.052l-.421-.4-.531.959a.183.183 0 0 1-.086.086.255.255 0 0 1-.135.026z"
        fill="#455A64" />
    <path
        d="M72.674 102.165v12.099c0 .463.41.655.912.423l23.707-10.901a1.83 1.83 0 0 0 .655-.546 1.37 1.37 0 0 0 .267-.724V90.409c0-.463-.41-.655-.922-.415l-23.707 10.909a1.831 1.831 0 0 0-.647.543c-.159.22-.25.466-.265.719z"
        fill="#FAFAFA" />
    <path
        d="m96.743 91.727-.762.35v10.998l.762-.351V91.727zm-3.117 1.429-1.314.615v10.997l1.314-.615V93.156zm-3.111 1.43-.772.351v10.997l.772-.351V94.586zm-2.355 1.061-1.533.727v10.997l1.534-.727V95.647zm-3.879 1.806-.762.351v10.997l.762-.351V97.453zm-2.244 1.006-1.634.774v11.005l1.634-.783V98.459zm-3.989 1.861-.762.351v10.997l.762-.351V100.32zm-1.776.806-.38.176v10.997l.38-.176v-10.997zm3.198-1.406-.381.176v10.997l.38-.176V99.72zm6.278-2.93-.38.175v10.997l.38-.175V96.79zm3.438-1.573-.381.175v10.997l.38-.175V95.217zm2.464-1.087-.381.176v10.997l.38-.176V94.13zm3.347-1.62-.38.183v10.997l.38-.176V92.509zm-20.067 9.239-.762.351v10.997l.762-.351v-10.997z"
        fill="#455A64" />
</svg>