<svg width="150" height="185" viewBox="0 0 150 185" fill="none" xmlns="http://www.w3.org/2000/svg">
<g clip-path="url(#clip0_101_1787)">
<path d="M75.0273 120.791C115.988 120.791 149.193 112.155 149.193 101.503C149.193 90.8509 115.988 82.2156 75.0273 82.2156C34.0666 82.2156 0.861328 90.8509 0.861328 101.503C0.861328 112.155 34.0666 120.791 75.0273 120.791Z" fill="black" fill-opacity="0.11"/>
<path opacity="0.1" d="M133.827 97.4024L66.8556 128.173L15.4316 104.582L82.5535 73.8831L133.827 97.4024Z" fill="black"/>
<path d="M22.2012 57.9519L83.2885 29.8564L128.076 50.4608L66.9992 78.5563L22.2012 57.9519Z" fill="#D3976E"/>
<g opacity="0.3">
<path d="M22.2002 57.9519L83.2875 29.8564L128.075 50.4608L66.9982 78.5563L22.2002 57.9519Z" fill="white"/>
</g>
<path d="M82.6843 33.8981L63.9391 42.4992C63.5983 42.6589 63.6885 42.9544 64.1396 43.1621L85.3106 52.8972C85.5245 52.9997 85.7655 53.061 86.0143 53.0763C86.2632 53.0915 86.5131 53.0603 86.7441 52.9851L105.489 44.3839C105.83 44.2242 105.74 43.9287 105.289 43.7211L84.1177 33.9939C83.9056 33.8883 83.6649 33.8245 83.4156 33.8079C83.1663 33.7912 82.9156 33.8221 82.6843 33.8981Z" fill="#FAFAFA"/>
<path d="M92.1568 48.5369C92.2236 48.5363 92.2891 48.522 92.347 48.4954C92.405 48.4689 92.4533 48.4309 92.4876 48.3852C92.5143 48.3503 92.5319 48.3114 92.5393 48.271C92.5467 48.2305 92.5438 48.1893 92.5307 48.1497C92.5175 48.1102 92.4945 48.0732 92.463 48.0409C92.4315 48.0087 92.3922 47.9818 92.3473 47.9619L74.7749 39.8879C74.6878 39.8619 74.5919 39.8616 74.5045 39.8869C74.4171 39.9122 74.3439 39.9615 74.298 40.026C74.2521 40.0904 74.2365 40.1658 74.2541 40.2386C74.2717 40.3113 74.3213 40.3767 74.394 40.423L91.9563 48.505C92.0196 48.5267 92.0879 48.5376 92.1568 48.5369Z" fill="#E0E0E0"/>
<path d="M90.2014 49.4707C90.2709 49.4706 90.3392 49.4557 90.3991 49.4277C90.459 49.3996 90.5084 49.3593 90.5423 49.3109C90.59 49.2385 90.6011 49.1542 90.5731 49.0754C90.5451 48.9966 90.4803 48.9294 90.3919 48.8877L72.8296 40.7657C72.7391 40.7256 72.6324 40.7156 72.5328 40.7381C72.4332 40.7605 72.3489 40.8136 72.2983 40.8855C72.2732 40.9201 72.2569 40.9583 72.2503 40.9979C72.2438 41.0375 72.2471 41.0778 72.2602 41.1164C72.2732 41.1549 72.2957 41.1911 72.3263 41.2227C72.3569 41.2544 72.3951 41.2809 72.4386 41.3008L90.011 49.3828C90.061 49.4276 90.1278 49.4584 90.2014 49.4707Z" fill="#E0E0E0"/>
<path d="M88.2585 50.3175C88.3418 50.3146 88.4217 50.2905 88.4866 50.2488C88.5515 50.2072 88.598 50.15 88.6192 50.0858C88.6405 50.0216 88.6355 49.9537 88.6048 49.8919C88.5742 49.8301 88.5196 49.7778 88.449 49.7425L70.8766 41.6605C70.7874 41.6197 70.6816 41.6085 70.5822 41.6295C70.4827 41.6504 70.3976 41.7017 70.3453 41.7723C70.2967 41.8438 70.2841 41.9274 70.3102 42.0061C70.3363 42.0847 70.399 42.1525 70.4857 42.1956L88.058 50.2696C88.1194 50.2976 88.188 50.314 88.2585 50.3175Z" fill="#E0E0E0"/>
<path d="M86.3057 51.2115C86.3737 51.2108 86.4402 51.1957 86.4984 51.1676C86.5565 51.1395 86.6042 51.0995 86.6364 51.0518C86.6631 51.0169 86.6807 50.978 86.6881 50.9376C86.6955 50.8971 86.6926 50.8559 86.6795 50.8163C86.6664 50.7768 86.6433 50.7398 86.6118 50.7075C86.5803 50.6752 86.541 50.6484 86.4961 50.6285L68.9237 42.5545C68.8803 42.5345 68.8324 42.5216 68.7827 42.5165C68.7329 42.5113 68.6824 42.514 68.634 42.5244C68.5856 42.5348 68.5403 42.5526 68.5005 42.577C68.4608 42.6013 68.4275 42.6317 68.4025 42.6663C68.3775 42.7009 68.3613 42.7391 68.3548 42.7787C68.3483 42.8183 68.3517 42.8585 68.3647 42.8971C68.3777 42.9356 68.4002 42.9718 68.4307 43.0034C68.4613 43.0351 68.4994 43.0616 68.5428 43.0816L86.1152 51.1636C86.171 51.1948 86.2375 51.2116 86.3057 51.2115Z" fill="#E0E0E0"/>
<path d="M103.719 43.9923L103.037 43.6729L95.0381 47.3625L95.7197 47.6739L103.719 43.9923Z" fill="#455A64"/>
<path d="M100.938 42.7145L99.7554 42.1714L91.7461 45.853L92.939 46.3961L100.938 42.7145Z" fill="#455A64"/>
<path d="M98.1526 41.4291L97.4709 41.1177L89.4717 44.7993L90.1533 45.1108L98.1526 41.4291Z" fill="#455A64"/>
<path d="M96.0792 40.4623L94.6958 39.8394L86.6865 43.521L88.0698 44.1439L96.0792 40.4623Z" fill="#455A64"/>
<path d="M92.6011 38.8729L91.9095 38.5535L83.9102 42.2351L84.5918 42.5546L92.6011 38.8729Z" fill="#455A64"/>
<path d="M90.6027 37.939L89.1292 37.2761L81.1299 40.9578L82.6034 41.6286L90.6027 37.939Z" fill="#455A64"/>
<path d="M87.0357 36.3095L86.354 35.998L78.3447 39.6797L79.0264 39.9911L87.0357 36.3095Z" fill="#455A64"/>
<path d="M85.4544 35.5823L85.1136 35.4226L77.1143 39.1042L77.4551 39.256L85.4544 35.5823Z" fill="#455A64"/>
<path d="M88.261 36.9158L87.9202 36.7561L79.9209 40.4378L80.2617 40.5975L88.261 36.9158Z" fill="#455A64"/>
<path d="M93.8928 39.48L93.552 39.3203L85.5527 43.0019L85.8936 43.1617L93.8928 39.48Z" fill="#455A64"/>
<path d="M96.9595 40.8936L96.6187 40.7339L88.6094 44.4155L88.9502 44.5752L96.9595 40.8936Z" fill="#455A64"/>
<path d="M99.1262 41.9236L98.7854 41.7639L90.7861 45.4455L91.1169 45.6053L99.1262 41.9236Z" fill="#455A64"/>
<path d="M102.172 43.2737L101.832 43.114L93.8223 46.7956L94.1631 46.9554L102.172 43.2737Z" fill="#455A64"/>
<path d="M84.2503 35.0314L83.5686 34.72L75.5693 38.4016L76.251 38.7131L84.2503 35.0314Z" fill="#455A64"/>
<path d="M66.9992 125.955L22.2012 105.35V57.9521L66.9992 78.5566V125.955Z" fill="#D3976E"/>
<path d="M66.9992 125.955L22.2012 105.35V57.9521L66.9992 78.5566V125.955Z" fill="#D3976E"/>
<path d="M66.9971 125.954L128.074 97.8588V50.4607L66.9971 78.5562V125.954Z" fill="#D3976E"/>
<path opacity="0.1" d="M66.9971 125.954L128.074 97.8588V50.4607L66.9971 78.5562V125.954Z" fill="black"/>
<path d="M99.5678 70.8978L93.6436 73.6291V66.2978L99.5678 63.5745V70.8978Z" fill="#37474F"/>
<path d="M93.6405 66.2979L48.8525 45.6935L54.7768 42.9702L99.5648 63.5746L93.6405 66.2979Z" fill="#455A64"/>
<path d="M113.711 99.9355C113.624 99.9359 113.538 99.9194 113.461 99.8876C113.371 99.8399 113.299 99.7742 113.251 99.697C113.204 99.6199 113.182 99.5341 113.19 99.4484V98.9852C113.19 98.9365 113.214 98.8898 113.258 98.8553C113.301 98.8209 113.359 98.8015 113.421 98.8015C113.481 98.8035 113.538 98.8234 113.581 98.8575C113.624 98.8915 113.649 98.9371 113.651 98.9852V99.4803C113.651 99.5602 113.651 99.5921 113.651 99.6001C113.651 99.6081 113.721 99.6001 113.801 99.6001C113.938 99.4977 114.045 99.3738 114.118 99.2363C114.19 99.0987 114.226 98.9506 114.222 98.8015V95.607C114.215 95.5803 114.216 95.5526 114.224 95.526C114.232 95.4994 114.247 95.4746 114.269 95.4533C114.291 95.432 114.318 95.4149 114.349 95.4031C114.38 95.3914 114.414 95.3853 114.448 95.3853C114.482 95.3853 114.516 95.3914 114.547 95.4031C114.578 95.4149 114.606 95.432 114.627 95.4533C114.649 95.4746 114.664 95.4994 114.672 95.526C114.68 95.5526 114.681 95.5803 114.674 95.607V98.8015C114.684 99.016 114.631 99.2294 114.52 99.4249C114.408 99.6204 114.241 99.7925 114.032 99.9276C113.928 99.9522 113.817 99.9549 113.711 99.9355Z" fill="#455A64"/>
<path d="M111.325 97.1244V96.813C111.381 96.0129 111.672 95.2345 112.175 94.5408C112.678 93.8471 113.38 93.2575 114.222 92.8199C114.524 92.6165 114.898 92.4922 115.292 92.4639C115.686 92.4357 116.081 92.5048 116.424 92.6619C116.767 92.819 117.041 93.0564 117.208 93.3419C117.375 93.6274 117.428 93.947 117.36 94.2574V94.3612L111.325 97.1244ZM115.616 92.8358C115.214 92.8498 114.824 92.9461 114.483 93.1154C113.763 93.4927 113.153 93.9889 112.695 94.5704C112.236 95.1518 111.94 95.805 111.826 96.4855L116.929 94.1376C116.949 93.9103 116.895 93.6826 116.772 93.4769C116.649 93.2711 116.461 93.0943 116.227 92.9636C116.043 92.8757 115.83 92.8313 115.616 92.8358Z" fill="#455A64"/>
<path d="M104.588 103.992C104.559 103.992 104.53 103.988 104.503 103.979C104.477 103.97 104.452 103.957 104.432 103.941C104.411 103.924 104.395 103.905 104.384 103.884C104.373 103.862 104.367 103.839 104.367 103.816V97.659C104.36 97.6323 104.361 97.6046 104.369 97.578C104.377 97.5514 104.392 97.5266 104.414 97.5053C104.435 97.484 104.463 97.4669 104.494 97.4551C104.525 97.4433 104.559 97.4373 104.593 97.4373C104.627 97.4373 104.661 97.4433 104.692 97.4551C104.723 97.4669 104.75 97.484 104.772 97.5053C104.794 97.5266 104.809 97.5514 104.817 97.578C104.825 97.6046 104.826 97.6323 104.818 97.659V103.816C104.818 103.84 104.812 103.864 104.801 103.886C104.789 103.907 104.772 103.927 104.75 103.944C104.729 103.96 104.703 103.973 104.675 103.981C104.647 103.989 104.618 103.993 104.588 103.992Z" fill="#455A64"/>
<path d="M103.917 99.0575H103.827C103.774 99.0354 103.733 98.9992 103.711 98.9553C103.689 98.9115 103.687 98.8628 103.706 98.818L104.518 97.3325L105.42 98.1311C105.449 98.168 105.46 98.2118 105.452 98.2547C105.444 98.2975 105.418 98.3368 105.377 98.3655C105.336 98.3942 105.284 98.4104 105.229 98.4114C105.175 98.4124 105.122 98.398 105.08 98.3707L104.649 97.9794L104.127 98.9378C104.111 98.9722 104.083 99.002 104.045 99.0234C104.008 99.0448 103.963 99.0566 103.917 99.0575Z" fill="#455A64"/>
<path d="M106.684 103.043C106.653 103.043 106.623 103.038 106.595 103.029C106.567 103.019 106.542 103.006 106.521 102.989C106.499 102.972 106.482 102.951 106.471 102.929C106.459 102.907 106.453 102.883 106.453 102.859V96.7015C106.456 96.6534 106.481 96.6078 106.523 96.5738C106.566 96.5398 106.623 96.5198 106.684 96.5178C106.745 96.5178 106.803 96.5372 106.847 96.5716C106.89 96.6061 106.914 96.6528 106.914 96.7015V102.859C106.914 102.908 106.89 102.954 106.847 102.989C106.803 103.023 106.745 103.043 106.684 103.043Z" fill="#455A64"/>
<path d="M106.022 98.1069H105.932C105.903 98.0982 105.877 98.0849 105.856 98.0679C105.834 98.0509 105.817 98.0305 105.806 98.008C105.795 97.9855 105.789 97.9614 105.79 97.9372C105.791 97.913 105.798 97.8892 105.811 97.8673L106.623 96.3818L107.516 97.1805C107.537 97.1969 107.555 97.2167 107.567 97.2387C107.579 97.2606 107.585 97.2843 107.585 97.3082C107.585 97.3322 107.579 97.3558 107.567 97.3778C107.555 97.3998 107.537 97.4196 107.516 97.436C107.473 97.4692 107.415 97.4878 107.355 97.4878C107.295 97.4878 107.238 97.4692 107.195 97.436L106.774 97.0367L106.242 97.9951C106.227 98.0308 106.197 98.0612 106.157 98.0815C106.117 98.1018 106.069 98.1108 106.022 98.1069Z" fill="#455A64"/>
<path d="M71.8096 106.365V118.464C71.8096 118.927 72.2206 119.119 72.7218 118.887L96.4289 107.986C96.6988 107.848 96.9234 107.661 97.0839 107.441C97.2443 107.22 97.336 106.971 97.3512 106.716V94.6092C97.3512 94.146 96.9402 93.9543 96.4289 94.1939L72.7218 105.103C72.4551 105.241 72.2333 105.427 72.0747 105.646C71.9161 105.866 71.8252 106.112 71.8096 106.365Z" fill="#FAFAFA"/>
<path d="M95.879 95.9268L95.1172 96.2781V107.275L95.879 106.924V95.9268Z" fill="#455A64"/>
<path d="M92.7614 97.3562L91.4482 97.9712V108.968L92.7614 108.353V97.3562Z" fill="#455A64"/>
<path d="M89.6508 98.7859L88.8789 99.1373V110.134L89.6508 109.783V98.7859Z" fill="#455A64"/>
<path d="M87.2964 99.8474L85.7627 100.574V111.571L87.2964 110.844V99.8474Z" fill="#455A64"/>
<path d="M83.4171 101.653L82.6553 102.004V113.001L83.4171 112.65V101.653Z" fill="#455A64"/>
<path d="M81.173 102.659L79.5391 103.433V114.438L81.173 113.656V102.659Z" fill="#455A64"/>
<path d="M77.1837 104.52L76.4219 104.871V115.868L77.1837 115.517V104.52Z" fill="#455A64"/>
<path d="M75.4083 105.327L75.0273 105.502V116.499L75.4083 116.324V105.327Z" fill="#455A64"/>
<path d="M78.6055 103.92L78.2246 104.096V115.093L78.6055 114.917V103.92Z" fill="#455A64"/>
<path d="M84.8839 100.99L84.5029 101.166V112.163L84.8839 111.987V100.99Z" fill="#455A64"/>
<path d="M88.3213 99.4167L87.9404 99.5924V110.589L88.3213 110.414V99.4167Z" fill="#455A64"/>
<path d="M90.7852 98.3303L90.4043 98.506V109.503L90.7852 109.327V98.3303Z" fill="#455A64"/>
<path d="M94.1329 96.7095L93.752 96.8932V107.89L94.1329 107.714V96.7095Z" fill="#455A64"/>
<path d="M74.0655 105.949L73.3037 106.301V117.298L74.0655 116.946V105.949Z" fill="#455A64"/>
<path d="M47.9358 151.844V137.298H50.1304V149.955H56.7213V151.844H47.9358ZM72.522 143.598L70.5973 143.939C70.5168 143.693 70.389 143.458 70.2138 143.236C70.0434 143.013 69.8113 142.831 69.5178 142.689C69.2242 142.547 68.8573 142.476 68.4169 142.476C67.8156 142.476 67.3137 142.611 66.9113 142.881C66.5088 143.146 66.3076 143.489 66.3076 143.911C66.3076 144.275 66.4425 144.569 66.7124 144.791C66.9823 145.014 67.4179 145.196 68.0192 145.338L69.7522 145.736C70.7559 145.968 71.5041 146.325 71.9965 146.808C72.4889 147.291 72.7351 147.919 72.7351 148.69C72.7351 149.344 72.5457 149.926 72.1669 150.438C71.7929 150.944 71.2697 151.342 70.5973 151.631C69.9297 151.92 69.1556 152.064 68.2749 152.064C67.0533 152.064 66.0566 151.804 65.2848 151.283C64.513 150.757 64.0396 150.011 63.8644 149.045L65.9169 148.733C66.0448 149.268 66.3076 149.673 66.7053 149.947C67.103 150.217 67.6215 150.352 68.2607 150.352C68.9567 150.352 69.513 150.208 69.9297 149.919C70.3464 149.625 70.5547 149.268 70.5547 148.847C70.5547 148.506 70.4269 148.219 70.1712 147.987C69.9202 147.755 69.5344 147.58 69.0135 147.462L67.1669 147.057C66.1489 146.825 65.3961 146.455 64.9084 145.949C64.4255 145.442 64.184 144.801 64.184 144.024C64.184 143.38 64.3639 142.817 64.7238 142.334C65.0836 141.851 65.5808 141.474 66.2152 141.205C66.8497 140.93 67.5765 140.793 68.3956 140.793C69.5746 140.793 70.5026 141.048 71.1797 141.56C71.8568 142.066 72.3042 142.746 72.522 143.598ZM75.07 151.844V140.935H77.1936V151.844H75.07ZM76.1424 139.251C75.7731 139.251 75.4559 139.128 75.1907 138.882C74.9303 138.631 74.8001 138.333 74.8001 137.987C74.8001 137.637 74.9303 137.339 75.1907 137.092C75.4559 136.841 75.7731 136.716 76.1424 136.716C76.5117 136.716 76.8266 136.841 77.087 137.092C77.3522 137.339 77.4848 137.637 77.4848 137.987C77.4848 138.333 77.3522 138.631 77.087 138.882C76.8266 139.128 76.5117 139.251 76.1424 139.251ZM79.8232 151.844V150.388L85.7323 142.881V142.781H80.0149V140.935H88.3814V142.483L82.6996 149.898V149.997H88.5803V151.844H79.8232ZM95.4748 152.064C94.4 152.064 93.4743 151.834 92.6978 151.375C91.926 150.911 91.3295 150.26 90.9081 149.422C90.4914 148.579 90.2831 147.592 90.2831 146.46C90.2831 145.343 90.4914 144.358 90.9081 143.506C91.3295 142.653 91.9166 141.988 92.6694 141.51C93.427 141.032 94.3124 140.793 95.3257 140.793C95.9412 140.793 96.5378 140.894 97.1154 141.098C97.6931 141.302 98.2116 141.621 98.6708 142.057C99.1301 142.492 99.4923 143.058 99.7575 143.754C100.023 144.446 100.155 145.286 100.155 146.276V147.028H91.4833V145.438H98.0742C98.0742 144.879 97.9606 144.384 97.7333 143.953C97.5061 143.518 97.1865 143.174 96.7745 142.923C96.3673 142.672 95.8891 142.547 95.3399 142.547C94.7433 142.547 94.2224 142.694 93.7774 142.987C93.337 143.276 92.9961 143.655 92.7546 144.124C92.5179 144.588 92.3995 145.092 92.3995 145.636V146.879C92.3995 147.608 92.5274 148.229 92.7831 148.74C93.0435 149.251 93.4057 149.642 93.8697 149.912C94.3337 150.177 94.8759 150.31 95.4961 150.31C95.8986 150.31 96.2655 150.253 96.597 150.139C96.9284 150.021 97.2149 149.846 97.4563 149.614C97.6978 149.382 97.8825 149.095 98.0103 148.754L100.02 149.116C99.8593 149.708 99.5705 150.227 99.1538 150.672C98.7419 151.112 98.2234 151.455 97.5984 151.702C96.9781 151.943 96.2703 152.064 95.4748 152.064Z" fill="#5B5B5B"/>
<path d="M21.6547 176.355C20.7598 176.355 19.9596 176.194 19.2542 175.872C18.5487 175.546 17.99 175.094 17.578 174.516C17.1661 173.938 16.9483 173.273 16.9246 172.52H18.2669C18.2906 173.05 18.454 173.514 18.757 173.912C19.06 174.305 19.4625 174.613 19.9644 174.835C20.4663 175.053 21.025 175.162 21.6405 175.162C22.3129 175.162 22.9047 175.037 23.4161 174.786C23.9322 174.535 24.3346 174.192 24.6235 173.756C24.917 173.316 25.0638 172.818 25.0638 172.264C25.0638 171.677 24.9147 171.159 24.6164 170.709C24.3181 170.259 23.8896 169.909 23.3309 169.658C22.7769 169.407 22.114 169.281 21.3422 169.281H20.49V168.088H21.3422C21.972 168.088 22.5283 167.975 23.0113 167.747C23.4989 167.515 23.8825 167.191 24.1618 166.774C24.4412 166.358 24.5809 165.868 24.5809 165.304C24.5809 164.769 24.4601 164.298 24.2186 163.891C23.9772 163.484 23.6363 163.164 23.1959 162.932C22.7603 162.7 22.2513 162.584 21.6689 162.584C21.1055 162.584 20.5894 162.693 20.1206 162.911C19.6519 163.129 19.2731 163.436 18.9843 163.834C18.7002 164.232 18.5487 164.703 18.5297 165.247H17.2442C17.2632 164.49 17.4715 163.825 17.8692 163.252C18.2717 162.674 18.8043 162.224 19.4672 161.902C20.1348 161.576 20.8735 161.412 21.6831 161.412C22.5401 161.412 23.2811 161.587 23.9061 161.938C24.5311 162.288 25.0141 162.755 25.355 163.337C25.7007 163.915 25.8735 164.551 25.8735 165.247C25.8735 166.076 25.6486 166.786 25.1988 167.378C24.7489 167.965 24.1429 168.372 23.3806 168.6V168.692C24.3086 168.877 25.0378 169.289 25.5681 169.928C26.1031 170.562 26.3706 171.341 26.3706 172.264C26.3706 173.041 26.167 173.739 25.7598 174.36C25.3526 174.975 24.7939 175.463 24.0837 175.823C23.3782 176.178 22.5685 176.355 21.6547 176.355ZM34.0269 176.355C33.0042 176.355 32.1306 176.062 31.4061 175.475C30.6864 174.883 30.1325 174.028 29.7442 172.911C29.3607 171.793 29.1689 170.451 29.1689 168.884C29.1689 167.321 29.3607 165.984 29.7442 164.871C30.1325 163.754 30.6888 162.899 31.4132 162.307C32.1424 161.71 33.0136 161.412 34.0269 161.412C35.0401 161.412 35.909 161.71 36.6334 162.307C37.3626 162.899 37.9189 163.754 38.3025 164.871C38.6907 165.984 38.8848 167.321 38.8848 168.884C38.8848 170.451 38.6907 171.793 38.3025 172.911C37.9189 174.028 37.365 174.883 36.6405 175.475C35.9208 176.062 35.0496 176.355 34.0269 176.355ZM34.0269 175.162C35.149 175.162 36.025 174.615 36.6547 173.522C37.2845 172.423 37.5993 170.877 37.5993 168.884C37.5993 167.558 37.4549 166.426 37.1661 165.489C36.882 164.547 36.4724 163.827 35.9374 163.33C35.4071 162.833 34.7703 162.584 34.0269 162.584C32.9142 162.584 32.0406 163.138 31.4061 164.246C30.7717 165.349 30.4544 166.895 30.4544 168.884C30.4544 170.21 30.5965 171.341 30.8806 172.279C31.1694 173.216 31.579 173.931 32.1093 174.424C32.6443 174.916 33.2835 175.162 34.0269 175.162ZM50.2627 173.415L42.2513 165.404L43.0823 164.58L51.0936 172.591L50.2627 173.415ZM43.0823 173.415L42.2513 172.591L50.2627 164.58L51.0936 165.404L43.0823 173.415ZM59.5258 176.355C58.6309 176.355 57.8307 176.194 57.1252 175.872C56.4198 175.546 55.861 175.094 55.4491 174.516C55.0372 173.938 54.8194 173.273 54.7957 172.52H56.138C56.1617 173.05 56.3251 173.514 56.6281 173.912C56.9311 174.305 57.3336 174.613 57.8355 174.835C58.3374 175.053 58.8961 175.162 59.5116 175.162C60.184 175.162 60.7758 175.037 61.2872 174.786C61.8033 174.535 62.2057 174.192 62.4946 173.756C62.7881 173.316 62.9349 172.818 62.9349 172.264C62.9349 171.677 62.7858 171.159 62.4875 170.709C62.1892 170.259 61.7607 169.909 61.202 169.658C60.648 169.407 59.9851 169.281 59.2133 169.281H58.361V168.088H59.2133C59.8431 168.088 60.3994 167.975 60.8824 167.747C61.37 167.515 61.7536 167.191 62.0329 166.774C62.3123 166.358 62.452 165.868 62.452 165.304C62.452 164.769 62.3312 164.298 62.0897 163.891C61.8483 163.484 61.5074 163.164 61.067 162.932C60.6314 162.7 60.1224 162.584 59.54 162.584C58.9766 162.584 58.4605 162.693 57.9917 162.911C57.523 163.129 57.1442 163.436 56.8554 163.834C56.5713 164.232 56.4198 164.703 56.4008 165.247H55.1153C55.1342 164.49 55.3426 163.825 55.7403 163.252C56.1428 162.674 56.6754 162.224 57.3383 161.902C58.0059 161.576 58.7446 161.412 59.5542 161.412C60.4112 161.412 61.1522 161.587 61.7772 161.938C62.4022 162.288 62.8852 162.755 63.2261 163.337C63.5717 163.915 63.7446 164.551 63.7446 165.247C63.7446 166.076 63.5197 166.786 63.0699 167.378C62.62 167.965 62.014 168.372 61.2517 168.6V168.692C62.1797 168.877 62.9089 169.289 63.4392 169.928C63.9742 170.562 64.2417 171.341 64.2417 172.264C64.2417 173.041 64.0381 173.739 63.6309 174.36C63.2237 174.975 62.665 175.463 61.9548 175.823C61.2493 176.178 60.4396 176.355 59.5258 176.355ZM71.898 176.355C70.8752 176.355 70.0017 176.062 69.2772 175.475C68.5575 174.883 68.0036 174.028 67.6153 172.911C67.2318 171.793 67.04 170.451 67.04 168.884C67.04 167.321 67.2318 165.984 67.6153 164.871C68.0036 163.754 68.5599 162.899 69.2843 162.307C70.0135 161.71 70.8847 161.412 71.898 161.412C72.9112 161.412 73.7801 161.71 74.5045 162.307C75.2337 162.899 75.79 163.754 76.1735 164.871C76.5618 165.984 76.7559 167.321 76.7559 168.884C76.7559 170.451 76.5618 171.793 76.1735 172.911C75.79 174.028 75.236 174.883 74.5116 175.475C73.7919 176.062 72.9207 176.355 71.898 176.355ZM71.898 175.162C73.0201 175.162 73.8961 174.615 74.5258 173.522C75.1556 172.423 75.4704 170.877 75.4704 168.884C75.4704 167.558 75.326 166.426 75.0372 165.489C74.7531 164.547 74.3435 163.827 73.8085 163.33C73.2782 162.833 72.6413 162.584 71.898 162.584C70.7853 162.584 69.9117 163.138 69.2772 164.246C68.6428 165.349 68.3255 166.895 68.3255 168.884C68.3255 170.21 68.4676 171.341 68.7517 172.279C69.0405 173.216 69.4501 173.931 69.9804 174.424C70.5154 174.916 71.1546 175.162 71.898 175.162ZM88.1338 173.415L80.1224 165.404L80.9534 164.58L88.9647 172.591L88.1338 173.415ZM80.9534 173.415L80.1224 172.591L88.1338 164.58L88.9647 165.404L80.9534 173.415ZM97.3969 176.355C96.502 176.355 95.7018 176.194 94.9963 175.872C94.2908 175.546 93.7321 175.094 93.3202 174.516C92.9083 173.938 92.6905 173.273 92.6668 172.52H94.0091C94.0328 173.05 94.1962 173.514 94.4992 173.912C94.8022 174.305 95.2047 174.613 95.7066 174.835C96.2085 175.053 96.7672 175.162 97.3827 175.162C98.0551 175.162 98.6469 175.037 99.1583 174.786C99.6744 174.535 100.077 174.192 100.366 173.756C100.659 173.316 100.806 172.818 100.806 172.264C100.806 171.677 100.657 171.159 100.359 170.709C100.06 170.259 99.6318 169.909 99.073 169.658C98.5191 169.407 97.8562 169.281 97.0844 169.281H96.2321V168.088H97.0844C97.7141 168.088 98.2705 167.975 98.7534 167.747C99.2411 167.515 99.6247 167.191 99.904 166.774C100.183 166.358 100.323 165.868 100.323 165.304C100.323 164.769 100.202 164.298 99.9608 163.891C99.7194 163.484 99.3784 163.164 98.9381 162.932C98.5025 162.7 97.9935 162.584 97.4111 162.584C96.8477 162.584 96.3316 162.693 95.8628 162.911C95.3941 163.129 95.0153 163.436 94.7265 163.834C94.4424 164.232 94.2908 164.703 94.2719 165.247H92.9864C93.0053 164.49 93.2137 163.825 93.6114 163.252C94.0139 162.674 94.5465 162.224 95.2094 161.902C95.877 161.576 96.6157 161.412 97.4253 161.412C98.2823 161.412 99.0233 161.587 99.6483 161.938C100.273 162.288 100.756 162.755 101.097 163.337C101.443 163.915 101.616 164.551 101.616 165.247C101.616 166.076 101.391 166.786 100.941 167.378C100.491 167.965 99.8851 168.372 99.1228 168.6V168.692C100.051 168.877 100.78 169.289 101.31 169.928C101.845 170.562 102.113 171.341 102.113 172.264C102.113 173.041 101.909 173.739 101.502 174.36C101.095 174.975 100.536 175.463 99.8259 175.823C99.1204 176.178 98.3107 176.355 97.3969 176.355ZM109.769 176.355C108.746 176.355 107.873 176.062 107.148 175.475C106.429 174.883 105.875 174.028 105.486 172.911C105.103 171.793 104.911 170.451 104.911 168.884C104.911 167.321 105.103 165.984 105.486 164.871C105.875 163.754 106.431 162.899 107.155 162.307C107.885 161.71 108.756 161.412 109.769 161.412C110.782 161.412 111.651 161.71 112.376 162.307C113.105 162.899 113.661 163.754 114.045 164.871C114.433 165.984 114.627 167.321 114.627 168.884C114.627 170.451 114.433 171.793 114.045 172.911C113.661 174.028 113.107 174.883 112.383 175.475C111.663 176.062 110.792 176.355 109.769 176.355ZM109.769 175.162C110.891 175.162 111.767 174.615 112.397 173.522C113.027 172.423 113.342 170.877 113.342 168.884C113.342 167.558 113.197 166.426 112.908 165.489C112.624 164.547 112.215 163.827 111.68 163.33C111.149 162.833 110.512 162.584 109.769 162.584C108.656 162.584 107.783 163.138 107.148 164.246C106.514 165.349 106.197 166.895 106.197 168.884C106.197 170.21 106.339 171.341 106.623 172.279C106.912 173.216 107.321 173.931 107.851 174.424C108.386 174.916 109.026 175.162 109.769 175.162ZM123.207 176.156V165.247H124.478V176.156H123.207ZM123.853 163.372C123.592 163.372 123.37 163.285 123.185 163.11C123.001 162.93 122.908 162.714 122.908 162.463C122.908 162.212 123.001 161.999 123.185 161.824C123.37 161.644 123.592 161.554 123.853 161.554C124.113 161.554 124.336 161.644 124.52 161.824C124.705 161.999 124.797 162.212 124.797 162.463C124.797 162.714 124.705 162.93 124.52 163.11C124.336 163.285 124.113 163.372 123.853 163.372ZM129.085 169.338V176.156H127.821V165.247H129.05V166.959H129.164C129.419 166.4 129.817 165.953 130.357 165.617C130.901 165.276 131.574 165.105 132.374 165.105C133.108 165.105 133.752 165.259 134.306 165.567C134.864 165.87 135.298 166.317 135.605 166.909C135.918 167.501 136.074 168.228 136.074 169.09V176.156H134.81V169.168C134.81 168.273 134.559 167.565 134.057 167.044C133.56 166.523 132.892 166.263 132.054 166.263C131.481 166.263 130.972 166.386 130.527 166.632C130.082 166.879 129.729 167.234 129.469 167.698C129.213 168.157 129.085 168.704 129.085 169.338Z" fill="#4D4D4D"/>
</g>
<defs>
<clipPath id="clip0_101_1787">
<rect width="150" height="185" fill="white"/>
</clipPath>
</defs>
</svg>
