<svg width="150" height="185" viewBox="0 0 150 185" fill="none" xmlns="http://www.w3.org/2000/svg">
<g clip-path="url(#clip0_104_1788)">
<path d="M75.0693 119.049C115.937 119.049 149.066 111.214 149.066 101.549C149.066 91.8838 115.937 84.0488 75.0693 84.0488C34.2019 84.0488 1.07227 91.8838 1.07227 101.549C1.07227 111.214 34.2019 119.049 75.0693 119.049Z" fill="black" fill-opacity="0.11"/>
<path d="M46.3026 138.415H48.966L53.5967 149.722H53.7671L58.3978 138.415H61.0612V152.96H58.9731V142.435H58.8381L54.5484 152.939H52.8154L48.5256 142.428H48.3907V152.96H46.3026V138.415ZM77.5491 144.714L75.6244 145.055C75.5439 144.809 75.416 144.575 75.2408 144.352C75.0704 144.13 74.8384 143.947 74.5448 143.805C74.2513 143.663 73.8843 143.592 73.444 143.592C72.8426 143.592 72.3407 143.727 71.9383 143.997C71.5358 144.262 71.3346 144.606 71.3346 145.027C71.3346 145.392 71.4695 145.685 71.7394 145.908C72.0093 146.13 72.4449 146.312 73.0462 146.455L74.7792 146.852C75.783 147.084 76.5311 147.442 77.0235 147.925C77.5159 148.408 77.7621 149.035 77.7621 149.807C77.7621 150.46 77.5728 151.043 77.194 151.554C76.8199 152.061 76.2967 152.458 75.6244 152.747C74.9568 153.036 74.1826 153.18 73.3019 153.18C72.0803 153.18 71.0836 152.92 70.3119 152.399C69.5401 151.874 69.0666 151.128 68.8914 150.162L70.944 149.849C71.0718 150.384 71.3346 150.789 71.7323 151.064C72.13 151.334 72.6485 151.469 73.2877 151.469C73.9837 151.469 74.5401 151.324 74.9568 151.035C75.3734 150.742 75.5818 150.384 75.5818 149.963C75.5818 149.622 75.4539 149.336 75.1982 149.104C74.9473 148.872 74.5614 148.696 74.0406 148.578L72.194 148.173C71.176 147.941 70.4231 147.572 69.9354 147.065C69.4525 146.559 69.211 145.917 69.211 145.141C69.211 144.497 69.3909 143.933 69.7508 143.45C70.1106 142.967 70.6078 142.591 71.2423 142.321C71.8767 142.046 72.6035 141.909 73.4227 141.909C74.6016 141.909 75.5297 142.165 76.2068 142.676C76.8838 143.183 77.3313 143.862 77.5491 144.714ZM80.097 152.96V142.051H82.2206V152.96H80.097ZM81.1695 140.368C80.8001 140.368 80.4829 140.245 80.2178 139.999C79.9573 139.748 79.8271 139.449 79.8271 139.104C79.8271 138.753 79.9573 138.455 80.2178 138.209C80.4829 137.958 80.8001 137.832 81.1695 137.832C81.5388 137.832 81.8536 137.958 82.1141 138.209C82.3792 138.455 82.5118 138.753 82.5118 139.104C82.5118 139.449 82.3792 139.748 82.1141 139.999C81.8536 140.245 81.5388 140.368 81.1695 140.368ZM84.8502 152.96V151.504L90.7593 143.997V143.898H85.042V142.051H93.4085V143.599L87.7266 151.014V151.114H93.6073V152.96H84.8502ZM100.502 153.18C99.427 153.18 98.5014 152.951 97.7249 152.491C96.9531 152.027 96.3565 151.376 95.9351 150.538C95.5184 149.696 95.3101 148.708 95.3101 147.577C95.3101 146.459 95.5184 145.474 95.9351 144.622C96.3565 143.77 96.9436 143.105 97.6965 142.626C98.454 142.148 99.3394 141.909 100.353 141.909C100.968 141.909 101.565 142.011 102.142 142.214C102.72 142.418 103.239 142.738 103.698 143.173C104.157 143.609 104.519 144.175 104.785 144.871C105.05 145.562 105.182 146.402 105.182 147.392V148.145H96.5104V146.554H103.101C103.101 145.995 102.988 145.5 102.76 145.07C102.533 144.634 102.213 144.291 101.802 144.04C101.394 143.789 100.916 143.663 100.367 143.663C99.7703 143.663 99.2495 143.81 98.8044 144.104C98.3641 144.392 98.0232 144.771 97.7817 145.24C97.5449 145.704 97.4266 146.208 97.4266 146.753V147.996C97.4266 148.725 97.5544 149.345 97.8101 149.857C98.0705 150.368 98.4327 150.759 98.8967 151.028C99.3608 151.294 99.9029 151.426 100.523 151.426C100.926 151.426 101.293 151.369 101.624 151.256C101.955 151.137 102.242 150.962 102.483 150.73C102.725 150.498 102.91 150.212 103.037 149.871L105.047 150.233C104.886 150.825 104.597 151.343 104.181 151.788C103.769 152.229 103.25 152.572 102.625 152.818C102.005 153.06 101.297 153.18 100.502 153.18Z" fill="#5B5B5B"/>
<path d="M16.69 176.662V175.689L21.4414 170.348C22.0617 169.647 22.5612 169.048 22.94 168.551C23.3188 168.054 23.5934 167.594 23.7638 167.173C23.939 166.752 24.0266 166.314 24.0266 165.859C24.0266 165.305 23.8964 164.822 23.636 164.41C23.3803 163.994 23.0276 163.669 22.5778 163.437C22.1279 163.205 21.6213 163.089 21.0579 163.089C20.4613 163.089 19.9381 163.217 19.4883 163.473C19.0432 163.728 18.6975 164.079 18.4513 164.524C18.2051 164.969 18.082 165.48 18.082 166.058H16.8107C16.8107 165.253 16.9954 164.54 17.3647 163.92C17.7387 163.295 18.2477 162.805 18.8917 162.45C19.5404 162.095 20.2743 161.917 21.0934 161.917C21.903 161.917 22.6227 162.092 23.2525 162.443C23.8822 162.789 24.377 163.26 24.7368 163.856C25.0967 164.453 25.2766 165.12 25.2766 165.859C25.2766 166.394 25.1819 166.913 24.9925 167.414C24.8079 167.916 24.4883 168.475 24.0337 169.091C23.5792 169.706 22.9494 170.459 22.1445 171.349L18.5366 175.376V175.468H25.7312V176.662H16.69ZM33.4141 176.86C32.3913 176.86 31.5177 176.567 30.7933 175.98C30.0736 175.388 29.5196 174.533 29.1314 173.416C28.7479 172.298 28.5561 170.956 28.5561 169.389C28.5561 167.826 28.7479 166.489 29.1314 165.376C29.5196 164.259 30.076 163.404 30.8004 162.812C31.5296 162.216 32.4008 161.917 33.4141 161.917C34.4273 161.917 35.2962 162.216 36.0206 162.812C36.7498 163.404 37.3061 164.259 37.6896 165.376C38.0779 166.489 38.272 167.826 38.272 169.389C38.272 170.956 38.0779 172.298 37.6896 173.416C37.3061 174.533 36.7521 175.388 36.0277 175.98C35.308 176.567 34.4368 176.86 33.4141 176.86ZM33.4141 175.667C34.5362 175.667 35.4122 175.12 36.0419 174.027C36.6716 172.928 36.9865 171.382 36.9865 169.389C36.9865 168.063 36.8421 166.932 36.5533 165.994C36.2692 165.052 35.8596 164.332 35.3246 163.835C34.7943 163.338 34.1574 163.089 33.4141 163.089C32.3014 163.089 31.4278 163.643 30.7933 164.751C30.1588 165.854 29.8416 167.4 29.8416 169.389C29.8416 170.715 29.9837 171.846 30.2677 172.784C30.5566 173.721 30.9661 174.436 31.4964 174.929C32.0315 175.421 32.6707 175.667 33.4141 175.667ZM49.6498 173.92L41.6385 165.909L42.4694 165.085L50.4808 173.096L49.6498 173.92ZM42.4694 173.92L41.6385 173.096L49.6498 165.085L50.4808 165.909L42.4694 173.92ZM54.19 176.662V175.689L58.9414 170.348C59.5617 169.647 60.0612 169.048 60.44 168.551C60.8188 168.054 61.0934 167.594 61.2638 167.173C61.439 166.752 61.5266 166.314 61.5266 165.859C61.5266 165.305 61.3964 164.822 61.136 164.41C60.8803 163.994 60.5276 163.669 60.0778 163.437C59.6279 163.205 59.1213 163.089 58.5579 163.089C57.9613 163.089 57.4381 163.217 56.9883 163.473C56.5432 163.728 56.1975 164.079 55.9513 164.524C55.7051 164.969 55.582 165.48 55.582 166.058H54.3107C54.3107 165.253 54.4954 164.54 54.8647 163.92C55.2387 163.295 55.7477 162.805 56.3917 162.45C57.0404 162.095 57.7743 161.917 58.5934 161.917C59.403 161.917 60.1227 162.092 60.7525 162.443C61.3822 162.789 61.877 163.26 62.2368 163.856C62.5967 164.453 62.7766 165.12 62.7766 165.859C62.7766 166.394 62.6819 166.913 62.4925 167.414C62.3079 167.916 61.9883 168.475 61.5337 169.091C61.0792 169.706 60.4494 170.459 59.6445 171.349L56.0366 175.376V175.468H63.2312V176.662H54.19ZM70.9141 176.86C69.8913 176.86 69.0177 176.567 68.2933 175.98C67.5736 175.388 67.0196 174.533 66.6314 173.416C66.2479 172.298 66.0561 170.956 66.0561 169.389C66.0561 167.826 66.2479 166.489 66.6314 165.376C67.0196 164.259 67.576 163.404 68.3004 162.812C69.0296 162.216 69.9008 161.917 70.9141 161.917C71.9273 161.917 72.7962 162.216 73.5206 162.812C74.2498 163.404 74.8061 164.259 75.1896 165.376C75.5779 166.489 75.772 167.826 75.772 169.389C75.772 170.956 75.5779 172.298 75.1896 173.416C74.8061 174.533 74.2521 175.388 73.5277 175.98C72.808 176.567 71.9368 176.86 70.9141 176.86ZM70.9141 175.667C72.0362 175.667 72.9122 175.12 73.5419 174.027C74.1716 172.928 74.4865 171.382 74.4865 169.389C74.4865 168.063 74.3421 166.932 74.0533 165.994C73.7692 165.052 73.3596 164.332 72.8246 163.835C72.2943 163.338 71.6574 163.089 70.9141 163.089C69.8014 163.089 68.9278 163.643 68.2933 164.751C67.6588 165.854 67.3416 167.4 67.3416 169.389C67.3416 170.715 67.4837 171.846 67.7677 172.784C68.0566 173.721 68.4661 174.436 68.9964 174.929C69.5315 175.421 70.1707 175.667 70.9141 175.667ZM87.1498 173.92L79.1385 165.909L79.9694 165.085L87.9808 173.096L87.1498 173.92ZM79.9694 173.92L79.1385 173.096L87.1498 165.085L87.9808 165.909L79.9694 173.92ZM91.69 176.662V175.689L96.4414 170.348C97.0617 169.647 97.5612 169.048 97.94 168.551C98.3188 168.054 98.5934 167.594 98.7638 167.173C98.939 166.752 99.0266 166.314 99.0266 165.859C99.0266 165.305 98.8964 164.822 98.636 164.41C98.3803 163.994 98.0276 163.669 97.5778 163.437C97.1279 163.205 96.6213 163.089 96.0579 163.089C95.4613 163.089 94.9381 163.217 94.4883 163.473C94.0432 163.728 93.6975 164.079 93.4513 164.524C93.2051 164.969 93.082 165.48 93.082 166.058H91.8107C91.8107 165.253 91.9954 164.54 92.3647 163.92C92.7387 163.295 93.2477 162.805 93.8917 162.45C94.5404 162.095 95.2743 161.917 96.0934 161.917C96.903 161.917 97.6227 162.092 98.2525 162.443C98.8822 162.789 99.377 163.26 99.7368 163.856C100.097 164.453 100.277 165.12 100.277 165.859C100.277 166.394 100.182 166.913 99.9925 167.414C99.8079 167.916 99.4883 168.475 99.0337 169.091C98.5792 169.706 97.9494 170.459 97.1445 171.349L93.5366 175.376V175.468H100.731V176.662H91.69ZM108.414 176.86C107.391 176.86 106.518 176.567 105.793 175.98C105.074 175.388 104.52 174.533 104.131 173.416C103.748 172.298 103.556 170.956 103.556 169.389C103.556 167.826 103.748 166.489 104.131 165.376C104.52 164.259 105.076 163.404 105.8 162.812C106.53 162.216 107.401 161.917 108.414 161.917C109.427 161.917 110.296 162.216 111.021 162.812C111.75 163.404 112.306 164.259 112.69 165.376C113.078 166.489 113.272 167.826 113.272 169.389C113.272 170.956 113.078 172.298 112.69 173.416C112.306 174.533 111.752 175.388 111.028 175.98C110.308 176.567 109.437 176.86 108.414 176.86ZM108.414 175.667C109.536 175.667 110.412 175.12 111.042 174.027C111.672 172.928 111.986 171.382 111.986 169.389C111.986 168.063 111.842 166.932 111.553 165.994C111.269 165.052 110.86 164.332 110.325 163.835C109.794 163.338 109.157 163.089 108.414 163.089C107.301 163.089 106.428 163.643 105.793 164.751C105.159 165.854 104.842 167.4 104.842 169.389C104.842 170.715 104.984 171.846 105.268 172.784C105.557 173.721 105.966 174.436 106.496 174.929C107.031 175.421 107.671 175.667 108.414 175.667ZM121.852 176.662V165.753H123.123V176.662H121.852ZM122.498 163.878C122.237 163.878 122.015 163.79 121.83 163.615C121.646 163.435 121.553 163.219 121.553 162.968C121.553 162.717 121.646 162.504 121.83 162.329C122.015 162.149 122.237 162.059 122.498 162.059C122.758 162.059 122.981 162.149 123.165 162.329C123.35 162.504 123.442 162.717 123.442 162.968C123.442 163.219 123.35 163.435 123.165 163.615C122.981 163.79 122.758 163.878 122.498 163.878ZM127.73 169.843V176.662H126.466V165.753H127.695V167.464H127.809C128.064 166.905 128.462 166.458 129.002 166.122C129.546 165.781 130.219 165.61 131.019 165.61C131.753 165.61 132.397 165.764 132.951 166.072C133.509 166.375 133.943 166.823 134.25 167.414C134.563 168.006 134.719 168.733 134.719 169.595V176.662H133.455V169.673C133.455 168.778 133.204 168.07 132.702 167.549C132.205 167.029 131.537 166.768 130.699 166.768C130.126 166.768 129.617 166.891 129.172 167.137C128.727 167.384 128.374 167.739 128.114 168.203C127.858 168.662 127.73 169.209 127.73 169.843Z" fill="#4D4D4D"/>
<path opacity="0.1" d="M130.799 88.4951L70.8264 124.83L22.6395 98.4893L82.7174 62.166L130.799 88.4951Z" fill="black"/>
<path d="M123.999 72.3841L77.4828 47.231L24.8035 79.3377L71.3193 104.491L123.999 72.3841Z" fill="#E0B699"/>
<path opacity="0.1" d="M123.988 72.3843L77.472 47.2313L24.7927 79.3379L71.3085 104.491L123.988 72.3843Z" fill="#E0B699"/>
<path d="M99.5678 62.7317L84.6343 71.8137C84.3626 71.983 84.4454 72.2743 84.8145 72.4771L102.189 81.8995C102.365 81.9972 102.561 82.0536 102.762 82.0647C102.964 82.0757 103.165 82.041 103.351 81.9632L118.29 72.8498C118.562 72.6868 118.479 72.3892 118.11 72.1865L100.73 62.7954C100.554 62.6964 100.358 62.6391 100.156 62.6281C99.9548 62.617 99.7534 62.6525 99.5678 62.7317Z" fill="#FAFAFA"/>
<path d="M107.61 77.3266C107.679 77.3241 107.744 77.2995 107.797 77.2564C107.85 77.2133 107.888 77.1541 107.904 77.0879C107.92 77.0217 107.914 76.9521 107.886 76.8897C107.859 76.8273 107.812 76.7755 107.752 76.7423L93.3303 68.9419C93.2942 68.9171 93.2532 68.9002 93.2101 68.8922C93.167 68.8841 93.1226 68.8852 93.0799 68.8953C93.0373 68.9054 92.9972 68.9243 92.9623 68.9508C92.9274 68.9773 92.8985 69.0108 92.8774 69.0491C92.8564 69.0874 92.8436 69.1297 92.84 69.1732C92.8364 69.2167 92.842 69.2605 92.8564 69.3017C92.8708 69.343 92.8938 69.3807 92.9238 69.4125C92.9539 69.4444 92.9903 69.4696 93.0307 69.4865L107.452 77.287C107.5 77.3147 107.555 77.3284 107.61 77.3266Z" fill="#E0E0E0"/>
<path d="M106.053 78.2657C106.122 78.2632 106.187 78.2386 106.24 78.1955C106.293 78.1524 106.331 78.0932 106.347 78.027C106.363 77.9608 106.357 77.8912 106.329 77.8288C106.302 77.7664 106.255 77.7146 106.195 77.6814L91.7732 69.8809C91.7005 69.8419 91.6153 69.8329 91.5361 69.856C91.4568 69.879 91.3898 69.9323 91.3498 70.0042C91.3102 70.0775 91.301 70.1633 91.3242 70.2432C91.3474 70.3231 91.4011 70.3908 91.4738 70.4318L105.895 78.226C105.943 78.2537 105.998 78.2675 106.053 78.2657Z" fill="#E0E0E0"/>
<path d="M104.5 79.205C104.569 79.2026 104.635 79.1779 104.688 79.1348C104.741 79.0917 104.778 79.0326 104.794 78.9664C104.81 78.9002 104.804 78.8306 104.776 78.7682C104.749 78.7058 104.702 78.654 104.642 78.6208L90.2205 70.8203C90.1471 70.7808 90.0609 70.772 89.9809 70.7957C89.901 70.8194 89.8337 70.8738 89.794 70.9468C89.7543 71.0199 89.7454 71.1056 89.7692 71.1852C89.793 71.2648 89.8476 71.3317 89.921 71.3712L104.343 79.1717C104.392 79.1953 104.446 79.2067 104.5 79.205Z" fill="#E0E0E0"/>
<path d="M102.947 80.1504C103.001 80.1486 103.055 80.1327 103.101 80.1041C103.148 80.0755 103.186 80.0353 103.212 79.9874C103.252 79.9142 103.261 79.8284 103.238 79.7485C103.215 79.6686 103.161 79.6008 103.088 79.5598L88.6668 71.7656C88.6306 71.7409 88.5897 71.7239 88.5466 71.7159C88.5034 71.7079 88.4591 71.709 88.4164 71.7191C88.3737 71.7292 88.3337 71.7481 88.2988 71.7746C88.2639 71.8011 88.235 71.8346 88.2139 71.8729C88.1928 71.9112 88.1801 71.9535 88.1765 71.997C88.1728 72.0405 88.1784 72.0843 88.1929 72.1255C88.2073 72.1667 88.2303 72.2045 88.2603 72.2363C88.2903 72.2681 88.3268 72.2933 88.3672 72.3103L102.789 80.1107C102.837 80.1384 102.891 80.1522 102.947 80.1504Z" fill="#E0E0E0"/>
<path d="M116.843 72.4935L116.283 72.1895L109.904 76.075L110.47 76.3788L116.843 72.4935Z" fill="#455A64"/>
<path d="M114.566 71.26L113.586 70.7358L107.213 74.6274L108.186 75.1455L114.566 71.26Z" fill="#455A64"/>
<path d="M112.281 70.0203L111.715 69.7165L105.341 73.6081L105.901 73.9059L112.281 70.0203Z" fill="#455A64"/>
<path d="M110.571 69.0845L109.439 68.4831L103.059 72.3686L104.191 72.97L110.571 69.0845Z" fill="#455A64"/>
<path d="M107.714 67.5531L107.154 67.2491L100.775 71.1346L101.335 71.4386L107.714 67.5531Z" fill="#455A64"/>
<path d="M106.086 66.6526L104.871 66.0096L98.4916 69.9014L99.7063 70.5443L106.086 66.6526Z" fill="#455A64"/>
<path d="M103.148 65.0799L102.588 64.7759L96.2085 68.6677L96.7682 68.9654L103.148 65.0799Z" fill="#455A64"/>
<path d="M101.855 64.3708L101.568 64.2221L95.1951 68.1075L95.4751 68.2626L101.855 64.3708Z" fill="#455A64"/>
<path d="M104.159 65.6661L103.879 65.511L97.4998 69.3965L97.7798 69.5516L104.159 65.6661Z" fill="#455A64"/>
<path d="M108.783 68.1378L108.497 67.9829L102.124 71.8745L102.404 72.0233L108.783 68.1378Z" fill="#455A64"/>
<path d="M111.296 69.5023L111.01 69.3474L104.637 73.239L104.917 73.3878L111.296 69.5023Z" fill="#455A64"/>
<path d="M113.072 70.4994L112.792 70.3443L106.418 74.2359L106.698 74.3847L113.072 70.4994Z" fill="#455A64"/>
<path d="M115.57 71.7959L115.291 71.647L108.917 75.5324L109.197 75.6812L115.57 71.7959Z" fill="#455A64"/>
<path d="M100.863 63.847L100.303 63.543L93.9232 67.4285L94.4893 67.7324L100.863 63.847Z" fill="#455A64"/>
<path d="M71.7717 122.054L124.451 89.9468L123.998 72.3838L71.3188 104.49L71.7717 122.054Z" fill="#D3976E"/>
<g opacity="0.2">
<path d="M71.7727 122.054L124.452 89.9468L123.999 72.3838L71.3197 104.49L71.7727 122.054Z" fill="#BE8863"/>
</g>
<path d="M71.7719 122.054L25.2559 96.8945L24.8031 79.3377L71.3189 104.491L71.7719 122.054Z" fill="#D3976E"/>
<path opacity="0.3" d="M71.7719 122.054L25.2559 96.8945L24.8031 79.3377L71.3189 104.491L71.7719 122.054Z" fill="#89796F"/>
<path d="M46.9978 91.2893L99.6771 59.1826L95.9173 57.1444L43.2317 89.2512L46.9978 91.2893Z" fill="#455A64"/>
<path d="M92.2121 103.484C92.609 103.192 92.9303 102.81 93.1491 102.37C93.368 101.93 93.4781 101.445 93.4704 100.954L93.3721 97.1418L90.7234 98.7835L90.547 98.7568L90.5535 99.0064L90.6415 102.419C90.6261 102.642 90.6694 102.865 90.767 103.066C90.8646 103.267 91.0131 103.439 91.198 103.566C91.3278 103.635 91.4738 103.668 91.6207 103.661C91.8302 103.655 92.0343 103.594 92.2121 103.484ZM91.8053 99.3861L92.0403 100.716L93.0308 100.691L93.038 100.971C93.0393 101.386 92.9449 101.796 92.762 102.168C92.5791 102.541 92.3126 102.867 91.9832 103.121C91.9021 103.182 91.8066 103.222 91.7058 103.235C91.605 103.249 91.5025 103.236 91.4081 103.199C91.2903 103.108 91.1979 102.989 91.1394 102.853C91.081 102.717 91.0586 102.568 91.0743 102.42L90.9929 99.2635L91.8053 99.3861ZM92.1782 99.0082L91.3784 98.8852L92.959 97.9079L93.0192 100.241L92.3923 100.258L92.1782 99.0082Z" fill="#455A64"/>
<path d="M92.1804 106.381C92.1233 106.383 92.0679 106.362 92.0259 106.323C91.9839 106.285 91.9586 106.231 91.9555 106.175L91.8817 103.311C91.8802 103.253 91.9019 103.197 91.942 103.155C91.9821 103.113 92.0373 103.088 92.0955 103.087C92.1526 103.087 92.2074 103.109 92.2483 103.149C92.2891 103.189 92.3128 103.243 92.3142 103.3L92.3881 106.163C92.3895 106.22 92.3685 106.274 92.3295 106.315C92.2906 106.356 92.237 106.38 92.1804 106.381Z" fill="#455A64"/>
<path d="M90.9463 107.162C90.9076 107.164 90.8691 107.155 90.8353 107.136C90.8016 107.117 90.7739 107.089 90.7553 107.055C90.7267 107.006 90.7183 106.947 90.7321 106.892C90.7459 106.837 90.7808 106.789 90.8293 106.759L93.2997 105.26C93.324 105.245 93.351 105.235 93.3791 105.23C93.4073 105.226 93.4361 105.227 93.4637 105.234C93.4914 105.241 93.5174 105.253 93.5402 105.27C93.563 105.287 93.5821 105.309 93.5965 105.333C93.6116 105.356 93.6219 105.382 93.6266 105.41C93.6314 105.437 93.6306 105.465 93.6243 105.492C93.6179 105.519 93.6062 105.544 93.5898 105.567C93.5734 105.589 93.5526 105.608 93.5286 105.622L91.0583 107.128C91.0249 107.15 90.9861 107.161 90.9463 107.162Z" fill="#455A64"/>
<path d="M83.5563 111.761C83.475 111.761 83.3948 111.742 83.3228 111.704C83.2343 111.652 83.1617 111.577 83.1129 111.487C83.0642 111.397 83.0411 111.296 83.0461 111.193L83.031 110.607C83.0312 110.55 83.0536 110.495 83.0935 110.455C83.1335 110.414 83.1878 110.391 83.2449 110.389C83.3015 110.388 83.3562 110.409 83.3972 110.447C83.4382 110.486 83.4621 110.539 83.4635 110.596L83.4787 111.182C83.4809 111.27 83.4822 111.319 83.5262 111.325C83.5703 111.33 83.5889 111.323 83.6632 111.284C83.7932 111.157 83.8942 111.005 83.9592 110.836C84.0242 110.667 84.0515 110.486 84.0394 110.306L83.9411 106.494C83.9397 106.438 83.9607 106.383 83.9997 106.342C84.0386 106.302 84.0922 106.278 84.1488 106.276C84.2059 106.275 84.2613 106.296 84.3033 106.334C84.3453 106.373 84.3706 106.426 84.3736 106.483L84.472 110.295C84.4874 110.552 84.4419 110.808 84.339 111.044C84.236 111.28 84.0787 111.489 83.8797 111.653C83.7825 111.715 83.6714 111.752 83.5563 111.761Z" fill="#455A64"/>
<path d="M86.8449 105.045L86.8417 104.921C86.8987 104.551 86.8399 104.173 86.6732 103.839C86.5066 103.504 86.2402 103.228 85.9105 103.05C85.5807 102.871 85.2037 102.798 84.8307 102.841C84.4577 102.884 84.107 103.04 83.8263 103.288C83.037 103.83 82.3871 104.549 81.9292 105.387C81.4713 106.225 81.2183 107.159 81.1907 108.113L81.2003 108.487L86.8449 105.045ZM85.7054 103.427C85.9308 103.574 86.1154 103.775 86.2421 104.012C86.3688 104.248 86.4336 104.513 86.4304 104.781L81.6565 107.689C81.7383 106.88 81.9956 106.098 82.4108 105.397C82.8259 104.697 83.389 104.094 84.0609 103.631C84.3788 103.418 84.7479 103.292 85.1305 103.267C85.3329 103.269 85.5312 103.324 85.7054 103.427Z" fill="#455A64"/>
<path d="M75.0175 116.795C74.9604 116.796 74.9049 116.775 74.8629 116.737C74.8209 116.698 74.7957 116.645 74.7926 116.588L74.6042 109.282C74.6043 109.225 74.6268 109.171 74.6667 109.13C74.7067 109.089 74.761 109.066 74.8181 109.064C74.8746 109.063 74.9294 109.084 74.9704 109.123C75.0114 109.161 75.0353 109.215 75.0367 109.271L75.2252 116.577C75.2266 116.633 75.2055 116.688 75.1666 116.729C75.1277 116.769 75.074 116.793 75.0175 116.795Z" fill="#455A64"/>
<path d="M74.2325 110.958C74.2058 110.965 74.178 110.965 74.151 110.96C74.1241 110.951 74.0995 110.936 74.0786 110.917C74.0578 110.897 74.0412 110.874 74.0299 110.848C74.0186 110.822 74.0129 110.793 74.0131 110.765C74.0133 110.737 74.0193 110.709 74.0309 110.683L74.7503 108.903L75.6344 109.861C75.6757 109.901 75.6996 109.955 75.7011 110.012C75.7026 110.069 75.6814 110.125 75.6423 110.167C75.6034 110.207 75.5498 110.231 75.4934 110.232C75.437 110.234 75.3824 110.213 75.3414 110.174L74.9219 109.717L74.4561 110.871C74.4308 110.905 74.3964 110.931 74.3569 110.947C74.3173 110.962 74.2742 110.966 74.2325 110.958Z" fill="#455A64"/>
<path d="M76.9823 115.639C76.9535 115.639 76.9248 115.634 76.8979 115.624C76.871 115.614 76.8465 115.598 76.8256 115.579C76.8047 115.559 76.7879 115.535 76.7762 115.509C76.7645 115.483 76.7581 115.455 76.7573 115.426L76.569 108.126C76.5692 108.069 76.5916 108.015 76.6316 107.974C76.6715 107.933 76.7258 107.91 76.783 107.908C76.8395 107.907 76.8943 107.928 76.9353 107.967C76.9763 108.005 77.0001 108.059 77.0016 108.115L77.1898 115.415C77.1913 115.472 77.1705 115.527 77.1317 115.569C77.093 115.61 77.0394 115.635 76.9823 115.639Z" fill="#455A64"/>
<path d="M76.1966 109.778C76.1699 109.784 76.1421 109.785 76.1151 109.78C76.0882 109.771 76.0636 109.756 76.0427 109.736C76.0219 109.717 76.0053 109.693 75.994 109.667C75.9828 109.641 75.977 109.613 75.9772 109.585C75.9774 109.556 75.9835 109.528 75.9951 109.502L76.7143 107.717L77.5985 108.68C77.6379 108.72 77.6607 108.773 77.6621 108.829C77.6635 108.884 77.6436 108.938 77.6063 108.98C77.5874 109.001 77.5645 109.018 77.539 109.029C77.5134 109.041 77.4856 109.048 77.4575 109.048C77.4293 109.049 77.4013 109.044 77.3751 109.034C77.349 109.023 77.3252 109.008 77.3054 108.988L76.8858 108.53L76.4199 109.679C76.3962 109.715 76.3625 109.743 76.3229 109.761C76.2833 109.779 76.2395 109.784 76.1966 109.778Z" fill="#455A64"/>
<path d="M106.942 86.9834L107.186 96.4356C107.195 96.7975 107.456 96.9406 107.765 96.7516L122.377 87.8464C122.542 87.7352 122.678 87.5864 122.774 87.4124C122.87 87.2384 122.923 87.0441 122.928 86.8458L122.684 77.3873C122.675 77.0254 122.414 76.8823 122.099 77.0715L107.5 85.9763C107.333 86.0874 107.195 86.2369 107.098 86.4122C107.001 86.5875 106.947 86.7833 106.942 86.9834Z" fill="#FAFAFA"/>
<path d="M121.783 78.4346L121.314 78.7214L121.535 87.3126L122.005 87.0258L121.783 78.4346Z" fill="#455A64"/>
<path d="M119.868 79.6079L119.053 80.1097L119.275 88.7009L120.09 88.1929L119.868 79.6079Z" fill="#455A64"/>
<path d="M117.947 80.7747L117.472 81.0616L117.693 89.6529L118.169 89.3659L117.947 80.7747Z" fill="#455A64"/>
<path d="M116.495 81.6426L115.557 82.2287L115.778 90.8199L116.717 90.2338L116.495 81.6426Z" fill="#455A64"/>
<path d="M114.106 83.1152L113.637 83.402L113.859 91.9933L114.328 91.7065L114.106 83.1152Z" fill="#455A64"/>
<path d="M112.723 83.9375L111.716 84.569L111.938 93.1603L112.944 92.5287L112.723 83.9375Z" fill="#455A64"/>
<path d="M110.266 85.4492L109.796 85.7423L110.018 94.3335L110.487 94.0404L110.266 85.4492Z" fill="#455A64"/>
<path d="M109.172 86.1082L108.937 86.2516L109.159 94.8428L109.393 94.6994L109.172 86.1082Z" fill="#455A64"/>
<path d="M111.143 84.9585L110.908 85.1081L111.129 93.6931L111.364 93.5497L111.143 84.9585Z" fill="#455A64"/>
<path d="M115.009 82.574L114.774 82.7174L114.996 91.3086L115.23 91.1652L115.009 82.574Z" fill="#455A64"/>
<path d="M117.126 81.2893L116.891 81.4327L117.113 90.0239L117.348 89.8805L117.126 81.2893Z" fill="#455A64"/>
<path d="M118.646 80.4009L118.412 80.5443L118.633 89.1355L118.868 88.9921L118.646 80.4009Z" fill="#455A64"/>
<path d="M120.707 79.0806L120.472 79.224L120.694 87.8152L120.929 87.6718L120.707 79.0806Z" fill="#455A64"/>
<path d="M108.351 86.6223L107.875 86.9093L108.097 95.5005L108.572 95.2135L108.351 86.6223Z" fill="#455A64"/>
</g>
<defs>
<clipPath id="clip0_104_1788">
<rect width="150" height="185" fill="white"/>
</clipPath>
</defs>
</svg>
