<svg width="150" height="185" viewBox="0 0 150 185" fill="none" xmlns="http://www.w3.org/2000/svg">
<path d="M75.0693 119.049C115.937 119.049 149.066 111.214 149.066 101.549C149.066 91.8838 115.937 84.0488 75.0693 84.0488C34.2019 84.0488 1.07227 91.8838 1.07227 101.549C1.07227 111.214 34.2019 119.049 75.0693 119.049Z" fill="black" fill-opacity="0.11"/>
<path d="M56.7749 140.236C56.6992 139.564 56.3867 139.043 55.8374 138.674C55.2882 138.299 54.5969 138.112 53.7636 138.112C53.167 138.112 52.6509 138.207 52.2153 138.397C51.7797 138.581 51.4411 138.837 51.1996 139.164C50.9629 139.486 50.8445 139.852 50.8445 140.264C50.8445 140.61 50.925 140.908 51.086 141.159C51.2517 141.41 51.4672 141.621 51.7323 141.791C52.0022 141.957 52.291 142.097 52.5988 142.21C52.9066 142.319 53.2025 142.409 53.4866 142.48L54.907 142.85C55.3711 142.963 55.8469 143.117 56.3346 143.311C56.8223 143.505 57.2745 143.761 57.6911 144.078C58.1078 144.396 58.444 144.789 58.6996 145.257C58.9601 145.726 59.0903 146.287 59.0903 146.941C59.0903 147.764 58.8772 148.496 58.4511 149.135C58.0297 149.774 57.4165 150.279 56.6116 150.648C55.8114 151.017 54.8431 151.202 53.7068 151.202C52.6177 151.202 51.6755 151.029 50.88 150.683C50.0846 150.338 49.462 149.848 49.0121 149.213C48.5623 148.574 48.3138 147.817 48.2664 146.941H50.4681C50.5107 147.466 50.6812 147.904 50.9795 148.254C51.2825 148.6 51.6684 148.858 52.1371 149.029C52.6106 149.194 53.1291 149.277 53.6925 149.277C54.3128 149.277 54.8644 149.18 55.3474 148.986C55.8351 148.787 56.2186 148.513 56.4979 148.162C56.7773 147.807 56.917 147.393 56.917 146.919C56.917 146.488 56.7939 146.136 56.5477 145.861C56.3062 145.586 55.9771 145.359 55.5604 145.179C55.1485 144.999 54.6821 144.841 54.1613 144.703L52.4425 144.235C51.2778 143.917 50.3545 143.451 49.6727 142.835C48.9956 142.22 48.657 141.406 48.657 140.392C48.657 139.554 48.8843 138.823 49.3389 138.198C49.7934 137.573 50.4089 137.087 51.1854 136.742C51.962 136.391 52.8379 136.216 53.8133 136.216C54.7981 136.216 55.667 136.389 56.4198 136.735C57.1774 137.08 57.774 137.556 58.2096 138.162C58.6452 138.763 58.8725 139.455 58.8914 140.236H56.7749ZM75.01 142.715L73.0853 143.056C73.0048 142.809 72.877 142.575 72.7018 142.352C72.5313 142.13 72.2993 141.948 72.0058 141.806C71.7122 141.664 71.3452 141.593 70.9049 141.593C70.3036 141.593 69.8017 141.727 69.3992 141.997C68.9968 142.263 68.7955 142.606 68.7955 143.027C68.7955 143.392 68.9305 143.685 69.2004 143.908C69.4702 144.13 69.9059 144.313 70.5072 144.455L72.2401 144.852C73.2439 145.085 73.992 145.442 74.4845 145.925C74.9769 146.408 75.2231 147.035 75.2231 147.807C75.2231 148.46 75.0337 149.043 74.6549 149.554C74.2809 150.061 73.7577 150.459 73.0853 150.747C72.4177 151.036 71.6435 151.181 70.7629 151.181C69.5413 151.181 68.5446 150.92 67.7728 150.399C67.001 149.874 66.5275 149.128 66.3523 148.162L68.4049 147.85C68.5327 148.385 68.7955 148.79 69.1933 149.064C69.591 149.334 70.1095 149.469 70.7487 149.469C71.4447 149.469 72.001 149.325 72.4177 149.036C72.8344 148.742 73.0427 148.385 73.0427 147.963C73.0427 147.622 72.9148 147.336 72.6592 147.104C72.4082 146.872 72.0223 146.697 71.5015 146.578L69.6549 146.174C68.6369 145.942 67.8841 145.572 67.3964 145.066C66.9134 144.559 66.6719 143.917 66.6719 143.141C66.6719 142.497 66.8519 141.933 67.2117 141.451C67.5716 140.968 68.0687 140.591 68.7032 140.321C69.3377 140.047 70.0645 139.909 70.8836 139.909C72.0626 139.909 72.9906 140.165 73.6677 140.676C74.3448 141.183 74.7922 141.862 75.01 142.715ZM77.558 150.96V140.051H79.6815V150.96H77.558ZM78.6304 138.368C78.2611 138.368 77.9438 138.245 77.6787 137.999C77.4183 137.748 77.2881 137.45 77.2881 137.104C77.2881 136.754 77.4183 136.455 77.6787 136.209C77.9438 135.958 78.2611 135.833 78.6304 135.833C78.9997 135.833 79.3146 135.958 79.575 136.209C79.8402 136.455 79.9727 136.754 79.9727 137.104C79.9727 137.45 79.8402 137.748 79.575 137.999C79.3146 138.245 78.9997 138.368 78.6304 138.368ZM82.3112 150.96V149.504L88.2202 141.997V141.898H82.5029V140.051H90.8694V141.6L85.1876 149.014V149.114H91.0683V150.96H82.3112ZM97.9628 151.181C96.888 151.181 95.9623 150.951 95.1858 150.492C94.414 150.028 93.8174 149.377 93.396 148.539C92.9794 147.696 92.771 146.709 92.771 145.577C92.771 144.46 92.9794 143.475 93.396 142.622C93.8174 141.77 94.4045 141.105 95.1574 140.627C95.915 140.148 96.8004 139.909 97.8136 139.909C98.4292 139.909 99.0258 140.011 99.6034 140.215C100.181 140.418 100.7 140.738 101.159 141.174C101.618 141.609 101.98 142.175 102.245 142.871C102.511 143.562 102.643 144.403 102.643 145.392V146.145H93.9713V144.554H100.562C100.562 143.995 100.449 143.501 100.221 143.07C99.994 142.634 99.6744 142.291 99.2625 142.04C98.8553 141.789 98.3771 141.664 97.8278 141.664C97.2313 141.664 96.7104 141.81 96.2653 142.104C95.825 142.393 95.4841 142.772 95.2426 143.24C95.0059 143.704 94.8875 144.209 94.8875 144.753V145.996C94.8875 146.725 95.0153 147.345 95.271 147.857C95.5314 148.368 95.8937 148.759 96.3577 149.029C96.8217 149.294 97.3638 149.426 97.9841 149.426C98.3866 149.426 98.7535 149.37 99.0849 149.256C99.4164 149.138 99.7028 148.962 99.9443 148.73C100.186 148.498 100.37 148.212 100.498 147.871L102.508 148.233C102.347 148.825 102.058 149.343 101.642 149.789C101.23 150.229 100.711 150.572 100.086 150.818C99.4661 151.06 98.7582 151.181 97.9628 151.181Z" fill="#5B5B5B"/>
<path d="M26.1298 160.116V174.662H24.8017V161.508H24.7164L21.3073 163.774V162.396L24.7448 160.116H26.1298ZM35.0644 174.861C34.0417 174.861 33.1681 174.567 32.4437 173.98C31.724 173.388 31.17 172.534 30.7818 171.416C30.3982 170.299 30.2065 168.956 30.2065 167.389C30.2065 165.827 30.3982 164.489 30.7818 163.376C31.17 162.259 31.7264 161.404 32.4508 160.812C33.18 160.216 34.0512 159.918 35.0644 159.918C36.0777 159.918 36.9465 160.216 37.671 160.812C38.4001 161.404 38.9565 162.259 39.34 163.376C39.7283 164.489 39.9224 165.827 39.9224 167.389C39.9224 168.956 39.7283 170.299 39.34 171.416C38.9565 172.534 38.4025 173.388 37.6781 173.98C36.9584 174.567 36.0872 174.861 35.0644 174.861ZM35.0644 173.668C36.1866 173.668 37.0625 173.121 37.6923 172.027C38.322 170.928 38.6369 169.383 38.6369 167.389C38.6369 166.063 38.4925 164.932 38.2036 163.994C37.9196 163.052 37.51 162.332 36.975 161.835C36.4446 161.338 35.8078 161.089 35.0644 161.089C33.9518 161.089 33.0782 161.643 32.4437 162.751C31.8092 163.855 31.492 165.401 31.492 167.389C31.492 168.715 31.634 169.847 31.9181 170.784C32.207 171.722 32.6165 172.436 33.1468 172.929C33.6819 173.421 34.3211 173.668 35.0644 173.668ZM51.3002 171.92L43.2889 163.909L44.1198 163.085L52.1312 171.097L51.3002 171.92ZM44.1198 171.92L43.2889 171.097L51.3002 163.085L52.1312 163.909L44.1198 171.92ZM60.329 160.116V174.662H59.0009V161.508H58.9156L55.5066 163.774V162.396L58.9441 160.116H60.329ZM69.2637 174.861C68.2409 174.861 67.3674 174.567 66.6429 173.98C65.9232 173.388 65.3692 172.534 64.981 171.416C64.5975 170.299 64.4057 168.956 64.4057 167.389C64.4057 165.827 64.5975 164.489 64.981 163.376C65.3692 162.259 65.9256 161.404 66.65 160.812C67.3792 160.216 68.2504 159.918 69.2637 159.918C70.2769 159.918 71.1458 160.216 71.8702 160.812C72.5994 161.404 73.1557 162.259 73.5392 163.376C73.9275 164.489 74.1216 165.827 74.1216 167.389C74.1216 168.956 73.9275 170.299 73.5392 171.416C73.1557 172.534 72.6017 173.388 71.8773 173.98C71.1576 174.567 70.2864 174.861 69.2637 174.861ZM69.2637 173.668C70.3858 173.668 71.2618 173.121 71.8915 172.027C72.5212 170.928 72.8361 169.383 72.8361 167.389C72.8361 166.063 72.6917 164.932 72.4029 163.994C72.1188 163.052 71.7092 162.332 71.1742 161.835C70.6439 161.338 70.007 161.089 69.2637 161.089C68.151 161.089 67.2774 161.643 66.6429 162.751C66.0085 163.855 65.6912 165.401 65.6912 167.389C65.6912 168.715 65.8333 169.847 66.1174 170.784C66.4062 171.722 66.8157 172.436 67.346 172.929C67.8811 173.421 68.5203 173.668 69.2637 173.668ZM85.4995 171.92L77.4881 163.909L78.3191 163.085L86.3304 171.097L85.4995 171.92ZM78.3191 171.92L77.4881 171.097L85.4995 163.085L86.3304 163.909L78.3191 171.92ZM94.5282 160.116V174.662H93.2001V161.508H93.1149L89.7058 163.774V162.396L93.1433 160.116H94.5282ZM103.463 174.861C102.44 174.861 101.567 174.567 100.842 173.98C100.122 173.388 99.5685 172.534 99.1802 171.416C98.7967 170.299 98.6049 168.956 98.6049 167.389C98.6049 165.827 98.7967 164.489 99.1802 163.376C99.5685 162.259 100.125 161.404 100.849 160.812C101.578 160.216 102.45 159.918 103.463 159.918C104.476 159.918 105.345 160.216 106.069 160.812C106.799 161.404 107.355 162.259 107.738 163.376C108.127 164.489 108.321 165.827 108.321 167.389C108.321 168.956 108.127 170.299 107.738 171.416C107.355 172.534 106.801 173.388 106.077 173.98C105.357 174.567 104.486 174.861 103.463 174.861ZM103.463 173.668C104.585 173.668 105.461 173.121 106.091 172.027C106.72 170.928 107.035 169.383 107.035 167.389C107.035 166.063 106.891 164.932 106.602 163.994C106.318 163.052 105.908 162.332 105.373 161.835C104.843 161.338 104.206 161.089 103.463 161.089C102.35 161.089 101.477 161.643 100.842 162.751C100.208 163.855 99.8904 165.401 99.8904 167.389C99.8904 168.715 100.032 169.847 100.317 170.784C100.605 171.722 101.015 172.436 101.545 172.929C102.08 173.421 102.72 173.668 103.463 173.668ZM116.9 174.662V163.753H118.172V174.662H116.9ZM117.547 161.878C117.286 161.878 117.064 161.79 116.879 161.615C116.694 161.435 116.602 161.22 116.602 160.969C116.602 160.718 116.694 160.505 116.879 160.329C117.064 160.15 117.286 160.06 117.547 160.06C117.807 160.06 118.03 160.15 118.214 160.329C118.399 160.505 118.491 160.718 118.491 160.969C118.491 161.22 118.399 161.435 118.214 161.615C118.03 161.79 117.807 161.878 117.547 161.878ZM122.779 167.844V174.662H121.515V163.753H122.744V165.464H122.857C123.113 164.906 123.511 164.458 124.051 164.122C124.595 163.781 125.267 163.611 126.068 163.611C126.802 163.611 127.445 163.765 127.999 164.072C128.558 164.375 128.991 164.823 129.299 165.415C129.612 166.007 129.768 166.733 129.768 167.595V174.662H128.504V167.673C128.504 166.778 128.253 166.07 127.751 165.55C127.254 165.029 126.586 164.768 125.748 164.768C125.175 164.768 124.666 164.892 124.221 165.138C123.776 165.384 123.423 165.739 123.163 166.203C122.907 166.662 122.779 167.209 122.779 167.844Z" fill="#4D4D4D"/>
<path opacity="0.1" d="M102.981 104.42L71.478 124.945L45.9261 109.856L77.5592 90.8701L102.981 104.42Z" fill="black"/>
<path d="M49.0439 78.8536L78.9958 60.5942L100.956 73.9851L71.009 92.2445L49.0439 78.8536Z" fill="#D3976E"/>
<g opacity="0.3">
<path d="M49.0439 78.8536L78.9958 60.5942L100.956 73.9851L71.009 92.2445L49.0439 78.8536Z" fill="white"/>
</g>
<path d="M78.7015 63.2204L69.5105 68.8103C69.3434 68.9141 69.3876 69.1062 69.6088 69.2411L79.9892 75.5681C80.0941 75.6347 80.2122 75.6745 80.3343 75.6844C80.4563 75.6943 80.5788 75.674 80.6921 75.6252L89.8831 70.0352C90.0502 69.9314 90.006 69.7394 89.7848 69.6044L79.4044 63.2827C79.3003 63.2141 79.1823 63.1726 79.0601 63.1618C78.9378 63.151 78.8149 63.1711 78.7015 63.2204Z" fill="#FAFAFA"/>
<path d="M83.3449 72.734C83.3776 72.7335 83.4097 72.7243 83.4381 72.707C83.4665 72.6897 83.4902 72.6651 83.507 72.6354C83.5201 72.6127 83.5288 72.5874 83.5324 72.5611C83.536 72.5348 83.5346 72.508 83.5281 72.4823C83.5217 72.4566 83.5104 72.4326 83.495 72.4116C83.4795 72.3906 83.4602 72.3732 83.4382 72.3603L74.8223 67.1129C74.7796 67.096 74.7326 67.0958 74.6897 67.1123C74.6468 67.1287 74.6109 67.1608 74.5884 67.2027C74.5659 67.2445 74.5583 67.2935 74.5669 67.3408C74.5756 67.3881 74.5999 67.4306 74.6355 67.4607L83.2465 72.7132C83.2776 72.7273 83.3111 72.7344 83.3449 72.734Z" fill="#E0E0E0"/>
<path d="M82.3872 73.3414C82.4213 73.3414 82.4548 73.3317 82.4841 73.3135C82.5135 73.2952 82.5377 73.269 82.5543 73.2376C82.5778 73.1905 82.5832 73.1357 82.5695 73.0845C82.5557 73.0334 82.5239 72.9897 82.4806 72.9625L73.8696 67.684C73.8253 67.658 73.7729 67.6515 73.7241 67.6661C73.6753 67.6807 73.6339 67.7151 73.6091 67.7619C73.5968 67.7844 73.5888 67.8092 73.5856 67.8349C73.5824 67.8607 73.584 67.8869 73.5904 67.9119C73.5968 67.937 73.6078 67.9605 73.6228 67.9811C73.6379 68.0016 73.6566 68.0189 73.6779 68.0318L82.2939 73.2843C82.3184 73.3135 82.3511 73.3335 82.3872 73.3414Z" fill="#E0E0E0"/>
<path d="M81.4338 73.8914C81.4746 73.8895 81.5138 73.8738 81.5456 73.8468C81.5774 73.8197 81.6002 73.7826 81.6106 73.7408C81.6211 73.6991 81.6186 73.6549 81.6036 73.6148C81.5886 73.5746 81.5618 73.5406 81.5271 73.5177L72.9112 68.2651C72.8675 68.2386 72.8156 68.2314 72.7668 68.245C72.7181 68.2586 72.6763 68.2919 72.6507 68.3378C72.6269 68.3843 72.6207 68.4386 72.6335 68.4897C72.6463 68.5409 72.677 68.5849 72.7195 68.6129L81.3355 73.8603C81.3655 73.8785 81.3992 73.8891 81.4338 73.8914Z" fill="#E0E0E0"/>
<path d="M80.475 74.4732C80.5083 74.4727 80.541 74.4629 80.5695 74.4446C80.598 74.4264 80.6214 74.4004 80.6372 74.3694C80.6503 74.3467 80.6589 74.3214 80.6625 74.2951C80.6661 74.2688 80.6647 74.242 80.6583 74.2163C80.6519 74.1906 80.6406 74.1666 80.6251 74.1456C80.6097 74.1246 80.5904 74.1072 80.5684 74.0943L71.9524 68.8469C71.9311 68.834 71.9076 68.8256 71.8832 68.8222C71.8589 68.8189 71.8341 68.8206 71.8104 68.8273C71.7866 68.8341 71.7644 68.8457 71.7449 68.8615C71.7254 68.8774 71.7091 68.8971 71.6968 68.9196C71.6846 68.9421 71.6766 68.9669 71.6734 68.9926C71.6703 69.0184 71.6719 69.0445 71.6783 69.0696C71.6847 69.0946 71.6957 69.1181 71.7107 69.1387C71.7257 69.1593 71.7443 69.1765 71.7656 69.1895L80.3816 74.442C80.4089 74.4623 80.4416 74.4732 80.475 74.4732Z" fill="#E0E0E0"/>
<path d="M89.0122 69.7811L88.678 69.5735L84.7559 71.9714L85.0901 72.1738L89.0122 69.7811Z" fill="#455A64"/>
<path d="M87.6506 68.9506L87.0706 68.5977L83.1436 70.9904L83.7284 71.3433L87.6506 68.9506Z" fill="#455A64"/>
<path d="M86.2847 68.1148L85.9505 67.9124L82.0283 70.3051L82.3625 70.5075L86.2847 68.1148Z" fill="#455A64"/>
<path d="M85.2665 67.4869L84.5882 67.082L80.6611 69.4747L81.3394 69.8796L85.2665 67.4869Z" fill="#455A64"/>
<path d="M83.5611 66.4537L83.222 66.2461L79.2998 68.6388L79.634 68.8464L83.5611 66.4537Z" fill="#455A64"/>
<path d="M82.5841 65.8468L81.8616 65.416L77.9395 67.8087L78.662 68.2447L82.5841 65.8468Z" fill="#455A64"/>
<path d="M80.8335 64.7879L80.4993 64.5854L76.5723 66.9782L76.9065 67.1806L80.8335 64.7879Z" fill="#455A64"/>
<path d="M80.058 64.3155L79.8909 64.2117L75.9688 66.6044L76.1359 66.703L80.058 64.3155Z" fill="#455A64"/>
<path d="M81.435 65.1824L81.2678 65.0786L77.3457 67.4713L77.5128 67.5751L81.435 65.1824Z" fill="#455A64"/>
<path d="M84.1967 66.8484L84.0296 66.7446L80.1074 69.1373L80.2745 69.2411L84.1967 66.8484Z" fill="#455A64"/>
<path d="M85.6997 67.7671L85.5325 67.6633L81.6055 70.0561L81.7726 70.1598L85.6997 67.7671Z" fill="#455A64"/>
<path d="M86.7621 68.4368L86.595 68.333L82.6729 70.7257L82.835 70.8295L86.7621 68.4368Z" fill="#455A64"/>
<path d="M88.2553 69.3138L88.0882 69.21L84.1611 71.6027L84.3282 71.7065L88.2553 69.3138Z" fill="#455A64"/>
<path d="M79.4673 63.9578L79.1331 63.7554L75.2109 66.1481L75.5452 66.3505L79.4673 63.9578Z" fill="#455A64"/>
<path d="M71.009 123.049L49.0439 109.658V78.8535L71.009 92.2444V123.049Z" fill="#D3976E"/>
<path d="M71.009 123.049L49.0439 109.658V78.8535L71.009 92.2444V123.049Z" fill="#D3976E"/>
<path d="M71.0088 123.049L100.956 104.789V73.9851L71.0088 92.2445V123.049Z" fill="#D3976E"/>
<path opacity="0.1" d="M71.0088 123.049L100.956 104.789V73.9851L71.0088 92.2445V123.049Z" fill="black"/>
<path d="M86.977 87.2668L84.0723 89.0419V84.2772L86.977 82.5073V87.2668Z" fill="#37474F"/>
<path d="M84.0724 84.2772L62.1123 70.8863L65.0171 69.1165L86.9772 82.5074L84.0724 84.2772Z" fill="#455A64"/>
<path d="M98.1841 101.826C98.1088 101.824 98.0349 101.805 97.9679 101.769C97.8742 101.696 97.8 101.599 97.7526 101.487C97.7052 101.375 97.6862 101.252 97.6975 101.13V99.2617V99.1267H97.786L99.1769 98.2651V100.341C99.1738 100.61 99.1102 100.873 98.9914 101.111C98.8726 101.348 98.702 101.552 98.4938 101.706C98.402 101.774 98.2953 101.815 98.1841 101.826ZM97.9187 99.4018V101.13C97.9089 101.211 97.9186 101.292 97.947 101.368C97.9754 101.443 98.0214 101.51 98.0809 101.561C98.1294 101.583 98.1828 101.592 98.2354 101.586C98.2881 101.579 98.3382 101.558 98.3807 101.525C98.5535 101.391 98.6948 101.217 98.7936 101.016C98.8925 100.815 98.9463 100.593 98.9509 100.367V100.211H98.4594L98.3561 99.4797L97.9187 99.4018ZM98.6314 99.9779H98.9509V98.6855L98.1251 99.2046L98.5331 99.2824L98.6314 99.9779Z" fill="#455A64"/>
<path d="M98.4348 103.315C98.4206 103.315 98.4066 103.312 98.3934 103.307C98.3803 103.301 98.3684 103.293 98.3583 103.282C98.3483 103.271 98.3403 103.259 98.3349 103.245C98.3295 103.231 98.3267 103.216 98.3267 103.201V101.644C98.3232 101.627 98.3234 101.609 98.3274 101.591C98.3313 101.574 98.3388 101.558 98.3494 101.544C98.36 101.53 98.3734 101.519 98.3886 101.512C98.4038 101.504 98.4204 101.5 98.4373 101.5C98.4541 101.5 98.4707 101.504 98.4859 101.512C98.5011 101.519 98.5145 101.53 98.5251 101.544C98.5357 101.558 98.5432 101.574 98.5472 101.591C98.5511 101.609 98.5513 101.627 98.5479 101.644V103.201C98.5479 103.217 98.5449 103.232 98.5392 103.246C98.5334 103.26 98.525 103.273 98.5145 103.284C98.5039 103.295 98.4914 103.303 98.4777 103.308C98.464 103.314 98.4494 103.316 98.4348 103.315Z" fill="#455A64"/>
<path d="M97.7957 103.71C97.776 103.71 97.7566 103.705 97.7394 103.695C97.7221 103.685 97.7077 103.67 97.6974 103.652C97.6829 103.625 97.6789 103.594 97.6862 103.564C97.6935 103.534 97.7117 103.508 97.7367 103.492L99.0294 102.703C99.0549 102.687 99.0851 102.683 99.1135 102.691C99.142 102.699 99.1664 102.718 99.1817 102.744C99.1896 102.757 99.1948 102.772 99.1971 102.787C99.1993 102.803 99.1986 102.818 99.1949 102.834C99.1913 102.849 99.1847 102.863 99.1757 102.875C99.1666 102.887 99.1553 102.898 99.1424 102.905L97.8498 103.694C97.8333 103.704 97.8147 103.709 97.7957 103.71Z" fill="#455A64"/>
<path d="M93.9135 106.139C93.8708 106.139 93.8287 106.128 93.7907 106.108C93.7467 106.077 93.7112 106.034 93.6879 105.984C93.6646 105.934 93.6543 105.878 93.658 105.822V105.521C93.658 105.49 93.6699 105.459 93.6911 105.437C93.7123 105.414 93.741 105.402 93.771 105.402C93.8006 105.403 93.8287 105.416 93.8496 105.438C93.8705 105.46 93.8828 105.49 93.8841 105.521V105.843C93.8841 105.895 93.8841 105.916 93.8841 105.921C93.8841 105.926 93.9185 105.921 93.9578 105.921C94.0245 105.854 94.0774 105.774 94.1129 105.684C94.1485 105.595 94.1659 105.499 94.1642 105.402V103.326C94.1607 103.308 94.161 103.29 94.1649 103.273C94.1688 103.256 94.1764 103.24 94.187 103.226C94.1976 103.212 94.2109 103.201 94.2261 103.193C94.2413 103.186 94.258 103.182 94.2748 103.182C94.2916 103.182 94.3083 103.186 94.3234 103.193C94.3386 103.201 94.352 103.212 94.3626 103.226C94.3732 103.24 94.3808 103.256 94.3847 103.273C94.3886 103.29 94.3889 103.308 94.3854 103.326V105.402C94.3904 105.541 94.3646 105.68 94.31 105.807C94.2554 105.934 94.1735 106.046 94.0708 106.134C94.0197 106.15 93.9655 106.151 93.9135 106.139Z" fill="#455A64"/>
<path d="M92.7432 104.311V104.109C92.7704 103.589 92.9131 103.083 93.1599 102.632C93.4067 102.181 93.7505 101.798 94.1636 101.514C94.3117 101.382 94.4948 101.301 94.688 101.283C94.8811 101.264 95.075 101.309 95.2431 101.411C95.4112 101.513 95.5455 101.668 95.6276 101.853C95.7097 102.039 95.7357 102.246 95.702 102.448V102.516L92.7432 104.311ZM94.8468 101.524C94.6499 101.533 94.4586 101.596 94.2914 101.706C93.9384 101.951 93.6394 102.274 93.4146 102.652C93.1899 103.029 93.0447 103.454 92.9889 103.896L95.4906 102.37C95.5007 102.223 95.4742 102.075 95.4139 101.941C95.3536 101.807 95.2615 101.692 95.1466 101.607C95.0561 101.55 94.9521 101.521 94.8468 101.524Z" fill="#455A64"/>
<path d="M89.4397 108.775C89.4255 108.775 89.4114 108.772 89.3983 108.767C89.3852 108.761 89.3733 108.753 89.3632 108.742C89.3532 108.731 89.3452 108.719 89.3398 108.705C89.3344 108.691 89.3316 108.676 89.3316 108.661V104.66C89.3281 104.642 89.3283 104.624 89.3322 104.607C89.3362 104.59 89.3437 104.573 89.3543 104.56C89.3649 104.546 89.3783 104.535 89.3935 104.527C89.4087 104.519 89.4253 104.515 89.4421 104.515C89.459 104.515 89.4756 104.519 89.4908 104.527C89.506 104.535 89.5194 104.546 89.53 104.56C89.5406 104.573 89.5481 104.59 89.5521 104.607C89.556 104.624 89.5562 104.642 89.5527 104.66V108.661C89.5528 108.677 89.5498 108.692 89.5441 108.706C89.5383 108.72 89.5299 108.733 89.5194 108.744C89.5088 108.755 89.4963 108.763 89.4826 108.768C89.4689 108.774 89.4543 108.776 89.4397 108.775Z" fill="#455A64"/>
<path d="M89.1115 105.568H89.0672C89.0416 105.553 89.0215 105.53 89.0107 105.501C88.9999 105.473 88.9991 105.441 89.0083 105.412L89.4064 104.447L89.8487 104.966C89.8628 104.99 89.8683 105.018 89.8644 105.046C89.8605 105.074 89.8474 105.099 89.8274 105.118C89.8074 105.137 89.7818 105.147 89.7551 105.148C89.7284 105.149 89.7024 105.139 89.6816 105.122L89.4703 104.867L89.2147 105.49C89.2068 105.512 89.1928 105.532 89.1744 105.546C89.156 105.56 89.1341 105.567 89.1115 105.568Z" fill="#455A64"/>
<path d="M90.4666 108.158C90.4517 108.158 90.437 108.155 90.4233 108.149C90.4096 108.143 90.3971 108.134 90.3866 108.123C90.3761 108.112 90.3678 108.099 90.3621 108.084C90.3564 108.07 90.3535 108.054 90.3535 108.039V104.037C90.3547 104.006 90.367 103.976 90.388 103.954C90.4089 103.932 90.437 103.919 90.4666 103.917C90.4965 103.917 90.5253 103.93 90.5465 103.952C90.5677 103.975 90.5796 104.005 90.5796 104.037V108.039C90.5796 108.07 90.5677 108.101 90.5465 108.123C90.5253 108.145 90.4965 108.158 90.4666 108.158Z" fill="#455A64"/>
<path d="M90.143 104.95H90.0988C90.0848 104.945 90.0722 104.936 90.0615 104.925C90.0509 104.914 90.0426 104.901 90.037 104.886C90.0315 104.871 90.0289 104.856 90.0294 104.84C90.0298 104.824 90.0334 104.809 90.0398 104.794L90.4379 103.829L90.8753 104.348C90.8861 104.359 90.8946 104.372 90.9004 104.386C90.9062 104.4 90.9093 104.416 90.9093 104.431C90.9093 104.447 90.9062 104.462 90.9004 104.476C90.8946 104.491 90.8861 104.504 90.8753 104.514C90.8543 104.536 90.8261 104.548 90.7967 104.548C90.7673 104.548 90.7391 104.536 90.7181 104.514L90.5116 104.255L90.2511 104.878C90.2435 104.901 90.2287 104.921 90.209 104.934C90.1894 104.947 90.1661 104.953 90.143 104.95Z" fill="#455A64"/>
<path d="M73.3682 110.317V118.18C73.3682 118.481 73.5697 118.606 73.8154 118.455L85.4393 111.37C85.5717 111.281 85.6818 111.16 85.7605 111.016C85.8391 110.872 85.8841 110.711 85.8915 110.545V102.677C85.8915 102.376 85.69 102.251 85.4393 102.407L73.8154 109.497C73.6847 109.586 73.5759 109.707 73.4982 109.85C73.4204 109.992 73.3758 110.153 73.3682 110.317Z" fill="#FAFAFA"/>
<path d="M85.1685 103.533L84.7949 103.762V110.909L85.1685 110.68V103.533Z" fill="#455A64"/>
<path d="M83.639 104.462L82.9951 104.862V112.009L83.639 111.609V104.462Z" fill="#455A64"/>
<path d="M82.1158 105.392L81.7373 105.62V112.767L82.1158 112.539V105.392Z" fill="#455A64"/>
<path d="M80.961 106.082L80.209 106.554V113.701L80.961 113.229V106.082Z" fill="#455A64"/>
<path d="M79.0591 107.254L78.6855 107.483V114.63L79.0591 114.401V107.254Z" fill="#455A64"/>
<path d="M77.9593 107.908L77.1582 108.412V115.564L77.9593 115.055V107.908Z" fill="#455A64"/>
<path d="M76.0024 109.118L75.6289 109.346V116.493L76.0024 116.265V109.118Z" fill="#455A64"/>
<path d="M75.1331 109.642L74.9463 109.757V116.904L75.1331 116.789V109.642Z" fill="#455A64"/>
<path d="M76.7004 108.729L76.5137 108.843V115.99L76.7004 115.876V108.729Z" fill="#455A64"/>
<path d="M79.7766 106.824L79.5898 106.938V114.085L79.7766 113.971V106.824Z" fill="#455A64"/>
<path d="M81.4621 105.802L81.2754 105.916V113.063L81.4621 112.949V105.802Z" fill="#455A64"/>
<path d="M82.6721 105.096L82.4854 105.21V112.357L82.6721 112.243V105.096Z" fill="#455A64"/>
<path d="M84.3137 104.042L84.127 104.161V111.308L84.3137 111.194V104.042Z" fill="#455A64"/>
<path d="M74.4731 110.047L74.0996 110.275V117.422L74.4731 117.194V110.047Z" fill="#455A64"/>
</svg>
