<svg width="151" height="186" viewBox="0 0 151 186" fill="none" xmlns="http://www.w3.org/2000/svg">
<g clip-path="url(#clip0_115_3)">
<path d="M74.9858 110.313C116.179 110.313 149.572 102.478 149.572 92.8135C149.572 83.1485 116.179 75.3135 74.9858 75.3135C33.7929 75.3135 0.399414 83.1485 0.399414 92.8135C0.399414 102.478 33.7929 110.313 74.9858 110.313Z" fill="black" fill-opacity="0.11"/>
<path d="M34.0631 72.8085L77.9849 71.8677L114.506 73.4128L123.23 95.0158L77.0427 99.3089L33.2314 98.72L34.0631 72.8085Z" fill="#CDCDCD"/>
<path d="M36.3551 63.9297L78.2706 58.0544L111.843 70.4239L121.061 93.8487L76.9946 88.0903L34.5918 95.5703L36.3551 63.9297Z" fill="#BE8863"/>
<path d="M35.6789 63.9855L78.045 58.186V70.5903L77.1535 88.1462L60.783 90.9271L34.5918 95.6262L35.6789 63.9855Z" fill="#DBA885"/>
<path d="M76.9946 88.0603L83.3646 88.9109L111.843 92.468L121.043 93.8506L76.9946 91.0483L34.5918 95.5707L76.9946 88.0603Z" fill="#6E5442"/>
<path d="M77.1327 91.0452L83.5614 91.481L112.736 93.1797L121.075 93.8557L77.1327 96.0437L34.7646 95.5496L77.1327 91.0452Z" fill="#B89B87"/>
<path d="M108.767 90.4155L118.225 91.7657C118.588 91.8174 118.803 91.6479 118.702 91.3892L113.956 79.1599C113.891 79.0192 113.781 78.894 113.634 78.7948C113.486 78.6956 113.307 78.6253 113.11 78.5898L104.397 77.5462C104.035 77.4945 103.911 77.7874 104.017 78.0517L107.926 89.8509C107.991 89.9902 108.101 90.114 108.247 90.2121C108.394 90.3103 108.572 90.38 108.767 90.4155Z" fill="#FAFAFA"/>
<path d="M104.627 78.0699L104.781 78.463L113.378 79.6903L113.224 79.2972L104.627 78.0699Z" fill="#455A64"/>
<path d="M105.25 79.6769L105.522 80.3555L114.119 81.5828L113.847 80.9041L105.25 79.6769Z" fill="#455A64"/>
<path d="M105.876 81.2816L106.028 81.6794L114.625 82.9066L114.473 82.5088L105.876 81.2816Z" fill="#455A64"/>
<path d="M106.327 82.4948L106.651 83.2884L115.248 84.5156L114.924 83.7221L106.327 82.4948Z" fill="#455A64"/>
<path d="M107.122 84.4972L107.276 84.8903L115.873 86.1176L115.719 85.7244L107.122 84.4972Z" fill="#455A64"/>
<path d="M107.55 85.6509L107.896 86.4964L116.499 87.7245L116.147 86.8782L107.55 85.6509Z" fill="#455A64"/>
<path d="M108.371 87.7127L108.525 88.1059L117.122 89.3331L116.968 88.94L108.371 87.7127Z" fill="#455A64"/>
<path d="M108.72 88.6275L108.797 88.8241L117.394 90.0513L117.317 89.8548L108.72 88.6275Z" fill="#455A64"/>
<path d="M108.128 86.9869L108.205 87.1834L116.802 88.4107L116.725 88.2141L108.128 86.9869Z" fill="#455A64"/>
<path d="M106.836 83.7427L106.913 83.9393L115.51 85.1665L115.433 84.97L106.836 83.7427Z" fill="#455A64"/>
<path d="M106.153 81.972L106.23 82.1685L114.827 83.3958L114.75 83.1993L106.153 81.972Z" fill="#455A64"/>
<path d="M105.697 80.7037L105.774 80.9002L114.371 82.1275L114.294 81.9309L105.697 80.7037Z" fill="#455A64"/>
<path d="M104.963 78.9673L105.046 79.1648L113.643 80.392L113.566 80.1955L104.963 78.9673Z" fill="#455A64"/>
<path d="M108.991 89.3207L109.145 89.7138L117.742 90.941L117.588 90.5479L108.991 89.3207Z" fill="#455A64"/>
<path d="M78.0211 61.3115L112.491 72.0264L114.026 75.9685L78.0211 67.151L78.0211 61.3115Z" fill="#455A64"/>
<path d="M78.0419 61.3171L35.4313 71.0759L35.2689 75.2887L78.0419 67.1514L78.0419 61.3171Z" fill="#455A64"/>
<path d="M41.7446 125.027L45.2247 130.715H45.3384L48.8185 125.027H51.3611L46.8299 132.299L51.3895 139.572H48.8327L45.3384 133.961H45.2247L41.7304 139.572H39.1736L43.8114 132.299L39.202 125.027H41.7446ZM61.4712 128.848C61.3954 128.175 61.0829 127.654 60.5337 127.285C59.9844 126.911 59.2932 126.724 58.4598 126.724C57.8632 126.724 57.3471 126.819 56.9115 127.008C56.4759 127.193 56.1374 127.448 55.8959 127.775C55.6592 128.097 55.5408 128.464 55.5408 128.876C55.5408 129.222 55.6213 129.52 55.7823 129.771C55.948 130.022 56.1634 130.233 56.4286 130.403C56.6985 130.569 56.9873 130.708 57.2951 130.822C57.6028 130.931 57.8987 131.021 58.1828 131.092L59.6033 131.461C60.0673 131.575 60.5432 131.729 61.0309 131.923C61.5185 132.117 61.9707 132.373 62.3874 132.69C62.8041 133.007 63.1402 133.4 63.3959 133.869C63.6563 134.338 63.7865 134.899 63.7865 135.552C63.7865 136.376 63.5735 137.108 63.1473 137.747C62.7259 138.386 62.1128 138.89 61.3078 139.26C60.5076 139.629 59.5394 139.813 58.403 139.813C57.314 139.813 56.3718 139.641 55.5763 139.295C54.7809 138.949 54.1582 138.459 53.7084 137.825C53.2586 137.186 53.01 136.428 52.9627 135.552H55.1644C55.207 136.078 55.3774 136.516 55.6757 136.866C55.9788 137.212 56.3647 137.47 56.8334 137.64C57.3069 137.806 57.8254 137.889 58.3888 137.889C59.0091 137.889 59.5607 137.792 60.0436 137.598C60.5313 137.399 60.9148 137.124 61.1942 136.774C61.4736 136.419 61.6132 136.004 61.6132 135.531C61.6132 135.1 61.4901 134.747 61.2439 134.473C61.0024 134.198 60.6734 133.971 60.2567 133.791C59.8448 133.611 59.3784 133.452 58.8576 133.315L57.1388 132.846C55.974 132.529 55.0507 132.063 54.3689 131.447C53.6918 130.831 53.3533 130.017 53.3533 129.004C53.3533 128.166 53.5806 127.434 54.0351 126.809C54.4897 126.184 55.1052 125.699 55.8817 125.353C56.6582 125.003 57.5342 124.828 58.5095 124.828C59.4944 124.828 60.3632 125.001 61.1161 125.346C61.8737 125.692 62.4702 126.168 62.9059 126.774C63.3415 127.375 63.5687 128.066 63.5877 128.848H61.4712ZM79.7063 131.326L77.7816 131.667C77.7011 131.421 77.5732 131.187 77.398 130.964C77.2276 130.742 76.9956 130.559 76.702 130.417C76.4085 130.275 76.0415 130.204 75.6012 130.204C74.9998 130.204 74.4979 130.339 74.0955 130.609C73.693 130.874 73.4918 131.217 73.4918 131.639C73.4918 132.003 73.6267 132.297 73.8966 132.519C74.1665 132.742 74.6021 132.924 75.2034 133.066L76.9364 133.464C77.9402 133.696 78.6883 134.054 79.1807 134.537C79.6731 135.019 79.9193 135.647 79.9193 136.419C79.9193 137.072 79.73 137.654 79.3512 138.166C78.9771 138.672 78.4539 139.07 77.7816 139.359C77.1139 139.648 76.3398 139.792 75.4591 139.792C74.2375 139.792 73.2408 139.532 72.4691 139.011C71.6973 138.485 71.2238 137.74 71.0486 136.774L73.1012 136.461C73.229 136.996 73.4918 137.401 73.8895 137.676C74.2872 137.946 74.8057 138.081 75.4449 138.081C76.1409 138.081 76.6973 137.936 77.1139 137.647C77.5306 137.354 77.7389 136.996 77.7389 136.575C77.7389 136.234 77.6111 135.947 77.3554 135.715C77.1045 135.483 76.7186 135.308 76.1978 135.19L74.3512 134.785C73.3332 134.553 72.5803 134.184 72.0926 133.677C71.6097 133.171 71.3682 132.529 71.3682 131.752C71.3682 131.108 71.5481 130.545 71.908 130.062C72.2678 129.579 72.765 129.203 73.3995 128.933C74.0339 128.658 74.7607 128.521 75.5799 128.521C76.7588 128.521 77.6869 128.777 78.3639 129.288C79.041 129.795 79.4885 130.474 79.7063 131.326ZM82.2542 139.572V128.663H84.3778V139.572H82.2542ZM83.3267 126.98C82.9573 126.98 82.6401 126.857 82.375 126.61C82.1145 126.359 81.9843 126.061 81.9843 125.715C81.9843 125.365 82.1145 125.067 82.375 124.821C82.6401 124.57 82.9573 124.444 83.3267 124.444C83.696 124.444 84.0108 124.57 84.2713 124.821C84.5364 125.067 84.669 125.365 84.669 125.715C84.669 126.061 84.5364 126.359 84.2713 126.61C84.0108 126.857 83.696 126.98 83.3267 126.98ZM87.0074 139.572V138.116L92.9165 130.609V130.51H87.1992V128.663H95.5657V130.211L89.8838 137.626V137.725H95.7645V139.572H87.0074ZM102.659 139.792C101.584 139.792 100.659 139.563 99.8821 139.103C99.1103 138.639 98.5137 137.988 98.0923 137.15C97.6756 136.307 97.4673 135.32 97.4673 134.188C97.4673 133.071 97.6756 132.086 98.0923 131.234C98.5137 130.382 99.1008 129.716 99.8536 129.238C100.611 128.76 101.497 128.521 102.51 128.521C103.125 128.521 103.722 128.623 104.3 128.826C104.877 129.03 105.396 129.349 105.855 129.785C106.314 130.221 106.677 130.787 106.942 131.483C107.207 132.174 107.339 133.014 107.339 134.004V134.757H98.6676V133.166H105.258C105.258 132.607 105.145 132.112 104.918 131.681C104.69 131.246 104.371 130.903 103.959 130.652C103.552 130.401 103.073 130.275 102.524 130.275C101.928 130.275 101.407 130.422 100.962 130.715C100.521 131.004 100.18 131.383 99.9389 131.852C99.7021 132.316 99.5838 132.82 99.5838 133.365V134.608C99.5838 135.337 99.7116 135.957 99.9673 136.468C100.228 136.98 100.59 137.37 101.054 137.64C101.518 137.905 102.06 138.038 102.68 138.038C103.083 138.038 103.45 137.981 103.781 137.867C104.113 137.749 104.399 137.574 104.641 137.342C104.882 137.11 105.067 136.823 105.195 136.483L107.205 136.845C107.044 137.437 106.755 137.955 106.338 138.4C105.926 138.84 105.408 139.184 104.783 139.43C104.162 139.671 103.455 139.792 102.659 139.792Z" fill="#5B5B5B"/>
<path d="M19.2265 155.758L18.0688 156.085C17.9552 155.758 17.7942 155.462 17.5858 155.197C17.3775 154.932 17.1053 154.721 16.7691 154.565C16.4376 154.409 16.0257 154.33 15.5333 154.33C14.7946 154.33 14.1886 154.506 13.7151 154.856C13.2416 155.206 13.0049 155.659 13.0049 156.213C13.0049 156.681 13.1659 157.063 13.4878 157.356C13.8145 157.645 14.3164 157.875 14.9935 158.045L16.6412 158.45C17.5551 158.672 18.2392 159.025 18.6938 159.508C19.1531 159.991 19.3827 160.597 19.3827 161.326C19.3827 161.942 19.2123 162.489 18.8713 162.967C18.5304 163.445 18.0546 163.822 17.4438 164.096C16.8377 164.366 16.1346 164.501 15.3344 164.501C14.2691 164.501 13.3908 164.262 12.6995 163.784C12.0082 163.301 11.5655 162.605 11.3713 161.696L12.5858 161.397C12.7421 162.046 13.0475 162.536 13.502 162.867C13.9613 163.199 14.565 163.365 15.3131 163.365C16.1512 163.365 16.8212 163.178 17.3231 162.804C17.8249 162.425 18.0759 161.951 18.0759 161.383C18.0759 160.943 17.9291 160.573 17.6356 160.275C17.342 159.972 16.8969 159.75 16.3003 159.607L14.5177 159.181C13.5707 158.954 12.8699 158.594 12.4154 158.102C11.9608 157.609 11.7336 156.999 11.7336 156.269C11.7336 155.668 11.8969 155.14 12.2236 154.686C12.5503 154.226 13.0001 153.866 13.5731 153.606C14.146 153.346 14.7994 153.215 15.5333 153.215C16.5323 153.215 17.3302 153.443 17.9267 153.897C18.5281 154.347 18.9613 154.967 19.2265 155.758ZM26.3909 164.501C25.4486 164.501 24.6153 164.262 23.8909 163.784C23.1712 163.305 22.6077 162.645 22.2005 161.802C21.7933 160.955 21.5897 159.977 21.5897 158.869C21.5897 157.751 21.7933 156.769 22.2005 155.921C22.6077 155.069 23.1712 154.406 23.8909 153.933C24.6153 153.455 25.4486 153.215 26.3909 153.215C27.3331 153.215 28.1641 153.455 28.8838 153.933C29.6035 154.411 30.1669 155.074 30.5741 155.921C30.9861 156.769 31.192 157.751 31.192 158.869C31.192 159.977 30.9884 160.955 30.5812 161.802C30.174 162.645 29.6082 163.305 28.8838 163.784C28.1641 164.262 27.3331 164.501 26.3909 164.501ZM26.3909 163.343C27.1485 163.343 27.79 163.14 28.3156 162.732C28.8412 162.325 29.2389 161.783 29.5088 161.106C29.7834 160.429 29.9207 159.683 29.9207 158.869C29.9207 158.054 29.7834 157.306 29.5088 156.625C29.2389 155.943 28.8412 155.396 28.3156 154.984C27.79 154.572 27.1485 154.366 26.3909 154.366C25.638 154.366 24.9965 154.572 24.4662 154.984C23.9406 155.396 23.5405 155.943 23.2659 156.625C22.996 157.306 22.8611 158.054 22.8611 158.869C22.8611 159.683 22.996 160.429 23.2659 161.106C23.5405 161.783 23.9406 162.325 24.4662 162.732C24.9917 163.14 25.6333 163.343 26.3909 163.343ZM38.4559 153.365V154.465H33.0936V153.365H38.4559ZM34.7698 164.274V151.767C34.7698 151.179 34.9047 150.685 35.1746 150.282C35.4492 149.88 35.8067 149.574 36.2471 149.366C36.6874 149.158 37.1538 149.054 37.6462 149.054C37.9776 149.054 38.2523 149.082 38.4701 149.139C38.6926 149.191 38.8678 149.243 38.9956 149.295L38.6263 150.403C38.5316 150.375 38.4156 150.341 38.2783 150.304C38.141 150.266 37.9682 150.247 37.7598 150.247C37.2106 150.247 36.7868 150.401 36.4885 150.708C36.1902 151.016 36.0411 151.456 36.0411 152.029L36.034 164.274H34.7698ZM45.2758 153.365V154.465H40.0699V153.365H45.2758ZM41.6963 150.751H42.9676V161.426C42.9676 161.88 43.0457 162.238 43.202 162.498C43.3582 162.754 43.5618 162.936 43.8128 163.045C44.0637 163.149 44.3312 163.201 44.6153 163.201C44.781 163.201 44.9231 163.192 45.0414 163.173C45.1598 163.149 45.264 163.125 45.3539 163.102L45.6238 164.245C45.5007 164.293 45.3492 164.335 45.1693 164.373C44.9894 164.416 44.7668 164.437 44.5017 164.437C44.0377 164.437 43.5902 164.335 43.1593 164.132C42.7332 163.928 42.3828 163.625 42.1082 163.223C41.8336 162.82 41.6963 162.321 41.6963 161.724V150.751ZM53.7719 168.365V153.365H55.0006V155.446H55.1498C55.3013 155.119 55.5096 154.785 55.7748 154.444C56.0399 154.098 56.3903 153.807 56.8259 153.571C57.2662 153.334 57.8202 153.215 58.4878 153.215C59.3874 153.215 60.1734 153.452 60.8458 153.926C61.5229 154.394 62.0484 155.053 62.4225 155.9C62.8013 156.743 62.9907 157.725 62.9907 158.848C62.9907 159.974 62.8013 160.962 62.4225 161.809C62.0484 162.657 61.5229 163.317 60.8458 163.791C60.1734 164.264 59.3922 164.501 58.502 164.501C57.8439 164.501 57.2923 164.383 56.8472 164.146C56.4069 163.909 56.0494 163.618 55.7748 163.272C55.5049 162.922 55.2965 162.581 55.1498 162.25H55.0361V168.365H53.7719ZM55.0219 158.826C55.0219 159.707 55.1521 160.488 55.4125 161.17C55.6777 161.847 56.0565 162.38 56.5489 162.768C57.0461 163.152 57.6474 163.343 58.3529 163.343C59.0773 163.343 59.6881 163.144 60.1853 162.747C60.6872 162.344 61.0683 161.802 61.3287 161.12C61.5939 160.438 61.7265 159.674 61.7265 158.826C61.7265 157.988 61.5963 157.233 61.3358 156.561C61.0802 155.888 60.7014 155.356 60.1995 154.963C59.6976 154.565 59.082 154.366 58.3529 154.366C57.6427 154.366 57.039 154.558 56.5418 154.941C56.0446 155.32 55.6659 155.846 55.4054 156.518C55.1498 157.186 55.0219 157.955 55.0219 158.826ZM68.811 164.522C68.1528 164.522 67.5515 164.394 67.007 164.139C66.4625 163.878 66.0293 163.504 65.7073 163.017C65.3853 162.524 65.2243 161.928 65.2243 161.227C65.2243 160.687 65.3261 160.232 65.5297 159.863C65.7333 159.494 66.0222 159.191 66.3962 158.954C66.7703 158.717 67.213 158.53 67.7243 158.393C68.2357 158.256 68.7991 158.149 69.4147 158.073C70.0255 157.998 70.5416 157.931 70.963 157.875C71.3891 157.818 71.7134 157.728 71.936 157.605C72.1585 157.482 72.2698 157.283 72.2698 157.008V156.752C72.2698 156.009 72.0472 155.424 71.6022 154.998C71.1618 154.567 70.5274 154.352 69.6988 154.352C68.9128 154.352 68.2712 154.525 67.774 154.87C67.2816 155.216 66.936 155.623 66.7371 156.092L65.5368 155.659C65.783 155.062 66.124 154.586 66.5596 154.231C66.9952 153.871 67.4829 153.613 68.0226 153.457C68.5624 153.296 69.1093 153.215 69.6633 153.215C70.0799 153.215 70.5132 153.27 70.963 153.379C71.4175 153.488 71.8389 153.677 72.2272 153.947C72.6154 154.212 72.9303 154.584 73.1718 155.062C73.4133 155.536 73.534 156.137 73.534 156.866V164.274H72.2698V162.548H72.1917C72.0401 162.87 71.8152 163.182 71.5169 163.485C71.2186 163.788 70.8446 164.037 70.3948 164.231C69.945 164.425 69.417 164.522 68.811 164.522ZM68.9814 163.365C69.6538 163.365 70.2362 163.215 70.7286 162.917C71.221 162.619 71.5998 162.223 71.865 161.731C72.1348 161.234 72.2698 160.687 72.2698 160.09V158.514C72.1751 158.604 72.0165 158.684 71.7939 158.755C71.5761 158.826 71.3228 158.89 71.034 158.947C70.7499 158.999 70.4658 159.044 70.1817 159.082C69.8976 159.12 69.6419 159.153 69.4147 159.181C68.7991 159.257 68.2736 159.375 67.838 159.536C67.4024 159.697 67.0686 159.92 66.8365 160.204C66.6045 160.483 66.4885 160.843 66.4885 161.284C66.4885 161.947 66.7253 162.46 67.1988 162.825C67.6722 163.185 68.2665 163.365 68.9814 163.365ZM81.1583 164.501C80.1829 164.501 79.333 164.257 78.6086 163.769C77.8889 163.282 77.3302 162.614 76.9324 161.767C76.5347 160.919 76.3358 159.953 76.3358 158.869C76.3358 157.775 76.5371 156.802 76.9395 155.95C77.3467 155.098 77.9102 154.43 78.6299 153.947C79.3496 153.459 80.1853 153.215 81.137 153.215C81.8661 153.215 82.5267 153.357 83.1185 153.642C83.7104 153.921 84.1981 154.316 84.5816 154.828C84.9698 155.334 85.2137 155.926 85.3131 156.603H84.0347C83.9021 155.988 83.5825 155.462 83.0759 155.027C82.574 154.586 81.9348 154.366 81.1583 154.366C80.4623 154.366 79.8467 154.555 79.3117 154.934C78.7767 155.308 78.3576 155.831 78.0546 156.504C77.7563 157.171 77.6071 157.946 77.6071 158.826C77.6071 159.712 77.7539 160.495 78.0475 161.177C78.341 161.854 78.753 162.384 79.2833 162.768C79.8183 163.152 80.4433 163.343 81.1583 163.343C81.6412 163.343 82.0816 163.253 82.4793 163.073C82.8818 162.889 83.2179 162.628 83.4878 162.292C83.7624 161.956 83.9471 161.556 84.0418 161.092H85.3202C85.2255 161.75 84.9911 162.337 84.6171 162.853C84.2478 163.365 83.7672 163.767 83.1753 164.061C82.5882 164.354 81.9159 164.501 81.1583 164.501ZM89.1803 160.154L89.1661 158.5H89.4502L94.5638 153.365H96.1618L91.1121 158.421L90.9985 158.443L89.1803 160.154ZM88.0297 164.274V149.728H89.2939V164.274H88.0297ZM94.8266 164.274L90.3948 158.67L91.3039 157.796L96.4459 164.274H94.8266ZM101.584 164.522C100.926 164.522 100.325 164.394 99.7804 164.139C99.2359 163.878 98.8027 163.504 98.4807 163.017C98.1588 162.524 97.9978 161.928 97.9978 161.227C97.9978 160.687 98.0996 160.232 98.3032 159.863C98.5068 159.494 98.7956 159.191 99.1696 158.954C99.5437 158.717 99.9864 158.53 100.498 158.393C101.009 158.256 101.573 158.149 102.188 158.073C102.799 157.998 103.315 157.931 103.736 157.875C104.163 157.818 104.487 157.728 104.709 157.605C104.932 157.482 105.043 157.283 105.043 157.008V156.752C105.043 156.009 104.821 155.424 104.376 154.998C103.935 154.567 103.301 154.352 102.472 154.352C101.686 154.352 101.045 154.525 100.547 154.87C100.055 155.216 99.7094 155.623 99.5106 156.092L98.3103 155.659C98.5565 155.062 98.8974 154.586 99.333 154.231C99.7686 153.871 100.256 153.613 100.796 153.457C101.336 153.296 101.883 153.215 102.437 153.215C102.853 153.215 103.287 153.27 103.736 153.379C104.191 153.488 104.612 153.677 105.001 153.947C105.389 154.212 105.704 154.584 105.945 155.062C106.187 155.536 106.307 156.137 106.307 156.866V164.274H105.043V162.548H104.965C104.814 162.87 104.589 163.182 104.29 163.485C103.992 163.788 103.618 164.037 103.168 164.231C102.718 164.425 102.19 164.522 101.584 164.522ZM101.755 163.365C102.427 163.365 103.01 163.215 103.502 162.917C103.994 162.619 104.373 162.223 104.638 161.731C104.908 161.234 105.043 160.687 105.043 160.09V158.514C104.949 158.604 104.79 158.684 104.567 158.755C104.35 158.826 104.096 158.89 103.807 158.947C103.523 158.999 103.239 159.044 102.955 159.082C102.671 159.12 102.415 159.153 102.188 159.181C101.573 159.257 101.047 159.375 100.611 159.536C100.176 159.697 99.842 159.92 99.61 160.204C99.378 160.483 99.262 160.843 99.262 161.284C99.262 161.947 99.4987 162.46 99.9722 162.825C100.446 163.185 101.04 163.365 101.755 163.365ZM113.832 168.592C113.089 168.592 112.438 168.495 111.879 168.301C111.32 168.111 110.849 167.851 110.466 167.519C110.082 167.188 109.784 166.816 109.571 166.404L110.608 165.723C110.764 165.997 110.972 166.267 111.233 166.532C111.498 166.797 111.841 167.018 112.263 167.193C112.689 167.368 113.212 167.455 113.832 167.455C114.798 167.455 115.577 167.214 116.169 166.731C116.766 166.248 117.064 165.498 117.064 164.48V162.022H116.95C116.803 162.354 116.593 162.685 116.318 163.017C116.043 163.343 115.684 163.616 115.239 163.833C114.798 164.051 114.251 164.16 113.598 164.16C112.727 164.16 111.953 163.945 111.275 163.514C110.603 163.083 110.073 162.467 109.685 161.667C109.301 160.862 109.109 159.903 109.109 158.791C109.109 157.688 109.296 156.717 109.67 155.879C110.049 155.041 110.577 154.387 111.254 153.919C111.931 153.45 112.72 153.215 113.619 153.215C114.287 153.215 114.841 153.334 115.281 153.571C115.721 153.803 116.074 154.091 116.339 154.437C116.609 154.783 116.82 155.119 116.971 155.446H117.099V153.365H118.335V164.558C118.335 165.481 118.139 166.241 117.746 166.838C117.353 167.434 116.818 167.875 116.141 168.159C115.463 168.447 114.694 168.592 113.832 168.592ZM113.747 163.002C114.448 163.002 115.047 162.834 115.544 162.498C116.041 162.157 116.422 161.67 116.687 161.035C116.953 160.401 117.085 159.645 117.085 158.769C117.085 157.917 116.955 157.162 116.695 156.504C116.434 155.841 116.055 155.32 115.558 154.941C115.066 154.558 114.462 154.366 113.747 154.366C113.018 154.366 112.402 154.563 111.9 154.955C111.399 155.348 111.02 155.879 110.764 156.546C110.508 157.209 110.381 157.95 110.381 158.769C110.381 159.603 110.511 160.339 110.771 160.978C111.032 161.613 111.413 162.11 111.915 162.47C112.417 162.825 113.027 163.002 113.747 163.002ZM126.093 164.501C125.075 164.501 124.194 164.264 123.451 163.791C122.707 163.313 122.132 162.652 121.725 161.809C121.322 160.962 121.121 159.986 121.121 158.883C121.121 157.785 121.322 156.809 121.725 155.957C122.132 155.1 122.693 154.43 123.408 153.947C124.128 153.459 124.959 153.215 125.901 153.215C126.493 153.215 127.063 153.324 127.612 153.542C128.162 153.755 128.654 154.084 129.09 154.529C129.53 154.97 129.878 155.526 130.134 156.198C130.389 156.866 130.517 157.657 130.517 158.571V159.196H121.995V158.08H129.225C129.225 157.38 129.083 156.75 128.799 156.191C128.519 155.628 128.129 155.183 127.627 154.856C127.13 154.529 126.554 154.366 125.901 154.366C125.21 154.366 124.601 154.551 124.076 154.92C123.55 155.289 123.138 155.777 122.84 156.383C122.546 156.989 122.397 157.652 122.392 158.372V159.039C122.392 159.906 122.541 160.663 122.84 161.312C123.143 161.956 123.571 162.455 124.125 162.811C124.679 163.166 125.335 163.343 126.093 163.343C126.609 163.343 127.061 163.263 127.449 163.102C127.842 162.941 128.171 162.725 128.436 162.455C128.706 162.181 128.91 161.88 129.047 161.554L130.247 161.944C130.082 162.403 129.809 162.827 129.431 163.215C129.057 163.604 128.588 163.916 128.024 164.153C127.466 164.385 126.822 164.501 126.093 164.501Z" fill="#4D4D4D"/>
</g>
<defs>
<clipPath id="clip0_115_3">
<rect width="150" height="185" fill="white" transform="translate(0.394531 0.313477)"/>
</clipPath>
</defs>
</svg>
