<svg width="150" height="183" viewBox="0 0 150 183" fill="none" xmlns="http://www.w3.org/2000/svg">
<g clip-path="url(#clip0_101_1725)">
<path d="M75 115.257C116.421 115.257 150 107.478 150 97.8825C150 88.2867 116.421 80.5078 75 80.5078C33.5786 80.5078 0 88.2867 0 97.8825C0 107.478 33.5786 115.257 75 115.257Z" fill="black" fill-opacity="0.11"/>
<path opacity="0.1" d="M150.278 96.0456L79.1738 135.209L3.96484 93.7419L75.0601 54.5786L150.278 96.0456Z" fill="black"/>
<path d="M2.00586 40.7074L70.2173 3.1123L147.394 45.6706L79.1911 83.2657L2.00586 40.7074Z" fill="#D3976E"/>
<path opacity="0.3" d="M2.00586 40.7074L70.2173 3.1123L147.394 45.6706L79.1911 83.2657L2.00586 40.7074Z" fill="white"/>
<path d="M34.6953 27.3944L55.23 38.6544C55.6032 38.8565 55.5014 39.2445 55.0095 39.5193L31.8454 52.2585C31.612 52.3938 31.3489 52.4759 31.0767 52.4983C30.8045 52.5208 30.5306 52.4829 30.2763 52.3878L9.75857 41.1198C9.38536 40.9096 9.48713 40.5297 9.97908 40.2549L33.1771 27.5157C33.4027 27.384 33.6575 27.3045 33.9211 27.2835C34.1847 27.2624 34.4499 27.3004 34.6953 27.3944Z" fill="#FAFAFA"/>
<path d="M24.3376 46.5594C24.2625 46.5588 24.1888 46.5399 24.1235 46.5046C24.0582 46.4692 24.0034 46.4185 23.9644 46.3573C23.9095 46.264 23.8956 46.1538 23.9258 46.0508C23.956 45.9477 24.0278 45.8603 24.1256 45.8077L43.354 35.2267C43.402 35.1935 43.4568 35.1702 43.5148 35.1583C43.5729 35.1465 43.6329 35.1464 43.6909 35.1581C43.749 35.1698 43.8038 35.1929 43.8519 35.226C43.9 35.2592 43.9403 35.3016 43.9701 35.3504C44 35.3993 44.0187 35.4536 44.0251 35.5099C44.0315 35.5661 44.0255 35.623 44.0074 35.6768C43.9893 35.7307 43.9595 35.7803 43.92 35.8225C43.8806 35.8647 43.8322 35.8986 43.7781 35.9219L24.5497 46.5028C24.486 46.5403 24.4125 46.5599 24.3376 46.5594Z" fill="#E0E0E0"/>
<path d="M26.467 47.7235C26.393 47.723 26.3204 47.7042 26.2564 47.6687C26.1924 47.6333 26.1393 47.5825 26.1023 47.5214C26.0466 47.4291 26.0314 47.3196 26.06 47.2166C26.0886 47.1137 26.1586 47.0257 26.2549 46.9717L45.4919 36.3908C45.5399 36.3575 45.5947 36.3342 45.6527 36.3224C45.7107 36.3106 45.7707 36.3105 45.8288 36.3222C45.8868 36.3338 45.9417 36.357 45.9898 36.3901C46.0379 36.4232 46.0781 36.4656 46.108 36.5145C46.1378 36.5634 46.1565 36.6177 46.1629 36.6739C46.1693 36.7301 46.1633 36.787 46.1452 36.8409C46.1271 36.8947 46.0974 36.9444 46.0579 36.9866C46.0184 37.0288 45.97 37.0626 45.916 37.0859L26.679 47.6669C26.6161 47.7061 26.5421 47.7259 26.467 47.7235Z" fill="#E0E0E0"/>
<path d="M28.6053 48.8877C28.5128 48.8868 28.4231 48.8571 28.3499 48.8031C28.2767 48.749 28.2241 48.6737 28.2001 48.5885C28.1761 48.5033 28.1819 48.413 28.2168 48.3313C28.2517 48.2496 28.3137 48.181 28.3933 48.136L47.5963 37.555C47.644 37.5277 47.6969 37.5097 47.752 37.5023C47.8071 37.4948 47.8632 37.4979 47.917 37.5115C47.9708 37.525 48.0211 37.5488 48.0651 37.5812C48.1091 37.6137 48.1458 37.6543 48.173 37.7005C48.2291 37.7941 48.2445 37.9048 48.216 38.009C48.1875 38.1133 48.1173 38.2027 48.0204 38.2583L28.7919 48.8392C28.734 48.8679 28.6704 48.8844 28.6053 48.8877Z" fill="#E0E0E0"/>
<path d="M30.7433 50.0524C30.669 50.0537 30.5957 50.0355 30.5314 49.9999C30.4671 49.9643 30.4143 49.9125 30.3786 49.8503C30.323 49.758 30.3078 49.6485 30.3364 49.5456C30.365 49.4427 30.435 49.3546 30.5313 49.3007L49.7597 38.7197C49.8576 38.6661 49.9738 38.6518 50.0828 38.6798C50.1917 38.7078 50.2845 38.776 50.3408 38.8692C50.397 38.9625 50.4121 39.0732 50.3826 39.1771C50.3532 39.2809 50.2817 39.3693 50.1838 39.4229L30.9554 50.0039C30.8895 50.0352 30.817 50.0518 30.7433 50.0524Z" fill="#E0E0E0"/>
<path d="M11.6836 40.6102L12.43 40.198L21.1918 45.0156L20.4369 45.4279L11.6836 40.6102Z" fill="#455A64"/>
<path d="M14.7285 38.9296L16.0178 38.2263L24.7796 43.0439L23.4818 43.7552L14.7285 38.9296Z" fill="#455A64"/>
<path d="M17.7656 37.256L18.5205 36.8438L27.2739 41.6614L26.5274 42.0736L17.7656 37.256Z" fill="#455A64"/>
<path d="M20.0469 35.9868L21.5567 35.1704L30.3185 39.988L28.8087 40.8044L20.0469 35.9868Z" fill="#455A64"/>
<path d="M23.8564 33.9012L24.6029 33.4971L33.3646 38.3147L32.6182 38.7269L23.8564 33.9012Z" fill="#455A64"/>
<path d="M26.0264 32.6892L27.6464 31.8162L36.4082 36.6419L34.7882 37.5068L26.0264 32.6892Z" fill="#455A64"/>
<path d="M29.9463 30.5548L30.6927 30.1426L39.4545 34.9602L38.6996 35.3724L29.9463 30.5548Z" fill="#455A64"/>
<path d="M31.6758 29.5932L32.049 29.3911L40.8023 34.2087L40.4291 34.4108L31.6758 29.5932Z" fill="#455A64"/>
<path d="M28.5967 31.339L28.9699 31.137L37.7317 35.9546L37.3585 36.1647L28.5967 31.339Z" fill="#455A64"/>
<path d="M22.4307 34.7016L22.8039 34.4915L31.5657 39.3091L31.1925 39.5192L22.4307 34.7016Z" fill="#455A64"/>
<path d="M19.0801 36.5525L19.4533 36.3423L28.2151 41.168L27.8419 41.3701L19.0801 36.5525Z" fill="#455A64"/>
<path d="M16.7051 37.9018L17.0868 37.6917L25.8401 42.5093L25.4669 42.7194L16.7051 37.9018Z" fill="#455A64"/>
<path d="M13.3711 39.6645L13.7528 39.4543L22.5061 44.28L22.1329 44.4821L13.3711 39.6645Z" fill="#455A64"/>
<path d="M32.9902 28.882L33.7366 28.4697L42.4984 33.2873L41.7436 33.6996L32.9902 28.882Z" fill="#455A64"/>
<path d="M79.1911 132.089L2.00586 89.5307V40.708L79.1911 83.2662V132.089Z" fill="#D3976E"/>
<path d="M79.1914 132.088L147.394 94.4931V45.6704L79.1914 83.2655V132.088Z" fill="#D3976E"/>
<path opacity="0.1" d="M79.1914 132.088L147.394 94.4931V45.6704L79.1914 83.2655V132.088Z" fill="black"/>
<path d="M116.63 70.0173L111.617 72.7737V65.3533L116.63 62.5969V70.0173Z" fill="#37474F"/>
<path d="M111.617 65.361L34.4316 22.8028L39.4444 20.0383L116.63 62.5966L111.617 65.361Z" fill="#455A64"/>
<path d="M50.8952 108.736C50.3513 108.369 49.9058 107.885 49.5948 107.323C49.2839 106.761 49.1162 106.138 49.1055 105.503V100.556L52.7442 102.593H52.9817V102.932V107.354C53.0139 107.641 52.9648 107.931 52.8395 108.194C52.7142 108.457 52.5173 108.683 52.2692 108.849C52.0973 108.946 51.9007 108.996 51.7009 108.995C51.4136 108.975 51.1364 108.886 50.8952 108.736ZM51.3023 103.409L51.0393 105.147H49.6907V105.511C49.7035 106.047 49.8455 106.573 50.1059 107.048C50.3662 107.523 50.7379 107.935 51.192 108.251C51.3039 108.33 51.4356 108.38 51.574 108.396C51.7124 108.411 51.8527 108.392 51.9808 108.34C52.1341 108.217 52.2525 108.059 52.3251 107.881C52.3977 107.703 52.4222 107.511 52.3964 107.321V103.223L51.3023 103.409ZM50.7849 102.932L51.8621 102.754L49.6907 101.534V104.589H50.5389L50.7849 102.932Z" fill="#455A64"/>
<path d="M51.0488 112.486C51.1253 112.486 51.1987 112.458 51.2527 112.406C51.3068 112.354 51.3372 112.285 51.3372 112.212V108.493C51.3372 108.42 51.3068 108.351 51.2527 108.299C51.1987 108.247 51.1253 108.219 51.0488 108.219C50.9715 108.218 50.8973 108.247 50.8419 108.298C50.7864 108.35 50.7542 108.42 50.752 108.493V112.212C50.7542 112.285 50.7864 112.355 50.8419 112.406C50.8973 112.458 50.9715 112.486 51.0488 112.486Z" fill="#455A64"/>
<path d="M52.7363 113.441C52.8021 113.445 52.8674 113.427 52.9212 113.391C52.975 113.354 53.0141 113.301 53.032 113.241C53.0498 113.18 53.0454 113.116 53.0193 113.058C52.9933 113 52.9473 112.953 52.889 112.923L49.4962 111.056C49.4287 111.02 49.3488 111.01 49.2741 111.03C49.1993 111.05 49.1358 111.097 49.0976 111.161C49.0593 111.226 49.0495 111.302 49.0702 111.373C49.0908 111.444 49.1404 111.505 49.2078 111.541L52.6006 113.4C52.6409 113.426 52.688 113.44 52.7363 113.441Z" fill="#455A64"/>
<path d="M62.8636 119.155C62.9757 119.156 63.0862 119.131 63.186 119.083C63.3004 119.009 63.3927 118.909 63.4537 118.791C63.5147 118.674 63.5423 118.543 63.5337 118.412V117.652C63.5338 117.578 63.5036 117.507 63.4498 117.455C63.3959 117.402 63.3226 117.371 63.2453 117.369C63.2064 117.369 63.1678 117.376 63.1317 117.391C63.0957 117.405 63.063 117.426 63.0354 117.452C63.0079 117.478 62.986 117.509 62.9711 117.544C62.9561 117.578 62.9485 117.615 62.9485 117.652V118.412C62.9555 118.478 62.9375 118.544 62.8976 118.598C62.8284 118.606 62.7586 118.589 62.7025 118.549C62.5222 118.39 62.3803 118.196 62.2866 117.98C62.1929 117.763 62.1496 117.53 62.1597 117.296V112.357C62.1597 112.284 62.1296 112.213 62.0757 112.16C62.0219 112.107 61.9485 112.077 61.8713 112.074C61.7925 112.074 61.717 112.104 61.6614 112.157C61.6057 112.21 61.5744 112.282 61.5744 112.357V117.296C61.5631 117.628 61.634 117.957 61.7814 118.258C61.9288 118.558 62.1485 118.822 62.4226 119.026C62.5542 119.107 62.7069 119.152 62.8636 119.155Z" fill="#455A64"/>
<path d="M58.2075 110.571V110.409C58.1206 109.933 58.1893 109.442 58.4044 109.005C58.6195 108.567 58.9706 108.202 59.4101 107.961C59.8496 107.719 60.3563 107.612 60.8618 107.654C61.3673 107.695 61.8471 107.884 62.2364 108.194C63.3204 108.871 64.2223 109.781 64.8691 110.851C65.5159 111.921 65.8896 113.121 65.9599 114.354V114.839L58.2075 110.571ZM59.7003 108.437C59.399 108.641 59.1575 108.916 58.9987 109.234C58.8398 109.552 58.769 109.904 58.7927 110.256L65.3492 113.861C65.2077 112.815 64.8314 111.812 64.2459 110.917C63.6604 110.023 62.8795 109.26 61.9565 108.679C61.52 108.419 61.0203 108.272 60.5061 108.251C60.225 108.245 59.9471 108.309 59.7003 108.437Z" fill="#455A64"/>
<path d="M74.6191 125.388C74.6956 125.388 74.7689 125.359 74.823 125.307C74.8771 125.256 74.9075 125.186 74.9075 125.113V115.656C74.9075 115.583 74.8771 115.513 74.823 115.461C74.7689 115.41 74.6956 115.381 74.6191 115.381C74.5418 115.381 74.4676 115.41 74.4122 115.461C74.3567 115.512 74.3245 115.582 74.3223 115.656V125.113C74.3245 125.187 74.3567 125.257 74.4122 125.308C74.4676 125.359 74.5418 125.388 74.6191 125.388Z" fill="#455A64"/>
<path d="M75.4681 117.813C75.5162 117.813 75.5635 117.801 75.6058 117.779C75.6481 117.757 75.6842 117.725 75.7109 117.687C75.7376 117.649 75.7542 117.605 75.7592 117.56C75.7641 117.514 75.7574 117.468 75.7395 117.425L74.7386 115.138L73.5851 116.415C73.5312 116.466 73.501 116.536 73.501 116.609C73.501 116.682 73.5312 116.751 73.5851 116.803C73.6416 116.853 73.7158 116.881 73.7929 116.881C73.87 116.881 73.9442 116.853 74.0007 116.803L74.552 116.197L75.2221 117.668C75.246 117.711 75.2813 117.746 75.3245 117.772C75.3677 117.798 75.4172 117.812 75.4681 117.813Z" fill="#455A64"/>
<path d="M71.9134 123.949C71.9907 123.949 72.0649 123.92 72.1204 123.869C72.1758 123.817 72.208 123.748 72.2103 123.674V114.217C72.2103 114.179 72.2026 114.143 72.1877 114.108C72.1727 114.074 72.1509 114.043 72.1233 114.016C72.0957 113.99 72.063 113.969 72.027 113.955C71.991 113.941 71.9524 113.934 71.9134 113.934C71.8362 113.936 71.7628 113.966 71.7089 114.019C71.6551 114.072 71.625 114.143 71.625 114.217V123.674C71.625 123.747 71.6554 123.817 71.7095 123.868C71.7636 123.92 71.8369 123.949 71.9134 123.949Z" fill="#455A64"/>
<path d="M72.7699 116.342C72.8091 116.35 72.8495 116.35 72.8887 116.342C72.9591 116.31 73.0141 116.254 73.0425 116.185C73.0709 116.116 73.0705 116.039 73.0414 115.97L71.9981 113.691L70.8445 114.96C70.8195 114.988 70.8004 115.02 70.7883 115.054C70.7762 115.089 70.7714 115.125 70.7742 115.162C70.777 115.198 70.7872 115.234 70.8044 115.266C70.8215 115.299 70.8453 115.328 70.8742 115.352C70.9032 115.376 70.9368 115.394 70.9731 115.406C71.0095 115.417 71.0479 115.422 71.0861 115.419C71.1243 115.416 71.1615 115.407 71.1958 115.39C71.23 115.374 71.2605 115.351 71.2856 115.324L71.8369 114.717L72.507 116.197C72.5315 116.243 72.5693 116.281 72.6159 116.306C72.6626 116.332 72.7161 116.345 72.7699 116.342Z" fill="#455A64"/>
<path d="M25.5428 85.1489V97.3546C25.5428 97.8234 25.195 98.0174 24.7624 97.783L4.7367 86.7655C4.51273 86.6226 4.32651 86.4321 4.1926 86.2092C4.0587 85.9862 3.98075 85.7368 3.96484 85.4803V73.2099C3.96484 72.7411 4.3126 72.5471 4.74518 72.7896L24.7964 83.8313C25.0231 83.9773 25.2093 84.1734 25.3393 84.4028C25.4693 84.6322 25.5391 84.8882 25.5428 85.1489Z" fill="#FAFAFA"/>
<path d="M5.21191 74.5442L5.85653 74.8999V86.0305L5.21191 85.6748V74.5442Z" fill="#455A64"/>
<path d="M7.8418 75.991L8.96141 76.6134V87.744L7.8418 87.1216V75.991Z" fill="#455A64"/>
<path d="M10.4785 77.4377L11.1231 77.7934V88.924L10.4785 88.5684V77.4377Z" fill="#455A64"/>
<path d="M12.4639 78.5125L13.7616 79.248V90.3786L12.4639 89.6431V78.5125Z" fill="#455A64"/>
<path d="M15.7539 80.3398L16.3985 80.6955V91.8261L15.7539 91.4705V80.3398Z" fill="#455A64"/>
<path d="M17.6553 81.3579L19.0378 82.142V93.2807L17.6553 92.4885V81.3579Z" fill="#455A64"/>
<path d="M21.0312 83.2417L21.6759 83.5974V94.728L21.0312 94.3723V83.2417Z" fill="#455A64"/>
<path d="M22.5322 84.0579L22.8545 84.2357V95.3663L22.5322 95.1885V84.0579Z" fill="#455A64"/>
<path d="M19.8271 82.635L20.1495 82.8128V93.9435L19.8271 93.7656V82.635Z" fill="#455A64"/>
<path d="M14.5166 79.6685L14.8389 79.8463V90.9769L14.5166 90.7991V79.6685Z" fill="#455A64"/>
<path d="M11.6074 78.0764L11.9297 78.2542V89.3849L11.6074 89.207V78.0764Z" fill="#455A64"/>
<path d="M9.5127 76.9768L9.84348 77.1546V88.2853L9.5127 88.1074V76.9768Z" fill="#455A64"/>
<path d="M6.67871 75.3442L7.0095 75.5221V86.6446L6.67871 86.4668V75.3442Z" fill="#455A64"/>
<path d="M23.6602 84.688L24.3133 85.0437V96.1743L23.6602 95.8186V84.688Z" fill="#455A64"/>
<path d="M45.2297 136.403L48.7099 142.092H48.8235L52.3036 136.403H54.8462L50.315 143.676L54.8746 150.949H52.3178L48.8235 145.338H48.7099L45.2155 150.949H42.6587L47.2965 143.676L42.6871 136.403H45.2297ZM57.0231 150.949V136.403H59.2177V149.06H65.8086V150.949H57.0231ZM81.6094 142.703L79.6846 143.044C79.6041 142.798 79.4763 142.563 79.3011 142.341C79.1307 142.118 78.8987 141.936 78.6051 141.794C78.3115 141.652 77.9446 141.581 77.5042 141.581C76.9029 141.581 76.401 141.716 75.9986 141.986C75.5961 142.251 75.3949 142.594 75.3949 143.015C75.3949 143.38 75.5298 143.674 75.7997 143.896C76.0696 144.119 76.5052 144.301 77.1065 144.443L78.8395 144.841C79.8433 145.073 80.5914 145.43 81.0838 145.913C81.5762 146.396 81.8224 147.024 81.8224 147.795C81.8224 148.449 81.633 149.031 81.2542 149.542C80.8802 150.049 80.357 150.447 79.6846 150.736C79.017 151.024 78.2429 151.169 77.3622 151.169C76.1406 151.169 75.1439 150.908 74.3721 150.388C73.6004 149.862 73.1269 149.116 72.9517 148.15L75.0042 147.838C75.1321 148.373 75.3949 148.778 75.7926 149.052C76.1903 149.322 76.7088 149.457 77.348 149.457C78.044 149.457 78.6004 149.313 79.017 149.024C79.4337 148.73 79.642 148.373 79.642 147.952C79.642 147.611 79.5142 147.324 79.2585 147.092C79.0076 146.86 78.6217 146.685 78.1008 146.567L76.2542 146.162C75.2362 145.93 74.4834 145.56 73.9957 145.054C73.5128 144.547 73.2713 143.906 73.2713 143.129C73.2713 142.485 73.4512 141.922 73.8111 141.439C74.1709 140.956 74.6681 140.579 75.3025 140.31C75.937 140.035 76.6638 139.898 77.4829 139.898C78.6619 139.898 79.5899 140.153 80.267 140.665C80.9441 141.171 81.3916 141.851 81.6094 142.703ZM84.1573 150.949V140.04H86.2809V150.949H84.1573ZM85.2297 138.356C84.8604 138.356 84.5432 138.233 84.278 137.987C84.0176 137.736 83.8874 137.438 83.8874 137.092C83.8874 136.742 84.0176 136.444 84.278 136.197C84.5432 135.946 84.8604 135.821 85.2297 135.821C85.5991 135.821 85.9139 135.946 86.1743 136.197C86.4395 136.444 86.5721 136.742 86.5721 137.092C86.5721 137.438 86.4395 137.736 86.1743 137.987C85.9139 138.233 85.5991 138.356 85.2297 138.356ZM88.9105 150.949V149.493L94.8196 141.986V141.886H89.1023V140.04H97.4687V141.588L91.7869 149.003V149.102H97.6676V150.949H88.9105ZM104.562 151.169C103.487 151.169 102.562 150.939 101.785 150.48C101.013 150.016 100.417 149.365 99.9954 148.527C99.5787 147.684 99.3704 146.697 99.3704 145.565C99.3704 144.448 99.5787 143.463 99.9954 142.611C100.417 141.758 101.004 141.093 101.757 140.615C102.514 140.137 103.4 139.898 104.413 139.898C105.029 139.898 105.625 139.999 106.203 140.203C106.78 140.407 107.299 140.726 107.758 141.162C108.217 141.597 108.58 142.163 108.845 142.859C109.11 143.551 109.243 144.391 109.243 145.381V146.133H100.571V144.542H107.162C107.162 143.984 107.048 143.489 106.821 143.058C106.593 142.622 106.274 142.279 105.862 142.028C105.455 141.777 104.976 141.652 104.427 141.652C103.831 141.652 103.31 141.799 102.865 142.092C102.424 142.381 102.083 142.76 101.842 143.229C101.605 143.693 101.487 144.197 101.487 144.741V145.984C101.487 146.713 101.615 147.334 101.87 147.845C102.131 148.356 102.493 148.747 102.957 149.017C103.421 149.282 103.963 149.415 104.583 149.415C104.986 149.415 105.353 149.358 105.684 149.244C106.016 149.126 106.302 148.951 106.544 148.719C106.785 148.487 106.97 148.2 107.098 147.859L109.108 148.221C108.947 148.813 108.658 149.332 108.241 149.777C107.829 150.217 107.311 150.56 106.686 150.807C106.065 151.048 105.358 151.169 104.562 151.169Z" fill="#5B5B5B"/>
<path d="M16.2863 171.275V170.195L22.7707 159.854H23.5661V161.666H22.9766L17.7707 169.989V170.082H26.2721V171.275H16.2863ZM23.0761 174.4V170.934V170.437V159.854H24.3403V174.4H23.0761ZM33.6709 174.599C32.6482 174.599 31.7746 174.305 31.0501 173.718C30.3305 173.126 29.7765 172.272 29.3882 171.154C29.0047 170.037 28.8129 168.694 28.8129 167.127C28.8129 165.565 29.0047 164.227 29.3882 163.114C29.7765 161.997 30.3328 161.142 31.0573 160.55C31.7864 159.954 32.6576 159.656 33.6709 159.656C34.6841 159.656 35.553 159.954 36.2774 160.55C37.0066 161.142 37.5629 161.997 37.9465 163.114C38.3347 164.227 38.5288 165.565 38.5288 167.127C38.5288 168.694 38.3347 170.037 37.9465 171.154C37.5629 172.272 37.009 173.126 36.2845 173.718C35.5648 174.305 34.6936 174.599 33.6709 174.599ZM33.6709 173.406C34.793 173.406 35.669 172.859 36.2987 171.765C36.9285 170.666 37.2433 169.121 37.2433 167.127C37.2433 165.801 37.0989 164.67 36.8101 163.732C36.526 162.79 36.1164 162.07 35.5814 161.573C35.0511 161.076 34.4143 160.827 33.6709 160.827C32.5582 160.827 31.6846 161.381 31.0501 162.489C30.4157 163.593 30.0984 165.139 30.0984 167.127C30.0984 168.453 30.2405 169.585 30.5246 170.522C30.8134 171.46 31.223 172.175 31.7533 172.667C32.2883 173.159 32.9275 173.406 33.6709 173.406ZM49.9067 171.658L41.8953 163.647L42.7263 162.823L50.7376 170.835L49.9067 171.658ZM42.7263 171.658L41.8953 170.835L49.9067 162.823L50.7376 163.647L42.7263 171.658ZM54.0988 171.275V170.195L60.5832 159.854H61.3786V161.666H60.7891L55.5832 169.989V170.082H64.0846V171.275H54.0988ZM60.8886 174.4V170.934V170.437V159.854H62.1528V174.4H60.8886ZM71.4834 174.599C70.4607 174.599 69.5871 174.305 68.8626 173.718C68.143 173.126 67.589 172.272 67.2007 171.154C66.8172 170.037 66.6254 168.694 66.6254 167.127C66.6254 165.565 66.8172 164.227 67.2007 163.114C67.589 161.997 68.1453 161.142 68.8698 160.55C69.5989 159.954 70.4701 159.656 71.4834 159.656C72.4966 159.656 73.3655 159.954 74.0899 160.55C74.8191 161.142 75.3754 161.997 75.759 163.114C76.1472 164.227 76.3413 165.565 76.3413 167.127C76.3413 168.694 76.1472 170.037 75.759 171.154C75.3754 172.272 74.8215 173.126 74.097 173.718C73.3773 174.305 72.5061 174.599 71.4834 174.599ZM71.4834 173.406C72.6055 173.406 73.4815 172.859 74.1112 171.765C74.741 170.666 75.0558 169.121 75.0558 167.127C75.0558 165.801 74.9114 164.67 74.6226 163.732C74.3385 162.79 73.9289 162.07 73.3939 161.573C72.8636 161.076 72.2268 160.827 71.4834 160.827C70.3707 160.827 69.4971 161.381 68.8626 162.489C68.2282 163.593 67.9109 165.139 67.9109 167.127C67.9109 168.453 68.053 169.585 68.3371 170.522C68.6259 171.46 69.0355 172.175 69.5658 172.667C70.1008 173.159 70.74 173.406 71.4834 173.406ZM87.7192 171.658L79.7078 163.647L80.5388 162.823L88.5501 170.835L87.7192 171.658ZM80.5388 171.658L79.7078 170.835L87.7192 162.823L88.5501 163.647L80.5388 171.658ZM91.9113 171.275V170.195L98.3957 159.854H99.1911V161.666H98.6016L93.3957 169.989V170.082H101.897V171.275H91.9113ZM98.7011 174.4V170.934V170.437V159.854H99.9653V174.4H98.7011ZM109.296 174.599C108.273 174.599 107.4 174.305 106.675 173.718C105.955 173.126 105.401 172.272 105.013 171.154C104.63 170.037 104.438 168.694 104.438 167.127C104.438 165.565 104.63 164.227 105.013 163.114C105.401 161.997 105.958 161.142 106.682 160.55C107.411 159.954 108.283 159.656 109.296 159.656C110.309 159.656 111.178 159.954 111.902 160.55C112.632 161.142 113.188 161.997 113.571 163.114C113.96 164.227 114.154 165.565 114.154 167.127C114.154 168.694 113.96 170.037 113.571 171.154C113.188 172.272 112.634 173.126 111.91 173.718C111.19 174.305 110.319 174.599 109.296 174.599ZM109.296 173.406C110.418 173.406 111.294 172.859 111.924 171.765C112.553 170.666 112.868 169.121 112.868 167.127C112.868 165.801 112.724 164.67 112.435 163.732C112.151 162.79 111.741 162.07 111.206 161.573C110.676 161.076 110.039 160.827 109.296 160.827C108.183 160.827 107.31 161.381 106.675 162.489C106.041 163.593 105.723 165.139 105.723 167.127C105.723 168.453 105.865 169.585 106.15 170.522C106.438 171.46 106.848 172.175 107.378 172.667C107.913 173.159 108.553 173.406 109.296 173.406ZM122.733 174.4V163.491H124.005V174.4H122.733ZM123.38 161.616C123.119 161.616 122.897 161.528 122.712 161.353C122.527 161.173 122.435 160.958 122.435 160.707C122.435 160.456 122.527 160.243 122.712 160.068C122.897 159.888 123.119 159.798 123.38 159.798C123.64 159.798 123.863 159.888 124.047 160.068C124.232 160.243 124.324 160.456 124.324 160.707C124.324 160.958 124.232 161.173 124.047 161.353C123.863 161.528 123.64 161.616 123.38 161.616ZM128.612 167.582V174.4H127.348V163.491H128.577V165.202H128.69C128.946 164.644 129.344 164.196 129.884 163.86C130.428 163.519 131.1 163.349 131.901 163.349C132.635 163.349 133.278 163.503 133.832 163.81C134.391 164.113 134.824 164.561 135.132 165.153C135.445 165.745 135.601 166.471 135.601 167.333V174.4H134.337V167.411C134.337 166.516 134.086 165.809 133.584 165.288C133.087 164.767 132.419 164.506 131.581 164.506C131.008 164.506 130.499 164.63 130.054 164.876C129.609 165.122 129.256 165.477 128.996 165.941C128.74 166.4 128.612 166.947 128.612 167.582Z" fill="#4D4D4D"/>
</g>
<defs>
<clipPath id="clip0_101_1725">
<rect width="150" height="183" fill="white"/>
</clipPath>
</defs>
</svg>
