<svg width="148" height="200" viewBox="0 0 148 200" fill="none" xmlns="http://www.w3.org/2000/svg">
<path d="M39.4782 156.727L42.9583 162.416H43.0719L46.552 156.727H49.0946L44.5634 164L49.123 171.273H46.5662L43.0719 165.662H42.9583L39.4639 171.273H36.9071L41.5449 164L36.9355 156.727H39.4782ZM52.7985 156.727L56.2786 162.416H56.3922L59.8723 156.727H62.4149L57.8837 164L62.4434 171.273H59.8865L56.3922 165.662H56.2786L52.7843 171.273H50.2274L54.8652 164L50.2559 156.727H52.7985ZM64.5918 171.273V156.727H66.7864V169.384H73.3773V171.273H64.5918ZM89.1781 163.027L87.2534 163.368C87.1729 163.122 87.045 162.887 86.8698 162.665C86.6994 162.442 86.4674 162.26 86.1738 162.118C85.8803 161.976 85.5133 161.905 85.073 161.905C84.4716 161.905 83.9697 162.04 83.5673 162.31C83.1648 162.575 82.9636 162.918 82.9636 163.339C82.9636 163.704 83.0985 163.998 83.3684 164.22C83.6383 164.443 84.0739 164.625 84.6752 164.767L86.4082 165.165C87.412 165.397 88.1601 165.754 88.6525 166.237C89.1449 166.72 89.3912 167.348 89.3912 168.119C89.3912 168.773 89.2018 169.355 88.823 169.866C88.4489 170.373 87.9257 170.771 87.2534 171.06C86.5858 171.348 85.8116 171.493 84.9309 171.493C83.7093 171.493 82.7126 171.232 81.9409 170.712C81.1691 170.186 80.6956 169.44 80.5204 168.474L82.573 168.162C82.7008 168.697 82.9636 169.102 83.3613 169.376C83.759 169.646 84.2775 169.781 84.9167 169.781C85.6127 169.781 86.1691 169.637 86.5858 169.348C87.0024 169.054 87.2108 168.697 87.2108 168.276C87.2108 167.935 87.0829 167.648 86.8272 167.416C86.5763 167.184 86.1904 167.009 85.6696 166.891L83.823 166.486C82.805 166.254 82.0521 165.884 81.5644 165.378C81.0815 164.871 80.84 164.23 80.84 163.453C80.84 162.809 81.0199 162.246 81.3798 161.763C81.7396 161.28 82.2368 160.903 82.8713 160.634C83.5057 160.359 84.2325 160.222 85.0517 160.222C86.2306 160.222 87.1587 160.477 87.8358 160.989C88.5128 161.495 88.9603 162.175 89.1781 163.027ZM91.726 171.273V160.364H93.8496V171.273H91.726ZM92.7985 158.68C92.4291 158.68 92.1119 158.557 91.8468 158.311C91.5863 158.06 91.4561 157.762 91.4561 157.416C91.4561 157.066 91.5863 156.767 91.8468 156.521C92.1119 156.27 92.4291 156.145 92.7985 156.145C93.1678 156.145 93.4826 156.27 93.7431 156.521C94.0082 156.767 94.1408 157.066 94.1408 157.416C94.1408 157.762 94.0082 158.06 93.7431 158.311C93.4826 158.557 93.1678 158.68 92.7985 158.68ZM96.4792 171.273V169.817L102.388 162.31V162.21H96.671V160.364H105.037V161.912L99.3556 169.327V169.426H105.236V171.273H96.4792ZM112.131 171.493C111.056 171.493 110.13 171.263 109.354 170.804C108.582 170.34 107.985 169.689 107.564 168.851C107.147 168.008 106.939 167.021 106.939 165.889C106.939 164.772 107.147 163.787 107.564 162.935C107.985 162.082 108.573 161.417 109.325 160.939C110.083 160.461 110.968 160.222 111.982 160.222C112.597 160.222 113.194 160.323 113.771 160.527C114.349 160.731 114.868 161.05 115.327 161.486C115.786 161.921 116.148 162.487 116.414 163.183C116.679 163.875 116.811 164.715 116.811 165.705V166.457H108.139V164.866H114.73C114.73 164.308 114.617 163.813 114.389 163.382C114.162 162.946 113.842 162.603 113.431 162.352C113.023 162.101 112.545 161.976 111.996 161.976C111.399 161.976 110.878 162.123 110.433 162.416C109.993 162.705 109.652 163.084 109.411 163.553C109.174 164.017 109.056 164.521 109.056 165.065V166.308C109.056 167.037 109.183 167.658 109.439 168.169C109.7 168.68 110.062 169.071 110.526 169.341C110.99 169.606 111.532 169.739 112.152 169.739C112.555 169.739 112.922 169.682 113.253 169.568C113.584 169.45 113.871 169.275 114.112 169.043C114.354 168.811 114.539 168.524 114.666 168.183L116.676 168.545C116.515 169.137 116.226 169.656 115.81 170.101C115.398 170.541 114.879 170.884 114.254 171.131C113.634 171.372 112.926 171.493 112.131 171.493Z" fill="#5B5B5B"/>
<path d="M53.1493 198.767V183.767H54.3779V185.848H54.5271C54.6786 185.521 54.8869 185.188 55.1521 184.847C55.4172 184.501 55.7676 184.21 56.2032 183.973C56.6436 183.736 57.1975 183.618 57.8652 183.618C58.7648 183.618 59.5508 183.855 60.2231 184.328C60.9002 184.797 61.4258 185.455 61.7998 186.303C62.1786 187.145 62.368 188.128 62.368 189.25C62.368 190.377 62.1786 191.364 61.7998 192.212C61.4258 193.059 60.9002 193.72 60.2231 194.193C59.5508 194.667 58.7695 194.904 57.8794 194.904C57.2212 194.904 56.6696 194.785 56.2245 194.548C55.7842 194.312 55.4267 194.02 55.1521 193.675C54.8822 193.324 54.6739 192.984 54.5271 192.652H54.4135V198.767H53.1493ZM54.3993 189.229C54.3993 190.11 54.5295 190.891 54.7899 191.573C55.055 192.25 55.4338 192.782 55.9262 193.171C56.4234 193.554 57.0247 193.746 57.7302 193.746C58.4546 193.746 59.0654 193.547 59.5626 193.149C60.0645 192.747 60.4457 192.205 60.7061 191.523C60.9712 190.841 61.1038 190.076 61.1038 189.229C61.1038 188.391 60.9736 187.636 60.7132 186.963C60.4575 186.291 60.0787 185.758 59.5768 185.365C59.0749 184.967 58.4594 184.769 57.7302 184.769C57.02 184.769 56.4163 184.96 55.9191 185.344C55.422 185.723 55.0432 186.248 54.7828 186.921C54.5271 187.588 54.3993 188.358 54.3993 189.229ZM68.1883 194.925C67.5302 194.925 66.9288 194.797 66.3843 194.541C65.8398 194.281 65.4066 193.907 65.0846 193.419C64.7627 192.927 64.6017 192.33 64.6017 191.629C64.6017 191.09 64.7035 190.635 64.9071 190.266C65.1107 189.896 65.3995 189.593 65.7735 189.357C66.1476 189.12 66.5903 188.933 67.1017 188.796C67.613 188.658 68.1765 188.552 68.792 188.476C69.4028 188.4 69.9189 188.334 70.3403 188.277C70.7664 188.22 71.0908 188.13 71.3133 188.007C71.5359 187.884 71.6471 187.685 71.6471 187.411V187.155C71.6471 186.412 71.4246 185.827 70.9795 185.401C70.5392 184.97 69.9047 184.754 69.0761 184.754C68.2901 184.754 67.6485 184.927 67.1514 185.273C66.659 185.619 66.3133 186.026 66.1145 186.494L64.9142 186.061C65.1604 185.465 65.5013 184.989 65.9369 184.634C66.3725 184.274 66.8602 184.016 67.4 183.86C67.9397 183.699 68.4866 183.618 69.0406 183.618C69.4573 183.618 69.8905 183.672 70.3403 183.781C70.7948 183.89 71.2162 184.08 71.6045 184.35C71.9928 184.615 72.3076 184.986 72.5491 185.465C72.7906 185.938 72.9113 186.539 72.9113 187.269V194.676H71.6471V192.95H71.569C71.4175 193.272 71.1926 193.585 70.8943 193.888C70.596 194.191 70.2219 194.44 69.7721 194.634C69.3223 194.828 68.7944 194.925 68.1883 194.925ZM68.3588 193.767C69.0311 193.767 69.6135 193.618 70.1059 193.32C70.5984 193.021 70.9771 192.626 71.2423 192.134C71.5122 191.636 71.6471 191.09 71.6471 190.493V188.916C71.5524 189.006 71.3938 189.087 71.1713 189.158C70.9535 189.229 70.7002 189.293 70.4113 189.35C70.1272 189.402 69.8431 189.447 69.5591 189.485C69.275 189.522 69.0193 189.556 68.792 189.584C68.1765 189.66 67.6509 189.778 67.2153 189.939C66.7797 190.1 66.4459 190.323 66.2139 190.607C65.9819 190.886 65.8659 191.246 65.8659 191.686C65.8659 192.349 66.1026 192.863 66.5761 193.227C67.0496 193.587 67.6438 193.767 68.3588 193.767ZM77.5385 180.131V194.676H76.2743V180.131H77.5385ZM82.1478 180.131V194.676H80.8836V180.131H82.1478ZM89.9035 194.904C88.8855 194.904 88.0048 194.667 87.2615 194.193C86.5181 193.715 85.9428 193.055 85.5356 192.212C85.1332 191.364 84.9319 190.389 84.9319 189.286C84.9319 188.187 85.1332 187.212 85.5356 186.36C85.9428 185.503 86.5039 184.833 87.2189 184.35C87.9386 183.862 88.7695 183.618 89.7118 183.618C90.3036 183.618 90.8742 183.727 91.4234 183.945C91.9726 184.158 92.4651 184.487 92.9007 184.932C93.341 185.372 93.689 185.929 93.9447 186.601C94.2004 187.269 94.3282 188.059 94.3282 188.973V189.598H85.8055V188.483H93.0356C93.0356 187.782 92.8936 187.153 92.6095 186.594C92.3301 186.03 91.9395 185.585 91.4376 185.259C90.9404 184.932 90.3652 184.769 89.7118 184.769C89.0205 184.769 88.412 184.953 87.8865 185.323C87.3609 185.692 86.949 186.18 86.6507 186.786C86.3571 187.392 86.208 188.055 86.2032 188.774V189.442C86.2032 190.308 86.3524 191.066 86.6507 191.715C86.9537 192.359 87.3822 192.858 87.9362 193.213C88.4902 193.568 89.1459 193.746 89.9035 193.746C90.4196 193.746 90.8718 193.665 91.26 193.504C91.653 193.343 91.9821 193.128 92.2473 192.858C92.5171 192.583 92.7207 192.283 92.8581 191.956L94.0583 192.347C93.8926 192.806 93.6204 193.23 93.2416 193.618C92.8675 194.006 92.3988 194.319 91.8353 194.556C91.2766 194.788 90.6327 194.904 89.9035 194.904ZM101.411 183.767V184.868H96.205V183.767H101.411ZM97.8314 181.154H99.1027V191.828C99.1027 192.283 99.1809 192.64 99.3371 192.901C99.4934 193.156 99.697 193.339 99.9479 193.448C100.199 193.552 100.466 193.604 100.75 193.604C100.916 193.604 101.058 193.594 101.177 193.575C101.295 193.552 101.399 193.528 101.489 193.504L101.759 194.648C101.636 194.695 101.484 194.738 101.304 194.776C101.125 194.818 100.902 194.84 100.637 194.84C100.173 194.84 99.7254 194.738 99.2945 194.534C98.8684 194.331 98.518 194.028 98.2434 193.625C97.9687 193.223 97.8314 192.723 97.8314 192.127V181.154Z" fill="#4D4D4D"/>
<path d="M76.4128 137.068C115.43 137.068 147.06 129.706 147.06 120.624C147.06 111.542 115.43 104.18 76.4128 104.18C37.3954 104.18 5.76562 111.542 5.76562 120.624C5.76562 129.706 37.3954 137.068 76.4128 137.068Z" fill="black" fill-opacity="0.11"/>
<path d="M97.8194 4.45796L131.994 22.1284C134.435 23.3824 136.388 26.4586 136.388 28.9667V89.3537L139.288 90.8569V28.7307C139.288 25.1914 136.485 20.8656 133.063 19.0784L97.6582 0.774436C94.2408 -0.97338 91.4336 0.45546 91.4336 3.99479V66.1165L94.3628 67.6284V6.23199C94.3824 4.27881 95.93 3.47918 97.8194 4.45796Z" fill="#E0E0E0"/>
<path d="M71.4512 139.402C71.4512 136.221 73.9508 132.35 77.0314 130.759C78.6474 129.92 80.0973 129.886 81.1177 130.497L84.8769 132.42L76.88 144.589L73.1501 142.666C72.1102 142.151 71.4512 141.028 71.4512 139.402Z" fill="#455A64"/>
<path d="M80.9367 132.774C77.8561 134.364 75.3564 138.236 75.3564 141.417C75.3564 144.598 77.8561 145.891 80.9367 144.301C84.0173 142.71 86.5218 138.839 86.5218 135.653C86.5218 132.468 84.0173 131.179 80.9367 132.774Z" fill="#37474F"/>
<path d="M82.8266 137.558C82.8266 136.317 81.9771 135.745 80.9372 136.283C79.8973 136.82 79.0479 138.266 79.0479 139.512C79.0479 140.757 79.8924 141.329 80.9372 140.788C81.982 140.246 82.8266 138.804 82.8266 137.558Z" fill="#263238"/>
<path d="M74.4002 127.46C74.4002 127.46 74.4002 133.141 77.4368 135.173C78.008 135.553 78.6134 135.815 78.9698 136.082C79.746 136.658 79.2334 137.716 78.2912 138.17C76.9242 138.826 69.479 137.052 66.3252 131.616L74.4002 127.46Z" fill="#F0F0F0"/>
<path d="M77.2908 128.959C77.2908 128.959 77.2908 134.64 80.3274 136.671C80.8986 137.052 81.504 137.314 81.8653 137.58C82.6367 138.157 82.124 139.219 81.1818 139.669C79.8148 140.324 72.3696 138.55 69.2158 133.115L77.2908 128.959Z" fill="#FAFAFA"/>
<path d="M80.9364 137.982C80.7801 138.073 80.65 138.195 80.5567 138.34C80.4634 138.484 80.4095 138.646 80.3994 138.813C80.3994 139.118 80.6386 139.249 80.9364 139.088C81.0916 138.996 81.2205 138.874 81.313 138.729C81.4054 138.585 81.4587 138.424 81.4686 138.258C81.4686 137.956 81.2294 137.829 80.9364 137.982Z" fill="#263238"/>
<path d="M132.009 108.112C132.009 104.927 134.508 101.055 137.589 99.4648C139.205 98.6302 140.655 98.5909 141.675 99.207L145.435 101.13L137.438 113.294L133.708 111.376C132.668 110.861 132.009 109.733 132.009 108.112Z" fill="#455A64"/>
<path d="M141.495 101.479C138.415 103.07 135.915 106.941 135.915 110.126C135.915 113.312 138.415 114.601 141.495 113.01C144.576 111.42 147.061 107.548 147.061 104.363C147.061 101.178 144.576 99.8886 141.495 101.479Z" fill="#37474F"/>
<path d="M143.383 106.268C143.383 105.023 142.534 104.45 141.494 104.992C140.454 105.534 139.604 106.976 139.604 108.221C139.604 109.467 140.449 110.035 141.494 109.497C142.539 108.96 143.383 107.514 143.383 106.268Z" fill="#263238"/>
<path d="M134.958 96.1877C134.958 96.1877 134.958 101.868 137.994 103.9C138.566 104.28 139.171 104.542 139.527 104.809C140.304 105.386 139.791 106.447 138.849 106.897C137.482 107.553 130.037 105.779 126.883 100.343L134.958 96.1877Z" fill="#F0F0F0"/>
<path d="M137.846 97.6514C137.846 97.6514 137.846 103.332 140.883 105.364C141.454 105.744 142.06 106.006 142.421 106.277C143.192 106.849 142.68 107.911 141.737 108.361C140.37 109.017 132.925 107.242 129.771 101.807L137.846 97.6514Z" fill="#FAFAFA"/>
<path d="M141.495 106.674C141.339 106.765 141.209 106.888 141.115 107.032C141.022 107.176 140.968 107.338 140.958 107.505C140.958 107.806 141.197 107.942 141.495 107.78C141.65 107.688 141.779 107.566 141.872 107.421C141.964 107.277 142.017 107.116 142.027 106.95C142.027 106.674 141.788 106.539 141.495 106.674Z" fill="#263238"/>
<path d="M142.242 92.3642L88.5386 64.6089L0.802734 109.943L54.5008 137.703L142.242 92.3642Z" fill="#455A64"/>
<path d="M142.242 92.3643V95.3836L54.501 140.722V137.703L142.242 92.3643Z" fill="#37474F"/>
<path d="M0.802734 109.943V112.962L54.5007 140.722V137.703L0.802734 109.943Z" fill="#263238"/>
<path opacity="0.1" d="M133.395 95.7897L87.3377 119.599L40.3623 95.3571L86.5468 71.6086L133.395 95.7897Z" fill="black"/>
<path d="M131.829 67.4796L89.6476 45.645L45.0693 68.738L87.2505 90.5726L131.829 67.4796Z" fill="#FED0AC"/>
<path opacity="0.7" d="M131.829 67.4796L89.6476 45.645L45.0693 68.738L87.2505 90.5726L131.829 67.4796Z" fill="#D3976E"/>
<path d="M87.251 116.96L131.829 93.8713V67.4792L87.251 90.5723V116.96Z" fill="#FED0AC"/>
<path opacity="0.6" d="M87.251 116.96L131.829 93.8713V67.4792L87.251 90.5723V116.96Z" fill="#D3976E"/>
<path d="M92.1718 108.221C92.0364 108.222 91.9032 108.19 91.7861 108.129C91.6189 108.024 91.4858 107.88 91.4001 107.714C91.3144 107.547 91.2791 107.364 91.2979 107.181V104.385V104.179L91.459 104.206L93.9 102.917V106.036C93.8951 106.438 93.7831 106.832 93.5733 107.187C93.3636 107.542 93.0622 107.847 92.6941 108.077C92.537 108.165 92.3569 108.215 92.1718 108.221ZM91.6836 104.594V107.181C91.6664 107.301 91.6829 107.423 91.7314 107.536C91.78 107.649 91.8592 107.749 91.9618 107.828C92.0485 107.859 92.1424 107.871 92.2353 107.861C92.3281 107.852 92.417 107.823 92.494 107.775C92.8012 107.573 93.0522 107.31 93.2275 107.007C93.4028 106.704 93.4976 106.369 93.5046 106.028V105.8H92.5965L92.4207 104.704L91.6836 104.594ZM92.9382 105.468H93.5046V103.537L92.0399 104.306L92.7625 104.424L92.9382 105.468Z" fill="#455A64"/>
<path d="M92.6113 110.436C92.5595 110.436 92.5098 110.418 92.4732 110.385C92.4366 110.352 92.416 110.308 92.416 110.262V107.911C92.416 107.865 92.4366 107.82 92.4732 107.787C92.5098 107.754 92.5595 107.736 92.6113 107.736C92.6631 107.736 92.7128 107.754 92.7494 107.787C92.786 107.82 92.8066 107.865 92.8066 107.911V110.262C92.8066 110.308 92.786 110.352 92.7494 110.385C92.7128 110.418 92.6631 110.436 92.6113 110.436Z" fill="#455A64"/>
<path d="M91.473 111.026C91.4383 111.027 91.4041 111.019 91.374 111.004C91.3439 110.989 91.319 110.966 91.3022 110.939C91.2889 110.919 91.2802 110.897 91.2765 110.874C91.2727 110.852 91.2741 110.828 91.2804 110.806C91.2868 110.784 91.298 110.763 91.3135 110.744C91.3289 110.726 91.3483 110.71 91.3705 110.699L93.6553 109.519C93.6777 109.507 93.7024 109.5 93.7281 109.497C93.7538 109.494 93.7799 109.495 93.8049 109.501C93.8299 109.507 93.8533 109.518 93.8737 109.532C93.8941 109.546 93.9112 109.564 93.9238 109.584C93.9488 109.625 93.9552 109.673 93.9415 109.718C93.9278 109.763 93.8953 109.801 93.8506 109.825L91.5707 111.004C91.54 111.017 91.5068 111.025 91.473 111.026Z" fill="#455A64"/>
<path d="M99.6018 106.98C99.5253 106.98 99.4501 106.963 99.3821 106.932C99.3025 106.885 99.2387 106.819 99.1974 106.742C99.1562 106.666 99.139 106.58 99.1477 106.495V106.036C99.1552 105.994 99.1791 105.956 99.2154 105.928C99.2516 105.9 99.2978 105.885 99.3455 105.885C99.3931 105.885 99.4393 105.9 99.4755 105.928C99.5118 105.956 99.5358 105.994 99.5432 106.036V106.517C99.5432 106.591 99.5432 106.626 99.5822 106.635C99.6213 106.644 99.6408 106.635 99.7092 106.604C99.8298 106.503 99.9248 106.379 99.988 106.242C100.051 106.105 100.081 105.957 100.075 105.809V102.685C100.075 102.638 100.096 102.594 100.133 102.561C100.169 102.528 100.219 102.51 100.271 102.51C100.322 102.51 100.372 102.528 100.409 102.561C100.445 102.594 100.466 102.638 100.466 102.685V105.809C100.475 106.018 100.43 106.226 100.333 106.417C100.237 106.607 100.092 106.775 99.9093 106.906C99.8161 106.955 99.7099 106.981 99.6018 106.98Z" fill="#455A64"/>
<path d="M97.5322 104.249V103.943C97.5796 103.164 97.8314 102.405 98.2674 101.728C98.7034 101.052 99.3112 100.477 100.042 100.05C100.302 99.8511 100.626 99.7293 100.967 99.7013C101.308 99.6733 101.651 99.7405 101.948 99.8937C102.244 100.047 102.481 100.279 102.625 100.557C102.769 100.835 102.813 101.147 102.751 101.448V101.549L97.5322 104.249ZM101.218 100.081C100.871 100.094 100.535 100.189 100.242 100.356C99.6187 100.723 99.0912 101.205 98.6953 101.771C98.2993 102.336 98.0442 102.971 97.9472 103.633L102.341 101.348C102.356 101.127 102.309 100.906 102.203 100.706C102.097 100.505 101.936 100.333 101.736 100.203C101.578 100.122 101.4 100.08 101.218 100.081Z" fill="#455A64"/>
<path d="M106.651 103.38C106.6 103.38 106.55 103.361 106.513 103.329C106.477 103.296 106.456 103.251 106.456 103.205V97.223C106.463 97.1809 106.487 97.1425 106.524 97.1148C106.56 97.087 106.606 97.0718 106.654 97.0718C106.701 97.0718 106.748 97.087 106.784 97.1148C106.82 97.1425 106.844 97.1809 106.852 97.223V103.205C106.852 103.228 106.846 103.251 106.836 103.273C106.826 103.294 106.811 103.314 106.793 103.33C106.774 103.346 106.752 103.359 106.728 103.368C106.703 103.376 106.677 103.38 106.651 103.38Z" fill="#455A64"/>
<path d="M106.08 98.6083C106.054 98.6129 106.028 98.6129 106.002 98.6083C105.978 98.5993 105.957 98.5861 105.938 98.5695C105.92 98.5529 105.906 98.5333 105.897 98.5117C105.887 98.4902 105.882 98.4671 105.883 98.444C105.883 98.4208 105.889 98.3979 105.899 98.3767L106.598 96.9304L107.379 97.7388C107.412 97.7741 107.429 97.82 107.425 97.8663C107.421 97.9126 107.396 97.9555 107.357 97.9857C107.317 98.0158 107.266 98.0307 107.214 98.027C107.163 98.0233 107.115 98.0013 107.081 97.966L106.71 97.5859L106.261 98.5166C106.243 98.5452 106.217 98.5689 106.185 98.5851C106.153 98.6012 106.117 98.6093 106.08 98.6083Z" fill="#455A64"/>
<path d="M108.473 102.454C108.447 102.454 108.421 102.45 108.397 102.442C108.373 102.433 108.351 102.42 108.332 102.404C108.313 102.388 108.298 102.368 108.288 102.347C108.278 102.325 108.273 102.302 108.273 102.279V96.2969C108.268 96.2713 108.27 96.2452 108.278 96.2203C108.286 96.1954 108.3 96.1723 108.319 96.1526C108.337 96.1329 108.361 96.1171 108.387 96.1063C108.413 96.0955 108.442 96.0898 108.471 96.0898C108.5 96.0898 108.528 96.0955 108.554 96.1063C108.581 96.1171 108.604 96.1329 108.623 96.1526C108.642 96.1723 108.655 96.1954 108.663 96.2203C108.671 96.2452 108.673 96.2713 108.668 96.2969V102.279C108.668 102.325 108.648 102.37 108.611 102.402C108.575 102.435 108.525 102.454 108.473 102.454Z" fill="#455A64"/>
<path d="M107.897 97.6599C107.871 97.6644 107.844 97.6644 107.818 97.6599C107.795 97.6508 107.773 97.6376 107.755 97.6211C107.737 97.6045 107.723 97.5848 107.713 97.5633C107.703 97.5417 107.699 97.5187 107.699 97.4955C107.7 97.4723 107.705 97.4495 107.716 97.4283L108.429 95.9863L109.21 96.7903C109.227 96.8078 109.24 96.8282 109.248 96.8501C109.256 96.8721 109.259 96.8953 109.258 96.9185C109.256 96.9416 109.249 96.9642 109.237 96.9849C109.226 97.0057 109.21 97.0242 109.19 97.0394C109.171 97.0546 109.148 97.0662 109.123 97.0736C109.099 97.0809 109.073 97.0839 109.047 97.0822C109.021 97.0806 108.996 97.0744 108.973 97.0641C108.95 97.0537 108.929 97.0394 108.912 97.0219L108.541 96.6374L108.092 97.5725C108.072 97.6024 108.043 97.6266 108.009 97.6421C107.974 97.6576 107.935 97.6638 107.897 97.6599Z" fill="#455A64"/>
<path d="M87.2505 116.96L45.0693 95.1298V68.7378L87.2505 90.5724V116.96Z" fill="#FED0AC"/>
<path opacity="0.5" d="M87.2505 116.96L45.0693 95.1298V68.7378L87.2505 90.5724V116.96Z" fill="#D3976E"/>
<path d="M62.7764 81.8989L65.6666 83.389V79.3777L62.7764 77.8877V81.8989Z" fill="#37474F"/>
<path d="M65.6666 79.3821L110.245 56.2891L107.355 54.7947L62.7764 77.8877L65.6666 79.3821Z" fill="#455A64"/>
<path d="M64.0859 77.2062L66.9712 78.7006L68.5823 77.8704L65.697 76.376L64.0859 77.2062Z" fill="#37474F"/>
<path d="M110.383 59.6537L98.5731 65.7405C98.3583 65.8541 98.4168 66.0595 98.7 66.208L112.033 73.0988C112.168 73.1703 112.32 73.2134 112.476 73.2247C112.633 73.2361 112.79 73.2154 112.936 73.1643L124.746 67.0732C124.961 66.964 124.902 66.7542 124.619 66.6057L111.262 59.7193C111.13 59.6502 110.983 59.6085 110.831 59.5971C110.678 59.5858 110.525 59.6051 110.383 59.6537Z" fill="#FAFAFA"/>
<path d="M116.323 70.0139C116.366 70.0137 116.408 70.0035 116.445 69.9843C116.482 69.9651 116.512 69.9377 116.533 69.9047C116.565 69.8548 116.574 69.7956 116.558 69.7399C116.541 69.6843 116.501 69.6367 116.446 69.6075L105.373 63.8878C105.318 63.8655 105.256 63.8623 105.198 63.8788C105.14 63.8953 105.092 63.9303 105.061 63.9771C105.031 64.0238 105.021 64.079 105.034 64.1319C105.046 64.1849 105.08 64.2318 105.129 64.2636L116.201 69.9833C116.238 70.0045 116.28 70.0152 116.323 70.0139Z" fill="#E0E0E0"/>
<path d="M115.094 70.643C115.147 70.6425 115.199 70.6265 115.241 70.5973C115.283 70.5681 115.313 70.5273 115.327 70.4813C115.341 70.4352 115.337 70.3864 115.317 70.3422C115.297 70.2981 115.262 70.261 115.216 70.2367L104.148 64.5257C104.092 64.4968 104.025 64.4889 103.962 64.5036C103.899 64.5183 103.845 64.5544 103.811 64.6043C103.781 64.6557 103.773 64.7155 103.79 64.7716C103.808 64.8277 103.848 64.8758 103.904 64.9058L114.972 70.6212C115.009 70.6389 115.051 70.6464 115.094 70.643Z" fill="#E0E0E0"/>
<path d="M113.862 71.2724C113.916 71.272 113.967 71.2559 114.009 71.2267C114.052 71.1975 114.082 71.1567 114.096 71.1107C114.109 71.0646 114.106 71.0158 114.086 70.9716C114.066 70.9275 114.03 70.8904 113.984 70.8661L102.917 65.1463C102.86 65.1174 102.794 65.1096 102.731 65.1248C102.668 65.1399 102.615 65.1768 102.582 65.2272C102.55 65.2776 102.541 65.3374 102.558 65.3936C102.575 65.4497 102.616 65.4975 102.673 65.5265L113.74 71.2462C113.778 71.2632 113.82 71.2721 113.862 71.2724Z" fill="#E0E0E0"/>
<path d="M112.632 71.9059C112.675 71.906 112.718 71.896 112.756 71.8768C112.793 71.8577 112.825 71.83 112.847 71.7967C112.878 71.7454 112.885 71.6855 112.868 71.6294C112.85 71.5733 112.81 71.5253 112.754 71.4952L101.687 65.7798C101.659 65.7618 101.627 65.7493 101.594 65.7429C101.561 65.7365 101.526 65.7364 101.493 65.7427C101.459 65.749 101.428 65.7615 101.4 65.7795C101.372 65.7974 101.349 65.8203 101.332 65.8467C101.315 65.8731 101.304 65.9025 101.3 65.9329C101.297 65.9633 101.3 65.994 101.31 66.0231C101.321 66.0522 101.338 66.0791 101.361 66.1019C101.383 66.1247 101.411 66.143 101.442 66.1556L112.51 71.8753C112.547 71.8956 112.589 71.9062 112.632 71.9059Z" fill="#E0E0E0"/>
<path d="M123.608 66.7978L123.173 66.575L118.135 69.1792L118.564 69.402L123.608 66.7978Z" fill="#455A64"/>
<path d="M121.856 65.8936L121.109 65.509L116.065 68.1176L116.812 68.4978L121.856 65.8936Z" fill="#455A64"/>
<path d="M120.103 64.9846L119.673 64.7617L114.63 67.3703L115.059 67.5888L120.103 64.9846Z" fill="#455A64"/>
<path d="M118.788 64.2985L117.919 63.8572L112.876 66.4614L113.745 66.9027L118.788 64.2985Z" fill="#455A64"/>
<path d="M116.597 63.1755L116.167 62.9526L111.124 65.5569L111.554 65.7797L116.597 63.1755Z" fill="#455A64"/>
<path d="M115.347 62.5158L114.414 62.0439L109.371 64.6526L110.304 65.1245L115.347 62.5158Z" fill="#455A64"/>
<path d="M113.097 61.362L112.662 61.1392L107.624 63.7478L108.054 63.9663L113.097 61.362Z" fill="#455A64"/>
<path d="M112.101 60.8424L111.886 60.7332L106.843 63.3374L107.058 63.451L112.101 60.8424Z" fill="#455A64"/>
<path d="M113.868 61.7904L113.654 61.6768L108.61 64.281L108.825 64.3946L113.868 61.7904Z" fill="#455A64"/>
<path d="M117.417 63.6038L117.202 63.4902L112.159 66.0988L112.374 66.2081L117.417 63.6038Z" fill="#455A64"/>
<path d="M119.346 64.6043L119.131 64.4907L114.088 67.0993L114.303 67.2086L119.346 64.6043Z" fill="#455A64"/>
<path d="M120.712 65.3341L120.497 65.2205L115.454 67.8291L115.669 67.9383L120.712 65.3341Z" fill="#455A64"/>
<path d="M122.631 66.2867L122.416 66.1775L117.373 68.7817L117.588 68.891L122.631 66.2867Z" fill="#455A64"/>
<path d="M111.343 60.4575L110.908 60.2346L105.87 62.8389L106.3 63.0617L111.343 60.4575Z" fill="#455A64"/>
<path d="M118.135 91.2452V97.8651C118.135 98.1185 118.335 98.2234 118.584 98.0967L130.13 92.1279C130.26 92.0525 130.368 91.9507 130.445 91.8306C130.522 91.7106 130.567 91.5758 130.574 91.4375V84.8133C130.574 84.5598 130.374 84.455 130.13 84.5817L118.584 90.5548C118.453 90.6297 118.344 90.7313 118.266 90.8514C118.188 90.9715 118.143 91.1065 118.135 91.2452Z" fill="#FAFAFA"/>
<path d="M129.857 85.53L129.486 85.7223V91.7391L129.857 91.5469V85.53Z" fill="#455A64"/>
<path d="M128.339 86.3164L127.694 86.6529V92.6697L128.339 92.3333V86.3164Z" fill="#455A64"/>
<path d="M126.82 87.0989L126.449 87.2911V93.308L126.82 93.1157V87.0989Z" fill="#455A64"/>
<path d="M125.678 87.6799L124.931 88.0732V94.0944L125.678 93.6968V87.6799Z" fill="#455A64"/>
<path d="M123.783 88.6675L123.412 88.8597V94.8766L123.783 94.6843V88.6675Z" fill="#455A64"/>
<path d="M122.695 89.218L121.895 89.6419V95.6587L122.695 95.2349V89.218Z" fill="#455A64"/>
<path d="M120.751 90.2317L120.38 90.4283V96.4452L120.751 96.2529V90.2317Z" fill="#455A64"/>
<path d="M119.883 90.6731L119.697 90.7692V96.7861L119.883 96.6943V90.6731Z" fill="#455A64"/>
<path d="M121.445 89.9041L121.255 90.0046V96.0214L121.445 95.9253V89.9041Z" fill="#455A64"/>
<path d="M124.501 88.3049L124.315 88.4011V94.4179L124.501 94.3218V88.3049Z" fill="#455A64"/>
<path d="M126.175 87.4441L125.984 87.5402V93.5571L126.175 93.4609V87.4441Z" fill="#455A64"/>
<path d="M127.376 86.8499L127.19 86.946V92.9628L127.376 92.8667V86.8499Z" fill="#455A64"/>
<path d="M129.006 85.9626L128.82 86.0588V92.0756L129.006 91.9795V85.9626Z" fill="#455A64"/>
<path d="M119.232 91.0181L118.861 91.2103V97.2272L119.232 97.0349V91.0181Z" fill="#455A64"/>
<path opacity="0.1" d="M128.962 66.9204L88.0355 88.0908L44.7461 65.6751L85.6677 44.5046L128.962 66.9204Z" fill="black"/>
<path d="M43.6182 37.0063L82.8799 16.6836L127.302 39.6892L88.0451 60.0119L43.6182 37.0063Z" fill="#FED0AC"/>
<path opacity="0.3" d="M43.6182 37.0063L82.8799 16.6836L127.302 39.6892L88.0451 60.0119L43.6182 37.0063Z" fill="#D3976E"/>
<path d="M62.4342 29.8099L74.2537 35.8966C74.4685 36.0059 74.4099 36.2156 74.1268 36.3642L60.7938 43.2506C60.6595 43.3237 60.5081 43.3681 60.3514 43.3802C60.1947 43.3923 60.037 43.3719 59.8906 43.3205L48.0809 37.2293C47.8661 37.1157 47.9247 36.9104 48.2078 36.7618L61.5603 29.8754C61.6902 29.8042 61.8368 29.7613 61.9886 29.7499C62.1403 29.7385 62.2929 29.759 62.4342 29.8099Z" fill="#FAFAFA"/>
<path d="M56.4736 40.1701C56.4303 40.1697 56.3879 40.1595 56.3503 40.1404C56.3127 40.1213 56.2812 40.0939 56.2588 40.0608C56.2272 40.0104 56.2192 39.9508 56.2365 39.8951C56.2539 39.8394 56.2953 39.7922 56.3515 39.7637L67.4192 34.044C67.4468 34.026 67.4784 34.0134 67.5118 34.007C67.5452 34.0006 67.5797 34.0006 67.6131 34.0069C67.6465 34.0132 67.6781 34.0257 67.7058 34.0436C67.7335 34.0615 67.7567 34.0844 67.7738 34.1109C67.791 34.1373 67.8018 34.1667 67.8055 34.197C67.8092 34.2274 67.8057 34.2582 67.7953 34.2873C67.7849 34.3164 67.7677 34.3432 67.745 34.3661C67.7223 34.3889 67.6944 34.4072 67.6633 34.4198L56.5956 40.1395C56.559 40.1597 56.5167 40.1703 56.4736 40.1701Z" fill="#E0E0E0"/>
<path d="M57.6974 40.7995C57.6548 40.7992 57.6131 40.789 57.5762 40.7699C57.5394 40.7507 57.5088 40.7233 57.4875 40.6902C57.4555 40.6403 57.4468 40.5811 57.4632 40.5255C57.4797 40.4699 57.52 40.4223 57.5754 40.3931L68.648 34.6734C68.6756 34.6554 68.7071 34.6428 68.7405 34.6364C68.7739 34.63 68.8084 34.63 68.8419 34.6363C68.8753 34.6426 68.9069 34.6551 68.9345 34.673C68.9622 34.6909 68.9854 34.7138 69.0026 34.7403C69.0197 34.7667 69.0305 34.796 69.0342 34.8264C69.0379 34.8568 69.0344 34.8876 69.024 34.9167C69.0136 34.9458 68.9965 34.9726 68.9737 34.9955C68.951 35.0183 68.9232 35.0366 68.8921 35.0492L57.8195 40.7689C57.7833 40.7901 57.7407 40.8008 57.6974 40.7995Z" fill="#E0E0E0"/>
<path d="M58.9291 41.4285C58.8758 41.428 58.8242 41.4119 58.7821 41.3827C58.74 41.3535 58.7097 41.3128 58.6959 41.2667C58.682 41.2207 58.6854 41.1719 58.7055 41.1277C58.7256 41.0835 58.7612 41.0465 58.8071 41.0221L69.8601 35.3024C69.8875 35.2876 69.918 35.2779 69.9497 35.2739C69.9814 35.2698 70.0137 35.2715 70.0447 35.2789C70.0756 35.2862 70.1046 35.299 70.13 35.3166C70.1553 35.3341 70.1764 35.3561 70.1921 35.381C70.2243 35.4316 70.2332 35.4915 70.2168 35.5478C70.2004 35.6042 70.16 35.6525 70.1042 35.6825L59.0365 41.4023C59.0032 41.4178 58.9666 41.4267 58.9291 41.4285Z" fill="#E0E0E0"/>
<path d="M60.1594 42.0578C60.1166 42.0585 60.0744 42.0487 60.0374 42.0295C60.0003 42.0102 59.9699 41.9822 59.9494 41.9486C59.9174 41.8987 59.9087 41.8395 59.9251 41.7839C59.9416 41.7282 59.9819 41.6807 60.0373 41.6515L71.105 35.9317C71.1613 35.9028 71.2282 35.895 71.2909 35.9102C71.3536 35.9253 71.407 35.9622 71.4394 36.0126C71.4718 36.063 71.4804 36.1228 71.4635 36.179C71.4466 36.2351 71.4054 36.2829 71.3491 36.3119L60.2814 42.0316C60.2435 42.0486 60.2017 42.0575 60.1594 42.0578Z" fill="#E0E0E0"/>
<path d="M49.1885 36.954L49.6181 36.7312L54.6613 39.3354L54.2268 39.5583L49.1885 36.954Z" fill="#455A64"/>
<path d="M50.9414 36.0452L51.6835 35.665L56.7267 38.2693L55.9797 38.6538L50.9414 36.0452Z" fill="#455A64"/>
<path d="M52.6895 35.1408L53.124 34.918L58.1623 37.5222L57.7327 37.7451L52.6895 35.1408Z" fill="#455A64"/>
<path d="M54.002 34.4545L54.871 34.0132L59.9142 36.6174L59.0452 37.0588L54.002 34.4545Z" fill="#455A64"/>
<path d="M56.1934 33.3274L56.623 33.1089L61.6662 35.7131L61.2365 35.936L56.1934 33.3274Z" fill="#455A64"/>
<path d="M57.4453 32.6721L58.3778 32.2002L63.421 34.8088L62.4885 35.2763L57.4453 32.6721Z" fill="#455A64"/>
<path d="M59.6992 31.5185L60.1288 31.2957L65.172 33.8999L64.7375 34.1227L59.6992 31.5185Z" fill="#455A64"/>
<path d="M60.6963 30.9982L60.9111 30.8889L65.9494 33.4932L65.7346 33.6024L60.6963 30.9982Z" fill="#455A64"/>
<path d="M58.9229 31.9422L59.1377 31.833L64.1808 34.4373L63.966 34.5509L58.9229 31.9422Z" fill="#455A64"/>
<path d="M55.374 33.7598L55.5888 33.6462L60.632 36.2505L60.4172 36.3641L55.374 33.7598Z" fill="#455A64"/>
<path d="M53.4453 34.7606L53.6601 34.647L58.7033 37.2556L58.4885 37.3648L53.4453 34.7606Z" fill="#455A64"/>
<path d="M52.0781 35.4903L52.2978 35.3767L57.3361 37.981L57.1213 38.0946L52.0781 35.4903Z" fill="#455A64"/>
<path d="M50.1611 36.4427L50.3808 36.3291L55.4191 38.9377L55.2043 39.047L50.1611 36.4427Z" fill="#455A64"/>
<path d="M61.4521 30.614L61.8818 30.3911L66.925 32.9954L66.4905 33.2182L61.4521 30.614Z" fill="#455A64"/>
<path d="M88.0451 86.4042L43.6182 63.3986V37.0066L88.0451 60.0122V86.4042Z" fill="#FED0AC"/>
<path d="M88.0449 86.4042L127.302 66.0815V39.6895L88.0449 60.0122V86.4042Z" fill="#FED0AC"/>
<path opacity="0.1" d="M88.0449 86.4042L127.302 66.0815V39.6895L88.0449 60.0122V86.4042Z" fill="black"/>
<path d="M109.594 52.8506L106.709 54.3406V50.3294L109.594 48.8394V52.8506Z" fill="#37474F"/>
<path d="M106.709 50.3335L62.2822 27.3279L65.1675 25.8335L109.594 48.8391L106.709 50.3335Z" fill="#455A64"/>
<path d="M71.7586 73.7806C71.4456 73.5822 71.1892 73.3206 71.0102 73.0169C70.8312 72.7132 70.7347 72.3761 70.7285 72.0328V69.3586L72.8229 70.4598H72.9596V70.6433V73.0334C72.9782 73.1887 72.9499 73.3455 72.8778 73.4877C72.8057 73.6299 72.6923 73.7521 72.5495 73.8418C72.4506 73.8943 72.3374 73.9215 72.2224 73.9204C72.0571 73.9098 71.8975 73.8617 71.7586 73.7806ZM71.993 70.9011L71.8416 71.8405H71.0654V72.0372C71.0727 72.3269 71.1545 72.6112 71.3043 72.868C71.4542 73.1249 71.6681 73.3475 71.9295 73.5184C71.9939 73.5613 72.0697 73.5883 72.1494 73.5967C72.229 73.6051 72.3098 73.5947 72.3835 73.5665C72.4718 73.5 72.5399 73.4148 72.5817 73.3186C72.6235 73.2224 72.6376 73.1183 72.6228 73.0159V70.8006L71.993 70.9011ZM71.6952 70.6433L72.3152 70.5472L71.0654 69.8874V71.539H71.5536L71.6952 70.6433Z" fill="#455A64"/>
<path d="M71.8467 75.8078C71.8907 75.8078 71.9329 75.7922 71.964 75.7643C71.9952 75.7365 72.0126 75.6987 72.0126 75.6593V73.6493C72.0126 73.6099 71.9952 73.5721 71.964 73.5442C71.9329 73.5164 71.8907 73.5007 71.8467 73.5007C71.8022 73.5007 71.7594 73.5162 71.7275 73.544C71.6956 73.5717 71.6771 73.6095 71.6758 73.6493V75.6593C71.6771 75.6991 71.6956 75.7369 71.7275 75.7646C71.7594 75.7923 71.8022 75.8079 71.8467 75.8078Z" fill="#455A64"/>
<path d="M72.8175 76.3235C72.8554 76.3256 72.8929 76.316 72.9239 76.2964C72.9549 76.2767 72.9774 76.2482 72.9876 76.2154C72.9979 76.1827 72.9953 76.1479 72.9804 76.1166C72.9654 76.0854 72.9389 76.0597 72.9053 76.0438L70.9525 75.0345C70.9137 75.0148 70.8677 75.0097 70.8246 75.0203C70.7816 75.031 70.7451 75.0565 70.723 75.0913C70.701 75.126 70.6954 75.1672 70.7073 75.2057C70.7192 75.2442 70.7477 75.2769 70.7865 75.2966L72.7393 76.3016C72.7625 76.3154 72.7896 76.323 72.8175 76.3235Z" fill="#455A64"/>
<path d="M78.648 79.4129C78.7125 79.4134 78.7761 79.3999 78.8335 79.3736C78.8994 79.3341 78.9525 79.2798 78.9876 79.2161C79.0227 79.1525 79.0386 79.0818 79.0337 79.0109V78.6002C79.0337 78.5604 79.0164 78.5221 78.9854 78.4936C78.9544 78.465 78.9122 78.4484 78.8677 78.4472C78.8453 78.4472 78.8231 78.4512 78.8023 78.4589C78.7816 78.4666 78.7628 78.4779 78.7469 78.4921C78.731 78.5063 78.7184 78.5231 78.7098 78.5417C78.7013 78.5602 78.6968 78.5801 78.6968 78.6002V79.0109C78.7009 79.0465 78.6905 79.0822 78.6675 79.1114C78.6277 79.1159 78.5875 79.1065 78.5553 79.0852C78.4515 78.9993 78.3698 78.8942 78.3159 78.7773C78.2619 78.6604 78.237 78.5343 78.2428 78.4079V75.7381C78.2428 75.6983 78.2255 75.6601 78.1945 75.6315C78.1635 75.603 78.1213 75.5863 78.0768 75.5852C78.0315 75.5852 77.988 75.6013 77.956 75.63C77.9239 75.6587 77.9059 75.6976 77.9059 75.7381V78.4079C77.8994 78.5872 77.9403 78.7653 78.0251 78.9277C78.1099 79.0902 78.2364 79.2325 78.3942 79.343C78.4699 79.3869 78.5578 79.4111 78.648 79.4129Z" fill="#455A64"/>
<path d="M75.9664 74.7727V74.6853C75.9164 74.4277 75.9559 74.1627 76.0797 73.926C76.2035 73.6892 76.4056 73.4922 76.6586 73.3616C76.9115 73.231 77.2032 73.1731 77.4942 73.1957C77.7851 73.2183 78.0613 73.3204 78.2854 73.488C78.9093 73.8537 79.4284 74.3456 79.8007 74.924C80.173 75.5024 80.3881 76.1511 80.4286 76.8176V77.0798L75.9664 74.7727ZM76.8256 73.6191C76.6522 73.7296 76.5132 73.8779 76.4218 74.05C76.3303 74.222 76.2896 74.4121 76.3032 74.6023L80.0771 76.5511C79.9956 75.986 79.779 75.4433 79.442 74.96C79.105 74.4766 78.6556 74.064 78.1242 73.7502C77.873 73.6097 77.5854 73.5299 77.2894 73.5186C77.1276 73.5151 76.9677 73.5498 76.8256 73.6191Z" fill="#455A64"/>
<path d="M85.414 82.7818C85.458 82.7818 85.5003 82.7662 85.5314 82.7383C85.5625 82.7104 85.58 82.6726 85.58 82.6332V77.5209C85.58 77.4815 85.5625 77.4437 85.5314 77.4158C85.5003 77.388 85.458 77.3723 85.414 77.3723C85.3695 77.3723 85.3268 77.3878 85.2949 77.4156C85.263 77.4433 85.2444 77.4811 85.2432 77.5209V82.6332C85.2444 82.673 85.263 82.7108 85.2949 82.7386C85.3268 82.7663 85.3695 82.7818 85.414 82.7818Z" fill="#455A64"/>
<path d="M85.9018 78.6875C85.9295 78.6872 85.9567 78.6808 85.981 78.6689C86.0054 78.6571 86.0261 78.6401 86.0415 78.6194C86.0569 78.5988 86.0664 78.5751 86.0693 78.5504C86.0722 78.5258 86.0683 78.5008 86.058 78.4778L85.4819 77.2412L84.818 77.9316C84.7869 77.9594 84.7695 77.9972 84.7695 78.0365C84.7695 78.0758 84.7869 78.1135 84.818 78.1413C84.8505 78.1684 84.8932 78.1834 84.9376 78.1834C84.9819 78.1834 85.0247 78.1684 85.0572 78.1413L85.3745 77.8136L85.7602 78.6089C85.7739 78.632 85.7943 78.6514 85.8191 78.6653C85.844 78.6791 85.8725 78.6868 85.9018 78.6875Z" fill="#455A64"/>
<path d="M83.8564 82.0042C83.9009 82.0042 83.9437 81.9887 83.9756 81.961C84.0075 81.9332 84.026 81.8954 84.0273 81.8556V76.7433C84.0273 76.7232 84.0229 76.7033 84.0143 76.6847C84.0057 76.6662 83.9931 76.6493 83.9772 76.6351C83.9614 76.6209 83.9425 76.6097 83.9218 76.602C83.9011 76.5943 83.8789 76.5903 83.8564 76.5903C83.812 76.5915 83.7697 76.6081 83.7387 76.6366C83.7078 76.6652 83.6904 76.7035 83.6904 76.7433V81.8556C83.6904 81.895 83.7079 81.9328 83.7391 81.9607C83.7702 81.9885 83.8124 82.0042 83.8564 82.0042Z" fill="#455A64"/>
<path d="M84.3484 77.8922C84.3709 77.8964 84.3942 77.8964 84.4167 77.8922C84.4573 77.875 84.4889 77.8447 84.5053 77.8073C84.5216 77.77 84.5214 77.7284 84.5046 77.6912L83.9041 76.459L83.2401 77.145C83.2257 77.1599 83.2147 77.1772 83.2078 77.196C83.2008 77.2147 83.1981 77.2345 83.1997 77.2541C83.2012 77.2738 83.2071 77.293 83.217 77.3106C83.2269 77.3283 83.2406 77.344 83.2572 77.3569C83.2739 77.3698 83.2932 77.3797 83.3142 77.3859C83.3351 77.3921 83.3572 77.3946 83.3792 77.3932C83.4012 77.3917 83.4226 77.3865 83.4423 77.3776C83.462 77.3688 83.4796 77.3565 83.494 77.3416L83.8113 77.0139L84.197 77.8135C84.2111 77.8383 84.2329 77.8589 84.2597 77.8729C84.2866 77.8868 84.3174 77.8935 84.3484 77.8922Z" fill="#455A64"/>
<path d="M57.1661 61.0302V67.6282C57.1661 67.8816 56.9659 67.9865 56.717 67.8597L45.1904 61.9041C45.0615 61.8268 44.9543 61.7238 44.8772 61.6033C44.8001 61.4828 44.7552 61.3479 44.7461 61.2093V54.5763C44.7461 54.3229 44.9463 54.218 45.1952 54.3491L56.7365 60.3179C56.867 60.3968 56.9742 60.5028 57.049 60.6268C57.1238 60.7509 57.164 60.8892 57.1661 61.0302Z" fill="#FAFAFA"/>
<path d="M45.4639 55.2974L45.8349 55.4896V61.5065L45.4639 61.3142V55.2974Z" fill="#455A64"/>
<path d="M46.9775 56.0796L47.622 56.416V62.4329L46.9775 62.0964V56.0796Z" fill="#455A64"/>
<path d="M48.4951 56.8616L48.8662 57.0538V63.0707L48.4951 62.8784V56.8616Z" fill="#455A64"/>
<path d="M49.6377 57.4429L50.3847 57.8405V63.8574L49.6377 63.4597V57.4429Z" fill="#455A64"/>
<path d="M51.5322 58.4304L51.9033 58.6227V64.6395L51.5322 64.4473V58.4304Z" fill="#455A64"/>
<path d="M52.625 58.9807L53.4208 59.4046V65.4258L52.625 64.9976V58.9807Z" fill="#455A64"/>
<path d="M54.5693 59.999L54.9404 60.1913V66.2081L54.5693 66.0159V59.999Z" fill="#455A64"/>
<path d="M55.4326 60.4402L55.6181 60.5363V66.5532L55.4326 66.457V60.4402Z" fill="#455A64"/>
<path d="M53.875 59.6711L54.0605 59.7673V65.7841L53.875 65.688V59.6711Z" fill="#455A64"/>
<path d="M50.8184 58.0676L51.0039 58.1638V64.1806L50.8184 64.0845V58.0676Z" fill="#455A64"/>
<path d="M49.1445 57.207L49.3301 57.3032V63.32L49.1445 63.2239V57.207Z" fill="#455A64"/>
<path d="M47.9385 56.6125L48.1289 56.7087V62.7255L47.9385 62.6294V56.6125Z" fill="#455A64"/>
<path d="M46.3076 55.73L46.498 55.8261V61.8386L46.3076 61.7425V55.73Z" fill="#455A64"/>
<path d="M56.083 60.7812L56.4589 60.9735V66.9904L56.083 66.7981V60.7812Z" fill="#455A64"/>
<path opacity="0.1" d="M42.916 36.6437L85.4633 58.6793L118.803 41.4502L76.1825 19.4233L42.916 36.6437Z" fill="black"/>
<path opacity="0.1" d="M42.916 36.6437L85.4633 58.6793L118.803 41.4502L76.1825 19.4233L42.916 36.6437Z" fill="black"/>
<path d="M40.9482 24.6142L76.646 6.17041L118.29 27.6904L82.5924 46.1342L40.9482 24.6142Z" fill="#FED0AC"/>
<path opacity="0.1" d="M40.9482 24.6142L76.646 6.17041L118.29 27.6904L82.5924 46.1342L40.9482 24.6142Z" fill="black"/>
<path d="M59.7682 17.4177L71.5731 23.5044C71.7879 23.618 71.7293 23.8234 71.4461 23.972L58.1132 30.8802C57.978 30.9517 57.8265 30.9948 57.67 31.0061C57.5135 31.0175 57.3562 30.9968 57.21 30.9457L45.4002 24.8371C45.1854 24.7279 45.244 24.5182 45.5272 24.3696L58.865 17.4832C58.9997 17.4107 59.1513 17.3671 59.308 17.3558C59.4647 17.3444 59.6222 17.3656 59.7682 17.4177Z" fill="#FAFAFA"/>
<path d="M53.8031 27.778C53.7499 27.7775 53.6982 27.7614 53.6561 27.7322C53.614 27.703 53.5837 27.6623 53.5699 27.6162C53.5561 27.5702 53.5595 27.5214 53.5795 27.4772C53.5996 27.433 53.6353 27.3959 53.6811 27.3716L64.7488 21.6519C64.7764 21.6339 64.8079 21.6213 64.8413 21.6149C64.8747 21.6085 64.9093 21.6085 64.9427 21.6148C64.9761 21.6211 65.0077 21.6336 65.0353 21.6515C65.063 21.6694 65.0862 21.6923 65.1034 21.7188C65.1205 21.7452 65.1313 21.7746 65.135 21.805C65.1387 21.8353 65.1352 21.8661 65.1248 21.8952C65.1144 21.9243 65.0973 21.9512 65.0745 21.974C65.0518 21.9968 65.024 22.0151 64.9929 22.0277L53.9252 27.7474C53.8885 27.7677 53.8462 27.7782 53.8031 27.778Z" fill="#E0E0E0"/>
<path d="M55.0326 28.4071C54.9794 28.4066 54.9277 28.3905 54.8856 28.3613C54.8435 28.3321 54.8132 28.2914 54.7994 28.2453C54.7856 28.1993 54.7889 28.1505 54.809 28.1063C54.8291 28.0621 54.8648 28.025 54.9106 28.0007L65.9782 22.281C66.034 22.2523 66.1001 22.2445 66.1623 22.2592C66.2245 22.274 66.2776 22.31 66.3102 22.3596C66.3425 22.4102 66.3514 22.4701 66.335 22.5264C66.3185 22.5828 66.2781 22.6311 66.2224 22.6611L55.1547 28.3765C55.118 28.3967 55.0757 28.4073 55.0326 28.4071Z" fill="#E0E0E0"/>
<path d="M56.2592 29.0361C56.2059 29.0356 56.1543 29.0195 56.1122 28.9903C56.0701 28.9611 56.0398 28.9204 56.0259 28.8744C56.0121 28.8283 56.0155 28.7795 56.0356 28.7353C56.0557 28.6911 56.0913 28.6541 56.1371 28.6297L67.2048 22.91C67.2611 22.881 67.328 22.8733 67.3907 22.8884C67.4535 22.9036 67.5069 22.9404 67.5392 22.9909C67.5716 23.0413 67.5803 23.1011 67.5633 23.1573C67.5464 23.2134 67.5052 23.2612 67.4489 23.2902L56.3813 29.0099C56.3435 29.0273 56.3016 29.0363 56.2592 29.0361Z" fill="#E0E0E0"/>
<path d="M57.4888 29.6698C57.4462 29.6696 57.4044 29.6594 57.3676 29.6402C57.3308 29.6211 57.3002 29.5936 57.2789 29.5606C57.2466 29.51 57.2377 29.4502 57.2542 29.3938C57.2706 29.3375 57.311 29.2891 57.3668 29.2591L68.4344 23.5437C68.4621 23.5258 68.4936 23.5132 68.527 23.5068C68.5604 23.5004 68.5949 23.5003 68.6283 23.5066C68.6618 23.513 68.6933 23.5255 68.721 23.5434C68.7487 23.5613 68.7719 23.5842 68.789 23.6106C68.8062 23.637 68.817 23.6664 68.8207 23.6968C68.8244 23.7272 68.8209 23.7579 68.8105 23.787C68.8001 23.8162 68.783 23.843 68.7602 23.8658C68.7375 23.8886 68.7097 23.9069 68.6785 23.9195L57.6109 29.6392C57.5742 29.6595 57.5319 29.6701 57.4888 29.6698Z" fill="#E0E0E0"/>
<path d="M46.5186 24.5617L46.9482 24.3389L51.9914 26.9431L51.5569 27.166L46.5186 24.5617Z" fill="#455A64"/>
<path d="M48.2666 23.6572L49.0184 23.2727L54.0568 25.8813L53.3098 26.2615L48.2666 23.6572Z" fill="#455A64"/>
<path d="M50.0195 22.7482L50.454 22.5254L55.4924 25.134L55.0627 25.3525L50.0195 22.7482Z" fill="#455A64"/>
<path d="M51.333 22.0624L52.202 21.6211L57.2452 24.2253L56.3762 24.6667L51.333 22.0624Z" fill="#455A64"/>
<path d="M53.5244 20.9396L53.954 20.7168L58.9972 23.321L58.5676 23.5439L53.5244 20.9396Z" fill="#455A64"/>
<path d="M54.7744 20.2798L55.7069 19.8079L60.7501 22.4165L59.8176 22.8884L54.7744 20.2798Z" fill="#455A64"/>
<path d="M57.0303 19.1262L57.4599 18.9033L62.5031 21.5119L62.0735 21.7304L57.0303 19.1262Z" fill="#455A64"/>
<path d="M58.0205 18.6061L58.2402 18.4968L63.2785 21.1011L63.0637 21.2147L58.0205 18.6061Z" fill="#455A64"/>
<path d="M56.2529 19.5543L56.4677 19.4407L61.5109 22.0449L61.2961 22.1585L56.2529 19.5543Z" fill="#455A64"/>
<path d="M52.7041 21.3678L52.9238 21.2542L57.9621 23.8628L57.7473 23.972L52.7041 21.3678Z" fill="#455A64"/>
<path d="M50.7754 22.3685L50.9951 22.2549L56.0334 24.8635L55.8186 24.9727L50.7754 22.3685Z" fill="#455A64"/>
<path d="M49.4131 23.098L49.6279 22.9844L54.6662 25.593L54.4514 25.7022L49.4131 23.098Z" fill="#455A64"/>
<path d="M47.4951 24.0506L47.7099 23.9414L52.7482 26.5457L52.5334 26.6549L47.4951 24.0506Z" fill="#455A64"/>
<path d="M58.7822 18.2216L59.2119 17.9988L64.255 20.603L63.8205 20.8259L58.7822 18.2216Z" fill="#455A64"/>
<path d="M82.5924 58.4345L40.9482 36.9145V24.6143L82.5924 46.1342V58.4345Z" fill="#FED0AC"/>
<g opacity="0.2">
<path d="M82.5934 58.4342L40.9492 36.9143V24.614L82.5934 46.134V58.4342Z" fill="black"/>
</g>
<path d="M82.5928 58.4345L118.291 39.9863V27.6904L82.5928 46.1343V58.4345Z" fill="#FED0AC"/>
<path opacity="0.3" d="M82.5928 58.4345L118.291 39.9863V27.6904L82.5928 46.1343V58.4345Z" fill="black"/>
<path d="M104.148 38.9727L101.258 40.4627V36.4558L104.148 34.9614V38.9727Z" fill="#37474F"/>
<path d="M101.256 36.4558L59.6123 14.9358L62.4976 13.4414L104.147 34.9614L101.256 36.4558Z" fill="#455A64"/>
<path d="M66.3114 45.8068C65.9966 45.6099 65.7389 45.3486 65.5597 45.0446C65.3806 44.7405 65.2851 44.4026 65.2812 44.0589V41.3892L67.3757 42.4903L67.5124 42.4684V42.6432V45.0334C67.5288 45.189 67.4996 45.3459 67.4277 45.4884C67.3558 45.6309 67.2436 45.7542 67.1023 45.8461C67.0026 45.8966 66.8897 45.9223 66.7752 45.9204C66.612 45.9201 66.4519 45.8809 66.3114 45.8068ZM66.5457 42.9316L66.3895 43.8667H65.6181V44.0633C65.6254 44.3536 65.7072 44.6386 65.857 44.8962C66.0068 45.1537 66.2207 45.3771 66.4822 45.549C66.5465 45.5903 66.6217 45.616 66.7004 45.6237C66.7791 45.6314 66.8587 45.6207 66.9314 45.5927C67.0212 45.5272 67.0908 45.4422 67.1335 45.3458C67.1762 45.2494 67.1907 45.1449 67.1755 45.0421V42.8311L66.5457 42.9316ZM66.2479 42.6738L66.8679 42.5733L65.6181 41.9179V43.5521H66.1063L66.2479 42.6738Z" fill="#455A64"/>
<path d="M66.3935 47.8342C66.438 47.8342 66.4808 47.8187 66.5127 47.791C66.5446 47.7632 66.5631 47.7255 66.5644 47.6857V45.68C66.5644 45.6395 66.5464 45.6006 66.5144 45.5719C66.4823 45.5432 66.4388 45.5271 66.3935 45.5271C66.3491 45.5282 66.3069 45.5448 66.2759 45.5734C66.2449 45.602 66.2275 45.6402 66.2275 45.68V47.6857C66.2275 47.7251 66.245 47.7628 66.2762 47.7907C66.3073 47.8186 66.3495 47.8342 66.3935 47.8342Z" fill="#455A64"/>
<path d="M67.371 48.3582C67.4012 48.3587 67.431 48.3516 67.4568 48.3377C67.4827 48.3238 67.5038 48.3036 67.5175 48.2796C67.5388 48.2447 67.5441 48.2037 67.5323 48.1654C67.5204 48.127 67.4924 48.0943 67.454 48.0742L65.5012 47.0692C65.482 47.0592 65.4608 47.0527 65.4388 47.0501C65.4168 47.0475 65.3944 47.0489 65.373 47.0542C65.3516 47.0595 65.3317 47.0686 65.3143 47.0809C65.2969 47.0932 65.2824 47.1086 65.2717 47.126C65.2604 47.1425 65.253 47.161 65.2498 47.1801C65.2466 47.1993 65.2478 47.2189 65.2533 47.2376C65.2587 47.2564 65.2684 47.274 65.2816 47.2894C65.2948 47.3047 65.3114 47.3175 65.3303 47.327L67.2831 48.3364C67.3096 48.3508 67.34 48.3584 67.371 48.3582Z" fill="#455A64"/>
<path d="M73.2135 51.4432C73.2768 51.4421 73.3389 51.4271 73.3942 51.3995C73.462 51.3615 73.517 51.3076 73.5531 51.2437C73.5892 51.1798 73.6052 51.1083 73.5992 51.0368V50.6261C73.5979 50.5863 73.5794 50.5485 73.5475 50.5208C73.5156 50.493 73.4728 50.4775 73.4283 50.4775C73.3843 50.4775 73.3421 50.4932 73.311 50.521C73.2798 50.5489 73.2623 50.5867 73.2623 50.6261V51.0368C73.2623 51.098 73.2623 51.133 73.2282 51.1373C73.194 51.1417 73.1793 51.1373 73.1208 51.1111C73.017 51.0252 72.9353 50.9201 72.8814 50.8032C72.8275 50.6863 72.8025 50.5602 72.8083 50.4338V47.764C72.8083 47.7246 72.7908 47.6869 72.7597 47.659C72.7286 47.6311 72.6864 47.6155 72.6423 47.6155C72.5978 47.6155 72.5551 47.631 72.5232 47.6587C72.4913 47.6865 72.4727 47.7242 72.4715 47.764V50.4338C72.4646 50.6137 72.5052 50.7926 72.59 50.9558C72.6748 51.119 72.8015 51.2621 72.9597 51.3733C73.0366 51.4149 73.1238 51.4389 73.2135 51.4432Z" fill="#455A64"/>
<path d="M70.5195 46.8027V46.7153C70.4678 46.4578 70.506 46.1923 70.629 45.955C70.7519 45.7177 70.9537 45.5201 71.2068 45.3892C71.4598 45.2583 71.7518 45.2004 72.043 45.2235C72.3341 45.2465 72.6102 45.3494 72.8336 45.518C73.4588 45.8829 73.979 46.3746 74.3522 46.9531C74.7255 47.5315 74.9411 48.1806 74.9818 48.8476V49.1098L70.5195 46.8027ZM71.3739 45.6491C71.2014 45.7561 71.0618 45.9002 70.9679 46.0682C70.8741 46.2362 70.829 46.4227 70.8369 46.6104L74.6107 48.5592C74.5308 47.9943 74.3148 47.4517 73.9776 46.9689C73.6405 46.4861 73.1902 46.0745 72.6579 45.7627C72.4062 45.619 72.1165 45.5376 71.8182 45.5268C71.6607 45.5319 71.5074 45.5741 71.3739 45.6491Z" fill="#455A64"/>
<path d="M79.9619 54.8121C80.0064 54.8121 80.0491 54.7966 80.081 54.7688C80.1129 54.7411 80.1315 54.7033 80.1328 54.6635V49.5468C80.1315 49.507 80.1129 49.4692 80.081 49.4414C80.0491 49.4137 80.0064 49.3982 79.9619 49.3982C79.9179 49.3982 79.8756 49.4138 79.8445 49.4417C79.8134 49.4696 79.7959 49.5074 79.7959 49.5468V54.6635C79.7959 54.7029 79.8134 54.7407 79.8445 54.7685C79.8756 54.7964 79.9179 54.8121 79.9619 54.8121Z" fill="#455A64"/>
<path d="M80.454 50.7135C80.4749 50.7175 80.4965 50.7175 80.5174 50.7135C80.5382 50.7064 80.5571 50.6955 80.5729 50.6816C80.5887 50.6676 80.6012 50.6509 80.6094 50.6324C80.6177 50.6139 80.6216 50.5941 80.6209 50.5743C80.6202 50.5544 80.6149 50.5348 80.6053 50.5169L80.0097 49.2847L79.3408 49.9707C79.3095 49.9993 79.292 50.0377 79.292 50.0777C79.292 50.1178 79.3095 50.1562 79.3408 50.1848C79.372 50.2125 79.4141 50.2281 79.458 50.2281C79.5019 50.2281 79.5441 50.2125 79.5752 50.1848L79.8925 49.8571L80.2782 50.6567C80.2986 50.68 80.3258 50.6977 80.3569 50.7077C80.388 50.7178 80.4217 50.7198 80.454 50.7135Z" fill="#455A64"/>
<path d="M78.4072 54.0389C78.4296 54.0389 78.4519 54.0349 78.4726 54.0272C78.4933 54.0195 78.5121 54.0083 78.528 53.9941C78.5439 53.9799 78.5565 53.963 78.5651 53.9444C78.5736 53.9259 78.5781 53.906 78.5781 53.8859V48.7736C78.5768 48.7338 78.5582 48.696 78.5263 48.6682C78.4944 48.6405 78.4517 48.625 78.4072 48.625C78.3632 48.625 78.321 48.6407 78.2898 48.6685C78.2587 48.6964 78.2412 48.7342 78.2412 48.7736V53.8859C78.2412 53.9257 78.2585 53.964 78.2895 53.9925C78.3205 54.0211 78.3627 54.0377 78.4072 54.0389Z" fill="#455A64"/>
<path d="M78.9008 49.9227C78.9217 49.9267 78.9434 49.9267 78.9643 49.9227C78.985 49.9156 79.0039 49.9047 79.0198 49.8908C79.0356 49.8768 79.048 49.8601 79.0563 49.8416C79.0645 49.8231 79.0684 49.8033 79.0677 49.7835C79.067 49.7636 79.0617 49.744 79.0522 49.7261L78.4566 48.4895L77.7877 49.1799C77.7578 49.2083 77.7412 49.2458 77.7412 49.2848C77.7412 49.3237 77.7578 49.3613 77.7877 49.3896C77.8028 49.4039 77.8209 49.4153 77.8411 49.4231C77.8612 49.4308 77.8829 49.4349 77.9049 49.4349C77.9268 49.4349 77.9485 49.4308 77.9687 49.4231C77.9888 49.4153 78.007 49.4039 78.0221 49.3896L78.3394 49.0619L78.7251 49.8572C78.7442 49.882 78.771 49.9015 78.8022 49.9131C78.8333 49.9247 78.8676 49.9281 78.9008 49.9227Z" fill="#455A64"/>
<path d="M54.5157 34.5245V41.1444C54.5157 41.3978 54.3155 41.5027 54.0714 41.376L42.5204 35.4072C42.3896 35.3323 42.2807 35.2307 42.2026 35.1106C42.1245 34.9905 42.0794 34.8555 42.0713 34.7168V28.0926C42.0713 27.8391 42.2715 27.7343 42.5204 27.861L54.0617 33.8298C54.194 33.9045 54.3044 34.0067 54.3834 34.1276C54.4624 34.2485 54.5078 34.3846 54.5157 34.5245Z" fill="#FAFAFA"/>
<path d="M42.793 28.8091L43.164 29.0013V35.0182L42.793 34.8259V28.8091Z" fill="#455A64"/>
<path d="M44.3076 29.5957L44.952 29.9322V35.949L44.3076 35.6082V29.5957Z" fill="#455A64"/>
<path d="M45.8262 30.3777L46.2021 30.5699V36.5868L45.8262 36.3945V30.3777Z" fill="#455A64"/>
<path d="M46.9727 30.959L47.7147 31.3522V37.3691L46.9727 36.9758V30.959Z" fill="#455A64"/>
<path d="M48.8623 31.946L49.2333 32.1383V38.1552L48.8623 37.9629V31.946Z" fill="#455A64"/>
<path d="M49.9551 32.4968L50.7508 32.9207V38.9375L49.9551 38.5137V32.4968Z" fill="#455A64"/>
<path d="M51.8994 33.5107L52.2705 33.7074V39.7242L51.8994 39.5276V33.5107Z" fill="#455A64"/>
<path d="M52.7637 33.9521L52.9492 34.0483V40.0651L52.7637 39.969V33.9521Z" fill="#455A64"/>
<path d="M51.2051 33.1829L51.3906 33.2834V39.2958L51.2051 39.1997V33.1829Z" fill="#455A64"/>
<path d="M48.1494 31.5837L48.3349 31.6799V37.6967L48.1494 37.6006V31.5837Z" fill="#455A64"/>
<path d="M46.4746 30.7227L46.6601 30.8188V36.8356L46.4746 36.7395V30.7227Z" fill="#455A64"/>
<path d="M45.2734 30.1284L45.459 30.2245V36.2414L45.2734 36.1453V30.1284Z" fill="#455A64"/>
<path d="M43.6426 29.2417L43.8281 29.3378V35.3547L43.6426 35.2586V29.2417Z" fill="#455A64"/>
<path d="M53.4131 34.2974L53.789 34.4896V40.5065L53.4131 40.3142V34.2974Z" fill="#455A64"/>
<path opacity="0.1" d="M60.843 108.553L28.2258 125.389L3.81055 112.757L36.5058 95.9602L60.843 108.553Z" fill="black"/>
<path d="M6.78711 58.9502L36.5336 43.5825L58.3517 54.8516L28.6051 70.2236L6.78711 58.9502Z" fill="#FED0AC"/>
<path opacity="0.1" d="M6.78711 58.9502L36.5336 43.5825L58.3517 54.8516L28.6051 70.2236L6.78711 58.9502Z" fill="black"/>
<path d="M36.2458 45.7892L27.1163 50.4952C26.9503 50.5826 26.9942 50.7443 27.2139 50.8579L37.5249 56.1844C37.6283 56.2398 37.7446 56.2734 37.8647 56.2825C37.9849 56.2916 38.1058 56.2759 38.2181 56.2368L47.3525 51.5264C47.5185 51.439 47.4746 51.2817 47.2549 51.1638L36.9439 45.8417C36.8396 45.7861 36.7225 45.7526 36.6016 45.7435C36.4806 45.7344 36.359 45.75 36.2458 45.7892Z" fill="#FAFAFA"/>
<path d="M40.8598 53.7986C40.8925 53.7991 40.9248 53.7917 40.9532 53.7771C40.9816 53.7625 41.005 53.7412 41.0209 53.7156C41.0458 53.6767 41.0527 53.6306 41.0399 53.5872C41.0271 53.5439 40.9957 53.5068 40.9526 53.484L32.3943 49.062C32.35 49.0412 32.2984 49.0364 32.2503 49.0486C32.2021 49.0608 32.1611 49.0891 32.1355 49.1276C32.1121 49.1661 32.1061 49.2111 32.1189 49.2534C32.1316 49.2958 32.162 49.3321 32.2039 49.3548L40.7622 53.7768C40.7915 53.7927 40.8255 53.8003 40.8598 53.7986Z" fill="#E0E0E0"/>
<path d="M39.9076 54.2879C39.9402 54.2876 39.9721 54.2797 40.0003 54.2652C40.0285 54.2507 40.0521 54.2299 40.0687 54.2049C40.0818 54.1858 40.0903 54.1646 40.0939 54.1424C40.0975 54.1203 40.0961 54.0977 40.0897 54.0761C40.0833 54.0545 40.0721 54.0342 40.0568 54.0165C40.0414 53.9989 40.0223 53.9842 40.0004 53.9733L31.4421 49.5514C31.4211 49.5398 31.3978 49.5322 31.3734 49.529C31.349 49.5259 31.3242 49.5272 31.3004 49.5329C31.2767 49.5386 31.2544 49.5486 31.2351 49.5623C31.2159 49.576 31.1999 49.5931 31.1882 49.6125C31.1752 49.6316 31.1667 49.6529 31.1631 49.675C31.1595 49.6972 31.1609 49.7197 31.1673 49.7414C31.1737 49.763 31.1849 49.7832 31.2002 49.8009C31.2156 49.8185 31.2347 49.8332 31.2566 49.8441L39.8149 54.2661C39.8434 54.28 39.8752 54.2875 39.9076 54.2879Z" fill="#E0E0E0"/>
<path d="M38.9566 54.7731C38.9975 54.7724 39.0371 54.7598 39.0695 54.7373C39.1019 54.7149 39.1253 54.6836 39.1363 54.6483C39.1472 54.613 39.1452 54.5754 39.1304 54.5412C39.1156 54.507 39.0889 54.478 39.0542 54.4585L30.4959 50.0365C30.4522 50.0153 30.4011 50.0098 30.353 50.0212C30.3049 50.0325 30.2635 50.0599 30.2372 50.0977C30.2122 50.1366 30.2054 50.1827 30.2182 50.226C30.231 50.2694 30.2624 50.3065 30.3055 50.3293L38.8638 54.7512C38.8917 54.7665 38.9239 54.7741 38.9566 54.7731Z" fill="#E0E0E0"/>
<path d="M38.0082 55.2626C38.0408 55.2623 38.0727 55.2545 38.1009 55.2399C38.1291 55.2254 38.1526 55.2046 38.1693 55.1796C38.1823 55.1605 38.1909 55.1393 38.1945 55.1171C38.1981 55.095 38.1967 55.0724 38.1903 55.0508C38.1839 55.0292 38.1727 55.0089 38.1574 54.9913C38.142 54.9736 38.1228 54.9589 38.101 54.948L29.5427 50.5435C29.5217 50.532 29.4983 50.5244 29.474 50.5212C29.4496 50.518 29.4248 50.5194 29.401 50.5251C29.3772 50.5308 29.355 50.5408 29.3357 50.5545C29.3164 50.5682 29.3005 50.5853 29.2888 50.6047C29.2758 50.6238 29.2673 50.6451 29.2637 50.6672C29.2601 50.6894 29.2615 50.7119 29.2679 50.7335C29.2743 50.7552 29.2855 50.7754 29.3008 50.7931C29.3162 50.8107 29.3353 50.8254 29.3572 50.8363L37.9106 55.2583C37.9424 55.2657 37.9757 55.2672 38.0082 55.2626Z" fill="#E0E0E0"/>
<path d="M46.4886 51.3123L46.1566 51.1418L42.2607 53.1562L42.5927 53.3266L46.4886 51.3123Z" fill="#455A64"/>
<path d="M45.137 50.6133L44.5561 50.3206L40.6602 52.3349L41.2362 52.6277L45.137 50.6133Z" fill="#455A64"/>
<path d="M43.7796 49.9143L43.4477 49.7395L39.5518 51.7539L39.8837 51.9286L43.7796 49.9143Z" fill="#455A64"/>
<path d="M42.764 49.3811L42.0951 49.0403L38.1943 51.0546L38.8681 51.3955L42.764 49.3811Z" fill="#455A64"/>
<path d="M41.0687 48.5115L40.7367 48.3411L36.8408 50.3554L37.1728 50.5258L41.0687 48.5115Z" fill="#455A64"/>
<path d="M40.1038 48.0048L39.3861 47.6421L35.4854 49.6564L36.2079 50.0191L40.1038 48.0048Z" fill="#455A64"/>
<path d="M38.3587 47.1133L38.0268 46.9385L34.1309 48.9528L34.4628 49.1276L38.3587 47.1133Z" fill="#455A64"/>
<path d="M37.5941 46.7112L37.4281 46.6238L33.5322 48.6381L33.6982 48.7255L37.5941 46.7112Z" fill="#455A64"/>
<path d="M38.9603 47.4409L38.7943 47.3535L34.8936 49.3679L35.0644 49.4553L38.9603 47.4409Z" fill="#455A64"/>
<path d="M41.7045 48.8435L41.5385 48.7561L37.6377 50.7705L37.8086 50.8579L41.7045 48.8435Z" fill="#455A64"/>
<path d="M43.1928 49.6172L43.0268 49.5342L39.1309 51.5442L39.2968 51.6316L43.1928 49.6172Z" fill="#455A64"/>
<path d="M44.2533 50.1807L44.0873 50.0933L40.1865 52.112L40.3525 52.195L44.2533 50.1807Z" fill="#455A64"/>
<path d="M45.7367 50.9192L45.5707 50.8318L41.6699 52.8461L41.8359 52.9335L45.7367 50.9192Z" fill="#455A64"/>
<path d="M37.0082 46.4099L36.6762 46.2395L32.7754 48.2539L33.1074 48.4286L37.0082 46.4099Z" fill="#455A64"/>
<path d="M28.6051 123.519L6.78711 112.246V58.9504L28.6051 70.2239V123.519Z" fill="#FED0AC"/>
<g opacity="0.2">
<path d="M28.6051 123.519L6.78711 112.246V58.9504L28.6051 70.2239V123.519Z" fill="black"/>
</g>
<path d="M28.6064 123.519L58.353 108.147V54.8518L28.6064 70.2238V123.519Z" fill="#FED0AC"/>
<path opacity="0.3" d="M28.6064 123.519L58.353 108.147V54.8518L28.6064 70.2238V123.519Z" fill="black"/>
<path d="M44.4683 66.0376L41.583 67.5276V63.5164L44.4683 62.0264V66.0376Z" fill="#37474F"/>
<path d="M41.5817 63.5164L19.7686 52.2473L22.6539 50.7529L44.467 62.0263L41.5817 63.5164Z" fill="#455A64"/>
<path d="M12.3192 110.896C12.0061 110.697 11.7497 110.436 11.5707 110.132C11.3917 109.828 11.2952 109.491 11.2891 109.148V106.474L13.3835 107.575H13.5202V107.754V110.144C13.5387 110.299 13.5105 110.456 13.4384 110.598C13.3662 110.74 13.2529 110.863 13.1101 110.952C13.0111 111.005 12.898 111.032 12.783 111.031C12.6181 111.022 12.4585 110.975 12.3192 110.896ZM12.5535 108.016L12.4022 108.956H11.6259V109.152C11.6333 109.442 11.715 109.726 11.8649 109.983C12.0147 110.24 12.2287 110.462 12.4901 110.633C12.5544 110.676 12.6302 110.703 12.7099 110.712C12.7896 110.72 12.8703 110.71 12.9441 110.682C13.0319 110.615 13.0998 110.529 13.1416 110.433C13.1834 110.337 13.1977 110.233 13.1833 110.131V107.916L12.5535 108.016ZM12.2557 107.758L12.8757 107.662L11.6259 107.002V108.658H12.1141L12.2557 107.758Z" fill="#455A64"/>
<path d="M12.4082 112.923C12.4522 112.923 12.4944 112.907 12.5255 112.879C12.5567 112.851 12.5742 112.814 12.5742 112.774V110.764C12.5742 110.725 12.5567 110.687 12.5255 110.659C12.4944 110.631 12.4522 110.616 12.4082 110.616C12.3637 110.616 12.321 110.631 12.289 110.659C12.2571 110.687 12.2386 110.724 12.2373 110.764V112.774C12.2386 112.814 12.2571 112.852 12.289 112.88C12.321 112.907 12.3637 112.923 12.4082 112.923Z" fill="#455A64"/>
<path d="M13.379 113.426C13.4164 113.427 13.4532 113.416 13.4832 113.396C13.5132 113.376 13.5348 113.348 13.5444 113.315C13.5541 113.283 13.5511 113.248 13.5362 113.218C13.5212 113.187 13.4951 113.162 13.462 113.146L11.5092 112.137C11.4899 112.127 11.4687 112.121 11.4468 112.118C11.4248 112.116 11.4026 112.117 11.3813 112.122C11.36 112.128 11.34 112.137 11.3226 112.149C11.3052 112.161 11.2906 112.176 11.2797 112.193C11.2688 112.211 11.2618 112.23 11.2591 112.249C11.2564 112.269 11.258 112.289 11.2639 112.308C11.2698 112.327 11.2798 112.345 11.2934 112.36C11.307 112.376 11.3239 112.389 11.3432 112.399L13.296 113.404C13.3199 113.419 13.3493 113.427 13.379 113.426Z" fill="#455A64"/>
<path d="M19.2232 116.523C19.2877 116.524 19.3513 116.51 19.4087 116.484C19.4746 116.444 19.5277 116.39 19.5628 116.327C19.5979 116.263 19.6138 116.192 19.6089 116.121V115.711C19.6131 115.689 19.6119 115.666 19.6053 115.645C19.5988 115.623 19.5871 115.603 19.5711 115.586C19.555 115.569 19.535 115.555 19.5125 115.546C19.4899 115.537 19.4653 115.532 19.4405 115.532C19.4156 115.532 19.391 115.537 19.3685 115.546C19.3459 115.555 19.3259 115.569 19.3099 115.586C19.2938 115.603 19.2821 115.623 19.2756 115.645C19.2691 115.666 19.2679 115.689 19.272 115.711V116.121C19.2761 116.157 19.2657 116.193 19.2428 116.222C19.2029 116.226 19.1627 116.217 19.1305 116.196C19.0267 116.11 18.945 116.005 18.8911 115.888C18.8371 115.771 18.8122 115.645 18.818 115.518V112.853C18.818 112.813 18.8007 112.775 18.7697 112.746C18.7387 112.718 18.6965 112.701 18.652 112.7C18.6296 112.7 18.6074 112.704 18.5866 112.712C18.5659 112.719 18.5471 112.731 18.5312 112.745C18.5153 112.759 18.5027 112.776 18.4941 112.794C18.4856 112.813 18.4811 112.833 18.4811 112.853V115.523C18.4746 115.702 18.5155 115.88 18.6003 116.042C18.6851 116.205 18.8116 116.347 18.9693 116.458C19.0456 116.5 19.1335 116.523 19.2232 116.523Z" fill="#455A64"/>
<path d="M16.5279 111.887V111.8C16.4779 111.542 16.5175 111.277 16.6413 111.041C16.7651 110.804 16.9671 110.607 17.2201 110.476C17.4731 110.346 17.7648 110.288 18.0557 110.31C18.3467 110.333 18.6228 110.435 18.8469 110.603C19.4708 110.968 19.9899 111.46 20.3623 112.039C20.7346 112.617 20.9496 113.266 20.9901 113.932V114.195L16.5279 111.887ZM17.3871 110.734C17.2137 110.844 17.0747 110.993 16.9833 111.165C16.8919 111.337 16.8511 111.527 16.8648 111.717L20.6386 113.666C20.5572 113.101 20.3406 112.558 20.0036 112.075C19.6666 111.591 19.2171 111.179 18.6858 110.865C18.4343 110.725 18.1468 110.645 17.8509 110.633C17.6892 110.63 17.5292 110.665 17.3871 110.734Z" fill="#455A64"/>
<path d="M25.9697 119.897C26.0142 119.897 26.0569 119.881 26.0888 119.854C26.1207 119.826 26.1393 119.788 26.1406 119.748V114.636C26.1393 114.596 26.1207 114.558 26.0888 114.531C26.0569 114.503 26.0142 114.487 25.9697 114.487C25.9257 114.487 25.8835 114.503 25.8523 114.531C25.8212 114.559 25.8037 114.596 25.8037 114.636V119.748C25.8037 119.788 25.8212 119.825 25.8523 119.853C25.8835 119.881 25.9257 119.897 25.9697 119.897Z" fill="#455A64"/>
<path d="M26.4633 115.802C26.4858 115.807 26.5091 115.807 26.5316 115.802C26.5515 115.794 26.5694 115.783 26.5844 115.769C26.5993 115.754 26.611 115.738 26.6187 115.719C26.6264 115.701 26.63 115.682 26.6293 115.662C26.6286 115.643 26.6236 115.624 26.6146 115.606L26.019 114.339L25.3551 115.029C25.324 115.057 25.3066 115.095 25.3066 115.134C25.3066 115.173 25.324 115.211 25.3551 115.239C25.3876 115.266 25.4303 115.281 25.4747 115.281C25.519 115.281 25.5618 115.266 25.5943 115.239L25.9067 114.911L26.2924 115.706C26.3064 115.736 26.3303 115.761 26.3609 115.778C26.3915 115.796 26.4272 115.804 26.4633 115.802Z" fill="#455A64"/>
<path d="M24.417 119.106C24.4615 119.106 24.5042 119.09 24.5361 119.063C24.568 119.035 24.5866 118.997 24.5878 118.957V113.845C24.5878 113.804 24.5698 113.765 24.5378 113.737C24.5057 113.708 24.4623 113.692 24.417 113.692C24.3725 113.693 24.3303 113.71 24.2993 113.738C24.2683 113.767 24.251 113.805 24.251 113.845V118.957C24.251 118.997 24.2685 119.034 24.2996 119.062C24.3307 119.09 24.3729 119.106 24.417 119.106Z" fill="#455A64"/>
<path d="M24.9109 115.007C24.9334 115.011 24.9567 115.011 24.9792 115.007C25.0198 114.99 25.0514 114.96 25.0678 114.922C25.0841 114.885 25.0839 114.843 25.0671 114.806L24.4568 113.565L23.7929 114.251C23.7785 114.266 23.7675 114.283 23.7605 114.302C23.7536 114.321 23.7508 114.341 23.7524 114.36C23.754 114.38 23.7599 114.399 23.7698 114.417C23.7796 114.434 23.7933 114.45 23.81 114.463C23.8266 114.476 23.846 114.486 23.8669 114.492C23.8878 114.498 23.9099 114.501 23.9319 114.499C23.9539 114.498 23.9753 114.493 23.9951 114.484C24.0148 114.475 24.0323 114.463 24.0468 114.448L24.3592 114.12L24.7449 114.92C24.7595 114.948 24.7832 114.971 24.8128 114.986C24.8424 115.002 24.8766 115.009 24.9109 115.007Z" fill="#455A64"/>
<path d="M26.6183 103.581V110.196C26.6183 110.454 26.4181 110.554 26.174 110.428L14.6279 104.463C14.4964 104.388 14.387 104.286 14.3089 104.165C14.2308 104.044 14.1861 103.908 14.1787 103.769V97.1488C14.1787 96.891 14.374 96.7905 14.623 96.9172L26.1691 102.886C26.3005 102.961 26.4099 103.064 26.4881 103.184C26.5662 103.305 26.6109 103.441 26.6183 103.581Z" fill="#FAFAFA"/>
<path d="M14.8975 97.8655L15.2685 98.0577V104.075L14.8975 103.882V97.8655Z" fill="#455A64"/>
<path d="M16.415 98.6477L17.0546 98.9885V105.005L16.415 104.665V98.6477Z" fill="#455A64"/>
<path d="M17.9336 99.4341L18.3046 99.6263V105.643L17.9336 105.451V99.4341Z" fill="#455A64"/>
<path d="M19.0752 100.011L19.8222 100.408V106.425L19.0752 106.032V100.011Z" fill="#455A64"/>
<path d="M20.9648 100.999L21.3408 101.195V107.212L20.9648 107.02V100.999Z" fill="#455A64"/>
<path d="M22.0586 101.553L22.8544 101.977V107.994L22.0586 107.57V101.553Z" fill="#455A64"/>
<path d="M24.0029 102.567L24.374 102.759V108.776L24.0029 108.584V102.567Z" fill="#455A64"/>
<path d="M24.8672 103.008L25.0527 103.104V109.121L24.8672 109.025V103.008Z" fill="#455A64"/>
<path d="M23.3096 102.24L23.4951 102.336V108.352L23.3096 108.256V102.24Z" fill="#455A64"/>
<path d="M20.252 100.636L20.4375 100.736V106.749L20.252 106.657V100.636Z" fill="#455A64"/>
<path d="M18.5781 99.7793L18.7636 99.8754V105.892L18.5781 105.796V99.7793Z" fill="#455A64"/>
<path d="M17.3779 99.1853L17.5635 99.2814V105.298L17.3779 105.202V99.1853Z" fill="#455A64"/>
<path d="M15.7471 98.2981L15.9326 98.3942V104.411L15.7471 104.315V98.2981Z" fill="#455A64"/>
<path d="M25.5195 103.354L25.8906 103.546V109.563L25.5195 109.371V103.354Z" fill="#455A64"/>
<path opacity="0.1" d="M87.5187 122.321L54.9015 139.157L29.8564 126.25L62.5469 109.453L87.5187 122.321Z" fill="black"/>
<path d="M33.6406 100.19L63.392 84.8179L85.2052 96.0913L55.4586 111.463L33.6406 100.19Z" fill="#FED0AC"/>
<g opacity="0.3">
<path d="M33.6406 100.19L63.392 84.8179L85.2052 96.0913L55.4586 111.463L33.6406 100.19Z" fill="#D3976E"/>
</g>
<path d="M63.0993 87.0288L53.9698 91.7348C53.8038 91.8222 53.8477 91.9839 54.0674 92.0975L64.3784 97.4239C64.4826 97.48 64.5999 97.5136 64.7211 97.5219C64.8423 97.5302 64.964 97.5132 65.0765 97.472L74.206 92.766C74.372 92.6786 74.3281 92.5169 74.1084 92.4033L63.7974 87.0812C63.6941 87.0235 63.5769 86.9886 63.4554 86.9795C63.334 86.9703 63.2119 86.9873 63.0993 87.0288Z" fill="#FAFAFA"/>
<path d="M67.7128 95.0382C67.7454 95.0378 67.7773 95.03 67.8055 95.0154C67.8337 95.0009 67.8573 94.9802 67.8739 94.9551C67.887 94.936 67.8955 94.9148 67.8991 94.8926C67.9027 94.8705 67.9013 94.8479 67.8949 94.8263C67.8885 94.8047 67.8773 94.7844 67.862 94.7668C67.8466 94.7491 67.8275 94.7344 67.8056 94.7235L59.2473 90.306C59.2049 90.2918 59.1582 90.2916 59.1156 90.3054C59.073 90.3193 59.0374 90.3462 59.015 90.3815C58.9927 90.4168 58.9851 90.458 58.9937 90.4978C59.0022 90.5376 59.0264 90.5734 59.0618 90.5987L67.6152 95.0207C67.646 95.0326 67.6793 95.0385 67.7128 95.0382Z" fill="#E0E0E0"/>
<path d="M66.7609 95.5495C66.7948 95.5494 66.828 95.5413 66.8572 95.526C66.8864 95.5106 66.9104 95.4885 66.9269 95.4621C66.9502 95.4224 66.9556 95.3763 66.9419 95.3332C66.9283 95.2901 66.8967 95.2534 66.8537 95.2305L58.3003 90.7867C58.2563 90.7647 58.2043 90.7593 58.1558 90.7716C58.1073 90.7839 58.0662 90.8129 58.0415 90.8522C58.0293 90.8711 58.0214 90.892 58.0182 90.9137C58.015 90.9354 58.0166 90.9574 58.023 90.9785C58.0293 90.9997 58.0403 91.0194 58.0552 91.0368C58.0701 91.0541 58.0887 91.0686 58.1099 91.0794L66.6682 95.5014C66.6925 95.5259 66.7251 95.5428 66.7609 95.5495Z" fill="#E0E0E0"/>
<path d="M65.8133 96.0126C65.8539 96.011 65.8928 95.9978 65.9244 95.975C65.956 95.9522 65.9786 95.921 65.989 95.8859C65.9993 95.8507 65.9969 95.8135 65.982 95.7797C65.9671 95.746 65.9405 95.7173 65.9061 95.698L57.3478 91.276C57.3043 91.2537 57.2528 91.2476 57.2044 91.2591C57.1559 91.2705 57.1145 91.2986 57.089 91.3372C57.0653 91.3763 57.0592 91.4221 57.0719 91.4651C57.0846 91.5082 57.1152 91.5452 57.1574 91.5688L65.7157 95.9864C65.7455 96.0017 65.7789 96.0107 65.8133 96.0126Z" fill="#E0E0E0"/>
<path d="M64.8614 96.5019C64.8945 96.5016 64.9269 96.4933 64.9552 96.4779C64.9836 96.4625 65.0068 96.4407 65.0225 96.4145C65.0355 96.3954 65.0441 96.3742 65.0477 96.352C65.0513 96.3299 65.0498 96.3073 65.0434 96.2857C65.0371 96.2641 65.0259 96.2438 65.0105 96.2262C64.9952 96.2085 64.976 96.1938 64.9541 96.183L56.3959 91.7654C56.3747 91.7544 56.3513 91.7474 56.3271 91.7446C56.3029 91.7417 56.2783 91.7432 56.2548 91.7489C56.2312 91.7546 56.2091 91.7643 56.1897 91.7777C56.1704 91.791 56.1542 91.8076 56.142 91.8265C56.1298 91.8455 56.1219 91.8664 56.1187 91.888C56.1156 91.9097 56.1172 91.9317 56.1236 91.9528C56.1299 91.9739 56.1409 91.9937 56.1557 92.011C56.1706 92.0283 56.1892 92.0428 56.2103 92.0537L64.7686 96.4757C64.7958 96.4928 64.8282 96.502 64.8614 96.5019Z" fill="#E0E0E0"/>
<path d="M73.3421 92.552L73.0102 92.3772L69.1143 94.3959L69.4462 94.5663L73.3421 92.552Z" fill="#455A64"/>
<path d="M71.9896 91.8526L71.4135 91.5554L67.5127 93.5698L68.0937 93.8669L71.9896 91.8526Z" fill="#455A64"/>
<path d="M70.6322 91.1492L70.3002 90.9788L66.4043 92.9931L66.7363 93.1635L70.6322 91.1492Z" fill="#455A64"/>
<path d="M69.6224 90.6206L68.9486 90.2798L65.0479 92.2941L65.7216 92.635L69.6224 90.6206Z" fill="#455A64"/>
<path d="M67.9271 89.751L67.5902 89.5762L63.6943 91.5905L64.0263 91.7653L67.9271 89.751Z" fill="#455A64"/>
<path d="M66.9563 89.2399L66.2387 88.8772L62.3428 90.8915L63.0604 91.2586L66.9563 89.2399Z" fill="#455A64"/>
<path d="M65.2171 88.3484L64.8852 88.178L60.9844 90.1923L61.3164 90.3627L65.2171 88.3484Z" fill="#455A64"/>
<path d="M64.4467 87.9509L64.2807 87.8635L60.3848 89.8779L60.5508 89.9609L64.4467 87.9509Z" fill="#455A64"/>
<path d="M65.8148 88.6802L65.6488 88.5928L61.7529 90.6071L61.9189 90.6945L65.8148 88.6802Z" fill="#455A64"/>
<path d="M68.557 90.0832L68.391 89.9958L64.4951 92.0102L64.6611 92.0976L68.557 90.0832Z" fill="#455A64"/>
<path d="M70.0512 90.8564L69.8852 90.769L65.9844 92.7834L66.1504 92.8708L70.0512 90.8564Z" fill="#455A64"/>
<path d="M71.1058 91.4201L70.9398 91.3328L67.0439 93.3471L67.205 93.4345L71.1058 91.4201Z" fill="#455A64"/>
<path d="M72.5902 92.1587L72.4242 92.0713L68.5234 94.0856L68.6894 94.173L72.5902 92.1587Z" fill="#455A64"/>
<path d="M63.8607 87.6494L63.5287 87.479L59.6328 89.4934L59.9648 89.6638L63.8607 87.6494Z" fill="#455A64"/>
<path d="M55.4586 137.396L33.6406 126.123V100.19L55.4586 111.463V137.396Z" fill="#FED0AC"/>
<path d="M55.4586 137.396L33.6406 126.123V100.19L55.4586 111.463V137.396Z" fill="#FED0AC"/>
<path d="M55.459 137.397L85.2055 122.025V96.0913L55.459 111.463V137.397Z" fill="#FED0AC"/>
<path opacity="0.1" d="M55.459 137.397L85.2055 122.025V96.0913L55.459 111.463V137.397Z" fill="black"/>
<path d="M71.3209 107.273L68.4355 108.767V104.756L71.3209 103.266V107.273Z" fill="#37474F"/>
<path d="M68.4352 104.756L46.6221 93.4824L49.5074 91.9924L71.3205 103.266L68.4352 104.756Z" fill="#455A64"/>
<path d="M82.4513 119.529C82.3766 119.528 82.3031 119.512 82.2365 119.481C82.1435 119.42 82.0698 119.339 82.0227 119.245C81.9756 119.15 81.9568 119.047 81.968 118.944V117.371V117.257H82.0559L83.4375 116.532V118.28C83.4344 118.506 83.3712 118.728 83.2532 118.928C83.1352 119.128 82.9658 119.299 82.7589 119.429C82.6678 119.486 82.5618 119.52 82.4513 119.529ZM82.1877 117.489V118.944C82.1779 119.012 82.1876 119.081 82.2158 119.144C82.244 119.207 82.2898 119.263 82.3488 119.307C82.397 119.326 82.45 119.333 82.5023 119.327C82.5546 119.322 82.6044 119.304 82.6466 119.276C82.8182 119.163 82.9586 119.017 83.0568 118.848C83.155 118.679 83.2084 118.492 83.213 118.302V118.171H82.7247L82.6222 117.554L82.1877 117.489ZM82.8956 117.974H83.213V116.886L82.3928 117.323L82.798 117.388L82.8956 117.974Z" fill="#455A64"/>
<path d="M82.7007 120.783C82.6866 120.783 82.6726 120.781 82.6596 120.776C82.6465 120.771 82.6347 120.764 82.6247 120.755C82.6147 120.746 82.6068 120.736 82.6014 120.724C82.596 120.712 82.5933 120.7 82.5933 120.687V119.376C82.5898 119.362 82.59 119.346 82.5939 119.332C82.5979 119.317 82.6053 119.304 82.6159 119.292C82.6264 119.28 82.6397 119.271 82.6548 119.265C82.6699 119.258 82.6864 119.255 82.7031 119.255C82.7198 119.255 82.7363 119.258 82.7514 119.265C82.7665 119.271 82.7798 119.28 82.7904 119.292C82.8009 119.304 82.8084 119.317 82.8123 119.332C82.8162 119.346 82.8164 119.362 82.813 119.376V120.687C82.813 120.7 82.81 120.713 82.8043 120.725C82.7986 120.737 82.7903 120.748 82.7798 120.757C82.7693 120.766 82.7569 120.773 82.7433 120.777C82.7297 120.782 82.7152 120.784 82.7007 120.783Z" fill="#455A64"/>
<path d="M82.0664 121.115C82.0469 121.116 82.0276 121.111 82.0105 121.103C81.9934 121.095 81.979 121.082 81.9688 121.067C81.9544 121.045 81.9504 121.018 81.9577 120.993C81.965 120.967 81.983 120.946 82.0078 120.932L83.2918 120.268C83.3172 120.255 83.3472 120.251 83.3754 120.258C83.4037 120.264 83.428 120.28 83.4432 120.303C83.451 120.314 83.4562 120.326 83.4584 120.339C83.4607 120.352 83.46 120.365 83.4563 120.378C83.4526 120.391 83.4461 120.403 83.4372 120.413C83.4282 120.423 83.4169 120.432 83.4041 120.438L82.1201 121.102C82.1037 121.111 82.0853 121.115 82.0664 121.115Z" fill="#455A64"/>
<path d="M78.2087 123.16C78.1663 123.16 78.1244 123.151 78.0867 123.134C78.0429 123.108 78.0077 123.072 77.9846 123.03C77.9614 122.988 77.9512 122.941 77.9548 122.894V122.64C77.9548 122.614 77.9667 122.588 77.9877 122.569C78.0088 122.55 78.0373 122.54 78.0671 122.54C78.0965 122.541 78.1244 122.552 78.1452 122.57C78.166 122.589 78.1782 122.614 78.1794 122.64V122.911C78.1794 122.955 78.1794 122.972 78.1794 122.977C78.1794 122.981 78.2136 122.977 78.2526 122.977C78.319 122.921 78.3715 122.853 78.4068 122.778C78.4421 122.702 78.4594 122.621 78.4577 122.54V120.792C78.4542 120.777 78.4545 120.762 78.4584 120.748C78.4623 120.733 78.4698 120.72 78.4803 120.708C78.4908 120.696 78.5041 120.687 78.5192 120.68C78.5343 120.674 78.5508 120.671 78.5675 120.671C78.5843 120.671 78.6008 120.674 78.6159 120.68C78.631 120.687 78.6443 120.696 78.6548 120.708C78.6653 120.72 78.6728 120.733 78.6767 120.748C78.6806 120.762 78.6808 120.777 78.6774 120.792V122.54C78.6824 122.657 78.6567 122.774 78.6025 122.881C78.5482 122.988 78.4669 123.082 78.3649 123.156C78.3141 123.169 78.2603 123.171 78.2087 123.16Z" fill="#455A64"/>
<path d="M77.0469 121.622V121.452C77.0739 121.014 77.2157 120.588 77.4608 120.209C77.706 119.829 78.0475 119.507 78.4578 119.267C78.6049 119.156 78.7868 119.088 78.9787 119.072C79.1705 119.057 79.3631 119.095 79.5301 119.181C79.6971 119.267 79.8304 119.397 79.912 119.553C79.9935 119.709 80.0193 119.884 79.9859 120.054V120.111L77.0469 121.622ZM79.1364 119.276C78.9409 119.284 78.7509 119.336 78.5847 119.429C78.2341 119.635 77.9371 119.907 77.7139 120.225C77.4906 120.543 77.3464 120.9 77.291 121.273L79.776 119.988C79.7859 119.864 79.7597 119.739 79.6998 119.627C79.6399 119.514 79.5484 119.417 79.4342 119.346C79.3444 119.298 79.2411 119.273 79.1364 119.276Z" fill="#455A64"/>
<path d="M73.7661 125.38C73.752 125.38 73.738 125.378 73.725 125.373C73.712 125.368 73.7001 125.361 73.6901 125.352C73.6802 125.343 73.6723 125.333 73.6669 125.321C73.6615 125.309 73.6587 125.297 73.6587 125.284V121.915C73.6552 121.901 73.6555 121.885 73.6594 121.871C73.6633 121.856 73.6708 121.843 73.6813 121.831C73.6918 121.82 73.7051 121.81 73.7202 121.804C73.7353 121.797 73.7518 121.794 73.7685 121.794C73.7853 121.794 73.8018 121.797 73.8169 121.804C73.832 121.81 73.8453 121.82 73.8558 121.831C73.8663 121.843 73.8738 121.856 73.8777 121.871C73.8816 121.885 73.8819 121.901 73.8784 121.915V125.284C73.8784 125.297 73.8755 125.31 73.8698 125.322C73.8641 125.334 73.8557 125.345 73.8452 125.354C73.8347 125.363 73.8223 125.37 73.8087 125.374C73.7951 125.379 73.7806 125.381 73.7661 125.38Z" fill="#455A64"/>
<path d="M73.4389 122.68H73.3949C73.3694 122.668 73.3495 122.648 73.3388 122.624C73.3281 122.6 73.3272 122.573 73.3364 122.549L73.7318 121.736L74.1712 122.173C74.1851 122.193 74.1907 122.217 74.1868 122.241C74.1829 122.264 74.1699 122.286 74.15 122.301C74.1301 122.317 74.1047 122.326 74.0782 122.326C74.0517 122.327 74.0258 122.319 74.0052 122.304L73.7953 122.09L73.5414 122.614C73.5336 122.633 73.5196 122.65 73.5014 122.661C73.4831 122.673 73.4613 122.679 73.4389 122.68Z" fill="#455A64"/>
<path d="M74.7861 124.86C74.7714 124.86 74.7568 124.858 74.7432 124.853C74.7295 124.847 74.7172 124.84 74.7067 124.831C74.6963 124.821 74.688 124.81 74.6824 124.798C74.6767 124.786 74.6738 124.773 74.6738 124.76V121.391C74.675 121.364 74.6872 121.34 74.7081 121.321C74.7289 121.302 74.7567 121.291 74.7861 121.29C74.8159 121.29 74.8445 121.301 74.8655 121.32C74.8866 121.339 74.8984 121.364 74.8984 121.391V124.76C74.8984 124.786 74.8866 124.812 74.8655 124.831C74.8445 124.85 74.8159 124.86 74.7861 124.86Z" fill="#455A64"/>
<path d="M74.4655 122.16H74.4215C74.4077 122.155 74.3951 122.148 74.3846 122.139C74.374 122.13 74.3657 122.118 74.3602 122.106C74.3547 122.094 74.3521 122.081 74.3526 122.067C74.3531 122.054 74.3566 122.041 74.363 122.029L74.7584 121.216L75.1929 121.653C75.2036 121.662 75.212 121.673 75.2178 121.685C75.2236 121.697 75.2266 121.71 75.2266 121.723C75.2266 121.736 75.2236 121.749 75.2178 121.761C75.212 121.773 75.2036 121.784 75.1929 121.793C75.172 121.811 75.144 121.821 75.1148 121.821C75.0857 121.821 75.0576 121.811 75.0367 121.793L74.8316 121.575L74.5729 122.099C74.5653 122.119 74.5506 122.135 74.5311 122.146C74.5116 122.157 74.4885 122.162 74.4655 122.16Z" fill="#455A64"/>
<path d="M57.8027 126.678V133.298C57.8027 133.551 58.0029 133.656 58.247 133.529L69.7931 127.565C69.9246 127.49 70.0339 127.387 70.1121 127.267C70.1902 127.146 70.2349 127.01 70.2423 126.87V120.246C70.2423 119.993 70.0421 119.888 69.7931 120.019L58.247 125.988C58.1171 126.063 58.0091 126.165 57.9319 126.285C57.8546 126.405 57.8104 126.54 57.8027 126.678Z" fill="#FAFAFA"/>
<path d="M69.5234 120.967L69.1523 121.159V127.176L69.5234 126.984V120.967Z" fill="#455A64"/>
<path d="M68.0058 121.749L67.3662 122.086V128.103L68.0058 127.766V121.749Z" fill="#455A64"/>
<path d="M66.4921 122.531L66.1162 122.724V128.74L66.4921 128.548V122.531Z" fill="#455A64"/>
<path d="M65.3446 123.112L64.5977 123.51V129.527L65.3446 129.129V123.112Z" fill="#455A64"/>
<path d="M63.455 124.1L63.084 124.292V130.309L63.455 130.117V124.1Z" fill="#455A64"/>
<path d="M62.3622 124.65L61.5664 125.074V131.095L62.3622 130.667V124.65Z" fill="#455A64"/>
<path d="M60.4189 125.668L60.0479 125.861V131.878L60.4189 131.685V125.668Z" fill="#455A64"/>
<path d="M59.5547 126.11L59.3691 126.206V132.223L59.5547 132.127V126.11Z" fill="#455A64"/>
<path d="M61.1113 125.341L60.9258 125.437V131.454L61.1113 131.358V125.341Z" fill="#455A64"/>
<path d="M64.1679 123.737L63.9824 123.833V129.85L64.1679 129.754V123.737Z" fill="#455A64"/>
<path d="M65.8427 122.877L65.6572 122.973V128.99L65.8427 128.894V122.877Z" fill="#455A64"/>
<path d="M67.0439 122.282L66.8584 122.378V128.395L67.0439 128.299V122.282Z" fill="#455A64"/>
<path d="M68.6748 121.395L68.4893 121.496V127.512L68.6748 127.416V121.395Z" fill="#455A64"/>
<path d="M58.9003 126.451L58.5293 126.643V132.66L58.9003 132.468V126.451Z" fill="#455A64"/>
</svg>
