<svg viewBox="0 0 600 600" fill="none" xmlns="http://www.w3.org/2000/svg">
<path opacity="0.9" d="M25.2677 89.8158C72.34 -10.3831 239.504 3.71424 303.992 74.2008C368.481 144.687 389.471 189.88 447.654 163.574C505.837 137.268 580.036 144.283 584.218 227.939C588.399 311.596 520.37 410.462 412.164 439.719C303.959 468.976 303.992 572.531 160.786 551.638C82.7087 540.256 81.0228 455.756 91.9647 385.893C102.907 316.031 -29.3241 206.068 25.2677 89.8158Z" fill="white"/>
<path d="M491.448 341.736H401.232V441.648H491.448V341.736Z" fill="#EBEBEB"/>
<path d="M538.032 341.736H491.448V441.648H538.032V341.736Z" fill="#DBDBDB"/>
<path d="M534.828 434.76C531.38 427.656 527.96 420.528 524.568 413.376L514.464 391.896L504.492 370.296C501.18 363.096 497.904 355.864 494.664 348.6C498.104 355.704 501.52 362.832 504.912 369.984L515.028 391.476L525 413.076C528.312 420.276 531.588 427.504 534.828 434.76Z" fill="#EBEBEB"/>
<path d="M534.828 348.612C531.588 355.876 528.312 363.108 525 370.308L515.028 391.908L504.912 413.4C501.528 420.536 498.112 427.66 494.664 434.772C497.864 427.524 501.14 420.296 504.492 413.088L514.464 391.488L524.568 369.996C527.952 362.844 531.372 355.716 534.828 348.612Z" fill="#EBEBEB"/>
<path d="M491.448 190.848H401.232V283.872H491.448V190.848Z" fill="#EBEBEB"/>
<path d="M538.032 190.848H491.448V283.872H538.032V190.848Z" fill="#DBDBDB"/>
<path d="M453.996 212.436H452.088H450.66L449.832 210.768L448.68 212.436L447.132 209.016L445.656 212.436H441.432H439.5L438.804 210.156L438.144 212.436H436.896V190.848H453.996V212.436Z" fill="#DBDBDB"/>
<path d="M534.828 277.932C531.38 271.316 527.96 264.68 524.568 258.024L514.464 238.02L504.492 217.92C501.18 211.208 497.904 204.476 494.664 197.724C498.104 204.332 501.52 210.968 504.912 217.632L515.028 237.6L525 257.688C528.312 264.432 531.588 271.18 534.828 277.932Z" fill="#EBEBEB"/>
<path d="M534.828 197.724C531.588 204.476 528.312 211.208 525 217.92L515.028 238.02L504.912 258C501.528 264.656 498.112 271.292 494.664 277.908C497.864 271.164 501.14 264.432 504.492 257.712L514.464 237.6L524.568 217.584C527.952 210.928 531.372 204.308 534.828 197.724Z" fill="#EBEBEB"/>
<path d="M485.508 268.08H475.488V278.1H485.508V268.08Z" fill="white"/>
<path d="M158.16 261.216H67.9438V354.24H158.16V261.216Z" fill="#EBEBEB"/>
<path d="M204.744 261.216H158.16V354.24H204.744V261.216Z" fill="#DBDBDB"/>
<path d="M201.6 348.312C198.144 341.688 194.724 335.052 191.34 328.404L181.2 308.4L171.216 288.312C167.92 281.608 164.648 274.876 161.4 268.116C164.848 274.732 168.264 281.364 171.648 288.012L181.764 308.028L191.736 328.128C195.032 334.824 198.32 341.552 201.6 348.312Z" fill="#EBEBEB"/>
<path d="M201.6 268.104C198.352 274.848 195.076 281.58 191.772 288.3L181.74 308.4L171.6 328.404C168.216 335.06 164.8 341.696 161.352 348.312C164.592 341.56 167.864 334.828 171.168 328.116L181.2 308.016L191.28 288C194.664 281.352 198.104 274.72 201.6 268.104Z" fill="#EBEBEB"/>
<path d="M152.22 338.448H142.2V348.468H152.22V338.448Z" fill="white"/>
<path d="M497.46 283.872H407.244V341.736H497.46V283.872Z" fill="#DBDBDB"/>
<path d="M544.044 283.872H497.46V341.736H544.044V283.872Z" fill="#C7C7C7"/>
<path d="M460.008 305.46H458.1H456.66L455.844 303.804L454.692 305.46L453.144 302.04L451.668 305.46H447.444H445.512L444.816 303.18L444.156 305.46H442.908V283.872H460.008V305.46Z" fill="white"/>
<path d="M540.84 338.292C537.384 334.092 533.964 329.876 530.58 325.644L520.476 312.924L510.504 300.156C507.192 295.884 503.916 291.604 500.676 287.316C504.124 291.516 507.54 295.732 510.924 299.964L521.04 312.684L531.012 325.452C534.324 329.724 537.6 334.004 540.84 338.292Z" fill="#DBDBDB"/>
<path d="M540.84 287.316C537.6 291.612 534.324 295.888 531.012 300.144L521.04 312.924L510.924 325.644C507.54 329.868 504.124 334.084 500.676 338.292C503.876 333.996 507.152 329.716 510.504 325.452L520.476 312.684L530.58 299.964C533.964 295.74 537.384 291.524 540.84 287.316Z" fill="#DBDBDB"/>
<path d="M152.232 203.352H62.0156V261.216H152.232V203.352Z" fill="#DBDBDB"/>
<path d="M198.828 203.352H152.244V261.216H198.828V203.352Z" fill="#C7C7C7"/>
<path d="M114.78 224.94H112.872H111.444L110.616 223.284L109.476 224.94L107.916 221.52L106.44 224.94H102.216H100.284L99.5877 222.66L98.9277 224.94H97.6797V203.352H114.78V224.94Z" fill="white"/>
<path d="M195.6 257.772C192.152 253.572 188.736 249.356 185.352 245.124L175.2 232.404L165.276 219.6C161.964 215.328 158.688 211.048 155.448 206.76C158.904 210.96 162.324 215.176 165.708 219.408L175.812 232.128L185.784 244.896C189.128 249.192 192.4 253.484 195.6 257.772Z" fill="#DBDBDB"/>
<path d="M195.6 206.796C192.4 211.092 189.124 215.372 185.772 219.636L175.8 232.404L165.696 245.124C162.312 249.348 158.892 253.564 155.436 257.772C158.676 253.476 161.952 249.196 165.264 244.932L175.2 232.164L185.316 219.444C188.732 215.22 192.16 211.004 195.6 206.796Z" fill="#DBDBDB"/>
<path d="M146.172 354.24H55.9561V441.636H146.172V354.24Z" fill="#DBDBDB"/>
<path d="M192.756 354.24H146.172V441.636H192.756V354.24Z" fill="#C7C7C7"/>
<path d="M108.72 375.84H106.812H105.372L104.556 374.172L103.404 375.84L101.844 372.408L100.368 375.84H96.1439H94.2239L93.5279 373.548L92.8679 375.84H91.6079V354.24H108.72V375.84Z" fill="white"/>
<path d="M189.6 436.44C186.144 430.096 182.724 423.728 179.34 417.336L169.236 398.136L159.252 378.84C155.94 372.44 152.664 365.98 149.424 359.46C152.88 365.804 156.3 372.172 159.684 378.564L169.788 397.764L179.772 417.06C183.044 423.492 186.32 429.952 189.6 436.44Z" fill="#DBDBDB"/>
<path d="M189.6 359.448C186.344 365.928 183.068 372.388 179.772 378.828L169.788 398.124L159.684 417.324C156.3 423.724 152.88 430.092 149.424 436.428C152.672 429.948 155.948 423.488 159.252 417.048L169.2 397.764L179.304 378.564C182.68 372.172 186.112 365.8 189.6 359.448Z" fill="#DBDBDB"/>
<path d="M87.1079 390.072L71.3639 390.396L63.3719 390.54C60.6959 390.54 58.0079 390.54 55.3319 390.6H54.8039V390.072L54.7319 376.644V376.032H55.3319L71.2199 376.104C76.5239 376.104 81.8159 376.236 87.1079 376.296H87.4439V376.62C87.4439 378.888 87.3359 381.156 87.2879 383.4L87.1079 390.072ZM87.1079 390.072L86.9399 383.28C86.9399 381.048 86.8079 378.84 86.7839 376.644L87.1079 376.968C81.8159 377.028 76.5239 377.16 71.2199 377.16L55.3319 377.244L55.9319 376.644V390.072L55.3919 389.532C58.0079 389.532 60.6239 389.532 63.2519 389.592L71.1479 389.736L87.1079 390.072Z" fill="#EBEBEB"/>
<path d="M69.3838 407.004L53.6398 407.328L45.6478 407.472C42.9718 407.472 40.2838 407.472 37.6078 407.532H37.0798V407.004L37.0078 393.6V392.988H37.6078L53.4958 393.06C58.7878 393.06 64.0918 393.192 69.3838 393.252H69.7198V393.6C69.7198 395.868 69.6238 398.136 69.5638 400.38L69.3838 407.004ZM69.3838 407.004L69.2158 400.212C69.2158 397.98 69.0838 395.772 69.0598 393.576L69.3838 393.9C64.0918 393.96 58.7878 394.092 53.4958 394.092L37.6078 394.164L38.2078 393.576L38.1478 407.004L37.6078 406.464C40.2238 406.464 42.8398 406.464 45.4678 406.464L53.3638 406.608L69.3838 407.004Z" fill="#EBEBEB"/>
<path d="M406.32 163.92L390.564 164.256L382.572 164.388C379.908 164.388 377.22 164.388 374.544 164.46H374.016V163.92L373.956 150.492V149.892H374.556L390.444 149.964C395.736 149.964 401.04 150.108 406.332 150.168H406.668V150.492C406.668 152.772 406.572 155.04 406.512 157.272L406.32 163.92ZM406.32 163.92L406.152 157.14C406.152 154.896 406.02 152.688 405.996 150.492L406.32 150.816C401.028 150.816 395.724 151.008 390.432 151.02L374.544 151.092L375.144 150.492L375.072 163.92L374.544 163.38C377.16 163.38 379.776 163.38 382.392 163.452L390.288 163.584L406.32 163.92Z" fill="#EBEBEB"/>
<path d="M388.596 180.852L372.84 181.2L364.848 181.332C362.184 181.392 359.496 181.332 356.82 181.404H356.28V180.864V167.436V166.8H356.88L372.768 166.872C378.06 166.872 383.352 167.016 388.656 167.076H388.98V167.4C388.98 169.68 388.872 171.948 388.824 174.18L388.596 180.852ZM388.596 180.852L388.428 174.072C388.368 171.828 388.284 169.62 388.26 167.424L388.596 167.748C383.292 167.808 378 167.94 372.708 167.952L356.82 168.024L357.42 167.424L357.348 180.852L356.82 180.312C359.436 180.312 362.052 180.312 364.668 180.384L372.564 180.516L388.596 180.852Z" fill="#EBEBEB"/>
<path d="M370.932 163.92L355.188 164.256L347.196 164.388C344.52 164.388 341.844 164.388 339.156 164.46H338.628V163.92L338.556 150.492V149.892H339.156L355.044 149.964C360.348 149.964 365.64 150.108 370.932 150.168H371.268V150.492C371.268 152.772 371.16 155.04 371.112 157.272L370.932 163.92ZM370.932 163.92L370.8 157.2C370.8 154.956 370.668 152.748 370.644 150.552L370.968 150.876C365.676 150.876 360.384 151.068 355.08 151.08L339.192 151.152L339.792 150.552L339.732 163.98L339.192 163.44C341.82 163.44 344.424 163.44 347.052 163.512L354.948 163.644L370.932 163.92Z" fill="#EBEBEB"/>
<path d="M562.392 407.004L546.636 407.328L538.644 407.472C535.98 407.472 533.292 407.472 530.616 407.532H530.076V407.004L530.016 393.6V392.988H530.616L546.504 393.06C551.796 393.06 557.1 393.192 562.392 393.252H562.716V393.6C562.716 395.868 562.62 398.136 562.56 400.38L562.392 407.004ZM562.392 407.004L562.224 400.212C562.224 397.98 562.08 395.772 562.068 393.576L562.392 393.9C557.1 393.96 551.796 394.092 546.504 394.092L530.616 394.164L531.216 393.576L531.144 407.004L530.616 406.464C533.232 406.464 535.848 406.464 538.464 406.464L546.36 406.608L562.392 407.004Z" fill="#EBEBEB"/>
<path d="M544.668 78.588L528.912 78.912L520.92 79.056C518.256 79.056 515.568 79.056 512.892 79.116H512.4V78.576V65.148V64.536H513.012L528.9 64.608C534.192 64.608 539.484 64.74 544.788 64.8H545.112V65.124C545.112 67.404 545.004 69.66 544.956 71.904L544.668 78.588ZM544.668 78.588L544.5 71.796C544.44 69.564 544.356 67.356 544.332 65.16L544.668 65.484C539.364 65.484 534.072 65.676 528.78 65.676L512.892 65.76L513.492 65.16L513.42 78.588L512.892 78.048C515.508 78.048 518.112 78.048 520.74 78.12L528.636 78.252L544.668 78.588Z" fill="#EBEBEB"/>
<path d="M562.392 95.52L546.636 95.844L538.644 95.988C535.98 95.988 533.292 95.988 530.616 96.048H530.076V95.52L530.016 82.092V81.48H530.616L546.504 81.552C551.796 81.552 557.1 81.684 562.392 81.744H562.716V82.068C562.716 84.336 562.62 86.604 562.56 88.848L562.392 95.52ZM562.392 95.52L562.224 88.728C562.224 86.496 562.08 84.288 562.068 82.092L562.392 82.416C557.1 82.416 551.796 82.608 546.504 82.608L530.616 82.692L531.216 82.092L531.144 95.52L530.616 94.98C533.232 94.98 535.848 94.98 538.464 95.052L546.36 95.184L562.392 95.52Z" fill="#EBEBEB"/>
<path d="M87.1079 78.588L71.3639 78.912L63.3719 79.056C60.6959 79.056 58.0079 79.056 55.3319 79.116H54.8039V78.576L54.7319 65.16V64.548H55.3319L71.2199 64.62C76.5239 64.62 81.8159 64.752 87.1079 64.812H87.4439V65.136C87.4439 67.416 87.3359 69.672 87.2879 71.916L87.1079 78.588ZM87.1079 78.588L86.9399 71.796C86.9399 69.564 86.8079 67.356 86.7839 65.16L87.1079 65.484C81.8159 65.484 76.5239 65.676 71.2199 65.676L55.3319 65.76L55.9319 65.16V78.588L55.3319 78C57.9479 78 60.5639 78 63.1919 78.072L71.0879 78.204L87.1079 78.588Z" fill="#EBEBEB"/>
<path d="M48.3481 441.816L111.264 441.516L174.168 441.408L300 441.216L425.832 441.408L488.736 441.516L551.652 441.816L488.736 442.104L425.832 442.212L300 442.404L174.168 442.212L111.264 442.104L48.3481 441.816Z" fill="#263238"/>
<path d="M307.152 551.22C450.086 551.22 565.956 538.003 565.956 521.7C565.956 505.397 450.086 492.18 307.152 492.18C164.219 492.18 48.3481 505.397 48.3481 521.7C48.3481 538.003 164.219 551.22 307.152 551.22Z" fill="#EBEBEB"/>
<path d="M203.856 67.572H169.008V441.648H203.856V67.572Z" fill="#263238"/>
<path d="M430.992 67.572H396.144V441.648H430.992V67.572Z" fill="#455A64"/>
<path d="M396.144 104.256H183.312V116.82H396.144V104.256Z" fill="#37474F"/>
<path d="M396.144 185.46H183.312V198.024H396.144V185.46Z" fill="#37474F"/>
<path d="M396.144 266.664H183.312V279.228H396.144V266.664Z" fill="#37474F"/>
<path d="M396.144 347.868H183.312V360.432H396.144V347.868Z" fill="#37474F"/>
<path d="M396.144 429.072H183.312V441.636H396.144V429.072Z" fill="#37474F"/>
<path d="M273.9 117.444H207.948V185.448H273.9V117.444Z" fill="#EBEBEB"/>
<path d="M307.968 117.444H273.912V185.46H307.968V117.444Z" fill="#DBDBDB"/>
<path d="M246.528 133.236H245.136H244.08L243.48 132.024L242.64 133.236L241.5 130.728L240.42 133.236H237.336H235.932L235.416 131.568L234.936 133.236H234.024V117.444H246.528V133.236Z" fill="#DBDBDB"/>
<path d="M305.616 181.116C303.096 176.316 300.596 171.464 298.116 166.56L290.736 151.932L283.44 137.244C281.04 132.332 278.64 127.412 276.24 122.484C278.76 127.284 281.26 132.136 283.74 137.04L291.132 151.668L298.428 166.356C300.852 171.26 303.248 176.18 305.616 181.116Z" fill="#EBEBEB"/>
<path d="M305.616 122.484C303.216 127.42 300.816 132.34 298.416 137.244L291.12 151.932L283.728 166.572C281.256 171.436 278.756 176.284 276.228 181.116C278.628 176.18 281.028 171.26 283.428 166.356L290.724 151.668L298.104 137.04C300.6 132.168 303.104 127.316 305.616 122.484Z" fill="#EBEBEB"/>
<path d="M269.556 173.916H262.236V181.236H269.556V173.916Z" fill="white"/>
<path d="M315.444 224.364H249.492V266.664H315.444V224.364Z" fill="#DBDBDB"/>
<path d="M349.5 224.364H315.444V266.664H349.5V224.364Z" fill="#C7C7C7"/>
<path d="M288.06 240.144H286.668H285.612L285.012 238.932L284.172 240.144L283.044 237.648L281.964 240.144H278.868H277.464L276.948 238.476L276.48 240.144H275.556V224.364H288.06V240.144Z" fill="white"/>
<path d="M347.16 264.144C344.624 261.072 342.124 257.992 339.66 254.904L332.268 245.604L324.972 236.268C322.572 233.148 320.172 230.02 317.772 226.884C320.308 229.956 322.808 233.036 325.272 236.124L332.664 245.424L339.96 254.76C342.392 257.88 344.792 261.008 347.16 264.144Z" fill="#DBDBDB"/>
<path d="M347.16 226.884C344.76 230.02 342.36 233.148 339.96 236.268L332.664 245.604L325.272 254.904C322.8 257.992 320.3 261.072 317.772 264.144C320.172 261.008 322.572 257.88 324.972 254.76L332.268 245.424L339.66 236.136C342.132 233.04 344.632 229.956 347.16 226.884Z" fill="#DBDBDB"/>
<path d="M550.32 512.4C550.02 509.58 517.608 439.752 514.692 437.88C513.588 437.148 503.136 441.276 490.692 446.628L490.296 446.796C487.728 447.888 440.22 460.656 440.22 460.656L461.244 506.4L510.672 492.132L511.428 491.76C511.428 491.76 535.788 512.94 539.22 514.656C542.652 516.372 550.644 515.268 550.32 512.4Z" fill="#C95F50"/>
<path d="M481.2 449.496L502.8 494.364L510.576 492.12L511.344 491.76C511.344 491.76 535.704 512.94 539.124 514.656C542.544 516.372 550.572 515.268 550.236 512.448C549.9 509.628 517.524 439.788 514.608 437.928C513.504 437.196 503.052 441.312 490.608 446.676L490.236 446.844C489.6 447.12 486.12 448.128 481.2 449.496Z" fill="#EBEBEB"/>
<path d="M550.596 512.796C550.296 509.952 517.812 439.32 514.872 437.412C513.768 436.68 503.196 440.808 490.584 446.16L511.392 491.76C511.392 491.76 535.92 513.24 539.364 514.992C542.808 516.744 550.908 515.64 550.596 512.796Z" fill="#FFC727"/>
<path d="M547.308 513.084C541.572 501.384 519.6 453.6 514.8 441.6C514.8 441.504 514.8 441.48 514.884 441.6C520.812 453.072 542.484 501 547.536 513.012C547.608 513.252 547.428 513.336 547.308 513.084Z" fill="#263238"/>
<path d="M534.732 511.62C534.093 510.321 533.732 508.904 533.67 507.458C533.608 506.012 533.847 504.569 534.372 503.22C535.288 500.777 537.116 498.785 539.472 497.664C539.544 497.664 539.604 497.76 539.544 497.808C537.384 499.288 535.762 501.428 534.923 503.908C534.083 506.387 534.071 509.073 534.888 511.56C534.924 511.644 534.78 511.716 534.732 511.62Z" fill="#263238"/>
<path d="M514.68 495.816C512.436 491.1 511.572 484.836 514.104 480.108C514.2 479.928 514.452 480.108 514.452 480.24C514.185 485.383 514.467 490.54 515.292 495.624C515.304 495.701 515.289 495.78 515.248 495.846C515.207 495.912 515.143 495.962 515.069 495.985C514.995 496.009 514.914 496.004 514.843 495.973C514.771 495.942 514.714 495.886 514.68 495.816Z" fill="#263238"/>
<path d="M517.788 498.816C515.544 494.1 514.68 487.848 517.212 483.12C517.308 482.928 517.56 483.12 517.56 483.252C517.293 488.391 517.575 493.544 518.4 498.624C518.412 498.701 518.397 498.78 518.356 498.846C518.315 498.912 518.251 498.962 518.177 498.985C518.103 499.009 518.022 499.004 517.951 498.973C517.879 498.942 517.821 498.886 517.788 498.816Z" fill="#263238"/>
<path d="M520.896 501.816C518.652 497.112 517.788 490.848 520.32 486.12C520.416 485.94 520.668 486.12 520.668 486.252C520.402 491.395 520.683 496.552 521.508 501.636C521.516 501.712 521.497 501.788 521.455 501.851C521.413 501.914 521.35 501.961 521.277 501.982C521.204 502.004 521.126 501.999 521.056 501.968C520.987 501.938 520.93 501.884 520.896 501.816Z" fill="#263238"/>
<path d="M524.004 504.816C521.76 500.112 520.908 493.848 523.428 489.12C523.524 488.94 523.776 489.12 523.776 489.252C523.51 494.395 523.791 499.552 524.616 504.636C524.624 504.712 524.606 504.788 524.564 504.851C524.521 504.914 524.458 504.961 524.385 504.982C524.312 505.004 524.234 504.999 524.164 504.968C524.095 504.938 524.038 504.884 524.004 504.816Z" fill="#263238"/>
<path d="M504.912 449.808C502.512 444.48 510.756 440.7 513.18 446.028C515.604 451.356 507.348 455.136 504.912 449.808Z" fill="#263238"/>
<path d="M511.2 503.172C513.324 499.104 513.6 494.244 514.392 489.804C514.402 489.705 514.389 489.604 514.352 489.511C514.316 489.418 514.258 489.335 514.182 489.269C514.107 489.203 514.017 489.156 513.92 489.132C513.823 489.108 513.721 489.108 513.624 489.132C513.624 489.048 513.516 488.988 513.42 489.036C509.233 491.388 505.736 494.798 503.28 498.924C501.9 501.324 501.336 505.26 504.48 506.748C507.624 508.236 509.916 505.56 511.2 503.172ZM507.336 505.2C501.96 507.096 503.736 500.628 504.936 498.876C505.659 497.753 506.461 496.682 507.336 495.672C509.167 493.611 511.101 491.645 513.132 489.78C512.604 491.94 512.28 494.124 511.848 496.308C511.26 498.9 510.3 504.156 507.336 505.2Z" fill="#263238"/>
<path d="M502.608 473.604C499.692 475.392 500.64 479.232 502.272 481.512C505.139 485.361 508.967 488.39 513.372 490.296C513.391 490.303 513.412 490.306 513.433 490.305C513.454 490.303 513.475 490.297 513.493 490.287C513.511 490.276 513.527 490.262 513.539 490.245C513.551 490.228 513.56 490.209 513.564 490.188C513.948 490.188 514.392 489.888 514.26 489.432C513.06 485.088 512.244 480.3 509.712 476.46C508.236 474.216 505.38 471.9 502.608 473.604ZM511.008 483.204C511.668 485.328 512.208 487.476 512.952 489.564C510.792 487.848 508.572 486.228 506.58 484.296C505.614 483.374 504.708 482.393 503.868 481.356C502.608 479.724 500.124 473.472 505.668 474.816C508.8 475.572 510.252 480.708 511.044 483.228L511.008 483.204Z" fill="#263238"/>
<path d="M377.844 311.616C377.844 311.616 378.72 338.988 382.824 352.476C382.824 352.476 387.3 354.876 388.644 355.668C388.644 355.668 354.636 437.1 356.568 468.468C357.204 478.74 368.844 495.624 380.568 502.932C401.352 515.868 502.836 504.516 502.836 504.516L488.112 443.508C488.112 443.508 423.948 447.108 422.328 443.604C420.276 439.2 433.044 404.952 443.256 377.124C444.276 374.316 454.548 363.924 453.348 345.18C452.435 333.569 449.444 322.217 444.516 311.664L377.844 311.616Z" fill="#37474F"/>
<path d="M476.4 450.24C462.396 449.976 450.996 451.164 436.992 451.176H421.2C419.991 451.204 418.783 451.091 417.6 450.84C416.485 450.656 415.479 450.061 414.78 449.172C413.856 447.78 414.348 446.016 414.672 444.516C415.376 441.228 416.176 437.956 417.072 434.7C420.6 421.5 425.208 408.564 429.54 395.592L436.116 375.6C436.656 373.98 437.196 372.348 437.88 370.8C438.532 369.358 439.269 367.955 440.088 366.6C441.672 364.007 442.945 361.235 443.88 358.344C447.672 345.9 444.036 333.024 439.608 321.276C439.008 319.704 438.408 318.132 437.748 316.572C437.748 316.464 437.532 316.512 437.58 316.632C441.612 329.028 446.424 341.928 443.712 355.152C443.086 358.264 441.998 361.266 440.484 364.056C439.704 365.472 438.852 366.852 438.084 368.28C437.329 369.737 436.676 371.245 436.128 372.792C433.728 379.356 431.664 385.992 429.444 392.664C425.016 405.864 420.36 418.968 416.676 432.372C415.764 435.708 414.912 439.068 414.156 442.44C413.604 444.936 412.356 448.32 414.528 450.384C416.124 451.896 418.62 452.076 420.696 452.1C424.188 452.1 427.668 452.1 431.16 452.1C445.356 452.1 474.672 450.9 476.436 450.84C476.516 450.835 476.59 450.799 476.643 450.739C476.696 450.68 476.723 450.602 476.718 450.522C476.713 450.442 476.677 450.368 476.617 450.315C476.558 450.262 476.48 450.235 476.4 450.24Z" fill="#263238"/>
<path d="M492.084 501.6C490.716 494.472 489.396 487.308 487.824 480.228C486.252 473.148 484.536 466.044 482.7 459C482.172 457.008 481.644 455.028 481.104 453C480.852 452.052 480.6 451.116 480.324 450.168C480.092 449.203 479.799 448.253 479.448 447.324C479.448 447.228 479.268 447.324 479.28 447.384C479.473 449.229 479.798 451.057 480.252 452.856C480.6 454.572 480.924 456.3 481.284 458.016C482.02 461.552 482.768 465.084 483.528 468.612C485.076 475.68 486.828 482.688 488.628 489.696C489.66 493.668 490.68 497.652 491.724 501.624C491.784 501.924 492.132 501.876 492.084 501.6Z" fill="#263238"/>
<path d="M368.22 411.372L440.22 385.284C441.228 382.512 442.236 379.764 443.22 377.076C444.204 374.388 454.512 363.876 453.324 345.12C452.418 333.512 449.426 322.162 444.492 311.616H377.844C377.844 311.616 378.708 338.988 382.824 352.416C382.824 352.416 387.3 354.816 388.644 355.62C388.644 355.668 377.412 382.548 368.22 411.372Z" fill="#263238"/>
<path d="M258.708 515.724C261.42 516.54 338.364 513.996 341.232 512.04C342.336 511.32 342.612 500.04 342.564 486.504V486.072C342.564 483.276 336.192 436.344 336.192 436.344L282.336 438L292.908 487.2V488.04C292.908 488.04 264 502.152 261.012 504.636C258.024 507.12 255.984 514.92 258.708 515.724Z" fill="#C95F50"/>
<path d="M258.708 515.736C261.42 516.552 338.364 513.996 341.232 512.04C342.336 511.308 342.624 500.04 342.564 486.504V486.072C342.564 485.304 342.084 481.272 341.364 475.74L290.844 477.708L292.86 487.164V488.004C292.86 488.004 263.832 502.152 260.904 504.636C257.976 507.12 255.984 514.92 258.708 515.736Z" fill="#EBEBEB"/>
<path d="M258.12 516.06C260.868 516.876 338.52 514.296 341.46 512.328C342.564 511.584 342.852 500.244 342.804 486.54L292.704 488.064C292.704 488.064 263.4 502.356 260.448 504.864C257.496 507.372 255.372 515.244 258.12 516.06Z" fill="#FFC727"/>
<path d="M259.128 512.916C272.148 512.16 324.696 510.36 337.62 510.6C337.728 510.6 337.728 510.672 337.62 510.684C324.744 511.704 272.172 513.084 259.14 513.084C258.864 513.132 258.852 512.94 259.128 512.916Z" fill="#263238"/>
<path d="M265.356 501.9C266.802 501.812 268.251 502.026 269.61 502.528C270.97 503.03 272.21 503.809 273.252 504.816C275.142 506.611 276.268 509.065 276.396 511.668C276.396 511.752 276.252 511.752 276.24 511.668C275.708 509.106 274.36 506.785 272.398 505.054C270.435 503.323 267.964 502.276 265.356 502.068C265.334 502.068 265.312 502.059 265.297 502.043C265.281 502.028 265.272 502.006 265.272 501.984C265.272 501.962 265.281 501.94 265.297 501.925C265.312 501.909 265.334 501.9 265.356 501.9Z" fill="#263238"/>
<path d="M287.688 489.516C292.908 489.276 299.004 490.92 302.388 495.072C302.52 495.228 302.292 495.42 302.136 495.336C297.496 493.105 292.633 491.372 287.628 490.164C287.585 490.16 287.544 490.148 287.506 490.128C287.468 490.108 287.435 490.081 287.408 490.048C287.38 490.015 287.36 489.977 287.347 489.936C287.334 489.895 287.33 489.853 287.334 489.81C287.338 489.767 287.35 489.726 287.37 489.688C287.39 489.65 287.417 489.617 287.45 489.59C287.483 489.562 287.521 489.542 287.562 489.529C287.602 489.517 287.645 489.512 287.688 489.516Z" fill="#263238"/>
<path d="M283.716 491.22C288.936 490.98 295.032 492.612 298.416 496.776C298.548 496.932 298.32 497.112 298.164 497.04C293.526 494.804 288.662 493.07 283.656 491.868C283.57 491.86 283.491 491.818 283.435 491.752C283.38 491.686 283.354 491.6 283.362 491.514C283.37 491.428 283.411 491.349 283.478 491.294C283.544 491.239 283.63 491.212 283.716 491.22Z" fill="#263238"/>
<path d="M279.744 492.924C284.964 492.684 291.06 494.316 294.444 498.48C294.576 498.636 294.348 498.816 294.192 498.744C289.554 496.508 284.69 494.774 279.684 493.572C279.598 493.564 279.518 493.522 279.463 493.456C279.408 493.389 279.382 493.304 279.39 493.218C279.398 493.132 279.439 493.053 279.506 492.998C279.572 492.943 279.658 492.916 279.744 492.924Z" fill="#263238"/>
<path d="M275.772 494.628C280.992 494.388 287.088 496.02 290.472 500.184C290.604 500.34 290.376 500.52 290.22 500.448C285.582 498.212 280.718 496.478 275.712 495.276C275.669 495.272 275.628 495.26 275.59 495.24C275.552 495.22 275.519 495.193 275.492 495.16C275.464 495.127 275.444 495.089 275.431 495.048C275.418 495.007 275.414 494.965 275.418 494.922C275.422 494.879 275.434 494.838 275.454 494.8C275.474 494.763 275.501 494.729 275.534 494.702C275.567 494.674 275.605 494.654 275.646 494.641C275.686 494.629 275.729 494.624 275.772 494.628Z" fill="#263238"/>
<path d="M333.888 498.336C339.744 498.156 340.032 507.252 334.164 507.432C328.296 507.612 328.032 498.516 333.888 498.336Z" fill="#263238"/>
<path d="M282.264 483.42C285.204 486.96 289.56 489.108 293.364 491.544C293.452 491.591 293.55 491.616 293.65 491.618C293.749 491.621 293.848 491.599 293.938 491.556C294.028 491.513 294.107 491.449 294.167 491.37C294.228 491.29 294.269 491.198 294.288 491.1C294.372 491.1 294.456 491.1 294.444 490.944C293.906 486.165 292.118 481.612 289.26 477.744C287.556 475.524 284.16 473.496 281.592 475.776C279.024 478.056 280.56 481.356 282.264 483.42ZM281.88 479.112C282.216 473.424 287.472 477.612 288.66 479.292C289.411 480.398 290.089 481.552 290.688 482.748C291.96 485.148 292.86 487.812 293.88 490.38C292.092 489.06 290.196 487.908 288.36 486.66C286.176 485.184 281.7 482.256 281.88 479.112Z" fill="#263238"/>
<path d="M312.84 486.996C312.324 483.612 308.412 483 305.64 483.624C300.982 484.776 296.707 487.131 293.244 490.452C293.227 490.464 293.212 490.48 293.203 490.499C293.193 490.518 293.188 490.539 293.188 490.56C293.188 490.581 293.193 490.602 293.203 490.621C293.212 490.64 293.227 490.656 293.244 490.668C293.192 490.755 293.162 490.854 293.156 490.955C293.15 491.056 293.168 491.158 293.209 491.25C293.25 491.343 293.313 491.425 293.392 491.488C293.471 491.552 293.564 491.596 293.664 491.616C298.14 492.156 302.868 493.296 307.38 492.444C310.092 492 313.332 490.2 312.84 486.996ZM300.696 491.04C298.488 490.836 296.304 490.512 294.084 490.38C296.46 488.979 298.908 487.701 301.416 486.552C302.633 486.006 303.888 485.548 305.172 485.184C307.164 484.644 313.884 484.776 310.512 489.372C308.64 491.904 303.336 491.304 300.696 491.04Z" fill="#263238"/>
<path d="M288.516 483.408H348.768C348.768 483.408 338.04 401.388 341.568 396.036C343.14 393.636 421.356 401.52 444.24 376.74C465.156 354.072 443.868 311.616 443.868 311.616H379.668C379.668 311.616 378.36 329.82 374.868 337.092C373.392 340.212 301.668 335.76 290.436 356.292C275.508 383.64 288.516 483.408 288.516 483.408Z" fill="#37474F"/>
<path d="M342.42 471.948C335.616 471.744 328.8 471.48 322.02 471.492C315.24 471.504 308.376 471.636 301.548 471.9C299.628 471.984 293.94 472.248 293.028 472.32C292.095 472.339 291.165 472.419 290.244 472.56C290.136 472.56 290.16 472.728 290.244 472.74C291.72 472.992 307.14 473.172 310.524 473.172C317.304 473.172 324.072 472.992 330.852 472.752C334.708 472.624 338.56 472.48 342.408 472.32C342.612 472.308 342.636 471.96 342.42 471.948Z" fill="#263238"/>
<path d="M382.32 331.272C382.596 329.34 382.848 327.408 383.076 325.488C383.592 321.084 384.048 316.644 384.18 312.216C384.18 311.868 383.7 311.904 383.664 312.216C383.244 315.636 382.932 319.068 382.548 322.488C382.164 325.908 381.864 329.328 381.228 332.688C381.036 333.696 380.604 335.388 379.32 335.412C377.58 335.412 377.244 333.084 377.1 331.812C376.775 328.622 376.714 325.411 376.92 322.212C377.112 318.612 377.568 314.94 377.976 311.328C377.976 311.196 377.772 311.172 377.748 311.328C376.248 318.372 374.808 325.728 376.056 332.928C376.099 333.652 376.339 334.351 376.749 334.949C377.159 335.547 377.724 336.023 378.384 336.324H378.456C378.454 336.364 378.454 336.404 378.456 336.444C378.456 336.648 378.456 336.852 378.456 337.056C378.444 337.228 378.444 337.4 378.456 337.572C378.456 337.932 378.456 338.28 378.456 338.64C378.456 338.71 378.484 338.777 378.533 338.827C378.583 338.876 378.65 338.904 378.72 338.904C378.79 338.904 378.857 338.876 378.907 338.827C378.956 338.777 378.984 338.71 378.984 338.64C379.029 338.633 379.071 338.612 379.103 338.579C379.136 338.547 379.157 338.505 379.164 338.46C379.296 337.77 379.296 337.062 379.164 336.372C379.593 336.371 380.014 336.261 380.388 336.051C380.762 335.84 381.076 335.538 381.3 335.172C381.93 333.966 382.278 332.632 382.32 331.272Z" fill="#263238"/>
<path d="M375.936 336.48C380.862 339.859 385.483 343.662 389.748 347.844C389.786 347.874 389.811 347.918 389.816 347.967C389.822 348.015 389.808 348.064 389.778 348.102C389.748 348.14 389.703 348.165 389.655 348.17C389.607 348.176 389.558 348.162 389.52 348.132C384.816 344.532 379.92 340.932 375.492 337.044C375.425 336.983 375.384 336.898 375.377 336.808C375.37 336.718 375.397 336.628 375.453 336.557C375.509 336.486 375.59 336.438 375.679 336.424C375.769 336.41 375.861 336.43 375.936 336.48Z" fill="#263238"/>
<path d="M428.712 339.972C427.322 339.976 425.933 339.872 424.56 339.66C423.344 339.417 422.142 339.109 420.96 338.736C418.74 338.088 416.028 337.308 414.408 335.544C412.835 333.619 411.58 331.456 410.688 329.136C409.568 326.712 408.831 324.13 408.504 321.48C408.504 321.372 408.3 321.372 408.312 321.48C408.484 324.22 408.943 326.935 409.68 329.58C410.082 330.894 410.588 332.174 411.192 333.408C411.734 334.652 412.458 335.808 413.34 336.84C415.14 338.772 418.068 339.72 420.54 340.224C423.241 340.716 426.01 340.716 428.712 340.224C428.94 340.248 428.88 339.984 428.712 339.972Z" fill="#263238"/>
<path d="M335.112 392.148C335.254 391.434 335.614 390.781 336.143 390.28C336.672 389.779 337.343 389.455 338.064 389.352C339.793 389.16 341.536 389.124 343.272 389.244C347.28 389.244 351.3 389.328 355.272 389.34C371.088 389.34 387.036 388.932 402.588 385.812C410.202 384.389 417.647 382.172 424.8 379.2C430.8 376.584 436.86 373.008 440.628 367.452C444.96 361.068 445.296 352.704 445.14 345.228C444.985 337.157 443.684 329.149 441.276 321.444C440.652 319.488 439.968 317.556 439.188 315.66C439.188 315.54 439.32 315.432 439.368 315.552C442.528 322.83 444.621 330.525 445.584 338.4C446.054 342.289 446.23 346.208 446.112 350.124C446.108 353.967 445.612 357.795 444.636 361.512C440.532 375.504 424.86 381.276 412.236 384.828C396.972 389.112 381.036 390.3 365.28 390.528C357.36 390.648 349.416 390.528 341.484 390.42C339.972 390.42 337.476 389.976 336.576 391.56C336.178 392.477 335.938 393.455 335.868 394.452C335.7 395.568 335.568 396.684 335.484 397.812C335.264 402.031 335.32 406.26 335.652 410.472C336.156 419.024 336.748 427.58 337.428 436.14C338.112 444.732 339.072 453.312 339.696 461.916C339.852 464.028 340.056 466.128 340.26 468.228C340.26 468.468 339.864 468.516 339.828 468.228C337.632 451.224 336.06 434.16 334.944 417.06C334.668 412.836 334.356 408.6 334.236 404.376C333.977 400.279 334.272 396.166 335.112 392.148Z" fill="#263238"/>
<path d="M373.692 395.292C379.043 395.219 384.385 394.818 389.688 394.092C394.692 393.468 399.672 392.784 404.64 391.944C413.28 390.468 422.112 388.848 430.26 385.56C434.734 383.835 438.903 381.404 442.608 378.36C442.704 378.276 442.848 378.42 442.752 378.504C436.584 384.504 428.76 388.02 420.528 390.252C411.081 392.716 401.449 394.406 391.728 395.304C385.715 395.828 379.677 396.004 373.644 395.832C373.599 395.801 373.563 395.758 373.539 395.708C373.516 395.658 373.506 395.603 373.511 395.548C373.516 395.493 373.535 395.441 373.567 395.396C373.599 395.351 373.642 395.315 373.692 395.292Z" fill="#263238"/>
<path d="M392.4 239.184C392.58 258.9 387.228 288.816 379.848 303.312C374.568 313.668 343.14 334.044 326.448 338.628C320.544 340.26 317.604 315.72 320.448 309.708C322.176 306.108 353.58 288.672 356.796 283.872C361.68 276.564 371.58 255.828 378.9 238.104C382.8 228.756 392.256 226.932 392.4 239.184Z" fill="#C95F50"/>
<path d="M330.78 304.116C330.78 304.116 321.528 303 317.364 303.408C313.2 303.816 298.164 311.052 299.58 314.376C301.368 318.672 310.836 316.2 315.324 314.376C315.324 314.376 319.428 324.312 326.616 323.976C333.804 323.64 330.78 304.116 330.78 304.116Z" fill="#C95F50"/>
<path d="M331.896 336.552C328.632 338.016 313.104 343.38 308.448 343.908C303.792 344.436 290.28 344.988 289.512 341.508C288.744 338.028 292.68 337.512 292.68 337.512C292.68 337.512 286.944 336.84 286.5 333.216C286.056 329.592 292.2 329.052 292.2 329.052C292.2 329.052 286.356 327.936 286.2 324.252C286.044 320.568 292.296 321.096 292.296 321.096C292.296 321.096 286.908 320.328 288.012 317.256C289.344 313.572 299.124 316.128 304.224 315.156C305.424 314.928 327.372 309.024 327.372 309.024L331.896 336.552Z" fill="#C95F50"/>
<path d="M291.72 321.072C298.92 322.932 302.388 322.5 309.36 320.256C309.504 320.256 309.6 320.412 309.456 320.472C302.832 323.28 298.56 324.444 291.612 321.408C291.276 321.264 291.384 320.976 291.72 321.072Z" fill="#263238"/>
<path d="M291.6 328.8C299.244 330.084 303.012 329.652 310.488 327.84C310.596 327.84 310.644 327.996 310.488 328.032C303.288 330.432 299.016 331.476 291.552 329.232C291.288 329.148 291.288 328.8 291.6 328.8Z" fill="#263238"/>
<path d="M293.064 337.356C300.552 338.064 304.704 337.764 311.736 335.076C311.904 335.016 312.012 335.256 311.856 335.328C304.944 338.76 299.772 339.18 293.064 337.584C292.608 337.476 292.596 337.308 293.064 337.356Z" fill="#263238"/>
<path d="M300.456 315.396C304.908 318.144 310.632 315.396 315.12 313.932C315.185 313.909 315.255 313.902 315.323 313.911C315.392 313.921 315.457 313.947 315.513 313.987C315.57 314.027 315.616 314.08 315.648 314.141C315.679 314.203 315.696 314.271 315.696 314.34C317.7 318.384 321.696 323.52 326.412 324.228C326.44 324.228 326.468 324.239 326.488 324.26C326.508 324.28 326.52 324.307 326.52 324.336C326.52 324.365 326.508 324.392 326.488 324.412C326.468 324.433 326.44 324.444 326.412 324.444C321.252 324.372 316.908 319.644 315 315.072C310.428 316.62 304.56 319.14 300.444 315.432C300.408 315.42 300.432 315.384 300.456 315.396Z" fill="#263238"/>
<path d="M365.76 260.148L390.792 276.684C390.792 276.684 394.116 243.852 392.364 233.928C390.396 222.756 385.164 226.2 378.852 234.984C372.54 243.768 365.76 260.148 365.76 260.148Z" fill="#FFC727"/>
<path opacity="0.1" d="M365.76 260.148L390.792 276.684C390.792 276.684 394.116 243.852 392.364 233.928C390.396 222.756 385.164 226.2 378.852 234.984C372.54 243.768 365.76 260.148 365.76 260.148Z" fill="black"/>
<path d="M369.6 256.212C373.08 257.88 382.8 264.36 384.396 265.416C385.248 265.98 388.548 268.344 389.4 268.896C389.508 268.968 389.4 269.124 389.28 269.052C387.648 268.008 385.908 267.12 384.264 266.088C382.62 265.056 372.504 258.816 369.528 256.332C369.48 256.284 369.6 256.164 369.6 256.212Z" fill="#263238"/>
<path d="M453.852 321.228C453.852 321.228 373.092 332.436 373.092 332.448C373.32 334.032 368.82 268.56 384.492 227.508C385.56 224.712 397.86 220.152 404.172 224.532C431.832 243.732 453.996 322.26 453.852 321.228Z" fill="#FFC727"/>
<path opacity="0.1" d="M406.08 225.96L383.856 229.2C383.893 229.072 383.941 228.948 384 228.828L405.696 225.624C405.83 225.729 405.958 225.841 406.08 225.96ZM412.2 231.84L381.528 236.4C381.481 236.516 381.445 236.637 381.42 236.76L412.476 232.2L412.2 231.84ZM417.312 238.224L379.536 243.792C379.536 243.912 379.536 244.032 379.452 244.152L417.6 238.548L417.312 238.224ZM421.692 244.716L377.916 251.16L377.844 251.532L421.884 245.04L421.692 244.716ZM425.58 251.28L376.596 258.48C376.596 258.6 376.596 258.72 376.536 258.84L425.736 251.64L425.58 251.28ZM429.18 257.892L375.564 265.788C375.564 265.908 375.564 266.028 375.564 266.148L429.396 258.228C429.252 258.12 429.192 258 429.132 257.892H429.18ZM432.468 264.54L374.7 273.048V273.408L432.66 264.876L432.468 264.54ZM435.54 271.224L374.016 280.284V280.644L435.6 271.56C435.556 271.442 435.52 271.322 435.492 271.2L435.54 271.224ZM438.432 277.932L373.488 287.532C373.488 287.652 373.488 287.772 373.488 287.892L438.588 278.292C438.48 278.16 438.432 278.052 438.384 277.932H438.432ZM441.18 284.664L373.104 294.684C373.104 294.804 373.104 294.912 373.104 295.032L441.336 284.988C441.216 284.88 441.168 284.772 441.132 284.664H441.18ZM443.784 291.42L372.852 301.86C372.846 301.976 372.846 302.092 372.852 302.208L443.904 291.744L443.784 291.42ZM446.268 298.188L372.732 308.988C372.72 309.104 372.72 309.22 372.732 309.336L446.388 298.536C446.292 298.404 446.256 298.296 446.22 298.188H446.268ZM448.668 304.968L372.744 316.152V316.488L448.776 305.304L448.668 304.968ZM450.936 311.76L372.852 323.256C372.852 323.376 372.852 323.496 372.852 323.616L451.032 312.108L450.936 311.76ZM453.096 318.588L373.092 330.36C373.092 330.48 373.092 330.6 373.092 330.708L453.18 318.924C453.096 318.816 453.06 318.696 453.024 318.588H453.096Z" fill="black"/>
<path opacity="0.1" d="M391.692 253.08L404.4 251.28C404.4 251.28 406.8 264.324 406.8 264.684C406.8 265.044 400.692 270 400.14 269.796C399.588 269.592 393.576 267.924 393.384 267.552C393.192 267.18 391.692 253.08 391.692 253.08Z" fill="black"/>
<path d="M373.02 275.64H294.384V362.712H373.02V275.64Z" fill="#FFC727"/>
<path opacity="0.1" d="M373.02 275.64H294.384V362.712H373.02V275.64Z" fill="black"/>
<path d="M253.788 362.712H294.384V275.64H253.788V362.712Z" fill="#FFC727"/>
<path d="M327.036 294.456H328.692H329.94L330.66 293.004L331.656 294.456L333.024 291.48L334.308 294.456H337.98H339.672L340.272 292.464L340.848 294.456H341.94V275.64H327.036V294.456Z" fill="white"/>
<g opacity="0.1">
<path d="M256.584 356.712C259.6 350.52 262.58 344.312 265.524 338.088L274.332 319.356L283.032 300.54C285.912 294.268 288.764 287.968 291.588 281.64C288.588 287.832 285.608 294.044 282.648 300.276L273.84 318.996L265.2 337.812C262.28 344.092 259.408 350.392 256.584 356.712Z" fill="black"/>
<path d="M256.584 281.64C259.416 287.968 262.272 294.268 265.152 300.54L273.84 319.356L282.648 338.088C285.6 344.312 288.58 350.52 291.588 356.712C288.764 350.4 285.912 344.1 283.032 337.812L274.332 318.996L265.524 300.276C262.572 294.036 259.592 287.824 256.584 281.64Z" fill="black"/>
</g>
<path d="M386.076 294.468H307.452L294.396 275.628H373.02L386.076 294.468Z" fill="#FFC727"/>
<g opacity="0.2">
<path d="M386.076 294.468H307.452L294.396 275.628H373.02L386.076 294.468Z" fill="black"/>
</g>
<path d="M281.352 294.48H240.864L253.92 275.64H294.396L281.352 294.48Z" fill="#FFC727"/>
<path opacity="0.1" d="M281.352 294.48H240.864L253.92 275.64H294.396L281.352 294.48Z" fill="black"/>
<path d="M388.668 238.056C392.64 238.428 400.02 232.776 402 226.908C402.132 226.5 400.884 222.732 399.6 218.076C398.82 215.244 398.016 212.076 397.5 209.136C397.392 208.536 379.848 216.912 379.848 216.912C381.552 220.405 382.825 224.092 383.64 227.892C383.701 228.289 383.729 228.69 383.724 229.092C383.718 229.16 383.718 229.228 383.724 229.296C383.748 231.684 384.42 237.6 388.668 238.056Z" fill="#C95F50"/>
<path d="M383.7 229.116C383.694 229.184 383.694 229.252 383.7 229.32C384.341 229.287 384.979 229.207 385.608 229.08C396.408 226.908 396.864 212.808 396.804 209.268C393.612 210.312 379.812 216.912 379.812 216.912C381.516 220.405 382.789 224.092 383.604 227.892C383.671 228.297 383.703 228.706 383.7 229.116Z" fill="#263238"/>
<path d="M396.816 185.628C399.78 191.916 399.072 211.416 395.016 216.324C389.124 223.452 378.108 225.66 371.712 218.268C365.496 211.068 366.912 185.7 371.544 181.068C378.408 174.312 392.4 176.4 396.816 185.628Z" fill="#C95F50"/>
<path d="M379.944 199.692C379.944 199.692 380.04 199.764 380.04 199.812C379.956 201.132 380.04 202.644 381.24 203.124V203.196C379.8 202.944 379.656 200.928 379.944 199.692Z" fill="#263238"/>
<path d="M381.156 198.36C383.28 198.264 383.304 202.512 381.348 202.596C379.392 202.68 379.38 198.444 381.156 198.36Z" fill="#263238"/>
<path d="M372.336 199.968C372.336 199.968 372.228 200.028 372.228 200.088C372.288 201.396 372.12 202.908 370.932 203.352V203.436C372.396 203.22 372.588 201.204 372.336 199.968Z" fill="#263238"/>
<path d="M371.148 198.6C369.036 198.456 368.904 202.704 370.86 202.836C372.816 202.968 372.924 198.72 371.148 198.6Z" fill="#263238"/>
<path d="M382.8 196.404C382.241 196.25 381.692 196.062 381.156 195.84C380.548 195.719 379.996 195.403 379.584 194.94C379.484 194.77 379.445 194.571 379.471 194.375C379.497 194.18 379.587 193.998 379.728 193.86C380.042 193.62 380.416 193.469 380.809 193.425C381.202 193.381 381.6 193.444 381.96 193.608C382.745 193.822 383.422 194.323 383.856 195.012C383.949 195.174 383.992 195.359 383.981 195.545C383.969 195.731 383.902 195.91 383.79 196.058C383.677 196.207 383.523 196.319 383.347 196.381C383.171 196.442 382.98 196.45 382.8 196.404Z" fill="#263238"/>
<path d="M369.492 196.476C370.059 196.359 370.62 196.211 371.172 196.032C371.788 195.954 372.361 195.676 372.804 195.24C372.915 195.077 372.969 194.881 372.958 194.684C372.948 194.486 372.872 194.298 372.744 194.148C372.443 193.889 372.079 193.715 371.688 193.645C371.297 193.576 370.895 193.612 370.524 193.752C369.736 193.889 369.029 194.317 368.544 194.952C368.418 195.105 368.344 195.294 368.331 195.491C368.318 195.689 368.368 195.885 368.472 196.053C368.577 196.221 368.731 196.353 368.914 196.428C369.097 196.504 369.299 196.521 369.492 196.476Z" fill="#263238"/>
<path d="M381.252 211.884C380.94 212.196 380.628 212.616 380.148 212.664C379.657 212.664 379.173 212.553 378.732 212.34C378.732 212.34 378.648 212.34 378.672 212.412C378.863 212.67 379.119 212.872 379.415 212.996C379.71 213.121 380.034 213.164 380.352 213.12C380.622 213.045 380.864 212.89 381.046 212.676C381.228 212.463 381.341 212.199 381.372 211.92C381.396 211.872 381.288 211.836 381.252 211.884Z" fill="#263238"/>
<path d="M379.836 207.96C379.506 208.483 379.071 208.933 378.559 209.28C378.047 209.627 377.468 209.864 376.86 209.976C376.331 210.082 375.789 210.111 375.252 210.06C375.152 210.073 375.051 210.073 374.952 210.06H374.664C374.592 210.045 374.527 210.009 374.477 209.955C374.428 209.901 374.396 209.833 374.388 209.76C374.394 209.712 374.394 209.664 374.388 209.616V209.496C374.388 208.488 374.388 206.94 374.388 206.94C374.016 207.132 372.144 207.996 372.168 207.468C372.251 202.904 372.797 198.361 373.8 193.908C373.8 193.764 374.052 193.8 374.04 193.908C374.04 198.12 373.188 202.308 373.068 206.532C373.738 206.217 374.449 205.999 375.18 205.884C375.324 205.884 374.964 208.848 375.012 209.304C375.842 209.382 376.679 209.292 377.473 209.038C378.266 208.784 379.001 208.373 379.632 207.828C379.812 207.768 379.92 207.852 379.836 207.96Z" fill="#263238"/>
<path d="M375.852 209.544C376.412 210.273 377.152 210.843 378 211.2C378.464 211.373 378.97 211.402 379.452 211.284C380.496 210.996 380.52 210.084 380.316 209.208C380.203 208.791 380.042 208.388 379.836 208.008C378.705 208.931 377.309 209.469 375.852 209.544Z" fill="#263238"/>
<path d="M378 211.2C378.465 211.373 378.971 211.402 379.452 211.284C380.496 210.996 380.52 210.084 380.316 209.208C379.763 209.233 379.233 209.442 378.813 209.803C378.393 210.165 378.107 210.656 378 211.2Z" fill="#FF99BA"/>
<path d="M368.784 187.56C369.492 185.88 370.308 184.2 371.304 183.864C372.3 183.528 372.996 185.964 375.276 186.096C378.36 186.276 379.824 183.432 384.132 183.084C390.324 182.604 393.096 187.752 393.324 196.536C393.528 204.384 398.28 205.08 398.28 205.08C398.28 205.08 401.004 187.752 396.072 182.064C391.14 176.376 379.92 173.94 372.456 179.484C369.732 181.5 368.784 187.56 368.784 187.56Z" fill="#263238"/>
<path d="M394.296 202.02C394.296 202.02 397.836 195.324 400.824 196.512C403.812 197.7 401.688 207.036 398.556 208.668C398.171 208.906 397.743 209.064 397.296 209.133C396.849 209.201 396.393 209.179 395.954 209.067C395.516 208.954 395.105 208.755 394.746 208.48C394.387 208.206 394.087 207.861 393.864 207.468L394.296 202.02Z" fill="#C95F50"/>
<path d="M400.14 199.2V199.284C397.956 200.484 397.008 202.788 396.432 205.104C396.537 204.856 396.694 204.634 396.893 204.453C397.092 204.272 397.328 204.136 397.585 204.055C397.842 203.974 398.113 203.949 398.38 203.984C398.647 204.018 398.904 204.109 399.132 204.252C399.145 204.258 399.156 204.267 399.163 204.279C399.171 204.29 399.175 204.304 399.175 204.318C399.175 204.332 399.171 204.346 399.163 204.357C399.156 204.369 399.145 204.378 399.132 204.384C398.71 204.305 398.274 204.36 397.885 204.541C397.495 204.722 397.172 205.019 396.96 205.392C396.608 206.012 396.322 206.668 396.108 207.348C396.024 207.564 395.64 207.504 395.688 207.264C395.268 204.252 397.032 199.86 400.14 199.2Z" fill="#263238"/>
<path d="M414.9 239.652C422.94 257.556 440.724 294.252 436.152 308.052C430.152 326.172 398.748 346.152 390.624 351.756C387.084 354.156 369.468 331.608 370.548 327.144C371.628 322.68 404.64 296.532 406.416 293.544C408.192 290.556 400.728 260.844 399.468 244.224C397.86 223.308 408.084 224.496 414.9 239.652Z" fill="#C95F50"/>
<path d="M362.4 339.252C363.36 337.284 362.328 336.768 358.8 338.472C355.272 340.176 342.864 349.896 339.84 345.276C336.816 340.656 354.552 327.192 360.612 324.804C366.672 322.416 377.292 320.664 377.292 320.664C374.4 324 368.076 332.688 362.4 339.252Z" fill="#C95F50"/>
<path d="M399.216 344.748C390.624 353.784 380.496 365.544 366.984 369.408C365.492 369.874 363.887 369.827 362.424 369.276C356.424 371.112 353.724 368.82 353.724 368.82C347.58 368.82 345.168 366.096 345.168 366.096C345.168 366.096 338.064 368.184 336.096 364.104C333.876 359.532 344.28 357.492 349.296 352.884C360.84 342.3 374.292 324.084 377.316 320.664L399.216 344.748Z" fill="#C95F50"/>
<path d="M369.204 350.304C365.858 353.431 362.306 356.329 358.572 358.98C354.304 361.63 349.843 363.956 345.228 365.94C345.084 366 345.168 366.204 345.324 366.168C354.611 363.222 362.913 357.785 369.324 350.448C369.492 350.28 369.372 350.148 369.204 350.304Z" fill="#263238"/>
<path d="M376.596 356.4C373.068 359.172 366.828 364.008 353.664 368.748C353.664 368.748 353.664 368.832 353.664 368.82C362.332 366.953 370.309 362.711 376.704 356.568C376.932 356.316 376.8 356.148 376.596 356.4Z" fill="#263238"/>
<path d="M380.508 359.652C374.328 364.152 369.864 366.204 362.508 369.252C362.508 369.252 362.508 369.348 362.508 369.336C371.292 366.78 374.196 364.848 380.736 359.868C380.916 359.676 380.748 359.484 380.508 359.652Z" fill="#263238"/>
<path d="M400.8 267.12L430.8 268.56C430.8 268.56 416.916 238.632 410.4 230.988C403.008 222.372 400.224 228.036 399.312 238.788C398.4 249.54 400.8 267.12 400.8 267.12Z" fill="#FFC727"/>
<path opacity="0.1" d="M400.8 267.12L430.8 268.56C430.8 268.56 416.916 238.632 410.4 230.988C403.008 222.372 400.224 228.036 399.312 238.788C398.4 249.54 400.8 267.12 400.8 267.12Z" fill="black"/>
<path d="M402.156 261.744C405.996 261.408 417.648 262.044 419.58 262.128C420.588 262.128 424.644 262.524 425.652 262.56C425.784 262.56 425.748 262.764 425.652 262.764C423.708 262.692 421.764 262.824 419.82 262.764C417.876 262.704 406.008 262.5 402.168 261.888C402.155 261.882 402.144 261.872 402.135 261.86C402.127 261.848 402.122 261.834 402.121 261.819C402.12 261.805 402.122 261.79 402.128 261.777C402.135 261.764 402.144 261.752 402.156 261.744Z" fill="#263238"/>
<path d="M417.396 242.22C417.336 242.1 417.528 242.016 417.588 242.136C419.052 244.536 420.456 246.936 421.812 249.42C421.413 248.003 420.887 246.626 420.24 245.304C420.24 245.304 420.3 245.208 420.336 245.304C421.139 246.82 421.744 248.433 422.136 250.104C423.084 251.82 424.008 253.536 424.92 255.276C427.224 259.668 429.6 264.06 431.652 268.596C431.674 268.651 431.683 268.711 431.676 268.77C431.669 268.829 431.647 268.885 431.612 268.933C431.577 268.981 431.53 269.02 431.476 269.045C431.423 269.07 431.363 269.08 431.304 269.076C430.26 268.992 429.228 268.872 428.196 268.728C428.088 268.728 428.076 268.536 428.196 268.524C429.06 268.452 429.912 268.44 430.776 268.416C428.376 264.228 426.3 259.908 424.08 255.648C421.86 251.388 419.52 246.72 417.396 242.22Z" fill="#263238"/>
<path d="M399 254.4C398.688 252.852 398.364 251.304 398.1 249.744C398.376 250.872 398.628 252.012 398.88 253.152C398.748 250.824 398.664 248.508 398.688 246.192H398.748C399.228 249.672 399.516 253.188 399.948 256.68C400.38 260.172 400.68 263.544 401.004 266.976C401.676 267.12 402.36 267.24 403.044 267.36C403.065 267.367 403.083 267.381 403.096 267.399C403.109 267.418 403.116 267.44 403.116 267.462C403.116 267.484 403.109 267.506 403.096 267.525C403.083 267.543 403.065 267.557 403.044 267.564C402.288 267.564 401.532 267.564 400.776 267.564C400.688 267.578 400.599 267.557 400.527 267.505C400.455 267.453 400.406 267.375 400.392 267.288C399.768 263.004 399.288 258.696 399 254.4Z" fill="#263238"/>
<path d="M279.468 423.144H165.984V516.9H279.468V423.144Z" fill="#FFC727"/>
<path d="M324.42 423.144H279.456V516.912H324.42V423.144Z" fill="#FFC727"/>
<path opacity="0.1" d="M324.42 423.144H279.456V516.912H324.42V423.144Z" fill="black"/>
<path d="M321.324 510.456C318.004 503.784 314.704 497.092 311.424 490.38L301.668 470.22L292.068 449.964C288.868 443.196 285.708 436.396 282.588 429.564C285.916 436.236 289.216 442.928 292.488 449.64L302.232 469.8L311.832 490.056C315.032 496.848 318.196 503.648 321.324 510.456Z" fill="#FFC727"/>
<path d="M321.324 429.6C318.196 436.416 315.036 443.216 311.844 450L302.244 470.256L292.5 490.416C289.228 497.136 285.928 503.828 282.6 510.492C285.72 503.676 288.88 496.876 292.08 490.092L301.68 469.836L311.436 449.676C314.708 442.956 318.004 436.264 321.324 429.6Z" fill="#FFC727"/>
<path d="M230.748 443.412H228.96H227.604L226.836 441.84L225.756 443.412L224.304 440.196L222.912 443.412H218.952H217.14L216.492 441.264L215.868 443.412H214.692V423.144H230.748V443.412Z" fill="white"/>
<path d="M390.3 423.144H305.64V516.9H390.3V423.144Z" fill="#FFC727"/>
<path d="M434.016 423.144H390.3V516.9H434.016V423.144Z" fill="#FFC727"/>
<path opacity="0.1" d="M434.016 423.144H390.3V516.9H434.016V423.144Z" fill="black"/>
<g opacity="0.1">
<path d="M384.096 510.444C377.88 503.78 371.72 497.092 365.616 490.38L347.4 470.22L329.4 449.964C323.424 443.196 317.52 436.396 311.688 429.564C317.904 436.236 324.064 442.924 330.168 449.628L348.384 469.8L366.384 490.056C372.352 496.84 378.256 503.636 384.096 510.444Z" fill="black"/>
<path d="M384.096 429.6C378.248 436.416 372.344 443.216 366.384 450L348.384 470.256L330.168 490.416C324.072 497.128 317.912 503.816 311.688 510.48C317.536 503.68 323.44 496.88 329.4 490.08L347.4 469.824L365.616 449.652C371.712 442.956 377.872 436.272 384.096 429.6Z" fill="black"/>
</g>
<path d="M427.86 501.036H420.204V511.848H427.86V501.036Z" fill="white"/>
<path d="M281.556 362.508H184.896V423.132H281.556V362.508Z" fill="#FFC727"/>
<path opacity="0.1" d="M281.556 362.508H184.896V423.132H281.556V362.508Z" fill="black"/>
<path d="M325.284 362.52H281.568V423.156H325.284V362.52Z" fill="#FFC727"/>
<path opacity="0.2" d="M325.284 362.52H281.568V423.156H325.284V362.52Z" fill="black"/>
<path d="M322.272 419.568C319.032 415.408 315.832 411.224 312.672 407.016L303.18 394.392L293.82 381.72C290.708 377.48 287.636 373.232 284.604 368.976C287.804 373.152 291.004 377.336 294.204 381.528L303.684 394.152L313.044 406.836C316.156 411.06 319.232 415.304 322.272 419.568Z" fill="#FFC727"/>
<path d="M322.272 368.976C319.224 373.232 316.148 377.48 313.044 381.72L303.684 394.392L294.204 407.016C291.004 411.216 287.804 415.4 284.604 419.568C287.636 415.304 290.708 411.06 293.82 406.836L303.18 394.152L312.672 381.528C315.824 377.328 319.024 373.144 322.272 368.976Z" fill="#FFC727"/>
<path d="M225 105.048C224.498 109.856 222.669 114.431 219.718 118.26C216.767 122.09 212.81 125.024 208.288 126.735C203.766 128.447 198.858 128.868 194.111 127.952C189.364 127.036 184.965 124.819 181.404 121.548L168.36 123.456L174.888 112.176C173.255 108.198 172.64 103.875 173.1 99.6C173.821 92.7176 177.247 86.4035 182.623 82.0467C187.999 77.6898 194.886 75.6471 201.768 76.368C208.651 77.0888 214.965 80.5142 219.322 85.8905C223.679 91.2668 225.721 98.1536 225 105.036V105.048Z" fill="white"/>
<path d="M225 105.048C224.484 109.847 222.662 114.412 219.732 118.248C218.988 119.2 218.186 120.105 217.332 120.96C216.461 121.815 215.54 122.616 214.572 123.36C210.699 126.279 206.093 128.069 201.264 128.532C200.068 128.645 198.864 128.669 197.664 128.604C196.456 128.576 195.252 128.451 194.064 128.232C189.266 127.327 184.813 125.108 181.2 121.824L181.512 121.92L168.468 123.912L167.532 124.068L168 123.228L174.492 111.924V112.368C172.958 108.637 172.301 104.604 172.572 100.579C172.844 96.5538 174.036 92.645 176.057 89.1537C178.078 85.6624 180.874 82.682 184.229 80.4423C187.584 78.2026 191.409 76.7635 195.408 76.236C199.359 75.6821 203.384 76.0433 207.173 77.2917C210.961 78.5401 214.413 80.6422 217.26 83.436C220.102 86.2175 222.275 89.608 223.616 93.3517C224.957 97.0954 225.43 101.095 225 105.048ZM225 105.048C225.422 101.117 224.934 97.1414 223.575 93.4287C222.216 89.7159 220.022 86.3652 217.162 83.6353C214.302 80.9053 210.853 78.8691 207.081 77.684C203.309 76.4988 199.316 76.1963 195.408 76.8C191.529 77.374 187.834 78.8315 184.608 81.06C181.422 83.2971 178.761 86.2002 176.808 89.568C174.884 92.9503 173.752 96.7249 173.496 100.608C173.254 104.485 173.882 108.368 175.332 111.972L175.428 112.2L175.296 112.416L168.732 123.684L168.264 122.988L181.356 121.2H181.536L181.668 121.32C185.154 124.582 189.48 126.809 194.16 127.752C195.327 127.987 196.511 128.131 197.7 128.184C201.282 128.427 204.875 127.899 208.236 126.636C210.489 125.826 212.608 124.686 214.524 123.252C215.487 122.537 216.409 121.768 217.284 120.948C218.138 120.102 218.94 119.204 219.684 118.26C222.641 114.431 224.481 109.858 225 105.048Z" fill="#263238"/>
<path d="M195.996 117.204L184.848 105.924L188.592 102.228L195.108 108.816L208.632 87.624L213.06 90.444L195.996 117.204Z" fill="#FFC727"/>
<path d="M112.128 128.184C107.736 127.416 96.6842 131.016 93.2042 136.992C89.7242 142.968 90.4562 152.4 92.4002 153.168C94.3442 153.936 102.612 152.928 108.156 149.568C113.7 146.208 114.3 128.556 112.128 128.184Z" fill="#263238"/>
<path d="M112.14 128.208C112.284 128.208 112.296 127.92 112.14 127.932C108.324 128.004 104.304 129.468 100.728 130.68C97.7517 131.494 94.9798 132.925 92.592 134.88C91.4858 135.874 90.6098 137.098 90.0254 138.466C89.4409 139.834 89.162 141.313 89.208 142.8C89.1429 146.39 89.9936 149.938 91.68 153.108C91.68 153.192 91.896 153.108 91.86 153.108C89.832 146.844 87.948 139.164 94.056 134.556C99.24 130.536 106.068 129.804 112.14 128.208Z" fill="#263238"/>
<path d="M92.9759 151.488C89.1959 152.148 79.6319 159.888 78.2879 167.088C76.9439 174.288 83.3039 184.824 85.1999 185.52C87.0959 186.216 95.1959 178.908 97.7159 173.688C99.3959 170.208 97.7159 166.296 96.7679 162.396C95.2799 156.672 93.5999 151.392 92.9759 151.488Z" fill="#263238"/>
<path d="M99.9481 172.728C100.752 165.3 96.2521 158.196 93.4441 151.644C93.4441 151.572 93.3001 151.644 93.3241 151.644C94.9921 157.968 99.0961 163.536 99.5041 170.208C99.7078 172.159 99.439 174.131 98.7206 175.956C98.0021 177.781 96.855 179.407 95.3761 180.696C92.6281 182.928 89.1241 184.056 85.8841 185.364C85.6801 185.448 85.8841 185.76 86.0401 185.688C92.4961 183.3 99.1201 180.384 99.9481 172.728Z" fill="#263238"/>
<path d="M92.1839 152.208C92.2177 152.186 92.2422 152.152 92.253 152.113C92.2637 152.074 92.26 152.032 92.2424 151.995C92.2249 151.959 92.1947 151.93 92.1575 151.914C92.1203 151.898 92.0785 151.896 92.0399 151.908C86.7479 154.716 80.3999 158.736 77.7479 164.352C74.8679 170.424 78.2879 176.496 81.3479 181.728H81.4559C78.4559 176.412 75.2519 169.728 78.5639 163.848C81.3839 158.688 87.1919 154.932 92.1839 152.208Z" fill="#263238"/>
<path d="M85.8841 184.608C88.5001 185.808 92.4481 189.9 93.6001 194.952C95.5441 203.592 98.7361 201.684 108.396 203.46C116.556 204.948 118.788 213.864 114.756 218.568C114.756 218.568 116.928 212.868 111.348 210.456C104.676 207.576 90.2281 215.256 82.3081 206.508C72.0601 195.204 85.8841 184.608 85.8841 184.608Z" fill="#263238"/>
<path d="M89.5444 188.4C89.4364 188.28 89.6164 188.088 89.7364 188.196C90.8925 189.216 91.8558 190.435 92.5804 191.796C93.5044 193.596 93.6604 195.6 94.4404 197.436C96.4564 202.116 102.216 201.624 106.44 201.684C112.08 201.756 116.784 204.924 117.48 210.816C117.485 210.827 117.487 210.839 117.486 210.851C117.485 210.863 117.481 210.874 117.475 210.884C117.468 210.894 117.459 210.902 117.449 210.908C117.438 210.914 117.426 210.917 117.414 210.917C117.402 210.917 117.391 210.914 117.38 210.908C117.37 210.902 117.361 210.894 117.354 210.884C117.348 210.874 117.344 210.863 117.343 210.851C117.342 210.839 117.344 210.827 117.348 210.816C117.095 209.022 116.362 207.329 115.225 205.918C114.089 204.507 112.592 203.43 110.892 202.8C107.52 201.6 103.86 202.548 100.416 201.924C98.0164 201.504 95.6164 200.64 94.4164 198.432C93.8507 197.169 93.4203 195.85 93.1324 194.496C92.4818 192.189 91.2458 190.089 89.5444 188.4Z" fill="#263238"/>
<path d="M84.4683 185.748C84.4683 185.748 84.6003 185.748 84.5523 185.832C81.5523 189.156 78.3723 192.504 77.7243 197.148C77.0163 202.14 79.8483 206.94 83.9043 209.7C88.4523 212.796 93.0123 210.9 97.8243 209.7C101.292 208.812 104.856 208.188 108.372 209.196C108.48 209.196 108.372 209.4 108.372 209.388C102.744 208.416 97.7523 210.36 92.3523 211.56C90.3477 212.052 88.2448 211.969 86.2855 211.319C84.3261 210.67 82.5899 209.48 81.2763 207.888C74.4603 200.628 77.8323 191.688 84.4683 185.748Z" fill="#263238"/>
<path d="M108.624 124.344C107.34 122.856 105.024 124.872 106.344 126.36C107.664 127.848 109.896 125.82 108.624 124.344Z" fill="#FFC727"/>
<path d="M109.908 126.852C108.636 125.376 106.308 127.392 107.64 128.868C108.972 130.344 111.192 128.4 109.908 126.852Z" fill="#FFC727"/>
<path d="M111.6 129.132C110.316 127.656 108 129.66 109.32 131.148C110.64 132.636 112.908 130.62 111.6 129.132Z" fill="#FFC727"/>
<path d="M113.58 131.1C112.308 129.624 109.98 131.64 111.312 133.116C112.644 134.592 114.864 132.588 113.58 131.1Z" fill="#FFC727"/>
<path d="M115.896 132.744C114.612 131.268 112.296 133.284 113.616 134.76C114.936 136.236 117.168 134.232 115.896 132.744Z" fill="#FFC727"/>
<path d="M118.368 133.908C117.084 132.432 114.768 134.436 116.088 135.924C117.408 137.412 119.64 135.396 118.368 133.908Z" fill="#FFC727"/>
<path d="M211.692 531.912C208.92 532.776 127.908 531.024 124.956 529.056C123.816 528.324 130.764 451.584 130.764 451.584L182.136 452.568L176.292 503.892C176.292 503.892 206.184 518.064 209.208 520.572C212.232 523.08 214.476 531.048 211.692 531.912Z" fill="#D3766A"/>
<path d="M211.704 531.912C208.932 532.776 127.908 531.024 124.956 529.044C124.596 528.828 124.488 521.028 125.784 510.888C140.472 513.348 192.9 521.4 196.992 519C199.836 517.32 197.316 514.704 194.976 513C201.672 516.336 207.924 519.54 209.208 520.62C212.22 523.08 214.464 531.06 211.704 531.912Z" fill="#263238"/>
<path d="M177.744 491.592L127.344 490.884C127.344 490.884 137.328 370.08 136.944 367.752C136.344 364.8 100.56 224.46 100.56 224.46H148.704C148.704 224.46 186.66 355.26 188.028 367.848C190.236 388.2 177.744 491.592 177.744 491.592Z" fill="#37474F"/>
<path d="M131.832 479.496C134.82 479.28 137.832 479.316 140.82 479.28C143.808 479.244 146.82 479.28 149.796 479.28C155.796 479.34 161.796 479.436 167.796 479.604C169.428 479.604 171.06 479.7 172.704 479.772C174.348 479.844 176.196 480.156 177.936 480.216C177.965 480.216 177.992 480.227 178.012 480.248C178.033 480.268 178.044 480.295 178.044 480.324C178.044 480.353 178.033 480.38 178.012 480.4C177.992 480.421 177.965 480.432 177.936 480.432C176.46 480.432 174.996 480.66 173.52 480.708C172.044 480.756 170.472 480.708 168.948 480.708H159.972C153.972 480.708 147.972 480.576 142.032 480.336C138.66 480.192 135.252 480.156 131.892 479.808C131.851 479.816 131.808 479.807 131.773 479.784C131.738 479.76 131.714 479.723 131.706 479.682C131.698 479.641 131.707 479.598 131.73 479.563C131.754 479.528 131.791 479.504 131.832 479.496Z" fill="#263238"/>
<path d="M111.156 235.8C115.464 251.052 119.4 266.436 123.252 281.808C127.104 297.18 130.956 312.576 134.784 327.96C136.704 335.664 138.62 343.36 140.532 351.048C142.392 358.536 144.564 366.072 145.02 373.848C145.476 381.624 144.492 389.652 143.82 397.488C143.148 405.324 142.5 413.232 141.804 421.116C140.424 436.86 139.104 452.628 137.388 468.348C137.184 470.316 136.968 472.284 136.764 474.252C136.764 474.42 136.488 474.42 136.5 474.252C137.544 458.484 138.636 442.728 139.896 426.984C140.52 419.104 141.16 411.228 141.816 403.356C142.464 395.496 143.376 387.6 143.628 379.716C143.88 371.832 142.428 364.116 140.508 356.46C138.588 348.804 136.728 341.4 134.844 333.864C130.988 318.496 127.148 303.112 123.324 287.712C119.052 270.48 114.78 253.224 111.012 235.872C111.008 235.863 111.005 235.852 111.004 235.842C111.003 235.831 111.005 235.821 111.008 235.811C111.011 235.801 111.017 235.791 111.024 235.783C111.031 235.775 111.039 235.769 111.048 235.764C111.058 235.759 111.068 235.756 111.079 235.756C111.089 235.755 111.1 235.756 111.11 235.76C111.12 235.763 111.129 235.768 111.137 235.775C111.145 235.782 111.152 235.791 111.156 235.8Z" fill="#263238"/>
<path d="M100.56 224.472C100.56 224.472 115.92 284.664 126.66 327.036L147.144 224.472H100.56Z" fill="#263238"/>
<path d="M151.2 532.092C148.428 532.968 67.4163 531.216 64.4643 529.236C63.3243 528.504 67.5483 451.728 67.5483 451.728L118.248 452.712L115.848 504.084C115.848 504.084 145.74 518.244 148.764 520.764C151.788 523.284 153.972 531.24 151.2 532.092Z" fill="#D3766A"/>
<path d="M151.2 532.092C148.428 532.956 67.4161 531.216 64.4641 529.236C64.1041 529.008 64.1881 521.424 64.4641 511.068C79.1521 513.528 132.396 521.592 136.464 519.18C139.308 517.512 136.8 514.896 134.46 513.18C141.156 516.516 147.408 519.732 148.692 520.812C151.716 523.26 153.972 531.24 151.2 532.092Z" fill="#263238"/>
<path d="M147.144 224.4C147.144 224.4 145.74 247.416 140.244 265.596C139.8 267.096 139.32 268.572 138.816 269.988C133.957 271.876 129.281 274.206 124.848 276.948C124.848 276.948 121.38 364.98 121.44 370.452C121.668 390.96 116.4 490.584 116.4 490.584L65.5322 490.092C65.5322 490.092 70.8122 377.436 70.8362 369.948C70.8362 357.948 81.5042 224.46 81.5042 224.46L147.144 224.4Z" fill="#37474F"/>
<path d="M136.032 255.36L136.608 251.544C136.968 249.144 137.448 246.888 137.808 244.56C138.732 239.292 139.704 234 140.868 228.768C140.868 228.648 141.12 228.672 141.096 228.768C140.892 230.88 140.652 232.992 140.352 235.092C140.052 237.192 139.848 239.304 139.548 241.404C138.96 245.568 138.348 249.804 137.676 253.896C137.4 255.492 136.404 258.36 138.708 258.852C140.52 259.248 141.864 257.46 142.392 255.96C142.954 254.077 143.355 252.15 143.592 250.2C143.976 248.1 144.3 245.988 144.6 243.876C145.248 239.268 145.968 234.672 146.712 230.088C146.712 229.956 146.952 229.992 146.94 230.088C146.84 234.806 146.5 239.516 145.92 244.2C145.62 246.444 145.296 248.676 144.912 250.908C144.683 253.049 144.162 255.148 143.364 257.148C143.04 257.938 142.522 258.633 141.856 259.168C141.191 259.703 140.401 260.061 139.56 260.208H139.452C139.474 260.222 139.493 260.242 139.505 260.265C139.518 260.288 139.524 260.314 139.524 260.34C139.524 261.096 139.524 261.852 139.44 262.596C139.356 263.34 139.212 264.06 139.068 264.792C138.934 265.537 138.746 266.271 138.504 266.988C138.372 267.324 138.252 267.66 138.096 267.996C137.94 268.332 137.7 268.596 137.496 268.92C137.424 269.052 137.268 268.92 137.256 268.836C137.256 268.716 137.256 268.596 137.256 268.476C137.244 268.26 137.244 268.044 137.256 267.828C137.31 267.469 137.382 267.112 137.472 266.76C137.628 266.052 137.82 265.344 138.012 264.636C138.204 263.928 138.348 263.232 138.528 262.524C138.708 261.816 138.96 261.096 139.128 260.364C139.128 260.364 139.128 260.364 139.128 260.292C138.45 260.324 137.779 260.149 137.204 259.788C136.629 259.428 136.178 258.9 135.912 258.276C135.706 257.309 135.747 256.306 136.032 255.36Z" fill="#263238"/>
<path d="M120.732 278.748C122.256 277.584 123.86 276.53 125.532 275.592C127.287 274.528 129.111 273.581 130.992 272.76C134.664 271.164 138.456 270.072 142.26 268.824C142.368 268.824 142.44 268.968 142.332 269.016C138.66 270.48 135.132 272.424 131.532 274.164C129.78 275.02 128.012 275.82 126.228 276.564C124.452 277.356 122.628 278.28 120.84 278.964C120.732 279.048 120.624 278.832 120.732 278.748Z" fill="#263238"/>
<path d="M92.028 246.684C94.6164 246.652 97.1913 246.306 99.696 245.652C100.896 245.352 101.988 244.98 103.116 244.608C104.239 244.299 105.291 243.773 106.212 243.06C107.952 241.548 108.768 239.184 109.524 237.06C110.35 234.707 111.02 232.302 111.528 229.86C111.528 229.831 111.539 229.804 111.56 229.784C111.58 229.763 111.607 229.752 111.636 229.752C111.665 229.752 111.692 229.763 111.712 229.784C111.733 229.804 111.744 229.831 111.744 229.86C111.805 232.641 111.454 235.415 110.7 238.092C110.076 240.36 109.236 242.892 107.4 244.488C105.362 246.021 102.914 246.915 100.368 247.056C97.5751 247.385 94.7514 247.348 91.968 246.948C91.9431 246.932 91.9237 246.909 91.9126 246.881C91.9014 246.854 91.8989 246.824 91.9054 246.795C91.912 246.766 91.9273 246.74 91.9492 246.72C91.9711 246.7 91.9986 246.688 92.028 246.684Z" fill="#263238"/>
<path d="M75.3122 428.16C76.1762 412.096 77.0882 396.024 78.0482 379.944C79.8962 347.964 81.6482 315.972 83.7002 283.944C84.9002 265.944 86.0042 247.86 87.4202 229.836C87.4295 229.803 87.4492 229.775 87.4763 229.754C87.5034 229.734 87.5363 229.723 87.5702 229.723C87.6041 229.723 87.6371 229.734 87.6642 229.754C87.6912 229.775 87.7109 229.803 87.7202 229.836C86.4002 262.08 84.4802 294.216 82.6202 326.4C80.7602 358.584 78.8642 390.336 76.8002 422.304C75.7202 440.4 74.2922 458.4 73.2002 476.4C73.2059 476.416 73.2076 476.434 73.2052 476.451C73.2027 476.468 73.1962 476.484 73.1863 476.498C73.1763 476.512 73.1631 476.524 73.1478 476.531C73.1325 476.539 73.1155 476.544 73.0982 476.544C73.081 476.544 73.064 476.539 73.0487 476.531C73.0334 476.524 73.0202 476.512 73.0102 476.498C73.0002 476.484 72.9937 476.468 72.9913 476.451C72.9889 476.434 72.9906 476.416 72.9962 476.4C73.8242 460.32 74.4002 444.24 75.3122 428.16Z" fill="#263238"/>
<path d="M67.8361 480.24C70.8121 480.024 73.8361 480.06 76.8121 480.024C79.7881 479.988 82.8121 480.024 85.7881 480.024C91.7881 480.084 97.7881 480.18 103.788 480.348C105.42 480.348 107.064 480.444 108.696 480.516C110.328 480.588 112.188 480.9 113.928 480.96C113.957 480.96 113.984 480.971 114.004 480.992C114.025 481.012 114.036 481.039 114.036 481.068C114.036 481.097 114.025 481.124 114.004 481.144C113.984 481.165 113.957 481.176 113.928 481.176C112.464 481.176 110.988 481.404 109.512 481.452C108.036 481.5 106.464 481.452 104.94 481.452C101.952 481.452 98.9401 481.452 95.9761 481.452C89.9761 481.452 83.9761 481.332 77.9761 481.08C74.5921 480.936 71.1841 480.9 67.8241 480.564C67.8028 480.563 67.7819 480.558 67.7625 480.549C67.7432 480.541 67.7258 480.528 67.7113 480.512C67.6968 480.497 67.6855 480.478 67.6781 480.458C67.6707 480.439 67.6673 480.417 67.6681 480.396C67.6689 480.375 67.6738 480.354 67.6827 480.334C67.6916 480.315 67.7042 480.298 67.7198 480.283C67.7354 480.269 67.7537 480.257 67.7736 480.25C67.7936 480.243 67.8148 480.239 67.8361 480.24Z" fill="#263238"/>
<path d="M126.756 172.38C131.64 184.5 151.044 223.68 163.788 226.452C172.188 228.264 205.944 224.988 211.788 216.996C214.32 213.516 210.036 189.228 205.524 190.188C201.012 191.148 173.928 194.736 170.604 193.788C167.28 192.84 142.344 164.112 133.02 156.984C116.94 144.672 124.128 165.852 126.756 172.38Z" fill="#D3766A"/>
<path d="M156.324 178.368L135.084 190.932C135.084 190.932 126.144 173.916 122.652 162.78C119.16 151.644 122.16 146.556 134.976 157.632C142.508 164.102 149.637 171.027 156.324 178.368Z" fill="#FFC727"/>
<path d="M134.172 186.564C136.988 184.524 139.856 182.552 142.776 180.648C144.204 179.712 145.632 178.752 147.084 177.852C148.536 176.952 150.156 176.076 151.656 175.14C151.666 175.13 151.678 175.123 151.691 175.119C151.704 175.114 151.718 175.113 151.732 175.114C151.746 175.116 151.759 175.12 151.771 175.127C151.783 175.134 151.793 175.144 151.801 175.155C151.809 175.166 151.814 175.179 151.817 175.193C151.819 175.207 151.819 175.221 151.815 175.234C151.812 175.247 151.805 175.26 151.796 175.271C151.788 175.281 151.777 175.29 151.764 175.296C150.348 176.256 149.004 177.312 147.588 178.284C146.172 179.256 144.636 180.228 143.16 181.188C140.248 183.092 137.284 184.928 134.268 186.696C134.184 186.744 134.088 186.624 134.172 186.564Z" fill="#263238"/>
<path d="M155.208 239.856L150.408 212.772C150.408 212.772 157.788 199.896 153.504 190.644C151.344 185.964 132.384 156.828 124.404 151.044C116.916 145.608 106.044 151.416 102 155.676C86.4002 172.092 82.2482 202.368 76.6562 246.744L155.208 239.856Z" fill="#FFC727"/>
<path d="M154.8 193.332C154.208 191.384 153.335 189.532 152.208 187.836C151.836 187.2 151.008 185.88 150 184.344C149.719 183.603 149.399 182.878 149.04 182.172C148.449 181.131 147.916 180.057 147.444 178.956C147.444 178.848 147.228 178.956 147.288 179.028C147.791 180.081 148.239 181.158 148.632 182.256C146.94 179.688 145.164 177.048 144.396 175.968C144.396 175.872 144.192 175.968 144.252 176.052C145.872 178.176 151.188 187.488 152.472 189.852C153.71 192.187 154.349 194.793 154.332 197.436C154.301 200.176 153.946 202.903 153.276 205.56C153.204 205.776 153.432 205.896 153.516 205.68C154.298 203.76 154.807 201.741 155.028 199.68C155.335 197.568 155.258 195.417 154.8 193.332Z" fill="#263238"/>
<path d="M123.036 174.768C123.036 174.768 118.236 169.452 122.16 166.488C126.084 163.524 129.9 169.548 129.9 169.548L123.036 174.768Z" fill="#455A64"/>
<path d="M160.176 209.292L161.376 216.192L161.772 218.46L159.672 217.488L153.336 214.524L122.904 174.552L129.768 169.332L160.2 209.304L160.176 209.292Z" fill="#455A64"/>
<path d="M161.352 216.192L161.748 218.46L159.648 217.488L161.352 216.192Z" fill="#37474F"/>
<path d="M130.136 168.677L122.126 174.776L123.333 176.361L131.343 170.261L130.136 168.677Z" fill="#263238"/>
<path d="M131.475 170.432L123.465 176.532L124.672 178.117L132.682 172.017L131.475 170.432Z" fill="#263238"/>
<path d="M124.68 178.116L127.26 176.148L136.848 191.688L135.852 192.36L124.68 178.116Z" fill="#263238"/>
<path d="M94.8002 164.4C75.6002 188.4 54.6842 228.324 65.1482 235.92C74.7482 242.844 107.472 233.664 127.836 224.208C131.712 222.408 113.436 188.208 109.5 190.608C105.367 193.133 101.079 195.393 96.6602 197.376C95.5322 197.76 101.34 189.708 107.184 170.844C113.136 151.62 105.804 150.588 94.8002 164.4Z" fill="#D3766A"/>
<path d="M160.08 184.8C160.356 188.88 150.228 188.7 150.228 188.7C151.76 189.58 152.936 190.968 153.552 192.624C154.5 195.588 150.264 198.372 150.264 198.372C151.66 199.616 152.651 201.251 153.108 203.064C153.732 205.992 149.856 209.412 149.856 209.412C150.513 211.261 150.479 213.286 149.76 215.112C147.66 219.912 139.608 220.5 134.7 221.856C129.217 223.475 123.872 225.53 118.716 228L107.196 191.868C107.196 191.868 127.968 177.732 134.016 177.648C139.116 177.6 159.66 178.548 160.08 184.8Z" fill="#D3766A"/>
<path d="M150.132 188.58C144.708 187.38 138.984 187.38 133.476 187.584C133.451 187.584 133.426 187.594 133.408 187.612C133.39 187.63 133.38 187.655 133.38 187.68C133.38 187.705 133.39 187.73 133.408 187.748C133.426 187.766 133.451 187.776 133.476 187.776C138.96 187.572 144.636 188.832 150.108 188.844C150.126 188.846 150.143 188.844 150.16 188.839C150.176 188.833 150.192 188.825 150.205 188.814C150.219 188.803 150.23 188.789 150.238 188.774C150.246 188.758 150.251 188.741 150.252 188.724C150.254 188.707 150.252 188.689 150.247 188.673C150.242 188.656 150.233 188.641 150.222 188.627C150.211 188.614 150.197 188.603 150.182 188.595C150.167 188.587 150.15 188.582 150.132 188.58Z" fill="#263238"/>
<path d="M150.096 198C148.834 197.832 147.555 197.832 146.292 198C144.948 198.108 143.616 198.228 142.272 198.372C139.596 198.66 136.92 199.02 134.268 199.44C134.148 199.44 134.148 199.644 134.268 199.632C136.944 199.356 139.62 199.104 142.296 198.936C143.64 198.852 144.984 198.768 146.316 198.708C147.59 198.727 148.861 198.606 150.108 198.348C150.141 198.331 150.168 198.306 150.187 198.274C150.205 198.243 150.214 198.207 150.213 198.17C150.212 198.134 150.2 198.098 150.18 198.068C150.159 198.038 150.13 198.014 150.096 198Z" fill="#263238"/>
<path d="M149.748 209.4C148.605 209.277 147.449 209.345 146.328 209.604L142.728 210.06C140.328 210.348 137.844 210.636 135.396 210.84C135.276 210.84 135.288 211.044 135.396 211.032C137.88 210.84 140.376 210.672 142.86 210.456C144.06 210.36 145.26 210.24 146.46 210.12C147.583 210.121 148.697 209.917 149.748 209.52C149.758 209.513 149.766 209.505 149.772 209.494C149.777 209.484 149.78 209.472 149.78 209.46C149.78 209.448 149.777 209.436 149.772 209.426C149.766 209.415 149.758 209.407 149.748 209.4Z" fill="#263238"/>
<path d="M100.536 194.772L79.7041 181.572C79.7041 181.572 90.8281 165.9 99.1681 157.74C107.508 149.58 113.4 149.94 109.344 166.392C106.989 176.023 104.047 185.5 100.536 194.772Z" fill="#FFC727"/>
<path d="M83.1841 178.8C86.2801 180.4 89.3361 182.06 92.3521 183.78C93.8401 184.632 95.3401 185.472 96.8041 186.36C98.2681 187.248 99.7802 188.28 101.292 189.192C101.4 189.264 101.292 189.432 101.208 189.372C99.7081 188.544 98.1481 187.824 96.6481 186.972C95.1481 186.12 93.5761 185.232 92.0521 184.344C89.0281 182.616 86.0522 180.804 83.1122 178.92C83.0282 178.8 83.1001 178.704 83.1841 178.8Z" fill="#263238"/>
<path d="M100.536 194.88C101.532 191.376 102.936 188.016 104.136 184.572C105.336 181.128 106.536 177.624 107.544 174.132C107.539 174.121 107.537 174.109 107.538 174.097C107.539 174.085 107.543 174.074 107.55 174.064C107.557 174.054 107.565 174.046 107.576 174.04C107.586 174.034 107.598 174.031 107.61 174.031C107.622 174.031 107.634 174.034 107.644 174.04C107.655 174.046 107.664 174.054 107.67 174.064C107.677 174.074 107.681 174.085 107.682 174.097C107.683 174.109 107.681 174.121 107.676 174.132C107.244 175.896 106.848 177.732 106.356 179.436C106.116 180.3 105.84 181.176 105.564 182.028C105.744 181.716 105.912 181.404 106.104 181.092C106.69 180.172 107.322 179.283 108 178.428C108 178.428 108.108 178.428 108.084 178.488C107.61 179.471 107.085 180.428 106.512 181.356C106.104 182.028 105.648 182.676 105.216 183.336L104.7 184.8C103.688 188.286 102.359 191.672 100.728 194.916C100.668 195.036 100.512 194.988 100.536 194.88Z" fill="#263238"/>
<path d="M95.844 197.616C90.528 200.376 84.516 204.468 81.444 207.708C81.348 207.804 81.444 207.96 81.564 207.876C84.636 205.476 93.756 199.908 96.108 198.336C96.84 197.844 97.368 196.8 95.844 197.616Z" fill="#263238"/>
<path d="M189.3 228.66L146.868 229.572L165.516 174.708L207.948 173.796L189.3 228.66Z" fill="#EBEBEB"/>
<path d="M192.204 228.6L149.772 229.5L168.42 174.648L210.852 173.736L192.204 228.6Z" fill="#37474F"/>
<path d="M172.932 174.552C172.659 175.508 172.021 176.318 171.156 176.808C170.76 177.036 170.64 176.508 171.036 176.292C171.586 175.971 172.01 175.471 172.236 174.876C172.236 174.768 172.308 174.66 172.332 174.564C172.421 174.226 172.421 173.87 172.332 173.532C172.298 173.384 172.213 173.252 172.092 173.16H172.008C171.913 173.137 171.815 173.137 171.72 173.16C171.536 173.227 171.371 173.338 171.24 173.484C171.075 173.657 170.934 173.85 170.82 174.06L170.64 174.372V174.444C170.636 174.48 170.636 174.516 170.64 174.552C170.636 174.58 170.636 174.608 170.64 174.636H170.04C170.173 174.256 170.359 173.897 170.592 173.568C170.766 173.284 171 173.041 171.278 172.856C171.556 172.672 171.87 172.55 172.2 172.5C172.44 172.493 172.673 172.577 172.854 172.735C173.034 172.893 173.148 173.113 173.172 173.352C173.192 173.766 173.11 174.178 172.932 174.552Z" fill="#C7C7C7"/>
<path d="M176.256 174.48C175.983 175.436 175.345 176.246 174.48 176.736C174.084 176.964 173.964 176.436 174.36 176.22C174.907 175.896 175.33 175.397 175.56 174.804C175.599 174.703 175.628 174.599 175.644 174.492C175.739 174.155 175.739 173.797 175.644 173.46C175.606 173.311 175.517 173.179 175.392 173.088H175.308C175.21 173.059 175.106 173.059 175.008 173.088C174.824 173.155 174.659 173.266 174.528 173.412C174.305 173.689 174.108 173.986 173.94 174.3V174.372C173.937 174.412 173.937 174.452 173.94 174.492C173.935 174.516 173.935 174.54 173.94 174.564H173.34C173.474 174.184 173.659 173.825 173.892 173.496C174.067 173.212 174.301 172.969 174.578 172.784C174.856 172.6 175.171 172.478 175.5 172.428C175.74 172.418 175.973 172.501 176.152 172.66C176.331 172.819 176.442 173.041 176.46 173.28C176.497 173.691 176.426 174.104 176.256 174.48Z" fill="#C7C7C7"/>
<path d="M179.568 174.408C179.439 174.883 179.216 175.326 178.914 175.714C178.611 176.101 178.233 176.424 177.804 176.664C177.408 176.892 177.288 176.364 177.672 176.148C178.221 175.826 178.644 175.326 178.872 174.732C178.872 174.636 178.932 174.528 178.956 174.42C179.051 174.083 179.051 173.726 178.956 173.388C178.917 173.239 178.828 173.107 178.704 173.016C178.676 173.022 178.648 173.022 178.62 173.016C178.522 172.987 178.418 172.987 178.32 173.016C178.136 173.083 177.971 173.194 177.84 173.34C177.682 173.515 177.545 173.709 177.432 173.916C177.365 174.016 177.305 174.12 177.252 174.228V174.312C177.248 174.348 177.248 174.384 177.252 174.42C177.252 174.42 177.252 174.42 177.252 174.492H176.64C176.779 174.114 176.964 173.755 177.192 173.424C177.372 173.144 177.607 172.905 177.884 172.721C178.161 172.537 178.473 172.413 178.8 172.356C179.041 172.346 179.276 172.429 179.457 172.587C179.638 172.746 179.751 172.968 179.772 173.208C179.804 173.619 179.734 174.031 179.568 174.408Z" fill="#C7C7C7"/>
<path d="M182.892 174.336C182.763 174.811 182.54 175.254 182.238 175.642C181.935 176.029 181.557 176.352 181.128 176.592C180.72 176.82 180.6 176.292 180.996 176.076C181.546 175.755 181.97 175.255 182.196 174.66C182.234 174.562 182.266 174.462 182.292 174.36C182.387 174.019 182.387 173.658 182.292 173.316C182.258 173.168 182.173 173.036 182.052 172.944H181.92C181.822 172.914 181.718 172.914 181.62 172.944C181.437 173.013 181.273 173.124 181.14 173.268C180.978 173.44 180.841 173.634 180.732 173.844C180.663 173.946 180.602 174.055 180.552 174.168V174.24C180.548 174.276 180.548 174.312 180.552 174.348C180.552 174.348 180.552 174.348 180.552 174.42H179.952C180.091 174.046 180.276 173.691 180.504 173.364C180.678 173.079 180.912 172.834 181.19 172.648C181.467 172.461 181.782 172.337 182.112 172.284C182.353 172.274 182.588 172.357 182.769 172.515C182.95 172.674 183.063 172.896 183.084 173.136C183.119 173.546 183.054 173.958 182.892 174.336Z" fill="#C7C7C7"/>
<path d="M186.216 174.276C185.943 175.232 185.305 176.042 184.44 176.532C184.044 176.748 183.924 176.22 184.32 176.016C184.868 175.687 185.291 175.184 185.52 174.588C185.558 174.49 185.59 174.39 185.616 174.288C185.705 173.946 185.705 173.586 185.616 173.244C185.585 173.098 185.499 172.969 185.376 172.884H185.292C185.198 172.855 185.098 172.855 185.004 172.884C184.821 172.953 184.657 173.064 184.524 173.208C184.362 173.383 184.221 173.576 184.104 173.784L183.924 174.108V174.18C183.92 174.216 183.92 174.252 183.924 174.288C183.924 174.288 183.924 174.288 183.924 174.36H183.324C183.458 173.984 183.644 173.628 183.876 173.304C184.054 173.022 184.29 172.781 184.566 172.595C184.843 172.409 185.156 172.282 185.484 172.224C185.724 172.217 185.958 172.301 186.138 172.459C186.318 172.617 186.432 172.837 186.456 173.076C186.475 173.49 186.392 173.901 186.216 174.276Z" fill="#C7C7C7"/>
<path d="M189.6 174.204C189.323 175.158 188.687 175.967 187.824 176.46C187.428 176.676 187.308 176.148 187.704 175.944C188.255 175.618 188.678 175.114 188.904 174.516C188.943 174.419 188.972 174.319 188.988 174.216C189.083 173.874 189.083 173.514 188.988 173.172C188.952 173.028 188.867 172.901 188.748 172.812H188.664C188.566 172.783 188.462 172.783 188.364 172.812C188.183 172.884 188.019 172.995 187.884 173.136C187.726 173.311 187.589 173.505 187.476 173.712C187.409 173.816 187.349 173.924 187.296 174.036V174.108C187.292 174.144 187.292 174.18 187.296 174.216C187.291 174.24 187.291 174.264 187.296 174.288H186.696C186.83 173.912 187.016 173.556 187.248 173.232C187.427 172.95 187.662 172.709 187.938 172.523C188.215 172.337 188.528 172.21 188.856 172.152C189.096 172.142 189.329 172.225 189.508 172.384C189.687 172.543 189.798 172.765 189.816 173.004C189.849 173.416 189.774 173.829 189.6 174.204Z" fill="#C7C7C7"/>
<path d="M192.852 174.132C192.584 175.087 191.95 175.897 191.088 176.388C190.692 176.604 190.572 176.088 190.968 175.872C191.293 175.692 191.576 175.445 191.797 175.147C192.018 174.849 192.174 174.507 192.252 174.144C192.347 173.802 192.347 173.442 192.252 173.1C192.217 172.952 192.127 172.824 192 172.74H191.916C191.818 172.711 191.714 172.711 191.616 172.74C191.435 172.812 191.271 172.923 191.136 173.064C190.978 173.239 190.841 173.433 190.728 173.64C190.656 173.748 190.608 173.856 190.548 173.964V174.036C190.544 174.072 190.544 174.108 190.548 174.144C190.548 174.144 190.548 174.144 190.548 174.216H189.936C190.074 173.842 190.26 173.487 190.488 173.16C190.663 172.877 190.898 172.635 191.175 172.451C191.453 172.266 191.767 172.144 192.096 172.092C192.335 172.082 192.568 172.163 192.749 172.319C192.93 172.475 193.044 172.694 193.068 172.932C193.094 173.344 193.02 173.755 192.852 174.132Z" fill="#C7C7C7"/>
<path d="M196.176 174.06C196.045 174.534 195.822 174.977 195.519 175.364C195.216 175.751 194.84 176.075 194.412 176.316C194.004 176.544 193.884 176.016 194.28 175.8C194.833 175.477 195.257 174.972 195.48 174.372C195.518 174.274 195.55 174.174 195.576 174.072C195.671 173.731 195.671 173.37 195.576 173.028C195.542 172.883 195.457 172.756 195.336 172.668H195.264C195.167 172.633 195.061 172.633 194.964 172.668C194.777 172.729 194.61 172.841 194.484 172.992C194.32 173.158 194.182 173.348 194.076 173.556C194.004 173.664 193.956 173.772 193.896 173.88V173.952L193.836 174.06C193.836 174.06 193.836 174.06 193.836 174.132H193.2C193.339 173.758 193.524 173.403 193.752 173.076C193.926 172.792 194.161 172.549 194.438 172.364C194.716 172.18 195.031 172.058 195.36 172.008C195.599 171.998 195.832 172.079 196.013 172.235C196.194 172.391 196.308 172.61 196.332 172.848C196.379 173.259 196.325 173.675 196.176 174.06Z" fill="#C7C7C7"/>
<path d="M199.5 174C199.231 174.958 198.592 175.769 197.724 176.256C197.328 176.484 197.208 175.956 197.604 175.74C198.157 175.417 198.581 174.912 198.804 174.312C198.842 174.214 198.874 174.114 198.9 174.012C198.989 173.674 198.989 173.318 198.9 172.98C198.867 172.832 198.782 172.7 198.66 172.608H198.576C198.484 172.573 198.381 172.573 198.288 172.608C198.101 172.669 197.935 172.781 197.808 172.932C197.641 173.102 197.499 173.296 197.388 173.508C197.388 173.604 197.28 173.712 197.208 173.82V173.892C197.204 173.928 197.204 173.964 197.208 174C197.208 174 197.208 174 197.208 174.072H196.608C196.744 173.697 196.93 173.342 197.16 173.016C197.335 172.732 197.569 172.489 197.846 172.304C198.124 172.12 198.439 171.998 198.768 171.948C199.007 171.938 199.241 172.019 199.421 172.175C199.602 172.331 199.716 172.55 199.74 172.788C199.761 173.206 199.678 173.622 199.5 174Z" fill="#C7C7C7"/>
<path d="M202.8 173.916C202.527 174.872 201.889 175.682 201.024 176.172C200.628 176.4 200.508 175.872 200.904 175.656C201.455 175.33 201.878 174.826 202.104 174.228C202.142 174.13 202.174 174.03 202.2 173.928C202.289 173.59 202.289 173.234 202.2 172.896C202.161 172.75 202.077 172.62 201.96 172.524H201.876C201.778 172.496 201.674 172.496 201.576 172.524C201.392 172.591 201.227 172.702 201.096 172.848C200.933 173.019 200.795 173.213 200.688 173.424C200.621 173.524 200.561 173.628 200.508 173.736V173.808C200.504 173.844 200.504 173.88 200.508 173.916C200.503 173.94 200.503 173.964 200.508 173.988H199.908C200.044 173.613 200.23 173.258 200.46 172.932C200.634 172.648 200.869 172.405 201.146 172.22C201.424 172.036 201.739 171.914 202.068 171.864C202.306 171.854 202.538 171.935 202.716 172.092C202.895 172.248 203.007 172.467 203.028 172.704C203.059 173.121 202.98 173.539 202.8 173.916Z" fill="#C7C7C7"/>
<path d="M206.136 173.844C206.005 174.318 205.782 174.761 205.479 175.148C205.176 175.535 204.8 175.859 204.372 176.1C203.976 176.328 203.856 175.8 204.252 175.584C204.577 175.404 204.859 175.157 205.081 174.859C205.302 174.561 205.457 174.219 205.536 173.856C205.631 173.519 205.631 173.161 205.536 172.824C205.497 172.675 205.408 172.543 205.284 172.452H205.2C205.102 172.423 204.998 172.423 204.9 172.452C204.716 172.519 204.551 172.63 204.42 172.776C204.256 172.947 204.119 173.141 204.012 173.352C203.945 173.452 203.885 173.556 203.832 173.664V173.736C203.827 173.772 203.827 173.808 203.832 173.844C203.832 173.844 203.832 173.844 203.832 173.916H203.232C203.36 173.534 203.546 173.174 203.784 172.848C203.956 172.565 204.188 172.322 204.464 172.138C204.74 171.953 205.052 171.831 205.38 171.78C205.619 171.77 205.852 171.851 206.033 172.007C206.213 172.163 206.328 172.382 206.352 172.62C206.394 173.04 206.319 173.464 206.136 173.844Z" fill="#C7C7C7"/>
<path d="M209.46 173.772C209.329 174.246 209.106 174.689 208.803 175.076C208.501 175.463 208.124 175.787 207.696 176.028C207.288 176.256 207.168 175.728 207.564 175.512C208.115 175.191 208.538 174.691 208.764 174.096C208.764 173.988 208.836 173.88 208.86 173.784C208.949 173.446 208.949 173.09 208.86 172.752C208.817 172.605 208.729 172.475 208.608 172.38H208.548H208.476C208.378 172.357 208.275 172.357 208.176 172.38C207.992 172.447 207.828 172.558 207.696 172.704C207.532 172.874 207.394 173.068 207.288 173.28C207.221 173.38 207.161 173.484 207.108 173.592V173.664C207.104 173.7 207.104 173.736 207.108 173.772C207.104 173.8 207.104 173.828 207.108 173.856H206.4C206.539 173.478 206.724 173.119 206.952 172.788C207.127 172.504 207.361 172.261 207.638 172.076C207.916 171.892 208.231 171.77 208.56 171.72C208.801 171.71 209.036 171.793 209.217 171.951C209.398 172.11 209.511 172.332 209.532 172.572C209.606 172.972 209.581 173.384 209.46 173.772Z" fill="#C7C7C7"/>
<path d="M208.14 186.144C210.144 190.836 215.412 196.776 215.724 200.544C215.828 201.474 215.631 202.412 215.162 203.222C214.693 204.032 213.978 204.67 213.12 205.044C213.12 205.044 216.804 207.06 216.516 210.528C216.36 212.328 213.372 213.66 213.372 213.66C214.172 214.165 214.818 214.879 215.242 215.725C215.665 216.571 215.848 217.517 215.772 218.46C215.412 220.86 212.472 221.88 212.472 221.88C212.472 221.88 214.452 224.844 213.288 227.22C210.888 232.02 189.696 231.204 186.72 223.26C185.34 219.552 190.512 220.032 190.512 220.032C190.512 220.032 183.24 217.536 183.312 213.156C183.384 208.776 190.056 209.82 190.056 209.82C190.056 209.82 183.06 207.36 183.6 202.8C184.14 198.072 190.656 200.256 190.656 200.256C190.656 200.256 186.06 196.872 187.248 193.488C189.228 187.908 197.88 195.372 202.596 194.448L205.476 186.852L208.14 186.144Z" fill="#D3766A"/>
<path d="M212.124 193.008C210.612 188.4 216.456 183.012 215.652 178.404C214.56 172.164 207.348 177.948 205.452 186.876L205.188 194.076L212.124 193.008Z" fill="#D3766A"/>
<path d="M212.064 222.12C212.08 222.12 212.095 222.126 212.106 222.138C212.118 222.149 212.124 222.164 212.124 222.18C212.124 222.196 212.118 222.211 212.106 222.222C212.095 222.234 212.08 222.24 212.064 222.24C204.74 223.748 197.131 222.99 190.248 220.068C190.032 219.972 190.104 219.576 190.356 219.636C197.432 221.517 204.746 222.354 212.064 222.12Z" fill="#263238"/>
<path d="M213.48 213.72C213.564 213.72 213.564 213.852 213.48 213.864C205.391 215.447 197.002 214.085 189.828 210.024C189.576 209.868 189.504 209.496 189.828 209.64C194.796 212.172 206.616 214.032 213.48 213.72Z" fill="#263238"/>
<path d="M190.2 199.8C197.256 203.712 204.852 204.96 212.832 205.128C212.928 205.128 212.916 205.272 212.832 205.296C208.908 206.28 203.832 205.644 199.92 204.816C196.274 204.102 192.878 202.447 190.068 200.016C189.96 199.956 190.056 199.716 190.2 199.8Z" fill="#263238"/>
<path d="M110.7 149.856C111 151.14 120.3 159.276 126.216 159C128.124 158.916 124.836 148.68 124.836 148.68L125.016 147.912L127.416 137.112L114.756 128.964L112.92 127.884C112.92 127.884 112.452 130.884 111.912 134.616C111.912 134.784 111.912 134.964 111.828 135.144C111.744 135.324 111.756 135.552 111.732 135.756C111.636 136.308 111.552 136.884 111.48 137.448C111.408 138.012 111.36 138.3 111.312 138.756C111.264 139.212 111.204 139.656 111.144 140.112C110.771 143.346 110.623 146.602 110.7 149.856Z" fill="#D3766A"/>
<path d="M111.936 134.616C113.022 137.648 114.754 140.408 117.013 142.703C119.271 144.999 122.002 146.777 125.016 147.912L127.416 137.112L114.756 128.964L112.92 127.884C112.92 127.884 112.476 130.884 111.936 134.616Z" fill="#263238"/>
<path d="M144.096 123.6C142.644 142.956 130.896 144.276 126.708 144C122.928 143.712 110.064 142.248 109.5 122.844C108.936 103.44 118.404 97.992 127.104 98.196C135.804 98.4 145.536 104.232 144.096 123.6Z" fill="#D3766A"/>
<path d="M110.016 121.5C114.564 122.28 115.704 115.08 115.704 115.08C115.704 115.08 120.96 115.44 122.7 107.148C123.435 108.99 124.586 110.637 126.065 111.959C127.543 113.282 129.308 114.243 131.22 114.768C132.672 115.224 128.316 110.568 128.316 110.568C128.316 110.568 133.404 116.94 144.816 116.688C145.62 116.688 145.848 104.688 137.808 99.312C129.768 93.936 121.56 94.908 115.296 99.516C113.635 100.07 112.136 101.025 110.931 102.295C109.725 103.565 108.851 105.112 108.384 106.8C106.692 112.8 108.24 121.2 110.016 121.5Z" fill="#263238"/>
<path d="M112.8 123.216C112.8 123.216 109.56 116.556 106.608 117.6C103.656 118.644 105.408 127.836 108.372 129.6C108.742 129.845 109.158 130.013 109.594 130.093C110.03 130.173 110.478 130.164 110.911 130.066C111.344 129.969 111.752 129.785 112.112 129.525C112.472 129.266 112.775 128.936 113.004 128.556L112.8 123.216Z" fill="#D3766A"/>
<path d="M107.16 120.216C107.16 120.216 107.088 120.216 107.16 120.3C109.248 121.572 110.088 123.828 110.556 126.12C110.464 125.875 110.32 125.652 110.133 125.468C109.946 125.285 109.721 125.144 109.475 125.056C109.228 124.968 108.965 124.935 108.704 124.959C108.443 124.983 108.19 125.064 107.964 125.196C107.892 125.196 107.964 125.328 107.964 125.316C108.378 125.257 108.801 125.326 109.174 125.515C109.548 125.704 109.854 126.003 110.052 126.372C110.371 126.992 110.624 127.644 110.808 128.316C110.88 128.532 111.264 128.484 111.216 128.244V128.184C111.744 125.352 110.172 121.008 107.16 120.216Z" fill="#263238"/>
<path d="M140.7 119.784C140.256 119.664 139.86 119.484 139.5 119.328C139.033 119.231 138.611 118.982 138.3 118.62C138.225 118.486 138.196 118.332 138.217 118.18C138.239 118.028 138.31 117.887 138.42 117.78C138.668 117.603 138.959 117.495 139.263 117.468C139.567 117.44 139.872 117.494 140.148 117.624C140.749 117.799 141.263 118.193 141.588 118.728C141.665 118.858 141.699 119.009 141.686 119.16C141.674 119.311 141.615 119.454 141.517 119.57C141.42 119.685 141.289 119.768 141.143 119.806C140.996 119.845 140.842 119.837 140.7 119.784Z" fill="#263238"/>
<path d="M128.304 117.924C128.738 117.919 129.17 117.891 129.6 117.84C130.074 117.874 130.547 117.752 130.944 117.492C131.054 117.385 131.125 117.244 131.147 117.092C131.169 116.941 131.14 116.786 131.064 116.652C130.876 116.411 130.626 116.225 130.341 116.113C130.056 116.002 129.747 115.968 129.444 116.016C128.821 116.018 128.222 116.253 127.764 116.676C127.661 116.78 127.591 116.912 127.564 117.056C127.537 117.2 127.553 117.349 127.611 117.483C127.67 117.617 127.767 117.731 127.89 117.81C128.014 117.889 128.158 117.928 128.304 117.924Z" fill="#263238"/>
<path d="M130.368 123.18C130.368 123.12 130.26 123.18 130.248 123.276C130.14 124.596 129.792 126.084 128.544 126.384V126.456C130.02 126.42 130.476 124.44 130.368 123.18Z" fill="#263238"/>
<path d="M129.36 121.668C127.26 121.26 126.6 125.472 128.544 125.856C130.488 126.24 131.112 122.016 129.36 121.668Z" fill="#263238"/>
<path d="M128.496 121.764C128.088 121.944 127.656 122.304 127.212 122.28C126.768 122.256 126.372 121.74 126.108 121.272C126.108 121.272 126.036 121.272 126.024 121.272C125.88 122.076 126.024 122.952 126.912 123.204C127.8 123.456 128.364 122.82 128.688 122.004C128.748 121.932 128.664 121.692 128.496 121.764Z" fill="#263238"/>
<path d="M137.484 124.224C137.484 124.224 137.568 124.296 137.568 124.344C137.304 125.652 137.232 127.176 138.336 127.8C138.336 127.8 138.336 127.884 138.336 127.872C136.908 127.44 137.028 125.4 137.484 124.224Z" fill="#263238"/>
<path d="M138.876 123.048C141 123.24 140.46 127.476 138.492 127.296C136.524 127.116 137.088 122.892 138.876 123.048Z" fill="#263238"/>
<path d="M139.716 123.444C140.028 123.708 140.304 124.152 140.7 124.236C141.096 124.32 141.564 123.9 141.9 123.504C141.816 124.32 141.444 125.136 140.7 125.184C139.956 125.232 139.5 124.476 139.5 123.648C139.452 123.6 139.596 123.336 139.716 123.444Z" fill="#263238"/>
<path d="M128.76 133.728C129 134.088 129.228 134.568 129.684 134.7C130.167 134.8 130.666 134.8 131.148 134.7C131.148 134.7 131.22 134.7 131.148 134.784C130.909 134.998 130.618 135.144 130.303 135.207C129.989 135.271 129.663 135.249 129.36 135.144C129.108 135.023 128.898 134.829 128.757 134.587C128.616 134.346 128.55 134.067 128.568 133.788C128.616 133.68 128.724 133.668 128.76 133.728Z" fill="#263238"/>
<path d="M134.916 129.792C134.914 130.766 134.862 131.739 134.76 132.708C134.76 132.792 134.52 132.804 134.208 132.708C133.396 132.736 132.591 132.54 131.883 132.143C131.174 131.745 130.588 131.16 130.188 130.452C130.178 130.431 130.176 130.408 130.182 130.386C130.188 130.364 130.201 130.344 130.22 130.331C130.239 130.318 130.262 130.312 130.285 130.315C130.307 130.317 130.329 130.327 130.344 130.344C131.404 131.319 132.751 131.926 134.184 132.072C134.28 131.832 134.088 128.664 134.184 128.676C134.888 128.841 135.566 129.099 136.2 129.444C136.356 125.304 135.84 121.152 136.056 117.024C136.056 116.992 136.069 116.962 136.091 116.939C136.114 116.917 136.145 116.904 136.176 116.904C136.208 116.904 136.239 116.917 136.261 116.939C136.284 116.962 136.296 116.992 136.296 117.024C136.988 121.448 137.233 125.931 137.028 130.404C137.052 130.968 135.264 129.996 134.916 129.792Z" fill="#263238"/>
<path d="M133.668 132.192C133.104 132.784 132.397 133.222 131.616 133.464C131.191 133.602 130.733 133.602 130.308 133.464C129.396 133.116 129.456 132.264 129.708 131.532C129.845 131.152 130.027 130.79 130.248 130.452C131.174 131.382 132.372 131.991 133.668 132.192Z" fill="#263238"/>
<path d="M131.616 133.464C131.191 133.602 130.733 133.602 130.308 133.464C129.396 133.116 129.456 132.264 129.708 131.532C130.194 131.599 130.645 131.825 130.99 132.175C131.335 132.524 131.555 132.977 131.616 133.464Z" fill="#FF9CBD"/>
<path d="M143.784 104.4C141.552 103.872 129.144 104.232 123.564 106.632C117.984 109.032 108.084 117.06 107.58 117.432C107.076 117.804 104.52 97.392 121.104 93.66C139.2 89.664 143.784 104.4 143.784 104.4Z" fill="#FFC727"/>
<path d="M108.528 116.664C108.528 116.664 119.496 102.264 125.592 98.8921C131.688 95.5201 145.332 93.72 153.768 97.44C160.356 100.332 144.288 108.804 144.288 108.804C144.141 108.106 143.831 107.453 143.385 106.897C142.939 106.34 142.369 105.896 141.72 105.6C137.616 103.968 129.816 105.228 125.364 106.716C119.772 108.624 108.528 116.664 108.528 116.664Z" fill="#FFC727"/>
<path opacity="0.2" d="M108.528 116.664C108.528 116.664 119.496 102.264 125.592 98.8921C131.688 95.5201 145.332 93.72 153.768 97.44C160.356 100.332 144.288 108.804 144.288 108.804C144.141 108.106 143.831 107.453 143.385 106.897C142.939 106.34 142.369 105.896 141.72 105.6C137.616 103.968 129.816 105.228 125.364 106.716C119.772 108.624 108.528 116.664 108.528 116.664Z" fill="black"/>
<path d="M124.8 148.656L122.184 157.524L110.532 147.732L107.856 151.476C107.856 151.476 119.856 167.676 119.856 166.884L122.676 159.192L128.244 163.836L126.612 151.008L124.8 148.656Z" fill="#FFC727"/>
<path d="M127.86 157.44C127.512 155.34 127.236 153.204 126.792 151.116C126.792 151.044 126.66 151.02 126.648 151.116C126.42 153.204 127.764 161.268 127.944 163.212C127.704 163.008 122.796 159.156 122.76 159.228C122.112 160.428 120.036 166.08 119.904 166.584C117.996 164.004 110.76 154.692 108.576 152.292C108.565 152.276 108.548 152.265 108.529 152.262C108.51 152.259 108.49 152.263 108.474 152.274C108.458 152.285 108.447 152.302 108.444 152.321C108.441 152.34 108.445 152.36 108.456 152.376C110.184 155.124 119.784 167.688 119.904 167.64C121.026 164.981 122.007 162.266 122.844 159.504C123.696 160.368 128.7 164.772 128.688 164.448C128.556 162.276 128.196 159.6 127.86 157.44Z" fill="#263238"/>
</svg>
