<svg width="500" height="550" viewBox="0 0 500 550" fill="none" xmlns="http://www.w3.org/2000/svg">
<path d="M317.321 505.026V510.91C317.321 511.084 317.287 511.257 317.222 511.418C317.156 511.579 317.06 511.726 316.938 511.849C316.817 511.972 316.673 512.07 316.514 512.137C316.355 512.203 316.185 512.238 316.014 512.238H152.292C150.895 512.238 149.52 511.89 148.287 511.226C147.053 510.561 145.999 509.599 145.217 508.424C144.435 507.25 143.948 505.899 143.8 504.489C143.651 503.079 143.845 501.654 144.365 500.338L196.249 369.863L280.095 370.436L277.238 387.369L258.738 496.945C258.6 497.775 258.641 498.627 258.86 499.439C259.078 500.252 259.468 501.007 260.003 501.651C260.537 502.295 261.204 502.813 261.956 503.17C262.707 503.526 263.526 503.712 264.356 503.714H316.014C316.184 503.712 316.354 503.744 316.513 503.809C316.671 503.874 316.816 503.971 316.937 504.093C317.059 504.215 317.155 504.36 317.221 504.52C317.287 504.68 317.321 504.852 317.321 505.026Z" fill="#263238"/>
<path opacity="0.5" d="M317.321 505.026V510.91C317.321 511.084 317.287 511.257 317.222 511.418C317.156 511.579 317.06 511.726 316.938 511.849C316.817 511.972 316.673 512.07 316.514 512.137C316.355 512.203 316.185 512.238 316.014 512.238H152.292C150.895 512.238 149.52 511.89 148.287 511.226C147.053 510.561 145.999 509.599 145.217 508.424C144.435 507.25 143.948 505.899 143.8 504.489C143.651 503.079 143.845 501.654 144.365 500.338L176.538 419.447L196.249 369.863L280.095 370.436L277.238 387.369L269.167 435.018L258.722 496.945C258.584 497.775 258.625 498.627 258.844 499.439C259.062 500.252 259.452 501.007 259.987 501.651C260.521 502.295 261.188 502.813 261.939 503.17C262.691 503.526 263.51 503.712 264.34 503.714H315.997C316.17 503.71 316.341 503.741 316.501 503.805C316.662 503.869 316.808 503.964 316.932 504.087C317.055 504.209 317.153 504.355 317.22 504.516C317.287 504.677 317.321 504.851 317.321 505.026Z" fill="white"/>
<path opacity="0.2" d="M264.356 503.698H157.812C157.199 503.696 156.595 503.541 156.054 503.247C155.513 502.952 155.051 502.527 154.71 502.009C154.369 501.491 154.158 500.896 154.097 500.275C154.035 499.655 154.125 499.029 154.358 498.453L199.849 387.352H277.222L258.722 496.928C258.584 497.76 258.626 498.613 258.845 499.427C259.064 500.241 259.456 500.996 259.992 501.641C260.528 502.285 261.197 502.803 261.95 503.158C262.704 503.514 263.525 503.698 264.356 503.698Z" fill="black"/>
<path opacity="0.1" d="M280.095 370.42L277.238 387.352L269.183 435.002L176.538 419.447L196.249 369.846L280.095 370.42Z" fill="black"/>
<path d="M382.305 405.473L382.305 11.3436C382.305 10.0198 382.048 8.70894 381.549 7.48589C381.05 6.26285 380.319 5.15157 379.397 4.2155C378.475 3.27942 377.381 2.53688 376.176 2.03028C374.972 1.52368 373.681 1.26294 372.377 1.26294L109.586 1.26294C106.952 1.26294 104.427 2.325 102.565 4.2155C100.704 6.10599 99.6576 8.67005 99.6576 11.3436V405.473C99.6576 408.148 100.703 410.714 102.564 412.607C104.426 414.5 106.951 415.566 109.586 415.57H372.377C375.011 415.566 377.537 414.5 379.398 412.607C381.259 410.714 382.305 408.148 382.305 405.473Z" fill="#263238"/>
<path opacity="0.6" d="M382.305 405.473V11.3436C382.305 10.0198 382.048 8.70894 381.549 7.48589C381.05 6.26285 380.319 5.15157 379.397 4.2155C378.475 3.27942 377.381 2.53688 376.176 2.03028C374.972 1.52368 373.681 1.26294 372.377 1.26294L109.586 1.26294C106.952 1.26294 104.427 2.325 102.565 4.2155C100.704 6.10599 99.6576 8.67005 99.6576 11.3436V405.473C99.6576 408.148 100.703 410.714 102.564 412.607C104.426 414.5 106.951 415.566 109.586 415.57H372.377C375.011 415.566 377.537 414.5 379.398 412.607C381.259 410.714 382.305 408.148 382.305 405.473Z" fill="white"/>
<path opacity="0.2" d="M99.2066 18.4403V10.0807C99.2066 7.40996 100.25 4.84838 102.109 2.95836C103.967 1.06834 106.488 0.00435596 109.118 1.33272e-05L371.894 1.33272e-05C373.199 -0.00214146 374.491 0.257018 375.698 0.762654C376.904 1.26829 378.001 2.01048 378.924 2.94677C379.848 3.88306 380.58 4.99507 381.08 6.21918C381.58 7.44329 381.838 8.75549 381.838 10.0807V18.4403C381.844 17.1109 381.591 15.7934 381.094 14.5636C380.597 13.3338 379.866 12.216 378.941 11.2745C378.017 10.333 376.919 9.58641 375.709 9.07771C374.499 8.569 373.203 8.30824 371.894 8.31041L109.118 8.31041C107.811 8.31039 106.517 8.57286 105.31 9.08273C104.103 9.59261 103.008 10.3398 102.087 11.2813C101.165 12.2228 100.437 13.3401 99.9424 14.5687C99.4481 15.7973 99.198 17.1131 99.2066 18.4403Z" fill="black"/>
<path d="M374.759 404.314V16.5442L121.362 16.5442L121.362 404.314H374.759Z" fill="#EA0029"/>
<path opacity="0.4" d="M247.907 233.815C266.219 233.815 281.064 218.741 281.064 200.147C281.064 181.553 266.219 166.479 247.907 166.479C229.594 166.479 214.749 181.553 214.749 200.147C214.749 218.741 229.594 233.815 247.907 233.815Z" fill="white"/>
<path d="M239.997 195.033V191.952C239.997 190.482 240.572 189.073 241.595 188.034C242.618 186.995 244.006 186.411 245.453 186.411H250.296C251.018 186.403 251.734 186.54 252.404 186.814C253.073 187.089 253.682 187.495 254.196 188.011C254.709 188.526 255.117 189.14 255.395 189.816C255.674 190.493 255.817 191.219 255.817 191.952V195.099H259.352V191.952C259.348 189.532 258.399 187.212 256.714 185.501C255.029 183.789 252.744 182.826 250.361 182.822H245.518C243.134 182.826 240.85 183.789 239.164 185.501C237.479 187.212 236.53 189.532 236.526 191.952V195.099L239.997 195.033Z" fill="white"/>
<path d="M232.006 199.18V215.719C232.006 215.96 232.052 216.199 232.143 216.421C232.234 216.644 232.367 216.847 232.535 217.017C232.703 217.188 232.902 217.323 233.122 217.415C233.341 217.507 233.576 217.555 233.814 217.555H261.999C262.237 217.555 262.472 217.507 262.691 217.415C262.911 217.323 263.11 217.188 263.278 217.017C263.446 216.847 263.579 216.644 263.67 216.421C263.761 216.199 263.807 215.96 263.807 215.719V199.18C263.807 198.693 263.617 198.226 263.278 197.882C262.939 197.538 262.479 197.344 261.999 197.344H233.814C233.576 197.344 233.341 197.392 233.122 197.484C232.902 197.576 232.703 197.711 232.535 197.882C232.367 198.052 232.234 198.255 232.143 198.478C232.052 198.7 232.006 198.939 232.006 199.18ZM248.923 208.54V211.818H246.938V208.54C246.647 208.375 246.403 208.139 246.228 207.852C246.053 207.565 245.953 207.237 245.937 206.9C245.937 206.357 246.15 205.836 246.528 205.452C246.906 205.067 247.42 204.851 247.955 204.851C248.49 204.851 249.003 205.067 249.382 205.452C249.76 205.836 249.973 206.357 249.973 206.9C249.952 207.242 249.845 207.573 249.661 207.86C249.477 208.148 249.223 208.382 248.923 208.54Z" fill="white"/>
<path d="M167.014 261.697H135.697C133.833 261.697 132.323 263.23 132.323 265.122V296.922C132.323 298.814 133.833 300.347 135.697 300.347H167.014C168.877 300.347 170.388 298.814 170.388 296.922V265.122C170.388 263.23 168.877 261.697 167.014 261.697Z" fill="white"/>
<path d="M215.298 261.647H183.98C182.117 261.647 180.607 263.181 180.607 265.073V296.872C180.607 298.764 182.117 300.298 183.98 300.298H215.298C217.161 300.298 218.672 298.764 218.672 296.872V265.073C218.672 263.181 217.161 261.647 215.298 261.647Z" fill="white"/>
<path d="M263.566 261.598H232.248C230.385 261.598 228.874 263.132 228.874 265.024V296.823C228.874 298.715 230.385 300.249 232.248 300.249H263.566C265.429 300.249 266.939 298.715 266.939 296.823V265.024C266.939 263.132 265.429 261.598 263.566 261.598Z" fill="white"/>
<path d="M311.833 261.533H280.515C278.652 261.533 277.141 263.067 277.141 264.959V296.758C277.141 298.65 278.652 300.184 280.515 300.184H311.833C313.696 300.184 315.207 298.65 315.207 296.758V264.959C315.207 263.067 313.696 261.533 311.833 261.533Z" fill="white"/>
<path d="M360.1 261.484H328.783C326.919 261.484 325.409 263.017 325.409 264.909V296.709C325.409 298.601 326.919 300.134 328.783 300.134H360.1C361.963 300.134 363.474 298.601 363.474 296.709V264.909C363.474 263.017 361.963 261.484 360.1 261.484Z" fill="white"/>
<path d="M336.063 281.563C336.063 274.761 339.647 270.892 344.458 270.892C349.268 270.892 352.836 274.761 352.836 281.563C352.836 288.365 349.252 292.234 344.458 292.234C339.663 292.234 336.063 288.365 336.063 281.563ZM349.898 281.563C349.898 276.219 347.654 273.548 344.458 273.548C341.261 273.548 339.001 276.219 339.001 281.563C339.001 286.907 341.229 289.578 344.458 289.578C347.686 289.578 349.898 286.89 349.898 281.563Z" fill="#263238"/>
<path d="M159.007 281.301C159.007 288.415 155.036 292.234 149.321 292.234C147.538 292.298 145.77 291.874 144.204 291.004L145.237 288.66C146.436 289.364 147.809 289.706 149.192 289.644C153.357 289.644 156.005 286.989 156.005 281.76V281.022C155.316 281.938 154.414 282.666 153.38 283.14C152.346 283.615 151.212 283.822 150.08 283.743C145.996 283.743 143.058 281.268 143.058 277.432C143.058 273.597 146.287 270.876 150.306 270.876C155.892 270.892 159.007 274.646 159.007 281.301ZM155.391 277.334C155.391 275.187 153.777 273.302 150.548 273.302C149.983 273.232 149.41 273.285 148.866 273.457C148.323 273.628 147.821 273.915 147.394 274.297C146.967 274.679 146.625 275.149 146.39 275.675C146.154 276.202 146.031 276.772 146.028 277.35C146.028 279.809 147.82 281.383 150.71 281.383C153.599 281.383 155.391 279.629 155.391 277.334Z" fill="#263238"/>
<path d="M191.245 281.563C191.245 274.761 194.828 270.892 199.639 270.892C204.45 270.892 208.017 274.761 208.017 281.563C208.017 288.365 204.434 292.234 199.639 292.234C194.845 292.234 191.245 288.365 191.245 281.563ZM205.079 281.563C205.079 276.219 202.852 273.548 199.639 273.548C196.427 273.548 194.183 276.219 194.183 281.563C194.183 286.907 196.41 289.578 199.639 289.578C202.868 289.578 205.079 286.907 205.079 281.563Z" fill="#263238"/>
<path d="M255.332 289.398V291.939H240.561V289.972L248.923 281.776C251.103 279.629 251.506 278.317 251.506 277.006C251.506 274.859 250.021 273.548 247.131 273.548C246.145 273.492 245.159 273.667 244.249 274.059C243.34 274.451 242.531 275.05 241.885 275.81L239.883 274.056C240.828 272.995 241.992 272.16 243.294 271.613C244.595 271.066 245.999 270.82 247.406 270.892C251.684 270.892 254.444 273.121 254.444 276.695C254.444 278.727 253.863 280.547 251.07 283.251L244.791 289.382L255.332 289.398Z" fill="#263238"/>
<path d="M298.595 271.122V291.939H295.689V273.728H291.04V271.122H298.595Z" fill="#263238"/>
<g opacity="0.6">
<path d="M211.795 252.255V252.993H206.193V244.945H211.617V245.682H207.033V248.551H211.117V249.321H207.033V252.304L211.795 252.255Z" fill="white"/>
<path d="M219.059 249.485V252.993H218.252V249.567C218.3 249.312 218.288 249.05 218.216 248.801C218.145 248.552 218.017 248.324 217.842 248.135C217.667 247.947 217.451 247.803 217.211 247.715C216.97 247.628 216.713 247.6 216.46 247.633C216.176 247.612 215.89 247.655 215.624 247.758C215.358 247.861 215.117 248.022 214.918 248.23C214.72 248.438 214.569 248.687 214.475 248.961C214.382 249.234 214.348 249.525 214.377 249.813V252.993H213.586V246.944H214.345V248.059C214.588 247.681 214.925 247.376 215.322 247.174C215.719 246.973 216.162 246.882 216.605 246.912C216.942 246.882 217.28 246.93 217.597 247.05C217.913 247.17 218.199 247.36 218.434 247.607C218.669 247.853 218.847 248.15 218.955 248.474C219.063 248.799 219.098 249.144 219.059 249.485Z" fill="white"/>
<path d="M224.338 252.599C223.983 252.892 223.535 253.043 223.079 253.026C222.846 253.045 222.612 253.013 222.393 252.932C222.174 252.851 221.975 252.723 221.809 252.557C221.643 252.39 221.515 252.189 221.433 251.967C221.351 251.745 221.318 251.508 221.335 251.272V247.682H220.27V246.994H221.335V245.682H222.142V246.994H223.95V247.682H222.142V251.288C222.142 252.009 222.497 252.386 223.159 252.386C223.48 252.396 223.794 252.292 224.047 252.091L224.338 252.599Z" fill="white"/>
<path d="M230.795 250.223H225.823C225.86 250.816 226.128 251.369 226.567 251.763C227.005 252.156 227.58 252.357 228.164 252.321C228.506 252.332 228.846 252.267 229.161 252.131C229.476 251.996 229.758 251.792 229.988 251.534L230.44 252.058C230 252.478 229.452 252.764 228.86 252.884C228.267 253.003 227.654 252.952 227.089 252.735C226.524 252.518 226.03 252.145 225.664 251.657C225.297 251.169 225.073 250.587 225.016 249.977C224.994 249.578 225.053 249.179 225.189 248.804C225.326 248.43 225.537 248.088 225.81 247.8C226.083 247.513 226.411 247.285 226.775 247.132C227.138 246.979 227.528 246.904 227.922 246.912C228.314 246.904 228.703 246.979 229.065 247.132C229.426 247.285 229.753 247.513 230.023 247.802C230.293 248.09 230.502 248.432 230.634 248.807C230.767 249.181 230.822 249.58 230.795 249.977C230.795 249.977 230.795 250.124 230.795 250.223ZM225.823 249.616H230.036C229.99 249.081 229.748 248.583 229.358 248.22C228.968 247.858 228.459 247.656 227.93 247.656C227.401 247.656 226.891 247.858 226.501 248.22C226.111 248.583 225.869 249.081 225.823 249.616Z" fill="white"/>
<path d="M235.428 246.912V247.682H235.234C234.95 247.667 234.667 247.716 234.404 247.825C234.141 247.935 233.905 248.102 233.714 248.316C233.522 248.529 233.38 248.783 233.297 249.059C233.213 249.334 233.191 249.626 233.232 249.911V252.993H232.409V246.944H233.184V248.125C233.392 247.714 233.718 247.378 234.119 247.161C234.52 246.944 234.977 246.857 235.428 246.912Z" fill="white"/>
<path d="M244.92 246.944L241.95 253.714C241.449 254.894 240.82 255.271 239.964 255.271C239.7 255.281 239.437 255.237 239.19 255.141C238.943 255.045 238.718 254.9 238.528 254.714L238.899 254.107C239.037 254.258 239.204 254.376 239.391 254.455C239.577 254.535 239.778 254.572 239.98 254.566C240.513 254.566 240.868 254.32 241.207 253.566L241.466 252.976L238.867 246.944H239.706L241.934 252.075L244.178 246.944H244.92Z" fill="white"/>
<path d="M245.324 249.977C245.321 249.367 245.496 248.769 245.827 248.26C246.159 247.751 246.632 247.354 247.186 247.118C247.74 246.882 248.351 246.819 248.941 246.936C249.531 247.053 250.073 247.345 250.499 247.776C250.925 248.206 251.216 248.755 251.334 249.353C251.452 249.951 251.393 250.572 251.164 251.136C250.935 251.7 250.546 252.182 250.046 252.521C249.547 252.861 248.96 253.042 248.359 253.042C247.957 253.058 247.557 252.99 247.183 252.842C246.808 252.693 246.468 252.469 246.183 252.181C245.899 251.893 245.675 251.549 245.527 251.17C245.38 250.791 245.31 250.384 245.324 249.977ZM250.554 249.977C250.535 249.537 250.389 249.112 250.134 248.756C249.879 248.399 249.526 248.127 249.12 247.972C248.714 247.818 248.272 247.788 247.849 247.887C247.426 247.986 247.041 248.208 246.742 248.528C246.443 248.847 246.243 249.248 246.167 249.682C246.091 250.116 246.143 250.563 246.315 250.967C246.487 251.371 246.773 251.715 247.136 251.956C247.5 252.197 247.925 252.324 248.359 252.321C248.654 252.319 248.946 252.256 249.216 252.136C249.487 252.015 249.73 251.84 249.931 251.62C250.133 251.401 250.287 251.142 250.386 250.859C250.485 250.576 250.526 250.276 250.506 249.977H250.554Z" fill="white"/>
<path d="M258.319 246.944V252.993H257.56V251.878C257.339 252.251 257.023 252.556 256.645 252.761C256.267 252.966 255.841 253.063 255.413 253.042C255.072 253.076 254.728 253.032 254.405 252.914C254.083 252.795 253.791 252.604 253.551 252.356C253.311 252.107 253.129 251.807 253.018 251.478C252.907 251.148 252.871 250.798 252.911 250.452V246.944H253.702V250.37C253.654 250.625 253.666 250.887 253.737 251.136C253.808 251.385 253.937 251.613 254.112 251.802C254.286 251.99 254.503 252.134 254.743 252.222C254.983 252.309 255.241 252.338 255.494 252.304C255.774 252.321 256.055 252.275 256.316 252.169C256.577 252.063 256.812 251.901 257.004 251.693C257.197 251.485 257.342 251.237 257.429 250.966C257.517 250.695 257.545 250.408 257.512 250.124V246.944H258.319Z" fill="white"/>
<path d="M263.565 246.912V247.682H263.371C263.088 247.667 262.804 247.716 262.541 247.825C262.278 247.935 262.043 248.102 261.851 248.316C261.66 248.529 261.517 248.783 261.434 249.059C261.351 249.334 261.329 249.626 261.37 249.911V252.993H260.563V246.944H261.337V248.125C261.544 247.717 261.868 247.383 262.265 247.166C262.663 246.95 263.117 246.861 263.565 246.912Z" fill="white"/>
<path d="M267.52 248.977C267.491 248.135 267.711 247.303 268.15 246.589C268.59 245.874 269.23 245.309 269.988 244.966C270.746 244.623 271.588 244.518 272.405 244.665C273.222 244.811 273.978 245.201 274.575 245.786C275.172 246.372 275.583 247.125 275.756 247.949C275.929 248.773 275.855 249.63 275.545 250.412C275.234 251.193 274.701 251.863 274.013 252.334C273.326 252.806 272.515 253.058 271.685 253.058C271.145 253.081 270.605 252.991 270.1 252.796C269.594 252.6 269.133 252.303 268.743 251.922C268.354 251.54 268.045 251.083 267.835 250.576C267.625 250.07 267.518 249.526 267.52 248.977ZM274.994 248.977C275.014 248.301 274.832 247.635 274.475 247.065C274.117 246.495 273.598 246.047 272.987 245.779C272.375 245.512 271.699 245.436 271.045 245.564C270.391 245.691 269.79 246.014 269.319 246.492C268.848 246.97 268.529 247.581 268.404 248.245C268.279 248.909 268.353 249.596 268.617 250.217C268.88 250.838 269.321 251.364 269.883 251.727C270.444 252.091 271.1 252.275 271.766 252.255C272.622 252.255 273.443 251.91 274.049 251.295C274.654 250.68 274.994 249.846 274.994 248.977Z" fill="white"/>
<path d="M279.127 245.682H276.35V244.945H282.808V245.682H280.015V252.993H279.175L279.127 245.682Z" fill="white"/>
<path d="M290.282 247.682C290.282 249.321 289.055 250.419 287.053 250.419H284.938V252.96H284.067V244.912H287.021C289.055 244.945 290.282 246.043 290.282 247.682ZM289.442 247.682C289.442 246.387 288.603 245.649 287.021 245.649H284.922V249.665H287.021C288.603 249.698 289.442 248.977 289.442 247.682Z" fill="white"/>
</g>
<g opacity="0.6">
<path d="M216.508 321.263L216.831 320.623C217.556 321.262 218.487 321.607 219.446 321.59C220.915 321.59 221.561 320.968 221.561 320.164C221.561 317.968 216.718 319.312 216.718 316.345C216.718 315.165 217.622 314.149 219.624 314.149C220.492 314.137 221.345 314.382 222.078 314.854L221.803 315.526C221.152 315.104 220.397 314.876 219.624 314.87C218.187 314.87 217.542 315.526 217.542 316.329C217.542 318.525 222.384 317.198 222.384 320.115C222.384 321.312 221.464 322.312 219.446 322.312C218.372 322.352 217.322 321.978 216.508 321.263Z" fill="white"/>
<path d="M229.181 319.476H224.209C224.246 320.069 224.513 320.623 224.952 321.016C225.391 321.409 225.965 321.61 226.549 321.574C226.891 321.585 227.232 321.521 227.547 321.385C227.862 321.249 228.144 321.045 228.373 320.787L228.825 321.312C228.541 321.642 228.188 321.903 227.791 322.076C227.394 322.249 226.965 322.329 226.533 322.312C226.124 322.337 225.713 322.275 225.329 322.131C224.944 321.986 224.593 321.762 224.298 321.472C224.004 321.182 223.772 320.833 223.617 320.447C223.463 320.061 223.389 319.646 223.401 319.23C223.382 318.832 223.442 318.434 223.58 318.06C223.717 317.687 223.929 317.346 224.201 317.059C224.473 316.772 224.801 316.544 225.163 316.39C225.525 316.237 225.915 316.16 226.307 316.165C226.7 316.155 227.091 316.228 227.455 316.381C227.819 316.533 228.147 316.76 228.419 317.049C228.691 317.338 228.901 317.681 229.035 318.056C229.169 318.432 229.224 318.832 229.197 319.23C229.197 319.23 229.181 319.394 229.181 319.476ZM224.209 318.869H228.422C228.376 318.334 228.134 317.836 227.744 317.474C227.354 317.111 226.844 316.91 226.315 316.91C225.786 316.91 225.277 317.111 224.887 317.474C224.497 317.836 224.255 318.334 224.209 318.869Z" fill="white"/>
<path d="M236.332 318.738V322.246H235.541V318.82C235.586 318.567 235.572 318.306 235.499 318.06C235.427 317.813 235.298 317.587 235.124 317.4C234.949 317.214 234.734 317.071 234.495 316.985C234.256 316.898 234.001 316.87 233.749 316.902C233.465 316.882 233.18 316.925 232.913 317.028C232.647 317.131 232.406 317.292 232.208 317.5C232.009 317.708 231.858 317.957 231.765 318.23C231.671 318.504 231.638 318.795 231.667 319.082V322.246H230.795V316.214H231.57V317.329C231.81 316.948 232.147 316.639 232.544 316.435C232.941 316.23 233.385 316.137 233.83 316.165C234.17 316.128 234.514 316.169 234.837 316.286C235.159 316.403 235.451 316.592 235.692 316.839C235.932 317.086 236.115 317.386 236.226 317.714C236.336 318.043 236.373 318.393 236.332 318.738Z" fill="white"/>
<path d="M243.968 313.723V322.246H243.193V321.049C242.957 321.449 242.619 321.776 242.216 321.998C241.813 322.22 241.359 322.328 240.901 322.312C240.136 322.255 239.421 321.906 238.899 321.336C238.377 320.766 238.087 320.017 238.087 319.238C238.087 318.46 238.377 317.71 238.899 317.14C239.421 316.57 240.136 316.222 240.901 316.165C241.347 316.149 241.79 316.251 242.186 316.46C242.582 316.67 242.918 316.981 243.161 317.361V313.723H243.968ZM243.177 319.23C243.158 318.791 243.012 318.366 242.758 318.01C242.504 317.654 242.152 317.382 241.747 317.227C241.341 317.072 240.9 317.041 240.477 317.139C240.055 317.236 239.67 317.457 239.37 317.775C239.071 318.092 238.869 318.492 238.792 318.925C238.714 319.358 238.763 319.804 238.933 320.209C239.103 320.614 239.386 320.959 239.747 321.201C240.108 321.444 240.532 321.574 240.965 321.574C241.265 321.579 241.563 321.521 241.84 321.404C242.117 321.286 242.367 321.112 242.575 320.892C242.783 320.672 242.943 320.411 243.047 320.125C243.15 319.839 243.195 319.534 243.177 319.23Z" fill="white"/>
<path d="M253.653 318.509V322.246H252.879V321.312C252.654 321.648 252.347 321.917 251.986 322.093C251.626 322.268 251.227 322.344 250.828 322.312C249.489 322.312 248.665 321.59 248.665 320.541C248.665 319.492 249.246 318.902 250.958 318.902H252.846V318.542C252.869 318.321 252.843 318.097 252.77 317.888C252.697 317.679 252.579 317.488 252.424 317.331C252.269 317.174 252.082 317.054 251.876 316.98C251.67 316.906 251.45 316.879 251.232 316.902C250.506 316.891 249.801 317.147 249.246 317.624L248.891 317.017C249.573 316.464 250.425 316.174 251.297 316.198C251.608 316.16 251.924 316.193 252.221 316.295C252.518 316.397 252.79 316.564 253.015 316.785C253.241 317.007 253.415 317.276 253.525 317.574C253.636 317.872 253.68 318.191 253.653 318.509ZM252.846 320.427V319.443H250.974C249.828 319.443 249.456 319.902 249.456 320.525C249.456 321.148 250.005 321.656 250.958 321.656C251.36 321.683 251.761 321.578 252.101 321.357C252.441 321.136 252.702 320.81 252.846 320.427Z" fill="white"/>
<path d="M261.354 316.214V321.443C261.417 321.854 261.384 322.274 261.257 322.669C261.13 323.064 260.913 323.424 260.624 323.718C260.334 324.012 259.98 324.232 259.591 324.361C259.202 324.49 258.788 324.523 258.383 324.459C257.38 324.499 256.395 324.173 255.607 323.541L256.01 322.918C256.672 323.461 257.5 323.751 258.351 323.738C259.868 323.738 260.546 323.049 260.546 321.558V320.787C260.291 321.165 259.945 321.47 259.541 321.673C259.137 321.877 258.689 321.973 258.238 321.951C257.841 321.981 257.443 321.928 257.068 321.794C256.692 321.661 256.348 321.45 256.057 321.176C255.765 320.901 255.533 320.568 255.374 320.198C255.215 319.828 255.133 319.429 255.133 319.025C255.133 318.621 255.215 318.222 255.374 317.852C255.533 317.482 255.765 317.149 256.057 316.874C256.348 316.6 256.692 316.389 257.068 316.256C257.443 316.122 257.841 316.069 258.238 316.099C258.697 316.077 259.153 316.175 259.563 316.385C259.973 316.595 260.323 316.908 260.579 317.296V316.148L261.354 316.214ZM260.579 319.082C260.595 318.625 260.476 318.174 260.238 317.786C259.999 317.398 259.652 317.091 259.241 316.905C258.83 316.718 258.373 316.661 257.929 316.74C257.486 316.819 257.076 317.031 256.751 317.349C256.427 317.666 256.204 318.075 256.11 318.522C256.016 318.969 256.056 319.435 256.224 319.859C256.393 320.283 256.682 320.646 257.055 320.902C257.428 321.158 257.868 321.295 258.319 321.295C258.613 321.314 258.908 321.269 259.185 321.166C259.462 321.062 259.715 320.901 259.928 320.693C260.14 320.485 260.308 320.234 260.42 319.957C260.532 319.68 260.586 319.382 260.579 319.082Z" fill="white"/>
<path d="M268.085 318.509V322.246H267.327V321.312C267.101 321.646 266.793 321.915 266.433 322.09C266.073 322.266 265.674 322.342 265.276 322.312C263.92 322.312 263.097 321.59 263.097 320.541C263.097 319.492 263.694 318.902 265.406 318.902H267.278V318.542C267.278 317.509 266.713 316.902 265.664 316.902C264.943 316.894 264.244 317.15 263.694 317.624L263.323 317.017C264.011 316.465 264.868 316.174 265.744 316.198C266.055 316.163 266.369 316.198 266.664 316.301C266.959 316.404 267.228 316.571 267.452 316.792C267.676 317.013 267.849 317.282 267.958 317.579C268.068 317.875 268.111 318.193 268.085 318.509ZM267.278 320.427V319.443H265.422C264.259 319.443 263.888 319.902 263.888 320.525C263.888 321.148 264.453 321.656 265.406 321.656C265.807 321.685 266.206 321.58 266.544 321.359C266.882 321.137 267.139 320.81 267.278 320.427Z" fill="white"/>
<path d="M270.087 314.296C270.11 314.155 270.182 314.026 270.29 313.933C270.398 313.84 270.535 313.789 270.676 313.789C270.817 313.789 270.954 313.84 271.062 313.933C271.17 314.026 271.242 314.155 271.265 314.296C271.242 314.438 271.17 314.567 271.062 314.66C270.954 314.752 270.817 314.803 270.676 314.803C270.535 314.803 270.398 314.752 270.29 314.66C270.182 314.567 270.11 314.438 270.087 314.296ZM270.264 316.214H271.072V322.246H270.264V316.214Z" fill="white"/>
<path d="M278.772 318.738V322.246H277.981V318.82C278.026 318.567 278.012 318.306 277.939 318.06C277.867 317.813 277.738 317.587 277.563 317.4C277.389 317.214 277.174 317.071 276.935 316.985C276.696 316.898 276.441 316.87 276.189 316.902C275.905 316.882 275.619 316.925 275.353 317.028C275.087 317.131 274.846 317.292 274.648 317.5C274.449 317.708 274.298 317.957 274.204 318.23C274.111 318.504 274.078 318.795 274.107 319.082V322.246H273.316V316.214H274.074V317.329C274.315 316.948 274.651 316.639 275.048 316.435C275.446 316.23 275.89 316.137 276.334 316.165C276.67 316.138 277.006 316.187 277.321 316.309C277.635 316.43 277.919 316.621 278.152 316.867C278.385 317.113 278.561 317.408 278.669 317.732C278.776 318.055 278.811 318.399 278.772 318.738Z" fill="white"/>
</g>
<path opacity="0.4" d="M292.881 363.224H202.916C199.361 363.22 195.953 361.783 193.441 359.229C190.928 356.675 189.517 353.213 189.517 349.603C189.517 345.994 190.928 342.531 193.441 339.977C195.953 337.423 199.361 335.986 202.916 335.982H292.881C296.439 335.982 299.851 337.417 302.366 339.972C304.882 342.526 306.296 345.991 306.296 349.603C306.296 353.216 304.882 356.68 302.366 359.235C299.851 361.789 296.439 363.224 292.881 363.224Z" fill="white"/>
<path d="M212.811 348.915C212.804 348.277 212.926 347.644 213.169 347.055C213.412 346.467 213.772 345.936 214.227 345.494C214.681 345.053 215.219 344.712 215.809 344.491C216.399 344.27 217.027 344.174 217.654 344.21C218.296 344.187 218.935 344.304 219.528 344.553C220.121 344.802 220.655 345.177 221.093 345.653L220.253 346.472C219.929 346.118 219.533 345.838 219.093 345.651C218.654 345.465 218.179 345.376 217.703 345.391C217.13 345.396 216.567 345.546 216.064 345.826C215.562 346.106 215.136 346.509 214.824 346.997C214.512 347.485 214.324 348.044 214.277 348.624C214.23 349.204 214.325 349.787 214.554 350.321C214.782 350.855 215.138 351.322 215.588 351.683C216.038 352.043 216.569 352.284 217.134 352.385C217.698 352.486 218.279 352.444 218.823 352.261C219.367 352.079 219.859 351.763 220.253 351.341L221.093 352.16C220.652 352.638 220.116 353.013 219.52 353.262C218.924 353.511 218.282 353.627 217.638 353.603C217.013 353.639 216.387 353.544 215.799 353.324C215.211 353.104 214.674 352.763 214.222 352.323C213.769 351.884 213.41 351.354 213.168 350.768C212.925 350.182 212.804 349.551 212.811 348.915Z" fill="white"/>
<path d="M221.965 348.915C221.92 347.934 222.165 346.961 222.669 346.123C223.173 345.285 223.912 344.619 224.792 344.211C225.672 343.804 226.652 343.673 227.606 343.836C228.56 343.999 229.444 344.448 230.144 345.126C230.844 345.804 231.328 346.679 231.534 347.638C231.74 348.598 231.658 349.598 231.299 350.51C230.94 351.422 230.321 352.204 229.52 352.755C228.72 353.307 227.775 353.602 226.808 353.603C226.182 353.636 225.556 353.54 224.969 353.319C224.381 353.098 223.844 352.758 223.391 352.319C222.937 351.88 222.577 351.352 222.332 350.766C222.087 350.181 221.962 349.551 221.965 348.915ZM230.278 348.915C230.288 348.205 230.089 347.509 229.708 346.915C229.326 346.32 228.779 345.855 228.136 345.577C227.493 345.3 226.783 345.223 226.097 345.356C225.411 345.49 224.779 345.828 224.283 346.327C223.786 346.827 223.448 347.465 223.31 348.16C223.172 348.856 223.241 349.577 223.508 350.233C223.776 350.888 224.229 351.448 224.811 351.841C225.393 352.234 226.077 352.442 226.775 352.439C227.237 352.455 227.697 352.375 228.127 352.204C228.556 352.032 228.947 351.774 229.275 351.444C229.603 351.114 229.862 350.719 230.034 350.285C230.206 349.85 230.29 349.384 230.278 348.915Z" fill="white"/>
<path d="M241.32 344.391V353.57H240.255L234.831 346.718V353.57H233.539V344.391H234.605L240.029 351.226V344.391H241.32Z" fill="white"/>
<path d="M245.824 345.456H242.725V344.391H250.167V345.522H247.099V353.57H245.824V345.456Z" fill="white"/>
<path d="M251.603 344.391H252.894V353.57H251.603V344.391Z" fill="white"/>
<path d="M263.387 344.391V353.57H262.322L256.898 346.718V353.57H255.607V344.391H256.624L262.048 351.226V344.391H263.387Z" fill="white"/>
<path d="M266.019 349.538V344.391H267.31V349.554C267.31 351.586 268.23 352.504 269.861 352.504C271.491 352.504 272.411 351.586 272.411 349.554V344.391H273.67V349.603C273.67 350.633 273.267 351.621 272.55 352.35C271.832 353.079 270.859 353.488 269.845 353.488C268.83 353.488 267.857 353.079 267.139 352.35C266.422 351.621 266.019 350.633 266.019 349.603V349.538Z" fill="white"/>
<path d="M282.872 352.357V353.504H276.318V344.391H282.775V345.522H277.609V348.341H282.129V349.456H277.609V352.422L282.872 352.357Z" fill="white"/>
<path opacity="0.1" d="M376.282 365.417C323.381 311.801 205.635 174.097 214.352 18.0681L376.282 18.0681V365.417Z" fill="white"/>
<path opacity="0.1" d="M278.747 404.562H122.564V171.117C154.107 180.067 197.306 197.966 228.171 232.683C283.703 295.134 283.541 367.616 278.747 404.562Z" fill="white"/>
<path d="M250 550C388.071 550 500 541.657 500 531.364C500 521.072 388.071 512.729 250 512.729C111.929 512.729 0 521.072 0 531.364C0 541.657 111.929 550 250 550Z" fill="#F5F5F5"/>
<path d="M433.471 181.428C443.185 188.15 454.051 193.032 465.527 195.829H465.641C464.782 195.804 463.936 196.043 463.217 196.513C462.508 196.955 461.942 197.594 461.59 198.351C461.471 198.584 461.404 198.839 461.394 199.1C461.655 195.683 460.174 191.843 459.132 188.149C457.261 182.307 455.064 176.319 452.868 170.445L459.149 167.076C464.34 175.033 481.669 200.223 469.839 207.513C467.811 208.695 465.415 209.078 463.119 208.587C450.229 206.677 437.936 201.882 427.158 194.56C426.409 194.039 425.758 193.584 424.88 192.933L433.504 181.396L433.471 181.428Z" fill="#DC897C"/>
<path d="M431.649 179.655C437.346 180.341 442.756 182.538 447.319 186.017L440.81 206.162C440.81 206.162 409.177 177.002 431.649 179.655Z" fill="#EA0029"/>
<path opacity="0.6" d="M431.584 196.594C434.479 199.91 437.542 203.076 440.761 206.08L443.446 197.798L447.319 185.936C442.76 182.459 437.356 180.263 431.665 179.573C417.834 178.027 424.44 188.376 431.584 196.594Z" fill="white"/>
<path opacity="0.2" d="M431.584 196.594C434.479 199.91 437.542 203.077 440.761 206.081L443.446 197.798C440.069 195.167 435.913 193.736 431.632 193.73C431.535 194.682 431.519 195.64 431.584 196.594Z" fill="black"/>
<path d="M361.337 149.86C361.337 149.86 346.204 200.174 378.081 206.927C409.958 213.68 413.408 190.524 413.408 190.524C413.408 190.524 387.21 150.886 361.337 149.86Z" fill="#263238"/>
<path d="M353.868 166.523C353.81 166.54 353.748 166.54 353.689 166.523C353.643 166.501 353.602 166.469 353.569 166.431C353.535 166.392 353.51 166.347 353.495 166.298C353.48 166.249 353.475 166.198 353.48 166.147C353.485 166.096 353.501 166.047 353.526 166.002C354.002 165.134 354.673 164.388 355.486 163.824C356.3 163.259 357.233 162.891 358.213 162.748C358.314 162.751 358.411 162.791 358.486 162.859C358.56 162.928 358.608 163.021 358.619 163.122C358.624 163.173 358.618 163.225 358.603 163.274C358.587 163.323 358.562 163.369 358.529 163.408C358.495 163.448 358.455 163.48 358.409 163.503C358.363 163.527 358.313 163.541 358.261 163.545C357.413 163.684 356.607 164.014 355.905 164.51C355.203 165.006 354.623 165.656 354.21 166.409C354.168 166.457 354.114 166.492 354.054 166.512C353.994 166.532 353.93 166.536 353.868 166.523Z" fill="#263238"/>
<path d="M358.424 172.772C358.22 174.733 357.777 176.662 357.106 178.516C357.61 178.817 358.187 178.975 358.774 178.975C359.361 178.975 359.938 178.817 360.442 178.516L358.424 172.772Z" fill="#DE5753"/>
<path d="M355.349 170.575C355.691 171.47 356.455 172.007 356.976 171.779C357.497 171.551 357.79 170.656 357.448 169.761C357.106 168.866 356.341 168.329 355.821 168.557C355.3 168.785 355.023 169.68 355.349 170.575Z" fill="#263238"/>
<path d="M356.081 168.508H353.852C353.852 168.508 355.446 169.745 356.081 168.508Z" fill="#263238"/>
<path d="M387.747 179.02C387.691 179.166 387.614 179.303 387.519 179.427C387.372 179.703 387.21 179.964 387.047 180.24C386.093 181.955 384.824 183.474 383.304 184.715C378.423 188.604 374.176 189.776 370.482 188.653L369.945 188.474C364.461 186.245 360.182 179.687 356.781 171.014C355.272 167.62 354.321 164.004 353.966 160.307C353.966 160.307 353.966 160.177 353.966 160.144C353.966 160.112 353.966 159.851 353.966 159.721C353.839 157.602 354.242 155.485 355.14 153.561C356.038 151.638 357.402 149.968 359.108 148.705C360.566 147.56 362.149 146.583 363.827 145.792C380.083 137.868 395.899 163.675 387.747 179.02Z" fill="#E4897B"/>
<path opacity="0.2" d="M387.047 180.24C386.093 181.955 384.823 183.474 383.304 184.715C378.422 188.604 374.175 189.776 370.482 188.653C374.074 187.783 377.308 185.821 379.741 183.039C380.68 182.067 381.82 181.312 383.083 180.829C384.345 180.345 385.698 180.144 387.047 180.24Z" fill="black"/>
<path d="M353.884 160.21C353.884 160.21 358.424 172.153 371.686 171.942C371.686 171.942 382.035 181.705 389.016 178.597C398.535 174.383 400.488 157.069 390.789 144.979C378.195 129.293 350.728 140.602 353.884 160.21Z" fill="#263238"/>
<path d="M364.591 171.258C363.745 169.452 363.761 165.758 366.739 164.847C369.717 163.936 374.875 170.266 368.464 175.212C367.553 175.928 366.349 175.001 364.591 171.258Z" fill="#E4897B"/>
<path d="M368.155 138.47C368.155 138.47 355.853 140.894 351.883 148.233C347.229 156.76 347.001 163.366 359.368 167.76C359.368 167.76 375.006 153.115 381.742 151.488C385.668 150.513 389.669 149.871 393.702 149.567C389.211 136.566 373.118 133.084 368.155 138.47Z" fill="#263238"/>
<path d="M380.082 185.024C380.082 185.024 388.544 190.882 390.741 200.548L417.118 185.155C417.118 185.155 396.468 180.452 392.921 172.462C392.921 172.462 379.122 174.171 380.082 185.024Z" fill="#E4897B"/>
<path d="M406.28 248.404C406.28 248.404 372.109 214.835 368.432 204.291C368.432 204.291 382.8 181.917 411.52 180.973C440.24 180.029 459.783 234.671 459.783 234.671L406.28 248.404Z" fill="#EA0029"/>
<path opacity="0.6" d="M459.783 234.687L406.297 248.421C406.297 248.421 398.844 241.082 390.513 232.148C387.942 229.366 385.257 226.437 382.67 223.541C375.884 215.844 369.896 208.326 368.448 204.242C368.448 204.242 382.8 181.868 411.52 180.924C440.24 179.98 459.783 234.687 459.783 234.687Z" fill="white"/>
<path d="M374.355 166.214C374.355 166.214 379.35 182.811 396.892 188.311C414.433 193.811 410.023 211.727 427.027 209.612C436.075 208.489 443.82 190.085 416.076 173.813C399.902 164.359 406.183 133.279 371.849 136.192C371.816 136.208 378.943 157.508 374.355 166.214Z" fill="#263238"/>
<path d="M391.392 501.403L383.256 499.548C384.476 458.868 390.35 409.677 395.541 372.723C396.355 366.93 397.168 361.463 397.917 356.354C398.291 353.929 398.633 351.602 398.975 349.357C400.602 338.275 402.099 329.521 402.994 324.102C403.661 320.148 404.035 317.984 404.035 317.984L433.325 325.127L431.226 332.515L424.31 356.923L423.529 359.706L418.94 375.799L411.162 403.185C411.651 444.532 391.392 501.403 391.392 501.403Z" fill="#E4897B"/>
<path d="M461.036 494.601L452.705 494.178C446.359 450.439 443.69 395.732 442.535 357.704C442.372 351.814 442.226 346.314 442.112 341.302C442.112 341.058 442.112 340.814 442.112 340.57C441.9 330.66 441.803 322.784 441.754 317.789C441.754 313.883 441.754 311.752 441.754 311.752L471.808 313.721L470.523 326.25L468.635 344.638L468.261 348.25L466.959 360.779L463.444 394.446C471.125 435.127 461.036 494.601 461.036 494.601Z" fill="#E4897B"/>
<path d="M464.16 492.974C464.16 491.933 451.306 492.746 451.306 492.746C451.306 492.746 443.414 500.768 435.749 502.51C428.085 504.251 432.381 508.921 440.94 508.921H462.094C468.212 508.986 464.405 503.795 464.16 492.974Z" fill="#263238"/>
<path d="M443.43 495.724C443.244 495.556 443.115 495.334 443.059 495.089C443.004 494.845 443.026 494.589 443.121 494.357C443.171 494.175 443.258 494.005 443.375 493.857C443.493 493.709 443.638 493.586 443.804 493.495C444.716 493.123 445.713 493.01 446.684 493.169C445.643 492.616 444.732 491.949 444.683 491.266C444.683 490.826 444.943 490.468 445.529 490.192C445.784 490.076 446.062 490.016 446.343 490.016C446.623 490.016 446.901 490.076 447.156 490.192C448.897 490.924 449.971 493.918 450.02 494.032C450.054 494.115 450.054 494.209 450.02 494.292V494.374C449.989 494.409 449.95 494.437 449.906 494.455C448.247 495.305 446.452 495.855 444.601 496.082C444.18 496.11 443.763 495.983 443.43 495.724ZM444.146 494.097C444.057 494.142 443.979 494.204 443.915 494.279C443.85 494.354 443.802 494.442 443.772 494.536C443.641 495.041 443.772 495.171 443.772 495.22C444.39 495.724 446.733 495.008 448.653 494.211C447.192 493.75 445.631 493.705 444.146 494.081V494.097ZM445.773 490.842C445.594 490.842 445.301 491.087 445.317 491.266C445.317 491.835 447.189 492.893 449.076 493.56C448.656 492.433 447.886 491.469 446.88 490.81C446.717 490.734 446.539 490.695 446.359 490.696C446.174 490.695 445.991 490.734 445.822 490.81L445.773 490.842Z" fill="#263238"/>
<path d="M395.508 492.974C395.508 491.933 382.67 492.746 382.67 492.746C382.67 492.746 374.778 500.768 367.113 502.51C359.449 504.251 363.729 508.921 372.288 508.921H393.442C399.576 508.986 395.785 503.795 395.508 492.974Z" fill="#263238"/>
<path d="M374.794 495.724C374.612 495.553 374.485 495.331 374.43 495.088C374.375 494.844 374.394 494.59 374.485 494.357C374.535 494.175 374.622 494.005 374.739 493.857C374.857 493.709 375.002 493.586 375.168 493.495C376.08 493.124 377.077 493.011 378.048 493.169C377.007 492.616 376.096 491.949 376.063 491.266C376.063 490.832 376.34 490.474 376.893 490.192C377.149 490.076 377.426 490.016 377.707 490.016C377.987 490.016 378.265 490.076 378.52 490.192C380.261 490.924 381.335 493.918 381.384 494.032C381.404 494.072 381.415 494.117 381.415 494.162C381.415 494.207 381.404 494.252 381.384 494.292C381.384 494.292 381.384 494.292 381.384 494.374L381.27 494.455C379.604 495.302 377.804 495.852 375.949 496.082C375.534 496.103 375.124 495.976 374.794 495.724ZM375.51 494.097C375.423 494.142 375.347 494.204 375.286 494.28C375.224 494.355 375.178 494.443 375.152 494.536C375.022 495.041 375.152 495.171 375.233 495.22C375.835 495.724 378.178 495.008 380.115 494.211C378.623 493.731 377.026 493.686 375.51 494.081V494.097ZM377.137 490.842C376.958 490.842 376.665 491.087 376.681 491.266C376.681 491.835 378.553 492.893 380.457 493.56C380.03 492.431 379.255 491.468 378.244 490.81C378.081 490.732 377.903 490.693 377.723 490.696C377.538 490.695 377.355 490.734 377.186 490.81L377.137 490.842Z" fill="#263238"/>
<path d="M399.349 330.22L406.28 281.404V248.372C424.554 234.638 459.783 234.638 459.783 234.638C459.783 234.638 486.844 272.178 473.696 333.898L439.72 338.78L437.555 327.259L433.292 338.78L399.349 330.22Z" fill="#263238"/>
<path opacity="0.2" d="M399.349 330.22L406.28 281.404V248.372C424.554 234.638 459.783 234.638 459.783 234.638C459.783 234.638 486.844 272.178 473.696 333.898L439.72 338.78L437.555 327.259L433.292 338.78L399.349 330.22Z" fill="white"/>
<path opacity="0.2" d="M437.555 327.438L444.064 307.114C444.064 307.114 450.931 305.031 459.75 291.395C459.783 291.395 458.253 314.599 437.555 327.438Z" fill="black"/>
<path opacity="0.2" d="M423.073 257.761L438.32 256.312C440.754 262.013 441.597 268.266 440.761 274.407L430.998 280.281L423.92 275.253C423.92 275.253 423.692 262.349 423.073 257.761Z" fill="black"/>
<path opacity="0.2" d="M459.783 254.034C461.829 259.063 463.34 264.294 464.291 269.639L469.693 271.934L472.606 268.305C472.606 268.305 470.637 257.679 467.301 252.472L459.783 254.034Z" fill="black"/>
<path d="M398.714 327.438L434.773 338.015L432.511 342.864L398.258 332.32L398.714 327.438Z" fill="#263238"/>
<path d="M438.32 337.315L438.922 341.774L474.282 337.315L474.819 331.701L438.32 337.315Z" fill="#263238"/>
<path d="M445.741 241.489C451.524 240.512 457.369 239.941 463.233 239.78L461.053 236.184C455.35 236.033 449.645 236.371 443.999 237.193L445.741 241.489Z" fill="#263238"/>
<path d="M413.31 245.915C408.64 247.932 405.955 249.446 405.955 249.446V253.888C408.58 252.564 411.211 251.355 413.847 250.259L413.31 245.915Z" fill="#263238"/>
<path d="M415.556 249.625C424.6 246.079 433.984 243.467 443.56 241.83L441.933 237.502C432.65 239.05 423.575 241.66 414.888 245.28L415.556 249.625Z" fill="#263238"/>
<path d="M317.793 262.333L308.55 258.623L306.923 267.345C306.923 267.345 315.254 272.389 318.737 266.385L317.793 262.333Z" fill="#E4897B"/>
<path d="M303.961 259.16L301 265.897L306.988 267.345L308.55 258.623L303.961 259.16Z" fill="#E4897B"/>
<path d="M459.637 168.59L458.547 158.696L450.118 161.43C450.118 161.43 449.597 171.193 456.545 171.388L459.637 168.59Z" fill="#E4897B"/>
<path d="M455.894 154.905L448.556 155.491L450.118 161.43L458.547 158.696L455.894 154.905Z" fill="#E4897B"/>
<path opacity="0.2" d="M390.513 232.197C387.942 229.415 385.257 226.486 382.67 223.589C381.677 217.536 381.042 212.199 381.042 212.199C384.142 214.498 386.627 217.526 388.279 221.013C389.931 224.501 390.698 228.342 390.513 232.197Z" fill="black"/>
<path d="M381.986 209.4C378.259 224.427 372.632 238.917 365.242 252.521C357.92 266.434 330.078 268.11 316.084 268.468L315.433 261.373C323.862 259.388 350.06 254.165 353.64 246.566C359.485 233.4 364.294 219.798 368.025 205.885L381.986 209.367V209.4Z" fill="#DC897C"/>
<path d="M374.013 197.131C366.056 202.338 361.793 215.876 360.442 222.499L376.975 234.671L385.322 226.535C388.707 207.854 377.04 195.162 374.013 197.131Z" fill="#EA0029"/>
<path opacity="0.6" d="M374.013 197.131C366.056 202.338 361.793 215.876 360.442 222.499L376.975 234.671L385.322 226.535C388.707 207.854 377.04 195.162 374.013 197.131Z" fill="white"/>
<path d="M454.723 171.763L442.909 173.032C442.742 173.037 442.577 173.007 442.422 172.944C442.268 172.882 442.128 172.788 442.012 172.669C441.896 172.549 441.806 172.407 441.747 172.251C441.689 172.095 441.663 171.929 441.672 171.763L440.956 146.752C440.934 146.399 441.04 146.049 441.255 145.768C441.471 145.487 441.781 145.293 442.128 145.223L453.925 143.97C454.092 143.963 454.259 143.991 454.415 144.052C454.57 144.114 454.711 144.208 454.828 144.328C454.944 144.448 455.034 144.591 455.092 144.748C455.15 144.905 455.173 145.072 455.162 145.239L455.878 170.249C455.901 170.599 455.796 170.944 455.584 171.223C455.371 171.501 455.065 171.693 454.723 171.763Z" fill="#263238"/>
<path opacity="0.6" d="M454.723 171.763L442.909 173.032C442.742 173.037 442.577 173.007 442.422 172.944C442.268 172.882 442.128 172.788 442.012 172.669C441.896 172.549 441.806 172.407 441.747 172.251C441.689 172.095 441.663 171.929 441.672 171.763L440.956 146.752C440.934 146.399 441.04 146.049 441.255 145.768C441.471 145.487 441.781 145.293 442.128 145.223L453.925 143.97C454.092 143.963 454.259 143.991 454.415 144.052C454.57 144.114 454.711 144.208 454.828 144.328C454.944 144.448 455.034 144.591 455.092 144.748C455.15 144.905 455.173 145.072 455.162 145.239L455.878 170.249C455.901 170.599 455.796 170.944 455.584 171.223C455.371 171.501 455.065 171.693 454.723 171.763Z" fill="white"/>
<path d="M453.681 171.877L441.884 173.13C441.717 173.139 441.55 173.113 441.394 173.053C441.237 172.994 441.095 172.902 440.977 172.784C440.859 172.665 440.767 172.523 440.707 172.367C440.648 172.211 440.622 172.044 440.631 171.877L439.931 146.85C439.901 146.499 440.003 146.15 440.217 145.87C440.43 145.59 440.74 145.4 441.087 145.337L452.884 144.084C453.05 144.077 453.215 144.104 453.369 144.165C453.524 144.226 453.663 144.318 453.78 144.436C453.896 144.554 453.987 144.695 454.046 144.85C454.104 145.006 454.13 145.171 454.121 145.337L454.837 170.363C454.867 170.714 454.765 171.063 454.551 171.343C454.338 171.623 454.028 171.813 453.681 171.877Z" fill="#263238"/>
<path opacity="0.7" d="M453.681 171.877L441.884 173.13C441.717 173.139 441.55 173.113 441.394 173.053C441.237 172.994 441.095 172.902 440.977 172.784C440.859 172.665 440.767 172.523 440.707 172.367C440.648 172.211 440.622 172.044 440.631 171.877L439.931 146.85C439.901 146.499 440.003 146.15 440.217 145.87C440.43 145.59 440.74 145.4 441.087 145.337L452.884 144.084C453.05 144.077 453.215 144.104 453.369 144.165C453.524 144.226 453.663 144.318 453.78 144.436C453.896 144.554 453.987 144.695 454.046 144.85C454.104 145.006 454.13 145.171 454.121 145.337L454.837 170.363C454.867 170.714 454.765 171.063 454.551 171.343C454.338 171.623 454.028 171.813 453.681 171.877Z" fill="white"/>
<path d="M452.9 144.572L449.808 144.897L449.418 145.857L444.634 146.362L444.195 145.499L441.103 145.825C440.879 145.872 440.68 145.998 440.542 146.181C440.404 146.363 440.338 146.59 440.354 146.818L441.054 171.828C441.047 171.936 441.063 172.045 441.101 172.147C441.14 172.249 441.199 172.342 441.276 172.419C441.353 172.496 441.446 172.556 441.548 172.594C441.65 172.632 441.759 172.649 441.868 172.641L453.665 171.388C453.887 171.345 454.086 171.222 454.224 171.042C454.362 170.862 454.43 170.638 454.413 170.412L453.714 145.386C453.718 145.278 453.7 145.17 453.661 145.069C453.622 144.968 453.562 144.877 453.486 144.8C453.409 144.724 453.318 144.664 453.217 144.625C453.116 144.585 453.008 144.567 452.9 144.572Z" fill="#EA0029"/>
<path opacity="0.8" d="M451.322 153.619L442.649 154.547C442.543 154.551 442.437 154.534 442.338 154.496C442.239 154.457 442.15 154.399 442.075 154.324C442 154.249 441.941 154.159 441.903 154.06C441.864 153.961 441.847 153.855 441.851 153.75V151.341C441.831 151.117 441.895 150.893 442.03 150.712C442.165 150.532 442.362 150.408 442.584 150.365L451.273 149.437C451.379 149.435 451.484 149.455 451.582 149.495C451.68 149.535 451.769 149.596 451.842 149.672C451.916 149.749 451.973 149.84 452.009 149.939C452.045 150.039 452.061 150.145 452.054 150.251L452.135 152.659C452.149 152.893 452.072 153.124 451.921 153.302C451.769 153.481 451.555 153.595 451.322 153.619Z" fill="white"/>
<path d="M309.858 58.7272V71.4545H311.929H314V58.7272V45.9999H311.929H309.858V58.7272Z" fill="white"/>
<path d="M277.756 56.909C277.756 69.7401 278.481 71.2466 285.005 71.8181L288.112 72.1298V70.3116C288.112 68.4934 288.06 68.4414 285.523 68.1298C282.261 67.7142 281.795 66.883 282.002 61.6882L282.157 57.6882L285.16 57.5323L288.112 57.3765V55.6103V53.7921H285.005H281.898V50.6752V47.5583H279.827H277.756V56.909Z" fill="white"/>
<path d="M203.353 49.1168C201.231 50.3635 200.609 51.6103 200.609 54.4674C200.609 56.0259 200.972 57.2207 201.697 58.1557C202.991 59.7661 203.043 59.6622 200.195 60.4934C197.761 61.1687 194.5 63.87 192.894 66.4674C191.393 68.8571 185.335 94.2597 186.06 94.987C186.63 95.5584 190.72 94.1038 199.522 90.0519C203.405 88.2857 203.768 88.2337 203.043 89.2727C197.813 97.2727 197.865 97.4285 205.528 97.4285C213.243 97.4285 213.243 97.3766 207.495 88.2337C206.822 87.1947 206.926 87.0908 209.515 85.896C215.003 83.3506 217.851 79.0908 217.903 73.2726C217.954 70.1558 217.747 69.2207 216.401 66.8311C215.573 65.3246 214.071 63.4544 213.036 62.7272C212.052 61.9999 211.016 61.2207 210.809 61.0129C210.55 60.857 212.052 60.2856 214.175 59.8181C219.042 58.6752 220.284 58.1557 220.284 57.2207C220.284 56.4934 212.414 50.4155 209.463 48.909C207.392 47.8181 205.373 47.87 203.353 49.1168ZM209.308 51.1947C210.861 52.6492 211.172 54.4155 210.24 56.2856C208.945 58.7272 206.356 59.2467 204.026 57.3765C202.991 56.5453 202.68 55.87 202.68 54.3116C202.68 50.7791 206.771 48.857 209.308 51.1947ZM215.417 55.5583C217.488 56.9609 217.333 57.1687 214.226 57.6882L212.052 58.0518L212.621 56.1817C212.932 55.1427 213.294 54.3116 213.398 54.3116C213.502 54.3116 214.434 54.883 215.417 55.5583ZM208.79 63.4025C213.139 65.2726 215.314 68.909 215.003 73.8441C214.848 76.4415 214.485 77.5843 213.294 79.3506C208.635 85.896 198.642 85.2727 195.017 78.2077C193.309 74.935 193.619 70.1558 195.742 67.1428C198.59 63.0908 204.182 61.5324 208.79 63.4025ZM195.432 82.883C196.726 84.1818 198.59 85.5324 199.574 85.8441L201.386 86.3636L197.244 88.3376C194.966 89.3766 192.066 90.7272 190.823 91.2467L188.597 92.2337L188.908 91.0909C189.063 90.4155 189.84 87.3506 190.616 84.2857C191.755 79.8181 192.17 78.8311 192.584 79.6103C192.894 80.1298 194.137 81.5843 195.432 82.883ZM207.547 92.8571L208.945 95.3506H205.476H202.059L202.784 94.1558C203.198 93.5324 203.975 92.2337 204.441 91.2467C205.476 89.3246 205.528 89.3766 207.547 92.8571Z" fill="white"/>
<path d="M224.426 59.7661V71.4545H226.756H229.086V67.87V64.3376L233.228 64.0259C240.322 63.4545 242.755 61.2207 242.445 55.5064C242.289 52.9609 241.979 51.9739 240.995 50.883C238.872 48.5973 236.905 48.0778 230.381 48.0778H224.426V59.7661ZM236.749 53.0648C237.578 53.6363 237.888 54.3635 237.888 55.7661C237.888 56.8051 237.681 57.948 237.474 58.3116C236.853 59.2986 234.368 60.0259 231.623 60.0259H229.086V56.1298V52.2337H232.348C234.419 52.2337 235.973 52.4934 236.749 53.0648Z" fill="white"/>
<path d="M248.606 53.9998C244.723 55.4544 242.548 58.5713 242.548 62.6232C242.548 70.2077 251.195 74.6233 257.564 70.2596C262.793 66.6752 262.275 57.2206 256.683 54.5713C254.095 53.3245 250.988 53.1167 248.606 53.9998ZM255.544 58.9349C257.926 61.3245 257.46 65.844 254.612 67.3505C250.936 69.3245 246.69 66.7791 246.69 62.5713C246.69 57.896 252.231 55.6102 255.544 58.9349Z" fill="white"/>
<path d="M265.485 54.0519C263.621 54.883 262.223 57.1688 262.223 59.5064C262.223 61.948 264.036 63.4025 267.919 64.0779C269.731 64.4415 271.595 65.0649 272.009 65.4805C272.786 66.2597 272.734 66.4155 271.595 67.3506C270.042 68.6493 268.178 68.5973 266.883 67.2986C266.21 66.6233 265.175 66.2597 263.777 66.2597H261.706L262.379 67.922C263.363 70.3116 265.951 71.7142 269.576 71.7142C274.236 71.7142 277.187 68.7532 276.462 64.909C276.048 62.6753 274.029 61.2727 270.456 60.8051C267.246 60.3376 265.9 59.4025 266.676 58.1038C267.142 57.3765 268.074 57.1168 271.233 57.0129L275.168 56.8571V55.0908V53.2726H271.181C268.903 53.3246 266.417 53.6363 265.485 54.0519Z" fill="white"/>
<path d="M295.205 53.9999C292.616 54.9869 291.27 56.1817 290.131 58.7271C288.837 61.5323 288.888 64.4934 290.338 67.2986C292.875 72.4414 300.383 73.5324 303.334 69.2726C304.163 68.1297 304.163 68.1297 304.163 69.7921C304.163 71.3505 304.266 71.4544 305.975 71.4544H307.787V65.6882C307.787 58.9869 307.114 57.0128 304.163 55.0388C301.781 53.4284 297.898 53.0128 295.205 53.9999ZM302.247 58.883C303.334 59.9739 303.645 60.857 303.645 62.5193C303.645 65.3765 302.454 67.1427 300.176 67.7661C295.723 69.0129 292.047 64.8051 293.807 60.4934C294.687 58.3635 296.241 57.4284 298.726 57.4284C300.383 57.4284 301.159 57.7401 302.247 58.883Z" fill="white"/>
<path d="M224.426 85.7402V97.4285H226.756H229.086V92.4935V87.5064L234.678 87.6623L240.218 87.8181L240.374 92.5974L240.529 97.4285H242.548H244.619V85.7402V74.0519H242.548H240.477V78.7272V83.4025H234.782H229.086V78.7272V74.0519H226.756H224.426V85.7402Z" fill="white"/>
<path d="M259.296 81.2917C259.245 89.1878 258.779 92.2527 257.432 93.2397C256.086 94.2268 252.876 94.0709 251.478 92.9281C250.339 91.993 250.235 91.5255 250.08 85.9151L249.873 79.8891H247.802H245.731L245.938 86.3306C246.093 91.8891 246.249 92.98 247.181 94.2268C248.941 96.6164 250.65 97.6034 253.653 97.8631C255.983 98.1229 256.863 97.9151 258.934 96.8761C261.471 95.5774 261.471 95.5774 263.128 96.5644C266.649 98.6423 271.464 98.3307 274.622 95.8891C276.434 94.4345 277.936 91.1099 277.936 88.4086C277.936 81.7592 270.48 77.1358 265.302 80.6683L263.438 81.915V78.0709V74.1748H261.367H259.296V81.2917ZM271.878 84.5644C274.363 86.5384 274.156 91.3177 271.516 93.1358C269.703 94.4345 266.39 94.1229 264.785 92.5644C262.921 90.6423 262.869 86.9021 264.733 84.8761C266.338 83.1099 269.859 82.954 271.878 84.5644Z" fill="white"/>
</svg>
