<svg width="788" height="595" viewBox="0 0 788 595" fill="none" xmlns="http://www.w3.org/2000/svg">
<path d="M787.468 524.067H0.467773V524.459H787.468V524.067Z" fill="#EBEBEB"/>
<path d="M699.151 546.693H604.884V547.086H699.151V546.693Z" fill="#EBEBEB"/>
<path d="M533.897 538.198H451.151V538.591H533.897V538.198Z" fill="#EBEBEB"/>
<path d="M596.369 546.505H570.634V546.897H596.369V546.505Z" fill="#EBEBEB"/>
<path d="M165.392 538.01H88.7852V538.403H165.392V538.01Z" fill="#EBEBEB"/>
<path d="M188.797 538.01H172.38V538.403H188.797V538.01Z" fill="#EBEBEB"/>
<path d="M318.935 541.386H265.97V541.779H318.935V541.386Z" fill="#EBEBEB"/>
<path d="M373.506 454.035H69.5822C67.2012 454.031 64.9193 453.084 63.2372 451.403C61.5551 449.722 60.6103 447.444 60.6104 445.069V18.865C60.6311 16.5034 61.585 14.2454 63.2648 12.5813C64.9447 10.9172 67.2148 9.98158 69.5822 9.97754H373.506C375.889 9.97754 378.175 10.9222 379.861 12.6036C381.546 14.285 382.493 16.5656 382.493 18.9435V445.069C382.493 447.447 381.546 449.727 379.861 451.409C378.175 453.09 375.889 454.035 373.506 454.035ZM69.5822 10.2916C67.3056 10.2957 65.1237 11.2008 63.5154 12.8082C61.9071 14.4156 61.0038 16.5939 61.0039 18.865V445.069C61.0038 447.34 61.9071 449.518 63.5154 451.126C65.1237 452.733 67.3056 453.638 69.5822 453.642H373.506C375.784 453.638 377.967 452.734 379.578 451.127C381.189 449.52 382.096 447.341 382.1 445.069V18.865C382.096 16.5924 381.189 14.4142 379.578 12.8073C377.967 11.2003 375.784 10.2957 373.506 10.2916H69.5822Z" fill="#EBEBEB"/>
<path d="M713.978 454.035H410.038C407.656 454.031 405.372 453.085 403.688 451.404C402.003 449.724 401.055 447.446 401.051 445.069V18.865C401.076 16.502 402.033 14.2439 403.715 12.5803C405.398 10.9167 407.669 9.98154 410.038 9.97754H713.978C716.342 9.98571 718.608 10.9232 720.285 12.5868C721.961 14.2504 722.913 16.5061 722.934 18.865V445.069C722.934 447.441 721.991 449.717 720.313 451.398C718.634 453.078 716.356 454.027 713.978 454.035ZM410.038 10.2916C407.76 10.2957 405.577 11.2003 403.966 12.8073C402.355 14.4142 401.448 16.5924 401.444 18.865V445.069C401.448 447.341 402.355 449.52 403.966 451.127C405.577 452.734 407.76 453.638 410.038 453.642H713.978C716.256 453.638 718.439 452.734 720.05 451.127C721.661 449.52 722.568 447.341 722.572 445.069V18.865C722.568 16.5924 721.661 14.4142 720.05 12.8073C718.439 11.2003 716.256 10.2957 713.978 10.2916H410.038Z" fill="#EBEBEB"/>
<path d="M668.348 77.387H499.646V337.54H668.348V77.387Z" fill="#E6E6E6"/>
<path d="M676.69 77.387H503.55V337.54H676.69V77.387Z" fill="#F0F0F0"/>
<path d="M668.348 337.54H499.646V344.135H672.251L668.348 337.54Z" fill="#E6E6E6"/>
<path d="M690.588 337.54H517.448L520.281 344.135H693.075L690.588 337.54Z" fill="#F0F0F0"/>
<path d="M665.011 325.889V89.038L515.229 89.038V325.889H665.011Z" fill="#FAFAFA"/>
<path d="M533.66 325.889L582.407 89.038H614.768L566.022 325.889H533.66Z" fill="white"/>
<path d="M572.979 325.889L621.71 89.038H634.333L585.586 325.889H572.979Z" fill="white"/>
<path d="M665.011 325.889V89.038H663.531V325.889H665.011Z" fill="#E6E6E6"/>
<path d="M482.757 493.369H54.5977V524.067H482.757V493.369Z" fill="#E0E0E0"/>
<path d="M482.757 425.802H54.5977V493.369H482.757V425.802Z" fill="#F5F5F5"/>
<path d="M411.093 86.5099H54.582V425.802H482.757L411.093 86.5099Z" fill="#F5F5F5"/>
<path d="M394.078 438.521H143.261V461.54H394.078V438.521Z" fill="white"/>
<path d="M485.795 420.95H51.5596V430.639H485.795V420.95Z" fill="#E0E0E0"/>
<path d="M480.727 476.693H56.6284C53.0469 476.693 50.1436 479.59 50.1436 483.162V503.575C50.1436 507.148 53.0469 510.045 56.6284 510.045H480.727C484.309 510.045 487.212 507.148 487.212 503.575V483.162C487.212 479.59 484.309 476.693 480.727 476.693Z" fill="#EBEBEB"/>
<path d="M412.006 57.4295H54.8965C53.0535 57.4295 51.5596 58.9199 51.5596 60.7584V88.6297C51.5596 90.4682 53.0535 91.9586 54.8965 91.9586H412.006C413.848 91.9586 415.342 90.4682 415.342 88.6297V60.7584C415.342 58.9199 413.848 57.4295 412.006 57.4295Z" fill="#E0E0E0"/>
<path d="M403.365 102.872H65.5215V194.164H422.646L403.365 102.872Z" fill="#E0E0E0"/>
<path d="M425.59 208.092H65.5215V299.384H444.871L425.59 208.092Z" fill="#E0E0E0"/>
<path d="M447.83 313.312H65.5215V404.589H467.096L447.83 313.312Z" fill="#E0E0E0"/>
<path d="M134.777 134.197H104.902V194.148H134.777V134.197Z" fill="#FAFAFA"/>
<path d="M92.2946 194.164H104.902L104.902 134.213H92.2946V194.164Z" fill="#F0F0F0"/>
<path d="M165.344 265.797H126.167V299.369H165.344V265.797Z" fill="#FAFAFA"/>
<path d="M109.624 299.384H126.167V265.813H109.624V299.384Z" fill="#F0F0F0"/>
<path d="M228.635 265.797H189.458V299.369H228.635V265.797Z" fill="#FAFAFA"/>
<path d="M172.931 299.384H189.474V265.813H172.931V299.384Z" fill="#F0F0F0"/>
<path d="M197.69 232.226H158.513V265.797H197.69V232.226Z" fill="#FAFAFA"/>
<path d="M141.97 265.813H158.513V232.242H141.97V265.813Z" fill="#F0F0F0"/>
<path d="M312.765 265.797H273.588V299.369H312.765V265.797Z" fill="#FAFAFA"/>
<path d="M257.045 299.384H273.588V265.813H257.045V299.384Z" fill="#F0F0F0"/>
<path d="M376.056 265.797H336.879V299.369H376.056V265.797Z" fill="#FAFAFA"/>
<path d="M320.352 299.384H336.895V265.813H320.352V299.384Z" fill="#F0F0F0"/>
<path d="M345.11 232.226H305.934V265.797H345.11V232.226Z" fill="#FAFAFA"/>
<path d="M289.391 265.813H305.934V232.242H289.391V265.813Z" fill="#F0F0F0"/>
<path d="M184.957 144.153H155.082V194.164H184.957V144.153Z" fill="#FAFAFA"/>
<path d="M142.474 194.148H155.082V144.137H142.474V194.148Z" fill="#F0F0F0"/>
<path d="M235.151 134.197H205.276V194.148H235.151V134.197Z" fill="#FAFAFA"/>
<path d="M192.669 194.164H205.276V134.213H192.669V194.164Z" fill="#F0F0F0"/>
<path d="M285.331 144.153H255.456V194.164H285.331V144.153Z" fill="#FAFAFA"/>
<path d="M242.848 194.148H255.456V144.137H242.848V194.148Z" fill="#F0F0F0"/>
<path d="M335.525 134.197H305.65V194.148H335.525V134.197Z" fill="#FAFAFA"/>
<path d="M293.043 194.164H305.65V134.213H293.043V194.164Z" fill="#F0F0F0"/>
<path d="M385.705 144.153H355.83V194.164H385.705V144.153Z" fill="#FAFAFA"/>
<path d="M343.222 194.148H355.83V144.137H343.222V194.148Z" fill="#F0F0F0"/>
<path d="M152.611 395.136C151.446 386.013 149.463 372.368 147.605 363.732C145.481 354.42 139.735 341.278 130.937 337.525V334.086C130.937 333.781 130.816 333.487 130.601 333.27C130.386 333.052 130.094 332.928 129.788 332.924H122.296C121.988 332.928 121.694 333.052 121.476 333.269C121.259 333.486 121.135 333.779 121.131 334.086V337.431C119.409 338.09 117.784 338.977 116.299 340.069C101.566 350.652 110.601 364.642 114.725 374.017C111.797 380.376 111.01 389.342 110.884 395.905C110.859 397.027 111.058 398.143 111.471 399.186C111.883 400.23 112.501 401.182 113.286 401.984C114.072 402.787 115.011 403.426 116.047 403.862C117.083 404.298 118.196 404.524 119.321 404.526H144.237C145.427 404.525 146.603 404.273 147.688 403.787C148.773 403.3 149.743 402.59 150.534 401.704C151.325 400.817 151.919 399.773 152.277 398.641C152.634 397.51 152.748 396.315 152.611 395.136ZM121.886 372.698C121.152 372.96 120.343 372.92 119.637 372.587C118.932 372.255 118.388 371.656 118.124 370.923L112.789 356.116C112.525 355.385 112.563 354.58 112.893 353.876C113.223 353.173 113.82 352.629 114.551 352.363C114.875 352.246 115.215 352.182 115.559 352.175C116.164 352.182 116.753 352.374 117.245 352.725C117.738 353.076 118.11 353.569 118.313 354.138L123.649 368.945C123.913 369.676 123.875 370.481 123.545 371.184C123.214 371.888 122.618 372.432 121.886 372.698Z" fill="#FAFAFA"/>
<path d="M130.716 330.804H121.382C120.678 330.804 120.107 331.374 120.107 332.076V335.295C120.107 335.997 120.678 336.567 121.382 336.567H130.716C131.42 336.567 131.991 335.997 131.991 335.295V332.076C131.991 331.374 131.42 330.804 130.716 330.804Z" fill="#F0F0F0"/>
<path d="M206.662 395.136C205.497 386.013 203.608 372.368 201.657 363.732C199.548 354.42 193.787 341.278 185.004 337.525V334.086C185 333.779 184.876 333.486 184.658 333.269C184.441 333.052 184.147 332.928 183.839 332.924H176.284C175.978 332.928 175.685 333.052 175.47 333.27C175.255 333.487 175.135 333.781 175.135 334.086V337.431C173.408 338.09 171.777 338.977 170.287 340.069C155.554 350.652 164.589 364.642 168.713 374.017C165.785 380.376 165.014 389.342 164.888 395.905C164.861 397.028 165.059 398.144 165.471 399.189C165.882 400.234 166.499 401.186 167.286 401.989C168.072 402.792 169.011 403.431 170.048 403.866C171.085 404.302 172.199 404.526 173.325 404.526H198.304C199.492 404.523 200.667 404.269 201.75 403.782C202.834 403.295 203.801 402.584 204.591 401.698C205.38 400.811 205.972 399.769 206.329 398.638C206.686 397.507 206.799 396.314 206.662 395.136ZM175.875 372.698C175.14 372.96 174.331 372.92 173.625 372.587C172.92 372.255 172.376 371.656 172.113 370.923L166.777 356.116C166.514 355.383 166.554 354.576 166.887 353.872C167.221 353.169 167.821 352.626 168.555 352.363C168.874 352.248 169.209 352.184 169.547 352.175C170.154 352.181 170.745 352.372 171.241 352.723C171.736 353.074 172.112 353.567 172.317 354.138L177.653 368.945C177.912 369.678 177.87 370.483 177.537 371.186C177.204 371.888 176.607 372.432 175.875 372.698Z" fill="#FAFAFA"/>
<path d="M184.704 330.804H175.371C174.667 330.804 174.096 331.374 174.096 332.076V335.295C174.096 335.997 174.667 336.567 175.371 336.567H184.704C185.409 336.567 185.979 335.997 185.979 335.295V332.076C185.979 331.374 185.409 330.804 184.704 330.804Z" fill="#F0F0F0"/>
<path d="M260.603 395.136C259.438 386.013 257.455 372.368 255.597 363.732C253.472 354.42 247.727 341.278 238.929 337.525V334.086C238.929 333.778 238.806 333.482 238.588 333.264C238.369 333.046 238.073 332.924 237.764 332.924H230.272C229.963 332.924 229.667 333.046 229.448 333.264C229.23 333.482 229.107 333.778 229.107 334.086V337.431C227.384 338.087 225.758 338.974 224.275 340.069C209.542 350.652 218.561 364.642 222.606 374.017C219.694 380.376 218.907 389.342 218.782 395.905C218.756 397.027 218.956 398.143 219.368 399.186C219.781 400.23 220.398 401.182 221.184 401.984C221.97 402.787 222.908 403.426 223.944 403.862C224.98 404.298 226.093 404.524 227.218 404.526H252.308C253.49 404.512 254.656 404.25 255.731 403.758C256.805 403.266 257.765 402.554 258.546 401.669C259.328 400.785 259.915 399.746 260.269 398.62C260.624 397.495 260.737 396.308 260.603 395.136ZM229.862 372.698C229.128 372.96 228.319 372.92 227.613 372.587C226.908 372.255 226.364 371.656 226.101 370.923L220.828 356.132C220.569 355.399 220.611 354.593 220.944 353.891C221.277 353.188 221.874 352.645 222.606 352.379C222.925 352.263 223.259 352.2 223.598 352.191C224.206 352.194 224.798 352.385 225.294 352.736C225.789 353.087 226.165 353.582 226.368 354.153L231.704 368.96C231.83 369.326 231.883 369.714 231.858 370.1C231.834 370.486 231.733 370.864 231.562 371.211C231.391 371.558 231.153 371.868 230.861 372.124C230.569 372.379 230.23 372.574 229.862 372.698Z" fill="#FAFAFA"/>
<path d="M238.693 330.804H229.359C228.655 330.804 228.084 331.374 228.084 332.076V335.295C228.084 335.997 228.655 336.567 229.359 336.567H238.693C239.397 336.567 239.968 335.997 239.968 335.295V332.076C239.968 331.374 239.397 330.804 238.693 330.804Z" fill="#F0F0F0"/>
<path d="M314.591 395.136C313.426 386.013 311.522 372.368 309.586 363.732C307.461 354.42 301.716 341.278 292.917 337.525V334.086C292.917 333.781 292.796 333.487 292.581 333.27C292.366 333.052 292.074 332.928 291.768 332.924H284.276C283.968 332.928 283.674 333.052 283.457 333.269C283.239 333.486 283.115 333.779 283.111 334.086V337.431C281.389 338.09 279.764 338.977 278.279 340.069C263.546 350.652 272.581 364.642 276.626 374.017C273.698 380.376 272.911 389.342 272.785 395.905C272.76 397.027 272.96 398.143 273.372 399.186C273.785 400.23 274.402 401.182 275.188 401.984C275.974 402.787 276.912 403.426 277.948 403.862C278.984 404.298 280.097 404.524 281.222 404.526H306.217C307.407 404.525 308.583 404.273 309.668 403.787C310.754 403.3 311.723 402.59 312.514 401.704C313.305 400.817 313.899 399.773 314.257 398.641C314.615 397.51 314.729 396.315 314.591 395.136ZM283.866 372.698C283.132 372.96 282.323 372.92 281.617 372.587C280.912 372.255 280.368 371.656 280.105 370.923L274.769 356.116C274.505 355.385 274.543 354.58 274.873 353.876C275.204 353.173 275.8 352.629 276.532 352.363C276.855 352.248 277.195 352.184 277.539 352.175C278.144 352.182 278.733 352.374 279.225 352.725C279.718 353.076 280.091 353.569 280.293 354.138L285.629 368.945C285.893 369.676 285.855 370.481 285.525 371.184C285.194 371.888 284.598 372.432 283.866 372.698Z" fill="#FAFAFA"/>
<path d="M292.697 330.804H283.363C282.659 330.804 282.088 331.374 282.088 332.076V335.295C282.088 335.997 282.659 336.567 283.363 336.567H292.697C293.401 336.567 293.972 335.997 293.972 335.295V332.076C293.972 331.374 293.401 330.804 292.697 330.804Z" fill="#F0F0F0"/>
<path d="M368.579 395.136C367.414 386.013 365.526 372.368 363.574 363.732C361.465 354.42 355.704 341.278 346.921 337.525V334.086C346.921 333.933 346.891 333.782 346.832 333.641C346.774 333.5 346.688 333.372 346.58 333.264C346.472 333.156 346.343 333.071 346.202 333.012C346.061 332.954 345.909 332.924 345.756 332.924H338.28C337.971 332.924 337.674 333.046 337.456 333.264C337.238 333.482 337.115 333.778 337.115 334.086V337.431C335.388 338.09 333.757 338.977 332.267 340.069C317.534 350.652 326.569 364.642 330.614 374.017C327.687 380.376 326.915 389.342 326.789 395.905C326.762 397.028 326.96 398.144 327.372 399.189C327.784 400.234 328.401 401.186 329.187 401.989C329.973 402.792 330.912 403.431 331.95 403.866C332.987 404.302 334.101 404.526 335.226 404.526H360.206C361.395 404.525 362.571 404.273 363.657 403.787C364.742 403.3 365.712 402.59 366.502 401.704C367.293 400.817 367.887 399.773 368.245 398.641C368.603 397.51 368.717 396.315 368.579 395.136ZM337.855 372.698C337.12 372.96 336.311 372.92 335.606 372.587C334.9 372.255 334.356 371.656 334.093 370.923L328.757 356.116C328.494 355.383 328.534 354.576 328.868 353.872C329.201 353.169 329.801 352.626 330.536 352.363C330.854 352.248 331.189 352.184 331.527 352.175C332.135 352.181 332.726 352.372 333.221 352.723C333.716 353.074 334.092 353.567 334.297 354.138L339.633 368.945C339.896 369.678 339.856 370.485 339.523 371.188C339.189 371.892 338.589 372.435 337.855 372.698Z" fill="#FAFAFA"/>
<path d="M346.685 330.804H337.351C336.647 330.804 336.076 331.374 336.076 332.076V335.295C336.076 335.997 336.647 336.567 337.351 336.567H346.685C347.389 336.567 347.96 335.997 347.96 335.295V332.076C347.96 331.374 347.389 330.804 346.685 330.804Z" fill="#F0F0F0"/>
<path d="M422.583 395.136C421.418 386.013 419.514 372.368 417.578 363.732C415.453 354.42 409.708 341.278 400.909 337.525V334.086C400.909 333.778 400.786 333.482 400.568 333.264C400.349 333.046 400.053 332.924 399.744 332.924H392.268C391.959 332.924 391.663 333.046 391.444 333.264C391.226 333.482 391.103 333.778 391.103 334.086V337.431C389.38 338.087 387.754 338.974 386.271 340.069C371.538 350.652 380.557 364.642 384.602 374.017C381.691 380.376 380.904 389.342 380.778 395.905C380.752 397.027 380.952 398.143 381.365 399.186C381.777 400.23 382.394 401.182 383.18 401.984C383.966 402.787 384.904 403.426 385.94 403.862C386.976 404.298 388.09 404.524 389.214 404.526H414.209C415.398 404.523 416.573 404.269 417.657 403.782C418.741 403.295 419.71 402.585 420.5 401.698C421.291 400.812 421.885 399.77 422.244 398.639C422.602 397.508 422.718 396.314 422.583 395.136ZM391.843 372.698C391.108 372.96 390.299 372.92 389.594 372.587C388.888 372.255 388.344 371.656 388.081 370.923L382.745 356.116C382.487 355.383 382.529 354.578 382.862 353.875C383.195 353.173 383.792 352.629 384.524 352.363C384.842 352.248 385.177 352.184 385.515 352.175C386.123 352.179 386.715 352.369 387.211 352.72C387.707 353.071 388.082 353.566 388.286 354.138L393.621 368.945C393.884 369.678 393.844 370.485 393.511 371.188C393.177 371.892 392.577 372.435 391.843 372.698Z" fill="#FAFAFA"/>
<path d="M400.673 330.804H391.339C390.635 330.804 390.064 331.374 390.064 332.076V335.295C390.064 335.997 390.635 336.567 391.339 336.567H400.673C401.377 336.567 401.948 335.997 401.948 335.295V332.076C401.948 331.374 401.377 330.804 400.673 330.804Z" fill="#F0F0F0"/>
<path d="M393.968 594.978C562.516 594.978 699.151 587.019 699.151 577.203C699.151 567.386 562.516 559.428 393.968 559.428C225.42 559.428 88.7852 567.386 88.7852 577.203C88.7852 587.019 225.42 594.978 393.968 594.978Z" fill="#F5F5F5"/>
<path d="M533.66 84.2275C533.683 68.6519 529.354 53.3781 521.159 40.1203C512.964 26.8624 501.228 16.1452 487.267 9.17119C473.306 2.19719 457.674 -0.757563 442.123 0.638499C426.573 2.03456 411.72 7.7262 399.232 17.0747C386.744 26.4232 377.114 39.0586 371.424 53.563C365.733 68.0674 364.207 83.8668 367.017 99.1882C369.827 114.51 376.861 128.747 387.33 140.302C397.8 151.857 411.29 160.273 426.287 164.605L449.653 187.915L472.995 164.605C490.463 159.56 505.82 148.999 516.759 134.505C527.698 120.012 533.628 102.37 533.66 84.2275Z" fill="#FF0000"/>
<path opacity="0.2" d="M453.025 82.2075C447.623 77.2384 440.51 74.5365 433.164 74.6634C425.817 74.7903 418.802 77.7362 413.576 82.8889C408.35 88.0416 405.315 95.0049 405.102 102.332C404.889 109.659 407.514 116.786 412.432 122.232C409.655 119.605 407.435 116.448 405.906 112.948C404.377 109.448 403.568 105.677 403.529 101.859C403.489 98.0411 404.22 94.2544 405.676 90.7238C407.133 87.1931 409.287 83.9907 412.009 81.3068C414.731 78.6229 417.966 76.5123 421.522 75.1005C425.078 73.6887 428.882 73.0045 432.708 73.0885C436.534 73.1725 440.305 74.0231 443.795 75.5896C447.285 77.1562 450.424 79.4067 453.025 82.2075Z" fill="#FF0000"/>
<path d="M305.289 151.595C309.224 134.402 300.662 124.729 287.535 119.218C274.407 113.706 247.933 116.077 250.341 139.175C250.69 143.179 251.756 147.088 253.489 150.716C247.366 159.541 248.767 173.06 260.619 175.84C274.014 178.98 304.534 174.976 313.631 169.936C307.65 171.066 302.173 165.225 305.289 151.595Z" fill="#263238"/>
<path d="M314.025 168.569C312.267 168.569 310.576 167.895 309.303 166.685C307.445 164.942 304.581 160.514 306.296 150.245C308.846 135.108 302.487 125.122 286.826 119.532C286.78 119.511 286.743 119.474 286.722 119.427C286.702 119.381 286.7 119.328 286.716 119.28C286.723 119.255 286.735 119.231 286.752 119.21C286.769 119.19 286.79 119.173 286.813 119.161C286.837 119.15 286.863 119.143 286.89 119.142C286.916 119.141 286.943 119.145 286.968 119.155C302.818 124.76 309.271 134.951 306.69 150.308C304.99 160.389 307.76 164.722 309.57 166.387C310.381 167.159 311.378 167.708 312.464 167.984C313.551 168.259 314.69 168.249 315.772 167.957C315.824 167.948 315.878 167.959 315.922 167.988C315.966 168.017 315.996 168.063 316.008 168.114C316.015 168.139 316.017 168.165 316.013 168.19C316.01 168.216 316.001 168.24 315.988 168.262C315.975 168.285 315.957 168.304 315.936 168.319C315.915 168.334 315.891 168.344 315.866 168.35C315.263 168.493 314.645 168.566 314.025 168.569Z" fill="#263238"/>
<path d="M258.715 174.85C256.515 174.613 254.438 173.721 252.754 172.29C251.069 170.859 249.856 168.955 249.271 166.827C248.34 163.949 248.251 160.866 249.015 157.94C249.779 155.014 251.364 152.367 253.584 150.308C253.602 150.291 253.624 150.279 253.648 150.271C253.671 150.262 253.696 150.259 253.721 150.26C253.746 150.262 253.77 150.268 253.792 150.279C253.815 150.29 253.835 150.305 253.851 150.324C253.868 150.342 253.881 150.364 253.889 150.387C253.897 150.411 253.9 150.435 253.899 150.46C253.897 150.485 253.891 150.509 253.88 150.532C253.869 150.554 253.854 150.574 253.836 150.59C251.676 152.602 250.135 155.185 249.393 158.038C248.652 160.891 248.74 163.896 249.649 166.701C250.199 168.756 251.359 170.596 252.977 171.981C254.595 173.365 256.596 174.229 258.715 174.458C258.765 174.469 258.81 174.497 258.841 174.537C258.873 174.577 258.889 174.627 258.888 174.678C258.882 174.721 258.862 174.762 258.83 174.793C258.799 174.824 258.759 174.844 258.715 174.85Z" fill="#263238"/>
<path d="M318.574 208.217C318.921 211.97 319.377 216.069 319.944 219.978C320.51 223.888 321.077 227.829 321.864 231.786C323.298 239.533 325.302 247.164 327.861 254.617L328.9 257.318L329.372 258.559C329.372 258.559 329.372 258.559 329.246 258.559C328.94 258.257 328.54 258.069 328.113 258.025C327.877 258.025 328.191 258.135 328.695 258.025C330.148 257.635 331.541 257.049 332.835 256.282C334.463 255.364 336.039 254.357 337.557 253.267C340.705 251.022 343.853 248.556 346.859 245.871C349.865 243.186 352.95 240.47 355.862 237.738L361.088 242.15C356.172 249.172 350.533 255.661 344.262 261.511C342.551 263.031 340.754 264.452 338.879 265.766C336.742 267.309 334.386 268.526 331.89 269.377C330.101 269.963 328.206 270.161 326.334 269.958C323.831 269.644 321.53 268.426 319.865 266.535C319.165 265.731 318.572 264.839 318.102 263.882C318.012 263.725 317.933 263.562 317.866 263.395L317.693 263.018L317.347 262.264L315.993 259.249C312.714 251.258 310.19 242.978 308.453 234.519C307.541 230.342 306.754 226.149 306.155 221.957C305.557 217.764 305.054 213.588 304.802 209.112L318.574 208.217Z" fill="#FFC3BD"/>
<path d="M313.348 192.688C318.07 193.897 320.809 225.348 320.809 225.348L308.122 232.948C308.122 232.948 300.457 209.709 301.637 199.675C302.487 192.405 309.759 191.777 313.348 192.688Z" fill="#FFC3BD"/>
<path d="M355.704 236.858L362.992 225.364L367.131 238.428C367.131 238.428 361.15 244.709 355.736 243.139L355.704 236.858Z" fill="#FFC3BD"/>
<path d="M373.695 221.564L376.56 232.681L367.132 238.428L362.992 225.364L373.695 221.564Z" fill="#FFC3BD"/>
<path d="M286.244 562.396H299.749L305.494 512.918H286.952L286.244 562.396Z" fill="#FFC3BD"/>
<path d="M201.437 544.212L214.516 547.588L234.601 502.178L216.5 497.074L201.437 544.212Z" fill="#FFC3BD"/>
<path d="M216.594 545.422L202.633 539.502C202.394 539.395 202.125 539.38 201.875 539.458C201.626 539.536 201.414 539.702 201.279 539.926L194.983 550.273C194.833 550.539 194.741 550.833 194.713 551.136C194.685 551.44 194.723 551.746 194.822 552.034C194.922 552.322 195.082 552.585 195.291 552.807C195.501 553.029 195.755 553.203 196.037 553.32C200.933 555.298 203.404 556.005 209.542 558.611C213.32 560.182 218.672 562.945 223.882 565.159C229.091 567.373 231.578 562.348 229.595 560.951C220.749 554.67 220.434 551.2 218.325 547.07C217.961 546.334 217.348 545.751 216.594 545.422Z" fill="#263238"/>
<path d="M300.221 560.825H285.048C284.785 560.823 284.53 560.915 284.33 561.085C284.131 561.256 284 561.492 283.961 561.752L282.214 573.685C282.183 573.988 282.217 574.293 282.312 574.582C282.407 574.871 282.562 575.137 282.767 575.362C282.972 575.587 283.222 575.766 283.501 575.889C283.78 576.011 284.082 576.074 284.386 576.072C289.675 575.978 292.256 575.68 298.899 575.68C303.007 575.68 311.491 576.104 317.157 576.104C322.824 576.104 323.123 570.514 320.762 570.011C310.184 567.734 306.013 564.594 302.456 561.61C301.823 561.102 301.034 560.825 300.221 560.825Z" fill="#263238"/>
<path d="M314.198 192.657C314.198 192.657 320.635 194.918 307.744 273.962H252.89C253.819 251.697 253.85 237.973 243.179 192.311C250.853 190.711 258.633 189.661 266.458 189.171C274.753 188.581 283.08 188.581 291.375 189.171C302.062 190.191 314.198 192.657 314.198 192.657Z" fill="#263238"/>
<path d="M268.93 161.237C270.504 169.229 272.078 183.879 266.459 189.202C273.464 196.619 281.622 202.86 290.62 207.684C298.411 195.122 291.375 189.218 291.375 189.218C282.435 187.082 282.671 180.472 284.214 174.254L268.93 161.237Z" fill="#FFC3BD"/>
<path opacity="0.2" d="M275.163 166.544L284.213 174.254C283.827 175.699 283.569 177.175 283.442 178.666C280.026 178.163 275.336 174.426 274.974 170.815C274.787 169.391 274.851 167.946 275.163 166.544Z" fill="black"/>
<path d="M260.477 146.586C263.625 159.588 264.68 165.146 272.518 170.721C284.339 179.106 299.654 172.401 300.457 158.74C301.196 146.429 295.939 127.241 282.12 124.289C279.075 123.624 275.91 123.747 272.926 124.645C269.942 125.543 267.238 127.187 265.069 129.421C262.901 131.655 261.341 134.404 260.537 137.408C259.734 140.413 259.713 143.572 260.477 146.586Z" fill="#FFC3BD"/>
<path d="M307.745 273.962C307.745 273.962 318.401 377.738 317.503 418.815C316.591 461.556 308.059 514.394 308.059 514.394H284.512C284.512 514.394 285.52 464.053 283.914 422.081C282.151 376.341 267.576 273.962 267.576 273.962H307.745Z" fill="#FF0000"/>
<path d="M282.497 516.749H309.051L311.002 509.919L281.27 509.087L282.497 516.749Z" fill="#263238"/>
<path opacity="0.2" d="M284.087 299.792C297.561 326.816 286.795 376.136 282.026 394.477C279.586 366.919 275.462 333.238 272.251 308.507C274.344 294.517 277.87 287.325 284.087 299.792Z" fill="black"/>
<path d="M293.232 273.962C293.232 273.962 280.797 381.852 271.416 416.491C260.288 457.615 237.512 503.01 237.512 503.01L213.902 496.368C213.902 496.368 227.14 440.939 235.655 419.27C253.835 373.043 238.284 304.142 252.796 273.962H293.232Z" fill="#FF0000"/>
<path d="M212.533 499.948L237.025 506.716L241.432 500.466L214.28 491.437L212.533 499.948Z" fill="#263238"/>
<path d="M282.482 146.838C282.687 147.905 283.395 148.675 284.056 148.549C284.717 148.424 285.174 147.45 284.985 146.382C284.796 145.315 284.072 144.545 283.411 144.671C282.75 144.796 282.294 145.77 282.482 146.838Z" fill="#263238"/>
<path d="M294.617 144.686C294.806 145.77 295.53 146.524 296.191 146.414C296.852 146.304 297.309 145.315 297.12 144.247C296.931 143.179 296.207 142.41 295.546 142.535C294.885 142.661 294.428 143.619 294.617 144.686Z" fill="#263238"/>
<path d="M295.231 142.645L297.687 141.452C297.687 141.452 296.711 143.697 295.231 142.645Z" fill="#263238"/>
<path d="M291.171 146.979C292.561 149.25 294.256 151.321 296.208 153.134C295.733 153.62 295.157 153.996 294.521 154.235C293.884 154.474 293.203 154.57 292.525 154.516L291.171 146.979Z" fill="#ED847E"/>
<path d="M286.842 159.572C287.455 159.566 288.065 159.508 288.668 159.399C288.71 159.394 288.75 159.38 288.786 159.358C288.822 159.337 288.853 159.309 288.878 159.275C288.903 159.241 288.921 159.203 288.931 159.162C288.941 159.122 288.942 159.08 288.936 159.038C288.92 158.953 288.872 158.878 288.801 158.828C288.731 158.778 288.643 158.758 288.558 158.771C287.23 159.039 285.857 158.99 284.552 158.627C283.247 158.264 282.047 157.598 281.05 156.683C280.987 156.628 280.906 156.597 280.822 156.597C280.738 156.597 280.657 156.628 280.593 156.683C280.535 156.744 280.502 156.826 280.502 156.911C280.502 156.995 280.535 157.077 280.593 157.138C282.281 158.728 284.522 159.601 286.842 159.572Z" fill="#263238"/>
<path d="M276.17 121.746C284.56 123.928 289.376 125.09 292.099 127.508C299.969 134.48 270.834 135.359 271.716 136.506C275.997 152.365 265.325 164.314 259.124 151.14C252.922 137.966 248.531 131.607 258.604 126.174C268.678 120.741 276.17 121.746 276.17 121.746Z" fill="#263238"/>
<path d="M259.926 156.369C260.42 157.551 261.143 158.623 262.053 159.526C262.963 160.429 264.043 161.143 265.231 161.629C268.379 162.917 270.378 160.153 269.811 156.918C269.307 154.045 267.025 149.915 263.672 149.994C262.934 150.021 262.215 150.233 261.582 150.611C260.948 150.989 260.42 151.521 260.046 152.156C259.673 152.792 259.466 153.511 259.445 154.247C259.424 154.983 259.59 155.713 259.926 156.369Z" fill="#FFC3BD"/>
<path d="M277.792 139.677C277.881 139.68 277.969 139.662 278.05 139.627C278.132 139.592 278.205 139.539 278.264 139.473C278.796 138.877 279.464 138.416 280.212 138.129C280.959 137.842 281.765 137.738 282.561 137.825C282.73 137.852 282.903 137.814 283.043 137.717C283.184 137.621 283.282 137.473 283.316 137.306C283.344 137.14 283.305 136.97 283.208 136.832C283.111 136.694 282.963 136.599 282.797 136.568C281.789 136.444 280.766 136.565 279.815 136.92C278.864 137.276 278.013 137.855 277.335 138.61C277.276 138.668 277.229 138.738 277.196 138.815C277.164 138.891 277.147 138.974 277.147 139.057C277.147 139.141 277.164 139.223 277.196 139.3C277.229 139.377 277.276 139.446 277.335 139.505C277.461 139.617 277.623 139.679 277.792 139.677Z" fill="#263238"/>
<path d="M297.639 138.044C297.764 138.042 297.885 138.003 297.988 137.933C298.091 137.863 298.171 137.765 298.219 137.65C298.268 137.536 298.282 137.41 298.26 137.287C298.238 137.165 298.181 137.052 298.096 136.961C297.415 136.207 296.561 135.629 295.607 135.276C294.653 134.923 293.627 134.806 292.618 134.935C292.452 134.969 292.305 135.068 292.211 135.209C292.117 135.35 292.082 135.523 292.114 135.689C292.13 135.771 292.161 135.849 292.206 135.918C292.252 135.988 292.31 136.048 292.379 136.094C292.448 136.141 292.525 136.174 292.607 136.19C292.689 136.207 292.773 136.207 292.854 136.192C293.655 136.108 294.464 136.214 295.216 136.501C295.968 136.787 296.641 137.246 297.183 137.84C297.241 137.903 297.312 137.953 297.39 137.988C297.469 138.023 297.553 138.042 297.639 138.044Z" fill="#263238"/>
<path d="M250.026 211.876C247.303 218.973 244.691 226.432 242.393 233.765C240.071 240.997 238.272 248.385 237.009 255.874C236.836 256.8 236.758 257.679 236.663 258.574L236.522 259.909V260.49C236.678 261.533 237.06 262.529 237.639 263.411C239.506 266.441 241.673 269.276 244.108 271.874C249.161 277.495 254.985 282.866 260.73 288.173L256.763 293.716C249.598 289.593 242.837 284.809 236.569 279.427C233.181 276.578 230.153 273.33 227.55 269.754C225.773 267.391 224.601 264.632 224.134 261.715C224.091 261.192 224.091 260.667 224.134 260.145C224.134 259.815 224.134 259.799 224.134 259.626V259.218V257.648C224.134 256.549 224.244 255.465 224.37 254.413C225.251 246.115 226.895 237.916 229.281 229.918C231.495 222.024 234.165 214.265 237.277 206.679L250.026 211.876Z" fill="#FFC3BD"/>
<path d="M243.226 192.264C237.859 194.462 231.122 223.841 231.122 223.841L242.565 233.262C242.565 233.262 253.331 211.358 253.803 201.261C254.165 193.693 247.995 190.333 243.226 192.264Z" fill="#FFC3BD"/>
<path d="M222.749 549.661C222.999 549.538 223.217 549.36 223.386 549.139C223.555 548.918 223.671 548.662 223.725 548.389C223.786 548.207 223.796 548.011 223.754 547.823C223.713 547.635 223.621 547.462 223.489 547.321C222.324 546.05 217.508 546.882 216.973 546.976C216.91 546.99 216.852 547.021 216.804 547.065C216.757 547.109 216.723 547.165 216.705 547.227C216.697 547.288 216.705 547.35 216.727 547.408C216.749 547.465 216.785 547.516 216.831 547.557C218.279 548.609 220.955 550.305 222.576 549.74L222.749 549.661ZM217.838 547.494C219.774 547.212 222.403 547.086 223.017 547.745C223.075 547.811 223.114 547.89 223.131 547.976C223.147 548.062 223.141 548.15 223.111 548.232C223.074 548.436 222.985 548.627 222.853 548.786C222.72 548.945 222.549 549.068 222.356 549.143C221.49 549.457 219.822 548.829 217.838 547.494Z" fill="#FF0000"/>
<path d="M219.254 546.898C220.655 546.222 222.088 545.17 222.292 544.212C222.346 543.963 222.31 543.703 222.193 543.477C222.075 543.25 221.882 543.072 221.647 542.972C221.435 542.849 221.198 542.772 220.954 542.748C220.71 542.723 220.463 542.752 220.23 542.831C218.389 543.459 216.846 547.023 216.783 547.164C216.756 547.215 216.741 547.272 216.741 547.329C216.741 547.387 216.756 547.444 216.783 547.494C216.821 547.536 216.867 547.569 216.919 547.591C216.97 547.612 217.026 547.622 217.082 547.62C217.839 547.49 218.571 547.247 219.254 546.898ZM220.246 543.522L220.435 543.443C220.581 543.389 220.737 543.368 220.892 543.382C221.047 543.396 221.198 543.443 221.332 543.522C221.694 543.726 221.694 543.93 221.663 544.087C221.474 545.013 219.207 546.411 217.633 546.85C218.178 545.534 219.063 544.385 220.199 543.522H220.246Z" fill="#FF0000"/>
<path d="M305.289 563.181C306.442 563.285 307.595 562.997 308.563 562.364C308.779 562.169 308.944 561.923 309.043 561.65C309.142 561.376 309.172 561.082 309.13 560.794C309.123 560.618 309.07 560.447 308.976 560.299C308.882 560.15 308.75 560.028 308.595 559.946C307.021 559.035 301.559 561.783 300.945 562.097C300.888 562.13 300.841 562.178 300.81 562.237C300.779 562.295 300.766 562.361 300.772 562.427C300.787 562.492 300.821 562.551 300.868 562.598C300.915 562.645 300.974 562.678 301.039 562.694C302.438 562.985 303.861 563.148 305.289 563.181ZM307.697 560.401C307.898 560.391 308.097 560.428 308.28 560.511C308.344 560.544 308.398 560.594 308.437 560.654C308.475 560.715 308.497 560.785 308.5 560.857C308.529 561.043 308.511 561.234 308.448 561.412C308.384 561.59 308.278 561.75 308.138 561.877C307.304 562.615 305.085 562.741 302.094 562.254C303.841 561.319 305.736 560.692 307.697 560.401Z" fill="#FF0000"/>
<path d="M301.102 562.694C301.143 562.707 301.187 562.707 301.228 562.694C302.802 561.972 305.95 559.067 305.777 557.544C305.777 557.182 305.462 556.727 304.565 556.649C304.249 556.612 303.929 556.641 303.625 556.736C303.321 556.831 303.041 556.988 302.802 557.198C301.102 558.611 300.787 562.223 300.772 562.38C300.77 562.435 300.782 562.49 300.806 562.539C300.831 562.589 300.868 562.631 300.913 562.662C300.97 562.697 301.038 562.709 301.102 562.694ZM304.25 557.23H304.439C305.022 557.23 305.069 557.528 305.084 557.591C305.226 558.517 303.07 560.731 301.433 561.783C301.558 560.257 302.158 558.807 303.148 557.638C303.452 557.371 303.846 557.23 304.25 557.245V557.23Z" fill="#FF0000"/>
<path d="M252.072 270.759L250.734 275.658C250.546 276.035 251.002 276.428 251.632 276.428H308.075C308.563 276.428 308.972 276.176 309.004 275.862L309.508 270.979C309.508 270.634 309.114 270.351 308.563 270.351H252.97C252.797 270.335 252.624 270.364 252.466 270.436C252.309 270.508 252.173 270.619 252.072 270.759Z" fill="#FF0000"/>
<path opacity="0.8" d="M252.072 270.759L250.734 275.658C250.546 276.035 251.002 276.428 251.632 276.428H308.075C308.563 276.428 308.972 276.176 309.004 275.862L309.508 270.979C309.508 270.634 309.114 270.351 308.563 270.351H252.97C252.797 270.335 252.624 270.364 252.466 270.436C252.309 270.508 252.173 270.619 252.072 270.759Z" fill="white"/>
<path d="M259.533 276.914H258.053C257.754 276.914 257.534 276.773 257.55 276.585L258.242 270.225C258.242 270.037 258.525 269.88 258.825 269.88H260.304C260.603 269.88 260.824 270.037 260.808 270.225L260.115 276.585C260.084 276.804 259.832 276.914 259.533 276.914Z" fill="#FF0000"/>
<path d="M303.826 276.914H302.346C302.047 276.914 301.827 276.773 301.843 276.585L302.535 270.225C302.535 270.037 302.818 269.88 303.118 269.88H304.613C304.896 269.88 305.132 270.037 305.101 270.225L304.408 276.585C304.392 276.804 304.125 276.914 303.826 276.914Z" fill="#FF0000"/>
<path d="M281.679 276.914H280.2C279.901 276.914 279.68 276.773 279.696 276.585L280.389 270.225C280.389 270.037 280.672 269.88 280.971 269.88H282.451C282.75 269.88 282.986 270.037 282.954 270.225L282.262 276.585C282.215 276.804 281.978 276.914 281.679 276.914Z" fill="#FF0000"/>
<path d="M255.897 367.657L322.871 368.756L311.68 273.962L314.828 231.362L307.226 223.715C308.013 197.022 304.078 190.49 304.078 190.49L298.694 189.642C303.416 196.566 302.629 215.739 301.842 222.287C290.73 220.324 274.88 222.287 274.88 222.287C274.061 202.91 261.91 188.762 261.91 188.762L257.188 189.563C267.954 201.874 270.111 223.637 270.111 223.637L258.605 234.016L260.179 244.081C257.565 244.761 254.84 244.911 252.167 244.521L252.482 248.933C255.274 249.551 258.189 249.288 260.824 248.179L264.712 273.381L255.897 367.657Z" fill="white"/>
<path d="M259.139 286.964L273.683 288.204L263.971 297.877C263.971 297.877 255.645 295.474 254.527 290.026L259.139 286.964Z" fill="#FFC3BD"/>
<path d="M281.994 295.914L273.416 303.592L261.91 297.123L273.684 288.204L281.994 295.914Z" fill="#FFC3BD"/>
<path d="M283.111 144.781L285.567 143.587C285.567 143.587 284.591 145.833 283.111 144.781Z" fill="#263238"/>
<path d="M180.156 297.013H435.239C438.274 297.013 441.184 298.216 443.33 300.357C445.476 302.498 446.682 305.401 446.682 308.429V577.266H180.156V297.013Z" fill="#FF0000"/>
<path opacity="0.3" d="M242.518 297.013H180.156V577.266H242.518V297.013Z" fill="black"/>
<path opacity="0.3" d="M446.682 305.634H180.156V314.254H446.682V305.634Z" fill="black"/>
<path d="M439.897 297.013H180.188V308.664H451.577C451.577 305.574 450.346 302.611 448.156 300.426C445.966 298.241 442.995 297.013 439.897 297.013Z" fill="#263238"/>
<path d="M370.594 258.072H331.339C326.213 258.072 321.138 259.079 316.403 261.036C311.668 262.994 307.366 265.862 303.742 269.478C300.119 273.095 297.245 277.388 295.285 282.112C293.325 286.837 292.317 291.9 292.319 297.013H370.594V258.072Z" fill="#FF0000"/>
<path opacity="0.5" d="M370.594 258.072H331.339C326.213 258.072 321.138 259.079 316.403 261.036C311.668 262.994 307.366 265.862 303.742 269.478C300.119 273.095 297.245 277.388 295.285 282.112C293.325 286.837 292.317 291.9 292.319 297.013H370.594V258.072Z" fill="white"/>
<path d="M370.595 258.072H414.761C415.154 258.072 415.53 258.227 415.807 258.504C416.085 258.781 416.241 259.156 416.241 259.548V297.013H370.595V258.072Z" fill="#FF0000"/>
<path opacity="0.7" d="M370.595 258.072H414.761C415.154 258.072 415.53 258.227 415.807 258.504C416.085 258.781 416.241 259.156 416.241 259.548V297.013H370.595V258.072Z" fill="white"/>
<path d="M358.931 252.843H407.725C409.096 252.872 410.401 253.435 411.36 254.413C412.319 255.39 412.856 256.704 412.856 258.072H353.689C353.689 256.685 354.242 255.355 355.225 254.375C356.208 253.394 357.541 252.843 358.931 252.843Z" fill="#FF0000"/>
<path opacity="0.3" d="M358.931 252.843C357.541 252.843 356.208 253.394 355.225 254.374C354.242 255.355 353.689 256.685 353.689 258.072H369.744C369.744 257.384 369.88 256.703 370.145 256.067C370.409 255.432 370.797 254.855 371.285 254.369C371.773 253.883 372.353 253.498 372.991 253.236C373.629 252.975 374.312 252.841 375.001 252.843H358.931Z" fill="black"/>
<path d="M599.847 200.947C600.241 201.544 600.445 201.858 600.697 202.282L601.406 203.444C601.862 204.229 602.256 205.014 602.665 205.784C603.452 207.354 604.239 208.924 604.868 210.494C606.188 213.613 607.323 216.806 608.268 220.057C610.177 226.477 611.426 233.075 611.999 239.747L612.125 240.988C612.145 241.239 612.145 241.491 612.125 241.742V242.574C612.143 243.666 612.08 244.757 611.936 245.84C611.641 247.847 611.113 249.812 610.362 251.697C608.989 255.072 607.156 258.242 604.916 261.118C600.761 266.443 595.82 271.107 590.262 274.952L585.996 269.817C589.949 265.363 593.45 260.529 596.447 255.387C597.796 253.054 598.853 250.565 599.595 247.975C599.896 246.879 600.07 245.751 600.115 244.615C600.163 244.129 600.163 243.64 600.115 243.155V242.825C600.131 242.679 600.131 242.531 600.115 242.385L599.926 241.286C598.914 235.434 597.483 229.662 595.645 224.014C594.732 221.203 593.614 218.487 592.497 215.833C591.93 214.498 591.316 213.195 590.687 211.939L589.695 210.086L589.223 209.222L588.814 208.531L599.847 200.947Z" fill="#FF8B7B"/>
<path d="M585.146 274.983L590.859 286.995L595.439 276.914C595.439 276.914 591.426 268.121 585.995 268.938L585.146 274.983Z" fill="#FF8B7B"/>
<path d="M599.894 286.995L604.427 279.584L595.377 276.836L590.859 286.995H599.894Z" fill="#FF8B7B"/>
<path d="M569.311 564.61C570.484 564.581 571.651 564.423 572.789 564.139C572.849 564.125 572.904 564.095 572.947 564.051C572.989 564.007 573.018 563.952 573.03 563.892C573.042 563.832 573.036 563.77 573.013 563.713C572.989 563.656 572.95 563.608 572.9 563.573C572.443 563.275 568.445 560.7 566.903 561.391C566.73 561.467 566.581 561.59 566.473 561.745C566.365 561.9 566.301 562.081 566.289 562.27C566.237 562.554 566.257 562.847 566.348 563.121C566.439 563.395 566.597 563.643 566.808 563.84C567.52 564.393 568.411 564.666 569.311 564.61ZM571.908 563.683C569.61 564.154 567.894 564.076 567.186 563.463C567.044 563.319 566.941 563.141 566.886 562.946C566.831 562.751 566.826 562.546 566.871 562.348C566.871 562.264 566.897 562.181 566.945 562.111C566.992 562.041 567.06 561.987 567.139 561.956C567.973 561.579 570.255 562.694 571.908 563.683Z" fill="#FF0000"/>
<path d="M572.727 564.139H572.884C572.932 564.108 572.971 564.066 572.998 564.017C573.026 563.967 573.041 563.912 573.042 563.856C573.042 563.699 573.042 559.915 571.578 558.643C571.405 558.481 571.198 558.36 570.972 558.29C570.745 558.219 570.506 558.2 570.272 558.234C570.023 558.234 569.781 558.319 569.588 558.477C569.396 558.635 569.265 558.854 569.217 559.098C568.918 560.59 571.31 563.416 572.57 564.139H572.727ZM570.476 558.815C570.604 558.812 570.731 558.834 570.849 558.879C570.968 558.925 571.077 558.994 571.169 559.082C571.999 560.304 572.428 561.752 572.396 563.228C571.137 562.223 569.642 560.087 569.831 559.192C569.831 559.051 569.941 558.863 570.335 558.815H570.476Z" fill="#FF0000"/>
<path d="M487.243 558.8C487.298 558.8 487.352 558.786 487.399 558.759C487.446 558.731 487.485 558.691 487.51 558.643C487.548 558.59 487.568 558.527 487.568 558.462C487.568 558.398 487.548 558.334 487.51 558.282C487.101 557.779 483.434 553.477 481.545 553.477H481.435C481.262 553.495 481.096 553.556 480.953 553.655C480.81 553.754 480.694 553.887 480.616 554.042C480.497 554.286 480.435 554.555 480.435 554.827C480.435 555.099 480.497 555.368 480.616 555.612C481.451 557.339 485.149 558.313 487.274 558.753L487.243 558.8ZM481.529 554.089C482.568 554.089 484.835 556.225 486.393 557.968C483.513 557.292 481.561 556.397 481.089 555.377C481.004 555.214 480.96 555.034 480.96 554.851C480.96 554.668 481.004 554.487 481.089 554.325C481.117 554.259 481.163 554.203 481.221 554.161C481.279 554.119 481.348 554.095 481.419 554.089H481.529Z" fill="#FF0000"/>
<path d="M487.243 558.8C487.296 558.789 487.347 558.765 487.388 558.729C487.429 558.693 487.461 558.647 487.479 558.596C487.479 558.454 488.596 555.063 487.605 553.163C487.465 552.886 487.27 552.64 487.032 552.44C486.794 552.24 486.517 552.091 486.22 552.001C485.385 551.749 484.976 552.001 484.787 552.362C484 553.649 485.779 557.449 486.959 558.643C486.986 558.693 487.028 558.735 487.078 558.763C487.128 558.791 487.185 558.803 487.243 558.8ZM485.669 552.519C485.794 552.501 485.921 552.501 486.046 552.519C486.267 552.582 486.471 552.69 486.647 552.836C486.823 552.982 486.967 553.162 487.07 553.367C487.528 554.797 487.528 556.333 487.07 557.763C485.968 556.193 484.882 553.382 485.354 552.613C485.398 552.563 485.456 552.527 485.52 552.51C485.585 552.493 485.653 552.496 485.716 552.519H485.669Z" fill="#FF0000"/>
<path d="M571.829 154.956C570.255 162.807 566.84 179.781 572.317 184.994C572.317 184.994 570.177 192.845 555.649 192.845C539.657 192.845 547.999 184.994 547.999 184.994C556.735 182.921 556.499 176.452 554.988 170.391L571.829 154.956Z" fill="#FF8B7B"/>
<path d="M545.072 136.553C545.166 136.567 545.261 136.567 545.355 136.553C545.43 136.516 545.497 136.465 545.551 136.402C545.606 136.34 545.648 136.267 545.674 136.188C545.701 136.109 545.711 136.026 545.705 135.943C545.699 135.86 545.676 135.779 545.638 135.705C545.209 134.814 544.574 134.036 543.787 133.436C542.999 132.836 542.08 132.429 541.105 132.25C540.941 132.237 540.778 132.286 540.65 132.388C540.521 132.49 540.436 132.638 540.413 132.8C540.395 132.964 540.443 133.129 540.546 133.258C540.649 133.388 540.799 133.471 540.964 133.491C541.734 133.641 542.459 133.971 543.077 134.454C543.695 134.937 544.19 135.56 544.521 136.27C544.579 136.362 544.661 136.436 544.758 136.486C544.855 136.535 544.963 136.559 545.072 136.553Z" fill="#263238"/>
<path d="M540.35 143.446C539.111 145.738 537.565 147.851 535.754 149.727C536.244 150.174 536.826 150.51 537.459 150.711C538.093 150.911 538.762 150.972 539.421 150.889L540.35 143.446Z" fill="#FF5652"/>
<path d="M541.546 141.672C541.404 142.724 540.743 143.509 540.05 143.43C539.358 143.352 538.917 142.425 539.043 141.373C539.169 140.321 539.846 139.536 540.522 139.615C541.199 139.693 541.671 140.62 541.546 141.672Z" fill="#263238"/>
<path d="M540.822 139.709L538.382 138.673C538.382 138.673 539.436 140.808 540.822 139.709Z" fill="#263238"/>
<path d="M501.204 563.73L488.36 560.778L494.389 530.897L507.233 533.865L501.204 563.73Z" fill="#FF8B7B"/>
<path d="M588.057 563.824H574.867L575.906 533.378H589.096L588.057 563.824Z" fill="#FF8B7B"/>
<path d="M573.829 562.301H588.64C588.897 562.299 589.146 562.39 589.34 562.558C589.534 562.726 589.66 562.958 589.695 563.212L591.379 574.894C591.412 575.19 591.382 575.489 591.292 575.772C591.201 576.055 591.05 576.316 590.851 576.537C590.652 576.758 590.408 576.935 590.135 577.055C589.863 577.175 589.568 577.236 589.27 577.234C584.107 577.156 581.62 576.842 575.104 576.842C571.09 576.842 565.235 577.266 559.71 577.266C554.185 577.266 553.87 571.801 556.184 571.314C566.51 569.085 568.147 566.038 571.625 563.118C572.24 562.594 573.02 562.305 573.829 562.301Z" fill="#263238"/>
<path d="M488.628 557.402L502.306 563.071C502.543 563.163 502.738 563.338 502.854 563.564C502.971 563.79 503 564.05 502.936 564.296L499.993 575.742C499.91 576.028 499.767 576.293 499.574 576.519C499.381 576.746 499.141 576.929 498.872 577.056C498.603 577.184 498.31 577.253 498.012 577.259C497.714 577.266 497.418 577.209 497.144 577.093C492.422 575.036 490.234 573.811 484.221 571.314C480.507 569.744 472.699 566.996 467.584 564.877C462.468 562.757 464.294 557.606 466.624 558.03C477.012 559.946 481.939 558.674 486.283 557.308C487.052 557.063 487.882 557.097 488.628 557.402Z" fill="#263238"/>
<path opacity="0.2" d="M494.389 530.913L491.162 546.913L504.132 549.269L507.233 533.865L494.389 530.913Z" fill="black"/>
<path opacity="0.2" d="M589.096 533.378H575.906L575.371 549.08H588.561L589.096 533.378Z" fill="black"/>
<path d="M595.015 187.977C600.493 189.186 606.332 208.83 606.332 208.83L590.86 225.27C590.86 225.27 578 206.804 580.629 200.005C583.352 192.939 588.546 186.564 595.015 187.977Z" fill="#FF0000"/>
<path opacity="0.4" d="M586.327 200.492C583.556 197.964 581.683 198.718 580.408 200.727C579.149 206.569 586.61 218.801 589.616 223.433C591.001 217.906 592.591 206.255 586.327 200.492Z" fill="black"/>
<path d="M525.679 188.37C525.679 188.37 519.383 190.568 531.975 267.744H585.491C584.594 246.013 584.563 232.603 594.935 187.977C587.437 186.434 579.835 185.437 572.191 184.994C564.096 184.412 555.968 184.412 547.873 184.994C537.516 185.952 525.679 188.37 525.679 188.37Z" fill="#FF0000"/>
<path d="M540.807 183.361C542.916 182.277 559.553 178.949 571.956 179.467C579.039 179.765 583.1 180.676 586.122 182.419C589.144 184.162 585.067 193.567 582.817 194.761C584.17 198.278 579.322 202.941 576.521 205.171C575.671 208.547 563.929 211.955 556.137 204.998C550.156 199.66 534.778 186.439 540.807 183.361Z" fill="#263238"/>
<path opacity="0.4" d="M525.192 217.984C525.539 221.737 525.995 225.961 526.593 230.734C530.985 226.793 534.573 215.582 533.251 209.05C530.114 211.59 527.395 214.605 525.192 217.984Z" fill="black"/>
<path d="M530.905 206.255C527.973 213.632 524.663 220.854 520.989 227.892C519.179 231.441 517.243 234.943 515.134 238.397C513.009 241.967 510.643 245.387 508.051 248.635L507.028 249.891L506.776 250.205L506.335 250.676C506.045 250.994 505.735 251.293 505.406 251.571C504.126 252.712 502.642 253.602 501.031 254.193C498.313 255.109 495.416 255.367 492.578 254.947C488.141 254.229 483.853 252.781 479.892 250.66C472.731 246.84 466.074 242.146 460.075 236.685L464.136 231.394C467.284 233.278 470.7 235.162 474.037 236.842C477.298 238.561 480.668 240.067 484.126 241.349C487.188 242.591 490.419 243.369 493.712 243.657C494.744 243.741 495.781 243.574 496.734 243.17C496.945 243.07 497.129 242.919 497.269 242.731L498.355 241.161C502.39 235.027 505.973 228.609 509.074 221.957C512.332 215.173 515.449 208.123 518.408 201.246L530.905 206.255Z" fill="#FF8B7B"/>
<path d="M525.68 188.37C519.116 189.94 511.058 207.903 511.058 207.903L524.657 227.845C524.657 227.845 542.758 205.093 540.617 198.152C538.367 190.914 533.629 186.423 525.68 188.37Z" fill="#FF0000"/>
<path d="M462.988 237.738L450.49 237.879L454.063 227.139C454.063 227.139 463.853 228.473 466.954 232.98L462.988 237.738Z" fill="#FF8B7B"/>
<path d="M441.172 236.497L443.564 227.139H454.063L450.49 237.879L441.172 236.497Z" fill="#FF8B7B"/>
<path d="M577.48 142.441C575.072 155.27 574.332 160.765 566.966 166.591C555.948 175.353 540.602 169.606 539.106 156.322C537.768 144.357 541.924 125.388 555.24 121.777C558.177 120.97 561.273 120.927 564.232 121.651C567.19 122.375 569.914 123.843 572.144 125.914C574.373 127.985 576.034 130.592 576.968 133.485C577.902 136.378 578.079 139.461 577.48 142.441Z" fill="#FF8B7B"/>
<path d="M549.605 142.143C547.071 145.362 529.143 165.947 539.437 173.94C571.499 171.443 580.644 182.529 589.537 166.732C598.431 150.936 599.8 123.724 575.057 119.108C550.313 114.491 536.745 120.238 549.605 142.143Z" fill="#263238"/>
<path d="M544.678 141.562C542.949 143.396 542.002 145.828 542.034 148.345C542.113 151.69 545.261 152.333 547.858 150.559C550.203 148.989 552.973 145.315 551.651 142.363C551.349 141.73 550.892 141.185 550.321 140.778C549.75 140.371 549.084 140.116 548.387 140.035C547.69 139.955 546.984 140.053 546.335 140.32C545.686 140.587 545.116 141.015 544.678 141.562Z" fill="#FF8B7B"/>
<path d="M546.11 267.744C546.11 267.744 553.76 358.016 561.709 408.891C568.115 449.984 573.167 546.034 573.167 546.034H591.158C591.158 546.034 597.549 452.857 594.306 412.22C586.074 309.371 604.443 300.986 585.539 267.76L546.11 267.744Z" fill="#263238"/>
<path opacity="0.4" d="M561.064 297.877C556.373 304.973 553.008 312.856 551.132 321.147C552.706 336.379 554.453 353.227 556.405 369.432C561.41 355.928 566.888 328.575 561.064 297.877Z" fill="black"/>
<path d="M531.976 267.744C531.976 267.744 517.118 369.023 511.892 408.813C506.462 450.188 490.596 542.941 490.596 542.941L508.209 545.641C508.209 545.641 538.256 457.521 543.844 416.884C549.935 372.603 572.9 267.713 572.9 267.713L531.976 267.744Z" fill="#263238"/>
<path d="M487.998 543.019L510.569 546.85L513.135 538.356L488.974 534.226L487.998 543.019Z" fill="#FF0000"/>
<path d="M570.712 546.395H593.614L594.81 538.387L570.586 537.57L570.712 546.395Z" fill="#FF0000"/>
<path d="M586.326 264.604L588.734 269.393C588.923 269.77 588.483 270.147 587.869 270.147H531.709C531.221 270.147 530.827 269.911 530.796 269.597L530.308 264.887C530.308 264.557 530.701 264.274 531.221 264.274H585.445C585.608 264.252 585.773 264.27 585.927 264.328C586.081 264.386 586.218 264.48 586.326 264.604Z" fill="#EBEBEB"/>
<path d="M579.038 270.634H580.486C580.785 270.634 581.006 270.477 580.974 270.304L580.297 264.023C580.297 263.834 580.03 263.693 579.731 263.693H578.283C577.999 263.693 577.779 263.834 577.795 264.023L578.472 270.304C578.503 270.508 578.755 270.634 579.038 270.634Z" fill="#263238"/>
<path d="M543.844 270.634H545.292C545.576 270.634 545.796 270.477 545.78 270.304L545.103 264.023C545.103 263.834 544.82 263.693 544.537 263.693H543.089C542.79 263.693 542.569 263.834 542.601 264.023L543.277 270.304C543.293 270.508 543.498 270.634 543.844 270.634Z" fill="#263238"/>
<path opacity="0.1" d="M522.537 99.7556L445.324 146.51L383.285 112.616L460.633 65.8762L522.537 99.7556Z" fill="black"/>
<path d="M517.592 79.835L457.705 47.466L389.884 88.7796L449.772 121.149L517.592 79.835Z" fill="#E0B699"/>
<path opacity="0.1" d="M517.578 79.8353L457.69 47.4662L389.87 88.7799L449.757 121.149L517.578 79.8353Z" fill="#E0B699"/>
<path d="M486.139 67.4125L466.913 79.0989C466.563 79.3168 466.67 79.6916 467.145 79.9526L489.513 92.0782C489.74 92.2038 489.993 92.2765 490.252 92.2907C490.511 92.3049 490.77 92.2603 491.01 92.1602L510.242 80.4334C510.592 80.2236 510.485 79.8407 510.01 79.5798L487.635 67.4945C487.409 67.3671 487.156 67.2934 486.896 67.2792C486.637 67.265 486.377 67.3106 486.139 67.4125Z" fill="#FAFAFA"/>
<path d="M496.494 86.1938C496.582 86.1906 496.667 86.1589 496.735 86.1035C496.803 86.048 496.851 85.9719 496.872 85.8867C496.893 85.8015 496.885 85.7119 496.849 85.6316C496.814 85.5513 496.753 85.4847 496.676 85.4419L478.109 75.4037C478.062 75.3718 478.01 75.35 477.954 75.3397C477.899 75.3294 477.842 75.3308 477.787 75.3438C477.732 75.3568 477.68 75.3811 477.635 75.4152C477.59 75.4493 477.553 75.4924 477.526 75.5417C477.499 75.5909 477.482 75.6453 477.478 75.7013C477.473 75.7573 477.48 75.8137 477.499 75.8667C477.517 75.9198 477.547 75.9684 477.586 76.0093C477.624 76.0503 477.671 76.0827 477.723 76.1045L496.291 86.1428C496.352 86.1784 496.423 86.1961 496.494 86.1938Z" fill="#E0E0E0"/>
<path d="M494.489 87.4022C494.577 87.399 494.662 87.3673 494.73 87.3118C494.799 87.2564 494.847 87.1803 494.867 87.0951C494.888 87.0099 494.88 86.9203 494.845 86.84C494.81 86.7597 494.749 86.6931 494.672 86.6503L476.104 76.6121C476.011 76.5618 475.901 76.5502 475.799 76.5799C475.697 76.6096 475.611 76.6782 475.559 76.7707C475.508 76.865 475.497 76.9754 475.526 77.0782C475.556 77.181 475.625 77.2682 475.719 77.3209L494.286 87.3512C494.348 87.3868 494.418 87.4045 494.489 87.4022Z" fill="#E0E0E0"/>
<path d="M492.489 88.611C492.577 88.6078 492.662 88.5761 492.73 88.5206C492.798 88.4652 492.847 88.389 492.867 88.3038C492.888 88.2186 492.88 88.1291 492.845 88.0488C492.809 87.9685 492.749 87.9019 492.672 87.8591L474.104 77.8208C474.01 77.77 473.899 77.7586 473.796 77.7891C473.693 77.8196 473.607 77.8896 473.555 77.9836C473.504 78.0776 473.493 78.188 473.524 78.2904C473.554 78.3928 473.625 78.4789 473.719 78.5297L492.286 88.568C492.35 88.5984 492.419 88.6131 492.489 88.611Z" fill="#E0E0E0"/>
<path d="M490.489 89.8272C490.56 89.825 490.628 89.8044 490.688 89.7677C490.748 89.7309 490.797 89.6791 490.831 89.6175C490.882 89.5233 490.894 89.4129 490.864 89.3101C490.834 89.2072 490.765 89.1201 490.671 89.0673L472.104 79.0371C472.058 79.0052 472.005 78.9834 471.949 78.9731C471.894 78.9628 471.837 78.9642 471.782 78.9772C471.727 78.9902 471.675 79.0145 471.63 79.0486C471.586 79.0827 471.548 79.1258 471.521 79.1751C471.494 79.2244 471.478 79.2788 471.473 79.3347C471.468 79.3907 471.476 79.4471 471.494 79.5001C471.513 79.5532 471.542 79.6018 471.581 79.6427C471.62 79.6837 471.667 79.7161 471.719 79.7379L490.286 89.7762C490.348 89.8118 490.418 89.8295 490.489 89.8272Z" fill="#E0E0E0"/>
<path d="M508.381 79.9742L507.66 79.583L499.447 84.5828L500.175 84.9738L508.381 79.9742Z" fill="#455A64"/>
<path d="M505.449 78.3869L504.188 77.7124L495.983 82.72L497.236 83.3867L505.449 78.3869Z" fill="#455A64"/>
<path d="M502.506 76.792L501.777 76.4011L493.572 81.4086L494.292 81.7918L502.506 76.792Z" fill="#455A64"/>
<path d="M500.306 75.5876L498.849 74.8137L490.635 79.8135L492.093 80.5874L500.306 75.5876Z" fill="#455A64"/>
<path d="M496.628 73.6172L495.907 73.226L487.694 78.2257L488.414 78.6169L496.628 73.6172Z" fill="#455A64"/>
<path d="M494.531 72.4586L492.967 71.6312L484.754 76.639L486.318 77.4664L494.531 72.4586Z" fill="#455A64"/>
<path d="M490.749 70.4347L490.028 70.0435L481.815 75.0513L482.536 75.4344L490.749 70.4347Z" fill="#455A64"/>
<path d="M489.082 69.5224L488.714 69.331L480.509 74.3305L480.869 74.5301L489.082 69.5224Z" fill="#455A64"/>
<path d="M492.051 71.189L491.691 70.9894L483.478 75.9891L483.838 76.1887L492.051 71.189Z" fill="#455A64"/>
<path d="M498.004 74.3696L497.636 74.1702L489.431 79.1778L489.791 79.3694L498.004 74.3696Z" fill="#455A64"/>
<path d="M501.239 76.1254L500.87 75.926L492.665 80.9336L493.026 81.1252L501.239 76.1254Z" fill="#455A64"/>
<path d="M503.525 77.4084L503.164 77.2088L494.959 82.2164L495.32 82.4079L503.525 77.4084Z" fill="#455A64"/>
<path d="M506.742 79.0764L506.381 78.8849L498.176 83.8844L498.536 84.076L506.742 79.0764Z" fill="#455A64"/>
<path d="M487.805 68.8484L487.085 68.4573L478.871 73.457L479.6 73.848L487.805 68.8484Z" fill="#455A64"/>
<path d="M450.354 143.746L518.174 102.433L517.59 79.8332L449.77 121.146L450.354 143.746Z" fill="#D3976E"/>
<g opacity="0.2">
<path d="M450.358 143.746L518.177 102.434L517.593 79.8333L449.774 121.146L450.358 143.746Z" fill="#BE8863"/>
</g>
<path d="M450.354 143.748L390.467 111.372L389.883 88.7796L449.77 121.148L450.354 143.748Z" fill="#D3976E"/>
<path opacity="0.3" d="M450.354 143.748L390.467 111.372L389.883 88.7796L449.77 121.148L450.354 143.748Z" fill="#89796F"/>
<path d="M418.458 104.16L486.278 62.8464L481.437 60.2235L413.609 101.537L418.458 104.16Z" fill="#455A64"/>
<path d="M476.669 119.851C477.18 119.476 477.594 118.985 477.875 118.419C478.157 117.853 478.299 117.228 478.289 116.596L478.162 111.691L474.752 113.803L474.525 113.769L474.534 114.09L474.647 118.482C474.627 118.768 474.683 119.055 474.809 119.314C474.934 119.573 475.125 119.795 475.363 119.957C475.531 120.046 475.719 120.088 475.908 120.08C476.177 120.072 476.44 119.994 476.669 119.851ZM476.145 114.579L476.448 116.29L477.723 116.257L477.732 116.619C477.734 117.152 477.612 117.679 477.377 118.159C477.141 118.639 476.798 119.058 476.374 119.385C476.27 119.464 476.147 119.514 476.017 119.532C475.887 119.549 475.755 119.533 475.634 119.484C475.482 119.368 475.363 119.215 475.288 119.04C475.213 118.864 475.184 118.673 475.204 118.483L475.099 114.421L476.145 114.579ZM476.625 114.092L475.595 113.934L477.63 112.677L477.708 115.679L476.901 115.7L476.625 114.092Z" fill="#455A64"/>
<path d="M476.63 123.58C476.557 123.581 476.485 123.555 476.431 123.505C476.377 123.456 476.345 123.387 476.341 123.314L476.245 119.629C476.243 119.554 476.271 119.482 476.323 119.428C476.375 119.374 476.446 119.343 476.521 119.341C476.594 119.341 476.665 119.37 476.717 119.421C476.77 119.472 476.8 119.541 476.802 119.615L476.897 123.299C476.899 123.372 476.872 123.442 476.822 123.495C476.772 123.547 476.703 123.578 476.63 123.58Z" fill="#455A64"/>
<path d="M475.04 124.584C474.99 124.587 474.941 124.575 474.897 124.55C474.854 124.526 474.818 124.49 474.794 124.446C474.757 124.383 474.746 124.308 474.764 124.237C474.782 124.166 474.827 124.105 474.889 124.066L478.07 122.136C478.101 122.117 478.136 122.104 478.172 122.099C478.208 122.093 478.245 122.095 478.281 122.103C478.317 122.112 478.35 122.128 478.379 122.15C478.409 122.172 478.433 122.199 478.452 122.231C478.471 122.261 478.485 122.294 478.491 122.33C478.497 122.365 478.496 122.401 478.488 122.435C478.479 122.47 478.464 122.503 478.443 122.532C478.422 122.56 478.395 122.585 478.365 122.603L475.184 124.541C475.141 124.568 475.091 124.584 475.04 124.584Z" fill="#455A64"/>
<path d="M465.524 130.502C465.419 130.503 465.316 130.478 465.223 130.429C465.11 130.362 465.016 130.266 464.953 130.15C464.891 130.034 464.861 129.903 464.867 129.772L464.848 129.017C464.848 128.944 464.877 128.874 464.928 128.821C464.98 128.769 465.05 128.739 465.123 128.737C465.196 128.735 465.267 128.762 465.319 128.812C465.372 128.862 465.403 128.93 465.405 129.003L465.424 129.757C465.427 129.87 465.429 129.934 465.485 129.941C465.542 129.947 465.566 129.939 465.662 129.888C465.829 129.726 465.959 129.529 466.043 129.312C466.126 129.095 466.162 128.862 466.146 128.63L466.019 123.725C466.017 123.652 466.045 123.582 466.095 123.53C466.145 123.477 466.214 123.447 466.287 123.445C466.36 123.443 466.432 123.47 466.486 123.519C466.54 123.569 466.572 123.637 466.576 123.711L466.703 128.616C466.723 128.946 466.664 129.276 466.532 129.58C466.399 129.883 466.197 130.152 465.94 130.363C465.815 130.442 465.672 130.49 465.524 130.502Z" fill="#455A64"/>
<path d="M469.759 121.861L469.755 121.7C469.828 121.225 469.752 120.739 469.538 120.308C469.323 119.877 468.98 119.523 468.556 119.293C468.131 119.063 467.646 118.969 467.165 119.024C466.685 119.079 466.234 119.28 465.872 119.599C464.856 120.296 464.02 121.222 463.43 122.3C462.841 123.379 462.515 124.581 462.479 125.808L462.492 126.29L469.759 121.861ZM468.292 119.778C468.582 119.967 468.82 120.226 468.983 120.531C469.146 120.835 469.229 121.176 469.225 121.521L463.079 125.263C463.184 124.221 463.516 123.215 464.05 122.314C464.585 121.412 465.309 120.637 466.175 120.041C466.584 119.766 467.059 119.605 467.551 119.572C467.812 119.575 468.067 119.646 468.292 119.778Z" fill="#455A64"/>
<path d="M454.532 136.979C454.459 136.981 454.387 136.954 454.333 136.905C454.279 136.855 454.247 136.787 454.243 136.714L454 127.312C454 127.239 454.029 127.169 454.081 127.117C454.132 127.064 454.202 127.034 454.275 127.032C454.348 127.03 454.419 127.057 454.472 127.107C454.524 127.157 454.555 127.226 454.557 127.298L454.8 136.699C454.801 136.772 454.774 136.842 454.724 136.894C454.674 136.947 454.605 136.977 454.532 136.979Z" fill="#455A64"/>
<path d="M453.521 129.469C453.487 129.478 453.451 129.479 453.416 129.472C453.381 129.46 453.35 129.441 453.323 129.416C453.296 129.391 453.275 129.361 453.26 129.327C453.246 129.293 453.238 129.257 453.239 129.221C453.239 129.184 453.247 129.148 453.262 129.115L454.188 126.825L455.326 128.057C455.379 128.108 455.41 128.178 455.412 128.252C455.414 128.325 455.386 128.397 455.336 128.451C455.286 128.503 455.217 128.533 455.144 128.535C455.072 128.537 455.001 128.51 454.949 128.461L454.408 127.872L453.809 129.358C453.776 129.401 453.732 129.435 453.681 129.455C453.63 129.474 453.575 129.48 453.521 129.469Z" fill="#455A64"/>
<path d="M457.061 135.492C457.024 135.493 456.987 135.486 456.952 135.473C456.917 135.46 456.886 135.44 456.859 135.415C456.832 135.389 456.81 135.359 456.795 135.325C456.78 135.291 456.772 135.255 456.771 135.218L456.529 125.825C456.529 125.752 456.558 125.682 456.609 125.629C456.66 125.577 456.73 125.547 456.804 125.545C456.877 125.543 456.947 125.57 457 125.62C457.053 125.669 457.083 125.738 457.085 125.811L457.328 135.204C457.33 135.277 457.303 135.348 457.253 135.402C457.203 135.455 457.134 135.488 457.061 135.492Z" fill="#455A64"/>
<path d="M456.051 127.951C456.017 127.959 455.981 127.96 455.947 127.953C455.912 127.941 455.88 127.922 455.853 127.897C455.827 127.872 455.805 127.842 455.791 127.808C455.776 127.775 455.769 127.738 455.769 127.702C455.769 127.665 455.777 127.629 455.792 127.596L456.718 125.298L457.856 126.538C457.907 126.589 457.936 126.657 457.938 126.729C457.94 126.801 457.914 126.87 457.866 126.924C457.842 126.951 457.813 126.972 457.78 126.987C457.747 127.003 457.711 127.011 457.675 127.012C457.638 127.013 457.602 127.006 457.569 126.993C457.535 126.979 457.504 126.959 457.479 126.934L456.939 126.345L456.339 127.823C456.308 127.869 456.265 127.906 456.214 127.929C456.163 127.951 456.107 127.959 456.051 127.951Z" fill="#455A64"/>
<path d="M495.633 98.6191L495.947 110.782C495.959 111.248 496.295 111.432 496.693 111.189L515.504 99.7302C515.717 99.5871 515.892 99.3957 516.015 99.1718C516.139 98.9478 516.207 98.6979 516.214 98.4426L515.899 86.2715C515.887 85.8059 515.551 85.6217 515.146 85.8651L496.351 97.3232C496.135 97.4662 495.958 97.6586 495.833 97.8841C495.708 98.1096 495.64 98.3617 495.633 98.6191Z" fill="#FAFAFA"/>
<path d="M514.739 87.6191L514.135 87.9882L514.421 99.0431L515.025 98.674L514.739 87.6191Z" fill="#455A64"/>
<path d="M512.273 89.1287L511.224 89.7743L511.51 100.829L512.559 100.176L512.273 89.1287Z" fill="#455A64"/>
<path d="M509.801 90.63L509.189 90.9992L509.474 102.054L510.086 101.685L509.801 90.63Z" fill="#455A64"/>
<path d="M507.934 91.7469L506.726 92.5011L507.011 103.556L508.219 102.802L507.934 91.7469Z" fill="#455A64"/>
<path d="M504.857 93.6419L504.253 94.0109L504.539 105.066L505.143 104.697L504.857 93.6419Z" fill="#455A64"/>
<path d="M503.075 94.7L501.78 95.5126L502.066 106.568L503.361 105.755L503.075 94.7Z" fill="#455A64"/>
<path d="M499.913 96.6452L499.309 97.0222L499.595 108.077L500.199 107.7L499.913 96.6452Z" fill="#455A64"/>
<path d="M498.503 97.4932L498.201 97.6777L498.486 108.733L498.788 108.548L498.503 97.4932Z" fill="#455A64"/>
<path d="M501.041 96.0139L500.739 96.2065L501.024 107.253L501.326 107.069L501.041 96.0139Z" fill="#455A64"/>
<path d="M506.02 92.9454L505.718 93.1299L506.003 104.185L506.305 104L506.02 92.9454Z" fill="#455A64"/>
<path d="M508.745 91.2922L508.443 91.4768L508.729 102.532L509.031 102.347L508.745 91.2922Z" fill="#455A64"/>
<path d="M510.702 90.1492L510.4 90.3338L510.686 101.389L510.988 101.204L510.702 90.1492Z" fill="#455A64"/>
<path d="M513.354 88.4503L513.053 88.6348L513.338 99.6897L513.64 99.5052L513.354 88.4503Z" fill="#455A64"/>
<path d="M497.447 98.1548L496.835 98.5241L497.121 109.579L497.733 109.21L497.447 98.1548Z" fill="#455A64"/>
<path opacity="0.1" d="M465.524 79.9132L424.965 106.324L392.068 86.9087L432.794 62.4778L465.524 79.9132Z" fill="black"/>
<path d="M395.471 47.316L434.033 23.8206L462.305 41.0515L423.75 64.547L395.471 47.316Z" fill="#D3976E"/>
<g opacity="0.3">
<path d="M395.471 47.316L434.033 23.8206L462.305 41.0515L423.75 64.547L395.471 47.316Z" fill="white"/>
</g>
<path d="M433.655 27.1996L421.822 34.3925C421.607 34.5261 421.664 34.7732 421.948 34.9468L435.313 43.0881C435.448 43.1738 435.6 43.2251 435.757 43.2378C435.914 43.2506 436.072 43.2245 436.218 43.1616L448.051 35.9687C448.266 35.8351 448.209 35.588 447.924 35.4143L434.56 27.2797C434.426 27.1914 434.274 27.1381 434.117 27.1242C433.959 27.1102 433.801 27.1361 433.655 27.1996Z" fill="#FAFAFA"/>
<path d="M439.633 39.4415C439.675 39.441 439.716 39.429 439.753 39.4068C439.789 39.3846 439.82 39.3529 439.842 39.3147C439.859 39.2855 439.87 39.253 439.874 39.2191C439.879 39.1853 439.877 39.1508 439.869 39.1177C439.861 39.0847 439.846 39.0537 439.826 39.0267C439.806 38.9998 439.781 38.9773 439.753 38.9607L428.66 32.2086C428.605 32.1869 428.545 32.1866 428.49 32.2077C428.434 32.2289 428.388 32.2701 428.359 32.324C428.33 32.3779 428.32 32.441 428.332 32.5018C428.343 32.5627 428.374 32.6174 428.42 32.656L439.506 39.4148C439.546 39.433 439.589 39.4421 439.633 39.4415Z" fill="#E0E0E0"/>
<path d="M438.401 40.2231C438.445 40.223 438.488 40.2106 438.526 40.1871C438.564 40.1636 438.595 40.1299 438.616 40.0895C438.647 40.0289 438.654 39.9584 438.636 39.8925C438.618 39.8266 438.577 39.7704 438.521 39.7355L427.435 32.9433C427.378 32.9098 427.311 32.9015 427.248 32.9202C427.185 32.939 427.132 32.9834 427.1 33.0435C427.084 33.0724 427.074 33.1044 427.069 33.1375C427.065 33.1706 427.067 33.2043 427.076 33.2366C427.084 33.2689 427.098 33.2991 427.117 33.3256C427.137 33.352 427.161 33.3742 427.188 33.3908L438.281 40.1496C438.313 40.1871 438.355 40.2128 438.401 40.2231Z" fill="#E0E0E0"/>
<path d="M437.172 40.931C437.225 40.9285 437.275 40.9084 437.316 40.8735C437.357 40.8387 437.387 40.7909 437.4 40.7372C437.414 40.6835 437.41 40.6267 437.391 40.575C437.372 40.5234 437.337 40.4796 437.293 40.4501L426.2 33.6913C426.144 33.6572 426.077 33.6479 426.014 33.6654C425.951 33.6829 425.898 33.7258 425.865 33.7848C425.834 33.8446 425.826 33.9145 425.842 33.9803C425.859 34.0461 425.898 34.1028 425.953 34.1388L437.046 40.8909C437.085 40.9143 437.128 40.928 437.172 40.931Z" fill="#E0E0E0"/>
<path d="M435.938 41.6792C435.981 41.6786 436.023 41.666 436.06 41.6425C436.097 41.619 436.127 41.5856 436.147 41.5456C436.164 41.5164 436.175 41.4839 436.18 41.4501C436.184 41.4163 436.182 41.3818 436.174 41.3487C436.166 41.3157 436.151 41.2847 436.131 41.2577C436.112 41.2307 436.087 41.2083 436.058 41.1917L424.966 34.4396C424.938 34.4229 424.908 34.4121 424.877 34.4078C424.845 34.4035 424.813 34.4057 424.783 34.4144C424.752 34.4231 424.724 34.438 424.699 34.4584C424.673 34.4787 424.652 34.5041 424.637 34.5331C424.621 34.562 424.611 34.5939 424.607 34.6271C424.602 34.6602 424.605 34.6938 424.613 34.7261C424.621 34.7583 424.635 34.7885 424.654 34.815C424.674 34.8415 424.698 34.8637 424.725 34.8803L435.818 41.6391C435.853 41.6652 435.895 41.6792 435.938 41.6792Z" fill="#E0E0E0"/>
<path d="M446.929 35.6417L446.499 35.3746L441.449 38.4601L441.88 38.7206L446.929 35.6417Z" fill="#455A64"/>
<path d="M445.176 34.5731L444.429 34.119L439.373 37.1978L440.126 37.652L445.176 34.5731Z" fill="#455A64"/>
<path d="M443.416 33.4977L442.986 33.2372L437.937 36.3161L438.367 36.5766L443.416 33.4977Z" fill="#455A64"/>
<path d="M442.108 32.6896L441.235 32.1687L436.179 35.2475L437.052 35.7685L442.108 32.6896Z" fill="#455A64"/>
<path d="M439.91 31.3604L439.473 31.0932L434.424 34.1721L434.854 34.4392L439.91 31.3604Z" fill="#455A64"/>
<path d="M438.653 30.5792L437.722 30.0249L432.673 33.1037L433.603 33.6648L438.653 30.5792Z" fill="#455A64"/>
<path d="M436.401 29.2168L435.971 28.9563L430.915 32.0351L431.345 32.2956L436.401 29.2168Z" fill="#455A64"/>
<path d="M435.401 28.6088L435.185 28.4752L430.136 31.5541L430.351 31.681L435.401 28.6088Z" fill="#455A64"/>
<path d="M437.173 29.7243L436.958 29.5907L431.908 32.6696L432.123 32.8031L437.173 29.7243Z" fill="#455A64"/>
<path d="M440.729 31.868L440.513 31.7344L435.464 34.8133L435.679 34.9469L440.729 31.868Z" fill="#455A64"/>
<path d="M442.664 33.0505L442.449 32.9169L437.393 35.9958L437.608 36.1294L442.664 33.0505Z" fill="#455A64"/>
<path d="M444.032 33.9119L443.817 33.7784L438.768 36.8572L438.976 36.9908L444.032 33.9119Z" fill="#455A64"/>
<path d="M445.956 35.0404L445.741 34.9068L440.685 37.9856L440.9 38.1192L445.956 35.0404Z" fill="#455A64"/>
<path d="M434.641 28.1484L434.211 27.8879L429.161 30.9668L429.591 31.2273L434.641 28.1484Z" fill="#455A64"/>
<path d="M423.75 104.185L395.471 86.9538V47.316L423.75 64.5469V104.185Z" fill="#D3976E"/>
<path d="M423.75 104.185L395.471 86.9538V47.316L423.75 64.5469V104.185Z" fill="#D3976E"/>
<path d="M423.75 104.185L462.306 80.6893V41.0515L423.75 64.547V104.185Z" fill="#D3976E"/>
<path opacity="0.1" d="M423.75 104.185L462.306 80.6893V41.0515L423.75 64.547V104.185Z" fill="black"/>
<path d="M444.31 58.1419L440.57 60.426V54.295L444.31 52.0176V58.1419Z" fill="#37474F"/>
<path d="M440.57 54.295L412.297 37.064L416.037 34.7866L444.309 52.0175L440.57 54.295Z" fill="#455A64"/>
<path d="M458.738 76.8755C458.641 76.8738 458.546 76.8487 458.46 76.802C458.339 76.7088 458.243 76.584 458.182 76.44C458.121 76.2959 458.097 76.1376 458.112 75.9806V73.5763V73.4026H458.225L460.016 72.2939V74.9654C460.012 75.3108 459.93 75.6503 459.777 75.9557C459.624 76.2611 459.405 76.5238 459.137 76.7219C459.019 76.8085 458.881 76.8614 458.738 76.8755ZM458.396 73.7566V75.9806C458.384 76.0841 458.396 76.1893 458.433 76.2863C458.469 76.3833 458.529 76.4688 458.605 76.5349C458.668 76.5638 458.736 76.5747 458.804 76.5665C458.872 76.5583 458.936 76.5313 458.991 76.4881C459.214 76.316 459.395 76.0921 459.523 75.8338C459.65 75.5756 459.719 75.2899 459.725 74.9988V74.7984H459.092L458.959 73.8567L458.396 73.7566ZM459.314 74.4979H459.725V72.8349L458.662 73.5028L459.187 73.603L459.314 74.4979Z" fill="#455A64"/>
<path d="M459.059 78.7927C459.041 78.7927 459.023 78.7889 459.006 78.7815C458.989 78.7742 458.974 78.7633 458.961 78.7497C458.948 78.7361 458.938 78.7199 458.931 78.702C458.924 78.6842 458.92 78.6651 458.92 78.6458V76.6422C458.916 76.6198 458.916 76.5967 458.921 76.5744C458.926 76.5522 458.936 76.5314 458.949 76.5137C458.963 76.4959 458.98 76.4815 459 76.4717C459.019 76.4618 459.041 76.4567 459.063 76.4567C459.084 76.4567 459.106 76.4618 459.125 76.4717C459.145 76.4815 459.162 76.4959 459.176 76.5137C459.189 76.5314 459.199 76.5522 459.204 76.5744C459.209 76.5967 459.209 76.6198 459.205 76.6422V78.6458C459.205 78.6657 459.201 78.6853 459.194 78.7036C459.186 78.7219 459.176 78.7384 459.162 78.7521C459.148 78.7659 459.132 78.7765 459.115 78.7835C459.097 78.7905 459.078 78.7936 459.059 78.7927Z" fill="#455A64"/>
<path d="M458.236 79.2998C458.211 79.3003 458.186 79.2937 458.164 79.2808C458.142 79.2679 458.123 79.2492 458.11 79.2264C458.091 79.1917 458.086 79.1507 458.095 79.112C458.105 79.0734 458.128 79.0401 458.16 79.0193L459.825 78.0042C459.858 77.9844 459.896 77.979 459.933 77.9889C459.97 77.9989 460.001 78.0235 460.021 78.0576C460.031 78.0745 460.038 78.0935 460.041 78.1133C460.044 78.1331 460.043 78.1533 460.038 78.1726C460.033 78.192 460.025 78.2102 460.013 78.226C460.001 78.2418 459.987 78.255 459.97 78.2646L458.306 79.2798C458.285 79.2925 458.261 79.2994 458.236 79.2998Z" fill="#455A64"/>
<path d="M453.24 82.4257C453.185 82.426 453.131 82.4122 453.082 82.3856C453.025 82.3458 452.98 82.2908 452.95 82.2263C452.92 82.1617 452.906 82.09 452.911 82.0183V81.6309C452.911 81.5902 452.926 81.5511 452.954 81.5223C452.981 81.4935 453.018 81.4773 453.057 81.4773C453.095 81.479 453.131 81.4957 453.158 81.5241C453.185 81.5526 453.201 81.5907 453.202 81.6309V82.045C453.202 82.1118 453.202 82.1385 453.202 82.1452C453.202 82.1519 453.246 82.1452 453.297 82.1452C453.383 82.0596 453.451 81.9559 453.497 81.8409C453.543 81.7259 453.565 81.6021 453.563 81.4773V78.8059C453.558 78.7835 453.559 78.7603 453.564 78.7381C453.569 78.7159 453.579 78.6951 453.592 78.6773C453.606 78.6596 453.623 78.6452 453.643 78.6354C453.662 78.6255 453.684 78.6204 453.705 78.6204C453.727 78.6204 453.748 78.6255 453.768 78.6354C453.787 78.6452 453.805 78.6596 453.818 78.6773C453.832 78.6951 453.842 78.7159 453.847 78.7381C453.852 78.7603 453.852 78.7835 453.848 78.8059V81.4773C453.854 81.6567 453.821 81.8352 453.751 81.9987C453.68 82.1621 453.575 82.3061 453.443 82.419C453.377 82.4396 453.307 82.4419 453.24 82.4257Z" fill="#455A64"/>
<path d="M451.732 80.0743V79.8138C451.767 79.1448 451.951 78.4938 452.269 77.9137C452.587 77.3335 453.029 76.8405 453.561 76.4745C453.752 76.3044 453.988 76.2005 454.236 76.1769C454.485 76.1532 454.735 76.211 454.951 76.3424C455.167 76.4738 455.34 76.6723 455.446 76.9111C455.552 77.1498 455.585 77.4171 455.542 77.6767V77.7635L451.732 80.0743ZM454.441 76.4879C454.187 76.4996 453.941 76.5801 453.726 76.7216C453.271 77.0372 452.886 77.4521 452.597 77.9384C452.308 78.4247 452.121 78.9709 452.049 79.54L455.27 77.5765C455.283 77.3864 455.249 77.196 455.171 77.0239C455.093 76.8519 454.975 76.704 454.827 76.5947C454.71 76.5212 454.576 76.4841 454.441 76.4879Z" fill="#455A64"/>
<path d="M447.48 85.8184C447.462 85.8184 447.444 85.8146 447.427 85.8072C447.41 85.7999 447.395 85.789 447.382 85.7754C447.369 85.7617 447.359 85.7455 447.352 85.7277C447.345 85.7099 447.341 85.6908 447.341 85.6715V80.5222C447.337 80.4999 447.337 80.4767 447.342 80.4545C447.347 80.4322 447.357 80.4115 447.37 80.3937C447.384 80.3759 447.401 80.3616 447.421 80.3517C447.44 80.3419 447.462 80.3368 447.483 80.3368C447.505 80.3368 447.527 80.3419 447.546 80.3517C447.566 80.3616 447.583 80.3759 447.597 80.3937C447.61 80.4115 447.62 80.4322 447.625 80.4545C447.63 80.4767 447.63 80.4999 447.626 80.5222V85.6715C447.626 85.6913 447.622 85.711 447.615 85.7293C447.607 85.7476 447.596 85.7641 447.583 85.7778C447.569 85.7915 447.553 85.8022 447.535 85.8092C447.518 85.8162 447.499 85.8193 447.48 85.8184Z" fill="#455A64"/>
<path d="M447.057 81.6909H447C446.967 81.6724 446.941 81.6421 446.927 81.6054C446.913 81.5687 446.912 81.528 446.924 81.4905L447.437 80.2483L448.006 80.9162C448.024 80.947 448.031 80.9836 448.026 81.0194C448.021 81.0553 448.004 81.0881 447.979 81.1121C447.953 81.1361 447.92 81.1497 447.886 81.1505C447.851 81.1513 447.818 81.1393 447.791 81.1165L447.519 80.7893L447.19 81.5907C447.18 81.6195 447.162 81.6445 447.138 81.6623C447.114 81.6802 447.086 81.6901 447.057 81.6909Z" fill="#455A64"/>
<path d="M448.802 85.0239C448.783 85.0239 448.764 85.0199 448.746 85.0122C448.728 85.0045 448.712 84.9932 448.699 84.9789C448.685 84.9646 448.675 84.9477 448.667 84.9291C448.66 84.9104 448.656 84.8905 448.656 84.8703V79.7211C448.658 79.6808 448.674 79.6427 448.701 79.6143C448.728 79.5858 448.764 79.5691 448.802 79.5674C448.84 79.5674 448.877 79.5836 448.905 79.6124C448.932 79.6412 448.947 79.6803 448.947 79.7211V84.8703C448.947 84.911 448.932 84.9501 448.905 84.9789C448.877 85.0077 448.84 85.0239 448.802 85.0239Z" fill="#455A64"/>
<path d="M448.384 80.8962H448.327C448.309 80.889 448.292 80.8779 448.279 80.8637C448.265 80.8494 448.254 80.8324 448.247 80.8136C448.24 80.7947 448.237 80.7746 448.237 80.7543C448.238 80.734 448.243 80.7142 448.251 80.6959L448.763 79.4536L449.327 80.1215C449.34 80.1352 449.351 80.1518 449.359 80.1701C449.366 80.1885 449.37 80.2083 449.37 80.2283C449.37 80.2483 449.366 80.2682 449.359 80.2865C449.351 80.3049 449.34 80.3215 449.327 80.3352C449.299 80.3629 449.263 80.3785 449.225 80.3785C449.188 80.3785 449.151 80.3629 449.124 80.3352L448.858 80.0013L448.523 80.8027C448.513 80.8326 448.494 80.8581 448.469 80.875C448.443 80.892 448.413 80.8995 448.384 80.8962Z" fill="#455A64"/>
<path d="M426.788 87.8019V97.9201C426.788 98.3074 427.048 98.4677 427.364 98.274L442.329 89.1577C442.5 89.0426 442.641 88.8862 442.743 88.7014C442.844 88.5167 442.902 88.309 442.911 88.0958V77.9709C442.911 77.5836 442.652 77.4233 442.329 77.6236L427.364 86.7467C427.196 86.8618 427.056 87.0175 426.955 87.201C426.855 87.3845 426.798 87.5904 426.788 87.8019Z" fill="#FAFAFA"/>
<path d="M441.98 79.0727L441.499 79.3665V88.563L441.98 88.2692V79.0727Z" fill="#455A64"/>
<path d="M440.011 80.2683L439.182 80.7826V89.9791L440.011 89.4648V80.2683Z" fill="#455A64"/>
<path d="M438.051 81.464L437.563 81.7579V90.9543L438.051 90.6605V81.464Z" fill="#455A64"/>
<path d="M436.564 82.352L435.596 82.9597V92.1563L436.564 91.5485V82.352Z" fill="#455A64"/>
<path d="M434.114 83.8612L433.633 84.1551V93.3516L434.114 93.0577V83.8612Z" fill="#455A64"/>
<path d="M432.699 84.7028L431.668 85.3506V94.5538L432.699 93.8992V84.7028Z" fill="#455A64"/>
<path d="M430.18 86.2589L429.699 86.5528V95.7493L430.18 95.4554V86.2589Z" fill="#455A64"/>
<path d="M429.06 86.9338L428.819 87.0808V96.2773L429.06 96.1303V86.9338Z" fill="#455A64"/>
<path d="M431.078 85.7583L430.838 85.9052V95.1017L431.078 94.9548V85.7583Z" fill="#455A64"/>
<path d="M435.038 83.3069L434.798 83.4538V92.6503L435.038 92.5034V83.3069Z" fill="#455A64"/>
<path d="M437.208 81.9915L436.968 82.1384V91.3349L437.208 91.1879V81.9915Z" fill="#455A64"/>
<path d="M438.765 81.0835L438.524 81.2304V90.4269L438.765 90.28V81.0835Z" fill="#455A64"/>
<path d="M440.879 79.7272L440.639 79.8809V89.0773L440.879 88.9304V79.7272Z" fill="#455A64"/>
<path d="M428.209 87.4545L427.729 87.7484V96.9449L428.209 96.651V87.4545Z" fill="#455A64"/>
</svg>
