<svg width="585" height="320" viewBox="0 0 585 320" fill="none" xmlns="http://www.w3.org/2000/svg">
<path d="M12.1895 193.318H80.1199L76.2158 198.773H12.1895V193.318Z" fill="#D40511"/>
<path d="M572.42 198.773H489.264L493.559 193.318H572.811V198.773H572.42Z" fill="#D40511"/>
<path d="M12.1895 183.186H87.928L83.6335 188.642H12.1895V183.186Z" fill="#D40511"/>
<path d="M12.1895 173.054H95.7361L91.4416 178.51H12.1895V173.054Z" fill="#D40511"/>
<path d="M572.42 188.642H497.072L501.367 183.186H572.811V188.642H572.42Z" fill="#D40511"/>
<path d="M508.784 173.054H572.42V178.51H504.49L508.784 173.054Z" fill="#D40511"/>
<path d="M85.5857 198.773L121.503 150.843C121.503 150.843 161.324 150.843 166.009 150.843C171.084 150.843 171.084 152.791 168.352 155.908C166.009 159.026 161.715 164.871 159.372 167.989C158.201 169.937 155.859 172.665 163.276 172.665C171.475 172.665 223.008 172.665 223.008 172.665C218.323 179.679 201.926 199.163 173.036 199.163C149.612 198.773 85.5857 198.773 85.5857 198.773Z" fill="#D40511"/>
<path d="M291.329 173.054L271.809 199.163H220.666L240.186 173.054H291.329Z" fill="#D40511"/>
<path d="M365.896 173.054L346.376 199.163H294.843L314.363 173.054H365.896Z" fill="#D40511"/>
<path d="M382.684 173.054C382.684 173.054 378.779 178.12 377.218 180.458C370.581 189.031 376.437 199.163 397.519 199.163C421.724 199.163 480.285 199.163 480.285 199.163L499.805 173.054H382.684Z" fill="#D40511"/>
<path d="M110.962 121.227L93.0032 144.997C93.0032 144.997 185.529 144.997 190.604 144.997C195.68 144.997 195.68 146.946 192.947 150.063C190.604 153.181 186.31 159.026 183.967 162.143C182.796 163.702 180.454 166.819 187.872 166.819C196.07 166.819 227.693 166.819 227.693 166.819C227.693 166.819 234.33 158.246 239.405 150.842C246.823 141.1 240.186 120.837 214.029 120.837C190.604 121.227 110.962 121.227 110.962 121.227Z" fill="#D40511"/>
<path d="M370.191 166.819H244.48L278.836 121.227H330.369L310.849 147.335H333.883L353.403 121.227H404.937L370.191 166.819Z" fill="#D40511"/>
<path d="M475.99 121.227L441.635 166.819H386.978L421.334 121.227H475.99Z" fill="#D40511"/>
</svg>
