<svg width="585" height="319" viewBox="0 0 585 319" fill="none" xmlns="http://www.w3.org/2000/svg">
<path d="M540.802 210.937C540.802 203.21 535.309 197.552 527.742 197.552C520.188 197.552 514.689 203.21 514.689 210.937C514.689 218.651 520.188 224.3 527.742 224.3C535.309 224.3 540.802 218.642 540.802 210.937ZM524.311 211.623V220.366H521.479V201.088H528.515C532.638 201.088 534.53 202.884 534.53 206.385C534.53 208.542 533.069 210.25 531.186 210.498V210.579C532.82 210.839 533.42 212.294 533.757 214.955C534.014 216.679 534.357 219.67 534.973 220.372H531.623C530.844 218.56 530.922 215.996 530.322 213.849C529.826 212.216 528.952 211.62 527.076 211.62H524.326V211.629L524.311 211.623ZM527.821 209.131C530.57 209.131 531.356 207.67 531.356 206.382C531.356 204.859 530.57 203.655 527.821 203.655H524.311V209.137H527.821V209.131ZM511.574 210.937C511.574 201.417 519.151 194.981 527.73 194.981C536.333 194.981 543.9 201.417 543.9 210.937C543.9 220.438 536.337 226.88 527.73 226.88C519.151 226.88 511.574 220.438 511.574 210.937Z" fill="#FF5A00"/>
<path d="M455.586 224.099L436.961 203.263L418.499 224.099H379.653L417.62 181.549L379.653 138.987H419.712L438.526 159.663L456.629 138.987H495.287L457.509 181.371L495.812 224.099H455.586ZM305.059 224.099V90.0203H379.653V119.906H336.655V138.987H379.653V167.744H336.655V194.138H379.653V224.099H305.059Z" fill="#FF5A00"/>
<path d="M273.578 90.02V144.892H273.229C266.262 136.905 257.555 134.122 247.458 134.122C226.769 134.122 211.182 148.162 205.711 166.71C199.471 146.268 183.378 133.739 159.521 133.739C140.142 133.739 124.845 142.413 116.854 156.55V138.983H76.8037V119.909H120.515V90.0263H41.1028V224.099H76.8037V167.744H112.388C111.292 172.078 110.744 176.531 110.757 181C110.757 208.955 132.173 228.6 159.515 228.6C182.498 228.6 197.657 217.827 205.667 198.213H175.07C170.934 204.115 167.792 205.858 159.518 205.858C149.927 205.858 141.65 197.508 141.65 187.621H203.952C206.654 209.83 224 228.98 247.807 228.98C258.077 228.98 267.479 223.942 273.226 215.432H273.572V224.118H305.049V90.0263H273.578V90.02ZM142.643 168.145C144.632 159.625 151.254 154.058 159.518 154.058C168.618 154.058 174.903 159.453 176.553 168.145H142.643ZM254.475 203.695C242.877 203.695 235.668 192.915 235.668 181.656C235.668 169.619 241.94 158.055 254.475 158.055C267.482 158.055 272.664 169.625 272.664 181.656C272.664 193.06 267.177 203.695 254.475 203.695Z" fill="#29007C"/>
</svg>
