<svg width="1080" height="412" viewBox="0 0 1080 412" fill="none" xmlns="http://www.w3.org/2000/svg">
<g clip-path="url(#clip0_23_828)">
<path d="M849.227 0C858.953 12.2076 899.737 55.68 907.582 73.2457C915.428 90.8115 896.137 94.7229 896.3 105.395C896.464 116.066 913.407 124.392 908.561 137.276C903.716 150.16 874.118 175.129 867.229 182.7" stroke="#FFC727" strokeWidth="4" stroke-miterlimit="10" strokeLinejoin="round"/>
<path d="M739.261 102.825L714.225 113.74L741.663 123.591" stroke="#FA7272" strokeWidth="4" stroke-miterlimit="10" strokeLinecap="round" strokeLinejoin="round"/>
<path fill-rule="evenodd" clip-rule="evenodd" d="M815.948 104.759C818.66 104.331 821.282 103.903 823.938 103.543C830.475 102.441 836.896 101.278 843.184 99.8479C849.823 98.4078 856.46 96.9654 862.628 94.9342C865.088 94.1769 867.025 92.8958 868.299 91.1686C868.591 90.6873 868.854 90.139 868.874 89.4629C868.96 88.3814 867.783 87.0735 866.097 86.5265C863.692 85.5961 861.45 85.5394 859.145 85.3489C857.482 85.2456 855.877 85.2254 854.324 85.2787C848.033 85.4946 842.601 86.9224 837.655 88.9846C830.213 92.2061 824.501 96.7821 819.083 101.416C817.921 102.469 816.809 103.45 815.701 104.433L815.948 104.759ZM862.51 130.796C860.075 130.88 857.452 130.768 854.883 130.587C845.96 130.084 836.677 128.314 827.655 125.456C823.314 124.188 819.199 122.306 815.498 120.009C810.863 117.066 807.888 113.73 807.683 109.897C807.658 109.443 807.505 109.334 807.151 109.347C807.031 109.351 806.89 109.368 806.726 109.39C803.146 109.851 799.446 110.247 795.833 110.641C791.176 111.071 786.519 111.5 781.862 111.93C776.736 112.307 771.73 112.749 766.539 112.995C761.295 113.308 756.169 113.686 750.978 113.932C743.765 114.381 736.363 114.635 729.086 114.953C727.432 115.01 725.776 115.067 724.187 115.255C723.639 115.308 723.06 115.345 722.471 115.365C721.884 115.385 721.289 115.388 720.704 115.374C719.455 115.352 718.106 114.589 717.648 113.66C717.191 112.733 717.691 112.31 719.169 112.259C720.182 112.159 721.161 111.989 722.206 111.953C727.485 111.704 732.826 111.589 738.158 111.272C745.025 110.833 751.958 110.529 758.822 110.089C764.765 109.752 770.673 109.347 776.463 108.879C781.674 108.499 786.855 108.051 792 107.537C796.888 107.031 801.772 106.526 806.658 106.023C808.106 105.905 809.271 105.394 809.803 104.499C810.28 103.674 810.91 102.979 811.661 102.346C816.165 98.0132 821.18 93.998 826.827 90.3668C834.028 85.8611 842.275 82.5318 853.021 82.163C854.69 82.1057 856.42 82.1192 858.218 82.213C860.808 82.2577 863.592 82.7014 866.316 83.5529C871.037 84.8727 874.237 88.6715 873.205 91.6075C872.477 94.2609 870.094 95.8926 867.114 97.207C863.696 98.539 860.062 99.6063 856.212 100.411C849.563 102.192 842.664 103.641 835.613 104.961C829.141 106.194 822.633 107.362 815.724 108.071C811.186 108.562 811.284 109.841 812.744 113.16C813.876 115.818 816.772 117.74 820.024 119.314C826.774 122.585 833.912 124.497 841.105 125.801C849.178 127.246 857.089 127.871 864.657 127.611C866.279 127.555 867.884 127.459 869.476 127.322C873.851 127.038 878.127 126.553 882.305 125.871C891.989 124.324 900.985 121.926 909.365 118.808C914.664 116.807 919.32 114.22 922.126 110.215C924.616 106.826 924.755 102.441 922.709 97.9274C921.239 94.9461 919.3 91.9105 916.85 89.0965C911.201 82.4836 905.008 76.023 899.128 69.4861C891.769 61.3796 884.357 53.3454 877.031 45.3058C866.188 33.5463 855.399 21.7169 844.646 9.95427C843.315 8.5157 841.988 7.07939 840.749 5.64008C839.723 4.5554 840.356 3.47207 841.834 3.42135C841.96 3.41705 842.089 3.4199 842.226 3.43222C843.489 3.65849 844.109 4.37814 844.695 5.03092C850.543 11.5034 856.476 17.9729 862.288 24.3786C869.733 32.4796 877.062 40.5191 884.475 48.5557C894.98 59.9892 905.517 71.4896 916.023 82.9255C919.571 86.7123 922.576 90.6539 925.056 94.6111C926.017 96.7353 927.323 98.8476 927.932 100.984C929.088 105.123 928.598 108.982 926.445 112.156C923.497 116.234 918.886 119.089 913.337 121.3C906.763 123.953 899.55 126.02 892.021 127.626C884.701 129.294 876.789 130.306 868.519 130.59L862.51 130.796Z" fill="#FA7272"/>
<path opacity="0.4" d="M263.934 411.56C212.353 411.56 170.538 406.286 170.538 399.78C170.538 393.274 212.353 388 263.934 388C315.516 388 357.331 393.274 357.331 399.78C357.331 406.286 315.516 411.56 263.934 411.56Z" fill="#263238" fill-opacity="0.12"/>
<path d="M351.912 396.973C349.47 397.778 278.978 396.863 276.316 395.119C275.302 394.484 274.826 384.212 274.631 371.794C274.631 371.672 273.41 325.924 273.41 325.924L318.504 326.387L320.006 372.257C320.006 372.257 346.869 384.664 349.543 386.896C352.217 389.129 354.379 396.192 351.912 396.973Z" fill="#FFC4C0"/>
<path d="M272.587 357.301C272.783 365.23 272.954 371.562 272.954 371.611C273.149 384.029 273.625 394.277 274.639 394.936C277.301 396.668 347.768 397.583 350.223 396.778C352.677 395.973 350.613 388.897 347.915 386.689C345.216 384.481 318.377 372.05 318.377 372.05L317.889 357.276L272.587 357.301Z" fill="#DBDBDB"/>
<path d="M329.062 376.88C328.879 376.88 328.781 376.771 328.769 376.722L329.062 376.88Z" fill="#FFC727"/>
<path d="M351.603 396.68C349.991 397.205 320.013 397.119 298.193 396.522C293.15 396.375 288.522 396.204 284.761 396.021C279.633 395.753 276.214 395.448 275.628 395.094C274.407 394.289 273.906 379.235 273.723 363.376L319.769 363.681L319.476 371.964C319.476 371.964 346.45 384.334 349.197 386.604C351.944 388.873 354.069 395.924 351.603 396.68Z" fill="#FFC727"/>
<path d="M349.331 393.899C337.475 393.496 289.597 392.984 277.838 393.496C277.752 393.496 277.752 393.557 277.838 393.569C289.584 394.216 337.463 394.338 349.331 394.094C349.637 394.082 349.637 393.911 349.331 393.899Z" fill="#263238"/>
<path d="M320.026 369.402C315.373 368.487 309.659 369.146 306.057 372.44C305.91 372.562 306.057 372.769 306.252 372.721C310.723 371.317 315.333 370.401 320.001 369.988C320.079 369.991 320.155 369.963 320.212 369.911C320.269 369.858 320.303 369.785 320.307 369.707C320.31 369.63 320.282 369.554 320.229 369.497C320.177 369.44 320.103 369.406 320.026 369.402Z" fill="#263238"/>
<path d="M323.347 371.464C318.683 370.549 312.968 371.208 309.366 374.502C309.231 374.624 309.366 374.819 309.561 374.782C314.037 373.38 318.651 372.464 323.323 372.05C323.4 372.053 323.476 372.025 323.533 371.972C323.591 371.92 323.625 371.847 323.628 371.769C323.631 371.691 323.603 371.616 323.551 371.558C323.498 371.501 323.425 371.467 323.347 371.464Z" fill="#263238"/>
<path d="M326.693 373.501C322.028 372.586 316.314 373.245 312.724 376.539C312.577 376.661 312.724 376.856 312.919 376.82C317.39 375.416 322 374.5 326.668 374.087C326.746 374.09 326.822 374.062 326.879 374.01C326.936 373.957 326.97 373.884 326.974 373.806C326.977 373.729 326.949 373.653 326.896 373.596C326.844 373.539 326.77 373.505 326.693 373.501Z" fill="#263238"/>
<path d="M330.038 375.587C325.386 374.672 319.672 375.331 316.069 378.625C315.935 378.747 316.069 378.942 316.265 378.893C320.738 377.5 325.347 376.588 330.014 376.173C330.053 376.175 330.091 376.169 330.127 376.155C330.163 376.142 330.197 376.122 330.225 376.096C330.253 376.07 330.276 376.038 330.292 376.004C330.309 375.969 330.318 375.931 330.319 375.892C330.321 375.854 330.315 375.816 330.302 375.779C330.288 375.743 330.268 375.71 330.242 375.682C330.216 375.653 330.185 375.631 330.15 375.614C330.115 375.598 330.077 375.589 330.038 375.587Z" fill="#263238"/>
<path d="M258.569 122.951C258.569 122.951 270.06 242.175 271.781 251.251C272.184 253.325 272.856 367.865 272.856 367.865L320.954 367.133C320.954 367.133 316.277 268.599 314.079 250.471C311.881 232.342 301.575 122.951 301.575 122.951H258.569Z" fill="#263238"/>
<path d="M274.333 357.862C275.77 357.665 277.218 357.559 278.668 357.545L283.015 357.337L291.563 357.008C297.363 356.8 303.163 356.617 308.951 356.398C312.211 356.276 315.483 356.276 318.719 356.3C318.745 356.3 318.77 356.311 318.788 356.329C318.807 356.347 318.817 356.372 318.817 356.398C318.817 356.424 318.807 356.449 318.788 356.467C318.77 356.485 318.745 356.495 318.719 356.495C307.192 357.715 295.519 357.911 283.968 358.191L278.998 358.277C277.427 358.35 275.853 358.325 274.284 358.203C274.089 358.179 274.15 357.886 274.333 357.862Z" fill="#37474F"/>
<path d="M292.845 79.0817C302.271 89.0974 335.741 109.983 349.124 106.579C359.881 103.846 386.501 82.5098 392.997 77.0322C398.479 72.4087 378.503 49.9252 373.46 52.8775C367.147 56.5373 349.661 78.7036 343.043 79.4233C340.442 79.7039 321.992 75.1658 299.756 69.493C291.123 67.2972 287.216 73.1163 292.845 79.0817Z" fill="#FFC4C0"/>
<path d="M392.997 77.0566C395.561 74.9827 406.428 64.4669 408.871 60.868C411.313 57.2692 417.333 46.3874 414.756 44.2891C412.18 42.1908 410.14 45.2284 410.14 45.2284C410.14 45.2284 411.984 40.2389 409.188 38.3602C406.392 36.4815 403.388 41.3246 403.388 41.3246C403.388 41.3246 404.914 36.0545 401.996 34.3832C399.078 32.7119 396.867 38.043 396.867 38.043C396.867 38.043 398.479 33.2975 395.5 32.9315C391.91 32.4801 389.932 41.5808 386.952 45.3626C386.293 46.2288 372.3 61.8196 372.3 61.8196L392.997 77.0566Z" fill="#FFC4C0"/>
<path d="M396.953 37.5916C395.488 44.2769 393.681 46.9486 388.943 51.7429C388.845 51.8405 388.943 51.9991 389.065 51.9015C394.145 47.6317 396.88 44.5819 397.283 37.6404C397.368 37.3111 397.087 37.2745 396.953 37.5916Z" fill="#263238"/>
<path d="M403.449 40.7635C401.312 47.5707 399.383 50.523 394.792 55.8663C394.718 55.9517 394.792 56.0615 394.914 55.9883C399.871 51.1085 402.533 48.0099 403.779 40.9221C403.84 40.6049 403.547 40.4585 403.449 40.7635Z" fill="#263238"/>
<path d="M409.847 45.4724C407.308 51.9259 405.329 55.2319 400.189 59.8677C400.163 59.8887 400.146 59.9191 400.143 59.9523C400.139 59.9855 400.149 60.0187 400.17 60.0445C400.191 60.0704 400.222 60.0869 400.255 60.0903C400.288 60.0938 400.322 60.0839 400.347 60.0628C405.354 56.6889 408.832 51.4835 410.031 45.57C410.14 45.1552 410.006 45.0698 409.847 45.4724Z" fill="#263238"/>
<path d="M365.718 61.0388C365.718 61.0388 368.526 52.9384 370.602 49.6568C372.678 46.3752 384.681 36.8962 386.879 39.3727C389.712 42.5811 383.839 49.425 380.517 52.4016C380.517 52.4016 387.087 59.8189 383.924 65.638C380.762 71.4571 365.718 61.0388 365.718 61.0388Z" fill="#FFC4C0"/>
<path d="M387.319 40.5195C387.795 45.3017 383.192 48.9249 380.188 52.0479C380.139 52.0911 380.102 52.1457 380.08 52.2068C380.058 52.2679 380.052 52.3335 380.061 52.3976C380.071 52.4618 380.097 52.5226 380.136 52.5744C380.175 52.6263 380.226 52.6675 380.285 52.6945C382.825 55.9883 385.451 61.3683 384.132 65.5648C384.131 65.5879 384.137 65.6107 384.15 65.6299C384.163 65.6491 384.181 65.6638 384.203 65.6719C384.225 65.68 384.248 65.6811 384.271 65.675C384.293 65.669 384.313 65.656 384.327 65.638C386.354 61.3317 384.193 55.8785 381.177 52.4139C384.303 49.2543 388.772 45.4115 387.368 40.5073C387.355 40.4585 387.319 40.4585 387.319 40.5195Z" fill="#263238"/>
<path d="M265.078 128.209C268.582 157.28 272.099 186.351 274.993 215.495C276.434 229.939 277.789 244.42 278.656 258.913C279.523 273.405 279.877 288.191 280.121 302.83C280.353 319.373 280.732 335.927 280.475 352.47C280.475 352.628 280.243 352.616 280.231 352.47C278.79 323.191 279.205 293.913 277.655 264.634C276.104 235.356 272.917 206.26 269.693 177.14C267.894 160.874 266.169 144.576 264.516 128.245C264.516 127.965 265.078 127.904 265.078 128.209Z" fill="#37474F"/>
<path d="M252.305 402.292C249.717 402.487 181.41 385.213 179.224 382.871C178.382 382.017 180.336 371.891 183.034 359.802C183.056 359.674 183.084 359.548 183.12 359.423C183.669 356.983 198.066 314.908 198.066 314.908L242.378 326.314L227.31 370.086L227.103 370.83C227.103 370.83 250.303 389.129 252.415 391.935C254.528 394.741 254.894 402.109 252.305 402.292Z" fill="#FFC4C0"/>
<path d="M179.237 382.871C181.41 385.188 249.704 402.487 252.293 402.292C254.882 402.097 254.515 394.716 252.403 391.935C250.291 389.153 227.102 370.83 227.102 370.83L227.31 370.098L231.743 357.252C223.122 354.483 200.959 348.956 187.601 345.699C185.22 352.787 183.315 358.533 183.12 359.411C183.12 359.545 183.059 359.68 183.034 359.802C180.336 371.915 178.382 382.041 179.237 382.871Z" fill="#DBDBDB"/>
<path d="M252.403 402.609C250.718 402.719 221.644 395.411 200.617 389.568C195.733 388.214 191.313 386.933 187.735 385.908C182.851 384.408 179.554 383.285 179.102 382.797C178.089 381.724 181.251 366.999 184.915 351.567L229.52 362.949L227.237 370.927C227.237 370.927 250.425 389.361 252.549 392.191C254.674 395.021 254.992 402.414 252.403 402.609Z" fill="#FFC727"/>
<path d="M252.134 399.608C240.717 396.363 194.378 384.334 182.851 381.98C182.753 381.98 182.741 381.98 182.851 382.053C194.085 385.518 240.522 397.18 252.098 399.803C252.33 399.852 252.366 399.681 252.134 399.608Z" fill="#263238"/>
<path d="M229.52 368.756C225.21 366.743 219.507 366.011 215.221 368.329C215.05 368.427 215.221 368.658 215.344 368.646C220.023 368.375 224.717 368.6 229.349 369.317C229.424 369.34 229.504 369.332 229.573 369.295C229.641 369.259 229.693 369.196 229.716 369.122C229.738 369.047 229.73 368.967 229.694 368.898C229.657 368.83 229.595 368.779 229.52 368.756Z" fill="#263238"/>
<path d="M232.268 371.562C227.969 369.549 222.255 368.817 217.969 371.135C217.81 371.232 217.969 371.464 218.103 371.452C222.782 371.181 227.477 371.406 232.109 372.123C232.181 372.136 232.255 372.122 232.317 372.084C232.379 372.045 232.425 371.985 232.445 371.915C232.464 371.844 232.457 371.769 232.425 371.704C232.392 371.639 232.336 371.588 232.268 371.562Z" fill="#263238"/>
<path d="M235.027 374.368C230.717 372.355 225.014 371.623 220.728 373.953C220.558 374.038 220.728 374.27 220.851 374.258C225.53 373.985 230.226 374.214 234.856 374.941C234.927 374.948 234.997 374.93 235.056 374.89C235.114 374.851 235.157 374.792 235.177 374.724C235.197 374.657 235.194 374.584 235.166 374.519C235.139 374.454 235.09 374.401 235.027 374.368Z" fill="#263238"/>
<path d="M237.775 377.161C233.476 375.148 227.774 374.416 223.476 376.746C223.317 376.832 223.476 377.064 223.61 377.064C228.289 376.781 232.985 377.006 237.616 377.735C237.685 377.738 237.753 377.717 237.809 377.677C237.865 377.636 237.906 377.578 237.924 377.511C237.943 377.444 237.938 377.374 237.911 377.31C237.884 377.246 237.836 377.194 237.775 377.161Z" fill="#263238"/>
<path d="M231.572 366.67L182.851 354.934C182.851 354.934 219.324 260.096 221.388 253.679C222.878 249.056 234.978 192.682 239.215 168.015C239.215 168.015 232.878 150.033 247.091 122.878H301.575C301.575 122.878 300.293 148.728 293.748 165.112C289.353 166.682 285.11 168.65 281.074 170.992C281.074 170.992 265.468 259.205 262.904 267.245C257.348 284.592 231.572 366.67 231.572 366.67Z" fill="#263238"/>
<path d="M272.404 218.142C274.374 207.757 276.324 197.367 278.253 186.973C278.803 184.033 279.474 181.117 280.036 178.189C280.597 175.262 281.159 172.321 282.002 169.479C282.063 169.296 282.356 169.333 282.344 169.479C282.185 172.138 281.696 174.786 281.342 177.421C280.988 180.056 280.61 182.545 280.121 185.094C279.23 190.328 278.253 195.549 277.264 200.77C275.274 211.189 273.295 221.644 270.866 231.964C269.51 237.783 268.228 243.615 266.787 249.409C266.787 249.531 266.58 249.482 266.604 249.409C268.472 238.967 270.438 228.561 272.404 218.142Z" fill="#37474F"/>
<path d="M283.882 157.963C283.149 156.145 283.736 154.059 284.065 152.217C284.48 149.883 284.887 147.545 285.286 145.202C286.263 139.932 287.338 134.686 288.473 129.441H288.559C288.046 133.621 287.484 137.805 286.874 141.994C286.263 146.19 285.457 150.375 284.932 154.584C284.774 155.95 284.932 158.634 286.862 158.646C288.522 158.646 289.536 156.206 290.073 154.986C291.478 151.249 292.497 147.378 293.113 143.433C294.078 138.798 294.872 134.125 295.678 129.465C295.678 129.306 295.971 129.355 295.958 129.465C295.672 134.1 295.146 138.718 294.383 143.299C293.675 147.654 292.991 152.241 291.16 156.291C290.464 157.816 289.499 159.683 287.741 160.159C287.494 160.226 287.239 160.259 286.984 160.256C286.837 161.647 286.617 163.026 286.336 164.392C286.07 165.832 285.698 167.251 285.225 168.637C285.225 168.679 285.209 168.72 285.179 168.749C285.149 168.779 285.109 168.796 285.067 168.796C285.024 168.796 284.984 168.779 284.954 168.749C284.925 168.72 284.908 168.679 284.908 168.637C285.017 167.205 285.229 165.782 285.543 164.38C285.815 163 286.162 161.636 286.581 160.293C285.966 160.174 285.394 159.897 284.92 159.488C284.447 159.079 284.089 158.553 283.882 157.963Z" fill="#37474F"/>
<path d="M274.749 171.565C277.522 170.314 280.42 169.357 283.394 168.71C286.257 168.086 289.163 167.679 292.088 167.491C292.198 167.491 292.222 167.661 292.088 167.686C289.182 168.137 277.655 170.967 274.773 171.675C274.724 171.724 274.675 171.602 274.749 171.565Z" fill="#37474F"/>
<path d="M203.695 320.398C206.291 313.485 208.9 306.572 211.522 299.659C216.699 285.947 222.035 272.295 227.2 258.571C232.365 244.847 234.465 230.598 237.249 216.422C238.666 209.2 240.082 201.974 241.499 194.744C242.915 187.595 244.625 180.422 245.467 173.163C246.31 165.905 245.223 158.963 245.846 151.863C246.407 145.514 248.102 139.316 250.852 133.564C251.548 132.112 252.317 130.697 253.148 129.319C253.245 129.148 253.49 129.319 253.404 129.465C250.207 135.397 248.075 141.842 247.103 148.508C246.648 151.818 246.472 155.16 246.578 158.5C246.676 162.086 246.933 165.661 246.762 169.247C246.42 176.408 244.747 183.46 243.379 190.474C242.012 197.489 240.559 204.784 239.142 211.933C237.726 219.082 236.297 226.377 234.881 233.599C233.641 240.654 231.948 247.622 229.813 254.46C227.518 261.267 224.782 268.001 222.34 274.687C219.715 281.604 217.102 288.521 214.452 295.425C209.189 309.174 204.024 322.972 198.517 336.623C197.87 338.221 197.223 339.795 196.527 341.356C196.429 341.576 196.099 341.417 196.173 341.197C198.358 334.195 201.094 327.315 203.695 320.398Z" fill="#37474F"/>
<path d="M188.443 344.747C189.879 344.973 191.298 345.291 192.693 345.699L196.905 346.773L205.172 348.92L221.986 353.385C225.136 354.226 228.262 355.166 231.376 356.142C231.395 356.149 231.411 356.161 231.422 356.177C231.434 356.194 231.44 356.213 231.44 356.233C231.44 356.253 231.434 356.273 231.422 356.289C231.411 356.305 231.395 356.318 231.376 356.325C220.008 354.092 208.799 350.945 197.638 347.858C196.038 347.419 194.439 346.956 192.851 346.492C191.324 346.114 189.823 345.637 188.358 345.065C188.15 344.979 188.272 344.723 188.443 344.747Z" fill="#37474F"/>
<path d="M318.304 101.004L310.978 99.7109C309.646 95.1387 309.77 90.266 311.332 85.7671C311.661 84.7301 307.937 90.3174 307.229 99.0522C299.439 97.698 288.84 95.8315 279.596 94.1724C280.133 90.5126 280.475 87.1578 280.475 87.1578C279.714 89.457 278.746 91.6824 277.581 93.8064C276.36 93.5868 275.078 93.3429 273.918 93.1233C274.996 88.0229 275.791 82.8669 276.299 77.6789C274.565 82.8788 271.986 87.7585 268.668 92.1229C262.819 90.964 258.985 90.11 259.29 89.8782C270.17 81.5095 264.858 74.3728 269.156 65.9553C274.321 55.8542 283.894 56.0006 285.225 47.9124C286.324 41.3247 287.887 29.2962 296.667 28.3934C299.34 26.6535 302.467 25.7394 305.658 25.7654C308.848 25.7914 311.96 26.7565 314.604 28.5398C326.668 36.14 317.474 55.2808 317.535 59.5506C317.632 65.6503 319.977 68.2853 320.758 75.4098C321.54 82.5342 317.559 86.4746 316.289 90.9884C315.019 95.5021 319.769 101.285 318.304 101.004Z" fill="#263238"/>
<path d="M259.241 88.3289C260.807 86.8085 262.151 85.0755 263.234 83.1808C264.162 81.2871 264.582 79.1856 264.455 77.0811C264.455 74.8974 264.455 72.6649 264.675 70.408C264.889 68.0932 265.565 65.8447 266.665 63.796C267.814 61.761 269.419 60.0197 271.354 58.7088C273.216 57.4559 275.181 56.3622 277.227 55.4394C279.204 54.5655 281.056 53.4333 282.734 52.0724C284.375 50.6325 285.591 48.7722 286.251 46.6924C285.892 48.9385 284.852 51.0205 283.272 52.6579C281.665 54.2466 279.824 55.5796 277.813 56.6105C275.9 57.614 274.052 58.7386 272.282 59.9776C270.595 61.2083 269.195 62.7899 268.179 64.6133C267.2 66.4747 266.574 68.5016 266.335 70.591C266.042 72.7015 266.018 74.8852 265.859 77.1177C265.797 78.2501 265.646 79.3759 265.407 80.4847C265.133 81.6173 264.657 82.6915 264.003 83.6565C262.705 85.4835 261.093 87.0656 259.241 88.3289Z" fill="#263238"/>
<path d="M320.429 37.4819C320.827 40.184 320.897 42.9244 320.636 45.6433C320.441 48.3637 320.111 51.0598 319.757 53.7558L319.244 57.7694C319.071 59.063 319.017 60.3699 319.086 61.6732C319.371 64.2752 320.124 66.8043 321.308 69.1392C321.873 70.4104 322.351 71.7188 322.737 73.0552C323.118 74.4243 323.344 75.8321 323.408 77.2518C323.435 78.6545 323.358 80.0573 323.176 81.4484C322.991 82.8437 322.638 84.2117 322.126 85.523C321.613 86.8405 320.905 88.0605 320.392 89.256C319.817 90.4294 319.355 91.6549 319.012 92.9158C318.709 94.2075 318.721 95.553 319.046 96.8394C319.371 98.1257 320 99.3154 320.881 100.309C319.845 99.3656 319.057 98.1825 318.586 96.8635C318.115 95.5445 317.977 94.1302 318.182 92.745C318.436 91.3804 318.825 90.0442 319.342 88.7558C319.843 87.4627 320.429 86.316 320.832 85.0106C321.6 82.5126 321.91 79.8966 321.747 77.2884C321.659 75.9996 321.434 74.7237 321.076 73.4822C320.693 72.233 320.228 71.0104 319.684 69.8224C319.117 68.5557 318.616 67.2609 318.182 65.943C317.748 64.5867 317.489 63.1805 317.413 61.7586C317.38 60.3497 317.478 58.9407 317.706 57.5498C317.901 56.1957 318.145 54.866 318.39 53.524C318.866 50.8524 319.379 48.2051 319.782 45.5335C320.265 42.8779 320.482 40.1806 320.429 37.4819Z" fill="#263238"/>
<path d="M365.596 58.2574L378.393 90.964C378.393 90.964 358.587 106.823 347.549 108.202C336.51 109.58 307.095 93.5014 296.557 84.7911C286.019 76.0807 283.845 64.9549 302.394 68.9319C320.942 72.9089 342.286 78.301 342.86 78.3254C343.434 78.3498 365.596 58.2574 365.596 58.2574Z" fill="#FFC727"/>
<path d="M293.675 68.2365C293.87 68.2244 294.066 68.2244 294.261 68.2365C294.105 68.5202 294.025 68.8397 294.029 69.1636C294.023 69.4787 294.089 69.791 294.221 70.0772C294.353 70.3633 294.548 70.6158 294.792 70.8158C295.036 71.0157 295.322 71.1579 295.628 71.2316C295.935 71.3054 296.254 71.3087 296.562 71.2415C296.871 71.1742 297.159 71.0381 297.407 70.8433C297.655 70.6486 297.856 70.4002 297.994 70.1169C298.132 69.8336 298.204 69.5227 298.205 69.2076C298.205 68.8925 298.135 68.5813 297.998 68.2975L298.559 68.3707C298.648 68.6257 298.693 68.8937 298.694 69.1636C298.694 69.8495 298.421 70.5074 297.935 70.9924C297.45 71.4774 296.792 71.7499 296.105 71.7499C295.418 71.7499 294.76 71.4774 294.274 70.9924C293.789 70.5074 293.516 69.8495 293.516 69.1636C293.506 68.847 293.56 68.5316 293.675 68.2365ZM344.447 107.799C344.976 107.798 345.492 107.96 345.925 108.263C345.07 108.244 344.218 108.171 343.372 108.043C343.707 107.881 344.075 107.798 344.447 107.799ZM330.698 98.4299C331.21 98.4299 331.71 98.5816 332.136 98.8658C332.562 99.15 332.894 99.5539 333.089 100.026C333.285 100.499 333.337 101.019 333.237 101.521C333.137 102.022 332.89 102.483 332.528 102.845C332.166 103.207 331.705 103.453 331.203 103.553C330.701 103.653 330.18 103.601 329.707 103.406C329.234 103.21 328.83 102.878 328.545 102.453C328.261 102.028 328.109 101.528 328.109 101.016C328.112 100.34 328.379 99.6908 328.853 99.2079C329.328 98.7249 329.972 98.4458 330.649 98.4299H330.698ZM330.698 103.09C331.111 103.09 331.515 102.967 331.859 102.738C332.203 102.508 332.47 102.181 332.628 101.799C332.786 101.418 332.826 100.997 332.745 100.592C332.663 100.188 332.463 99.8158 332.17 99.5246C331.877 99.2333 331.503 99.0356 331.098 98.9565C330.692 98.8774 330.272 98.9204 329.89 99.0802C329.509 99.24 329.184 99.5093 328.956 99.8539C328.728 100.199 328.607 100.603 328.61 101.016C328.613 101.559 328.827 102.079 329.208 102.466C329.589 102.854 330.106 103.077 330.649 103.09H330.698ZM314.922 71.7743L315.557 71.9085C315.258 72.1064 315.016 72.378 314.854 72.6971C314.692 73.0161 314.615 73.3717 314.631 73.7292C314.647 74.0867 314.755 74.434 314.945 74.7373C315.135 75.0406 315.401 75.2896 315.716 75.46C316.031 75.6305 316.384 75.7166 316.743 75.71C317.101 75.7034 317.451 75.6044 317.76 75.4225C318.068 75.2406 318.324 74.982 318.503 74.6719C318.682 74.3619 318.777 74.0109 318.78 73.653C318.78 73.2776 318.674 72.9098 318.475 72.5916L319.11 72.738C319.225 73.0292 319.283 73.3399 319.281 73.653C319.282 74.0822 319.177 74.5049 318.974 74.8832C318.771 75.2614 318.477 75.5832 318.118 75.8196C317.759 76.056 317.348 76.1995 316.92 76.2373C316.492 76.275 316.061 76.2057 315.667 76.0357C315.272 75.8658 314.926 75.6004 314.66 75.2635C314.394 74.9266 314.216 74.5289 314.142 74.1061C314.068 73.6833 314.101 73.2488 314.237 72.8418C314.373 72.4347 314.608 72.0678 314.922 71.7743ZM355.681 96.3438C356.192 96.3462 356.691 96.4997 357.114 96.7848C357.538 97.0699 357.868 97.4739 358.063 97.946C358.257 98.4181 358.307 98.9371 358.207 99.4376C358.107 99.9382 357.86 100.398 357.499 100.759C357.138 101.12 356.678 101.366 356.177 101.466C355.676 101.566 355.156 101.516 354.684 101.322C354.211 101.128 353.807 100.798 353.521 100.375C353.236 99.9511 353.082 99.4528 353.08 98.9423C353.08 98.2531 353.354 97.5922 353.842 97.1049C354.329 96.6176 354.991 96.3438 355.681 96.3438ZM355.681 101.016C356.094 101.016 356.499 100.894 356.842 100.664C357.186 100.434 357.453 100.107 357.611 99.7256C357.769 99.3437 357.809 98.9236 357.728 98.5186C357.646 98.1136 357.446 97.7419 357.153 97.4507C356.86 97.1594 356.487 96.9617 356.081 96.8826C355.675 96.8035 355.255 96.8466 354.873 97.0063C354.492 97.1661 354.167 97.4354 353.939 97.78C353.711 98.1247 353.59 98.5292 353.593 98.9423C353.596 99.4934 353.817 100.021 354.209 100.41C354.6 100.798 355.129 101.016 355.681 101.016ZM362.763 82.5219C363.275 82.5219 363.776 82.6736 364.201 82.9578C364.627 83.242 364.959 83.6459 365.155 84.1185C365.351 84.5911 365.402 85.1111 365.302 85.6128C365.202 86.1145 364.956 86.5753 364.593 86.937C364.231 87.2987 363.77 87.545 363.268 87.6448C362.766 87.7446 362.245 87.6934 361.772 87.4976C361.299 87.3019 360.895 86.9704 360.611 86.545C360.326 86.1197 360.174 85.6197 360.174 85.1082C360.178 84.4233 360.451 83.7673 360.936 83.283C361.421 82.7987 362.077 82.5251 362.763 82.5219ZM362.763 87.1821C363.177 87.1821 363.581 87.0594 363.924 86.8297C364.268 86.5999 364.536 86.2734 364.693 85.8915C364.851 85.5096 364.892 85.0895 364.81 84.6845C364.728 84.2795 364.528 83.9078 364.235 83.6166C363.942 83.3253 363.569 83.1276 363.163 83.0485C362.757 82.9694 362.337 83.0125 361.955 83.1722C361.574 83.332 361.249 83.6013 361.021 83.9459C360.793 84.2906 360.673 84.6951 360.675 85.1082C360.678 85.6594 360.9 86.1868 361.291 86.5754C361.682 86.964 362.211 87.1821 362.763 87.1821ZM341.773 88.2556C342.285 88.2556 342.785 88.4073 343.211 88.6915C343.637 88.9757 343.969 89.3796 344.164 89.8522C344.36 90.3248 344.412 90.8448 344.312 91.3465C344.212 91.8482 343.965 92.309 343.603 92.6707C343.241 93.0324 342.78 93.2787 342.278 93.3785C341.776 93.4783 341.255 93.4271 340.782 93.2313C340.309 93.0356 339.905 92.7041 339.62 92.2788C339.336 91.8535 339.184 91.3534 339.184 90.8419C339.186 90.4996 339.255 90.1611 339.388 89.8456C339.521 89.5302 339.715 89.2441 339.959 89.0037C340.203 88.7634 340.492 88.5736 340.81 88.4452C341.127 88.3169 341.467 88.2524 341.81 88.2556H341.773ZM341.773 92.9158C342.186 92.9158 342.591 92.7931 342.934 92.5634C343.278 92.3336 343.545 92.0071 343.703 91.6252C343.861 91.2433 343.901 90.8232 343.82 90.4182C343.738 90.0132 343.538 89.6415 343.245 89.3503C342.952 89.059 342.579 88.8613 342.173 88.7822C341.767 88.7031 341.347 88.7462 340.965 88.9059C340.584 89.0657 340.259 89.335 340.031 89.6796C339.803 90.0243 339.682 90.4288 339.685 90.8419C339.686 91.1179 339.743 91.3909 339.851 91.645C339.959 91.8991 340.116 92.1293 340.314 92.3222C340.511 92.5151 340.745 92.6669 341.002 92.7688C341.259 92.8707 341.533 92.9206 341.81 92.9158H341.773ZM362.763 65.089C363.275 65.089 363.775 65.2404 364.2 65.5241C364.625 65.8077 364.957 66.2109 365.153 66.6828C365.35 67.1547 365.402 67.674 365.303 68.1754C365.204 68.6767 364.959 69.1376 364.598 69.4998C364.237 69.8619 363.777 70.1092 363.276 70.2104C362.774 70.3115 362.254 70.2621 361.781 70.0682C361.308 69.8743 360.902 69.5447 360.617 69.121C360.331 68.6973 360.177 68.1985 360.174 67.6875C360.178 67.0014 360.451 66.3442 360.935 65.8579C361.42 65.3716 362.076 65.0954 362.763 65.089ZM362.763 69.7492C363.177 69.7492 363.582 69.6262 363.926 69.3959C364.269 69.1655 364.537 68.8383 364.694 68.4557C364.852 68.0731 364.892 67.6524 364.809 67.2471C364.726 66.8417 364.525 66.4701 364.231 66.1794C363.936 65.8886 363.562 65.6919 363.155 65.6142C362.749 65.5364 362.328 65.5812 361.947 65.7429C361.566 65.9045 361.241 66.1757 361.015 66.522C360.789 66.8682 360.67 67.2739 360.675 67.6875C360.685 68.2344 360.909 68.7556 361.299 69.139C361.69 69.5223 362.216 69.7371 362.763 69.737V69.7492ZM376.012 84.8642L376.195 85.34C375.694 85.4504 375.252 85.7423 374.953 86.1593C374.655 86.5763 374.522 87.0889 374.579 87.5982C374.637 88.1075 374.881 88.5774 375.265 88.9174C375.649 89.2573 376.146 89.4431 376.659 89.439C377.02 89.4401 377.374 89.3431 377.684 89.1584L377.868 89.622C377.495 89.8327 377.074 89.9421 376.647 89.9392C376.013 89.9486 375.398 89.7245 374.92 89.3097C374.441 88.8949 374.133 88.3186 374.053 87.6907C373.972 87.0628 374.127 86.4275 374.486 85.9061C374.845 85.3847 375.384 85.0138 375.999 84.8642H376.012ZM349.075 76.4954C349.586 76.4979 350.085 76.6513 350.508 76.9364C350.932 77.2215 351.262 77.6255 351.457 78.0976C351.651 78.5697 351.701 79.0887 351.601 79.5892C351.501 80.0898 351.254 80.5495 350.893 80.9105C350.532 81.2714 350.072 81.5175 349.571 81.6177C349.07 81.7178 348.55 81.6677 348.078 81.4734C347.605 81.2792 347.201 80.9496 346.915 80.5261C346.63 80.1027 346.476 79.6044 346.474 79.0939C346.474 78.4048 346.748 77.7438 347.236 77.2565C347.724 76.7692 348.385 76.4954 349.075 76.4954ZM349.075 81.1556C349.488 81.1532 349.892 81.0281 350.234 80.7963C350.576 80.5646 350.842 80.2365 350.997 79.8537C351.153 79.4709 351.191 79.0506 351.107 78.6461C351.023 78.2416 350.821 77.8711 350.526 77.5815C350.231 77.292 349.857 77.0965 349.45 77.0198C349.044 76.943 348.624 76.9885 348.244 77.1505C347.863 77.3125 347.54 77.5837 347.314 77.9296C347.088 78.2756 346.97 78.6808 346.975 79.0939C346.981 79.6451 347.206 80.1713 347.599 80.5576C347.993 80.9439 348.523 81.1589 349.075 81.1556ZM317.816 89.0364C318.326 89.0388 318.825 89.1922 319.249 89.4773C319.673 89.7624 320.003 90.1665 320.197 90.6386C320.392 91.1106 320.442 91.6296 320.342 92.1302C320.241 92.6307 319.995 93.0904 319.634 93.4514C319.272 93.8124 318.812 94.0584 318.311 94.1586C317.81 94.2588 317.291 94.2086 316.818 94.0144C316.346 93.8201 315.941 93.4905 315.656 93.0671C315.371 92.6437 315.217 92.1453 315.215 91.6349C315.215 90.9457 315.489 90.2848 315.976 89.7975C316.464 89.3102 317.126 89.0364 317.816 89.0364ZM317.816 93.7088C318.229 93.7087 318.633 93.5861 318.977 93.3563C319.32 93.1266 319.588 92.8 319.746 92.4181C319.903 92.0362 319.944 91.6162 319.862 91.2112C319.781 90.8062 319.581 90.4345 319.288 90.1433C318.994 89.852 318.621 89.6543 318.215 89.5752C317.81 89.4961 317.389 89.5391 317.008 89.6989C316.627 89.8587 316.301 90.1279 316.073 90.4726C315.845 90.8173 315.725 91.2218 315.728 91.6349C315.734 92.185 315.956 92.7107 316.347 93.0986C316.737 93.4865 317.265 93.7056 317.816 93.7088ZM329.452 80.7164C329.963 80.7188 330.462 80.8723 330.886 81.1574C331.31 81.4425 331.64 81.8465 331.834 82.3186C332.028 82.7907 332.079 83.3097 331.978 83.8102C331.878 84.3108 331.632 84.7705 331.271 85.1314C330.909 85.4924 330.449 85.7385 329.948 85.8386C329.447 85.9388 328.928 85.8886 328.455 85.6944C327.983 85.5002 327.578 85.1706 327.293 84.7471C327.007 84.3237 326.854 83.8254 326.851 83.3149C326.851 82.6257 327.125 81.9648 327.613 81.4775C328.101 80.9902 328.763 80.7164 329.452 80.7164ZM329.452 85.3888C329.866 85.3888 330.27 85.2661 330.614 85.0364C330.957 84.8066 331.225 84.4801 331.383 84.0982C331.54 83.7163 331.581 83.2962 331.499 82.8912C331.418 82.4862 331.218 82.1145 330.924 81.8233C330.631 81.532 330.258 81.3343 329.852 81.2552C329.446 81.1761 329.026 81.2192 328.645 81.3789C328.263 81.5387 327.938 81.808 327.71 82.1526C327.482 82.4973 327.362 82.9018 327.364 83.3149C327.377 83.8597 327.603 84.3778 327.993 84.7585C328.383 85.1393 328.907 85.3523 329.452 85.3522V85.3888ZM304.384 79.3989C304.895 79.4013 305.395 79.555 305.819 79.8407C306.243 80.1263 306.573 80.5311 306.767 81.0039C306.961 81.4766 307.01 81.9963 306.909 82.4972C306.808 82.998 306.56 83.4577 306.198 83.8182C305.835 84.1787 305.374 84.4238 304.872 84.5226C304.37 84.6214 303.85 84.5695 303.378 84.3734C302.906 84.1773 302.502 83.8458 302.218 83.4207C301.934 82.9957 301.783 82.4962 301.783 81.9852C301.78 81.6419 301.845 81.3014 301.974 80.9833C302.103 80.6652 302.294 80.3759 302.536 80.132C302.778 79.8881 303.066 79.6945 303.383 79.5624C303.7 79.4303 304.04 79.3623 304.384 79.3623V79.3989ZM304.384 84.0591C304.797 84.0591 305.201 83.9364 305.545 83.7066C305.889 83.4769 306.156 83.1503 306.314 82.7684C306.472 82.3865 306.512 81.9665 306.431 81.5615C306.349 81.1565 306.149 80.7848 305.856 80.4936C305.563 80.2023 305.189 80.0046 304.784 79.9255C304.378 79.8464 303.958 79.8894 303.576 80.0492C303.195 80.2089 302.87 80.4782 302.642 80.8229C302.414 81.1675 302.293 81.5721 302.296 81.9852C302.309 82.5299 302.534 83.0481 302.924 83.4288C303.315 83.8095 303.838 84.0226 304.384 84.0225V84.0591Z" fill="white"/>
<path d="M364.338 79.3744C363.435 76.9345 359.955 67.1751 359.368 64.6498C359.368 64.5644 359.478 64.54 359.503 64.6498C360.724 66.9555 364.448 76.7028 365.352 79.1548C367.147 84.0346 369.015 88.9143 370.395 93.9893C370.395 94.0869 370.26 94.1601 370.212 94.0625C367.94 89.2559 366.17 84.2908 364.338 79.3744Z" fill="#263238"/>
<path opacity="0.1" d="M296.557 84.7911C307.095 93.5015 336.498 109.519 347.549 108.202C348.337 108.106 349.116 107.951 349.881 107.738L290.049 69.5663C286.385 72.4332 289.707 79.1306 296.557 84.7911Z" fill="black"/>
<path d="M305.031 140.92L241.059 128.001C241.059 128.001 269.217 79.8016 285.531 68.8099C292.955 63.796 298.572 66.1017 302.564 71.3352C303.566 72.6405 314.421 95.5144 314.165 102.566C313.945 108.799 307.571 114.314 307.571 114.314L305.031 140.92Z" fill="#FFC727"/>
<path d="M278.961 97.3809C279.648 97.3809 280.306 97.6533 280.792 98.1383C281.277 98.6234 281.55 99.2812 281.55 99.9671C281.55 100.653 281.277 101.311 280.792 101.796C280.306 102.281 279.648 102.553 278.961 102.553C278.275 102.553 277.616 102.281 277.131 101.796C276.645 101.311 276.373 100.653 276.373 99.9671C276.373 99.2812 276.645 98.6234 277.131 98.1383C277.616 97.6533 278.275 97.3809 278.961 97.3809ZM278.961 102.041C279.233 102.043 279.503 101.99 279.755 101.888C280.006 101.785 280.235 101.633 280.428 101.441C280.621 101.25 280.774 101.022 280.879 100.771C280.983 100.52 281.037 100.251 281.037 99.9793C281.037 99.707 280.983 99.4373 280.879 99.1857C280.775 98.9341 280.622 98.7054 280.429 98.5129C280.236 98.3203 280.007 98.1675 279.756 98.0633C279.504 97.9591 279.234 97.9054 278.961 97.9054C278.689 97.9054 278.419 97.9591 278.167 98.0633C277.915 98.1675 277.686 98.3203 277.493 98.5129C277.301 98.7054 277.148 98.9341 277.043 99.1857C276.939 99.4373 276.885 99.707 276.885 99.9793C276.885 100.251 276.939 100.52 277.044 100.771C277.148 101.022 277.301 101.25 277.494 101.441C277.687 101.633 277.916 101.785 278.168 101.888C278.42 101.99 278.689 102.043 278.961 102.041ZM296.056 66.5286H296.41C296.855 66.597 297.276 66.7776 297.631 67.0532C298.114 67.43 298.447 67.9654 298.571 68.5642C298.696 69.1631 298.604 69.7867 298.312 70.3242C298.02 70.8618 297.546 71.2786 296.976 71.5005C296.405 71.7225 295.775 71.7352 295.196 71.5365C294.617 71.3378 294.127 70.9405 293.813 70.4151C293.5 69.8898 293.383 69.2704 293.483 68.667C293.583 68.0636 293.894 67.5152 294.361 67.1193C294.828 66.7233 295.42 66.5054 296.032 66.5042L296.056 66.5286ZM296.056 71.1888C296.47 71.1912 296.876 71.0706 297.221 70.8423C297.566 70.614 297.836 70.2884 297.995 69.9067C298.155 69.525 298.197 69.1046 298.117 68.6988C298.037 68.293 297.838 67.9201 297.545 67.6277C297.252 67.3352 296.879 67.1362 296.473 67.0561C296.067 66.976 295.646 67.0184 295.264 67.1778C294.882 67.3372 294.556 67.6065 294.327 67.9514C294.099 68.2963 293.978 68.7013 293.98 69.1149C293.982 69.3909 294.038 69.6639 294.146 69.918C294.254 70.1721 294.412 70.4023 294.609 70.5952C294.807 70.7881 295.041 70.9399 295.298 71.0418C295.554 71.1437 295.829 71.1937 296.105 71.1888H296.056ZM246.762 118.535C246.971 118.952 247.315 119.287 247.739 119.485C248.162 119.682 248.64 119.731 249.095 119.624C249.549 119.517 249.955 119.26 250.245 118.893C250.535 118.527 250.693 118.074 250.694 117.607C250.697 117.336 250.646 117.067 250.544 116.816C250.443 116.564 250.292 116.335 250.101 116.142C249.911 115.949 249.683 115.796 249.433 115.692C249.182 115.587 248.914 115.533 248.642 115.534C248.74 115.375 248.838 115.216 248.947 115.058C249.379 115.106 249.791 115.262 250.147 115.511C250.502 115.761 250.788 116.097 250.978 116.487C251.169 116.876 251.258 117.308 251.237 117.741C251.215 118.175 251.085 118.596 250.857 118.965C250.63 119.335 250.312 119.641 249.935 119.855C249.557 120.069 249.131 120.184 248.697 120.19C248.263 120.196 247.834 120.092 247.451 119.888C247.068 119.683 246.743 119.386 246.505 119.023C246.579 118.901 246.676 118.742 246.762 118.535ZM264.272 107.946C264.785 107.943 265.287 108.093 265.715 108.376C266.142 108.66 266.476 109.063 266.673 109.536C266.871 110.009 266.923 110.53 266.823 111.033C266.724 111.536 266.477 111.998 266.114 112.361C265.752 112.723 265.289 112.97 264.786 113.069C264.283 113.168 263.761 113.116 263.288 112.919C262.814 112.722 262.41 112.388 262.127 111.961C261.843 111.534 261.693 111.032 261.695 110.52C261.705 109.839 261.984 109.19 262.471 108.714C262.959 108.239 263.615 107.976 264.296 107.982L264.272 107.946ZM264.272 112.606C264.685 112.608 265.09 112.488 265.435 112.26C265.78 112.032 266.05 111.707 266.21 111.326C266.369 110.945 266.413 110.526 266.333 110.12C266.254 109.715 266.056 109.342 265.765 109.049C265.473 108.756 265.101 108.556 264.696 108.475C264.29 108.393 263.87 108.434 263.488 108.591C263.106 108.749 262.779 109.016 262.549 109.359C262.319 109.703 262.196 110.106 262.196 110.52C262.193 110.797 262.245 111.073 262.349 111.33C262.453 111.587 262.607 111.822 262.802 112.019C262.998 112.217 263.23 112.373 263.487 112.48C263.743 112.587 264.018 112.642 264.296 112.642L264.272 112.606ZM304.359 79.3258C304.871 79.3282 305.37 79.4819 305.794 79.7676C306.218 80.0532 306.548 80.458 306.742 80.9307C306.936 81.4035 306.986 81.9232 306.885 82.424C306.783 82.9249 306.536 83.3846 306.173 83.7451C305.811 84.1056 305.35 84.3507 304.848 84.4495C304.346 84.5483 303.826 84.4964 303.354 84.3003C302.881 84.1042 302.478 83.7727 302.194 83.3476C301.91 82.9226 301.759 82.423 301.759 81.912C301.771 81.2271 302.054 80.575 302.546 80.0975C303.038 79.62 303.698 79.3558 304.384 79.3624L304.359 79.3258ZM304.359 83.9859C304.773 83.9859 305.177 83.8633 305.521 83.6335C305.864 83.4037 306.132 83.0772 306.29 82.6953C306.447 82.3134 306.488 81.8934 306.406 81.4884C306.325 81.0834 306.125 80.7117 305.832 80.4204C305.538 80.1292 305.165 79.9315 304.759 79.8524C304.353 79.7732 303.933 79.8163 303.552 79.9761C303.171 80.1358 302.845 80.4051 302.617 80.7498C302.389 81.0944 302.269 81.4989 302.271 81.912C302.268 82.1901 302.321 82.466 302.426 82.7236C302.531 82.9811 302.686 83.2151 302.883 83.4117C303.08 83.6083 303.314 83.7636 303.572 83.8685C303.829 83.9735 304.106 84.0258 304.384 84.0225L304.359 83.9859ZM307.192 118.034V118.535C306.708 118.575 306.253 118.784 305.907 119.126C305.561 119.467 305.346 119.919 305.3 120.403C305.253 120.886 305.378 121.371 305.653 121.772C305.927 122.173 306.334 122.465 306.802 122.597V123.109C306.197 122.965 305.666 122.607 305.305 122.102C304.944 121.596 304.778 120.978 304.837 120.36C304.896 119.742 305.177 119.166 305.628 118.739C306.079 118.311 306.669 118.061 307.29 118.034H307.192ZM292.43 86.8162C292.941 86.8186 293.439 86.972 293.863 87.2571C294.287 87.5423 294.617 87.9463 294.811 88.4184C295.006 88.8904 295.056 89.4094 294.956 89.91C294.855 90.4105 294.609 90.8702 294.248 91.2312C293.887 91.5922 293.426 91.8382 292.925 91.9384C292.424 92.0386 291.905 91.9884 291.432 91.7942C290.96 91.5999 290.555 91.2703 290.27 90.8469C289.985 90.4235 289.831 89.9251 289.829 89.4147C289.827 89.073 289.893 88.7344 290.023 88.4184C290.154 88.1024 290.345 87.8153 290.587 87.5737C290.829 87.3321 291.116 87.1407 291.432 87.0107C291.749 86.8807 292.088 86.8146 292.43 86.8162ZM292.43 91.4764C292.701 91.478 292.97 91.4258 293.221 91.3227C293.472 91.2197 293.7 91.0679 293.892 90.8761C294.084 90.6843 294.236 90.4564 294.339 90.2056C294.443 89.9547 294.495 89.6859 294.493 89.4147C294.496 89.1413 294.446 88.87 294.343 88.6163C294.241 88.3627 294.09 88.1317 293.898 87.9367C293.706 87.7417 293.478 87.5865 293.226 87.4801C292.974 87.3736 292.703 87.318 292.43 87.3164C291.873 87.3164 291.338 87.5374 290.945 87.9309C290.551 88.3244 290.329 88.8582 290.329 89.4147C290.326 89.6911 290.378 89.9655 290.483 90.2215C290.587 90.4776 290.742 90.7102 290.937 90.9057C291.133 91.1012 291.366 91.2556 291.622 91.3599C291.878 91.4642 292.153 91.5162 292.43 91.513V91.4764ZM281.293 75.971C281.804 75.9734 282.303 76.1268 282.727 76.4119C283.151 76.697 283.481 77.1011 283.675 77.5731C283.87 78.0452 283.92 78.5642 283.82 79.0647C283.719 79.5653 283.473 80.025 283.112 80.386C282.75 80.7469 282.29 80.993 281.789 81.0932C281.288 81.1933 280.769 81.1432 280.296 80.9489C279.824 80.7547 279.419 80.4251 279.134 80.0017C278.849 79.5782 278.695 79.0799 278.693 78.5694C278.705 77.8876 278.985 77.2379 279.471 76.7591C279.957 76.2804 280.611 76.0106 281.293 76.0076V75.971ZM281.293 80.6433C281.707 80.6457 282.113 80.5251 282.458 80.2968C282.803 80.0685 283.073 79.7429 283.232 79.3612C283.392 78.9795 283.434 78.5591 283.354 78.1533C283.274 77.7475 283.075 77.3746 282.782 77.0822C282.489 76.7897 282.116 76.5908 281.71 76.5107C281.304 76.4306 280.883 76.4729 280.501 76.6323C280.119 76.7917 279.793 77.061 279.564 77.4059C279.336 77.7508 279.215 78.1558 279.218 78.5694C279.208 78.8479 279.254 79.1254 279.354 79.3856C279.454 79.6457 279.605 79.883 279.799 80.0834C279.993 80.2838 280.225 80.4432 280.482 80.5519C280.739 80.6607 281.015 80.7167 281.293 80.7165V80.6433ZM278.961 118.022C279.474 118.02 279.975 118.169 280.403 118.452C280.83 118.735 281.164 119.138 281.362 119.61C281.559 120.083 281.612 120.603 281.514 121.105C281.415 121.608 281.17 122.07 280.808 122.433C280.447 122.796 279.985 123.043 279.483 123.144C278.98 123.245 278.459 123.194 277.986 122.999C277.512 122.804 277.107 122.472 276.822 122.047C276.537 121.621 276.385 121.12 276.385 120.608C276.394 119.931 276.67 119.284 277.151 118.808C277.633 118.331 278.283 118.062 278.961 118.059V118.022ZM278.961 122.682C279.375 122.685 279.781 122.564 280.126 122.336C280.471 122.108 280.741 121.782 280.9 121.4C281.06 121.019 281.102 120.598 281.022 120.192C280.942 119.787 280.743 119.414 280.45 119.121C280.157 118.829 279.784 118.63 279.378 118.55C278.972 118.47 278.551 118.512 278.169 118.671C277.787 118.831 277.461 119.1 277.232 119.445C277.004 119.79 276.883 120.195 276.885 120.608C276.881 120.884 276.931 121.157 277.033 121.413C277.135 121.669 277.287 121.902 277.48 122.099C277.674 122.295 277.904 122.451 278.158 122.558C278.413 122.664 278.686 122.719 278.961 122.719V122.682ZM293.419 108.531C293.93 108.533 294.429 108.687 294.854 108.973C295.278 109.259 295.607 109.663 295.802 110.136C295.996 110.609 296.045 111.128 295.944 111.629C295.843 112.13 295.595 112.59 295.233 112.95C294.87 113.311 294.409 113.556 293.907 113.655C293.405 113.754 292.885 113.702 292.413 113.506C291.941 113.309 291.537 112.978 291.253 112.553C290.969 112.128 290.818 111.628 290.818 111.117C290.827 110.436 291.106 109.785 291.593 109.308C292.08 108.83 292.736 108.564 293.419 108.568V108.531ZM293.419 113.203C293.836 113.203 294.243 113.078 294.588 112.844C294.933 112.61 295.201 112.278 295.355 111.891C295.51 111.505 295.545 111.08 295.457 110.673C295.368 110.266 295.159 109.895 294.857 109.607C294.555 109.32 294.174 109.129 293.763 109.06C293.352 108.991 292.929 109.047 292.55 109.219C292.17 109.392 291.851 109.675 291.634 110.031C291.417 110.386 291.311 110.799 291.331 111.215C291.347 111.758 291.574 112.273 291.963 112.651C292.353 113.029 292.875 113.24 293.419 113.24V113.203ZM306.973 97.3443C307.483 97.3467 307.982 97.5001 308.406 97.7852C308.83 98.0703 309.16 98.4743 309.354 98.9464C309.549 99.4185 309.599 99.9375 309.499 100.438C309.398 100.939 309.152 101.398 308.791 101.759C308.429 102.12 307.969 102.366 307.468 102.466C306.967 102.567 306.448 102.516 305.975 102.322C305.503 102.128 305.098 101.798 304.813 101.375C304.528 100.952 304.374 100.453 304.372 99.9427C304.378 99.2589 304.655 98.6055 305.143 98.1254C305.63 97.6453 306.288 97.3776 306.973 97.3809V97.3443ZM306.973 102.004C307.245 102.006 307.514 101.954 307.766 101.851C308.018 101.748 308.247 101.596 308.44 101.405C308.633 101.213 308.786 100.985 308.89 100.735C308.995 100.484 309.048 100.214 309.048 99.9427C309.07 99.6562 309.033 99.3682 308.938 99.0968C308.844 98.8254 308.694 98.5765 308.498 98.3657C308.303 98.1549 308.066 97.9867 307.802 97.8716C307.539 97.7566 307.254 97.6972 306.966 97.6972C306.679 97.6972 306.394 97.7566 306.131 97.8716C305.867 97.9867 305.63 98.1549 305.435 98.3657C305.239 98.5765 305.089 98.8254 304.995 99.0968C304.9 99.3682 304.863 99.6562 304.885 99.9427C304.881 100.218 304.933 100.491 305.037 100.747C305.14 101.002 305.294 101.234 305.488 101.429C305.682 101.625 305.914 101.779 306.169 101.884C306.424 101.989 306.697 102.043 306.973 102.041V102.004ZM266.164 89.805C266.463 90.0702 266.831 90.2437 267.226 90.305C267.62 90.3662 268.024 90.3125 268.389 90.1502C268.753 89.988 269.063 89.7242 269.282 89.3903C269.5 89.0565 269.618 88.6668 269.62 88.2679C269.619 87.9206 269.533 87.5788 269.369 87.2725C269.205 86.9663 268.968 86.7048 268.68 86.5112C268.775 86.3759 268.877 86.2456 268.985 86.1208C269.45 86.428 269.803 86.8778 269.991 87.4025C270.178 87.9271 270.191 88.4985 270.025 89.0307C269.86 89.5628 269.527 90.0271 269.075 90.3537C268.623 90.6803 268.077 90.8517 267.52 90.842C266.902 90.8433 266.304 90.6225 265.835 90.2198C265.953 90.0881 266.063 89.9496 266.164 89.805ZM291.086 127.538C291.773 127.538 292.431 127.81 292.917 128.295C293.402 128.78 293.675 129.438 293.675 130.124C293.675 130.81 293.402 131.468 292.917 131.953C292.431 132.438 291.773 132.71 291.086 132.71C290.4 132.71 289.741 132.438 289.256 131.953C288.771 131.468 288.498 130.81 288.498 130.124C288.498 129.438 288.771 128.78 289.256 128.295C289.741 127.81 290.4 127.538 291.086 127.538ZM291.086 132.21C291.361 132.208 291.632 132.153 291.885 132.047C292.137 131.94 292.367 131.785 292.559 131.59C292.752 131.396 292.905 131.165 293.008 130.911C293.111 130.657 293.164 130.386 293.162 130.112C293.122 129.588 292.885 129.098 292.499 128.741C292.113 128.384 291.607 128.185 291.08 128.185C290.554 128.185 290.047 128.384 289.661 128.741C289.275 129.098 289.039 129.588 288.998 130.112C288.998 130.666 289.218 131.198 289.609 131.591C290 131.984 290.532 132.207 291.086 132.21ZM261.964 126.476C262.651 126.476 263.309 126.749 263.794 127.234C264.28 127.719 264.553 128.377 264.553 129.063C264.553 129.749 264.28 130.406 263.794 130.891C263.309 131.376 262.651 131.649 261.964 131.649C261.277 131.649 260.619 131.376 260.134 130.891C259.648 130.406 259.375 129.749 259.375 129.063C259.375 128.377 259.648 127.719 260.134 127.234C260.619 126.749 261.277 126.476 261.964 126.476ZM261.964 131.149C262.519 131.145 263.05 130.923 263.441 130.53C263.832 130.137 264.052 129.605 264.052 129.05C264.012 128.526 263.775 128.037 263.389 127.679C263.003 127.322 262.496 127.124 261.97 127.124C261.444 127.124 260.937 127.322 260.551 127.679C260.165 128.037 259.928 128.526 259.888 129.05C259.888 129.603 260.106 130.133 260.495 130.526C260.883 130.918 261.411 131.142 261.964 131.149Z" fill="white"/>
<path d="M291.306 68.3706C291.306 69.5906 294.896 78.1301 300.061 79.0695C301.746 79.3867 303.895 70.2859 303.895 70.2859L304.213 69.6516L308.572 60.7582L299.219 50.9987L297.851 49.669C297.851 49.669 296.813 52.1821 295.555 55.3295C295.555 55.4759 295.446 55.6223 295.385 55.7809C295.323 55.9395 295.226 56.1225 295.165 56.2811C294.969 56.7568 294.774 57.2326 294.591 57.7084C294.408 58.1842 294.31 58.4282 294.176 58.8185C294.041 59.2089 293.895 59.5871 293.748 59.9653C292.746 62.709 291.93 65.5172 291.306 68.3706Z" fill="#FFC4C0"/>
<path d="M295.604 55.3417C295.908 58.2027 296.83 60.9638 298.305 63.4343C299.781 65.9049 301.776 68.0261 304.152 69.6516L308.511 60.7582L299.158 50.9987L297.79 49.669C297.79 49.669 296.825 52.1943 295.604 55.3417Z" fill="#263238"/>
<path d="M324.006 42.5935C329.074 59.2335 319.672 64.1498 316.082 65.2355C312.821 66.2237 301.588 69.1759 294.823 53.146C288.058 37.116 294.2 29.5036 301.539 26.8441C308.877 24.1847 318.939 25.9536 324.006 42.5935Z" fill="#FFC4C0"/>
<path d="M320.783 40.4584C320.38 40.4584 319.989 40.4584 319.562 40.5438C319.148 40.6221 318.72 40.5665 318.341 40.3852C318.233 40.3008 318.155 40.1845 318.118 40.053C318.08 39.9215 318.086 39.7815 318.133 39.6533C318.275 39.4198 318.476 39.2279 318.717 39.0972C318.957 38.9665 319.227 38.9016 319.501 38.9091C320.055 38.8351 320.616 38.9699 321.076 39.2873C321.177 39.3655 321.254 39.4717 321.296 39.5927C321.338 39.7137 321.344 39.8443 321.313 39.9686C321.282 40.0929 321.215 40.2054 321.121 40.2924C321.027 40.3794 320.909 40.4371 320.783 40.4584Z" fill="#263238"/>
<path d="M309.268 43.6181C309.659 43.4595 309.976 43.2522 310.343 43.0692C310.744 42.9206 311.086 42.6468 311.32 42.2884C311.369 42.1604 311.375 42.0199 311.338 41.8879C311.3 41.7559 311.221 41.6396 311.112 41.5564C310.87 41.4302 310.599 41.3704 310.327 41.3833C310.054 41.3962 309.79 41.4812 309.561 41.6296C309.046 41.8516 308.636 42.2618 308.413 42.7764C308.37 42.8951 308.362 43.0238 308.389 43.1471C308.417 43.2705 308.48 43.3833 308.57 43.472C308.66 43.5607 308.774 43.6217 308.897 43.6476C309.021 43.6735 309.15 43.6633 309.268 43.6181Z" fill="#263238"/>
<path d="M313.09 46.9852C313.09 46.9852 313.017 47.0706 313.029 47.1194C313.408 48.2418 313.664 49.5593 312.749 50.2791C313.92 49.7789 313.627 47.9856 313.09 46.9852Z" fill="#263238"/>
<path d="M311.71 46.1191C309.842 46.5338 310.819 50.2302 312.553 49.7789C314.287 49.3275 313.273 45.7653 311.71 46.1191Z" fill="#263238"/>
<path d="M311.039 46.5582C310.77 46.851 310.55 47.3024 310.172 47.4488C309.793 47.5952 309.28 47.3146 308.89 47.0218C309.061 47.7294 309.537 48.3881 310.318 48.2418C311.1 48.0954 311.368 47.4 311.356 46.6436C311.307 46.5582 311.149 46.3875 311.039 46.5582Z" fill="#263238"/>
<path d="M319.391 45.0698C319.391 45.0698 319.501 45.0698 319.513 45.143C319.769 46.363 320.258 47.5829 321.393 47.7049C320.026 47.9123 319.452 46.2044 319.391 45.0698Z" fill="#263238"/>
<path d="M320.111 43.6059C321.931 42.996 323.017 46.6558 321.332 47.2657C319.647 47.8757 318.597 44.1183 320.111 43.6059Z" fill="#263238"/>
<path d="M320.954 43.6183C321.296 43.728 321.686 43.9964 322.04 43.911C322.395 43.8256 322.627 43.3377 322.773 42.8863C322.773 42.8863 322.773 42.8863 322.846 42.8863C323.066 43.5817 323.054 44.3746 322.419 44.704C321.784 45.0334 321.198 44.5454 320.844 43.8988C320.771 43.8012 320.807 43.5817 320.954 43.6183Z" fill="#263238"/>
<path d="M315.435 56.4274C315.764 56.6348 316.131 56.952 316.558 56.891C317.002 56.7977 317.419 56.6059 317.779 56.3298C317.779 56.3298 317.852 56.3298 317.84 56.3298C317.722 56.5944 317.536 56.8224 317.299 56.9899C317.063 57.1573 316.786 57.258 316.497 57.2814C316.247 57.2745 316.006 57.1913 315.805 57.043C315.604 56.8946 315.453 56.6883 315.373 56.4518C315.3 56.4396 315.386 56.3908 315.435 56.4274Z" fill="#263238"/>
<path d="M319.342 53.341C319.076 54.1272 318.614 54.8326 317.999 55.3905C317.654 55.6811 317.227 55.8561 316.778 55.8907C315.789 55.9761 315.483 55.1465 315.41 54.378C315.36 53.9729 315.36 53.5632 315.41 53.1581C316.667 53.6395 318.046 53.7037 319.342 53.341Z" fill="#263238"/>
<path d="M317.999 55.3906C317.654 55.6811 317.227 55.8561 316.778 55.8908C315.789 55.9762 315.483 55.1466 315.41 54.378C315.893 54.2321 316.41 54.2526 316.88 54.4363C317.35 54.6199 317.744 54.9561 317.999 55.3906Z" fill="#FF97B8"/>
<path d="M319.073 50.9744C319.073 50.9744 319.782 52.6213 320.001 53.4143C320.001 53.4875 319.843 53.5729 319.562 53.6705C318.904 53.985 318.173 54.1137 317.448 54.0427C316.723 53.9718 316.031 53.7038 315.447 53.2679C315.43 53.2552 315.419 53.237 315.415 53.2166C315.411 53.1961 315.414 53.175 315.425 53.157C315.435 53.139 315.452 53.1254 315.472 53.1189C315.492 53.1124 315.513 53.1133 315.532 53.1215C316.758 53.5195 318.079 53.5195 319.305 53.1215C319.305 52.8775 317.999 50.3522 318.084 50.3034C318.724 50.1867 319.378 50.158 320.026 50.218C318.646 46.7534 316.729 43.545 315.41 40.0804C315.41 39.9584 315.544 39.8608 315.605 39.9706C317.772 43.3451 319.593 46.9296 321.039 50.6694C321.247 51.1696 319.427 51.0232 319.073 50.9744Z" fill="#263238"/>
<path d="M295.861 52.731C299.854 51.8893 298.437 45.6066 298.437 45.6066C298.437 45.6066 302.87 44.2037 301.588 36.8352C302.794 38.105 304.279 39.0785 305.925 39.6796C307.571 40.2806 309.334 40.4929 311.075 40.2999C312.418 40.2023 307.314 37.799 307.314 37.799C307.314 37.799 313.579 41.3734 322.859 37.4452C323.518 37.1646 319.806 27.2831 311.442 25.4776C303.077 23.6721 296.667 27.1612 293.028 32.9803C293.028 32.9803 288.034 36.7743 288.571 42.1786C289.108 47.5829 294.31 53.0604 295.861 52.731Z" fill="#263238"/>
<path d="M296.654 59.2944C296.93 59.3237 297.209 59.3237 297.485 59.2944C297.759 59.2818 298.03 59.2326 298.291 59.148C298.629 59.0391 298.941 58.8604 299.206 58.6234C299.416 58.4398 299.597 58.226 299.744 57.989C299.957 57.6519 300.11 57.2804 300.196 56.8911L298.291 52.5481C298.291 52.5481 293.406 48.0222 291.306 49.8521C289.206 51.682 293.602 58.843 296.654 59.2944Z" fill="#FFC4C0"/>
<path d="M292.625 51.9015V51.9747C293.632 52.2359 294.573 52.7053 295.387 53.3525C296.201 53.9997 296.87 54.8104 297.35 55.7321C297.194 55.5611 297.002 55.4258 296.789 55.3356C296.575 55.2453 296.344 55.2022 296.113 55.2091C295.881 55.2161 295.653 55.2729 295.445 55.3758C295.237 55.4787 295.054 55.6252 294.908 55.8053C294.908 55.8053 294.908 55.9151 294.982 55.8907C295.309 55.7074 295.685 55.629 296.058 55.666C296.432 55.7031 296.785 55.854 297.07 56.0981C297.522 56.5152 297.931 56.977 298.291 57.4766C298.413 57.6352 298.718 57.4766 298.608 57.2814C298.12 54.6952 295.397 51.5721 292.625 51.9015Z" fill="#263238"/>
<path d="M296.74 58.5258C296.782 58.6227 296.843 58.7104 296.92 58.7838C296.996 58.8571 297.086 58.9147 297.185 58.9532C297.284 58.9917 297.389 59.0104 297.495 59.0083C297.601 59.0061 297.705 58.9831 297.802 58.9405C297.984 58.8475 298.124 58.6889 298.193 58.4968C298.262 58.3047 298.256 58.0936 298.175 57.906C298.095 57.7184 297.946 57.5685 297.759 57.4865C297.571 57.4045 297.36 57.3966 297.167 57.4644C296.971 57.5503 296.817 57.7095 296.737 57.9079C296.657 58.1064 296.658 58.3282 296.74 58.5258Z" fill="white"/>
<path d="M294.872 57.684C294.933 57.8201 295.045 57.9269 295.185 57.9816C295.324 58.0362 295.479 58.0345 295.617 57.9768C295.686 57.949 295.749 57.9073 295.802 57.8542C295.855 57.8011 295.897 57.7377 295.924 57.668C295.951 57.5983 295.964 57.5237 295.962 57.4488C295.959 57.374 295.942 57.3004 295.91 57.2327C295.88 57.1646 295.837 57.103 295.784 57.0514C295.73 56.9999 295.667 56.9593 295.598 56.9321C295.529 56.905 295.455 56.8916 295.381 56.893C295.306 56.8943 295.233 56.9102 295.165 56.9399C295.097 56.9695 295.035 57.0123 294.983 57.0657C294.932 57.1191 294.891 57.1822 294.864 57.2513C294.837 57.3204 294.823 57.3942 294.825 57.4684C294.826 57.5427 294.842 57.6159 294.872 57.684Z" fill="white"/>
<path d="M281.037 81.9364C285.347 100.235 298.84 139.469 309.451 139.103C326.913 138.493 353.642 124.207 360.932 118.888C364.106 116.57 351.297 88.9998 347.317 90.3539C342.53 91.9886 315.911 109.08 314.006 107.348C312.919 106.372 305.617 96.0632 295.299 83.9371C283.333 69.8468 278.986 73.2138 281.037 81.9364Z" fill="#FFC4C0"/>
<path d="M339.673 96.1608C339.673 96.1608 347.512 87.0479 352.921 81.3142C355.95 78.1301 361.615 73.1162 364.9 71.7743C369.784 69.7858 391.702 64.5888 393.07 69.859C394.291 74.6289 374.962 76.715 374.962 76.715C374.962 76.715 394.303 72.8844 394.743 78.9109C395.182 84.9374 373.008 84.3762 373.008 84.3762C373.008 84.3762 392.972 80.8872 392.447 87.1699C392.044 91.9154 371.921 92.5376 371.921 92.5376C371.921 92.5376 389.114 89.6707 388.906 94.5627C388.686 99.9792 370.151 101.724 370.151 101.724C367.55 114.082 361.701 119.291 356.352 121.804C355.107 122.389 339.673 96.1608 339.673 96.1608Z" fill="#FFC4C0"/>
<path d="M369.1 77.4592C383.143 73.5554 391.214 75.9343 390.994 75.9099C385.621 75.4463 377.379 76.4955 375.12 76.8249C372.861 77.1543 371.457 77.2152 369.149 77.5446L369.1 77.4592Z" fill="#263238"/>
<path d="M369.223 85.9134C374.826 84.0683 380.715 83.2419 386.611 83.4735C386.843 83.4735 386.769 83.5833 386.611 83.6077C383.68 83.9493 372.19 85.4864 369.296 85.9622C369.186 85.9866 369.186 85.9256 369.223 85.9134Z" fill="#263238"/>
<path d="M368.868 93.1964C373.216 91.8779 377.769 91.3693 382.3 91.6959C382.52 91.6959 382.422 91.8545 382.19 91.8667C377.697 92.2814 374.156 92.562 368.82 93.3428C368.783 93.355 368.734 93.2208 368.868 93.1964Z" fill="#263238"/>
<path d="M337.255 95.0751L353.129 125.696C353.129 125.696 319.415 142.189 307.595 139.627C296.996 137.322 282.978 93.477 280.829 84.2299C278.68 74.9827 281.33 69.859 290.598 78.5571C299.866 87.2553 314.128 106.201 314.409 106.433C314.69 106.664 337.255 95.0751 337.255 95.0751Z" fill="#FFC727"/>
<path d="M332.896 132.93C333.56 132.932 334.199 133.19 334.678 133.649L334.141 133.857C333.792 133.585 333.363 133.435 332.92 133.43C332.445 133.43 331.984 133.592 331.613 133.889C331.242 134.186 330.984 134.601 330.881 135.065L330.344 135.26C330.407 134.625 330.702 134.037 331.173 133.607C331.644 133.177 332.258 132.936 332.896 132.93ZM322.504 108.531C323.012 108.534 323.507 108.685 323.929 108.967C324.35 109.248 324.68 109.648 324.877 110.115C325.073 110.582 325.128 111.096 325.035 111.594C324.941 112.092 324.703 112.552 324.35 112.916C323.997 113.28 323.545 113.533 323.05 113.642C322.555 113.752 322.038 113.714 321.565 113.532C321.091 113.351 320.681 113.035 320.386 112.623C320.09 112.211 319.923 111.721 319.904 111.215C319.897 110.873 319.958 110.532 320.084 110.214C320.209 109.895 320.397 109.605 320.635 109.359C320.873 109.113 321.158 108.916 321.472 108.78C321.787 108.645 322.125 108.572 322.468 108.568L322.504 108.531ZM322.504 113.203C322.917 113.201 323.32 113.076 323.662 112.845C324.004 112.614 324.27 112.286 324.426 111.904C324.582 111.522 324.621 111.102 324.538 110.698C324.455 110.294 324.254 109.924 323.96 109.634C323.666 109.344 323.293 109.147 322.888 109.069C322.482 108.991 322.062 109.035 321.682 109.195C321.301 109.355 320.977 109.624 320.749 109.968C320.522 110.313 320.402 110.717 320.404 111.129C320.401 111.403 320.452 111.675 320.554 111.93C320.656 112.184 320.807 112.416 320.998 112.612C321.19 112.808 321.418 112.964 321.671 113.072C321.923 113.18 322.194 113.237 322.468 113.24L322.504 113.203ZM343.861 107.811L344.105 108.287C343.833 108.309 343.567 108.385 343.324 108.51C343.081 108.635 342.864 108.807 342.687 109.015C342.511 109.224 342.376 109.465 342.293 109.725C342.209 109.985 342.178 110.259 342.2 110.532C342.223 110.804 342.299 111.069 342.424 111.312C342.549 111.555 342.721 111.771 342.929 111.948C343.138 112.125 343.379 112.259 343.64 112.342C343.9 112.426 344.174 112.457 344.447 112.435C344.729 112.433 345.008 112.374 345.266 112.261C345.525 112.148 345.757 111.983 345.949 111.776L346.193 112.252C345.721 112.697 345.096 112.946 344.447 112.947C343.801 112.957 343.174 112.724 342.691 112.296C342.207 111.867 341.902 111.273 341.834 110.631C341.767 109.988 341.943 109.344 342.327 108.825C342.711 108.305 343.275 107.948 343.91 107.823L343.861 107.811ZM335.484 117.107C335.996 117.107 336.496 117.258 336.921 117.542C337.347 117.826 337.679 118.229 337.875 118.701C338.071 119.173 338.123 119.692 338.024 120.193C337.925 120.695 337.68 121.156 337.319 121.518C336.958 121.88 336.498 122.127 335.997 122.228C335.496 122.33 334.975 122.28 334.502 122.086C334.029 121.892 333.624 121.563 333.338 121.139C333.052 120.715 332.898 120.217 332.896 119.706C332.905 119.025 333.182 118.375 333.666 117.896C334.15 117.417 334.803 117.147 335.484 117.144V117.107ZM335.484 121.767C335.898 121.767 336.303 121.644 336.647 121.414C336.991 121.184 337.258 120.856 337.416 120.474C337.573 120.091 337.613 119.67 337.53 119.265C337.448 118.86 337.246 118.488 336.952 118.197C336.658 117.907 336.283 117.71 335.877 117.632C335.47 117.555 335.049 117.599 334.668 117.761C334.287 117.923 333.963 118.194 333.736 118.54C333.51 118.886 333.392 119.292 333.396 119.706C333.395 119.981 333.448 120.253 333.552 120.508C333.656 120.762 333.81 120.994 334.004 121.189C334.198 121.384 334.428 121.538 334.683 121.644C334.937 121.75 335.209 121.804 335.484 121.804V121.767ZM328.573 99.5278L330.71 98.4299C331.221 98.4347 331.719 98.5904 332.141 98.8775C332.564 99.1646 332.892 99.5702 333.084 100.043C333.276 100.516 333.324 101.035 333.222 101.535C333.119 102.036 332.87 102.494 332.507 102.853C332.144 103.213 331.683 103.457 331.182 103.554C330.68 103.652 330.161 103.6 329.689 103.403C329.218 103.207 328.815 102.875 328.532 102.45C328.248 102.026 328.097 101.527 328.097 101.016C328.096 100.482 328.262 99.9619 328.573 99.5278ZM330.686 103.09C331.099 103.09 331.503 102.967 331.847 102.738C332.191 102.508 332.458 102.181 332.616 101.799C332.773 101.418 332.814 100.997 332.733 100.592C332.651 100.187 332.451 99.8158 332.158 99.5245C331.864 99.2333 331.491 99.0356 331.085 98.9564C330.68 98.8773 330.259 98.9204 329.878 99.0802C329.497 99.2399 329.171 99.5092 328.944 99.8539C328.716 100.199 328.595 100.603 328.598 101.016C328.601 101.561 328.817 102.083 329.2 102.471C329.584 102.858 330.104 103.08 330.649 103.09H330.686ZM307.412 118.059C307.924 118.061 308.423 118.215 308.847 118.5C309.271 118.786 309.601 119.191 309.795 119.664C309.989 120.136 310.039 120.656 309.937 121.157C309.836 121.658 309.589 122.117 309.226 122.478C308.863 122.838 308.402 123.084 307.9 123.182C307.399 123.281 306.879 123.229 306.406 123.033C305.934 122.837 305.531 122.506 305.247 122.081C304.963 121.655 304.811 121.156 304.811 120.645C304.814 119.964 305.085 119.312 305.564 118.828C306.044 118.345 306.694 118.068 307.375 118.059H307.412ZM307.412 122.719C307.825 122.716 308.228 122.592 308.57 122.36C308.912 122.129 309.178 121.802 309.334 121.42C309.489 121.038 309.528 120.618 309.445 120.214C309.362 119.81 309.161 119.439 308.868 119.149C308.574 118.859 308.201 118.663 307.795 118.584C307.39 118.506 306.97 118.55 306.589 118.71C306.209 118.87 305.884 119.14 305.657 119.484C305.43 119.828 305.309 120.232 305.312 120.645C305.315 121.192 305.533 121.716 305.919 122.104C306.305 122.491 306.828 122.712 307.375 122.719H307.412ZM292.43 86.8161C292.94 86.8185 293.439 86.9719 293.863 87.257C294.287 87.5421 294.617 87.9462 294.811 88.4182C295.006 88.8903 295.056 89.4093 294.956 89.9099C294.855 90.4104 294.609 90.8701 294.248 91.2311C293.886 91.592 293.426 91.8381 292.925 91.9383C292.424 92.0385 291.905 91.9883 291.432 91.794C290.96 91.5998 290.555 91.2702 290.27 90.8468C289.985 90.4233 289.831 89.925 289.829 89.4145C289.827 89.0729 289.893 88.7342 290.023 88.4182C290.153 88.1023 290.345 87.8152 290.587 87.5735C290.829 87.3319 291.116 87.1406 291.432 87.0106C291.749 86.8806 292.088 86.8145 292.43 86.8161ZM292.43 91.4762C292.701 91.4779 292.97 91.4256 293.221 91.3226C293.472 91.2196 293.7 91.0678 293.892 90.876C294.084 90.6842 294.236 90.4563 294.339 90.2054C294.442 89.9546 294.495 89.6857 294.493 89.4145C294.496 89.1412 294.445 88.8698 294.343 88.6162C294.241 88.3626 294.09 88.1316 293.898 87.9366C293.706 87.7416 293.478 87.5864 293.226 87.4799C292.974 87.3735 292.703 87.3178 292.43 87.3162C291.873 87.3162 291.338 87.5373 290.944 87.9308C290.551 88.3243 290.329 88.858 290.329 89.4145C290.326 89.691 290.378 89.9653 290.482 90.2214C290.587 90.4774 290.741 90.71 290.937 90.9055C291.133 91.101 291.366 91.2555 291.622 91.3598C291.878 91.4641 292.153 91.5161 292.43 91.5128V91.4762ZM281.293 80.6432C281.818 80.603 282.308 80.3664 282.666 79.9808C283.023 79.5952 283.222 79.0889 283.222 78.5632C283.222 78.0375 283.023 77.5312 282.666 77.1456C282.308 76.7599 281.818 76.5234 281.293 76.4832C280.936 76.4824 280.586 76.5795 280.28 76.7638C280.28 76.532 280.39 76.3124 280.451 76.1172C280.721 76.0193 281.006 75.9697 281.293 75.9708C281.98 75.9708 282.638 76.2433 283.124 76.7283C283.609 77.2133 283.882 77.8712 283.882 78.5571C283.882 79.243 283.609 79.9008 283.124 80.3859C282.638 80.8709 281.98 81.1434 281.293 81.1434C280.912 81.1449 280.536 81.0571 280.194 80.8872C280.194 80.6798 280.194 80.4846 280.133 80.2894C280.468 80.5448 280.873 80.6935 281.293 80.7164V80.6432ZM308.157 136.602C308.845 136.605 309.503 136.88 309.988 137.367C310.473 137.854 310.746 138.513 310.746 139.2C310.749 139.423 310.72 139.645 310.66 139.859H310.123C310.207 139.65 310.248 139.426 310.245 139.2C310.242 138.648 310.021 138.119 309.63 137.729C309.239 137.338 308.71 137.117 308.157 137.114C307.63 137.113 307.123 137.314 306.739 137.674C306.356 138.035 306.124 138.528 306.093 139.054L305.617 138.773C305.724 138.17 306.042 137.625 306.513 137.234C306.985 136.843 307.581 136.632 308.194 136.638L308.157 136.602ZM293.382 108.543C293.893 108.546 294.393 108.699 294.817 108.985C295.241 109.271 295.571 109.675 295.765 110.148C295.959 110.621 296.008 111.141 295.907 111.641C295.806 112.142 295.558 112.602 295.196 112.962C294.833 113.323 294.372 113.568 293.87 113.667C293.368 113.766 292.849 113.714 292.376 113.518C291.904 113.322 291.5 112.99 291.217 112.565C290.933 112.14 290.781 111.64 290.781 111.129C290.784 110.788 290.855 110.45 290.99 110.136C291.124 109.822 291.32 109.537 291.565 109.299C291.81 109.061 292.1 108.873 292.419 108.748C292.737 108.622 293.077 108.561 293.419 108.568L293.382 108.543ZM293.382 113.216C293.8 113.222 294.211 113.104 294.56 112.875C294.91 112.646 295.183 112.318 295.344 111.933C295.505 111.547 295.546 111.122 295.463 110.713C295.379 110.304 295.175 109.929 294.875 109.637C294.576 109.345 294.196 109.15 293.785 109.076C293.373 109.003 292.949 109.054 292.567 109.224C292.185 109.394 291.863 109.675 291.643 110.03C291.422 110.385 291.314 110.797 291.331 111.215C291.346 111.757 291.573 112.273 291.963 112.651C292.353 113.029 292.875 113.24 293.419 113.24L293.382 113.216ZM306.936 97.3563H307.253L307.791 98.0273C307.524 97.8996 307.232 97.8329 306.936 97.8321C306.381 97.8353 305.85 98.0578 305.459 98.451C305.067 98.8441 304.848 99.376 304.848 99.9304C304.888 100.455 305.125 100.944 305.511 101.301C305.897 101.659 306.404 101.857 306.93 101.857C307.456 101.857 307.963 101.659 308.349 101.301C308.735 100.944 308.971 100.455 309.012 99.9304C309.024 99.7924 309.024 99.6536 309.012 99.5156L309.537 100.174C309.472 100.835 309.156 101.445 308.654 101.879C308.152 102.314 307.501 102.538 306.838 102.507C306.175 102.476 305.548 102.191 305.089 101.711C304.63 101.232 304.373 100.594 304.372 99.9304C304.387 99.2507 304.668 98.6041 305.154 98.1279C305.64 97.6518 306.292 97.3837 306.972 97.3807L306.936 97.3563ZM346.938 126.452C347.353 126.449 347.762 126.548 348.13 126.74C348.498 126.931 348.814 127.209 349.05 127.55L348.586 127.757C348.321 127.422 347.96 127.177 347.551 127.054C347.141 126.931 346.704 126.936 346.298 127.069C345.892 127.202 345.537 127.456 345.28 127.798C345.023 128.139 344.877 128.55 344.862 128.977C344.85 129.103 344.85 129.23 344.862 129.355L344.386 129.563C344.348 129.37 344.327 129.174 344.325 128.977C344.334 128.639 344.41 128.306 344.549 127.997C344.687 127.689 344.885 127.41 345.131 127.178C345.377 126.946 345.667 126.764 345.983 126.644C346.299 126.523 346.636 126.466 346.975 126.476L346.938 126.452ZM321.027 126.732C321.54 126.73 322.042 126.88 322.47 127.163C322.897 127.446 323.231 127.85 323.428 128.323C323.626 128.796 323.678 129.317 323.579 129.82C323.479 130.323 323.232 130.785 322.87 131.147C322.507 131.51 322.044 131.756 321.541 131.856C321.038 131.955 320.516 131.903 320.043 131.706C319.569 131.508 319.165 131.175 318.882 130.748C318.598 130.321 318.448 129.819 318.45 129.306C318.46 128.623 318.74 127.971 319.23 127.493C319.72 127.015 320.379 126.75 321.064 126.757L321.027 126.732ZM321.027 131.393C321.441 131.397 321.847 131.279 322.194 131.053C322.54 130.827 322.812 130.503 322.973 130.122C323.135 129.741 323.18 129.321 323.102 128.915C323.024 128.508 322.828 128.134 322.536 127.84C322.245 127.546 321.873 127.345 321.468 127.262C321.062 127.18 320.641 127.22 320.258 127.377C319.875 127.534 319.548 127.801 319.317 128.145C319.086 128.489 318.963 128.893 318.963 129.306C318.962 129.583 319.015 129.857 319.12 130.113C319.225 130.369 319.379 130.602 319.574 130.798C319.769 130.994 320.001 131.15 320.257 131.256C320.513 131.362 320.787 131.417 321.064 131.417L321.027 131.393Z" fill="white"/>
<path d="M337.121 113.801C335.9 111.508 331.101 102.285 330.173 99.8816C330.173 99.8206 330.258 99.7718 330.307 99.8816C331.809 101.992 336.864 111.142 338.085 113.435C340.528 118.034 343.092 122.633 345.119 127.452C345.124 127.472 345.122 127.494 345.114 127.513C345.107 127.532 345.093 127.548 345.075 127.559C345.057 127.57 345.037 127.575 345.016 127.573C344.995 127.572 344.976 127.563 344.96 127.55C342.005 123.121 339.563 118.425 337.121 113.801Z" fill="#263238"/>
<path d="M305.239 95.3557C302.137 91.5251 298.95 87.7677 295.775 83.9981C295.775 83.9249 295.836 83.8273 295.91 83.8883C297.851 85.8402 299.732 87.8531 301.563 89.9026C300.769 88.6826 299.951 87.4627 299.121 86.2428C299.048 86.1574 299.182 86.072 299.255 86.1574C300.465 87.6373 301.528 89.2306 302.43 90.9151C303.529 92.1351 304.616 93.4404 305.678 94.7335C307.241 96.6122 313.933 105.091 314.629 106.116C318.292 103.907 321.955 102.273 325.801 100.284C327.67 99.3205 329.55 98.3567 331.443 97.4296C333.317 96.3597 335.254 95.4024 337.243 94.5627C337.353 94.5627 337.511 95.1239 337.621 95.3801C337.731 95.6363 337.536 95.6363 337.475 95.5265L337.267 95.2215C336.449 95.7949 332.7 97.6614 331.748 98.186L326.131 101.089C322.334 103.066 314.445 107.189 314.397 107.104C313.615 106.335 306.814 97.3198 305.239 95.3557Z" fill="#263238"/>
<path d="M305.263 138.541C303.779 137.098 302.46 135.494 301.331 133.759C300.11 132.064 299.084 130.307 298.071 128.513C296.024 124.928 294.217 121.211 292.662 117.388C291.001 113.606 289.499 109.751 287.997 105.896L283.528 94.2943C284.664 98.2835 285.97 102.224 287.338 106.14C288.705 110.056 290.219 113.911 291.819 117.754C293.419 121.594 295.305 125.309 297.46 128.867C299.683 132.356 302.015 135.919 305.263 138.541Z" fill="#263238"/>
<path d="M286.397 102.541C285.954 101.6 285.431 100.698 284.835 99.845C284.541 99.4302 284.248 99.0033 283.919 98.6251C283.598 98.2011 283.256 97.7939 282.893 97.4052C283.248 98.3883 283.732 99.3197 284.334 100.174C284.916 101.05 285.61 101.845 286.397 102.541Z" fill="#263238"/>
</g>
<defs>
<clipPath id="clip0_23_828">
<rect width="1080" height="412" fill="white"/>
</clipPath>
</defs>
</svg>
