<svg width="76" height="76" viewBox="0 0 76 76" fill="none" xmlns="http://www.w3.org/2000/svg">
<path d="M76 19L37.715 0L0 19V23.75H4.75V76H14.25V33.25H61.75V76H71.25V23.75H76V19ZM19 28.5V23.75H28.5V28.5H19ZM33.25 28.5V23.75H42.75V28.5H33.25ZM47.5 28.5V23.75H57V28.5H47.5Z" fill="#EB4040"/>
<path d="M28.5 45.3707H23.75V40.6207H19V54.8707H33.25V40.6207H28.5V45.3707ZM28.5 64.3707H23.75V59.6207H19V73.8707H33.25V59.6207H28.5V64.3707ZM47.5 64.3707H42.75V59.6207H38V73.8707H52.25V59.6207H47.5V64.3707Z" fill="#FFB800" fill-opacity="0.81"/>
</svg>
