<svg width="585" height="320" viewBox="0 0 585 320" fill="none" xmlns="http://www.w3.org/2000/svg">
<path d="M400.612 225.674C400.612 233.252 397.953 236.414 393.103 236.414C388.254 236.414 385.584 233.252 385.584 225.674V201.49C385.584 193.926 388.254 190.744 393.103 190.744C397.953 190.744 400.612 193.926 400.612 201.49V203.208H414.188C413.955 189.156 408.368 179.517 393.103 179.517C377.586 179.517 372.008 189.529 372.008 203.938V223.238C372.008 237.644 377.586 247.649 393.103 247.649C408.624 247.649 414.188 237.644 414.188 223.238V221.519H400.612V225.674Z" fill="#1D2953"/>
<path d="M366.306 197.34C366.306 185.379 359.157 179.516 346.547 179.516C333.821 179.516 325.457 186.717 324.722 200.028H338.313C338.544 194.408 339.875 190.744 346.065 190.744C350.55 190.744 352.728 193.678 352.728 199.17V203.077C333.212 210.528 323.756 218.462 323.756 232.882C323.756 241.306 328.365 247.651 337.575 247.651C344.123 247.651 348.367 245.455 353.455 241.306C353.582 242.886 354.069 244.602 354.183 246.433H367.16C366.797 244.232 366.306 241.548 366.306 239.472V197.34ZM352.728 230.308C350.426 233.607 347.389 236.413 343.644 236.413C339.512 236.413 337.337 234.71 337.337 230.44C337.337 224.703 340.374 220.178 352.728 213.1V230.308Z" fill="#1D2953"/>
<path d="M315.758 192.455C319.758 192.455 322.065 193.188 324.489 193.796V179.514H321.693C315.269 179.514 309.572 182.811 306.302 188.431H306.058V180.743H293.088V246.434H306.662V201.247C306.662 195.394 311.149 192.455 315.758 192.455Z" fill="#1D2953"/>
<path d="M267.126 246.432H282.162V171.449H296.711V158.265H252.582V171.449H267.126V246.432Z" fill="#1D2953"/>
<path d="M240.454 179.516C232.573 179.516 229.665 182.445 223.968 187.324V180.739H211.118V246.435H224.701V194.895C227.85 192.582 230.517 190.746 233.429 190.746C236.335 190.746 238.269 192.211 238.269 195.508V246.435H251.85V193.312C251.85 184.763 247.611 179.516 240.454 179.516Z" fill="#FBCB07"/>
<path d="M181.537 157.045C165.776 157.045 158.498 167.183 158.498 179.634V225.06C158.498 237.519 165.776 247.651 181.537 247.651C197.295 247.651 204.571 237.519 204.571 225.06V179.634C204.571 167.183 197.295 157.045 181.537 157.045ZM189.54 224.7C189.54 231.291 187.596 234.465 181.537 234.465C175.475 234.465 173.534 231.291 173.534 224.7V180.004C173.534 173.411 175.475 170.229 181.537 170.229C187.596 170.229 189.54 173.411 189.54 180.004V224.7Z" fill="#FBCB07"/>
<path d="M156.523 148.551C167.592 140.344 204.275 111.962 258.535 134.828C258.535 134.828 258.533 110.848 258.535 107.077C200.024 96.9753 169.166 125.041 156.523 148.551Z" fill="#FBCB07"/>
<path d="M194.868 100.692C189.491 104.387 183.505 109.777 180.346 113.932C218.442 89.9188 261.841 101.537 262.191 101.642C262.615 101.509 343.988 76.1376 343.988 76.1376C343.988 76.1376 256.819 58.1125 194.868 100.692Z" fill="#FBCB07"/>
<path d="M353.417 83.5742L268.263 110.028V135.285L337.498 165.339L422.253 133.674V106.826L353.417 83.5742Z" fill="white"/>
<path d="M425.517 105.594C425.517 105.589 425.575 103.482 423.258 102.45C423.142 102.4 353.724 79.5686 353.724 79.5686C353.072 79.3565 352.342 79.3464 351.693 79.5541L266.368 106.138C264.231 106.996 264.018 108.845 263.998 109.233V136.116C263.998 137.477 264.806 138.708 266.061 139.232L336.515 169.077C337.768 169.669 339.089 169.299 339.426 169.176L423.347 137.11C424.658 136.602 425.517 135.343 425.517 133.938V105.594ZM270.718 114.365L334.498 140.015V160.759L270.718 133.858V114.365ZM337.895 134.091L277.439 109.779L352.652 86.3431L412.035 105.88L337.895 134.091ZM418.791 131.604L341.228 161.239V140.061L418.791 110.542V131.604Z" fill="#FBCB07"/>
<path d="M294.169 111.527L309.733 106.277C310.384 106.052 310.683 105.411 310.407 104.844C310.133 104.285 309.38 103.996 308.731 104.214L293.163 109.479C292.514 109.698 292.21 110.337 292.486 110.904C292.768 111.466 293.515 111.746 294.169 111.527Z" fill="#1D2953"/>
<path d="M297.913 113.016C298.197 113.578 298.935 113.866 299.584 113.644L315.15 108.379C315.799 108.167 316.106 107.526 315.827 106.959C315.55 106.39 314.797 106.111 314.148 106.329L298.577 111.599C297.931 111.813 297.629 112.454 297.913 113.016Z" fill="#1D2953"/>
<path d="M330.555 111.386L351.807 103.631C352.679 103.315 353.08 102.439 352.72 101.68C352.334 100.907 351.33 100.547 350.456 100.866L329.16 108.583C328.258 108.91 327.837 109.798 328.23 110.574C328.613 111.351 329.655 111.711 330.555 111.386Z" fill="#1D2953"/>
<path d="M334.836 113.408C335.219 114.164 336.235 114.532 337.135 114.2L358.21 106.455C359.08 106.134 359.485 105.255 359.11 104.492C358.748 103.741 357.738 103.381 356.869 103.695L335.749 111.424C334.854 111.744 334.446 112.637 334.836 113.408Z" fill="#1D2953"/>
<path d="M342.253 116.091C342.636 116.854 343.662 117.207 344.545 116.88L365.426 109.127C366.278 108.813 366.681 107.937 366.309 107.184C365.941 106.431 364.947 106.071 364.093 106.385L343.173 114.119C342.293 114.439 341.87 115.327 342.253 116.091Z" fill="#1D2953"/>
<path d="M424.208 172.938C425.06 173.796 425.519 174.938 425.519 176.168C425.519 177.425 425.06 178.528 424.208 179.373C423.318 180.257 422.173 180.744 420.976 180.744C419.767 180.744 418.649 180.257 417.782 179.386C416.917 178.513 416.446 177.387 416.446 176.168C416.446 174.963 416.917 173.809 417.794 172.913C418.633 172.055 419.741 171.593 420.976 171.593C422.211 171.593 423.344 172.068 424.208 172.938ZM423.891 173.258C423.1 172.463 422.084 172.04 420.976 172.04C419.871 172.04 418.864 172.464 418.114 173.235C417.323 174.041 416.892 175.078 416.892 176.168C416.892 177.259 417.323 178.283 418.099 179.067C418.877 179.848 419.893 180.282 420.976 180.282C422.046 180.282 423.088 179.848 423.891 179.051C424.654 178.296 425.075 177.297 425.075 176.168C425.075 175.053 424.654 174.029 423.891 173.258ZM423.28 174.912C423.28 175.643 422.796 176.194 422.021 176.284L423.204 178.745H422.388L421.255 176.386H419.934V178.745H419.219V173.452H421.115C422.568 173.452 423.28 173.888 423.28 174.912ZM419.934 173.939V175.901H420.976C422.084 175.901 422.555 175.693 422.555 174.887C422.555 174.22 422.033 173.939 420.976 173.939H419.934Z" fill="#1D2953"/>
</svg>
