<svg width="585" height="320" viewBox="0 0 585 320" fill="none" xmlns="http://www.w3.org/2000/svg">
<g clip-path="url(#clip0_3_22)">
<rect width="177" height="50" transform="matrix(-1 0 0 1 562 172)" fill="#157C34"/>
<rect x="20" y="241" width="542" height="53" fill="#4972D2"/>
<path d="M44.8423 45.5455L33.9759 111H24.1001L34.9666 45.5455H44.8423ZM61.973 81.8523L57.179 111H47.6229L55.8047 61.9091H64.9773L63.6349 69.8991H64.2422C65.7976 67.2784 67.9176 65.1903 70.6023 63.6349C73.3082 62.0582 76.5043 61.2699 80.1903 61.2699C83.5142 61.2699 86.3054 61.973 88.5639 63.3793C90.8438 64.7642 92.4524 66.831 93.3899 69.5795C94.3487 72.3281 94.4979 75.7266 93.8374 79.7749L88.5959 111H79.0398L84.0575 80.9254C84.6328 77.3672 84.1641 74.5866 82.6513 72.5838C81.1598 70.5597 78.7841 69.5476 75.5241 69.5476C73.3082 69.5476 71.2521 70.027 69.3558 70.9858C67.4808 71.9446 65.8935 73.3509 64.5938 75.2045C63.3153 77.0369 62.4418 79.2528 61.973 81.8523ZM132.477 61.9091L131.231 69.5795H104.416L105.663 61.9091H132.477ZM114.771 50.1477H124.327L116.593 96.5859C116.295 98.4396 116.348 99.8352 116.753 100.773C117.158 101.689 117.776 102.317 118.607 102.658C119.459 102.978 120.407 103.138 121.451 103.138C122.218 103.138 122.889 103.085 123.464 102.978C124.04 102.871 124.498 102.786 124.839 102.722L125.35 110.616C124.711 110.83 123.848 111.043 122.761 111.256C121.696 111.49 120.396 111.618 118.862 111.639C116.348 111.682 114.079 111.234 112.055 110.297C110.031 109.338 108.518 107.889 107.516 105.95C106.515 103.99 106.27 101.529 106.781 98.5675L114.771 50.1477ZM155.369 111.991C150.553 111.991 146.569 110.957 143.416 108.891C140.284 106.803 138.089 103.873 136.832 100.102C135.575 96.3089 135.372 91.8665 136.225 86.7741C137.056 81.7457 138.728 77.3139 141.242 73.4787C143.757 69.6435 146.889 66.6499 150.639 64.4979C154.41 62.3459 158.575 61.2699 163.135 61.2699C165.905 61.2699 168.515 61.728 170.965 62.6442C173.437 63.5604 175.536 64.9986 177.262 66.9588C178.987 68.919 180.181 71.4652 180.841 74.5973C181.523 77.7081 181.502 81.4901 180.777 85.9432L180.234 89.331H141.178L142.297 82.1719H171.956C172.404 79.6577 172.286 77.4311 171.605 75.4922C170.923 73.532 169.751 71.9872 168.089 70.858C166.448 69.7287 164.382 69.1641 161.889 69.1641C159.332 69.1641 156.945 69.8352 154.73 71.1776C152.514 72.5199 150.66 74.2351 149.169 76.3232C147.698 78.3899 146.771 80.5206 146.388 82.7152L145.269 89.267C144.715 92.8466 144.811 95.723 145.557 97.8963C146.324 100.07 147.666 101.646 149.584 102.626C151.502 103.607 153.899 104.097 156.775 104.097C158.629 104.097 160.344 103.841 161.921 103.33C163.519 102.797 164.936 102.019 166.171 100.996C167.407 99.9524 168.441 98.6527 169.271 97.0973L178.029 98.7273C176.857 101.391 175.173 103.724 172.979 105.727C170.784 107.708 168.195 109.253 165.213 110.361C162.251 111.447 158.97 111.991 155.369 111.991ZM187.337 111L195.519 61.9091H204.755L203.445 69.7074H203.956C205.277 67.0653 207.206 64.9879 209.741 63.4751C212.277 61.941 214.983 61.174 217.859 61.174C218.477 61.174 219.18 61.1953 219.968 61.2379C220.757 61.2592 221.396 61.3125 221.886 61.3977L220.352 70.5384C219.99 70.4318 219.329 70.3146 218.37 70.1868C217.412 70.0376 216.421 69.9631 215.398 69.9631C213.161 69.9631 211.083 70.4425 209.166 71.4013C207.248 72.3388 205.64 73.6491 204.34 75.3324C203.04 76.9943 202.199 78.8906 201.815 81.0213L196.893 111H187.337ZM236.436 81.8523L231.642 111H222.086L230.268 61.9091H239.44L238.098 69.8991H238.705C240.26 67.2784 242.381 65.1903 245.065 63.6349C247.771 62.0582 250.967 61.2699 254.653 61.2699C257.977 61.2699 260.768 61.973 263.027 63.3793C265.307 64.7642 266.915 66.831 267.853 69.5795C268.812 72.3281 268.961 75.7266 268.3 79.7749L263.059 111H253.503L258.52 80.9254C259.096 77.3672 258.627 74.5866 257.114 72.5838C255.623 70.5597 253.247 69.5476 249.987 69.5476C247.771 69.5476 245.715 70.027 243.819 70.9858C241.944 71.9446 240.356 73.3509 239.057 75.2045C237.778 77.0369 236.905 79.2528 236.436 81.8523ZM290.001 112.087C286.89 112.087 284.174 111.511 281.851 110.361C279.529 109.189 277.814 107.495 276.706 105.279C275.598 103.063 275.31 100.347 275.843 97.1293C276.312 94.3594 277.228 92.0795 278.591 90.2898C279.976 88.5 281.66 87.0831 283.641 86.0391C285.623 84.9737 287.775 84.1747 290.097 83.642C292.42 83.1094 294.763 82.7152 297.128 82.4595C300.111 82.1186 302.53 81.831 304.383 81.5966C306.258 81.3622 307.665 81 308.602 80.5099C309.54 79.9986 310.104 79.1676 310.296 78.017V77.7933C310.743 75.0234 310.339 72.8714 309.082 71.3374C307.846 69.782 305.694 69.0043 302.626 69.0043C299.43 69.0043 296.745 69.7074 294.572 71.1136C292.42 72.5199 290.832 74.0966 289.809 75.8438L281.244 73.7983C282.778 70.8153 284.728 68.4077 287.093 66.5753C289.479 64.7216 292.089 63.3793 294.923 62.5483C297.757 61.696 300.655 61.2699 303.616 61.2699C305.577 61.2699 307.611 61.5043 309.721 61.973C311.83 62.4205 313.748 63.2514 315.474 64.4659C317.221 65.6804 318.52 67.4169 319.373 69.6754C320.225 71.9126 320.353 74.821 319.756 78.4006L314.355 111H305.023L306.173 104.288H305.79C304.98 105.524 303.851 106.739 302.402 107.932C300.974 109.125 299.227 110.116 297.16 110.904C295.094 111.692 292.707 112.087 290.001 112.087ZM293.261 104.416C295.925 104.416 298.279 103.894 300.324 102.85C302.391 101.806 304.064 100.442 305.342 98.7592C306.621 97.0547 307.42 95.233 307.739 93.294L308.794 86.9659C308.389 87.3068 307.675 87.6158 306.653 87.8928C305.651 88.1697 304.522 88.4148 303.265 88.6278C302.008 88.8409 300.772 89.022 299.557 89.1712C298.364 89.3203 297.373 89.4588 296.585 89.5866C294.71 89.821 292.952 90.2152 291.312 90.7692C289.692 91.3232 288.339 92.1222 287.253 93.1662C286.166 94.1889 285.484 95.5526 285.207 97.2571C284.824 99.6222 285.388 101.412 286.901 102.626C288.435 103.82 290.555 104.416 293.261 104.416ZM358.18 61.9091L356.934 69.5795H330.119L331.366 61.9091H358.18ZM340.474 50.1477H350.031L342.296 96.5859C341.998 98.4396 342.051 99.8352 342.456 100.773C342.861 101.689 343.479 102.317 344.31 102.658C345.162 102.978 346.11 103.138 347.154 103.138C347.921 103.138 348.592 103.085 349.168 102.978C349.743 102.871 350.201 102.786 350.542 102.722L351.053 110.616C350.414 110.83 349.551 111.043 348.464 111.256C347.399 111.49 346.099 111.618 344.565 111.639C342.051 111.682 339.782 111.234 337.758 110.297C335.734 109.338 334.221 107.889 333.219 105.95C332.218 103.99 331.973 101.529 332.484 98.5675L340.474 50.1477ZM360.569 111L368.751 61.9091H378.307L370.126 111H360.569ZM375.527 54.2386C373.865 54.2386 372.459 53.6847 371.308 52.5767C370.179 51.4474 369.657 50.1051 369.742 48.5497C369.827 46.973 370.488 45.6307 371.724 44.5227C372.959 43.3935 374.398 42.8288 376.038 42.8288C377.7 42.8288 379.096 43.3935 380.225 44.5227C381.354 45.6307 381.887 46.973 381.823 48.5497C381.738 50.1051 381.077 51.4474 379.841 52.5767C378.627 53.6847 377.189 54.2386 375.527 54.2386ZM403.884 111.991C399.217 111.991 395.318 110.925 392.186 108.795C389.054 106.643 386.849 103.638 385.57 99.782C384.313 95.9041 384.1 91.3977 384.931 86.2628C385.741 81.2344 387.371 76.8452 389.821 73.0952C392.293 69.3452 395.382 66.4368 399.089 64.37C402.818 62.3033 406.962 61.2699 411.522 61.2699C416.188 61.2699 420.077 62.3459 423.188 64.4979C426.32 66.6499 428.525 69.6648 429.803 73.5426C431.082 77.4205 431.305 81.9375 430.474 87.0938C429.665 92.0795 428.013 96.4474 425.521 100.197C423.049 103.926 419.96 106.824 416.252 108.891C412.545 110.957 408.422 111.991 403.884 111.991ZM404.427 103.969C407.495 103.969 410.169 103.159 412.449 101.54C414.75 99.9205 416.625 97.7685 418.074 95.0838C419.523 92.3991 420.513 89.4588 421.046 86.2628C421.536 83.1733 421.526 80.3501 421.014 77.7933C420.524 75.2152 419.459 73.1484 417.818 71.593C416.178 70.0376 413.898 69.2599 410.979 69.2599C407.911 69.2599 405.215 70.0803 402.893 71.7209C400.592 73.3402 398.717 75.5028 397.268 78.2088C395.84 80.9148 394.871 83.8658 394.359 87.0618C393.869 90.13 393.869 92.9531 394.359 95.5312C394.849 98.0881 395.915 100.134 397.555 101.668C399.196 103.202 401.487 103.969 404.427 103.969ZM451.592 81.8523L446.798 111H437.242L445.424 61.9091H454.596L453.254 69.8991H453.861C455.417 67.2784 457.537 65.1903 460.221 63.6349C462.927 62.0582 466.123 61.2699 469.809 61.2699C473.133 61.2699 475.925 61.973 478.183 63.3793C480.463 64.7642 482.072 66.831 483.009 69.5795C483.968 72.3281 484.117 75.7266 483.457 79.7749L478.215 111H468.659L473.677 80.9254C474.252 77.3672 473.783 74.5866 472.27 72.5838C470.779 70.5597 468.403 69.5476 465.143 69.5476C462.927 69.5476 460.871 70.027 458.975 70.9858C457.1 71.9446 455.513 73.3509 454.213 75.2045C452.934 77.0369 452.061 79.2528 451.592 81.8523ZM505.157 112.087C502.047 112.087 499.33 111.511 497.008 110.361C494.685 109.189 492.97 107.495 491.862 105.279C490.754 103.063 490.466 100.347 490.999 97.1293C491.468 94.3594 492.384 92.0795 493.748 90.2898C495.133 88.5 496.816 87.0831 498.797 86.0391C500.779 84.9737 502.931 84.1747 505.253 83.642C507.576 83.1094 509.92 82.7152 512.285 82.4595C515.268 82.1186 517.686 81.831 519.54 81.5966C521.415 81.3622 522.821 81 523.758 80.5099C524.696 79.9986 525.26 79.1676 525.452 78.017V77.7933C525.9 75.0234 525.495 72.8714 524.238 71.3374C523.002 69.782 520.85 69.0043 517.782 69.0043C514.586 69.0043 511.901 69.7074 509.728 71.1136C507.576 72.5199 505.988 74.0966 504.966 75.8438L496.4 73.7983C497.934 70.8153 499.884 68.4077 502.249 66.5753C504.635 64.7216 507.246 63.3793 510.079 62.5483C512.913 61.696 515.811 61.2699 518.773 61.2699C520.733 61.2699 522.768 61.5043 524.877 61.973C526.986 62.4205 528.904 63.2514 530.63 64.4659C532.377 65.6804 533.677 67.4169 534.529 69.6754C535.381 71.9126 535.509 74.821 534.912 78.4006L529.511 111H520.179L521.329 104.288H520.946C520.136 105.524 519.007 106.739 517.558 107.932C516.131 109.125 514.383 110.116 512.317 110.904C510.25 111.692 507.863 112.087 505.157 112.087ZM508.417 104.416C511.081 104.416 513.435 103.894 515.481 102.85C517.547 101.806 519.22 100.442 520.498 98.7592C521.777 97.0547 522.576 95.233 522.895 93.294L523.95 86.9659C523.545 87.3068 522.831 87.6158 521.809 87.8928C520.807 88.1697 519.678 88.4148 518.421 88.6278C517.164 88.8409 515.928 89.022 514.714 89.1712C513.52 89.3203 512.53 89.4588 511.741 89.5866C509.866 89.821 508.108 90.2152 506.468 90.7692C504.849 91.3232 503.496 92.1222 502.409 93.1662C501.322 94.1889 500.64 95.5526 500.363 97.2571C499.98 99.6222 500.545 101.412 502.057 102.626C503.591 103.82 505.711 104.416 508.417 104.416ZM562.662 45.5455L551.795 111H542.239L553.106 45.5455H562.662ZM88.1484 178.26H72.3601C72.4453 176.598 72.2855 175.117 71.8807 173.817C71.4759 172.496 70.8366 171.367 69.9631 170.43C69.0895 169.471 68.0028 168.746 66.7031 168.256C65.4034 167.766 63.8906 167.521 62.1648 167.521C58.8622 167.521 55.8686 168.342 53.1839 169.982C50.4993 171.623 48.2514 173.988 46.4403 177.077C44.6293 180.167 43.3615 183.874 42.6371 188.2C41.9766 192.376 41.9872 195.859 42.669 198.651C43.3722 201.442 44.6719 203.54 46.5682 204.947C48.4645 206.332 50.8722 207.024 53.7912 207.024C55.6875 207.024 57.4453 206.8 59.0646 206.353C60.7053 205.884 62.1861 205.213 63.5071 204.339C64.8281 203.466 65.968 202.411 66.9268 201.175C67.907 199.918 68.6634 198.523 69.196 196.989H85.1122C84.3239 199.865 83.0241 202.731 81.2131 205.586C79.4233 208.42 77.1648 210.987 74.4375 213.288C71.7102 215.589 68.5462 217.433 64.9453 218.817C61.3445 220.202 57.3388 220.895 52.9283 220.895C46.8984 220.895 41.6996 219.542 37.3317 216.836C32.9851 214.13 29.8423 210.21 27.9034 205.075C25.9858 199.918 25.6236 193.675 26.8168 186.346C27.9886 179.251 30.3004 173.274 33.7521 168.416C37.2251 163.558 41.4439 159.883 46.4084 157.39C51.3942 154.897 56.7102 153.651 62.3565 153.651C66.4474 153.651 70.1229 154.205 73.3828 155.312C76.6641 156.399 79.4446 157.997 81.7244 160.107C84.0043 162.195 85.6982 164.762 86.8061 167.809C87.9354 170.856 88.3828 174.339 88.1484 178.26ZM104.041 220.831C100.93 220.831 98.2452 220.309 95.9867 219.265C93.7495 218.2 92.1088 216.591 91.0648 214.439C90.0421 212.287 89.7971 209.602 90.3297 206.385C90.7985 203.658 91.6614 201.367 92.9185 199.513C94.1969 197.638 95.763 196.115 97.6167 194.943C99.4917 193.771 101.58 192.876 103.881 192.259C106.182 191.641 108.59 191.225 111.104 191.012C113.916 190.756 116.196 190.479 117.943 190.181C119.712 189.883 121.033 189.467 121.906 188.935C122.78 188.381 123.313 187.614 123.504 186.634V186.474C123.76 184.833 123.409 183.565 122.45 182.67C121.491 181.776 120.053 181.328 118.135 181.328C116.09 181.328 114.343 181.776 112.894 182.67C111.445 183.565 110.433 184.801 109.857 186.378L95.5392 185.866C96.4341 182.884 97.9682 180.22 100.142 177.876C102.315 175.511 105.074 173.658 108.419 172.315C111.786 170.952 115.674 170.27 120.085 170.27C123.195 170.27 126.008 170.643 128.522 171.388C131.036 172.113 133.156 173.178 134.882 174.585C136.629 175.969 137.876 177.674 138.622 179.698C139.367 181.722 139.527 184.034 139.101 186.634L133.508 220H118.806L119.957 213.161H119.573C118.423 214.822 117.07 216.229 115.514 217.379C113.98 218.53 112.254 219.393 110.337 219.968C108.419 220.543 106.32 220.831 104.041 220.831ZM110.624 210.604C112.265 210.604 113.82 210.263 115.291 209.581C116.761 208.899 117.997 207.962 118.998 206.768C120.021 205.554 120.671 204.148 120.948 202.55L121.683 197.884C121.235 198.118 120.671 198.331 119.989 198.523C119.307 198.714 118.583 198.896 117.816 199.066C117.048 199.215 116.26 199.364 115.45 199.513C114.662 199.641 113.906 199.759 113.181 199.865C111.647 200.099 110.316 200.462 109.186 200.952C108.057 201.442 107.151 202.081 106.47 202.869C105.809 203.636 105.404 204.553 105.255 205.618C104.999 207.216 105.372 208.452 106.374 209.325C107.375 210.178 108.792 210.604 110.624 210.604ZM143.064 220L151.246 170.909H166.427L164.925 179.858H165.436C166.864 176.619 168.728 174.212 171.029 172.635C173.33 171.037 175.823 170.238 178.508 170.238C179.232 170.238 179.957 170.291 180.681 170.398C181.427 170.483 182.13 170.611 182.791 170.781L180.49 184.396C179.765 184.119 178.817 183.917 177.645 183.789C176.473 183.64 175.408 183.565 174.449 183.565C172.595 183.565 170.869 183.981 169.271 184.812C167.695 185.621 166.352 186.761 165.244 188.232C164.158 189.68 163.444 191.385 163.103 193.345L158.693 220H143.064ZM180.945 220L189.127 170.909H204.308L202.806 179.858H203.317C204.745 176.619 206.609 174.212 208.91 172.635C211.211 171.037 213.704 170.238 216.389 170.238C217.113 170.238 217.838 170.291 218.562 170.398C219.308 170.483 220.011 170.611 220.672 170.781L218.37 184.396C217.646 184.119 216.698 183.917 215.526 183.789C214.354 183.64 213.289 183.565 212.33 183.565C210.476 183.565 208.75 183.981 207.152 184.812C205.576 185.621 204.233 186.761 203.125 188.232C202.039 189.68 201.325 191.385 200.984 193.345L196.574 220H180.945ZM218.826 220L227.008 170.909H242.636L234.454 220H218.826ZM235.925 165.156C233.709 165.156 231.908 164.421 230.523 162.951C229.138 161.481 228.595 159.723 228.893 157.678C229.192 155.611 230.236 153.853 232.025 152.404C233.815 150.955 235.807 150.231 238.002 150.231C240.218 150.231 241.997 150.955 243.339 152.404C244.703 153.853 245.236 155.611 244.937 157.678C244.682 159.723 243.659 161.481 241.869 162.951C240.101 164.421 238.119 165.156 235.925 165.156ZM267.222 220.927C262.087 220.927 257.825 219.915 254.438 217.891C251.071 215.845 248.706 212.937 247.342 209.165C245.979 205.373 245.734 200.866 246.607 195.646C247.46 190.575 249.196 186.143 251.817 182.351C254.459 178.537 257.783 175.575 261.788 173.466C265.794 171.335 270.258 170.27 275.18 170.27C278.674 170.27 281.774 170.813 284.48 171.9C287.186 172.987 289.423 174.606 291.192 176.758C292.96 178.888 294.164 181.509 294.803 184.62C295.442 187.731 295.421 191.3 294.739 195.327L294.132 199.226H251.497L252.935 190.149H281.06C281.316 188.487 281.178 187.006 280.645 185.707C280.112 184.407 279.249 183.395 278.056 182.67C276.884 181.925 275.446 181.552 273.741 181.552C272.016 181.552 270.396 181.957 268.884 182.766C267.392 183.555 266.124 184.62 265.08 185.962C264.036 187.305 263.354 188.817 263.035 190.501L261.341 199.801C261 201.868 261.096 203.636 261.629 205.107C262.161 206.577 263.077 207.706 264.377 208.494C265.677 209.261 267.349 209.645 269.395 209.645C270.759 209.645 272.037 209.464 273.23 209.102C274.423 208.718 275.489 208.153 276.426 207.408C277.385 206.641 278.163 205.714 278.759 204.627L293.013 205.043C291.863 208.26 290.084 211.062 287.676 213.448C285.268 215.813 282.328 217.656 278.855 218.977C275.403 220.277 271.526 220.927 267.222 220.927ZM298.631 220L306.812 170.909H321.993L320.491 179.858H321.003C322.43 176.619 324.295 174.212 326.596 172.635C328.897 171.037 331.39 170.238 334.074 170.238C334.799 170.238 335.523 170.291 336.248 170.398C336.993 170.483 337.697 170.611 338.357 170.781L336.056 184.396C335.331 184.119 334.383 183.917 333.211 183.789C332.04 183.64 330.974 183.565 330.015 183.565C328.162 183.565 326.436 183.981 324.838 184.812C323.261 185.621 321.919 186.761 320.811 188.232C319.724 189.68 319.01 191.385 318.67 193.345L314.259 220H298.631Z" fill="#383838"/>
</g>
<defs>
<clipPath id="clip0_3_22">
<rect width="585" height="320" fill="white"/>
</clipPath>
</defs>
</svg>
