<svg xmlns="http://www.w3.org/2000/svg" width="427" height="174" viewBox="0 0 427 200" fill="none">

<path d="M412.625 42.4003V84.8006H419.525H426.425V42.4003V6.57737e-05H419.525H412.625V42.4003Z" fill="#FF0000"/>
<path d="M305.681 36.3429C305.681 79.0893 308.096 84.1081 329.83 86.0118L340.179 87.0502V80.993C340.179 74.9358 340.007 74.7627 331.555 73.7244C320.688 72.3399 319.135 69.5709 319.825 52.2647L320.343 38.9389L330.347 38.4197L340.179 37.9005V32.0164V25.9592H329.83H319.48V15.5755V5.19172H312.581H305.681V36.3429Z" fill="#FF0000"/>
<path d="M57.8117 10.3837C50.7396 14.5372 48.6697 18.6907 48.6697 28.2091C48.6697 33.401 49.8771 37.3814 52.292 40.4966C56.6043 45.8615 56.7768 45.5154 47.2898 48.2844C39.1827 50.5342 28.3158 59.5334 22.9685 68.1865C17.9663 76.1474 -2.21513 160.775 0.199747 163.198C2.09715 165.101 15.7239 160.256 45.0474 146.757C57.9842 140.873 59.1916 140.7 56.7768 144.161C39.3552 170.812 39.5277 171.332 65.0563 171.332C90.7575 171.332 90.7575 171.159 71.611 140.7C69.3686 137.238 69.7136 136.892 78.3381 132.912C96.6222 124.432 106.109 110.241 106.282 90.8577C106.454 80.4739 105.764 77.3588 101.279 69.398C98.5196 64.3792 93.5173 58.1489 90.0675 55.726C86.7902 53.3032 83.3404 50.7072 82.6504 50.015C81.7879 49.4958 86.7902 47.5921 93.8623 46.0346C110.076 42.2272 114.216 40.4966 114.216 37.3814C114.216 34.9586 87.9976 14.7103 78.1656 9.69149C71.266 6.05718 64.5389 6.23025 57.8117 10.3837ZM77.6482 17.3062C82.8229 22.152 83.8578 28.0361 80.753 34.2663C76.4407 42.4003 67.8162 44.1309 60.0541 37.9006C56.6043 35.1316 55.5693 32.8818 55.5693 27.69C55.5693 15.9217 69.1961 9.51843 77.6482 17.3062ZM98.0021 31.8435C104.902 36.5161 104.384 37.2084 94.0348 38.939L86.7902 40.1504L88.6876 33.9202C89.7225 30.459 90.93 27.69 91.2749 27.69C91.6199 27.69 94.7248 29.5936 98.0021 31.8435ZM75.9233 57.9759C90.4125 64.2061 97.6571 76.3205 96.6222 92.7614C96.1047 101.414 94.8973 105.222 90.93 111.106C75.4058 132.912 42.115 130.835 30.0407 107.299C24.3485 96.3957 25.3834 80.4739 32.4555 70.4363C41.9425 56.9375 60.5716 51.7456 75.9233 57.9759ZM31.4206 122.874C35.7329 127.201 41.9425 131.7 45.2199 132.739L51.2571 134.469L37.4578 141.046C29.8682 144.507 20.2087 149.007 16.0689 150.737L8.6518 154.025L9.68675 150.218C10.2042 147.968 12.7916 137.758 15.3789 127.547C19.1737 112.664 20.5537 109.375 21.9336 111.971C22.9685 113.702 27.1083 118.548 31.4206 122.874ZM71.7835 156.102L76.4407 164.409H64.8838H53.4994L55.9143 160.429C57.2942 158.352 59.8816 154.025 61.434 150.737C64.8838 144.334 65.0563 144.507 71.7835 156.102Z" fill="#FF0000"/>
<path d="M128.015 45.8616V84.8006H135.778H143.54V72.8593V61.0911L157.339 60.0527C180.97 58.149 189.077 50.7073 188.042 31.6705C187.525 23.1904 186.49 19.9022 183.213 16.2679C176.14 8.65319 169.586 6.92257 147.852 6.92257H128.015V45.8616ZM169.068 23.5365C171.828 25.4402 172.863 27.8631 172.863 32.5358C172.863 35.997 172.173 39.8044 171.483 41.0158C169.413 44.304 161.134 46.7269 151.992 46.7269H143.54V33.7472V20.7676H154.407C161.306 20.7676 166.481 21.6329 169.068 23.5365Z" fill="#FF0000"/>
<path d="M208.569 26.6515C195.632 31.4972 188.387 41.881 188.387 55.3798C188.387 80.6469 217.193 95.3572 238.41 80.82C255.831 68.8787 254.106 37.3813 235.477 28.5552C226.853 24.4017 216.503 23.7094 208.569 26.6515ZM231.683 43.0924C239.617 51.0533 238.065 66.1097 228.578 71.1285C216.331 77.7048 202.187 69.2248 202.187 55.2067C202.187 39.6311 220.643 32.0164 231.683 43.0924Z" fill="#FF0000"/>
<path d="M264.801 26.8247C258.591 29.5937 253.934 37.2084 253.934 44.9962C253.934 53.1301 259.971 57.9759 272.908 60.2257C278.945 61.4371 285.155 63.5139 286.535 64.8984C289.122 67.4943 288.95 68.0135 285.155 71.1286C279.98 75.4552 273.77 75.2821 269.458 70.9555C267.216 68.7057 263.766 67.4943 259.109 67.4943H252.209L254.451 73.0323C257.729 80.9931 266.353 85.6658 278.428 85.6658C293.952 85.6658 303.784 75.8013 301.369 62.9947C299.989 55.553 293.262 50.8803 281.36 49.3227C270.665 47.7652 266.181 44.6501 268.768 40.3235C270.32 37.9006 273.425 37.0353 283.947 36.6892L297.057 36.17V30.2859V24.2287H283.775C276.185 24.4018 267.906 25.4402 264.801 26.8247Z" fill="#FF0000"/>
<path d="M363.811 26.6514C355.186 29.9396 350.701 33.9201 346.906 42.4001C342.594 51.7455 342.767 61.61 347.596 70.9554C356.048 88.0885 381.06 91.7229 390.892 77.5317C393.651 73.7244 393.651 73.7244 393.651 79.2624C393.651 84.4542 393.996 84.8004 399.689 84.8004H405.726V65.5905C405.726 43.2654 403.483 36.6891 393.651 30.1127C385.717 24.7478 372.78 23.3633 363.811 26.6514ZM387.269 42.9193C390.892 46.5536 391.927 49.4957 391.927 55.0337C391.927 64.5521 387.959 70.4362 380.37 72.5129C365.535 76.6664 353.289 62.6484 359.153 48.2842C362.086 41.1887 367.26 38.0736 375.54 38.0736C381.06 38.0736 383.647 39.1119 387.269 42.9193Z" fill="#FF0000"/>
<path d="M128.015 132.393V171.332H135.778H143.54V154.891V138.277L162.169 138.796L180.625 139.315L181.143 155.237L181.66 171.332H188.387H195.287V132.393V93.4536H188.387H181.488V109.029V124.605H162.514H143.54V109.029V93.4536H135.778H128.015V132.393Z" fill="#FF0000"/>
<path d="M244.182 117.573C244.01 143.878 242.457 154.089 237.973 157.377C233.488 160.665 222.793 160.146 218.136 156.338C214.341 153.223 213.996 151.666 213.479 132.975L212.789 112.9H205.889H198.99L199.68 134.36C200.197 152.877 200.715 156.512 203.819 160.665C209.684 168.626 215.376 171.914 225.381 172.779C233.143 173.645 236.075 172.952 242.975 169.491C251.427 165.165 251.427 165.165 256.947 168.453C268.676 175.375 284.718 174.337 295.24 166.203C301.277 161.357 306.279 150.281 306.279 141.282C306.279 119.13 281.44 103.728 264.191 115.496L257.982 119.649V106.843V93.863H251.082H244.182V117.573ZM286.098 128.475C294.377 135.052 293.687 150.974 284.89 157.031C278.853 161.357 267.814 160.319 262.466 155.127C256.257 148.724 256.084 136.263 262.294 129.514C267.641 123.63 279.37 123.111 286.098 128.475Z" fill="#FF0000"/>
</svg>