<svg width="493" height="355" viewBox="0 0 493 355" fill="none" xmlns="http://www.w3.org/2000/svg">
<g clip-path="url(#clip0_184_831)">
<path d="M449.98 101.656C440.251 96.3246 435.839 100.765 432.3 96.3246C428.761 91.8846 442.029 80.3621 415.448 68.8397C415.448 68.8397 413.687 44.0126 377.424 43.1215C341.162 42.2305 350.936 67.9486 341.208 74.1554C331.479 80.3621 328.829 70.6679 319.101 76.8132C309.373 82.9585 313.8 95.4335 305.849 97.2003C297.898 98.967 287.266 89.2267 277.538 95.4335C267.81 101.64 267.81 106.956 263.397 106.956C258.985 106.956 250.13 103.407 244.83 106.956C239.529 110.505 233.324 114.945 233.324 114.945H456.996C456.996 114.945 459.708 106.971 449.98 101.656Z" fill="#FF0000"/>
<path opacity="0.5" d="M449.98 101.656C440.251 96.3246 435.839 100.765 432.3 96.3246C428.761 91.8846 442.029 80.3621 415.448 68.8397C415.448 68.8397 413.687 44.0126 377.424 43.1215C341.162 42.2305 350.936 67.9486 341.208 74.1554C331.479 80.3621 328.829 70.6679 319.101 76.8132C309.373 82.9585 313.8 95.4335 305.849 97.2003C297.898 98.967 287.266 89.2267 277.538 95.4335C267.81 101.64 267.81 106.956 263.397 106.956C258.985 106.956 250.13 103.407 244.83 106.956C239.529 110.505 233.324 114.945 233.324 114.945H456.996C456.996 114.945 459.708 106.971 449.98 101.656Z" fill="white"/>
<path d="M196.326 300.963C189.494 297.23 186.384 300.334 183.902 297.23C181.42 294.127 190.734 286.015 172.105 277.918C172.105 277.918 170.864 260.481 145.387 259.851C119.91 259.221 126.758 277.289 119.925 281.652C113.093 286.015 111.239 279.163 104.406 283.526C97.5736 287.889 100.668 296.6 95.0917 297.845C89.5152 299.089 82.0391 292.237 75.1757 296.6C68.3123 300.963 68.343 304.697 65.2484 304.697C62.1537 304.697 55.9185 302.208 52.1957 304.697C48.4729 307.186 44.1221 310.304 44.1221 310.304H201.29C201.29 310.304 203.159 304.697 196.326 300.963Z" fill="white"/>
<path opacity="0.5" d="M196.326 300.963C189.494 297.23 186.384 300.334 183.902 297.23C181.42 294.127 190.734 286.015 172.105 277.918C172.105 277.918 170.864 260.481 145.387 259.851C119.91 259.221 126.758 277.289 119.925 281.652C113.093 286.015 111.239 279.163 104.406 283.526C97.5736 287.889 100.668 296.6 95.0917 297.845C89.5152 299.089 82.0391 292.237 75.1757 296.6C68.3123 300.963 68.343 304.697 65.2484 304.697C62.1537 304.697 55.9185 302.208 52.1957 304.697C48.4729 307.186 44.1221 310.304 44.1221 310.304H201.29C201.29 310.304 203.159 304.697 196.326 300.963Z" fill="white"/>
<path d="M390.568 560.557H487.391C485.537 548.681 477.923 550.77 476.912 532.365C476.406 523.147 484.97 511.625 484.22 499.457C483.607 489.425 473.756 479.147 472.99 467.67C472.301 457.316 480.65 445.824 479.899 434.67C479.118 424.131 469.175 414.006 468.241 403.037C467.383 392.283 475.625 380.745 474.645 369.929C473.664 359.113 463.507 349.173 462.389 338.511C461.27 327.557 469.252 315.758 468.026 305.281C466.739 294.142 456.261 284.525 454.836 274.262C453.304 262.847 460.673 250.649 458.942 240.785C456.812 228.71 445.598 219.968 443.239 211.058C438.842 194.45 439.393 178.457 434.2 177.412C428.669 176.306 427.398 191.992 423.2 209.521C421.086 218.324 410.132 227.25 408.324 239.341C406.869 249.128 414.621 261.034 413.349 272.403C412.216 282.589 401.997 292.375 401.001 303.452C400.067 313.869 408.355 325.345 407.543 336.237C406.746 346.823 396.819 356.916 396.16 367.671C395.501 378.425 404.019 389.671 403.437 400.287C402.84 411.164 393.112 421.442 392.606 431.905C392.085 442.982 400.802 454.151 400.373 464.413C399.898 475.798 390.308 486.214 389.956 496.169C389.527 508.245 398.366 519.383 398.091 528.586C397.508 548.558 388.393 544.395 388.071 560.465L390.568 560.557Z" fill="#FF0000"/>
<path d="M432.132 209.321V556.071" stroke="black" stroke-miterlimit="10"/>
<path d="M447.253 245.671L431.488 259.329L418.589 242.076" stroke="black" stroke-miterlimit="10"/>
<path d="M447.253 306.033L431.488 319.676L418.589 302.438" stroke="black" stroke-miterlimit="10"/>
<path d="M324.616 560.557H399.362C397.922 551.339 392.054 552.998 391.273 538.802C390.875 531.643 397.478 522.794 396.911 513.392C396.436 505.71 388.837 497.706 388.24 488.81C387.704 480.821 394.199 471.911 393.571 463.338C392.974 455.195 385.268 447.391 384.578 438.926C383.889 430.461 390.277 421.703 389.527 413.361C388.776 405.019 380.917 397.337 380.09 389.118C379.232 380.653 385.39 371.558 384.44 363.446C383.445 354.858 375.356 347.437 374.268 339.525C373.042 330.707 378.772 321.289 377.424 313.684C375.785 304.359 367.129 297.599 365.321 290.732C361.92 277.919 362.349 265.551 358.335 264.752C354.061 263.892 353.08 275.998 349.848 289.549C348.224 296.339 339.752 303.237 338.358 312.593C337.24 320.152 343.214 329.339 342.234 338.112C341.361 345.978 333.486 353.475 332.705 362.079C331.985 370.114 338.388 378.978 337.76 387.382C337.148 395.555 329.503 403.344 328.967 411.641C328.43 419.937 335.095 428.632 334.589 436.821C334.084 445.01 326.623 453.152 326.24 461.233C325.826 469.775 332.552 478.394 332.23 486.321C331.862 495.109 324.463 503.221 324.187 510.903C323.85 520.213 330.683 528.832 330.468 535.914C330.008 551.277 322.977 548.128 322.731 560.495L324.616 560.557Z" fill="#FF0000"/>
<path d="M356.711 289.441V557.1" stroke="black" stroke-miterlimit="10"/>
<path d="M368.37 317.494L356.206 328.034L346.248 314.714" stroke="black" stroke-miterlimit="10"/>
<path d="M257.989 559.835V249.22H274.336V559.835" fill="#2E353A"/>
<path d="M257.989 559.835V249.22H274.336V559.835" stroke="#2E353A" stroke-linecap="round" stroke-linejoin="round"/>
<path d="M249.824 559.835V249.22H266.171V559.835" fill="#FF0000"/>
<path d="M249.824 559.835V249.22H266.171V559.835" stroke="#2E353A" stroke-linecap="round" stroke-linejoin="round"/>
<g style="mix-blend-mode:multiply" opacity="0.3">
<path d="M266.171 249.22H249.824V286.092H266.171V249.22Z" fill="#2E353A"/>
</g>
<path d="M319.576 127.958H198.456L251.249 257.992H372.384V180.899C372.384 173.946 371.018 167.06 368.364 160.636C365.71 154.212 361.82 148.375 356.916 143.458C352.012 138.542 346.19 134.643 339.784 131.983C333.377 129.323 326.51 127.956 319.576 127.958Z" fill="#FF0000" stroke="#2E353A" stroke-linecap="round" stroke-linejoin="round"/>
<g style="mix-blend-mode:multiply" opacity="0.3">
<path d="M242.011 235.224L251.203 257.992H372.384V180.899C372.384 179.732 372.384 178.564 372.261 177.412H242.041L242.011 235.224Z" fill="black"/>
</g>
<path d="M318.688 177.412H305.941" stroke="#2E353A" stroke-linecap="round" stroke-linejoin="round"/>
<path d="M372.261 177.412H333.686" stroke="#2E353A" stroke-linecap="round" stroke-linejoin="round"/>
<path d="M198.456 127.958C212.461 127.958 225.893 133.537 235.796 143.468C245.7 153.4 251.264 166.87 251.264 180.915V258.008H145.647V180.899C145.652 166.857 151.217 153.391 161.12 143.463C171.023 133.535 184.453 127.958 198.456 127.958Z" fill="#2E353A" stroke="#2E353A" stroke-linecap="round" stroke-linejoin="round"/>
<path d="M251.249 249.22H160.248V257.992H251.249V249.22Z" fill="#FF0000" stroke="#2E353A" stroke-linecap="round" stroke-linejoin="round"/>
<path d="M251.249 249.22H62.9199V257.992H251.249V249.22Z" fill="#FF0000" stroke="#2E353A" stroke-linecap="round" stroke-linejoin="round"/>
<path opacity="0.3" d="M251.249 249.22H160.248V257.992H251.249V249.22Z" fill="black"/>
<path d="M327.451 96.6165H289.656V123.241H327.451V96.6165Z" fill="#2E353A" stroke="#2E353A" stroke-linecap="round" stroke-linejoin="round"/>
<path d="M292.72 96.6165H284.555V179.578H292.72V96.6165Z" fill="white" stroke="#2E353A" stroke-linecap="round" stroke-linejoin="round"/>
<path d="M288.63 190.839C293.706 190.839 297.822 186.712 297.822 181.621C297.822 176.531 293.706 172.404 288.63 172.404C283.553 172.404 279.438 176.531 279.438 181.621C279.438 186.712 283.553 190.839 288.63 190.839Z" fill="#2E353A" stroke="#2E353A" stroke-linecap="round" stroke-linejoin="round"/>
<path d="M153.828 149.251C175.154 160.113 212.228 177.519 246.422 186.277" stroke="white" stroke-linecap="round" stroke-linejoin="round" stroke-dasharray="2 4"/>
<path d="M135.935 139.803C135.935 139.803 142.767 143.674 153.828 149.312" stroke="#2E353A" stroke-linecap="round" stroke-linejoin="round" stroke-dasharray="2 4"/>
<path d="M128.259 139.234L143.595 102.7L32.3867 75.4919L128.259 139.234Z" fill="white" stroke="#2E353A" stroke-width="1.2629" stroke-linecap="round" stroke-linejoin="round"/>
<path d="M135.735 107.125L128.259 139.234L32.3867 75.4919L135.735 107.125Z" fill="#FF0000" stroke="#2E353A" stroke-width="1.2629" stroke-linecap="round" stroke-linejoin="round"/>
<path d="M135.735 107.125L118.286 122.119L32.3867 75.4919L135.735 107.125Z" fill="white" stroke="#2E353A" stroke-width="1.2629" stroke-linecap="round" stroke-linejoin="round"/>
<path d="M143.595 102.7L159.129 96.3706L32.3867 75.4919L143.595 102.7Z" fill="white" stroke="#2E353A" stroke-width="1.2629" stroke-linecap="round" stroke-linejoin="round"/>
<path d="M106.658 133.55L110.258 135.762" stroke="#2E353A" stroke-linecap="round" stroke-linejoin="round"/>
<path d="M87.0176 121.474L99.0744 128.879" stroke="#2E353A" stroke-linecap="round" stroke-linejoin="round"/>
</g>
<defs>
<clipPath id="clip0_184_831">
<rect width="493" height="355" fill="white"/>
</clipPath>
</defs>
</svg>
