<svg width="767" height="766" viewBox="0 0 767 766" fill="none" xmlns="http://www.w3.org/2000/svg">
<path d="M580.049 233.722C556.211 220.669 531.378 215.43 504.277 218.785C470.894 222.906 444.529 227.762 412.586 215.323C385.73 204.874 361.203 189.279 335.588 176.348C283.194 149.768 231.182 141.541 191.902 193.966C171.005 221.864 155.134 253.898 144.18 287.694C126.47 342.218 111.916 402.594 119.898 459.539C129.994 531.727 191.902 565.614 265.959 539.463C295.909 528.892 324.818 513.419 356.76 508.992C423.601 499.708 478.692 561.08 558.846 546.158C697.002 520.482 686.799 292.168 580.049 233.722Z" fill="#FF0000"/>
<path opacity="0.7" d="M580.049 233.722C556.211 220.669 531.378 215.43 504.277 218.785C470.894 222.906 444.529 227.762 412.586 215.323C385.73 204.874 361.203 189.279 335.588 176.348C283.194 149.768 231.182 141.541 191.902 193.966C171.005 221.864 155.134 253.898 144.18 287.694C126.47 342.218 111.916 402.594 119.898 459.539C129.994 531.727 191.902 565.614 265.959 539.463C295.909 528.892 324.818 513.419 356.76 508.992C423.601 499.708 478.692 561.08 558.846 546.158C697.002 520.482 686.799 292.168 580.049 233.722Z" fill="white"/>
<path d="M600.961 174.908C591.233 169.592 586.821 174.02 583.282 169.592C579.743 165.165 593.01 153.675 566.43 142.185C566.43 142.185 564.668 117.428 528.406 116.539C492.143 115.651 501.917 141.296 492.189 147.486C482.461 153.675 479.811 144.008 470.082 150.136C460.354 156.264 464.782 168.704 456.831 170.466C448.879 172.227 438.247 162.515 428.519 168.704C418.791 174.893 418.791 180.194 414.379 180.194C409.967 180.194 401.112 176.655 395.811 180.194C390.51 183.733 384.306 188.16 384.306 188.16H607.978C607.978 188.16 610.689 180.209 600.961 174.908Z" fill="#FF0000"/>
<path opacity="0.5" d="M600.961 174.908C591.233 169.592 586.821 174.02 583.282 169.592C579.743 165.165 593.01 153.675 566.43 142.185C566.43 142.185 564.668 117.428 528.406 116.539C492.143 115.651 501.917 141.296 492.189 147.486C482.461 153.675 479.811 144.008 470.082 150.136C460.354 156.264 464.782 168.704 456.831 170.466C448.879 172.227 438.247 162.515 428.519 168.704C418.791 174.893 418.791 180.194 414.379 180.194C409.967 180.194 401.112 176.655 395.811 180.194C390.51 183.733 384.306 188.16 384.306 188.16H607.978C607.978 188.16 610.689 180.209 600.961 174.908Z" fill="white"/>
<path d="M347.308 373.655C340.475 369.932 337.365 373.027 334.883 369.932C332.401 366.837 341.716 358.748 323.087 350.675C323.087 350.675 321.846 333.287 296.369 332.658C270.892 332.03 277.74 350.047 270.907 354.398C264.074 358.748 262.22 351.916 255.388 356.267C248.555 360.617 251.65 369.304 246.073 370.545C240.497 371.786 233.021 364.953 226.157 369.304C219.294 373.655 219.324 377.378 216.23 377.378C213.135 377.378 206.9 374.896 203.177 377.378C199.454 379.859 195.104 382.969 195.104 382.969H352.271C352.271 382.969 354.14 377.378 347.308 373.655Z" fill="white"/>
<path opacity="0.5" d="M347.308 373.655C340.475 369.932 337.365 373.027 334.883 369.932C332.401 366.837 341.716 358.748 323.087 350.675C323.087 350.675 321.846 333.287 296.369 332.658C270.892 332.03 277.74 350.047 270.907 354.398C264.074 358.748 262.22 351.916 255.388 356.267C248.555 360.617 251.65 369.304 246.073 370.545C240.497 371.786 233.021 364.953 226.157 369.304C219.294 373.655 219.324 377.378 216.23 377.378C213.135 377.378 206.9 374.896 203.177 377.378C199.454 379.859 195.104 382.969 195.104 382.969H352.271C352.271 382.969 354.14 377.378 347.308 373.655Z" fill="white"/>
<path d="M541.55 632.517H638.372C636.519 620.674 628.905 622.758 627.893 604.405C627.388 595.213 635.952 583.723 635.201 571.589C634.588 561.585 624.738 551.336 623.972 539.892C623.282 529.566 631.632 518.107 630.881 506.985C630.1 496.475 620.157 486.379 619.222 475.441C618.364 464.717 626.607 453.212 625.626 442.426C624.646 431.641 614.488 421.729 613.37 411.097C612.252 400.174 620.233 388.408 619.008 377.96C617.721 366.853 607.242 357.262 605.817 347.029C604.285 335.646 611.654 323.482 609.923 313.646C607.794 301.605 596.579 292.888 594.22 284.002C589.823 267.441 590.375 251.493 585.181 250.451C579.651 249.348 578.379 264.99 574.182 282.47C572.067 291.249 561.114 300.149 559.306 312.206C557.85 321.965 565.602 333.838 564.331 345.175C563.197 355.332 552.979 365.091 551.983 376.137C551.048 386.524 559.336 397.968 558.524 408.829C557.728 419.385 547.8 429.45 547.142 440.174C546.483 450.898 555.001 462.112 554.419 472.699C553.821 483.545 544.093 493.794 543.587 504.227C543.067 515.273 551.784 526.411 551.355 536.644C550.88 547.996 541.289 558.383 540.937 568.311C540.508 580.352 549.348 591.459 549.072 600.636C548.49 620.552 539.374 616.4 539.053 632.425L541.55 632.517Z" fill="#FF0000"/>
<path d="M583.113 282.271V628.043" stroke="black" stroke-miterlimit="10"/>
<path d="M598.234 318.518L582.47 332.138L569.57 314.933" stroke="black" stroke-miterlimit="10"/>
<path d="M598.234 378.71L582.47 392.315L569.57 375.126" stroke="black" stroke-miterlimit="10"/>
<path d="M598.234 435.303L582.47 448.922L569.57 431.718" stroke="black" stroke-miterlimit="10"/>
<path d="M598.234 502.664L582.47 516.269L569.57 499.08" stroke="black" stroke-miterlimit="10"/>
<path d="M598.234 570.731L582.47 584.335L569.57 567.146" stroke="black" stroke-miterlimit="10"/>
<path d="M475.597 632.517H550.344C548.903 623.325 543.036 624.979 542.255 610.824C541.856 603.685 548.459 594.86 547.892 585.484C547.417 577.824 539.819 569.843 539.221 560.972C538.685 553.006 545.181 544.12 544.553 535.572C543.955 527.452 536.249 519.67 535.56 511.228C534.87 502.787 541.259 494.055 540.508 485.736C539.757 477.417 531.898 469.757 531.071 461.561C530.213 453.12 536.372 444.05 535.422 435.961C534.426 427.397 526.337 419.998 525.249 412.108C524.024 403.314 529.753 393.923 528.405 386.34C526.766 377.041 518.11 370.3 516.303 363.452C512.901 350.675 513.33 338.342 509.317 337.546C505.042 336.688 504.062 348.76 500.829 362.272C499.205 369.043 490.733 375.922 489.339 385.252C488.221 392.789 494.196 401.951 493.215 410.699C492.342 418.542 484.468 426.019 483.686 434.598C482.966 442.61 489.37 451.45 488.742 459.83C488.129 467.98 480.484 475.747 479.948 484.02C479.412 492.293 486.076 500.964 485.571 509.13C485.065 517.295 477.604 525.415 477.221 533.473C476.808 541.991 483.533 550.585 483.211 558.491C482.844 567.254 475.444 575.343 475.168 583.003C474.831 592.287 481.664 600.881 481.45 607.944C480.99 623.264 473.958 620.123 473.713 632.456L475.597 632.517Z" fill="#FF0000"/>
<path d="M507.692 362.165V629.07" stroke="black" stroke-miterlimit="10"/>
<path d="M519.352 390.139L507.187 400.649L497.229 387.366" stroke="black" stroke-miterlimit="10"/>
<path d="M519.352 436.589L507.187 447.099L497.229 433.832" stroke="black" stroke-miterlimit="10"/>
<path d="M519.352 480.282L507.187 490.791L497.229 477.524" stroke="black" stroke-miterlimit="10"/>
<path d="M519.352 532.278L507.187 542.788L497.229 529.505" stroke="black" stroke-miterlimit="10"/>
<path d="M519.352 584.826L507.187 595.32L497.229 582.053" stroke="black" stroke-miterlimit="10"/>
<path d="M408.971 631.797V322.057H425.317V631.797" fill="#2E353A"/>
<path d="M408.971 631.797V322.057H425.317V631.797" stroke="#2E353A" stroke-linecap="round" stroke-linejoin="round"/>
<path d="M400.806 631.797V322.057H417.152V631.797" fill="#FF0000"/>
<path d="M400.806 631.797V322.057H417.152V631.797" stroke="#2E353A" stroke-linecap="round" stroke-linejoin="round"/>
<g style="mix-blend-mode:multiply" opacity="0.3">
<path d="M417.152 322.057H400.806V358.825H417.152V322.057Z" fill="#2E353A"/>
</g>
<path d="M470.557 201.136H349.438L402.23 330.805H523.365V253.929C523.365 246.995 521.999 240.129 519.345 233.723C516.691 227.316 512.801 221.496 507.897 216.593C502.994 211.691 497.172 207.803 490.765 205.15C484.358 202.498 477.492 201.134 470.557 201.136Z" fill="#FF0000" stroke="#2E353A" stroke-linecap="round" stroke-linejoin="round"/>
<g style="mix-blend-mode:multiply" opacity="0.3">
<path d="M392.992 308.101L402.184 330.805H523.365V253.929C523.365 252.765 523.365 251.6 523.243 250.451H393.023L392.992 308.101Z" fill="black"/>
</g>
<path d="M469.669 250.451H456.923" stroke="#2E353A" stroke-linecap="round" stroke-linejoin="round"/>
<path d="M523.243 250.451H484.667" stroke="#2E353A" stroke-linecap="round" stroke-linejoin="round"/>
<path d="M349.437 201.136C363.443 201.136 376.874 206.7 386.778 216.603C396.681 226.507 402.245 239.939 402.245 253.944V330.82H296.629V253.929C296.633 239.926 302.198 226.498 312.101 216.598C322.004 206.698 335.434 201.136 349.437 201.136Z" fill="#2E353A" stroke="#2E353A" stroke-linecap="round" stroke-linejoin="round"/>
<path d="M402.23 322.057H311.229V330.805H402.23V322.057Z" fill="#FF0000" stroke="#2E353A" stroke-linecap="round" stroke-linejoin="round"/>
<path d="M402.23 322.057H213.901V330.805H402.23V322.057Z" fill="#FF0000" stroke="#2E353A" stroke-linecap="round" stroke-linejoin="round"/>
<path opacity="0.3" d="M402.23 322.057H311.229V330.805H402.23V322.057Z" fill="black"/>
<path d="M478.432 169.883H440.638V196.433H478.432V169.883Z" fill="#2E353A" stroke="#2E353A" stroke-linecap="round" stroke-linejoin="round"/>
<path d="M443.702 169.883H435.536V252.611H443.702V169.883Z" fill="white" stroke="#2E353A" stroke-linecap="round" stroke-linejoin="round"/>
<path d="M439.611 263.841C444.688 263.841 448.803 259.726 448.803 254.649C448.803 249.572 444.688 245.457 439.611 245.457C434.534 245.457 430.419 249.572 430.419 254.649C430.419 259.726 434.534 263.841 439.611 263.841Z" fill="#2E353A" stroke="#2E353A" stroke-linecap="round" stroke-linejoin="round"/>
<path d="M304.81 222.37C326.135 233.201 363.209 250.559 397.404 259.291" stroke="white" stroke-linecap="round" stroke-linejoin="round" stroke-dasharray="2 4"/>
<path d="M286.916 212.948C286.916 212.948 293.749 216.809 304.81 222.431" stroke="#2E353A" stroke-linecap="round" stroke-linejoin="round" stroke-dasharray="2 4"/>
<path d="M279.241 212.381L294.576 175.95L183.368 148.818L279.241 212.381Z" fill="white" stroke="#2E353A" stroke-width="1.2629" stroke-linecap="round" stroke-linejoin="round"/>
<path d="M286.717 180.362L279.241 212.381L183.368 148.818L286.717 180.362Z" fill="#FF0000" stroke="#2E353A" stroke-width="1.2629" stroke-linecap="round" stroke-linejoin="round"/>
<path d="M286.717 180.362L269.267 195.315L183.368 148.818L286.717 180.362Z" fill="white" stroke="#2E353A" stroke-width="1.2629" stroke-linecap="round" stroke-linejoin="round"/>
<path d="M294.576 175.95L310.111 169.638L183.368 148.818L294.576 175.95Z" fill="white" stroke="#2E353A" stroke-width="1.2629" stroke-linecap="round" stroke-linejoin="round"/>
<path d="M257.64 206.713L261.24 208.919" stroke="#2E353A" stroke-linecap="round" stroke-linejoin="round"/>
<path d="M237.999 194.671L250.056 202.055" stroke="#2E353A" stroke-linecap="round" stroke-linejoin="round"/>
<path d="M649.495 529.398H675.034" stroke="#2E353A" stroke-linecap="round" stroke-linejoin="round"/>
<path d="M649.495 567.177H675.034" stroke="#2E353A" stroke-linecap="round" stroke-linejoin="round"/>
<path d="M111.763 566.166H646.431V530.409H111.763" fill="white"/>
<path d="M111.763 566.166H646.431V530.409H111.763" stroke="#2E353A" stroke-linecap="round" stroke-linejoin="round"/>
<path d="M148.929 632.042V452.155C148.929 451.713 149.019 451.277 149.193 450.871C149.366 450.466 149.621 450.1 149.94 449.795L163.912 436.635C164.541 436.047 165.377 435.731 166.238 435.757C167.099 435.783 167.915 436.148 168.508 436.773L180.764 449.811C181.32 450.417 181.631 451.209 181.637 452.032V632.042" fill="#2E353A"/>
<path d="M148.929 632.042V452.155C148.929 451.713 149.019 451.277 149.193 450.871C149.366 450.466 149.621 450.1 149.94 449.795L163.912 436.635C164.541 436.047 165.377 435.731 166.238 435.757C167.099 435.783 167.915 436.148 168.508 436.773L180.764 449.811C181.32 450.417 181.631 451.209 181.637 452.032V632.042" stroke="#2E353A" stroke-linecap="round" stroke-linejoin="round"/>
<path d="M144.961 633.574V452.155C144.96 451.712 145.051 451.274 145.228 450.868C145.405 450.462 145.663 450.097 145.987 449.795L159.959 436.635C160.27 436.342 160.635 436.113 161.034 435.961C161.434 435.81 161.859 435.738 162.286 435.751C162.713 435.764 163.133 435.861 163.522 436.036C163.912 436.211 164.263 436.462 164.555 436.773L176.811 449.811C177.374 450.413 177.686 451.207 177.684 452.032V633.574" fill="white"/>
<path d="M144.961 633.574V452.155C144.96 451.712 145.051 451.274 145.228 450.868C145.405 450.462 145.663 450.097 145.987 449.795L159.959 436.635C160.27 436.342 160.635 436.113 161.034 435.961C161.434 435.81 161.859 435.738 162.286 435.751C162.713 435.764 163.133 435.861 163.522 436.036C163.912 436.211 164.263 436.462 164.555 436.773L176.811 449.811C177.374 450.413 177.686 451.207 177.684 452.032V633.574" stroke="#2E353A" stroke-linecap="round" stroke-linejoin="round"/>
<path d="M266.74 632.042V452.155C266.741 451.713 266.83 451.277 267.004 450.871C267.178 450.466 267.432 450.1 267.751 449.795L281.739 436.635C282.049 436.342 282.414 436.113 282.814 435.961C283.213 435.81 283.638 435.738 284.065 435.751C284.492 435.764 284.912 435.861 285.302 436.036C285.691 436.211 286.042 436.462 286.335 436.773L298.591 449.811C299.153 450.413 299.465 451.207 299.464 452.032V632.042" fill="#2E353A"/>
<path d="M266.74 632.042V452.155C266.741 451.713 266.83 451.277 267.004 450.871C267.178 450.466 267.432 450.1 267.751 449.795L281.739 436.635C282.049 436.342 282.414 436.113 282.814 435.961C283.213 435.81 283.638 435.738 284.065 435.751C284.492 435.764 284.912 435.861 285.302 436.036C285.691 436.211 286.042 436.462 286.335 436.773L298.591 449.811C299.153 450.413 299.465 451.207 299.464 452.032V632.042" stroke="#2E353A" stroke-linecap="round" stroke-linejoin="round"/>
<path d="M263.431 633.574V452.155C263.43 451.712 263.521 451.274 263.698 450.868C263.874 450.462 264.133 450.097 264.457 449.795L278.429 436.635C279.058 436.047 279.894 435.731 280.755 435.757C281.616 435.783 282.432 436.148 283.025 436.773L295.281 449.811C295.848 450.412 296.165 451.206 296.169 452.032V633.574" fill="white"/>
<path d="M263.431 633.574V452.155C263.43 451.712 263.521 451.274 263.698 450.868C263.874 450.462 264.133 450.097 264.457 449.795L278.429 436.635C279.058 436.047 279.894 435.731 280.755 435.757C281.616 435.783 282.432 436.148 283.025 436.773L295.281 449.811C295.848 450.412 296.165 451.206 296.169 452.032V633.574" stroke="#2E353A" stroke-linecap="round" stroke-linejoin="round"/>
<path d="M385.209 632.042V452.155C385.209 451.712 385.299 451.274 385.476 450.868C385.653 450.462 385.911 450.097 386.235 449.795L400.207 436.635C400.836 436.047 401.673 435.731 402.534 435.757C403.395 435.783 404.21 436.148 404.803 436.773L417.059 449.811C417.626 450.412 417.944 451.206 417.948 452.032V633.574" fill="#2E353A"/>
<path d="M385.209 632.042V452.155C385.209 451.712 385.299 451.274 385.476 450.868C385.653 450.462 385.911 450.097 386.235 449.795L400.207 436.635C400.836 436.047 401.673 435.731 402.534 435.757C403.395 435.783 404.21 436.148 404.803 436.773L417.059 449.811C417.626 450.412 417.944 451.206 417.948 452.032V633.574" stroke="#2E353A" stroke-linecap="round" stroke-linejoin="round"/>
<path d="M381.916 633.574V452.155C381.916 451.713 382.006 451.277 382.18 450.871C382.354 450.466 382.608 450.1 382.927 449.795L396.914 436.635C397.225 436.342 397.59 436.113 397.99 435.961C398.389 435.81 398.814 435.738 399.241 435.751C399.668 435.764 400.088 435.861 400.477 436.036C400.867 436.211 401.218 436.462 401.51 436.773L413.766 449.811C414.329 450.413 414.641 451.207 414.64 452.032V633.574" fill="white"/>
<path d="M381.916 633.574V452.155C381.916 451.713 382.006 451.277 382.18 450.871C382.354 450.466 382.608 450.1 382.927 449.795L396.914 436.635C397.225 436.342 397.59 436.113 397.99 435.961C398.389 435.81 398.814 435.738 399.241 435.751C399.668 435.764 400.088 435.861 400.477 436.036C400.867 436.211 401.218 436.462 401.51 436.773L413.766 449.811C414.329 450.413 414.641 451.207 414.64 452.032V633.574" stroke="#2E353A" stroke-linecap="round" stroke-linejoin="round"/>
<path d="M503.694 632.042V452.155C503.695 451.713 503.784 451.277 503.958 450.871C504.132 450.466 504.386 450.1 504.705 449.795L518.677 436.635C519.306 436.047 520.143 435.731 521.004 435.757C521.865 435.783 522.681 436.148 523.273 436.773L535.529 449.811C536.085 450.417 536.396 451.209 536.403 452.032V632.042" fill="#2E353A"/>
<path d="M503.694 632.042V452.155C503.695 451.713 503.784 451.277 503.958 450.871C504.132 450.466 504.386 450.1 504.705 449.795L518.677 436.635C519.306 436.047 520.143 435.731 521.004 435.757C521.865 435.783 522.68 436.148 523.273 436.773L535.529 449.811C536.085 450.417 536.396 451.209 536.403 452.032V632.042" stroke="#2E353A" stroke-linecap="round" stroke-linejoin="round"/>
<path d="M500.385 633.574V452.155C500.384 451.712 500.475 451.274 500.652 450.868C500.828 450.462 501.087 450.097 501.411 449.795L515.383 436.635C515.694 436.342 516.059 436.113 516.458 435.961C516.858 435.81 517.283 435.738 517.71 435.751C518.137 435.764 518.557 435.861 518.946 436.036C519.336 436.211 519.687 436.462 519.979 436.773L532.235 449.811C532.798 450.413 533.11 451.207 533.108 452.032V633.574" fill="white"/>
<path d="M500.385 633.574V452.155C500.384 451.712 500.475 451.274 500.652 450.868C500.828 450.462 501.087 450.097 501.411 449.795L515.383 436.635C515.694 436.342 516.059 436.113 516.458 435.961C516.858 435.81 517.283 435.738 517.71 435.751C518.137 435.764 518.557 435.861 518.946 436.036C519.336 436.211 519.687 436.462 519.979 436.773L532.235 449.811C532.798 450.413 533.11 451.207 533.108 452.032V633.574" stroke="#2E353A" stroke-linecap="round" stroke-linejoin="round"/>
<path d="M622.164 632.042V452.155C622.164 451.713 622.254 451.277 622.428 450.871C622.602 450.466 622.856 450.1 623.175 449.795L637.162 436.635C637.473 436.342 637.838 436.113 638.238 435.961C638.637 435.81 639.062 435.738 639.489 435.751C639.916 435.764 640.336 435.861 640.725 436.036C641.115 436.211 641.466 436.462 641.758 436.773L654.014 449.811C654.577 450.413 654.889 451.207 654.888 452.032V632.042" fill="#2E353A"/>
<path d="M622.164 632.042V452.155C622.164 451.713 622.254 451.277 622.428 450.871C622.602 450.466 622.856 450.1 623.175 449.795L637.162 436.635C637.473 436.342 637.838 436.113 638.238 435.961C638.637 435.81 639.062 435.738 639.489 435.751C639.916 435.764 640.336 435.861 640.725 436.036C641.115 436.211 641.466 436.462 641.758 436.773L654.014 449.811C654.577 450.413 654.889 451.207 654.888 452.032V632.042" stroke="#2E353A" stroke-linecap="round" stroke-linejoin="round"/>
<path d="M618.854 633.574V452.155C618.854 451.712 618.945 451.274 619.122 450.868C619.298 450.462 619.557 450.097 619.881 449.795L633.853 436.635C634.482 436.047 635.318 435.731 636.179 435.757C637.04 435.783 637.856 436.148 638.449 436.773L650.705 449.811C651.272 450.412 651.589 451.206 651.593 452.032V633.574" fill="white"/>
<path d="M618.854 633.574V452.155C618.854 451.712 618.945 451.274 619.122 450.868C619.298 450.462 619.557 450.097 619.881 449.795L633.853 436.635C634.482 436.047 635.318 435.731 636.179 435.757C637.04 435.783 637.856 436.148 638.449 436.773L650.705 449.811C651.272 450.412 651.589 451.206 651.593 452.032V633.574" stroke="#2E353A" stroke-linecap="round" stroke-linejoin="round"/>
<path d="M164.54 436.773V449.887" stroke="#2E353A" stroke-linecap="round" stroke-linejoin="round"/>
<path d="M169.795 443.545V474.583" stroke="#2E353A" stroke-linecap="round" stroke-linejoin="round"/>
<path d="M269.881 446.088V485.353" stroke="#2E353A" stroke-linecap="round" stroke-linejoin="round"/>
<path d="M274.951 441.017V458.114" stroke="#2E353A" stroke-linecap="round" stroke-linejoin="round"/>
<path d="M396.914 436.635V475.226" stroke="#2E353A" stroke-linecap="round" stroke-linejoin="round"/>
<path d="M404.19 439.745V496.766" stroke="#2E353A" stroke-linecap="round" stroke-linejoin="round"/>
<path d="M506.176 446.088V489.152" stroke="#2E353A" stroke-linecap="round" stroke-linejoin="round"/>
<path d="M522.646 441.017V451.787" stroke="#2E353A" stroke-linecap="round" stroke-linejoin="round"/>
<path d="M629.701 440.373V463.185" stroke="#2E353A" stroke-linecap="round" stroke-linejoin="round"/>
<path d="M643.643 442.917V508.793" stroke="#2E353A" stroke-linecap="round" stroke-linejoin="round"/>
<path d="M618.304 539.203H604.362" stroke="#2E353A" stroke-linecap="round" stroke-linejoin="round"/>
<path d="M618.303 549.973H569.524" stroke="#2E353A" stroke-linecap="round" stroke-linejoin="round"/>
<path d="M436.485 549.973H414.317" stroke="#2E353A" stroke-linecap="round" stroke-linejoin="round"/>
<path d="M319.931 549.973H297.763" stroke="#2E353A" stroke-linecap="round" stroke-linejoin="round"/>
<path d="M144.455 544.274H122.287" stroke="#2E353A" stroke-linecap="round" stroke-linejoin="round"/>
<path d="M144.455 554.4H135.585" stroke="#2E353A" stroke-linecap="round" stroke-linejoin="round"/>
<path d="M425.087 544.274H414.317" stroke="#2E353A" stroke-linecap="round" stroke-linejoin="round"/>
<path d="M307.261 556.3H296.491" stroke="#2E353A" stroke-linecap="round" stroke-linejoin="round"/>
<path d="M262.282 556.3H251.512" stroke="#2E353A" stroke-linecap="round" stroke-linejoin="round"/>
<path d="M661.368 549.973H651.869" stroke="#2E353A" stroke-linecap="round" stroke-linejoin="round"/>
<path d="M674.037 549.973H668.338" stroke="#2E353A" stroke-linecap="round" stroke-linejoin="round"/>
<path d="M177.134 484.112C177.134 484.112 173.304 517.035 168.708 550.723C164.112 584.412 172.538 618.882 174.836 621.946" stroke="#2E353A" stroke-linecap="round" stroke-linejoin="round"/>
<path d="M161.981 550.754C162.717 544.182 163.33 540.03 163.33 540.03" stroke="#2E353A" stroke-linecap="round" stroke-linejoin="round"/>
<path d="M173.288 618.116C173.288 618.116 159.5 615.052 159.5 590.54C159.5 580.475 160.143 570.164 160.909 561.432" stroke="#2E353A" stroke-linecap="round" stroke-linejoin="round"/>
<path d="M288.969 445.046C288.969 445.046 292.033 447.344 286.671 473.388C281.309 499.432 282.075 537.732 288.969 559.18" stroke="#2E353A" stroke-linecap="round" stroke-linejoin="round"/>
<path d="M296.629 493.304C296.629 493.304 288.969 516.284 294.331 548.456" stroke="#2E353A" stroke-linecap="round" stroke-linejoin="round"/>
<path d="M383.954 507.843C383.954 507.843 387.784 530.057 391.614 553.021C395.444 575.986 392.38 608.173 389.316 616.584C386.252 624.995 383.188 631.904 383.188 631.904" stroke="#2E353A" stroke-linecap="round" stroke-linejoin="round"/>
<path d="M398.385 620.644C394.968 631.123 390.725 618.882 390.725 618.882" stroke="#2E353A" stroke-linecap="round" stroke-linejoin="round"/>
<path d="M398.247 542.328C398.247 542.328 405.463 579.571 401.388 607.606" stroke="#2E353A" stroke-linecap="round" stroke-linejoin="round"/>
<path d="M382.421 554.584C382.421 554.584 390.081 570.67 383.187 585.99" stroke="#2E353A" stroke-linecap="round" stroke-linejoin="round"/>
<path d="M525.356 556.851C526.382 561.534 527.728 566.141 529.386 570.639" stroke="#2E353A" stroke-linecap="round" stroke-linejoin="round"/>
<path d="M531.684 477.218C526.823 492.647 523.739 508.581 522.492 524.71C522.035 532.87 522.492 541.056 523.856 549.115" stroke="#2E353A" stroke-linecap="round" stroke-linejoin="round"/>
<path d="M517.13 547.659C517.13 547.659 524.024 573.703 527.854 582.895C531.684 592.087 530.152 614.286 525.556 625.01" stroke="#2E353A" stroke-linecap="round" stroke-linejoin="round"/>
<path d="M620.51 488.708C620.51 488.708 635.83 516.284 621.276 561.463" stroke="#2E353A" stroke-linecap="round" stroke-linejoin="round"/>
<path d="M634.589 535.802C634.681 544.412 633.915 555.319 630.468 564.511C623.574 582.895 620.51 589.023 620.51 589.023" stroke="#2E353A" stroke-linecap="round" stroke-linejoin="round"/>
<path d="M633.531 520.88C633.531 520.88 634.037 524.174 634.343 529.245" stroke="#2E353A" stroke-linecap="round" stroke-linejoin="round"/>
</svg>
