<svg width="111" height="111" viewBox="0 0 111 111" fill="none" xmlns="http://www.w3.org/2000/svg">
<path d="M69.375 37.9759V92.8053C69.375 94.7061 69.375 95.6589 68.7645 95.9826C68.154 96.311 67.3631 95.7838 65.7814 94.7292L56.7811 88.7306C56.1614 88.3144 55.8515 88.1109 55.5 88.1109C55.1485 88.1109 54.8386 88.3144 54.2189 88.7306L42.9061 96.2694C42.2864 96.6856 41.9765 96.8891 41.625 96.8891C41.2735 96.8891 40.9636 96.6856 40.3439 96.2694L29.0311 88.7306C28.4114 88.3144 28.1015 88.1109 27.75 88.1109C27.3985 88.1109 27.0886 88.3144 26.4689 88.7306L17.4686 94.7292C15.8869 95.7838 15.096 96.311 14.4855 95.9826C13.875 95.6589 13.875 94.7061 13.875 92.8053V32.375C13.875 23.6523 13.875 19.2955 16.5852 16.5852C19.2955 13.875 23.6523 13.875 32.375 13.875H83.25L81.733 14.8879C75.6835 18.9209 72.6587 20.9374 71.0169 24.0037C69.375 27.0701 69.375 30.71 69.375 37.9759Z" fill="black" fill-opacity="0.25"/>
<path d="M69.375 27.75C69.375 24.0701 70.8368 20.541 73.4389 17.9389C76.041 15.3368 79.5701 13.875 83.25 13.875C86.9299 13.875 90.459 15.3368 93.0611 17.9389C95.6632 20.541 97.125 24.0701 97.125 27.75V37C97.125 38.2266 96.6377 39.403 95.7704 40.2704C94.903 41.1377 93.7266 41.625 92.5 41.625H71.6875C71.0742 41.625 70.486 41.3814 70.0523 40.9477C69.6186 40.514 69.375 39.9258 69.375 39.3125V27.75Z" fill="black"/>
<path d="M25.4375 43.9375H57.8125M25.4375 57.8125H43.9375M25.4375 71.6875H53.1875" stroke="black" stroke-linecap="round"/>
</svg>
