<svg width="585" height="320" viewBox="0 0 585 320" fill="none" xmlns="http://www.w3.org/2000/svg">
<path d="M289.589 183.058L289.343 135.691C290.553 135.193 292.737 134.685 294.674 134.685C303.399 134.685 307.038 141.701 307.038 158.994C307.038 175.789 302.917 184.055 294.429 184.055C292.5 184.055 290.562 183.556 289.589 183.058ZM214.673 118.652C251.526 83.8204 296.13 74.5484 337.587 74.5484C348.985 74.5484 359.893 75.3007 370.555 76.3067H370.31V178.299C370.31 198.094 363.523 213.883 350.187 225.167C338.306 235.445 302.426 251.986 292.482 256.491C282.302 251.733 246.423 234.938 234.778 225.167C221.687 213.892 214.655 197.849 214.655 178.299V118.652H214.673ZM325.714 142.208C325.96 150.474 328.134 156.492 340.506 164.015C347.056 168.021 349.722 170.786 349.722 175.544C349.722 180.81 346.329 184.064 340.752 184.064C335.903 184.064 330.326 181.308 326.451 177.801V192.085C331.3 194.84 337.122 196.843 342.935 196.843C357.727 196.843 364.268 186.067 364.514 176.296C364.76 167.278 362.331 160.507 349.967 152.994C344.636 149.486 340.024 147.229 340.27 141.719C340.27 136.453 344.873 134.45 348.994 134.45C354.089 134.45 359.174 137.459 362.331 140.713V127.172C359.665 125.169 354.088 121.906 345.846 122.159C335.894 122.413 325.714 129.673 325.714 142.208ZM274.56 228.167H289.589L289.343 195.593C290.799 195.846 292.982 196.345 296.13 196.345C312.86 196.345 322.312 181.055 322.312 158.504C322.312 136.199 312.614 122.168 294.674 122.168C286.432 122.168 279.882 124.172 274.551 127.679L274.56 228.167ZM222.432 172.281C222.432 188.568 229.701 196.843 244.494 196.843C253.709 196.843 261.223 194.587 267.037 190.58V123.664H252.253V181.553C250.552 182.804 248.132 183.556 245.221 183.556C238.435 183.556 237.461 177.039 237.461 172.78V123.664H222.432V172.281ZM381.235 72.0378V178.29C381.235 201.094 372.993 220.391 356.991 233.678C343.409 245.461 301.47 264.757 292.5 268.763C283.53 264.757 241.591 245.461 228.009 233.932C212.252 220.653 203.765 201.357 203.765 178.544V72.0378C228.982 58.0073 258.076 51.2368 292.5 51.2368C326.924 51.2368 356.018 58.0073 381.235 72.0378ZM378.57 74.0408C354.807 60.7627 325.96 54.2459 292.745 54.2459C259.531 54.2459 230.675 61.0074 206.921 74.0408V178.29C206.921 200.342 214.918 218.641 229.956 231.421C243.775 243.204 287.66 262.999 292.745 265.5C297.84 263.243 341.716 243.448 355.535 231.666C370.564 218.886 378.57 200.587 378.57 178.535V74.0408ZM357.236 257.986C357.236 262.246 353.843 265.5 349.967 265.5C348.04 265.498 346.193 264.705 344.83 263.297C343.467 261.888 342.701 259.978 342.698 257.986C342.698 253.727 346.092 250.473 349.967 250.473C353.843 250.473 356.991 253.727 357.236 257.986ZM355.781 257.986C355.807 256.359 355.209 254.788 354.118 253.615C353.028 252.441 351.532 251.762 349.959 251.723C346.811 251.723 344.136 254.733 344.136 257.986C344.136 261.24 346.802 264.005 349.959 264.005C351.496 263.984 352.965 263.343 354.053 262.219C355.14 261.095 355.76 259.576 355.781 257.986ZM350.932 258.485C351.177 258.983 353.597 262.491 353.597 262.491H351.66C351.66 262.491 349.24 258.983 349.24 258.73H348.994V262.491H347.293V253.473L349.959 253.219C352.142 253.219 352.87 254.724 352.87 255.974C352.87 257.225 352.142 258.24 350.932 258.485ZM351.169 255.983C351.169 255.485 351.169 254.733 349.713 254.733H348.985V257.488H349.231C350.932 257.488 351.169 256.736 351.169 255.983Z" fill="#301506"/>
<path d="M252.282 181.552C249.905 183.252 237.478 187.904 237.478 172.746L237.462 123.679L222.473 123.632V172.776C222.473 208.146 259.415 196.677 267.056 190.605L267.071 123.663L252.298 123.679L252.282 181.552ZM206.915 74.0091L206.944 177.875C205.604 226.913 241.236 242.411 292.814 265.503C344.209 242.411 379.023 227.773 379.023 178.709L378.56 74.0401C325.81 44.4925 249.714 50.5867 206.915 74.0091ZM370.336 178.199C369.837 219.402 346.54 231.534 292.95 255.948C239.222 231.487 214.988 218.784 214.988 177.889L214.693 118.658C261.47 74.3627 320.387 71.448 370.365 76.2647L370.336 178.199ZM274.574 127.711V228.147L289.625 228.131L289.363 195.549C300.358 199.391 322.763 193.992 322.763 158.15C322.763 112.155 284.911 120.172 274.574 127.711ZM289.978 182.564L289.394 135.714C293.476 134.818 307.064 129.331 307.064 158.609C307.064 190.674 290.892 182.942 289.978 182.564ZM325.735 141.801C325.781 164.137 348.812 162.341 349.783 174.986C350.058 186.083 335.787 186.329 326.459 177.782V192.088C343.012 202.241 364.528 195.866 364.83 175.717C365.607 151.397 340.37 154.066 340.69 141.505C341.354 132.102 353.903 132.491 362.354 140.75L362.589 126.7C349.558 116.311 325.644 122.392 325.735 141.801Z" fill="#FFD100"/>
</svg>
