<svg width="585" height="319" viewBox="0 0 585 319" fill="none" xmlns="http://www.w3.org/2000/svg">
<path d="M194.526 233.308L192.851 233.182L191.177 232.794L189.898 232.406L188.766 231.618L187.997 230.716L187.488 229.574L187.352 228.283L187.488 226.719L188.121 223.864L188.642 221.261L189.162 219.057L189.547 217.23L189.796 215.677L190.056 214.535L190.192 213.884L190.317 213.621H194.56L194.436 214.135L194.175 215.437L193.655 217.39L193.27 219.593L192.761 221.809L192.116 225.052L191.991 225.44L191.867 226.479V228.306L192.116 228.946L192.636 229.471L193.27 229.859L194.175 230.122L195.205 230.248L196.337 230.122L197.231 229.985L198.136 229.597L198.781 228.946L199.29 228.306L199.811 227.518L200.58 225.44L200.705 224.401L201.089 222.848L201.485 220.895L201.87 218.817L202.379 216.864L202.64 215.174L202.9 214.032L203.024 213.644H207.279L206.51 217.412L206.114 219.354L205.865 220.005V220.267L205.729 221.044L205.344 222.996L204.45 226.765L204.314 227.541L203.93 228.329L203.669 228.969L203.285 229.619L202.775 230.27L201.746 231.31L201.101 231.698L200.331 232.086L199.686 232.486L198.905 232.737L198.136 232.874L197.366 233.125L195.567 233.388L194.526 233.308ZM392.556 216.682H386.502L385.472 216.944L384.703 217.458L384.578 217.721L384.442 218.109V218.634L384.578 219.148L384.963 219.673L385.348 220.313L386.479 221.455L387.26 221.969L387.905 222.494L388.675 223.145L389.953 224.447L390.474 225.098L391.243 226.651L391.368 227.427L391.243 228.341L390.994 229.254L390.598 230.156L389.953 230.944L389.059 231.584L388.03 232.109L386.739 232.497L385.065 232.76L383.265 232.885H376.702L377.472 229.768H384.42L385.065 229.642L385.585 229.505L385.97 229.243L386.355 228.729L386.615 228.215L386.479 227.164L385.71 226.125L384.431 225.086L383.141 223.944L381.727 222.642L380.595 221.215L379.825 219.788L379.701 218.098L379.95 217.184L380.47 216.145L380.991 215.368L381.885 214.717L383.017 214.204L384.148 213.815L385.698 213.553H393.167L392.511 216.67L392.556 216.682ZM377.619 216.682H367.966L366.835 221.752H375.344L374.699 224.481H366.201L365.171 229.802H374.824L374.179 232.92H360.226L364.345 213.507H378.253L377.608 216.624L377.619 216.682ZM360.882 216.682H354.964L351.49 232.92H347.235L350.709 216.682H344.667L345.436 213.564H361.527L360.882 216.682ZM331.269 232.92L332.943 229.802H338.997L337.323 217.458L328.824 232.92H324.581L335.648 213.507H340.672L343.637 232.92H331.269ZM330.499 216.682H324.581L321.095 232.92H316.852L320.326 216.682H314.283L315.053 213.564H331.144L330.499 216.682ZM312.088 216.682H306.17L305.525 216.807L305.004 216.944L304.619 217.195L304.11 217.721V218.623L304.235 219.148L304.495 219.673L305.004 220.313L306.136 221.455L306.781 221.969L307.562 222.494L309.485 224.447L310.006 225.086L310.515 225.874L310.775 226.651L310.9 227.427V228.341L310.639 229.254L310.255 230.156L309.485 230.933L308.716 231.584L307.584 232.109L306.294 232.497L304.744 232.76L302.82 232.885H296.381L297.026 229.768H304.099L304.744 229.642L305.264 229.505L305.649 229.243L306.034 228.729L306.158 228.215L306.034 227.164L305.264 226.125L304.133 225.086L302.843 223.944L301.428 222.642L300.297 221.215L299.527 219.788L299.403 218.098L299.663 217.184L300.036 216.145L300.681 215.368L301.587 214.717L302.616 214.204L303.816 213.827L305.366 213.564H312.869L312.088 216.682ZM273.206 223.179L271.271 232.92H279.905L280.924 232.794H281.965L283.764 232.269L284.794 231.88L285.699 231.355L287.238 230.316L288.777 228.763L290.067 226.947L290.588 225.908L290.972 224.869L291.233 223.727L291.357 223.213L291.482 222.437L291.742 220.61L291.617 218.92L291.233 217.492L290.588 216.202L289.558 215.06L288.268 214.284L286.593 213.758L284.658 213.633H275.266L273.206 223.179ZM287.238 223.179L287.114 223.83L286.717 224.606L286.469 225.257L286.208 226.034L285.824 226.548L285.314 227.199L284.273 228.249L282.995 229.026L282.35 229.277L281.58 229.54L280.03 229.802H276.171L277.45 223.179L278.876 216.682H284.409L285.439 217.07L286.208 217.584L286.853 218.36L287.238 219.148L287.498 220.187V222.266L287.238 223.042V223.179ZM271.531 216.682H261.947L260.815 221.752H269.178L268.668 224.481H260.193L259.163 229.802H268.736L268.216 232.92H254.275L258.394 213.507H272.131L271.486 216.624L271.531 216.682ZM254.931 216.682H248.866L245.38 232.92H241.261L244.746 216.682H238.692L239.337 213.564H255.429L254.931 216.682ZM232.378 232.92H228.259L232.254 213.507H236.497L232.378 232.92ZM224.14 232.92H218.867L214.103 218.497H213.967L211.025 232.92H207.291L211.41 213.507H216.819L221.447 228.055L224.412 213.507H228.282L224.14 232.92ZM188.868 257.859H188.393L188.133 257.734H187.318L187.069 257.608H186.809L186.548 254.879H187.578L187.714 255.004H188.483L189.513 254.879L191.052 254.365L191.573 253.84L192.342 252.8L192.602 252.287V251.761L192.727 251.11V250.46L192.602 249.946L192.342 249.557L191.573 249.032H191.052L190.543 248.907H187.069L183.584 265.099H179.34L183.459 245.686H192.602L194.017 245.823L195.047 246.349L195.952 246.988L196.461 247.902L196.721 248.815L196.857 249.854V250.893L196.721 251.796L196.337 253.097L195.692 254.239L194.922 255.278L193.892 256.181L192.863 256.831L190.283 257.608L188.868 257.734V257.859ZM400.783 248.895H391.006L389.965 253.965H398.463L397.818 256.82H389.331L388.301 262.153H397.954L397.309 265.145H383.401L387.532 245.732H401.428L400.783 248.849V248.895ZM383.662 249.158L383.141 249.032H382.756L381.727 248.769L381.082 248.644H380.448L379.927 248.507H379.158L377.743 248.644L376.453 249.032L375.163 249.557L374.032 250.46L373.126 251.373L372.221 252.515L371.712 253.977L371.191 255.53L370.92 257.105L371.044 258.544L371.429 259.686L371.95 260.6L372.719 261.376L373.749 262.027L374.88 262.415L376.17 262.541H376.94L377.709 262.415H378.354L379.644 262.153H380.154L380.81 262.027L381.319 261.902L380.289 265.145L379.769 265.27H379.124L378.615 265.407H377.97L377.46 265.533H374.496L372.436 265.27L371.531 265.019L370.626 264.631L369.856 264.231L369.087 263.717L368.442 263.192L367.797 262.541L367.412 261.765L367.027 260.851L366.642 260.074L366.507 259.035V257.996L366.642 256.854L366.767 255.552L367.152 254.411L367.536 253.109L368.566 251.03L369.211 250.117L370.761 248.564L371.667 247.913L373.466 246.874L375.525 246.086L376.555 245.835L377.608 245.686L378.739 245.549H381.444L381.964 245.686H382.473L382.994 245.812H383.503L384.024 245.938L383.639 249.181L383.662 249.158ZM362.421 265.145H358.133L362.252 245.732H366.507L362.387 265.145H362.421ZM348.774 265.145H343.75L340.921 245.732H345.165L347.1 261.331L355.598 245.732H359.717L348.774 265.145ZM333.238 256.831L336.327 265.145H331.687L328.213 254.616H330.669L331.438 254.49L332.208 254.228L332.853 253.84L333.362 253.451L333.883 252.926L334.131 252.287L334.392 251.499L334.516 250.985V250.46L334.267 249.683L334.007 249.42L333.498 249.169L332.208 248.907H328.338L324.818 265.099H320.575L324.694 245.686H333.577L334.867 245.812L335.999 246.075L336.904 246.463L337.549 246.977L338.058 247.628L338.454 248.541L338.579 249.58V250.619L338.454 251.921L338.058 253.063L337.549 254.102L336.904 254.879L336.134 255.655L335.105 256.181L334.199 256.58L333.17 256.706L333.238 256.831ZM321.005 248.838H311.352L310.323 253.908H318.685L318.176 256.763H309.678L308.648 262.096H318.3L317.655 265.088H303.624L307.743 245.675H321.65L321.005 248.792V248.838ZM303.499 248.838H298.045L296.755 249.101L296.246 249.238L295.985 249.489L295.601 249.752L295.34 250.265V250.916L295.476 251.442L295.725 251.955L296.246 252.481L296.755 253.132L297.4 253.645L298.045 254.296L298.814 254.822L299.459 255.461L300.229 255.986L300.749 256.763L301.259 257.414L301.779 258.19L302.039 258.841L302.152 259.755V260.531L301.904 261.57L301.519 262.347L299.969 263.911L298.939 264.425L297.524 264.813L295.974 265.076H287.611L288.256 262.084H295.329L295.974 261.959L296.494 261.696L296.879 261.445L297.264 261.057L297.524 260.531L297.264 259.492L296.494 258.453L295.363 257.311L294.084 256.169L292.658 255.027L291.527 253.588L290.757 252.035L290.622 250.471L290.882 249.432L291.267 248.53L291.912 247.742L292.817 247.102L293.847 246.577L295.137 246.189L296.676 245.926L298.475 245.8H304.133L303.499 248.918V248.838ZM280.539 265.099H267.526L271.52 245.686H275.899L272.425 262.061H281.184L280.55 265.053L280.539 265.099ZM252.985 265.099L254.648 262.107H260.702L258.903 249.683L250.54 265.099H246.285L257.228 245.686H262.377L265.342 265.099H252.985ZM252.215 248.895H246.161L242.71 265.099H238.432L241.906 248.849H235.988L236.633 245.732H252.724L252.215 248.895ZM233.804 248.895H228.395L227.105 249.158L226.72 249.295L226.335 249.546L225.815 250.071L225.69 250.322V250.973L225.815 251.499L226.584 252.538L227.105 253.189L227.75 253.703L228.384 254.353L229.164 254.879L229.934 255.518L230.579 256.044L231.088 256.82L231.733 257.471L232.118 258.247L232.378 258.898L232.638 259.812L232.514 260.588L232.254 261.627L231.869 262.404L231.224 263.18L230.443 263.968L229.311 264.482L227.897 264.871L226.347 265.133H218.086L218.607 262.141H225.815L226.324 262.016L227.354 261.49L227.614 261.102L227.874 260.577L227.739 259.549L226.969 258.499L225.837 257.357L224.423 256.215L223.133 255.073L222.001 253.645L221.209 252.013L220.949 250.448L221.209 249.409L221.73 248.495L222.375 247.73L223.144 247.079L224.174 246.566L225.589 246.166L227.139 245.915L228.802 245.778H234.46L233.827 248.895H233.804ZM198 255.53L197.751 257.608L198.136 260.337L198.905 261.89L199.415 262.667L200.546 263.809L201.316 264.322L202.085 264.711L202.991 265.11L204.02 265.362L205.05 265.499H207.245L209.294 265.236L210.323 264.973L211.353 264.585L212.258 264.197L213.028 263.672L213.933 263.158L214.703 262.507L215.348 261.73L216.117 260.954L216.638 260.04L217.667 257.962L218.052 256.82L218.312 255.53L218.561 254.49V252.538L218.437 251.499L218.312 250.585L217.532 249.021L216.513 247.73L215.868 247.216L215.099 246.691L214.318 246.303L213.288 245.915L212.428 245.686L211.398 245.561H209.203L207.143 245.812L206.114 246.075L205.084 246.474L204.235 246.828L203.454 247.342L202.56 247.993L201.791 248.507L201.01 249.295L200.365 250.197L199.72 250.985L199.211 252.013L198.826 253.063L198.441 254.353L198.045 255.495L198 255.53ZM214.103 255.53L213.707 257.105L213.073 258.533L212.428 259.675L211.523 260.577L210.493 261.365L209.361 262.016L208.23 262.404L206.815 262.53L205.367 262.415L204.337 261.89L203.432 261.239L202.787 260.337L202.402 259.424L202.142 258.122V256.831L202.402 255.53L202.787 253.965L203.432 252.538L204.077 251.396L204.982 250.482L206.012 249.569L207.143 249.055L208.275 248.667L209.701 248.53L210.98 248.792L212.111 249.055L213.016 249.831L213.65 250.608L214.035 251.647L214.295 252.789V254.091L214.046 255.53H214.103ZM402.752 240.628H184.613L184.93 237.316H403.068L402.752 240.628ZM204.643 85.4179L181.931 191.696L182.961 191.354L185.032 189.972L188.427 188.579L192.953 186.147L198.102 183.714L203.964 180.597L210.844 177.468L217.384 174.042L224.265 170.925L230.805 167.499L237.346 164.37L243.536 161.241L248.707 158.467L253.177 156.388L256.572 154.652L258.993 153.613L262.388 151.866L265.5 150.13L269.28 148.395L273.059 146.316L276.454 144.581L280.584 142.834L284.364 140.755L288.494 139.031L292.624 136.93L313.276 128.251L322.578 125.122L323.947 124.78L325.328 124.095L327.048 123.741L333.238 121.651L340.468 119.573L342.879 119.219L350.11 117.14L354.24 116.444L355.609 116.09L356.65 115.747H357.68L358.71 115.405L359.4 114.708H359.751V114.24L359.049 112.858L358.02 112.516L356.65 112.162H355.27L353.21 111.819H351.139L348.729 112.162L344.599 112.516L340.129 113.201L335.308 114.24L330.137 115.291L324.988 116.672L319.477 118.419L314.306 120.155L308.806 121.891L303.816 123.981L298.645 125.705L293.835 127.441L289.309 129.176L285.179 131.266L281.784 132.648L278.683 134.052L276.273 135.434L263.158 94.4505H346.455L346.817 92.6691L345.447 90.922L343.377 89.8828L340.287 88.8437L336.893 87.8045L327.942 86.4114L313.491 85.3723L204.643 85.4179ZM344.395 98.9611L343.354 99.3151L336.474 100.697H334.754L333.373 101.039H332.004L329.933 101.393L328.903 101.747L328.213 102.09L327.862 102.787V103.472L328.564 104.168H329.933L331.314 104.522H334.709L336.768 104.168H338.896L343.716 103.472H346.126L348.876 103.129L351.287 102.787L353.357 102.433L355.756 102.09H365.058L366.088 102.433L366.778 102.787L367.468 103.826V105.23L367.118 106.612L366.778 108.348L366.088 110.437L365.058 112.87L364.368 115.302L364.028 116.684L364.707 117.38L365.398 117.038L366.778 115.645L367.468 114.605L368.498 112.87L369.528 110.78L370.569 108.348L371.587 106.269L372.278 104.18L372.628 102.444V100.354L371.938 98.6185L370.908 97.568L369.528 96.5288L367.808 95.8322L365.737 95.4897L363.338 95.1357H348.865L348.525 95.4897H348.175L347.496 95.8322L346.817 97.2368L346.138 97.5794L345.447 98.276L344.418 98.9725L344.395 98.9611ZM211.183 54.1636H212.213L213.944 54.4948L216.004 54.8488L221.515 56.2419L229.085 57.6236L233.216 58.6742L237.742 59.7133L242.563 60.4099L247.372 61.8031L252.543 62.4882L257.703 63.8813L274.225 66.9988L279.385 68.3919L284.896 69.4425L289.705 70.4816L294.876 71.5208L299.686 72.5599L304.506 73.2565L308.637 74.3071L312.778 74.9922L316.173 76.0314L319.262 76.7394L322.012 77.0705L324.422 77.4245L326.154 77.7785L327.183 78.1211H327.862L332.389 79.1602L336.519 79.8568L339.914 80.8959L342.664 81.5925L345.425 82.6431L347.496 83.3396L350.212 84.6757L351.241 85.3723L352.961 87.108V87.4506L353.312 87.8045V88.1471H368.102L369.483 88.5011H370.863L371.893 88.8437H372.923L373.975 89.2434L376.725 90.6251L377.064 91.3217L379.475 95.1357L380.165 99.7033L379.475 105.276L377.766 110.483L375.695 115.69L373.624 119.858L371.904 122.633L371.225 123.684L370.535 124.038L368.815 124.723L366.393 125.762L362.999 127.155L359.208 128.548L354.398 130.627L349.227 132.705L343.377 134.795L336.836 137.569L329.956 140.002L323.076 142.777L307.935 149.046L300.014 152.163L292.093 154.949L284.171 158.375L275.911 161.504L267.99 164.279L260.419 167.705L252.498 170.491L245.267 173.266L231.495 178.816L225.294 181.248L219.444 183.338L214.284 185.416L209.757 187.152L205.967 188.887L202.877 189.938L200.467 190.977L199.086 191.32L198.736 191.662H376.747L405.66 53.467H211.183V54.1636Z" fill="#333366"/>
</svg>
