<svg width="560" height="525" viewBox="0 0 560 525" fill="none" xmlns="http://www.w3.org/2000/svg">
<g clip-path="url(#clip0_15_207)">
<path d="M56.0788 61.2225C96.3953 -24.58 239.568 -12.5082 294.801 47.851C350.034 108.21 368.012 146.909 417.844 124.383C467.677 101.857 531.227 107.864 534.808 179.501C538.389 251.137 480.124 335.799 387.448 360.852C294.772 385.906 294.801 474.582 172.148 456.691C105.276 446.944 103.832 374.585 113.203 314.76C122.575 254.935 9.32211 160.772 56.0788 61.2225Z" fill="#EA0029"/>
<path opacity="0.9" d="M56.0788 61.2225C96.3953 -24.58 239.568 -12.5082 294.801 47.851C350.034 108.21 368.012 146.909 417.844 124.383C467.677 101.857 531.227 107.864 534.808 179.501C538.389 251.137 480.124 335.799 387.448 360.852C294.772 385.906 294.801 474.582 172.148 456.691C105.276 446.944 103.832 374.585 113.203 314.76C122.575 254.935 9.32211 160.772 56.0788 61.2225Z" fill="white"/>
<path d="M280 513.397C434.627 513.397 559.977 506.078 559.977 497.051C559.977 488.023 434.627 480.704 280 480.704C125.373 480.704 0.0229492 488.023 0.0229492 497.051C0.0229492 506.078 125.373 513.397 280 513.397Z" fill="#F5F5F5"/>
<path d="M460.323 69.6552C463.588 55.8238 455.021 41.9648 441.19 38.7003C427.359 35.4358 413.5 44.0019 410.235 57.8333C406.971 71.6647 415.537 85.5237 429.368 88.7882C443.2 92.0527 457.059 83.4866 460.323 69.6552Z" fill="#EA0029"/>
<path opacity="0.4" d="M457.357 65.7229C459.29 53.7616 451.16 42.4979 439.199 40.5648C427.238 38.6317 415.974 46.7611 414.041 58.7224C412.108 70.6837 420.237 81.9473 432.199 83.8804C444.16 85.8136 455.424 77.6842 457.357 65.7229Z" fill="white"/>
<path d="M434.262 65.4679C434.014 65.4671 433.771 65.4024 433.555 65.2801L423.447 59.5041C423.282 59.4093 423.137 59.2829 423.021 59.1322C422.905 58.9815 422.82 58.8093 422.77 58.6256C422.72 58.4419 422.708 58.2503 422.732 58.0616C422.756 57.8729 422.818 57.6908 422.913 57.5259C423.007 57.3609 423.134 57.2162 423.285 57.1001C423.435 56.9839 423.607 56.8986 423.791 56.849C423.975 56.7994 424.167 56.7864 424.355 56.8109C424.544 56.8354 424.726 56.8968 424.891 56.9916L432.876 61.5113V48.6886C432.876 48.3056 433.028 47.9383 433.299 47.6675C433.57 47.3967 433.937 47.2446 434.32 47.2446C434.703 47.2446 435.071 47.3967 435.341 47.6675C435.612 47.9383 435.764 48.3056 435.764 48.6886V63.9805C435.765 64.235 435.699 64.4852 435.572 64.7058C435.445 64.9264 435.263 65.1096 435.042 65.2368C434.81 65.3869 434.539 65.4671 434.262 65.4679Z" fill="#EA0029"/>
<path d="M290.108 238.762C285.564 236.573 281.178 234.068 276.982 231.268L275.726 219.933L274.556 209.305C282.975 211.297 301.718 225.94 304.75 232.409C306.945 237.044 307.292 246.748 290.108 238.762Z" fill="#EA0029"/>
<path d="M235.135 495.26H223.193C222.997 495.259 222.806 495.326 222.653 495.45C222.501 495.574 222.395 495.746 222.356 495.939L220.421 504.689C220.38 504.876 220.378 505.069 220.413 505.257C220.448 505.445 220.52 505.624 220.625 505.784C220.73 505.944 220.865 506.081 221.023 506.188C221.182 506.295 221.36 506.37 221.547 506.408H221.865C225.72 506.408 228.536 506.104 233.417 506.104C236.406 506.104 245.431 506.422 249.546 506.422C253.661 506.422 254.21 502.35 252.535 501.975C244.954 500.314 239.25 498.032 236.824 495.852C236.359 495.444 235.753 495.232 235.135 495.26Z" fill="#263238"/>
<path d="M285.776 494.942H273.834C273.639 494.944 273.449 495.012 273.297 495.136C273.145 495.259 273.039 495.43 272.997 495.621L271.062 504.372C271.022 504.558 271.018 504.749 271.053 504.937C271.087 505.124 271.157 505.302 271.261 505.462C271.364 505.621 271.498 505.759 271.655 505.867C271.811 505.975 271.988 506.051 272.174 506.09C272.279 506.104 272.386 506.104 272.491 506.09C276.361 506.09 279.177 505.801 284.043 505.801C287.032 505.801 296.043 506.104 300.173 506.104C304.303 506.104 304.837 502.032 303.147 501.657C295.566 500.011 289.863 497.715 287.437 495.534C286.979 495.132 286.385 494.92 285.776 494.942Z" fill="#263238"/>
<path d="M228.81 273.866H280.982C285.949 300.955 299.841 410.454 288.707 495.881L271.033 496.43C271.033 496.43 274.311 366.657 258.716 324.738C256.911 347.178 254.788 371.047 252.94 383.754C248.391 415.017 238.37 496.386 238.37 496.386H220.392C220.392 496.386 224.377 417.891 226.081 387.162C227.93 353.849 228.738 280.71 228.81 273.866Z" fill="#263238"/>
<path opacity="0.2" d="M220.392 496.43H238.37C238.37 496.43 248.391 415.002 252.94 383.798C254.788 371.105 256.911 347.236 258.716 324.796C261.261 332.147 263.193 339.696 264.492 347.365C273.805 397.66 270.975 496.487 270.975 496.487L288.635 496.256C299.783 410.829 285.892 300.811 280.924 274.545H228.81C228.738 280.797 227.944 354.224 226.081 387.581C224.377 418.251 220.392 496.43 220.392 496.43Z" fill="white"/>
<path opacity="0.2" d="M258.716 324.738C261.261 332.089 263.193 339.638 264.492 347.308C265.936 327.352 260.16 306.168 260.16 306.168L258.716 324.738Z" fill="black"/>
<path d="M280.982 274.487H228.81C228.652 264.06 227.852 253.653 226.413 243.325C225.619 237.679 224.55 231.773 223.135 225.997C222.101 221.705 220.804 217.481 219.251 213.348C219.251 213.348 242.355 203.89 274.571 209.334C278.657 230.815 280.803 252.621 280.982 274.487Z" fill="#EA0029"/>
<path d="M244.521 280.306L277.083 280.321L276.592 273.909L244.521 274.299V280.306Z" fill="black"/>
<path d="M278.7 280.321H282.137L280.982 273.866L278.195 273.895L278.7 280.321Z" fill="black"/>
<path d="M242.904 274.328L228.81 274.487V280.306H242.904V274.328Z" fill="black"/>
<path d="M266.657 273.476C266.253 273.115 257.243 273.245 256.549 274.054C256.549 274.054 256.203 280.176 256.622 280.71C257.04 281.245 265.676 280.494 266.484 280.465C267.293 280.436 267.004 273.837 266.657 273.476ZM265.661 279.873C264.982 279.873 257.907 280.508 257.56 280.061C257.365 278.243 257.341 276.41 257.488 274.588C258.037 273.938 265.445 273.823 265.777 274.126C266.109 274.429 266.325 279.844 265.661 279.873Z" fill="white"/>
<path d="M265.084 275.902H263.308C263.143 275.905 262.985 275.972 262.867 276.087C262.749 276.202 262.679 276.358 262.672 276.523C262.666 276.614 262.679 276.706 262.711 276.792C262.743 276.878 262.792 276.956 262.856 277.022C262.92 277.087 262.997 277.138 263.083 277.172C263.168 277.205 263.259 277.22 263.351 277.216L265.127 277.144C265.216 277.14 265.304 277.119 265.384 277.08C265.465 277.041 265.537 276.986 265.595 276.918C265.653 276.85 265.697 276.771 265.723 276.686C265.749 276.601 265.758 276.511 265.748 276.422C265.714 276.272 265.63 276.138 265.509 276.043C265.388 275.948 265.237 275.898 265.084 275.902Z" fill="white"/>
<path opacity="0.2" d="M226.413 243.325C225.619 237.679 224.55 231.773 223.135 225.997C223.779 225.525 224.483 225.141 225.229 224.857C225.229 224.857 230.254 235.196 226.413 243.325Z" fill="black"/>
<path d="M219.251 213.319C208.609 218.373 194.097 249.419 197.057 259.931C200.017 270.444 226.081 285.663 226.081 285.663L217.908 293.576C217.908 293.576 224.507 299.179 227.482 298.529C230.456 297.88 233.864 290.616 233.648 286.977C233.431 283.339 228.883 280.306 228.883 280.306C228.883 280.306 210.37 260.523 209.995 255.946C209.085 244.928 223.468 227.066 223.468 227.066L219.251 213.319Z" fill="#B97964"/>
<path d="M219.251 213.319C213.23 214.503 194.963 238.502 196.667 258.083L211.251 255.989C211.251 255.989 215.583 241.246 224.551 232.322C224.551 232.322 226.587 226.907 223.987 218.156C223.02 214.864 219.251 213.319 219.251 213.319Z" fill="#EA0029"/>
<path d="M195.656 257.303L212.233 255.195V257.303L195.656 261.26V257.303Z" fill="#EA0029"/>
<path opacity="0.2" d="M195.656 257.303L212.233 255.195V257.303L195.656 261.26V257.303Z" fill="white"/>
<path opacity="0.2" d="M290.108 238.762C285.564 236.572 281.178 234.068 276.982 231.268L275.726 219.932C278.744 221.579 289.863 228.409 290.108 238.762Z" fill="black"/>
<path d="M294.7 227.629C294.7 227.629 274.83 225.232 271.22 225.824C267.61 226.416 259.784 233.304 259.481 233.549C259.177 233.795 264.968 241.203 266.195 240.943C267.423 240.683 273.791 234.17 273.964 233.549C274.137 232.928 274.484 231.903 274.484 231.903L293.4 237.997C293.4 237.997 297.617 231.744 294.7 227.629Z" fill="#B97964"/>
<path d="M272.679 225.824C273.906 227.789 274.548 230.063 274.527 232.38H276.534C277.043 231.406 277.345 230.338 277.422 229.242C277.499 228.147 277.349 227.047 276.982 226.012L272.679 225.824Z" fill="#EA0029"/>
<path opacity="0.2" d="M272.679 225.824C273.906 227.789 274.548 230.063 274.527 232.38H276.534C277.043 231.406 277.345 230.338 277.422 229.242C277.499 228.147 277.349 227.047 276.982 226.012L272.679 225.824Z" fill="black"/>
<path d="M277.661 226.488C277.661 227.225 276.361 227.716 274.903 227.6C273.444 227.485 272.289 226.806 272.347 226.156C272.405 225.506 273.632 224.929 275.105 225.044C276.578 225.16 277.718 225.766 277.661 226.488Z" fill="#263238"/>
<path d="M276.982 225.968C276.982 226.503 276.044 226.878 274.961 226.792C273.878 226.705 273.04 226.2 273.083 225.665C273.127 225.131 274.036 224.77 275.105 224.857C276.174 224.943 277.026 225.434 276.982 225.968Z" fill="#EA0029"/>
<path opacity="0.7" d="M276.982 225.968C276.982 226.503 276.044 226.878 274.961 226.792C273.878 226.705 273.04 226.2 273.083 225.665C273.127 225.131 274.036 224.77 275.105 224.857C276.174 224.943 277.026 225.434 276.982 225.968Z" fill="white"/>
<path d="M292.924 238.82L295.335 226.445L297.299 227.196L296.62 240.221L292.924 238.82Z" fill="#EA0029"/>
<path opacity="0.2" d="M292.924 238.82L295.335 226.445L297.299 227.196L296.62 240.221L292.924 238.82Z" fill="white"/>
<path d="M231.178 213.319C231.178 213.319 233.344 207.817 243.727 206.012C254.109 204.207 265.502 208.973 268.275 212.438L259.365 213.319L254.846 223.153L244.579 214.388L231.178 213.319Z" fill="#EA0029"/>
<path opacity="0.2" d="M231.178 213.319C231.178 213.319 233.344 207.817 243.727 206.012C254.109 204.207 265.502 208.973 268.275 212.438L259.365 213.319L254.846 223.153L244.579 214.388L231.178 213.319Z" fill="white"/>
<path d="M236.781 210.287C238.774 212.092 241.98 212.871 245.041 213.175L254.369 221.839L257.098 212.366C257.098 212.366 260.636 211.11 259.091 208.814C254.759 208.106 252.694 206.085 251.871 203.514C251.395 201.919 251.248 200.244 251.438 198.59C251.502 197.664 251.623 196.743 251.799 195.832L237.287 185.089C239.149 192.092 241.474 205.146 236.781 210.287Z" fill="#B97964"/>
<path opacity="0.2" d="M240.593 191.832C241.171 200.496 248.319 202.937 251.828 203.384C251.352 201.789 251.205 200.114 251.394 198.46L240.593 191.832Z" fill="black"/>
<path d="M266.022 166.721C266.022 166.721 267.683 177.869 260.492 183.082C253.301 188.294 253.272 163.068 253.272 163.068L266.022 166.721Z" fill="#263238"/>
<path d="M239.568 193.854C241.074 196.083 243.27 197.756 245.818 198.617C248.367 199.478 251.127 199.478 253.676 198.619C256.997 197.564 259.794 195.288 261.503 192.251C261.734 191.837 261.95 191.404 262.152 190.951C265.69 182.663 266.816 168.18 258.066 162.765C255.076 160.885 251.462 160.268 248.019 161.051C244.575 161.833 241.582 163.951 239.698 166.938C238.571 168.703 237.888 170.714 237.705 172.8C236.68 182.475 235.597 188.121 239.568 193.854Z" fill="#B97964"/>
<path d="M251.871 177.97C251.683 178.735 252.03 179.414 252.55 179.544C253.069 179.674 253.589 179.067 253.719 178.288C253.849 177.508 253.546 176.844 253.041 176.714C252.535 176.584 252.015 177.19 251.871 177.97Z" fill="#263238"/>
<path d="M260.708 179.486C260.52 180.251 260.881 180.93 261.387 181.046C261.892 181.161 262.426 180.569 262.556 179.789C262.686 179.01 262.383 178.345 261.878 178.215C261.372 178.085 260.838 178.735 260.708 179.486Z" fill="#263238"/>
<path d="M257.835 179.385C258.352 181.934 259.222 184.398 260.419 186.706C259.819 186.999 259.161 187.157 258.493 187.17C257.824 187.182 257.161 187.049 256.55 186.778L257.835 179.385Z" fill="#A24E3F"/>
<path d="M249.676 174.692C249.758 174.715 249.844 174.718 249.927 174.701C250.01 174.683 250.088 174.645 250.153 174.591C250.564 174.177 251.068 173.867 251.623 173.686C252.178 173.506 252.768 173.459 253.344 173.551C253.404 173.566 253.466 173.569 253.527 173.56C253.588 173.55 253.646 173.529 253.699 173.497C253.751 173.464 253.796 173.422 253.832 173.372C253.868 173.322 253.894 173.265 253.907 173.205C253.922 173.147 253.925 173.087 253.917 173.027C253.908 172.968 253.888 172.911 253.857 172.86C253.826 172.809 253.785 172.765 253.737 172.73C253.688 172.694 253.633 172.669 253.575 172.656C252.851 172.524 252.106 172.567 251.402 172.784C250.698 173 250.057 173.382 249.532 173.898C249.445 173.987 249.397 174.106 249.397 174.23C249.397 174.354 249.445 174.473 249.532 174.562C249.572 174.614 249.621 174.658 249.676 174.692Z" fill="#263238"/>
<path d="M249.099 186.966C250.243 187.039 251.353 187.384 252.337 187.972C253.321 188.559 254.152 189.373 254.759 190.345C254.786 190.403 254.791 190.469 254.772 190.53C254.753 190.592 254.713 190.644 254.658 190.677C254.632 190.695 254.603 190.706 254.572 190.712C254.541 190.717 254.509 190.715 254.479 190.707C254.449 190.699 254.421 190.684 254.397 190.664C254.373 190.644 254.354 190.619 254.34 190.59C253.764 189.699 252.987 188.954 252.072 188.415C251.157 187.876 250.129 187.558 249.07 187.486C249.007 187.482 248.948 187.455 248.905 187.409C248.862 187.363 248.839 187.303 248.839 187.24C248.842 187.178 248.87 187.119 248.915 187.076C248.961 187.033 249.021 187.009 249.084 187.009L249.099 186.966Z" fill="#263238"/>
<path d="M265.026 177.089C265.11 177.118 265.201 177.118 265.286 177.089C265.402 177.055 265.502 176.978 265.563 176.873C265.625 176.769 265.645 176.644 265.618 176.526C265.427 175.806 265.065 175.144 264.562 174.596C264.059 174.047 263.43 173.629 262.73 173.378C262.671 173.36 262.609 173.355 262.548 173.361C262.487 173.368 262.428 173.386 262.374 173.416C262.321 173.445 262.273 173.485 262.235 173.533C262.197 173.581 262.169 173.637 262.152 173.696C262.12 173.814 262.136 173.941 262.195 174.048C262.254 174.156 262.353 174.236 262.47 174.273C263.013 174.49 263.497 174.832 263.883 175.271C264.27 175.71 264.547 176.234 264.694 176.8C264.724 176.87 264.769 176.933 264.827 176.983C264.884 177.033 264.952 177.069 265.026 177.089Z" fill="#263238"/>
<path d="M252.073 157.248C250.918 157.09 249.763 156.96 248.607 156.902C245.254 156.59 241.881 157.262 238.904 158.837C232.218 162.808 233.373 172.959 234.24 179.544C235.38 188.294 238.817 192.251 238.817 192.251C236.738 188.078 237.373 179.948 238.716 179.746C240.059 179.544 239.972 181.103 239.972 181.103C242.99 179.226 245.748 173.883 244.766 170.158C244.044 167.27 247.265 165.162 249.965 166.505L250.788 166.909L252.073 167.501V157.248Z" fill="#263238"/>
<path d="M232.218 179.963C232.561 181.127 233.131 182.213 233.894 183.157C234.657 184.101 235.599 184.885 236.666 185.464C239.554 187.009 241.662 184.612 241.474 181.537C241.272 178.807 239.583 174.634 236.406 174.317C235.705 174.261 235.002 174.384 234.361 174.675C233.721 174.965 233.166 175.414 232.747 175.979C232.328 176.544 232.06 177.205 231.967 177.902C231.875 178.599 231.961 179.308 232.218 179.963Z" fill="#B97964"/>
<path d="M255.943 165.566C255.308 166.678 256.896 170.259 253.3 169.407C249.705 168.555 249.459 170.071 246.918 172.54C244.377 175.01 239.207 171.255 239.207 171.255L233.575 171.992C233.575 171.992 229.446 168.295 232.03 166.302C234.615 164.31 235.178 161.479 236.752 158.144C238.326 154.808 245.344 150.476 252.781 155.545C252.781 155.545 256.737 154.187 258.484 155.169C259.789 156.113 260.861 157.343 261.618 158.765C261.858 158.469 262.159 158.228 262.5 158.059C262.841 157.889 263.215 157.795 263.595 157.783C263.976 157.771 264.355 157.84 264.706 157.987C265.058 158.134 265.374 158.355 265.632 158.635C267.654 160.743 266.051 168.281 267.784 170.187C269.517 172.093 265.632 174.418 265.632 174.418C265.632 174.418 262.585 173.696 262.585 171.457C262.585 167.501 262.008 166.086 260.073 165.364C259.713 165.241 259.325 165.236 258.962 165.347C258.599 165.459 258.28 165.682 258.051 165.985C258.051 165.985 256.896 163.804 255.943 165.566Z" fill="#263238"/>
</g>
<defs>
<clipPath id="clip0_15_207">
<rect width="560" height="525" fill="white"/>
</clipPath>
</defs>
</svg>
